<?xml version="1.0" encoding="UTF-8" standalone="no"?>
<!-- Created with Inkscape (http://www.inkscape.org/) -->
<svg
   xmlns:dc="http://purl.org/dc/elements/1.1/"
   xmlns:cc="http://creativecommons.org/ns#"
   xmlns:rdf="http://www.w3.org/1999/02/22-rdf-syntax-ns#"
   xmlns:svg="http://www.w3.org/2000/svg"
   xmlns="http://www.w3.org/2000/svg"
   xmlns:sodipodi="http://sodipodi.sourceforge.net/DTD/sodipodi-0.dtd"
   xmlns:inkscape="http://www.inkscape.org/namespaces/inkscape"
   width="339.99966"
   height="149.99985"
   id="svg2"
   sodipodi:version="0.32"
   inkscape:version="0.46"
   version="1.0"
   sodipodi:docname="disegno.svg"
   inkscape:output_extension="org.inkscape.output.svg.inkscape">
  <defs
     id="defs4" />
  <sodipodi:namedview
     id="base"
     pagecolor="#ffffff"
     bordercolor="#666666"
     borderopacity="1.0"
     inkscape:pageopacity="0.0"
     inkscape:pageshadow="2"
     inkscape:zoom="1.563638"
     inkscape:cx="154.05728"
     inkscape:cy="9.0334381"
     inkscape:document-units="px"
     inkscape:current-layer="layer1"
     showgrid="false"
     inkscape:showpageshadow="false"
     inkscape:window-width="1440"
     inkscape:window-height="881"
     inkscape:window-x="-4"
     inkscape:window-y="-4" />
  <metadata
     id="metadata7">
    <rdf:RDF>
      <cc:Work
         rdf:about="">
        <dc:format>image/svg+xml</dc:format>
        <dc:type
           rdf:resource="http://purl.org/dc/dcmitype/StillImage" />
      </cc:Work>
    </rdf:RDF>
  </metadata>
  <g
     inkscape:label="Livello 1"
     inkscape:groupmode="layer"
     id="layer1"
     transform="translate(207.88153,-347.17639)">
    <path
       style="fill:#000000;fill-opacity:1;stroke:none"
       d="M 132.11813,497.17624 L 132.11813,347.17639 L -138.16151,347.17639 L -207.88153,422.17632 L -138.16151,497.17624 L 132.11813,497.17624 z"
       id="polygon3"
       sodipodi:nodetypes="cccccc" />
    <rect
       width="39.999962"
       height="149.99985"
       x="79.128418"
       y="347.17639"
       style="fill:#ffd200"
       id="rect7" />
    <path
       style="fill:#ffd200;fill-rule:evenodd"
       d="M -99.17227,397.94043 L -99.17227,398.12771 L -99.01617,398.50227 L -98.51679,400.0004 L -98.42315,400.74952 L -98.57925,401.74828 L -98.70407,401.93556 L -98.86007,401.99792 L -99.07863,401.93556 L -99.23463,401.81064 L -99.20345,401.34254 L -99.29709,400.43732 L -99.54673,399.62584 L -99.98375,399.15765 L -101.07615,398.40863 L -102.04372,398.34617 L -102.16854,398.40863 L -101.82526,399.43856 L -101.70034,400.49978 L -101.73162,401.03034 L -101.73162,401.18644 L -101.70034,401.4049 L -101.85644,401.93556 L -102.5431,402.1852 L -104.22852,402.96549 L -106.28849,404.37009 L -106.88151,404.93183 L -106.91269,405.11911 L -105.69547,406.11786 L -105.44573,406.14914 L -104.13488,405.24393 L -103.10494,404.68219 L -102.32464,404.37009 L -101.35706,404.12035 L -100.23339,404.08917 L -99.57801,404.24517 L -99.07863,404.40127 L -98.14224,404.80701 L -97.39312,405.4312 L -97.08102,405.83694 L -96.86256,406.3676 L -96.70646,407.21026 L -96.73774,408.17784 L -97.70532,409.45751 L -99.64037,411.6424 L -101.7628,413.79602 L -104.22852,416.16809 L -104.29097,416.35537 L -104.16606,416.63629 L -103.97878,417.63504 L -104.04124,418.60262 L -104.29097,419.88229 L -104.38461,420.10075 L -104.72789,420.25676 L -104.88399,420.10075 L -104.88399,419.97593 L -104.69671,419.60138 L -104.57189,418.6338 L -104.69671,417.10439 L -104.82153,416.44901 L -105.10245,415.82471 L -105.50819,415.26297 L -106.07003,414.85713 L -106.78787,414.63867 L -106.81905,414.70113 L -106.66305,415.10687 L -106.47577,416.07445 L -106.47577,416.23045 L -106.38213,417.13566 L -106.41331,417.97832 L -106.56941,418.57134 L -106.75669,418.72744 L -106.97515,418.75862 L -107.09997,418.66498 L -107.13124,418.44652 L -107.09997,418.35288 L -107.09997,418.10324 L -107.03761,416.91711 L -107.25606,415.57507 L -107.56816,414.85713 L -107.94272,414.45139 L -108.41092,413.98329 L -109.19122,413.63992 L -109.90906,413.5151 L -110.0027,413.54628 L -110.22116,413.54628 L -110.40843,413.60874 L -110.40843,413.6711 L -110.28361,413.79602 L -109.6906,414.85713 L -109.44086,415.76235 L -109.3785,416.51137 L -109.5345,417.0732 L -109.65932,417.26048 L -109.90906,417.32294 L -110.03388,417.2293 L -110.09634,416.60501 L -110.1587,415.76235 L -110.28361,415.32533 L -110.56453,414.70113 L -111.06391,413.98329 L -111.59447,413.57746 L -112.21867,413.29664 L -113.21752,413.203 L -113.62326,413.32782 L -113.84172,413.45264 L -113.84172,413.54628 L -113.65444,413.76474 L -112.93661,414.70113 L -112.59323,415.48143 L -112.53087,415.79353 L -112.49959,416.51137 L -112.59323,416.79229 L -112.81179,416.85475 L -112.93661,416.72993 L -113.2487,415.69989 L -113.4048,415.35661 L -113.90418,414.57631 L -114.24746,414.13929 L -114.8093,413.76474 L -115.40232,413.54628 L -115.9017,413.5151 L -116.36989,413.57746 L -116.68199,413.6711 L -116.74445,413.76474 L -116.74445,413.8272 L -116.61953,413.95202 L -116.2138,414.38903 L -115.71442,415.16933 L -115.49596,415.66871 L -115.24622,416.54265 L -115.30868,416.82347 L -115.37114,416.88593 L -115.5896,416.94838 L -115.7456,416.82347 L -115.93288,416.13681 L -116.33862,415.45015 L -117.27501,414.32657 L -117.74321,414.07684 L -117.83685,414.07684 L -118.49223,413.98329 L -118.77315,414.07684 L -118.86679,414.07684 L -119.11652,414.10811 L -119.33498,414.23293 L -118.52351,415.10687 L -118.11777,415.76235 L -117.68075,416.72993 L -117.58711,417.75986 L -117.68075,418.1656 L -117.89921,418.19678 L -118.08649,417.97832 L -118.18013,417.6974 L -118.18013,417.2293 L -118.30505,416.63629 L -118.52351,416.29291 L -118.86679,415.82471 L -119.27253,415.57507 L -119.6159,415.51261 L -119.70954,415.51261 L -119.80318,415.54379 L -119.99046,415.57507 L -120.52102,415.94963 L -120.92676,416.44901 L -121.05168,416.79229 L -121.08286,417.35412 L -120.95804,418.19678 L -120.61466,418.75862 L -119.99046,419.4141 L -119.4598,419.69502 L -119.42862,419.91348 L -119.55344,420.10075 L -119.83436,420.13193 L -120.0841,420.00711 L -120.20892,419.97593 L -120.3962,420.00711 L -120.80194,420.38167 L -121.45742,421.13069 L -121.67588,421.47407 L -121.76952,421.66135 L -121.83188,421.72371 L -122.30007,422.47283 L -122.98673,423.56522 L -123.45493,424.50162 L -122.92437,424.87618 L -121.51978,425.87493 L -121.08286,426.03094 L -120.30256,426.49913 L -118.74197,427.46671 L -118.30505,427.49789 L -117.99285,427.31061 L -117.99285,427.21697 L -118.14895,427.09215 L -118.71079,426.49913 L -118.83561,426.21821 L -118.74197,426.12457 L -118.11777,426.37431 L -117.33747,426.78005 L -116.93163,426.68641 L -116.49471,426.49913 L -116.15143,426.12457 L -115.77688,426.06221 L -115.18386,425.65638 L -114.77812,425.25064 L -114.68448,425.001 L -114.90294,425.001 L -115.09022,425.03218 L -115.21504,425.06336 L -115.62078,425.001 L -115.71442,424.87618 L -115.87052,424.87618 L -116.43226,424.59526 L -117.05655,423.9086 L -117.43111,423.34676 L -117.58711,422.72257 L -117.52475,421.97345 L -117.33747,421.38043 L -116.90045,420.81859 L -115.65196,419.7262 L -114.93412,419.32046 L -114.3411,419.13318 L -113.84172,419.03954 L -113.4048,419.07072 L -112.71815,419.38292 L -112.40595,419.63256 L -112.24995,419.91348 L -112.15631,420.97469 L -112.18749,421.03705 L -112.18749,421.41161 L -112.40595,422.69129 L -112.78051,423.40922 L -112.90533,423.53404 L -112.93661,423.69004 L -113.59198,424.47034 L -113.90418,424.81372 L -114.1851,425.4692 L -113.99782,425.4692 L -113.74808,425.40674 L -112.93661,425.03218 L -112.81179,425.12582 L -112.53087,425.50038 L -112.15631,425.50038 L -111.78175,425.21946 L -111.59447,424.93854 L -111.53201,424.72008 L -111.34483,423.34676 L -111.12627,422.66011 L -111.06391,422.25437 L -111.09509,422.12955 L -111.18873,421.84863 L -110.97027,421.63007 L -110.50207,421.56771 L -110.25234,421.81735 L -110.25234,422.19191 L -110.28361,422.28555 L -110.43962,422.72257 L -110.68935,423.5964 L -110.81417,424.65762 L -110.78299,424.78254 L -110.81417,424.96972 L -110.78299,425.56284 L -110.68935,425.87493 L -110.68935,426.06221 L -110.50207,426.81123 L -109.94024,428.15337 L -109.44086,428.90248 L -108.4421,430.05724 L -108.19236,430.21334 L -108.16118,429.93242 L -108.03636,429.6515 L -107.88026,429.58914 L -106.81905,430.08852 L -106.16367,430.21334 L -106.28849,429.99488 L -106.35095,429.71396 L -106.56941,429.40186 L -107.31852,427.77881 L -107.8179,426.78005 L -107.91154,426.40549 L -107.84908,425.99975 L -107.69298,425.7813 L -107.41207,425.7813 L -107.19361,425.99975 L -107.03761,426.84251 L -102.231,436.51808 L -101.4507,438.17231 L -101.20097,439.10871 L -101.07615,440.26347 L -101.10733,441.69924 L -101.23215,442.698 L -101.35706,443.10374 L -101.63798,443.91531 L -101.73162,444.35223 L -101.32579,444.60197 L -101.04497,444.82043 L -100.92005,444.85161 L -98.48561,446.41221 L -98.76643,445.63191 L -98.92253,445.10135 L -99.14099,444.63315 L -99.35955,444.41469 L -100.35831,444.28977 L -100.60795,444.19613 L -100.82641,443.94649 L -100.82641,443.7904 L -100.60795,443.50948 L -100.45195,443.50948 L -99.98375,443.57194 L -99.48437,443.72803 L -98.95371,443.85285 L -98.82889,443.82167 L -98.98499,442.82282 L -99.01617,441.82406 L -99.23463,441.35586 L -99.89011,439.79537 L -99.67165,439.51445 L -99.42191,439.48317 L -99.29709,439.57681 L -98.07978,442.16744 L -97.29958,443.85285 L -97.17466,443.85285 L -95.89498,442.94774 L -94.05347,441.66806 L -93.679012,441.32468 L -97.01866,441.9177 L -97.29958,441.6056 L -97.29958,441.41832 L -97.04984,441.16868 L -96.86256,441.10622 L -96.26954,441.07504 L -95.8638,440.91894 L -96.45682,440.13865 L -97.86132,438.70287 L -98.11106,438.32841 L -98.14224,438.04749 L -97.95496,437.82903 L -97.86132,437.82903 L -97.67404,437.82903 L -96.86256,438.17231 L -96.45682,438.20349 L -96.36318,438.10985 L -96.26954,437.82903 L -96.14472,437.51684 L -96.0198,437.04874 L -95.80134,436.89264 L -95.5517,436.89264 L -95.39561,436.98628 L -95.33315,437.1111 L -95.5517,437.79776 L -95.7077,438.23477 L -95.14596,438.64051 L -94.36567,439.42081 L -94.36567,439.07743 L -94.61531,437.82903 L -95.02105,436.42444 L -95.20833,436.11234 L -96.73774,436.29962 L -96.8001,436.36208 L -97.01866,436.23716 L -97.67404,434.95749 L -98.11106,434.23965 L -98.42315,433.83391 L -98.42315,433.74027 L -98.45434,433.61545 L -98.42315,433.42817 L -98.20469,433.27207 L -97.95496,433.27207 L -97.7365,433.42817 L -96.61292,434.52057 L -96.488,433.80263 L -96.55046,432.71023 L -96.8001,432.08603 L -97.14348,431.46184 L -97.7365,430.83754 L -98.76643,430.30698 L -99.92129,429.99488 L -100.07739,429.77632 L -100.13975,429.52668 L -99.92129,429.30822 L -99.45309,429.21458 L -98.98499,429.30822 L -98.51679,429.43304 L -97.86132,429.74514 L -96.86256,430.33816 L -96.86256,429.74514 L -97.1123,428.96485 L -97.61168,428.18455 L -97.95496,427.80999 L -98.48561,427.43553 L -99.07863,427.27943 L -99.54673,427.12333 L -100.85769,426.99851 L -101.35706,426.87369 L -101.6067,426.68641 L -101.66916,426.43667 L -101.57552,426.34303 L -101.26342,426.18703 L -100.57677,426.09339 L -99.20345,426.28067 L -97.76768,426.78005 L -97.76768,426.68641 L -97.8926,425.65638 L -97.95496,425.12582 L -98.17342,424.65762 L -98.61043,424.03342 L -99.07863,423.69004 L -99.67165,423.40922 L -100.23339,423.19066 L -101.26342,423.09703 L -102.51192,423.09703 L -102.57428,423.1283 L -102.88638,423.03466 L -103.04248,422.87857 L -103.07366,422.69129 L -102.98002,422.56647 L -102.26218,422.31673 L -101.10733,422.28555 L -100.17103,422.37919 L -99.29709,422.62893 L -98.57925,423.09703 L -98.42315,422.62893 L -97.61168,420.44403 L -96.9562,418.91472 L -95.80134,416.48019 L -95.45806,415.88717 L -95.39561,415.66871 L -95.61406,415.66871 L -96.11344,415.85599 L -96.61292,416.07445 L -97.7365,417.16684 L -97.95496,417.19802 L -98.07978,417.0732 L -98.14224,416.88593 L -97.8926,416.38655 L -97.51804,415.98081 L -97.1123,415.63743 L -96.86256,415.38779 L -96.42564,415.16933 L -95.95744,415.01323 L -94.74013,414.70113 L -93.835012,414.66995 L -93.117174,414.82595 L -92.180778,415.10687 L -91.43176,415.48143 L -90.745102,415.76235 L -90.464183,415.79353 L -90.120805,415.91835 L -89.933526,415.91835 L -89.278147,415.98081 L -88.27939,415.98081 L -87.436634,415.82471 L -86.687517,415.69989 L -85.126922,415.32533 L -84.128165,415.01323 L -83.566426,414.91959 L -82.97331,414.70113 L -82.349111,414.63867 L -82.286652,414.66995 L -82.19311,414.63867 L -81.849732,414.66995 L -81.475174,414.82595 L -80.694877,415.48143 L -80.601237,414.32657 L -80.694877,413.92084 L -81.038255,413.26536 L -81.631273,412.5787 L -82.224291,412.17296 L -82.848489,411.9545 L -83.566426,411.82968 L -84.939741,411.86086 L -85.064561,411.76722 L -85.126922,411.61112 L -84.658822,411.08056 L -84.533904,410.73719 L -84.065804,409.61361 L -83.659967,408.67721 L -82.786128,407.7721 L -82.161832,407.49118 L -81.693634,407.39754 L -80.382777,407.6161 L -79.165561,407.9282 L -78.229165,408.24029 L -77.136768,408.77085 L -76.606209,409.33269 L -76.231651,410.01935 L -75.607354,412.01686 L -75.264074,413.29664 L -75.014336,414.10811 L -74.889516,414.23293 L -74.671056,414.32657 L -73.391381,414.54503 L -73.048003,414.57631 L -72.423804,414.70113 L -71.674687,414.82595 L -72.049246,414.48267 L -72.642264,413.92084 L -73.110462,413.8272 L -73.26656,413.76474 L -73.797119,413.6711 L -73.92194,413.70238 L -74.265317,413.6711 L -74.452597,413.57746 L -74.483777,413.39018 L -74.483777,413.29664 L -74.265317,412.98444 L -74.171678,412.98444 L -73.890759,412.95326 L -72.985642,412.76598 L -72.860723,412.64116 L -73.204101,411.89204 L -73.391381,411.1742 L -73.8283,410.76847 L -75.388894,409.42633 L -75.420173,409.08305 L -75.264074,408.92695 L -75.201615,408.92695 L -73.391381,410.23781 L -71.487408,411.76722 L -71.331407,411.76722 L -71.268948,411.73604 L -70.363831,410.73719 L -69.052975,408.95813 L -69.052975,408.86449 L -69.302615,408.92695 L -69.833272,409.14541 L -70.176552,409.23905 L -71.237768,409.73843 L -71.612326,410.05053 L -71.861966,410.36273 L -72.049246,410.45637 L -72.205344,410.45637 L -72.330164,410.33145 L -72.330164,410.20663 L -72.174066,409.76971 L -71.300227,408.86449 L -71.300227,408.77085 L -71.456228,408.64603 L -71.643507,408.61485 L -71.705966,408.52121 L -72.486263,408.20911 L -73.60984,407.6161 L -75.201615,407.08544 L -75.513715,406.80452 L -75.638633,406.39878 L -75.576174,406.27396 L -73.797119,405.83694 L -73.516201,405.68094 L -73.60984,404.99429 L -73.672299,404.83819 L -73.73466,404.30763 L -73.453742,404.02671 L -73.204101,404.08917 L -73.079281,404.21399 L -73.048003,404.61973 L -72.985642,404.83819 L -72.798362,404.93183 L -71.705966,404.99429 L -71.456228,405.02547 L -70.925669,404.99429 L -71.112948,404.83819 L -71.393768,404.68219 L -73.172921,403.68343 L -74.046858,403.15277 L -74.483777,403.05913 L -74.639876,403.15277 L -76.013191,404.43245 L -76.106831,404.43245 L -76.41893,404.37009 L -76.63739,404.15153 L -76.606209,404.02671 L -76.356471,403.68343 L -76.356471,403.58979 L -75.576174,402.59093 L -75.014336,402.12283 L -74.452597,401.8731 L -74.608597,401.62346 L -75.232894,401.31126 L -75.669813,401.18644 L -76.013191,401.12398 L -76.824669,401.06162 L -77.386507,401.15526 L -78.197984,401.43618 L -78.884642,401.8731 L -79.82094,402.74703 L -79.945858,402.74703 L -80.133137,402.55975 L -80.133137,402.31011 L -80.039498,402.06038 L -79.290381,401.34254 L -78.728543,400.99916 L -77.823426,400.59342 L -78.229165,400.37496 L -78.759822,400.21886 L -79.415201,400.06286 L -79.47766,400.12522 L -80.039498,400.03158 L -80.694877,400.12522 L -81.256714,400.28132 L -82.130651,400.74952 L -83.160589,401.74828 L -83.847246,402.74703 L -83.909706,403.15277 L -84.034526,403.30887 L -84.346625,403.40251 L -84.690003,403.27759 L -85.938498,403.12159 L -86.219417,403.15277 L -86.687517,403.46487 L -87.062075,403.96425 L -87.374174,404.71337 L -87.623913,405.77458 L -87.904832,406.33642 L -88.216931,406.6797 L -88.716309,407.05426 L -89.184507,407.1479 L -90.152084,407.05426 L -90.464183,407.05426 L -92.118417,407.08544 L -92.680157,407.21026 L -93.679012,407.74092 L -94.08475,408.14665 L -94.61531,408.39639 L -94.64649,408.30275 L -94.45931,408.02183 L -94.17839,407.52246 L -94.05347,406.8358 L -94.14711,406.2115 L -94.45931,405.11911 L -94.61531,404.77583 L -95.20833,403.99553 L -96.39436,402.96549 L -96.39436,402.87185 L -96.20708,402.52857 L -96.11344,401.90428 L -96.14472,401.59218 L -96.36318,400.4686 L -96.6441,399.65702 L -97.08102,399.06401 L -97.64286,398.59591 L -98.64161,398.06525 L -99.17227,397.94043 z M -116.12016,398.40863 L -116.55717,398.47099 L -117.02527,398.53345 L -117.46229,398.62709 L -118.27377,398.90801 L -118.9917,399.22011 L -119.67836,399.75066 L -120.8644,400.90552 L -121.51978,401.74828 L -121.8007,402.15401 L -121.98798,402.55975 L -122.39371,403.55851 L -122.64345,404.71337 L -122.73709,405.7434 L -122.67463,406.11786 L -122.36253,407.7721 L -121.98798,408.64603 L -121.08286,409.76971 L -120.02164,410.73719 L -119.58472,411.04938 L -118.30505,411.82968 L -117.80557,411.98568 L -117.18137,412.14178 L -116.12016,412.17296 L -115.21504,412.04814 L -114.06018,411.82968 L -113.59198,411.70476 L -112.65569,411.39266 L -111.59447,410.92447 L -110.12752,410.08181 L -109.00394,409.23905 L -109.00394,409.08305 L -109.09758,408.73967 L -109.31604,407.6161 L -109.44086,407.3039 L -109.50332,407.3039 L -109.65932,407.46 L -110.68935,408.33393 L -111.93785,409.17669 L -112.81179,409.73843 L -113.09261,409.86335 L -114.06018,410.17545 L -114.40356,410.20663 L -114.52838,410.30027 L -115.7456,410.42509 L -115.77688,410.39391 L -115.80806,410.42509 L -116.83809,410.39391 L -116.86927,410.42509 L -116.93163,410.39391 L -117.02527,410.39391 L -117.36865,410.33145 L -117.39983,410.39391 L -117.86803,410.30027 L -118.74197,409.98817 L -119.27253,409.55115 L -119.27253,409.42633 L -118.92925,409.30151 L -118.49223,408.92695 L -118.08649,408.39639 L -117.74321,407.9282 L -117.52475,407.33518 L -117.43111,406.77334 L -117.46229,406.74216 L -117.43111,406.6797 L -117.43111,406.14914 L -117.52475,405.7434 L -117.89921,405.96186 L -118.21141,406.11786 L -118.96043,406.61724 L -119.74072,406.9918 L -120.20892,407.08544 L -121.05168,406.96062 L -121.14522,406.89816 L -121.20768,406.64852 L -121.14522,406.39878 L -120.67712,406.3676 L -119.74072,406.24278 L -118.86679,405.68094 L -118.30505,405.11911 L -117.80557,404.40127 L -117.74321,403.93307 L -117.80557,403.80825 L -117.93049,403.80825 L -118.08649,403.83943 L -118.96043,404.02671 L -118.9917,403.99553 L -119.27253,404.02671 L -119.42862,403.99553 L -119.4598,404.02671 L -119.74072,403.96425 L -120.42738,403.37123 L -120.80194,403.24641 L -120.92676,403.12159 L -120.95804,402.90313 L -120.8644,402.80949 L -120.7083,402.80949 L -120.61466,402.84067 L -119.86554,403.02795 L -118.92925,402.71585 L -118.27377,402.40366 L -117.71193,401.99792 L -117.61839,401.81064 L -117.71193,401.717 L -118.39859,401.561 L -119.21016,401.28008 L -119.55344,401.21762 L -119.74072,401.12398 L -119.74072,400.9368 L -119.6159,400.7807 L -119.4598,400.7807 L -118.92925,400.90552 L -118.14895,400.28132 L -117.68075,400.03158 L -116.77563,399.87558 L -116.46353,399.90676 L -115.62078,400.0004 L -114.93412,400.1565 L -114.21628,400.4686 L -113.27989,401.03034 L -112.06267,402.06038 L -111.18873,403.12159 L -110.1587,404.58855 L -109.19122,406.5236 L -108.9103,407.39754 L -108.87902,407.64728 L -108.72302,408.24029 L -108.4421,409.86335 L -108.13,410.89329 L -107.78662,411.73604 L -107.3497,412.4227 L -106.75669,413.0469 L -106.28849,413.39018 L -105.66429,413.60874 L -105.13363,413.70238 L -104.04124,413.76474 L -103.66668,413.63992 L -103.97878,413.5151 L -104.75907,413.01572 L -105.60183,412.1105 L -105.60183,411.98568 L -105.75793,411.70476 L -105.78911,411.45512 L -105.66429,411.39266 L -105.22727,411.9545 L -104.63425,412.29778 L -103.97878,412.54752 L -103.4794,412.64116 L -103.44822,412.5787 L -103.38576,412.64116 L -103.22976,412.64116 L -102.88638,412.5787 L -102.88638,412.64116 L -102.57428,412.5787 L -102.0749,412.45388 L -101.29461,412.04814 L -100.70159,411.45512 L -100.63923,411.1742 L -100.67041,411.1742 L -101.54434,411.39266 L -102.19972,411.42384 L -103.04248,411.29902 L -103.57304,411.04938 L -104.16606,410.73719 L -104.91517,409.92571 L -104.94635,409.76971 L -104.88399,409.70725 L -104.79035,409.70725 L -104.57189,409.92571 L -104.07242,410.17545 L -103.04248,410.30027 L -102.01244,410.17545 L -101.51307,409.98817 L -100.35831,409.30151 L -99.67165,408.55239 L -99.60919,408.17784 L -99.85893,408.24029 L -100.42067,408.39639 L -101.26342,408.49003 L -101.82526,408.45875 L -102.88638,408.20911 L -104.29097,407.74092 L -104.94635,407.39754 L -105.88275,406.8358 L -106.63187,406.24278 L -107.38088,405.40002 L -108.06754,404.27645 L -108.81666,403.15277 L -109.65932,402.02919 L -110.37725,401.12398 L -111.25119,400.21886 L -111.40719,400.1565 L -111.40719,400.12522 L -112.65569,399.31374 L -113.99782,398.78319 L -114.9653,398.53345 L -116.12016,398.40863 z M -72.735903,405.55612 L -72.829543,405.61848 L -72.860723,405.64976 L -72.829543,405.68094 L -72.829543,405.83694 L -72.860723,406.02422 L -73.048003,406.24278 L -73.8283,406.55488 L -73.8283,406.64852 L -73.60984,406.6797 L -72.611083,407.21026 L -71.581048,407.55364 L -71.581048,407.33518 L -71.643507,406.8358 L -71.986885,405.96186 L -72.174066,405.64976 L -72.735903,405.55612 z M -124.51615,407.1479 L -124.64097,407.3039 L -125.17153,408.61485 L -125.32762,409.14541 L -125.5149,409.45751 L -125.57736,409.92571 L -125.17153,412.79716 L -124.82825,415.32533 L -124.76579,415.38779 L -124.73461,415.38779 L -124.20405,415.01323 L -123.82949,414.85713 L -123.82949,414.70113 L -123.89185,414.66995 L -123.92313,413.8272 L -123.76703,413.359 L -123.51739,413.0469 L -123.48611,412.85962 L -123.51739,412.82844 L -123.54857,412.01686 L -123.48611,411.61112 L -123.14283,411.14302 L -122.92437,411.08056 L -122.76827,411.1742 L -122.61217,411.04938 L -122.89309,409.20787 L -124.14159,407.55364 L -124.51615,407.1479 z M -77.324047,409.98817 L -77.542507,410.05053 L -77.698606,410.20663 L -78.166804,410.76847 L -78.603723,411.70476 L -78.915823,412.70352 L -79.071921,413.63992 L -78.166804,414.10811 L -75.669813,415.35661 L -75.700994,415.16933 L -76.200372,414.48267 L -76.76221,413.85838 L -77.885885,412.98444 L -78.041886,412.54752 L -77.948246,412.4227 L -77.823426,412.39142 L -76.606209,413.10936 L -76.54375,413.0469 L -76.51257,412.82844 L -76.387651,412.48506 L -76.356471,412.17296 L -76.63739,411.23666 L -77.074309,410.23781 L -77.324047,409.98817 z M -72.548624,411.82968 L -72.548624,411.89204 L -71.986885,412.64116 L -71.955606,412.95326 L -72.080426,413.10936 L -72.298984,413.203 L -72.298984,413.26536 L -71.050489,414.13929 L -70.395011,414.70113 L -70.395011,414.66995 L -70.457471,413.6711 L -70.582291,413.10936 L -70.613569,412.79716 L -70.832029,412.36024 L -70.89439,412.36024 L -70.98803,412.4227 L -71.144128,412.67234 L -71.362588,412.70352 L -72.392624,411.86086 L -72.548624,411.82968 z M -122.89309,411.89204 L -123.01801,412.01686 L -123.04919,412.45388 L -122.92437,412.82844 L -122.73709,413.01572 L -122.39371,413.359 L -122.39371,413.54628 L -122.48735,413.6711 L -122.64345,413.70238 L -122.67463,413.6711 L -123.08037,413.60874 L -123.33011,413.76474 L -123.33011,414.23293 L -123.20519,414.70113 L -122.98673,414.98205 L -122.73709,415.07569 L -122.61217,415.10687 L -122.30007,415.16933 L -121.83188,415.10687 L -121.42614,414.76349 L -121.20768,414.70113 L -121.08286,414.79477 L -121.05168,414.98205 L -121.11404,415.38779 L -121.4886,415.91835 L -121.89434,416.51137 L -122.42499,417.3853 L -122.76827,417.8535 L -122.98673,417.91596 L -123.04919,417.8535 L -123.14283,417.72868 L -123.14283,417.47894 L -123.08037,417.26048 L -122.79945,416.82347 L -122.83073,416.79229 L -122.79945,416.76111 L -122.79945,416.60501 L -122.83073,416.26173 L -122.79945,416.23045 L -122.89309,416.04327 L -123.01801,415.82471 L -123.20519,415.63743 L -123.64221,415.48143 L -123.67339,415.51261 L -123.73585,415.48143 L -123.95431,415.51261 L -124.20405,415.69989 L -124.36005,415.91835 L -124.39133,416.26173 L -124.29769,416.51137 L -124.20405,416.97957 L -124.32887,417.19802 L -124.48487,417.26048 L -124.76579,417.16684 L -124.82825,416.94838 L -125.2028,416.51137 L -125.5149,416.48019 L -126.04546,416.51137 L -126.26402,416.66747 L -126.4513,416.91711 L -126.57612,417.26048 L -126.66976,417.72868 L -126.6073,417.75986 L -126.6073,417.8535 L -126.57612,418.04078 L -126.35766,418.25924 L -126.04546,418.3217 L -125.95182,418.25924 L -125.88946,418.3217 L -125.60854,418.22806 L -125.3588,418.44652 L -125.3588,418.60262 L -125.57736,418.7899 L -125.76464,418.85226 L -126.17038,419.03954 L -126.26402,419.19564 L -126.2952,419.19564 L -126.35766,419.85102 L -126.07674,420.13193 L -125.57736,420.38167 L -125.14035,420.41285 L -124.89071,420.28803 L -124.64097,419.97593 L -124.57851,419.7262 L -124.32887,419.4141 L -124.14159,419.38292 L -123.92313,419.50774 L -123.89185,419.7262 L -124.45369,420.63131 L -125.2028,421.81735 L -125.63972,422.47283 L -125.76464,422.50401 L -125.9831,422.28555 L -126.01428,422.16073 L -125.76464,421.72371 L -125.827,421.44289 L -125.9831,421.13069 L -126.2952,420.81859 L -126.6073,420.63131 L -127.13796,420.75623 L -127.3876,420.97469 L -127.45006,421.25561 L -127.3876,421.59889 L -127.41878,421.72371 L -127.63734,421.87981 L -127.6997,421.84863 L -127.76216,421.84863 L -127.91816,421.72371 L -128.04307,421.53653 L -128.13671,421.53653 L -128.63609,421.59889 L -129.19793,421.87981 L -128.94819,422.00463 L -126.6073,423.03466 L -125.85818,423.37794 L -125.45244,423.50286 L -125.42126,423.47158 L -125.42126,423.40922 L -125.45244,423.2843 L -124.14159,421.16197 L -122.42499,418.4777 L -121.73834,417.32294 L -121.55106,416.32409 L -121.36378,415.85599 L -120.5522,415.07569 L -120.20892,414.85713 L -120.20892,414.79477 L -121.20768,413.6711 L -122.89309,411.89204 z M -74.015579,415.01323 L -73.859578,417.51012 L -73.95312,422.09827 L -74.140399,424.15824 L -74.546236,426.28067 L -75.014336,428.27819 L -75.326533,429.30822 L -75.888273,430.80636 L -75.981913,431.18092 L -75.825912,431.3682 L -75.607354,431.3682 L -75.201615,431.18092 L -74.452597,429.1833 L -73.859578,427.43553 L -73.26656,425.28192 L -72.923183,423.7525 L -72.735903,422.37919 L -72.579903,420.72495 L -72.454985,418.07196 L -72.579903,415.35661 L -72.673542,415.26297 L -73.547381,415.07569 L -74.015579,415.01323 z M -71.893245,415.38779 L -72.018065,415.41897 L -72.049246,418.41534 L -72.080426,419.91348 L -72.205344,421.56771 L -72.611083,424.59526 L -72.923183,426.18703 L -73.141642,427.02969 L -73.48502,428.80884 L -73.95312,430.2758 L -74.078038,431.02482 L -74.015579,431.39938 L -73.890759,431.86757 L -73.57866,432.39813 L -73.391381,432.58541 L -73.328921,432.55423 L -73.079281,431.92994 L -72.330164,429.99488 L -71.393768,427.21697 L -71.019308,425.53156 L -70.582291,423.53404 L -70.395011,422.22319 L -70.270191,420.81859 L -70.145371,418.3217 L -70.176552,415.79353 L -70.270191,415.69989 L -71.019308,415.57507 L -71.393768,415.51261 L -71.893245,415.38779 z M -94.14711,415.41897 L -94.24075,415.51261 L -94.45931,415.76235 L -94.52167,415.98081 L -95.20833,417.16684 L -94.77141,416.91711 L -93.866292,416.44901 L -93.117174,415.98081 L -92.805075,415.69989 L -93.054715,415.63743 L -93.741373,415.51261 L -94.14711,415.41897 z M -91.712678,416.35537 L -91.868679,416.38655 L -95.39561,418.57134 L -95.39561,418.66498 L -95.05233,419.85102 L -94.36567,421.44289 L -93.959832,422.53529 L -93.679012,423.84614 L -93.460454,425.81248 L -93.554094,426.68641 L -93.522913,426.68641 L -93.554094,426.74887 L -93.522913,426.78005 L -93.554094,426.81123 L -93.710192,428.05973 L -93.835012,428.49665 L -94.14711,429.12094 L -94.64649,429.58914 L -94.92741,429.71396 L -94.92741,429.8076 L -94.89623,429.90124 L -94.55295,430.33816 L -94.02229,430.65026 L -92.961076,430.71272 L -92.648976,430.65026 L -92.118417,430.46298 L -91.619039,430.1197 L -91.11966,429.62032 L -90.745102,428.87121 L -90.620184,428.18455 L -90.682643,427.80999 L -90.807463,427.59153 L -90.838741,427.18579 L -90.682643,426.99851 L -90.495364,426.90487 L -90.464183,426.93615 L -90.339363,426.93615 L -90.245723,427.09215 L -90.152084,427.18579 L -89.871165,427.49789 L -89.746345,427.49789 L -89.527787,427.56035 L -88.49785,427.46671 L -88.466571,427.49789 L -88.435391,427.46671 L -87.499093,427.43553 L -86.625156,427.56035 L -86.000859,427.99727 L -85.626399,428.46547 L -85.37666,428.99603 L -84.315444,431.96121 L -83.379147,434.89512 L -82.598849,437.64175 L -82.349111,438.57805 L -81.943372,440.45075 L -81.693634,440.54439 L -79.009462,440.73167 L -78.385264,440.70048 L -78.447625,440.66921 L -78.915823,440.38839 L -80.850975,439.01507 L -81.100616,439.17107 L -81.693634,439.20235 L -81.912192,439.01507 L -81.912192,438.85897 L -81.818552,438.73415 L -80.289138,437.61048 L -80.226679,437.4232 L -80.351597,437.1111 L -81.163075,435.36322 L -81.631273,434.23965 L -81.724912,433.95873 L -81.849732,433.74027 L -81.880913,433.52181 L -81.849732,433.49053 L -81.756093,433.36571 L -81.599994,433.30325 L -81.443994,433.49053 L -80.476417,435.61296 L -79.540021,437.61048 L -79.165561,437.45448 L -78.915823,437.32956 L -77.355228,436.6429 L -76.54375,436.23716 L -75.888273,436.0187 L -75.794633,435.89388 L -75.825912,435.89388 L -76.824669,435.7066 L -77.698606,435.58178 L -77.885885,435.45686 L -78.010705,435.48814 L -78.385264,436.0187 L -78.510084,436.36208 L -78.759822,436.61172 L -78.915823,436.6429 L -79.103102,436.61172 L -79.321561,436.42444 L -79.321561,436.1748 L -79.103102,435.83142 L -78.322804,434.86385 L -78.229165,434.70785 L -78.322804,434.55175 L -79.35284,433.80263 L -80.445237,432.80387 L -80.757336,432.36695 L -80.788516,431.86757 L -80.726155,431.71148 L -80.538876,431.43056 L -80.133137,431.14964 L -79.758579,431.08728 L -79.165561,430.99364 L -78.229165,431.08728 L -78.229165,430.99364 L -78.447625,430.46298 L -78.572543,429.99488 L -78.510084,429.9636 L -78.385264,429.86996 L -78.197984,429.90124 L -77.760967,430.30698 L -77.011948,430.86882 L -76.294012,431.18092 L -76.54375,430.68154 L -77.823426,428.62157 L -78.041886,428.43429 L -78.385264,428.59029 L -78.853461,428.99603 L -79.789759,429.74514 L -79.945858,429.8076 L -80.039498,429.71396 L -80.226679,429.3394 L -80.788516,428.02855 L -81.506453,428.02855 L -81.880913,427.77881 L -81.943372,427.62281 L -81.849732,427.46671 L -81.194255,427.12333 L -80.882156,427.02969 L -80.164318,427.09215 L -79.35284,427.37307 L -79.35284,427.21697 L -79.384021,426.93615 L -79.60248,426.18703 L -79.82094,425.7813 L -80.570057,425.06336 L -81.100616,424.72008 L -81.912192,424.47034 L -82.75485,424.28306 L -83.129408,424.25188 L -83.254228,424.15824 L -83.254228,424.00224 L -83.004588,423.81496 L -82.567571,423.5964 L -82.31793,423.56522 L -81.818552,423.5964 L -81.412813,423.7525 L -80.757336,424.0646 L -80.039498,424.50162 L -80.039498,424.00224 L -80.320318,423.09703 L -80.632516,422.56647 L -81.194255,422.09827 L -81.818552,421.72371 L -82.442751,421.53653 L -83.441508,421.56771 L -83.784885,421.59889 L -84.003345,421.72371 L -84.221805,421.87981 L -84.315444,421.78617 L -84.409084,421.31797 L -84.190624,421.06833 L -83.691246,420.88105 L -82.848489,420.75623 L -82.817309,420.81859 L -82.75485,420.75623 L -82.598849,420.75623 L -82.567571,420.81859 L -82.53639,420.75623 L -82.161832,420.81859 L -82.037012,420.72495 L -82.161832,420.47531 L -83.004588,419.5701 L -83.441508,419.28928 L -83.784885,419.16436 L -84.128165,419.102 L -84.533904,419.19564 L -84.970922,419.4141 L -85.4703,419.85102 L -85.657579,420.25676 L -85.782399,420.81859 L -85.71994,421.06833 L -85.844858,421.22433 L -85.969679,421.22433 L -87.062075,421.13069 L -87.499093,420.97469 L -87.779913,420.88105 L -88.18575,420.56895 L -88.435391,420.13193 L -88.65385,419.47656 L -89.028409,418.25924 L -89.122048,417.66622 L -89.215688,417.2293 L -89.246868,416.82347 L -89.746345,416.76111 L -90.745102,416.63629 L -91.24448,416.51137 L -91.46294,416.48019 L -91.712678,416.35537 z M -121.61342,418.19678 L -121.73834,418.25924 L -123.01801,420.28803 L -123.20519,420.63131 L -123.42375,420.94341 L -124.51615,422.69129 L -124.73461,423.00339 L -124.89071,423.25312 L -125.04671,423.5964 L -124.82825,423.78368 L -124.23523,424.15824 L -124.14159,424.00224 L -122.79945,421.84863 L -121.23886,419.32046 L -121.14522,419.03954 L -121.20768,419.00836 L -121.36378,418.75862 L -121.45742,418.4777 L -121.55106,418.19678 L -121.61342,418.19678 z M -113.27989,419.91348 L -113.31116,419.97593 L -113.62326,420.25676 L -114.3411,420.94341 L -114.9653,421.84863 L -115.05894,422.12955 L -115.21504,422.47283 L -115.40232,423.34676 L -115.5896,424.18952 L -115.52714,424.2207 L -115.49596,424.18952 L -115.33986,424.18952 L -115.30868,424.2207 L -114.52838,424.09588 L -114.52838,424.00224 L -114.43474,423.34676 L -114.24746,422.56647 L -113.93536,421.84863 L -113.21752,420.81859 L -112.93661,420.53767 L -112.87415,420.28803 L -112.93661,420.10075 L -113.09261,419.91348 L -113.27989,419.91348 z M -121.27014,423.65886 L -120.77076,423.72132 L -120.61466,423.65886 L -120.27138,423.69004 L -120.02164,424.00224 L -119.70954,424.78254 L -119.39744,425.25064 L -119.39744,425.4692 L -119.4598,425.56284 L -119.67836,425.59402 L -119.99046,425.34428 L -120.3962,424.87618 L -120.73948,424.75126 L -120.92676,425.03218 L -120.95804,425.25064 L -120.95804,425.34428 L -121.08286,425.53156 L -121.20768,425.71884 L -121.36378,425.7813 L -121.61342,425.71884 L -121.6447,425.56284 L -121.45742,424.93854 L -121.4886,423.93978 L -121.36378,423.72132 L -121.27014,423.65886 z M -123.61103,425.25064 L -123.67339,425.34428 L -123.67339,425.56284 L -123.14283,430.1197 L -122.79945,432.89751 L -122.67463,433.05361 L -122.51853,433.11597 L -121.83188,433.08479 L -121.8007,433.11597 L -121.76952,433.08479 L -121.61342,433.08479 L -121.51978,433.05361 L -121.8007,429.8076 L -122.01916,426.99851 L -121.92552,426.40549 L -121.98798,426.28067 L -123.61103,425.25064 z M -116.52589,425.25064 L -116.30743,425.28192 L -116.18261,425.4692 L -116.15143,425.7813 L -116.12016,425.99975 L -116.18261,426.06221 L -116.46353,425.96857 L -116.58835,425.81248 L -116.52589,425.28192 L -116.52589,425.25064 z M -114.029,426.28067 L -114.43474,426.40549 L -115.05894,426.87369 L -115.05894,427.65399 L -115.21504,428.59029 L -115.37114,428.96485 L -115.9017,429.55786 L -117.02527,430.05724 L -117.68075,430.18216 L -117.80557,430.33816 L -117.71193,430.46298 L -117.30619,430.68154 L -116.71317,430.83754 L -116.68199,430.80636 L -116.61953,430.83754 L -116.55717,430.83754 L -115.71442,430.80636 L -115.15258,430.2758 L -114.68448,429.74514 L -114.4972,429.43304 L -114.1851,428.65275 L -114.029,427.80999 L -113.99782,426.87369 L -114.029,426.28067 z M -121.61342,426.68641 L -121.61342,426.74887 L -121.55106,427.18579 L -120.73948,432.80387 L -120.67712,432.89751 L -120.45856,432.89751 L -119.95918,432.71023 L -119.6159,432.49177 L -120.3962,427.27943 L -120.83312,426.93615 L -121.36378,426.68641 L -121.61342,426.68641 z M -110.40843,428.87121 L -110.53325,428.96485 L -111.21991,430.33816 L -111.50083,430.99364 L -111.68811,431.39938 L -111.00145,431.8363 L -110.87663,431.8363 L -110.84535,431.80512 L -110.03388,430.71272 L -109.65932,430.1197 L -109.59696,429.86996 L -109.8466,429.62032 L -110.40843,428.87121 z M -109.19122,430.40062 L -109.25358,430.4318 L -110.72053,432.36695 L -110.78299,432.99115 L -110.72053,433.20961 L -110.56453,433.70909 L -110.37725,434.11483 L -109.31604,435.20722 L -108.78538,435.48814 L -108.25482,435.64414 L -107.78662,435.7066 L -107.6618,435.61296 L -107.47452,435.30086 L -105.88275,433.17843 L -105.38337,432.55423 L -105.13363,432.14849 L -105.47701,431.43056 L -105.69547,431.11846 L -106.75669,430.86882 L -107.47452,430.71272 L -107.50571,430.7439 L -107.50571,430.83754 L -107.59934,431.18092 L -107.75544,431.3682 L -108.00518,431.39938 L -108.13,431.3682 L -108.72302,430.9 L -109.12876,430.40062 L -109.19122,430.40062 z M -79.009462,431.61784 L -79.540021,431.71148 L -80.164318,432.02358 L -80.164318,432.11721 L -79.384021,432.95997 L -79.196741,432.95997 L -78.666182,432.77269 L -78.010705,432.67905 L -77.604966,432.77269 L -77.542507,432.71023 L -76.76221,433.05361 L -76.387651,433.27207 L -75.700994,433.95873 L -75.482534,434.30211 L -75.264074,434.30211 L -74.702237,434.52057 L -74.234039,434.80148 L -72.860723,435.83142 L -72.174066,436.1748 L -71.799605,436.29962 L -71.175309,436.36208 L -70.582291,436.23716 L -69.864452,435.83142 L -69.427435,435.42568 L -69.177795,435.05112 L -68.928057,434.64539 L -68.834417,434.14601 L -68.865695,434.02119 L -68.834417,433.95873 L -68.865695,433.89627 L -68.928057,433.55299 L -69.146614,433.17843 L -69.521075,432.67905 L -69.926912,432.52295 L -70.488651,432.52295 L -71.019308,432.71023 L -71.487408,433.08479 L -71.705966,433.36571 L -71.737146,433.67781 L -71.487408,434.02119 L -71.050489,434.30211 L -70.457471,434.14601 L -70.301372,434.30211 L -70.301372,434.55175 L -70.67593,434.9263 L -71.019308,434.95749 L -71.581048,434.86385 L -72.548624,434.30211 L -72.860723,434.05237 L -73.297741,433.61545 L -74.078038,432.64787 L -74.577417,431.61784 L -74.827057,431.74266 L -75.669813,431.99239 L -76.138011,432.02358 L -77.667327,431.86757 L -78.353985,431.6803 L -79.009462,431.61784 z M -113.12388,431.71148 L -113.31116,432.58541 L -113.34234,433.05361 L -112.78051,433.39689 L -111.78175,434.70785 L -111.31355,435.7066 L -111.18873,436.61172 L -111.21991,437.64175 L -111.43847,438.42205 L -111.37601,438.48441 L -109.94024,439.01507 L -108.50456,439.51445 L -107.78662,436.45572 L -107.84908,436.42444 L -107.9739,436.42444 L -108.13,436.36208 L -108.87902,436.23716 L -109.59696,435.92506 L -110.28361,435.36322 L -110.59571,434.95749 L -110.97027,434.36447 L -111.21991,433.70909 L -111.40719,432.55423 L -111.81293,432.27331 L -112.74933,431.8363 L -113.12388,431.71148 z M -118.11777,431.96121 L -118.21141,432.08603 L -118.96043,432.89751 L -119.6159,433.36571 L -120.8644,433.70909 L -121.83188,433.80263 L -122.23771,433.74027 L -122.92437,433.70909 L -123.01801,433.70909 L -123.04919,433.67781 L -123.42375,433.61545 L -123.92313,433.42817 L -124.32887,433.24089 L -124.45369,433.27207 L -126.04546,435.11358 L -124.20405,435.95624 L -123.95431,436.0187 L -123.92313,435.95624 L -123.89185,435.92506 L -123.82949,435.80024 L -123.42375,435.48814 L -122.33135,434.9263 L -121.27014,434.55175 L -119.928,434.30211 L -119.33498,434.30211 L -118.39859,434.36447 L -117.89921,434.52057 L -117.46229,434.61421 L -117.39983,434.55175 L -116.02652,432.83515 L -116.05779,432.80387 L -117.61839,432.11721 L -117.80557,431.99239 L -118.11777,431.96121 z M -77.355228,433.70909 L -77.480146,434.05237 L -77.667327,434.42693 L -77.542507,434.52057 L -77.480146,434.77021 L -77.292867,434.77021 L -76.699849,434.9263 L -76.481291,434.95749 L -76.200372,435.0824 L -75.763453,435.0824 L -74.577417,435.76906 L -74.795876,435.95624 L -76.356471,436.83018 L -78.915823,437.92258 L -79.47766,438.14113 L -79.47766,438.23477 L -79.60248,438.60923 L -79.69612,438.98379 L -77.417687,440.54439 L -77.324047,440.88776 L -77.292867,441.1374 L -77.480146,441.38714 L -77.636147,441.41832 L -78.634904,441.4495 L -78.666182,441.41832 L -79.633661,441.38714 L -79.69612,441.41832 L -80.008219,441.38714 L -80.070678,441.41832 L -80.133137,442.10498 L -80.070678,442.2298 L -79.945858,442.32344 L -79.540021,442.542 L -79.227922,442.63564 L -78.759822,442.60436 L -78.322804,442.29226 L -77.948246,442.13616 L -77.636147,442.2298 L -77.011948,442.82282 L -76.54375,443.04138 L -75.981913,443.10374 L -75.388894,443.07256 L -74.983156,442.97892 L -74.483777,442.72918 L -73.984399,442.29226 L -73.73466,441.9177 L -73.60984,441.54314 L -74.015579,441.69924 L -74.795876,441.7617 L -75.326533,441.6056 L -75.950732,441.26232 L -76.231651,440.88776 L -76.481291,440.38839 L -76.63739,440.38839 L -77.105588,440.54439 L -77.136768,440.51321 L -77.230408,440.51321 L -77.417687,440.45075 L -77.636147,440.29475 L -77.667327,440.01383 L -77.417687,439.76409 L -77.230408,439.76409 L -76.949489,439.70173 L -76.606209,439.54563 L -75.950732,438.92143 L -75.732272,438.57805 L -75.669813,438.01622 L -75.794633,438.01622 L -76.262831,437.98503 L -76.356471,437.8914 L -76.481291,437.64175 L -76.106831,437.29838 L -75.888273,437.23592 L -75.700994,437.1111 L -75.607354,437.1111 L -74.983156,436.83018 L -74.608597,436.51808 L -74.390138,436.1748 L -74.234039,435.7066 L -74.265317,435.58178 L -74.920697,435.26958 L -75.857092,435.01994 L -75.981913,434.9263 L -76.54375,434.20847 L -76.98067,433.89627 L -77.355228,433.70909 z M -113.37352,434.02119 L -114.12264,434.45811 L -114.12264,434.70785 L -114.06018,434.89512 L -113.93536,435.0824 L -113.81054,435.0824 L -113.62326,435.05112 L -112.78051,434.80148 L -112.65569,434.70785 L -112.68687,434.64539 L -112.78051,434.48929 L -113.27989,434.02119 L -113.37352,434.02119 z M -114.93412,434.11483 L -115.2775,434.30211 L -116.15143,434.86385 L -117.02527,435.42568 L -117.36865,435.42568 L -118.55469,435.05112 L -119.67836,435.01994 L -120.64584,435.17594 L -121.14522,435.30086 L -121.55106,435.51932 L -122.23771,435.80024 L -122.42499,435.95624 L -122.58099,436.20598 L -122.51853,437.07992 L -122.61217,438.04749 L -122.76827,438.60923 L -122.79945,438.89015 L -122.67463,438.92143 L -122.39371,438.85897 L -121.76952,438.42205 L -121.36378,437.92258 L -121.11404,437.36084 L -121.0204,436.61172 L -120.8644,436.4869 L -120.7083,436.4869 L -120.02164,436.67418 L -119.67836,436.70536 L -119.36616,436.83018 L -119.33498,436.76782 L -119.27253,436.83018 L -118.30505,436.83018 L -118.11777,437.04874 L -118.21141,437.4232 L -118.11777,437.5793 L -117.80557,438.92143 L -117.80557,439.57681 L -117.71193,440.57566 L -117.58711,440.60685 L -117.30619,440.57566 L -116.43226,440.26347 L -115.71442,439.76409 L -115.33986,439.32717 L -115.18386,438.76533 L -114.9653,438.48441 L -114.87176,438.48441 L -114.6532,438.64051 L -114.62202,438.92143 L -114.6532,439.17107 L -114.59084,439.26471 L -113.7169,439.32717 L -113.65444,439.26471 L -113.65444,439.17107 L -114.029,437.61048 L -114.8093,434.11483 L -114.93412,434.11483 z M -112.37477,435.26958 L -112.65569,435.30086 L -113.84172,435.7066 L -113.84172,435.92506 L -113.4048,437.98503 L -113.27989,438.23477 L -112.06267,438.29713 L -111.84421,438.07867 L -111.71929,437.82903 L -111.68811,437.07992 L -111.81293,436.4869 L -112.12513,435.48814 L -112.37477,435.26958 z M -83.878525,435.89388 L -83.909706,435.92506 L -84.128165,436.04988 L -84.939741,436.89264 L -85.844858,438.17231 L -86.032138,438.60923 L -82.942129,441.7617 L -82.910949,441.69924 L -82.848489,441.69924 L -82.942129,441.26232 L -83.066949,440.82531 L -83.566426,439.26471 L -83.847246,438.85897 L -84.253083,438.51569 L -84.533904,438.23477 L -84.533904,438.04749 L -84.377904,437.8914 L -84.128165,437.82903 L -84.003345,437.8914 L -83.566426,438.23477 L -83.379147,438.23477 L -83.254228,438.07867 L -83.285507,437.82903 L -83.784885,435.89388 L -83.878525,435.89388 z M -120.27138,437.36084 L -120.3962,437.4232 L -120.42738,437.61048 L -120.67712,438.23477 L -121.23886,438.98379 L -122.08162,439.54563 L -122.17525,439.70173 L -122.01916,440.10747 L -121.55106,441.2935 L -121.42614,441.57442 L -120.73948,441.51196 L -119.74072,441.2935 L -119.24134,441.10622 L -118.71079,440.9814 L -118.55469,440.73167 L -118.52351,440.51321 L -118.55469,439.45199 L -118.58587,438.82779 L -118.71079,438.07867 L -118.67951,437.5793 L -118.71079,437.45448 L -118.96043,437.48566 L -120.27138,437.36084 z M -102.01244,439.17107 L -104.16606,441.26232 L -104.91517,442.10498 L -105.38337,442.82282 L -105.47701,443.10374 L -104.57189,444.28977 L -103.1673,446.19375 L -103.10494,446.19375 L -103.10494,446.13129 L -103.1673,445.22617 L -103.51068,444.50833 L -103.66668,443.66558 L -103.88524,443.54076 L -104.04124,443.3222 L -104.07242,443.07256 L -103.9476,442.91646 L -103.76032,442.79164 L -103.69796,442.82282 L -103.54186,442.82282 L -102.82402,443.54076 L -102.0749,442.32344 L -101.88762,441.9177 L -101.82526,440.88776 L -101.85644,440.57566 L -101.82526,440.54439 L -101.95008,439.26471 L -102.01244,439.17107 z M -118.86679,441.69924 L -119.27253,441.85534 L -120.02164,442.10498 L -120.52102,442.19862 L -120.64584,442.26108 L -120.83312,442.47954 L -121.08286,443.07256 L -121.11404,443.38466 L -120.67712,443.63439 L -119.99046,444.04013 L -119.24134,444.38341 L -118.61715,443.44712 L -117.89921,442.19862 L -118.30505,441.9177 L -118.86679,441.69924 z"
       id="polyline49" />
    <g
       id="g3453"
       transform="translate(165.60968,-5.830565)">
      <path
         id="path3211"
         d="M -328.70152,403.00687 C -332.05921,403.00687 -335.27551,403.6796 -338.20147,404.88192 L -338.29521,407.66316 C -339.42438,408.19696 -340.52854,408.80017 -341.54524,409.50693 L -343.98271,408.19441 C -346.82465,410.3894 -349.17496,413.17995 -350.85772,416.38184 L -349.13897,418.56938 C -349.65629,419.68737 -350.09017,420.86144 -350.42021,422.06934 L -353.139,422.63187 C -353.51581,424.35689 -353.70142,426.16929 -353.70142,428.00688 C -353.70142,429.84447 -353.51581,431.62558 -353.139,433.35061 L -350.42021,433.91313 C -350.09154,435.1179 -349.65394,436.29776 -349.13897,437.4131 L -350.85772,439.60064 C -349.17701,442.7987 -346.82004,445.59426 -343.98271,447.78807 L -341.54524,446.47565 C -340.52344,447.18701 -339.43075,447.81396 -338.29521,448.35059 L -338.20147,451.13184 C -335.27609,452.33346 -332.05832,453.00689 -328.70152,453.00689 C -328.36481,453.00689 -328.03486,452.98884 -327.70148,452.97561 L -326.67027,450.41312 C -325.40491,450.29889 -324.17907,450.07209 -322.98273,449.75686 L -321.13897,451.81938 C -317.66499,450.71276 -314.52017,448.87556 -311.88904,446.47565 L -312.73278,443.8506 C -311.85619,442.96715 -311.04776,441.99389 -310.32649,440.97562 L -307.6077,441.38185 C -305.70961,438.39862 -304.44092,434.98151 -303.95154,431.31937 L -306.29528,429.88183 C -306.24341,429.259 -306.20154,428.64304 -306.20154,428.00688 C -306.20154,427.37738 -306.24449,426.74838 -306.29528,426.13183 L -303.95154,424.69439 C -304.43778,421.02058 -305.70432,417.59219 -307.6077,414.60063 L -310.32649,415.00686 C -311.05197,413.9828 -311.88159,413.05082 -312.76396,412.16316 L -311.88904,409.53811 C -314.52223,407.13613 -317.66165,405.26952 -321.13897,404.1631 L -322.98273,406.22562 C -324.17848,405.91058 -325.4055,405.71487 -326.67027,405.60064 L -327.70148,403.03815 C -328.03486,403.02491 -328.36481,403.00687 -328.70152,403.00687 z"
         style="fill:#ffd200;fill-opacity:1;stroke:none;stroke-width:8;stroke-linecap:square;stroke-linejoin:miter;stroke-miterlimit:4;stroke-dasharray:none;stroke-dashoffset:0;stroke-opacity:1" />
      <g
         transform="matrix(0,-1,1,0,-752.56924,161.79037)"
         id="g3445">
        <path
           d="M -254.69838,432.21027 L -256.12014,430.9552 C -256.12014,430.9552 -256.27702,430.39631 -255.09059,429.45501 C -253.91397,428.51371 -251.08027,426.77819 -251.08027,426.77819 C -251.08027,426.77819 -249.49183,424.49358 -249.41338,428.65098 C -249.33494,432.82799 -251.00182,434.7204 -251.00182,434.7204 L -254.69838,432.21027 z"
           style="fill:#ffd400;stroke:#000000;stroke-width:0.30000001;stroke-linecap:round;stroke-linejoin:round;stroke-miterlimit:4;stroke-dasharray:none"
           id="path3437" />
        <path
           id="path3287"
           style="fill:#ffd400;stroke:#000000;stroke-width:0.30000001;stroke-linecap:round;stroke-linejoin:round;stroke-miterlimit:4;stroke-dasharray:none"
           d="M -277.73463,432.21027 L -276.31287,430.9552 C -276.31287,430.9552 -276.15599,430.39631 -277.34242,429.45501 C -278.51904,428.51371 -281.35274,426.77819 -281.35274,426.77819 C -281.35274,426.77819 -282.94118,424.49358 -283.01963,428.65098 C -283.09807,432.82799 -281.43119,434.7204 -281.43119,434.7204 L -277.73463,432.21027 z" />
        <rect
           style="fill:#ffd200;fill-opacity:1;stroke:#000000;stroke-width:0.30000001;stroke-linecap:square;stroke-linejoin:miter;stroke-miterlimit:4;stroke-dasharray:none;stroke-dashoffset:0;stroke-opacity:1"
           id="rect3299"
           width="26.699972"
           height="3.6999962"
           x="-279.62213"
           y="416.89252" />
        <path
           style="fill:#000000;stroke:none;stroke-width:0.30000001;stroke-miterlimit:3.86400008;stroke-dasharray:none"
           d="M -277.55337,416.38184 L -277.55337,421.10059 L -274.86586,421.10059 L -274.86586,416.38184 L -277.55337,416.38184 z M -257.70962,416.38184 L -257.70962,421.10059 L -254.99093,421.10059 L -254.99093,416.38184 L -257.70962,416.38184 z"
           id="rect3318" />
        <path
           style="fill:#ffd200;fill-opacity:1;stroke:#000000;stroke-width:0.30000001;stroke-linecap:square;stroke-linejoin:miter;stroke-miterlimit:4;stroke-dasharray:none;stroke-dashoffset:0;stroke-opacity:1"
           d="M -266.27215,402.4755 C -268.67335,402.4755 -270.6159,404.41805 -270.6159,406.81925 C -270.6159,409.22045 -268.67334,411.19425 -266.27215,411.19425 C -263.87095,411.19425 -261.9284,409.22045 -261.9284,406.81925 C -261.9284,404.41805 -263.87095,402.4755 -266.27215,402.4755 z M -266.27215,404.9755 C -265.25095,404.9755 -264.4284,405.79805 -264.4284,406.81925 C -264.4284,407.84045 -265.25095,408.69425 -266.27215,408.69425 C -267.29335,408.69425 -268.1159,407.84045 -268.1159,406.81925 C -268.1159,405.79805 -267.29335,404.9755 -266.27215,404.9755 z"
           id="path3335" />
        <path
           style="fill:#ffd400;fill-rule:evenodd;stroke:#000000;stroke-width:0.30000001;stroke-linecap:round;stroke-linejoin:round;stroke-miterlimit:4;stroke-dasharray:none"
           d="M -58.375,60.09375 C -59.50087,60.09375 -59.706172,61.849522 -59.75,63.4375 L -60.40625,86.53125 C -60.42949,87.37325 -60.393079,89.906251 -62.6875,89.90625 C -65.00152,89.90625 -67.393799,87.486702 -70.03125,84.65625 C -71.75675,82.80448 -73.406247,81.718751 -73.40625,81.71875 C -71.50404,93.48498 -61.355511,94.64965 -60.28125,94.9375 C -59.48402,95.15112 -58.85134,96.131039 -58.375,96.625 C -57.89866,96.131039 -57.29723,95.15112 -56.5,94.9375 C -55.425739,94.64965 -45.27721,93.48498 -43.375,81.71875 C -43.374999,81.718751 -45.0245,82.80448 -46.75,84.65625 C -49.387451,87.486702 -51.77973,89.90625 -54.09375,89.90625 C -56.388171,89.906251 -56.35176,87.37325 -56.375,86.53125 L -57.03125,63.4375 C -57.075078,61.849522 -57.24913,60.09375 -58.375,60.09375 z"
           transform="translate(-207.88153,347.17639)"
           id="path3295" />
      </g>
    </g>
    <rect
       id="rect3505"
       style="fill:#ffd200"
       y="347.17639"
       x="33.128418"
       height="149.99985"
       width="39.999962" />
    <rect
       width="20"
       height="149.99985"
       x="7.128418"
       y="347.17639"
       style="fill:#ffd200"
       id="rect3507" />
    <rect
       width="39.999962"
       height="149.99985"
       x="-38.871582"
       y="347.17639"
       style="fill:#ffd200"
       id="rect3509" />
  </g>
</svg>
