<?xml version="1.0" encoding="UTF-8" standalone="no"?>
<!-- Created with Inkscape (http://www.inkscape.org/) -->
<svg
   xmlns:dc="http://purl.org/dc/elements/1.1/"
   xmlns:cc="http://creativecommons.org/ns#"
   xmlns:rdf="http://www.w3.org/1999/02/22-rdf-syntax-ns#"
   xmlns:svg="http://www.w3.org/2000/svg"
   xmlns="http://www.w3.org/2000/svg"
   xmlns:sodipodi="http://sodipodi.sourceforge.net/DTD/sodipodi-0.dtd"
   xmlns:inkscape="http://www.inkscape.org/namespaces/inkscape"
   width="339.99966"
   height="149.99985"
   id="svg2"
   sodipodi:version="0.32"
   inkscape:version="0.46"
   version="1.0"
   sodipodi:docname="disegno.svg"
   inkscape:output_extension="org.inkscape.output.svg.inkscape">
  <defs
     id="defs4" />
  <sodipodi:namedview
     id="base"
     pagecolor="#ffffff"
     bordercolor="#666666"
     borderopacity="1.0"
     inkscape:pageopacity="0.0"
     inkscape:pageshadow="2"
     inkscape:zoom="2.211318"
     inkscape:cx="243.20178"
     inkscape:cy="32.837554"
     inkscape:document-units="px"
     inkscape:current-layer="layer1"
     showgrid="false"
     inkscape:showpageshadow="false"
     inkscape:window-width="1440"
     inkscape:window-height="881"
     inkscape:window-x="-4"
     inkscape:window-y="-4" />
  <metadata
     id="metadata7">
    <rdf:RDF>
      <cc:Work
         rdf:about="">
        <dc:format>image/svg+xml</dc:format>
        <dc:type
           rdf:resource="http://purl.org/dc/dcmitype/StillImage" />
      </cc:Work>
    </rdf:RDF>
  </metadata>
  <g
     inkscape:label="Livello 1"
     inkscape:groupmode="layer"
     id="layer1"
     transform="translate(207.88153,-347.17639)">
    <path
       style="fill:#000000;fill-opacity:1;stroke:none"
       d="M 132.11813,497.17624 L 132.11813,347.17639 L -138.16151,347.17639 L -207.88153,422.17632 L -138.16151,497.17624 L 132.11813,497.17624 z"
       id="polygon3"
       sodipodi:nodetypes="cccccc" />
    <g
       id="g3453"
       transform="translate(165.60968,-5.830565)">
      <path
         id="path3211"
         d="M -328.70152,403.00687 C -332.05921,403.00687 -335.27551,403.6796 -338.20147,404.88192 L -338.29521,407.66316 C -339.42438,408.19696 -340.52854,408.80017 -341.54524,409.50693 L -343.98271,408.19441 C -346.82465,410.3894 -349.17496,413.17995 -350.85772,416.38184 L -349.13897,418.56938 C -349.65629,419.68737 -350.09017,420.86144 -350.42021,422.06934 L -353.139,422.63187 C -353.51581,424.35689 -353.70142,426.16929 -353.70142,428.00688 C -353.70142,429.84447 -353.51581,431.62558 -353.139,433.35061 L -350.42021,433.91313 C -350.09154,435.1179 -349.65394,436.29776 -349.13897,437.4131 L -350.85772,439.60064 C -349.17701,442.7987 -346.82004,445.59426 -343.98271,447.78807 L -341.54524,446.47565 C -340.52344,447.18701 -339.43075,447.81396 -338.29521,448.35059 L -338.20147,451.13184 C -335.27609,452.33346 -332.05832,453.00689 -328.70152,453.00689 C -328.36481,453.00689 -328.03486,452.98884 -327.70148,452.97561 L -326.67027,450.41312 C -325.40491,450.29889 -324.17907,450.07209 -322.98273,449.75686 L -321.13897,451.81938 C -317.66499,450.71276 -314.52017,448.87556 -311.88904,446.47565 L -312.73278,443.8506 C -311.85619,442.96715 -311.04776,441.99389 -310.32649,440.97562 L -307.6077,441.38185 C -305.70961,438.39862 -304.44092,434.98151 -303.95154,431.31937 L -306.29528,429.88183 C -306.24341,429.259 -306.20154,428.64304 -306.20154,428.00688 C -306.20154,427.37738 -306.24449,426.74838 -306.29528,426.13183 L -303.95154,424.69439 C -304.43778,421.02058 -305.70432,417.59219 -307.6077,414.60063 L -310.32649,415.00686 C -311.05197,413.9828 -311.88159,413.05082 -312.76396,412.16316 L -311.88904,409.53811 C -314.52223,407.13613 -317.66165,405.26952 -321.13897,404.1631 L -322.98273,406.22562 C -324.17848,405.91058 -325.4055,405.71487 -326.67027,405.60064 L -327.70148,403.03815 C -328.03486,403.02491 -328.36481,403.00687 -328.70152,403.00687 z"
         style="fill:#ffd200;fill-opacity:1;stroke:none;stroke-width:8;stroke-linecap:square;stroke-linejoin:miter;stroke-miterlimit:4;stroke-dasharray:none;stroke-dashoffset:0;stroke-opacity:1" />
      <g
         transform="matrix(0,-1,1,0,-752.56924,161.79037)"
         id="g3445">
        <path
           d="M -254.69838,432.21027 L -256.12014,430.9552 C -256.12014,430.9552 -256.27702,430.39631 -255.09059,429.45501 C -253.91397,428.51371 -251.08027,426.77819 -251.08027,426.77819 C -251.08027,426.77819 -249.49183,424.49358 -249.41338,428.65098 C -249.33494,432.82799 -251.00182,434.7204 -251.00182,434.7204 L -254.69838,432.21027 z"
           style="fill:#ffd400;stroke:#000000;stroke-width:0.30000001;stroke-linecap:round;stroke-linejoin:round;stroke-miterlimit:4;stroke-dasharray:none"
           id="path3437" />
        <path
           id="path3287"
           style="fill:#ffd400;stroke:#000000;stroke-width:0.30000001;stroke-linecap:round;stroke-linejoin:round;stroke-miterlimit:4;stroke-dasharray:none"
           d="M -277.73463,432.21027 L -276.31287,430.9552 C -276.31287,430.9552 -276.15599,430.39631 -277.34242,429.45501 C -278.51904,428.51371 -281.35274,426.77819 -281.35274,426.77819 C -281.35274,426.77819 -282.94118,424.49358 -283.01963,428.65098 C -283.09807,432.82799 -281.43119,434.7204 -281.43119,434.7204 L -277.73463,432.21027 z" />
        <rect
           style="fill:#ffd200;fill-opacity:1;stroke:#000000;stroke-width:0.30000001;stroke-linecap:square;stroke-linejoin:miter;stroke-miterlimit:4;stroke-dasharray:none;stroke-dashoffset:0;stroke-opacity:1"
           id="rect3299"
           width="26.699972"
           height="3.6999962"
           x="-279.62213"
           y="416.89252" />
        <path
           style="fill:#000000;stroke:none;stroke-width:0.30000001;stroke-miterlimit:3.86400008;stroke-dasharray:none"
           d="M -277.55337,416.38184 L -277.55337,421.10059 L -274.86586,421.10059 L -274.86586,416.38184 L -277.55337,416.38184 z M -257.70962,416.38184 L -257.70962,421.10059 L -254.99093,421.10059 L -254.99093,416.38184 L -257.70962,416.38184 z"
           id="rect3318" />
        <path
           style="fill:#ffd200;fill-opacity:1;stroke:#000000;stroke-width:0.30000001;stroke-linecap:square;stroke-linejoin:miter;stroke-miterlimit:4;stroke-dasharray:none;stroke-dashoffset:0;stroke-opacity:1"
           d="M -266.27215,402.4755 C -268.67335,402.4755 -270.6159,404.41805 -270.6159,406.81925 C -270.6159,409.22045 -268.67334,411.19425 -266.27215,411.19425 C -263.87095,411.19425 -261.9284,409.22045 -261.9284,406.81925 C -261.9284,404.41805 -263.87095,402.4755 -266.27215,402.4755 z M -266.27215,404.9755 C -265.25095,404.9755 -264.4284,405.79805 -264.4284,406.81925 C -264.4284,407.84045 -265.25095,408.69425 -266.27215,408.69425 C -267.29335,408.69425 -268.1159,407.84045 -268.1159,406.81925 C -268.1159,405.79805 -267.29335,404.9755 -266.27215,404.9755 z"
           id="path3335" />
        <path
           style="fill:#ffd400;fill-rule:evenodd;stroke:#000000;stroke-width:0.30000001;stroke-linecap:round;stroke-linejoin:round;stroke-miterlimit:4;stroke-dasharray:none"
           d="M -58.375,60.09375 C -59.50087,60.09375 -59.706172,61.849522 -59.75,63.4375 L -60.40625,86.53125 C -60.42949,87.37325 -60.393079,89.906251 -62.6875,89.90625 C -65.00152,89.90625 -67.393799,87.486702 -70.03125,84.65625 C -71.75675,82.80448 -73.406247,81.718751 -73.40625,81.71875 C -71.50404,93.48498 -61.355511,94.64965 -60.28125,94.9375 C -59.48402,95.15112 -58.85134,96.131039 -58.375,96.625 C -57.89866,96.131039 -57.29723,95.15112 -56.5,94.9375 C -55.425739,94.64965 -45.27721,93.48498 -43.375,81.71875 C -43.374999,81.718751 -45.0245,82.80448 -46.75,84.65625 C -49.387451,87.486702 -51.77973,89.90625 -54.09375,89.90625 C -56.388171,89.906251 -56.35176,87.37325 -56.375,86.53125 L -57.03125,63.4375 C -57.075078,61.849522 -57.24913,60.09375 -58.375,60.09375 z"
           transform="translate(-207.88153,347.17639)"
           id="path3295" />
      </g>
    </g>
    <rect
       width="80"
       height="150"
       x="39.12838"
       y="347.17633"
       style="fill:#ffd200;fill-opacity:1"
       id="rect3612" />
    <path
       d="M 114.98203,348.17631 L 114.98203,495.66899 M 111.44057,495.66899 L 111.44057,348.67387 M 46.172272,496.17631 L 46.172272,348.67387 M 42.113742,495.66899 L 42.621052,348.68362"
       style="fill:none;stroke:#737477;stroke-width:0.70243901;stroke-miterlimit:3.86400008;stroke-dasharray:24.6146345, 24.6146345"
       id="path11" />
    <path
       d="M 115.51375,496.10799 L 111.32838,492.27384 L 115.35765,488.63482 L 111.72838,484.02994 L 115.17228,480.53726 L 111.72838,477.05433 L 115.71862,473.87384 L 111.72838,470.51775 L 115.3674,467.20067 L 111.72838,462.4397 L 115.56253,459.25921 L 111.72838,455.29823 L 115.56253,451.30799 L 111.54301,446.08848 L 115.56253,442.91775 L 111.72838,439.3958 L 115.71862,435.26897 L 111.91375,432.41043 L 115.16253,428.77141 L 111.91375,425.91287 L 115.55277,421.7958 L 111.91375,419.3958 L 115.3674,414.64458 L 111.91375,409.8836 L 115.3674,405.92263 L 111.72838,401.75677 L 115.56253,398.60555 L 111.9235,394.29336 L 115.56253,391.14214 L 111.9235,389.0836 L 115.37716,384.60555 L 111.72838,381.61043 L 115.3674,377.00555 L 112.31375,373.18116 L 115.3674,369.69824 L 112.11862,367.6397 L 115.3674,361.91287 L 111.72838,359.05433 L 115.56253,356.18604 L 112.31375,354.13726 L 115.3674,352.06897 L 112.31375,349.20067 L 115.3674,347.78604 M 46.547892,495.60067 L 42.538132,492.56653 L 46.567402,488.94702 L 42.928382,484.33238 L 46.372282,480.82994 L 42.928382,477.35677 L 46.908872,474.16653 L 42.928382,470.82019 L 46.567402,467.50311 L 42.928382,462.74214 L 46.752772,459.55189 L 42.928382,455.61043 L 46.752772,451.61043 L 42.733262,446.40067 L 46.752772,443.21043 L 42.928382,439.70799 L 46.908872,435.59092 L 43.113742,432.73238 L 46.362522,429.09336 L 43.123502,426.1958 L 46.752772,422.07872 L 43.123502,419.69824 L 46.577162,414.93726 L 43.123502,410.16653 L 46.577162,406.21531 L 42.938132,402.05921 L 46.762522,398.90799 L 43.133262,394.58604 L 46.762522,391.43482 L 43.133262,389.37629 L 46.586922,384.89824 L 42.947892,381.90311 L 46.586922,377.30799 L 43.523502,373.47385 L 46.586922,370.00068 L 43.308872,367.95189 L 46.567402,362.21531 L 42.928382,359.35677 L 46.752772,356.48848 L 43.503992,354.42994 L 46.567402,352.37141 L 43.503992,349.50311 L 46.567402,348.08848 M 64.001552,374.46897 C 64.001552,374.46897 64.264962,360.18604 78.577162,347.92263 M 84.001552,347.92263 C 84.001552,347.92263 65.660092,359.14214 67.494232,379.73726 M 88.089352,398.4397 C 88.089352,398.4397 86.313742,408.82994 90.616182,412.57629 M 79.640572,483.61043 C 79.640572,483.61043 73.250332,487.91287 76.323502,490.96653 M 73.269842,446.0397 C 73.269842,446.0397 73.621062,447.29823 73.221062,449.3275 C 72.811312,451.35677 72.986922,458.72262 71.552772,459.05433 M 61.972282,449.22994 L 61.240572,452.34214 L 60.264962,452.62506 L 58.713742,452.17628 L 58.421062,450.88848 L 58.303992,449.53238 L 57.982042,450.33238 L 56.284482,450.73238 L 55.640572,450.1958 L 54.821062,447.70799 L 56.147892,445.29823 L 57.777162,444.51775 L 59.016182,444.13726 L 60.021062,445.22019 L 60.147892,446.64458 L 61.825942,445.68848 L 63.386922,446.1275 L 63.894232,446.98604 L 63.884482,448.05921 L 63.289352,448.98604 L 61.972282,449.22994 z M 67.123502,475.09336 C 67.123502,475.09336 66.108872,453.25921 62.050332,450.58604 M 82.225942,496.07872 C 82.225942,496.07872 52.821062,480.01043 87.416182,441.28848 C 87.416182,441.28848 103.35765,419.2397 81.338142,401.56165 C 68.245452,391.05433 67.435702,382.11775 67.484482,379.7275 C 67.484482,379.31775 67.523502,379.09336 67.523502,379.09336 C 67.523502,379.09336 73.094232,383.16165 67.523502,379.09336 M 78.079602,496.56653 C 78.079602,496.56653 49.718622,480.17628 84.333262,441.47385 C 84.333262,441.47385 100.92838,420.29336 78.908872,402.61531 C 63.582042,390.31287 65.094232,380.15677 65.094232,380.15677 C 65.094232,380.15677 65.299112,372.41043 59.718622,368.35189 C 54.138132,364.2836 59.718622,368.35189 59.718622,368.35189 L 57.260092,367.49336 L 57.874722,370.56653 C 57.796672,371.44458 57.201552,372.05921 56.040572,372.42019 L 54.606432,371.07385 L 53.777162,367.81531 L 52.762522,367.64946 C 52.762522,367.64946 53.064962,369.30799 52.138132,369.18116 C 51.884482,369.78604 50.518622,368.45921 50.518622,368.45921 L 49.747892,367.12263 C 49.221062,366.78116 50.157652,365.20068 50.157652,365.20068 L 51.074722,364.54702 C 51.074722,364.54702 52.899112,363.71775 53.445452,363.85433 C 53.913742,363.93238 53.591792,365.43482 53.591792,365.43482 L 54.606432,364.76165 L 56.850332,363.74702 L 58.499112,364.42019 L 58.264962,366.13726 L 57.250332,367.49336"
       style="fill:none;stroke:#737477;stroke-width:0.70243901;stroke-miterlimit:3.86400008;stroke-dasharray:12.3024392, 12.3024392"
       id="path13" />
    <path
       d="M 73.333252,446.98116 C 73.333252,446.98116 56.669832,442.4836 65.645442,430.26897 C 65.645442,430.26897 56.835692,427.23482 63.128372,417.95677 C 63.128372,417.95677 57.186912,413.67384 62.679592,407.5958 L 63.294222,407.60555 C 63.294222,407.60555 57.167392,401.86897 62.767392,397.77141 C 69.323492,400.34702 67.743002,406.31775 67.743002,406.31775 L 68.162522,406.73726 C 75.664962,411.09823 71.694222,417.5958 71.694222,417.5958 C 81.128372,424.7958 73.850322,429.5958 73.850322,429.5958 C 86.923492,438.89336 72.367392,446.87384 72.367392,446.87384 C 72.367392,446.87384 68.230812,408.81531 63.060082,398.24945"
       style="fill:none;stroke:#737477;stroke-width:0.63414633;stroke-miterlimit:3.86400008;stroke-dasharray:12.3024392, 12.3024392"
       id="path15" />
    <path
       d="M 79.606422,485.08848 C 79.606422,485.08848 67.099102,472.69823 84.201542,465.59579 C 84.201542,465.59579 78.035692,458.41531 90.533252,452.75677 C 90.533252,452.75677 87.967392,445.82019 97.450322,442.78604 L 98.025932,443.08848 C 98.025932,443.08848 96.299102,434.68848 104.49423,433.56653 C 108.83569,439.20555 103.12837,444.04458 103.12837,444.04458 L 103.22593,444.65921 C 107.18691,452.43482 98.874712,456.62018 98.874712,456.62018 C 102.66008,468.01531 92.406422,469.00067 92.406422,469.00067 C 98.133252,484.1714 78.777152,484.55189 78.777152,484.55189 C 78.777152,484.55189 101.82106,446.64945 104.41618,434.17141"
       style="fill:none;stroke:#737477;stroke-width:0.70243901;stroke-miterlimit:3.86400008;stroke-dasharray:12.3024392, 12.3024392"
       id="path17" />
    <path
       d="M 88.064962,399.82019 C 88.064962,399.82019 74.845442,390.27872 88.835692,381.95677 C 88.835692,381.95677 82.143002,376.29823 92.299102,369.80067 C 92.299102,369.80067 88.845442,363.9275 96.747882,360.12262 L 97.313742,360.3275 C 97.313742,360.3275 94.367392,353.05921 101.45032,351.10799 C 106.27959,355.60555 102.01618,360.59092 102.01618,360.59092 L 102.2113,361.11775 C 107.06008,367.55677 100.35764,372.24945 100.35764,372.24945 C 105.6552,381.94701 96.708862,384.01531 96.708862,384.01531 C 104.37715,396.81531 87.225932,399.42994 87.225932,399.42994 C 87.225932,399.42994 101.29423,363.0397 101.4991,351.63482"
       style="fill:none;stroke:#737477;stroke-width:0.63414633;stroke-miterlimit:3.86400008;stroke-dasharray:12.3024392, 12.3024392"
       id="path19" />
    <path
       id="path3796"
       d="M 78.972282,397.9404 L 78.972282,398.12768 L 79.128382,398.50224 L 79.627762,400.00037 L 79.721402,400.74949 L 79.565302,401.74825 L 79.440482,401.93553 L 79.284482,401.99789 L 79.065922,401.93553 L 78.909922,401.81061 L 78.941102,401.34251 L 78.847462,400.43729 L 78.597822,399.62581 L 78.160802,399.15762 L 77.068402,398.4086 L 76.100832,398.34614 L 75.976012,398.4086 L 76.319292,399.43853 L 76.444212,400.49975 L 76.412932,401.03031 L 76.412932,401.18641 L 76.444212,401.40487 L 76.288112,401.93553 L 75.601452,402.18517 L 73.916032,402.96546 L 71.856062,404.37006 L 71.263042,404.9318 L 71.231862,405.11908 L 72.449082,406.11783 L 72.698822,406.14911 L 74.009672,405.2439 L 75.039612,404.68216 L 75.819912,404.37006 L 76.787492,404.12032 L 77.911162,404.08914 L 78.566542,404.24514 L 79.065922,404.40124 L 80.002312,404.80698 L 80.751432,405.43117 L 81.063532,405.83691 L 81.281992,406.36757 L 81.438092,407.21023 L 81.406812,408.17781 L 80.439232,409.45748 L 78.504182,411.64237 L 76.381752,413.79599 L 73.916032,416.16806 L 73.853582,416.35534 L 73.978492,416.63626 L 74.165772,417.63501 L 74.103312,418.60259 L 73.853582,419.88226 L 73.759942,420.10072 L 73.416662,420.25673 L 73.260562,420.10072 L 73.260562,419.9759 L 73.447842,419.60135 L 73.572662,418.63377 L 73.447842,417.10436 L 73.323022,416.44898 L 73.042102,415.82468 L 72.636362,415.26294 L 72.074522,414.8571 L 71.356682,414.63864 L 71.325502,414.7011 L 71.481502,415.10684 L 71.668782,416.07442 L 71.668782,416.23042 L 71.762422,417.13563 L 71.731242,417.97829 L 71.575142,418.57131 L 71.387862,418.72741 L 71.169402,418.75859 L 71.044582,418.66495 L 71.013312,418.44649 L 71.044582,418.35285 L 71.044582,418.10321 L 71.106942,416.91708 L 70.888492,415.57504 L 70.576392,414.8571 L 70.201832,414.45136 L 69.733632,413.98326 L 68.953332,413.63989 L 68.235492,413.51507 L 68.141852,413.54625 L 67.923392,413.54625 L 67.736122,413.60871 L 67.736122,413.67107 L 67.860942,413.79599 L 68.453952,414.8571 L 68.703692,415.76232 L 68.766052,416.51134 L 68.610052,417.07317 L 68.485232,417.26045 L 68.235492,417.32291 L 68.110672,417.22927 L 68.048212,416.60498 L 67.985852,415.76232 L 67.860942,415.3253 L 67.580022,414.7011 L 67.080642,413.98326 L 66.550082,413.57743 L 65.925882,413.29661 L 64.927032,413.20297 L 64.521292,413.32779 L 64.302832,413.45261 L 64.302832,413.54625 L 64.490112,413.76471 L 65.207942,414.7011 L 65.551322,415.4814 L 65.613682,415.7935 L 65.644962,416.51134 L 65.551322,416.79226 L 65.332762,416.85472 L 65.207942,416.7299 L 64.895852,415.69986 L 64.739752,415.35658 L 64.240372,414.57628 L 63.897092,414.13926 L 63.335252,413.76471 L 62.742232,413.54625 L 62.242852,413.51507 L 61.774662,413.57743 L 61.462562,413.67107 L 61.400102,413.76471 L 61.400102,413.82717 L 61.525022,413.95199 L 61.930752,414.389 L 62.430132,415.1693 L 62.648592,415.66868 L 62.898332,416.54262 L 62.835872,416.82344 L 62.773412,416.8859 L 62.554952,416.94835 L 62.398952,416.82344 L 62.211672,416.13678 L 61.805932,415.45012 L 60.869542,414.32654 L 60.401342,414.07681 L 60.307702,414.07681 L 59.652322,413.98326 L 59.371402,414.07681 L 59.277762,414.07681 L 59.028032,414.10808 L 58.809572,414.2329 L 59.621042,415.10684 L 60.026782,415.76232 L 60.463802,416.7299 L 60.557442,417.75983 L 60.463802,418.16557 L 60.245342,418.19675 L 60.058062,417.97829 L 59.964422,417.69737 L 59.964422,417.22927 L 59.839502,416.63626 L 59.621042,416.29288 L 59.277762,415.82468 L 58.872022,415.57504 L 58.528652,415.51258 L 58.435012,415.51258 L 58.341372,415.54376 L 58.154092,415.57504 L 57.623532,415.9496 L 57.217792,416.44898 L 57.092872,416.79226 L 57.061692,417.35409 L 57.186512,418.19675 L 57.529892,418.75859 L 58.154092,419.41407 L 58.684752,419.69499 L 58.715932,419.91345 L 58.591112,420.10072 L 58.310192,420.1319 L 58.060452,420.00708 L 57.935632,419.9759 L 57.748352,420.00708 L 57.342612,420.38164 L 56.687132,421.13066 L 56.468672,421.47404 L 56.375032,421.66132 L 56.312672,421.72368 L 55.844482,422.4728 L 55.157822,423.56519 L 54.689622,424.50159 L 55.220182,424.87615 L 56.624772,425.8749 L 57.061692,426.03091 L 57.841992,426.4991 L 59.402582,427.46668 L 59.839502,427.49786 L 60.151702,427.31058 L 60.151702,427.21694 L 59.995602,427.09212 L 59.433762,426.4991 L 59.308942,426.21818 L 59.402582,426.12454 L 60.026782,426.37428 L 60.807082,426.78002 L 61.212922,426.68638 L 61.649842,426.4991 L 61.993122,426.12454 L 62.367672,426.06218 L 62.960692,425.65635 L 63.366432,425.25061 L 63.460072,425.00097 L 63.241612,425.00097 L 63.054332,425.03215 L 62.929512,425.06333 L 62.523772,425.00097 L 62.430132,424.87615 L 62.274032,424.87615 L 61.712292,424.59523 L 61.088002,423.90857 L 60.713442,423.34673 L 60.557442,422.72254 L 60.619802,421.97342 L 60.807082,421.3804 L 61.244102,420.81856 L 62.492592,419.72617 L 63.210432,419.32043 L 63.803452,419.13315 L 64.302832,419.03951 L 64.739752,419.07069 L 65.426402,419.38289 L 65.738602,419.63253 L 65.894602,419.91345 L 65.988242,420.97466 L 65.957062,421.03702 L 65.957062,421.41158 L 65.738602,422.69126 L 65.364042,423.40919 L 65.239222,423.53401 L 65.207942,423.69001 L 64.552572,424.47031 L 64.240372,424.81369 L 63.959452,425.46917 L 64.146732,425.46917 L 64.396472,425.40671 L 65.207942,425.03215 L 65.332762,425.12579 L 65.613682,425.50035 L 65.988242,425.50035 L 66.362802,425.21943 L 66.550082,424.93851 L 66.612542,424.72005 L 66.799722,423.34673 L 67.018282,422.66008 L 67.080642,422.25434 L 67.049462,422.12952 L 66.955822,421.8486 L 67.174282,421.63004 L 67.642482,421.56768 L 67.892212,421.81732 L 67.892212,422.19188 L 67.860942,422.28552 L 67.704932,422.72254 L 67.455202,423.59637 L 67.330382,424.65759 L 67.361562,424.78251 L 67.330382,424.96969 L 67.361562,425.56281 L 67.455202,425.8749 L 67.455202,426.06218 L 67.642482,426.8112 L 68.204312,428.15334 L 68.703692,428.90245 L 69.702452,430.05721 L 69.952192,430.21331 L 69.983372,429.93239 L 70.108192,429.65147 L 70.264292,429.58911 L 71.325502,430.08849 L 71.980882,430.21331 L 71.856062,429.99485 L 71.793602,429.71393 L 71.575142,429.40183 L 70.826032,427.77878 L 70.326652,426.78002 L 70.233012,426.40546 L 70.295472,425.99972 L 70.451572,425.78127 L 70.732482,425.78127 L 70.950942,425.99972 L 71.106942,426.84248 L 75.913552,436.51805 L 76.693852,438.17228 L 76.943582,439.10868 L 77.068402,440.26344 L 77.037222,441.69921 L 76.912402,442.69797 L 76.787492,443.10371 L 76.506572,443.91528 L 76.412932,444.3522 L 76.818762,444.60194 L 77.099582,444.8204 L 77.224502,444.85158 L 79.658942,446.41218 L 79.378122,445.63188 L 79.222022,445.10132 L 79.003562,444.63312 L 78.785002,444.41466 L 77.786242,444.28974 L 77.536602,444.1961 L 77.318142,443.94646 L 77.318142,443.79037 L 77.536602,443.50945 L 77.692602,443.50945 L 78.160802,443.57191 L 78.660182,443.728 L 79.190842,443.85282 L 79.315662,443.82164 L 79.159562,442.82279 L 79.128382,441.82403 L 78.909922,441.35583 L 78.254442,439.79534 L 78.472902,439.51442 L 78.722642,439.48314 L 78.847462,439.57678 L 80.064772,442.16741 L 80.844972,443.85282 L 80.969892,443.85282 L 82.249572,442.94771 L 84.091082,441.66803 L 84.465542,441.32465 L 81.125892,441.91767 L 80.844972,441.60557 L 80.844972,441.41829 L 81.094712,441.16865 L 81.281992,441.10619 L 81.875012,441.07501 L 82.280752,440.91891 L 81.687732,440.13862 L 80.283232,438.70284 L 80.033492,438.32838 L 80.002312,438.04746 L 80.189592,437.829 L 80.283232,437.829 L 80.470512,437.829 L 81.281992,438.17228 L 81.687732,438.20346 L 81.781372,438.10982 L 81.875012,437.829 L 81.999832,437.51681 L 82.124752,437.04871 L 82.343212,436.89261 L 82.592852,436.89261 L 82.748942,436.98625 L 82.811402,437.11107 L 82.592852,437.79773 L 82.436852,438.23474 L 82.998592,438.64048 L 83.778882,439.42078 L 83.778882,439.0774 L 83.529242,437.829 L 83.123502,436.42441 L 82.936222,436.11231 L 81.406812,436.29959 L 81.344452,436.36205 L 81.125892,436.23713 L 80.470512,434.95746 L 80.033492,434.23962 L 79.721402,433.83388 L 79.721402,433.74024 L 79.690212,433.61542 L 79.721402,433.42814 L 79.939862,433.27204 L 80.189592,433.27204 L 80.408052,433.42814 L 81.531632,434.52054 L 81.656552,433.8026 L 81.594092,432.7102 L 81.344452,432.086 L 81.001072,431.46181 L 80.408052,430.83751 L 79.378122,430.30695 L 78.223262,429.99485 L 78.067162,429.77629 L 78.004802,429.52665 L 78.223262,429.30819 L 78.691462,429.21455 L 79.159562,429.30819 L 79.627762,429.43301 L 80.283232,429.74511 L 81.281992,430.33813 L 81.281992,429.74511 L 81.032252,428.96482 L 80.532872,428.18452 L 80.189592,427.80996 L 79.658942,427.4355 L 79.065922,427.2794 L 78.597822,427.1233 L 77.286862,426.99848 L 76.787492,426.87366 L 76.537852,426.68638 L 76.475392,426.43664 L 76.569032,426.343 L 76.881132,426.187 L 77.567782,426.09336 L 78.941102,426.28064 L 80.376872,426.78002 L 80.376872,426.68638 L 80.251952,425.65635 L 80.189592,425.12579 L 79.971132,424.65759 L 79.534122,424.03339 L 79.065922,423.69001 L 78.472902,423.40919 L 77.911162,423.19063 L 76.881132,423.097 L 75.632632,423.097 L 75.570272,423.12827 L 75.258172,423.03463 L 75.102072,422.87854 L 75.070892,422.69126 L 75.164532,422.56644 L 75.882372,422.3167 L 77.037222,422.28552 L 77.973522,422.37916 L 78.847462,422.6289 L 79.565302,423.097 L 79.721402,422.6289 L 80.532872,420.444 L 81.188352,418.91469 L 82.343212,416.48016 L 82.686492,415.88714 L 82.748942,415.66868 L 82.530492,415.66868 L 82.031112,415.85596 L 81.531632,416.07442 L 80.408052,417.16681 L 80.189592,417.19799 L 80.064772,417.07317 L 80.002312,416.8859 L 80.251952,416.38652 L 80.626512,415.98078 L 81.032252,415.6374 L 81.281992,415.38776 L 81.718912,415.1693 L 82.187112,415.0132 L 83.404422,414.7011 L 84.309542,414.66992 L 85.027382,414.82592 L 85.963772,415.10684 L 86.712792,415.4814 L 87.399452,415.76232 L 87.680372,415.7935 L 88.023752,415.91832 L 88.211022,415.91832 L 88.866402,415.98078 L 89.865162,415.98078 L 90.707922,415.82468 L 91.457032,415.69986 L 93.017632,415.3253 L 94.016392,415.0132 L 94.578122,414.91956 L 95.171242,414.7011 L 95.795442,414.63864 L 95.857902,414.66992 L 95.951442,414.63864 L 96.294822,414.66992 L 96.669382,414.82592 L 97.449672,415.4814 L 97.543312,414.32654 L 97.449672,413.92081 L 97.106302,413.26533 L 96.513282,412.57867 L 95.920262,412.17293 L 95.296062,411.95447 L 94.578122,411.82965 L 93.204812,411.86083 L 93.079992,411.76719 L 93.017632,411.61109 L 93.485732,411.08053 L 93.610652,410.73716 L 94.078752,409.61358 L 94.484582,408.67718 L 95.358422,407.77207 L 95.982722,407.49115 L 96.450922,407.39751 L 97.761772,407.61607 L 98.978992,407.92817 L 99.915392,408.24026 L 101.00779,408.77082 L 101.53834,409.33266 L 101.9129,410.01932 L 102.5372,412.01683 L 102.88048,413.29661 L 103.13022,414.10808 L 103.25504,414.2329 L 103.4735,414.32654 L 104.75317,414.545 L 105.09655,414.57628 L 105.72075,414.7011 L 106.46987,414.82592 L 106.09531,414.48264 L 105.50229,413.92081 L 105.03409,413.82717 L 104.87799,413.76471 L 104.34743,413.67107 L 104.22261,413.70235 L 103.87924,413.67107 L 103.69196,413.57743 L 103.66078,413.39015 L 103.66078,413.29661 L 103.87924,412.98441 L 103.97288,412.98441 L 104.25379,412.95323 L 105.15891,412.76595 L 105.28383,412.64113 L 104.94045,411.89201 L 104.75317,411.17417 L 104.31625,410.76844 L 102.75566,409.4263 L 102.72438,409.08302 L 102.88048,408.92692 L 102.94294,408.92692 L 104.75317,410.23778 L 106.65715,411.76719 L 106.81315,411.76719 L 106.87561,411.73601 L 107.78072,410.73716 L 109.09158,408.9581 L 109.09158,408.86446 L 108.84194,408.92692 L 108.31128,409.14538 L 107.968,409.23902 L 106.90679,409.7384 L 106.53223,410.0505 L 106.28259,410.3627 L 106.09531,410.45634 L 105.93921,410.45634 L 105.81439,410.33142 L 105.81439,410.2066 L 105.97049,409.76968 L 106.84433,408.86446 L 106.84433,408.77082 L 106.68833,408.646 L 106.50105,408.61482 L 106.43859,408.52118 L 105.65829,408.20908 L 104.53471,407.61607 L 102.94294,407.08541 L 102.63084,406.80449 L 102.50592,406.39875 L 102.56838,406.27393 L 104.34743,405.83691 L 104.62835,405.68091 L 104.53471,404.99426 L 104.47225,404.83816 L 104.40989,404.3076 L 104.69081,404.02668 L 104.94045,404.08914 L 105.06527,404.21396 L 105.09655,404.6197 L 105.15891,404.83816 L 105.34619,404.9318 L 106.43859,404.99426 L 106.68833,405.02544 L 107.21888,404.99426 L 107.03161,404.83816 L 106.75079,404.68216 L 104.97163,403.6834 L 104.0977,403.15274 L 103.66078,403.0591 L 103.50468,403.15274 L 102.13136,404.43242 L 102.03772,404.43242 L 101.72562,404.37006 L 101.50716,404.1515 L 101.53834,404.02668 L 101.78808,403.6834 L 101.78808,403.58976 L 102.56838,402.5909 L 103.13022,402.1228 L 103.69196,401.87307 L 103.53596,401.62343 L 102.91166,401.31123 L 102.47474,401.18641 L 102.13136,401.12395 L 101.31988,401.06159 L 100.75805,401.15523 L 99.946572,401.43615 L 99.259912,401.87307 L 98.323612,402.747 L 98.198692,402.747 L 98.011412,402.55972 L 98.011412,402.31008 L 98.105052,402.06035 L 98.854172,401.34251 L 99.416012,400.99913 L 100.32113,400.59339 L 99.915392,400.37493 L 99.384732,400.21883 L 98.729352,400.06283 L 98.666892,400.12519 L 98.105052,400.03155 L 97.449672,400.12519 L 96.887842,400.28129 L 96.013902,400.74949 L 94.983962,401.74825 L 94.297302,402.747 L 94.234842,403.15274 L 94.110022,403.30884 L 93.797932,403.40248 L 93.454552,403.27756 L 92.206052,403.12156 L 91.925132,403.15274 L 91.457032,403.46484 L 91.082482,403.96422 L 90.770382,404.71334 L 90.520642,405.77455 L 90.239722,406.33639 L 89.927622,406.67967 L 89.428242,407.05423 L 88.960042,407.14787 L 87.992472,407.05423 L 87.680372,407.05423 L 86.026132,407.08541 L 85.464392,407.21023 L 84.465542,407.74089 L 84.059802,408.14662 L 83.529242,408.39636 L 83.498062,408.30272 L 83.685242,408.0218 L 83.966162,407.52243 L 84.091082,406.83577 L 83.997442,406.21147 L 83.685242,405.11908 L 83.529242,404.7758 L 82.936222,403.9955 L 81.750192,402.96546 L 81.750192,402.87182 L 81.937472,402.52854 L 82.031112,401.90425 L 81.999832,401.59215 L 81.781372,400.46857 L 81.500452,399.65699 L 81.063532,399.06398 L 80.501692,398.59588 L 79.502942,398.06522 L 78.972282,397.9404 z M 62.024392,398.4086 L 61.587382,398.47096 L 61.119282,398.53342 L 60.682262,398.62706 L 59.870782,398.90798 L 59.152852,399.22008 L 58.466192,399.75063 L 57.280152,400.90549 L 56.624772,401.74825 L 56.343852,402.15398 L 56.156572,402.55972 L 55.750842,403.55848 L 55.501102,404.71334 L 55.407462,405.74337 L 55.469922,406.11783 L 55.782022,407.77207 L 56.156572,408.646 L 57.061692,409.76968 L 58.122912,410.73716 L 58.559832,411.04935 L 59.839502,411.82965 L 60.338982,411.98565 L 60.963182,412.14175 L 62.024392,412.17293 L 62.929512,412.04811 L 64.084372,411.82965 L 64.552572,411.70473 L 65.488862,411.39263 L 66.550082,410.92444 L 68.017032,410.08178 L 69.140612,409.23902 L 69.140612,409.08302 L 69.046972,408.73964 L 68.828512,407.61607 L 68.703692,407.30387 L 68.641232,407.30387 L 68.485232,407.45997 L 67.455202,408.3339 L 66.206702,409.17666 L 65.332762,409.7384 L 65.051942,409.86332 L 64.084372,410.17542 L 63.740992,410.2066 L 63.616172,410.30024 L 62.398952,410.42506 L 62.367672,410.39388 L 62.336492,410.42506 L 61.306462,410.39388 L 61.275282,410.42506 L 61.212922,410.39388 L 61.119282,410.39388 L 60.775902,410.33142 L 60.744722,410.39388 L 60.276522,410.30024 L 59.402582,409.98814 L 58.872022,409.55112 L 58.872022,409.4263 L 59.215302,409.30148 L 59.652322,408.92692 L 60.058062,408.39636 L 60.401342,407.92817 L 60.619802,407.33515 L 60.713442,406.77331 L 60.682262,406.74213 L 60.713442,406.67967 L 60.713442,406.14911 L 60.619802,405.74337 L 60.245342,405.96183 L 59.933142,406.11783 L 59.184122,406.61721 L 58.403832,406.99177 L 57.935632,407.08541 L 57.092872,406.96059 L 56.999332,406.89813 L 56.936872,406.64849 L 56.999332,406.39875 L 57.467432,406.36757 L 58.403832,406.24275 L 59.277762,405.68091 L 59.839502,405.11908 L 60.338982,404.40124 L 60.401342,403.93304 L 60.338982,403.80822 L 60.214062,403.80822 L 60.058062,403.8394 L 59.184122,404.02668 L 59.152852,403.9955 L 58.872022,404.02668 L 58.715932,403.9955 L 58.684752,404.02668 L 58.403832,403.96422 L 57.717172,403.3712 L 57.342612,403.24638 L 57.217792,403.12156 L 57.186512,402.9031 L 57.280152,402.80946 L 57.436252,402.80946 L 57.529892,402.84064 L 58.279012,403.02792 L 59.215302,402.71582 L 59.870782,402.40363 L 60.432622,401.99789 L 60.526162,401.81061 L 60.432622,401.71697 L 59.745962,401.56097 L 58.934392,401.28005 L 58.591112,401.21759 L 58.403832,401.12395 L 58.403832,400.93677 L 58.528652,400.78067 L 58.684752,400.78067 L 59.215302,400.90549 L 59.995602,400.28129 L 60.463802,400.03155 L 61.368922,399.87555 L 61.681022,399.90673 L 62.523772,400.00037 L 63.210432,400.15647 L 63.928272,400.46857 L 64.864662,401.03031 L 66.081882,402.06035 L 66.955822,403.12156 L 67.985852,404.58852 L 68.953332,406.52357 L 69.234252,407.39751 L 69.265532,407.64725 L 69.421532,408.24026 L 69.702452,409.86332 L 70.014552,410.89326 L 70.357932,411.73601 L 70.794852,412.42267 L 71.387862,413.04687 L 71.856062,413.39015 L 72.480262,413.60871 L 73.010922,413.70235 L 74.103312,413.76471 L 74.477872,413.63989 L 74.165772,413.51507 L 73.385482,413.01569 L 72.542722,412.11047 L 72.542722,411.98565 L 72.386622,411.70473 L 72.355442,411.45509 L 72.480262,411.39263 L 72.917282,411.95447 L 73.510302,412.29775 L 74.165772,412.54749 L 74.665152,412.64113 L 74.696332,412.57867 L 74.758792,412.64113 L 74.914792,412.64113 L 75.258172,412.57867 L 75.258172,412.64113 L 75.570272,412.57867 L 76.069652,412.45385 L 76.849942,412.04811 L 77.442962,411.45509 L 77.505322,411.17417 L 77.474142,411.17417 L 76.600212,411.39263 L 75.944832,411.42381 L 75.102072,411.29899 L 74.571512,411.04935 L 73.978492,410.73716 L 73.229382,409.92568 L 73.198202,409.76968 L 73.260562,409.70722 L 73.354202,409.70722 L 73.572662,409.92568 L 74.072132,410.17542 L 75.102072,410.30024 L 76.132112,410.17542 L 76.631482,409.98814 L 77.786242,409.30148 L 78.472902,408.55236 L 78.535362,408.17781 L 78.285622,408.24026 L 77.723882,408.39636 L 76.881132,408.49 L 76.319292,408.45872 L 75.258172,408.20908 L 73.853582,407.74089 L 73.198202,407.39751 L 72.261802,406.83577 L 71.512682,406.24275 L 70.763672,405.39999 L 70.077012,404.27642 L 69.327892,403.15274 L 68.485232,402.02916 L 67.767302,401.12395 L 66.893362,400.21883 L 66.737362,400.15647 L 66.737362,400.12519 L 65.488862,399.31371 L 64.146732,398.78316 L 63.179252,398.53342 L 62.024392,398.4086 z M 105.40865,405.55609 L 105.31501,405.61845 L 105.28383,405.64973 L 105.31501,405.68091 L 105.31501,405.83691 L 105.28383,406.02419 L 105.09655,406.24275 L 104.31625,406.55485 L 104.31625,406.64849 L 104.53471,406.67967 L 105.53347,407.21023 L 106.56351,407.55361 L 106.56351,407.33515 L 106.50105,406.83577 L 106.15767,405.96183 L 105.97049,405.64973 L 105.40865,405.55609 z M 53.628402,407.14787 L 53.503582,407.30387 L 52.973022,408.61482 L 52.816932,409.14538 L 52.629652,409.45748 L 52.567192,409.92568 L 52.973022,412.79713 L 53.316302,415.3253 L 53.378762,415.38776 L 53.409942,415.38776 L 53.940502,415.0132 L 54.315062,414.8571 L 54.315062,414.7011 L 54.252702,414.66992 L 54.221422,413.82717 L 54.377522,413.35897 L 54.627162,413.04687 L 54.658442,412.85959 L 54.627162,412.82841 L 54.595982,412.01683 L 54.658442,411.61109 L 55.001722,411.14299 L 55.220182,411.08053 L 55.376282,411.17417 L 55.532382,411.04935 L 55.251462,409.20784 L 54.002962,407.55361 L 53.628402,407.14787 z M 100.82051,409.98814 L 100.60205,410.0505 L 100.44595,410.2066 L 99.977752,410.76844 L 99.540832,411.70473 L 99.228732,412.70349 L 99.072632,413.63989 L 99.977752,414.10808 L 102.47474,415.35658 L 102.44356,415.1693 L 101.94418,414.48264 L 101.38234,413.85835 L 100.25867,412.98441 L 100.10267,412.54749 L 100.19631,412.42267 L 100.32113,412.39139 L 101.53834,413.10933 L 101.6008,413.04687 L 101.63198,412.82841 L 101.7569,412.48503 L 101.78808,412.17293 L 101.50716,411.23663 L 101.07024,410.23778 L 100.82051,409.98814 z M 105.59593,411.82965 L 105.59593,411.89201 L 106.15767,412.64113 L 106.18895,412.95323 L 106.06413,413.10933 L 105.84557,413.20297 L 105.84557,413.26533 L 107.09406,414.13926 L 107.74954,414.7011 L 107.74954,414.66992 L 107.68708,413.67107 L 107.56226,413.10933 L 107.53098,412.79713 L 107.31252,412.36021 L 107.25016,412.36021 L 107.15652,412.42267 L 107.00043,412.67231 L 106.78197,412.70349 L 105.75193,411.86083 L 105.59593,411.82965 z M 55.251462,411.89201 L 55.126542,412.01683 L 55.095362,412.45385 L 55.220182,412.82841 L 55.407462,413.01569 L 55.750842,413.35897 L 55.750842,413.54625 L 55.657202,413.67107 L 55.501102,413.70235 L 55.469922,413.67107 L 55.064182,413.60871 L 54.814442,413.76471 L 54.814442,414.2329 L 54.939362,414.7011 L 55.157822,414.98202 L 55.407462,415.07566 L 55.532382,415.10684 L 55.844482,415.1693 L 56.312672,415.10684 L 56.718412,414.76346 L 56.936872,414.7011 L 57.061692,414.79474 L 57.092872,414.98202 L 57.030512,415.38776 L 56.655952,415.91832 L 56.250212,416.51134 L 55.719562,417.38527 L 55.376282,417.85347 L 55.157822,417.91593 L 55.095362,417.85347 L 55.001722,417.72865 L 55.001722,417.47891 L 55.064182,417.26045 L 55.345102,416.82344 L 55.313822,416.79226 L 55.345102,416.76108 L 55.345102,416.60498 L 55.313822,416.2617 L 55.345102,416.23042 L 55.251462,416.04324 L 55.126542,415.82468 L 54.939362,415.6374 L 54.502342,415.4814 L 54.471162,415.51258 L 54.408702,415.4814 L 54.190242,415.51258 L 53.940502,415.69986 L 53.784502,415.91832 L 53.753222,416.2617 L 53.846862,416.51134 L 53.940502,416.97954 L 53.815682,417.19799 L 53.659682,417.26045 L 53.378762,417.16681 L 53.316302,416.94835 L 52.941752,416.51134 L 52.629652,416.48016 L 52.099092,416.51134 L 51.880532,416.66744 L 51.693252,416.91708 L 51.568432,417.26045 L 51.474792,417.72865 L 51.537252,417.75983 L 51.537252,417.85347 L 51.568432,418.04075 L 51.786892,418.25921 L 52.099092,418.32167 L 52.192732,418.25921 L 52.255092,418.32167 L 52.536012,418.22803 L 52.785752,418.44649 L 52.785752,418.60259 L 52.567192,418.78987 L 52.379912,418.85223 L 51.974172,419.03951 L 51.880532,419.19561 L 51.849352,419.19561 L 51.786892,419.85099 L 52.067812,420.1319 L 52.567192,420.38164 L 53.004202,420.41282 L 53.253842,420.288 L 53.503582,419.9759 L 53.566042,419.72617 L 53.815682,419.41407 L 54.002962,419.38289 L 54.221422,419.50771 L 54.252702,419.72617 L 53.690862,420.63128 L 52.941752,421.81732 L 52.504832,422.4728 L 52.379912,422.50398 L 52.161452,422.28552 L 52.130272,422.1607 L 52.379912,421.72368 L 52.317552,421.44286 L 52.161452,421.13066 L 51.849352,420.81856 L 51.537252,420.63128 L 51.006592,420.7562 L 50.756952,420.97466 L 50.694492,421.25558 L 50.756952,421.59886 L 50.725772,421.72368 L 50.507212,421.87978 L 50.444852,421.8486 L 50.382392,421.8486 L 50.226392,421.72368 L 50.101482,421.5365 L 50.007842,421.5365 L 49.508462,421.59886 L 48.946622,421.87978 L 49.196362,422.0046 L 51.537252,423.03463 L 52.286372,423.37791 L 52.692112,423.50283 L 52.723292,423.47155 L 52.723292,423.40919 L 52.692112,423.28427 L 54.002962,421.16194 L 55.719562,418.47767 L 56.406212,417.32291 L 56.593492,416.32406 L 56.780772,415.85596 L 57.592352,415.07566 L 57.935632,414.8571 L 57.935632,414.79474 L 56.936872,413.67107 L 55.251462,411.89201 z M 104.12897,415.0132 L 104.28498,417.51009 L 104.19143,422.09824 L 104.00415,424.15821 L 103.59832,426.28064 L 103.13022,428.27816 L 102.81802,429.30819 L 102.25628,430.80633 L 102.16264,431.18089 L 102.31864,431.36817 L 102.5372,431.36817 L 102.94294,431.18089 L 103.69196,429.18327 L 104.28498,427.4355 L 104.87799,425.28189 L 105.22137,423.75247 L 105.40865,422.37916 L 105.56465,420.72492 L 105.68957,418.07193 L 105.56465,415.35658 L 105.47101,415.26294 L 104.59717,415.07566 L 104.12897,415.0132 z M 106.25131,415.38776 L 106.12649,415.41894 L 106.09531,418.41531 L 106.06413,419.91345 L 105.93921,421.56768 L 105.53347,424.59523 L 105.22137,426.187 L 105.00291,427.02966 L 104.65953,428.80881 L 104.19143,430.27577 L 104.06652,431.02479 L 104.12897,431.39935 L 104.25379,431.86754 L 104.56589,432.3981 L 104.75317,432.58538 L 104.81563,432.5542 L 105.06527,431.92991 L 105.81439,429.99485 L 106.75079,427.21694 L 107.12525,425.53153 L 107.56226,423.53401 L 107.74954,422.22316 L 107.87436,420.81856 L 107.99918,418.32167 L 107.968,415.7935 L 107.87436,415.69986 L 107.12525,415.57504 L 106.75079,415.51258 L 106.25131,415.38776 z M 83.997442,415.41894 L 83.903802,415.51258 L 83.685242,415.76232 L 83.622882,415.98078 L 82.936222,417.16681 L 83.373142,416.91708 L 84.278262,416.44898 L 85.027382,415.98078 L 85.339482,415.69986 L 85.089842,415.6374 L 84.403182,415.51258 L 83.997442,415.41894 z M 86.431872,416.35534 L 86.275872,416.38652 L 82.748942,418.57131 L 82.748942,418.66495 L 83.092222,419.85099 L 83.778882,421.44286 L 84.184722,422.53526 L 84.465542,423.84611 L 84.684102,425.81245 L 84.590462,426.68638 L 84.621642,426.68638 L 84.590462,426.74884 L 84.621642,426.78002 L 84.590462,426.8112 L 84.434362,428.0597 L 84.309542,428.49662 L 83.997442,429.12091 L 83.498062,429.58911 L 83.217142,429.71393 L 83.217142,429.80757 L 83.248322,429.90121 L 83.591602,430.33813 L 84.122262,430.65023 L 85.183472,430.71269 L 85.495572,430.65023 L 86.026132,430.46295 L 86.525512,430.11967 L 87.024892,429.62029 L 87.399452,428.87118 L 87.524372,428.18452 L 87.461912,427.80996 L 87.337092,427.5915 L 87.305812,427.18576 L 87.461912,426.99848 L 87.649192,426.90484 L 87.680372,426.93612 L 87.805192,426.93612 L 87.898832,427.09212 L 87.992472,427.18576 L 88.273392,427.49786 L 88.398212,427.49786 L 88.616762,427.56032 L 89.646702,427.46668 L 89.677982,427.49786 L 89.709162,427.46668 L 90.645462,427.4355 L 91.519392,427.56032 L 92.143692,427.99724 L 92.518152,428.46544 L 92.767892,428.996 L 93.829112,431.96118 L 94.765402,434.89509 L 95.545702,437.64172 L 95.795442,438.57802 L 96.201182,440.45072 L 96.450922,440.54436 L 99.135092,440.73164 L 99.759292,440.70045 L 99.696932,440.66918 L 99.228732,440.38836 L 97.293582,439.01504 L 97.043932,439.17104 L 96.450922,439.20232 L 96.232362,439.01504 L 96.232362,438.85894 L 96.326002,438.73412 L 97.855412,437.61045 L 97.917872,437.42317 L 97.792952,437.11107 L 96.981482,435.36319 L 96.513282,434.23962 L 96.419642,433.9587 L 96.294822,433.74024 L 96.263642,433.52178 L 96.294822,433.4905 L 96.388462,433.36568 L 96.544562,433.30322 L 96.700562,433.4905 L 97.668132,435.61293 L 98.604532,437.61045 L 98.978992,437.45445 L 99.228732,437.32953 L 100.78933,436.64287 L 101.6008,436.23713 L 102.25628,436.01867 L 102.34992,435.89385 L 102.31864,435.89385 L 101.31988,435.70657 L 100.44595,435.58175 L 100.25867,435.45683 L 100.13385,435.48811 L 99.759292,436.01867 L 99.634472,436.36205 L 99.384732,436.61169 L 99.228732,436.64287 L 99.041452,436.61169 L 98.822992,436.42441 L 98.822992,436.17477 L 99.041452,435.83139 L 99.821752,434.86382 L 99.915392,434.70782 L 99.821752,434.55172 L 98.791712,433.8026 L 97.699312,432.80384 L 97.387212,432.36692 L 97.356032,431.86754 L 97.418402,431.71145 L 97.605672,431.43053 L 98.011412,431.14961 L 98.385972,431.08725 L 98.978992,430.99361 L 99.915392,431.08725 L 99.915392,430.99361 L 99.696932,430.46295 L 99.572012,429.99485 L 99.634472,429.96357 L 99.759292,429.86993 L 99.946572,429.90121 L 100.38359,430.30695 L 101.13261,430.86879 L 101.85054,431.18089 L 101.6008,430.68151 L 100.32113,428.62154 L 100.10267,428.43426 L 99.759292,428.59026 L 99.291092,428.996 L 98.354792,429.74511 L 98.198692,429.80757 L 98.105052,429.71393 L 97.917872,429.33937 L 97.356032,428.02852 L 96.638102,428.02852 L 96.263642,427.77878 L 96.201182,427.62278 L 96.294822,427.46668 L 96.950302,427.1233 L 97.262392,427.02966 L 97.980232,427.09212 L 98.791712,427.37304 L 98.791712,427.21694 L 98.760532,426.93612 L 98.542072,426.187 L 98.323612,425.78127 L 97.574492,425.06333 L 97.043932,424.72005 L 96.232362,424.47031 L 95.389702,424.28303 L 95.015142,424.25185 L 94.890322,424.15821 L 94.890322,424.00221 L 95.139962,423.81493 L 95.576982,423.59637 L 95.826622,423.56519 L 96.326002,423.59637 L 96.731742,423.75247 L 97.387212,424.06457 L 98.105052,424.50159 L 98.105052,424.00221 L 97.824232,423.097 L 97.512032,422.56644 L 96.950302,422.09824 L 96.326002,421.72368 L 95.701802,421.5365 L 94.703042,421.56768 L 94.359672,421.59886 L 94.141212,421.72368 L 93.922752,421.87978 L 93.829112,421.78614 L 93.735472,421.31794 L 93.953932,421.0683 L 94.453302,420.88102 L 95.296062,420.7562 L 95.327242,420.81856 L 95.389702,420.7562 L 95.545702,420.7562 L 95.576982,420.81856 L 95.608162,420.7562 L 95.982722,420.81856 L 96.107542,420.72492 L 95.982722,420.47528 L 95.139962,419.57007 L 94.703042,419.28925 L 94.359672,419.16433 L 94.016392,419.10197 L 93.610652,419.19561 L 93.173632,419.41407 L 92.674252,419.85099 L 92.486972,420.25673 L 92.362152,420.81856 L 92.424612,421.0683 L 92.299692,421.2243 L 92.174872,421.2243 L 91.082482,421.13066 L 90.645462,420.97466 L 90.364642,420.88102 L 89.958802,420.56892 L 89.709162,420.1319 L 89.490702,419.47653 L 89.116142,418.25921 L 89.022502,417.66619 L 88.928862,417.22927 L 88.897682,416.82344 L 88.398212,416.76108 L 87.399452,416.63626 L 86.900072,416.51134 L 86.681612,416.48016 L 86.431872,416.35534 z M 56.531132,418.19675 L 56.406212,418.25921 L 55.126542,420.288 L 54.939362,420.63128 L 54.720802,420.94338 L 53.628402,422.69126 L 53.409942,423.00336 L 53.253842,423.25309 L 53.097842,423.59637 L 53.316302,423.78365 L 53.909322,424.15821 L 54.002962,424.00221 L 55.345102,421.8486 L 56.905692,419.32043 L 56.999332,419.03951 L 56.936872,419.00833 L 56.780772,418.75859 L 56.687132,418.47767 L 56.593492,418.19675 L 56.531132,418.19675 z M 64.864662,419.91345 L 64.833392,419.9759 L 64.521292,420.25673 L 63.803452,420.94338 L 63.179252,421.8486 L 63.085612,422.12952 L 62.929512,422.4728 L 62.742232,423.34673 L 62.554952,424.18949 L 62.617412,424.22067 L 62.648592,424.18949 L 62.804692,424.18949 L 62.835872,424.22067 L 63.616172,424.09585 L 63.616172,424.00221 L 63.709812,423.34673 L 63.897092,422.56644 L 64.209192,421.8486 L 64.927032,420.81856 L 65.207942,420.53764 L 65.270402,420.288 L 65.207942,420.10072 L 65.051942,419.91345 L 64.864662,419.91345 z M 56.874412,423.65883 L 57.373792,423.72129 L 57.529892,423.65883 L 57.873172,423.69001 L 58.122912,424.00221 L 58.435012,424.78251 L 58.747112,425.25061 L 58.747112,425.46917 L 58.684752,425.56281 L 58.466192,425.59399 L 58.154092,425.34425 L 57.748352,424.87615 L 57.405072,424.75123 L 57.217792,425.03215 L 57.186512,425.25061 L 57.186512,425.34425 L 57.061692,425.53153 L 56.936872,425.71881 L 56.780772,425.78127 L 56.531132,425.71881 L 56.499852,425.56281 L 56.687132,424.93851 L 56.655952,423.93975 L 56.780772,423.72129 L 56.874412,423.65883 z M 54.533522,425.25061 L 54.471162,425.34425 L 54.471162,425.56281 L 55.001722,430.11967 L 55.345102,432.89748 L 55.469922,433.05358 L 55.626022,433.11594 L 56.312672,433.08476 L 56.343852,433.11594 L 56.375032,433.08476 L 56.531132,433.08476 L 56.624772,433.05358 L 56.343852,429.80757 L 56.125392,426.99848 L 56.219032,426.40546 L 56.156572,426.28064 L 54.533522,425.25061 z M 61.618662,425.25061 L 61.837122,425.28189 L 61.961942,425.46917 L 61.993122,425.78127 L 62.024392,425.99972 L 61.961942,426.06218 L 61.681022,425.96854 L 61.556202,425.81245 L 61.618662,425.28189 L 61.618662,425.25061 z M 64.115552,426.28064 L 63.709812,426.40546 L 63.085612,426.87366 L 63.085612,427.65396 L 62.929512,428.59026 L 62.773412,428.96482 L 62.242852,429.55783 L 61.119282,430.05721 L 60.463802,430.18213 L 60.338982,430.33813 L 60.432622,430.46295 L 60.838362,430.68151 L 61.431382,430.83751 L 61.462562,430.80633 L 61.525022,430.83751 L 61.587382,430.83751 L 62.430132,430.80633 L 62.991972,430.27577 L 63.460072,429.74511 L 63.647352,429.43301 L 63.959452,428.65272 L 64.115552,427.80996 L 64.146732,426.87366 L 64.115552,426.28064 z M 56.531132,426.68638 L 56.531132,426.74884 L 56.593492,427.18576 L 57.405072,432.80384 L 57.467432,432.89748 L 57.685992,432.89748 L 58.185372,432.7102 L 58.528652,432.49174 L 57.748352,427.2794 L 57.311432,426.93612 L 56.780772,426.68638 L 56.531132,426.68638 z M 67.736122,428.87118 L 67.611302,428.96482 L 66.924642,430.33813 L 66.643722,430.99361 L 66.456442,431.39935 L 67.143102,431.83627 L 67.267922,431.83627 L 67.299202,431.80509 L 68.110672,430.71269 L 68.485232,430.11967 L 68.547592,429.86993 L 68.297952,429.62029 L 67.736122,428.87118 z M 68.953332,430.40059 L 68.890972,430.43177 L 67.424022,432.36692 L 67.361562,432.99112 L 67.424022,433.20958 L 67.580022,433.70906 L 67.767302,434.1148 L 68.828512,435.20719 L 69.359172,435.48811 L 69.889732,435.64411 L 70.357932,435.70657 L 70.482752,435.61293 L 70.670032,435.30083 L 72.261802,433.1784 L 72.761182,432.5542 L 73.010922,432.14846 L 72.667542,431.43053 L 72.449082,431.11843 L 71.387862,430.86879 L 70.670032,430.71269 L 70.638842,430.74387 L 70.638842,430.83751 L 70.545212,431.18089 L 70.389112,431.36817 L 70.139372,431.39935 L 70.014552,431.36817 L 69.421532,430.89997 L 69.015792,430.40059 L 68.953332,430.40059 z M 99.135092,431.61781 L 98.604532,431.71145 L 97.980232,432.02355 L 97.980232,432.11718 L 98.760532,432.95994 L 98.947812,432.95994 L 99.478372,432.77266 L 100.13385,432.67902 L 100.53959,432.77266 L 100.60205,432.7102 L 101.38234,433.05358 L 101.7569,433.27204 L 102.44356,433.9587 L 102.66202,434.30208 L 102.88048,434.30208 L 103.44232,434.52054 L 103.91051,434.80145 L 105.28383,435.83139 L 105.97049,436.17477 L 106.34495,436.29959 L 106.96924,436.36205 L 107.56226,436.23713 L 108.2801,435.83139 L 108.71712,435.42565 L 108.96676,435.05109 L 109.2165,434.64536 L 109.31014,434.14598 L 109.27886,434.02116 L 109.31014,433.9587 L 109.27886,433.89624 L 109.2165,433.55296 L 108.99794,433.1784 L 108.62348,432.67902 L 108.21764,432.52292 L 107.6559,432.52292 L 107.12525,432.7102 L 106.65715,433.08476 L 106.43859,433.36568 L 106.40741,433.67778 L 106.65715,434.02116 L 107.09406,434.30208 L 107.68708,434.14598 L 107.84318,434.30208 L 107.84318,434.55172 L 107.46862,434.92627 L 107.12525,434.95746 L 106.56351,434.86382 L 105.59593,434.30208 L 105.28383,434.05234 L 104.84681,433.61542 L 104.06652,432.64784 L 103.56714,431.61781 L 103.3175,431.74263 L 102.47474,431.99236 L 102.00654,432.02355 L 100.47723,431.86754 L 99.790572,431.68027 L 99.135092,431.61781 z M 65.020672,431.71145 L 64.833392,432.58538 L 64.802212,433.05358 L 65.364042,433.39686 L 66.362802,434.70782 L 66.831002,435.70657 L 66.955822,436.61169 L 66.924642,437.64172 L 66.706082,438.42202 L 66.768542,438.48438 L 68.204312,439.01504 L 69.639992,439.51442 L 70.357932,436.45569 L 70.295472,436.42441 L 70.170652,436.42441 L 70.014552,436.36205 L 69.265532,436.23713 L 68.547592,435.92503 L 67.860942,435.36319 L 67.548842,434.95746 L 67.174282,434.36444 L 66.924642,433.70906 L 66.737362,432.5542 L 66.331622,432.27328 L 65.395222,431.83627 L 65.020672,431.71145 z M 60.026782,431.96118 L 59.933142,432.086 L 59.184122,432.89748 L 58.528652,433.36568 L 57.280152,433.70906 L 56.312672,433.8026 L 55.906842,433.74024 L 55.220182,433.70906 L 55.126542,433.70906 L 55.095362,433.67778 L 54.720802,433.61542 L 54.221422,433.42814 L 53.815682,433.24086 L 53.690862,433.27204 L 52.099092,435.11355 L 53.940502,435.95621 L 54.190242,436.01867 L 54.221422,435.95621 L 54.252702,435.92503 L 54.315062,435.80021 L 54.720802,435.48811 L 55.813202,434.92627 L 56.874412,434.55172 L 58.216552,434.30208 L 58.809572,434.30208 L 59.745962,434.36444 L 60.245342,434.52054 L 60.682262,434.61418 L 60.744722,434.55172 L 62.118032,432.83512 L 62.086762,432.80384 L 60.526162,432.11718 L 60.338982,431.99236 L 60.026782,431.96118 z M 100.78933,433.70906 L 100.66441,434.05234 L 100.47723,434.4269 L 100.60205,434.52054 L 100.66441,434.77018 L 100.85169,434.77018 L 101.4447,434.92627 L 101.66326,434.95746 L 101.94418,435.08237 L 102.3811,435.08237 L 103.56714,435.76903 L 103.34868,435.95621 L 101.78808,436.83015 L 99.228732,437.92255 L 98.666892,438.1411 L 98.666892,438.23474 L 98.542072,438.6092 L 98.448432,438.98376 L 100.72687,440.54436 L 100.82051,440.88773 L 100.85169,441.13737 L 100.66441,441.38711 L 100.50841,441.41829 L 99.509652,441.44947 L 99.478372,441.41829 L 98.510892,441.38711 L 98.448432,441.41829 L 98.136332,441.38711 L 98.073872,441.41829 L 98.011412,442.10495 L 98.073872,442.22977 L 98.198692,442.32341 L 98.604532,442.54197 L 98.916632,442.63561 L 99.384732,442.60433 L 99.821752,442.29223 L 100.19631,442.13613 L 100.50841,442.22977 L 101.13261,442.82279 L 101.6008,443.04135 L 102.16264,443.10371 L 102.75566,443.07253 L 103.1614,442.97889 L 103.66078,442.72915 L 104.16015,442.29223 L 104.40989,441.91767 L 104.53471,441.54311 L 104.12897,441.69921 L 103.34868,441.76167 L 102.81802,441.60557 L 102.19382,441.26229 L 101.9129,440.88773 L 101.66326,440.38836 L 101.50716,440.38836 L 101.03897,440.54436 L 101.00779,440.51318 L 100.91415,440.51318 L 100.72687,440.45072 L 100.50841,440.29472 L 100.47723,440.0138 L 100.72687,439.76406 L 100.91415,439.76406 L 101.19506,439.7017 L 101.53834,439.5456 L 102.19382,438.9214 L 102.41228,438.57802 L 102.47474,438.01619 L 102.34992,438.01619 L 101.88172,437.985 L 101.78808,437.89137 L 101.66326,437.64172 L 102.03772,437.29835 L 102.25628,437.23589 L 102.44356,437.11107 L 102.5372,437.11107 L 103.1614,436.83015 L 103.53596,436.51805 L 103.75442,436.17477 L 103.91051,435.70657 L 103.87924,435.58175 L 103.22386,435.26955 L 102.28746,435.01991 L 102.16264,434.92627 L 101.6008,434.20844 L 101.16388,433.89624 L 100.78933,433.70906 z M 64.771032,434.02116 L 64.021912,434.45808 L 64.021912,434.70782 L 64.084372,434.89509 L 64.209192,435.08237 L 64.334012,435.08237 L 64.521292,435.05109 L 65.364042,434.80145 L 65.488862,434.70782 L 65.457682,434.64536 L 65.364042,434.48926 L 64.864662,434.02116 L 64.771032,434.02116 z M 63.210432,434.1148 L 62.867052,434.30208 L 61.993122,434.86382 L 61.119282,435.42565 L 60.775902,435.42565 L 59.589862,435.05109 L 58.466192,435.01991 L 57.498712,435.17591 L 56.999332,435.30083 L 56.593492,435.51929 L 55.906842,435.80021 L 55.719562,435.95621 L 55.563562,436.20595 L 55.626022,437.07989 L 55.532382,438.04746 L 55.376282,438.6092 L 55.345102,438.89012 L 55.469922,438.9214 L 55.750842,438.85894 L 56.375032,438.42202 L 56.780772,437.92255 L 57.030512,437.36081 L 57.124152,436.61169 L 57.280152,436.48687 L 57.436252,436.48687 L 58.122912,436.67415 L 58.466192,436.70533 L 58.778392,436.83015 L 58.809572,436.76779 L 58.872022,436.83015 L 59.839502,436.83015 L 60.026782,437.04871 L 59.933142,437.42317 L 60.026782,437.57927 L 60.338982,438.9214 L 60.338982,439.57678 L 60.432622,440.57563 L 60.557442,440.60682 L 60.838362,440.57563 L 61.712292,440.26344 L 62.430132,439.76406 L 62.804692,439.32714 L 62.960692,438.7653 L 63.179252,438.48438 L 63.272792,438.48438 L 63.491352,438.64048 L 63.522532,438.9214 L 63.491352,439.17104 L 63.553712,439.26468 L 64.427652,439.32714 L 64.490112,439.26468 L 64.490112,439.17104 L 64.115552,437.61045 L 63.335252,434.1148 L 63.210432,434.1148 z M 65.769782,435.26955 L 65.488862,435.30083 L 64.302832,435.70657 L 64.302832,435.92503 L 64.739752,437.985 L 64.864662,438.23474 L 66.081882,438.2971 L 66.300342,438.07864 L 66.425262,437.829 L 66.456442,437.07989 L 66.331622,436.48687 L 66.019422,435.48811 L 65.769782,435.26955 z M 94.266032,435.89385 L 94.234842,435.92503 L 94.016392,436.04985 L 93.204812,436.89261 L 92.299692,438.17228 L 92.112412,438.6092 L 95.202422,441.76167 L 95.233602,441.69921 L 95.296062,441.69921 L 95.202422,441.26229 L 95.077602,440.82528 L 94.578122,439.26468 L 94.297302,438.85894 L 93.891472,438.51566 L 93.610652,438.23474 L 93.610652,438.04746 L 93.766652,437.89137 L 94.016392,437.829 L 94.141212,437.89137 L 94.578122,438.23474 L 94.765402,438.23474 L 94.890322,438.07864 L 94.859042,437.829 L 94.359672,435.89385 L 94.266032,435.89385 z M 57.873172,437.36081 L 57.748352,437.42317 L 57.717172,437.61045 L 57.467432,438.23474 L 56.905692,438.98376 L 56.062932,439.5456 L 55.969302,439.7017 L 56.125392,440.10744 L 56.593492,441.29347 L 56.718412,441.57439 L 57.405072,441.51193 L 58.403832,441.29347 L 58.903212,441.10619 L 59.433762,440.98137 L 59.589862,440.73164 L 59.621042,440.51318 L 59.589862,439.45196 L 59.558682,438.82776 L 59.433762,438.07864 L 59.465042,437.57927 L 59.433762,437.45445 L 59.184122,437.48563 L 57.873172,437.36081 z M 76.132112,439.17104 L 73.978492,441.26229 L 73.229382,442.10495 L 72.761182,442.82279 L 72.667542,443.10371 L 73.572662,444.28974 L 74.977252,446.19372 L 75.039612,446.19372 L 75.039612,446.13126 L 74.977252,445.22614 L 74.633872,444.5083 L 74.477872,443.66555 L 74.259312,443.54073 L 74.103312,443.32217 L 74.072132,443.07253 L 74.196952,442.91643 L 74.384232,442.79161 L 74.446592,442.82279 L 74.602692,442.82279 L 75.320532,443.54073 L 76.069652,442.32341 L 76.256932,441.91767 L 76.319292,440.88773 L 76.288112,440.57563 L 76.319292,440.54436 L 76.194472,439.26468 L 76.132112,439.17104 z M 59.277762,441.69921 L 58.872022,441.85531 L 58.122912,442.10495 L 57.623532,442.19859 L 57.498712,442.26105 L 57.311432,442.47951 L 57.061692,443.07253 L 57.030512,443.38463 L 57.467432,443.63436 L 58.154092,444.0401 L 58.903212,444.38338 L 59.527402,443.44709 L 60.245342,442.19859 L 59.839502,441.91767 L 59.277762,441.69921 z"
       style="fill:#ffd200;fill-opacity:1;fill-rule:evenodd;stroke:#000000;stroke-width:0.40000001;stroke-miterlimit:4;stroke-dasharray:none;stroke-opacity:1" />
  </g>
</svg>
