<?xml version="1.0" encoding="UTF-8" standalone="no"?>
<!-- Created with Inkscape (http://www.inkscape.org/) -->

<svg
   xmlns:dc="http://purl.org/dc/elements/1.1/"
   xmlns:cc="http://creativecommons.org/ns#"
   xmlns:rdf="http://www.w3.org/1999/02/22-rdf-syntax-ns#"
   xmlns:svg="http://www.w3.org/2000/svg"
   xmlns="http://www.w3.org/2000/svg"
   xmlns:sodipodi="http://sodipodi.sourceforge.net/DTD/sodipodi-0.dtd"
   xmlns:inkscape="http://www.inkscape.org/namespaces/inkscape"
   width="29.999941mm"
   height="90mm"
   viewBox="0 0 29.99994 90"
   version="1.1"
   id="svg8"
   inkscape:version="0.92.2 (5c3e80d, 2017-08-06)"
   sodipodi:docname="FDF_M05_OF5_eversti.svg">
  <defs
     id="defs2">
    <pattern
       y="0"
       x="0"
       height="6"
       width="6"
       patternUnits="userSpaceOnUse"
       id="EMFhbasepattern" />
    <pattern
       y="0"
       x="0"
       height="6"
       width="6"
       patternUnits="userSpaceOnUse"
       id="EMFhbasepattern-7" />
  </defs>
  <sodipodi:namedview
     id="base"
     pagecolor="#ffffff"
     bordercolor="#666666"
     borderopacity="1.0"
     inkscape:pageopacity="0.0"
     inkscape:pageshadow="2"
     inkscape:zoom="1.4"
     inkscape:cx="-157.31597"
     inkscape:cy="226.53183"
     inkscape:document-units="mm"
     inkscape:current-layer="layer1"
     showgrid="false"
     fit-margin-top="0"
     fit-margin-left="0"
     fit-margin-right="0"
     fit-margin-bottom="0"
     inkscape:window-width="3840"
     inkscape:window-height="2066"
     inkscape:window-x="-11"
     inkscape:window-y="-11"
     inkscape:window-maximized="1" />
  <metadata
     id="metadata5">
    <rdf:RDF>
      <cc:Work
         rdf:about="">
        <dc:format>image/svg+xml</dc:format>
        <dc:type
           rdf:resource="http://purl.org/dc/dcmitype/StillImage" />
        <dc:title />
      </cc:Work>
    </rdf:RDF>
  </metadata>
  <g
     inkscape:label="Taso 1"
     inkscape:groupmode="layer"
     id="layer1"
     transform="translate(-78.53753,-89.17376)"
     style="display:inline">
    <g
       id="g1633">
      <path
         inkscape:connector-curvature="0"
         id="path13153"
         d="m 78.53753,89.17376 h 29.99994 v 90 H 78.53753 Z"
         style="display:inline;opacity:1;fill:#3d4321;fill-opacity:1;fill-rule:evenodd;stroke:none;stroke-width:1.9336518;stroke-linecap:round;stroke-linejoin:miter;stroke-miterlimit:4;stroke-dasharray:none;stroke-dashoffset:0;stroke-opacity:1" />
      <g
         transform="matrix(0.28222223,0,0,0.28222223,-1297.7802,510.97137)"
         id="g4184"
         style="display:inline">
        <path
           sodipodi:nodetypes="ccccccccsccccccccccccc"
           id="path2553"
           style="display:inline;opacity:1;fill:#ffcb2d;fill-opacity:1;fill-rule:evenodd;stroke:none;stroke-width:1.0629921;stroke-linecap:butt;stroke-linejoin:miter;stroke-miterlimit:5.80000019;stroke-dasharray:none;stroke-dashoffset:0;stroke-opacity:1"
           d="m 4947.3369,-1232.5938 c 4.3071,-3.1292 7.2296,-7.4556 8.6432,-12.1912 l 4.9614,-1.7585 -2.9984,-4.2878 c 1.6571,-4.6752 1.8433,-9.9133 0.192,-14.9953 -1.6451,-5.0632 -4.8566,-9.1796 -8.9237,-11.9873 l -0.1397,-5.262 -5.0041,1.5266 c -3.9343,-3.0208 -8.8584,-4.8165 -14.202,-4.8165 -5.3238,0 -10.2312,1.7822 -14.1583,4.7827 l -5.0478,-1.493 -0.094,5.2309 c -4.0888,2.8082 -7.3184,6.9365 -8.9695,12.0186 -1.6452,5.0631 -1.4667,10.281 0.1733,14.943 l -2.9799,4.3393 4.9458,1.7064 c 1.4074,4.7564 4.3356,9.1036 8.6587,12.2445 4.3069,3.1292 9.3247,4.5718 14.2654,4.4527 l 3.206,4.175 3.151,-4.1769 c 4.9584,0.1313 9.9976,-1.3102 14.3207,-4.4512 z"
           inkscape:connector-curvature="0" />
        <path
           style="display:inline;opacity:1;fill:none;fill-opacity:1;fill-rule:evenodd;stroke:#523400;stroke-width:1.0629921;stroke-linecap:butt;stroke-linejoin:miter;stroke-miterlimit:5.80000019;stroke-dasharray:none;stroke-dashoffset:0;stroke-opacity:1"
           d="m 4939.8887,-1256.6413 a 10.023339,10.023339 0 0 1 -10.0232,10.0233 10.023339,10.023339 0 0 1 -10.0234,-10.0233 10.023339,10.023339 0 0 1 10.0234,-10.0232 10.023339,10.023339 0 0 1 10.0232,10.0232 z"
           id="path2555"
           inkscape:connector-curvature="0" />
        <path
           id="path2557"
           style="display:inline;opacity:1;fill:none;fill-opacity:1;fill-rule:evenodd;stroke:#523400;stroke-width:1.0629921;stroke-linecap:butt;stroke-linejoin:miter;stroke-miterlimit:5.80000019;stroke-dasharray:none;stroke-dashoffset:0;stroke-opacity:1"
           d="m 4923.12,-1264.1202 -5.67,-7.8532 c -0.6525,-0.8704 -1.4781,-1.4558 -2.3887,-1.7517 -2.7322,-0.8878 -5.147,0.7763 -6.0348,3.5085 -0.8878,2.7322 -0.5689,4.3766 -1.2282,6.4055 -0.6592,2.0289 -1.8836,3.1716 -2.7715,5.904 -0.8876,2.7322 0.088,5.4978 2.8202,6.3858 0.9106,0.2958 1.9225,0.3076 2.962,-0.014 l 9.203,-3.0206 m 0.656,2.0181 -9.2208,2.9656 c -1.0297,0.3516 -1.8414,0.956 -2.4042,1.7305 -1.6886,2.3241 -0.8521,5.1351 1.4719,6.8238 2.3242,1.6886 3.9867,1.8935 5.7125,3.1474 1.7259,1.2539 2.4344,2.7715 4.7587,4.4602 2.3241,1.6887 5.256,1.6154 6.9446,-0.7087 0.5627,-0.7745 0.8867,-1.7335 0.9028,-2.8213 l -0.029,-9.6858 m 2.1218,-5e-4 -0.028,9.6862 c 0.016,1.0878 0.34,2.0465 0.9028,2.8211 1.6885,2.3243 4.6204,2.3974 6.9445,0.7089 2.3243,-1.6888 3.0328,-3.2065 4.7587,-4.4604 1.7259,-1.2539 3.3882,-1.4588 5.7124,-3.1473 2.3243,-1.6888 3.1606,-4.4997 1.472,-6.8239 -0.5627,-0.7745 -1.3745,-1.3791 -2.404,-1.7304 l -9.2209,-2.9657 m 0.6554,-2.0182 9.2031,3.0206 c 1.0395,0.321 2.0516,0.3089 2.962,0.014 2.7322,-0.8879 3.7078,-3.6535 2.8202,-6.386 -0.8879,-2.7321 -2.1123,-3.875 -2.7715,-5.9039 -0.6593,-2.0288 -0.3403,-3.673 -1.2281,-6.4053 -0.8879,-2.7323 -3.3028,-4.3963 -6.035,-3.5086 -0.9104,0.2958 -1.7362,0.8811 -2.3887,1.7517 l -5.6699,7.8531 m -1.7168,-1.247 5.7165,-7.8193 c 0.6265,-0.8894 0.9281,-1.8558 0.9281,-2.8131 -2e-4,-2.8728 -2.329,-4.6553 -5.202,-4.6553 -2.8728,0 -4.3381,0.8113 -6.4714,0.8113 -2.1333,0 -3.5986,-0.8113 -6.4714,-0.8113 -2.8729,0 -5.2019,1.7825 -5.202,4.6553 0,0.9573 0.3016,1.9237 0.928,2.8131 l 5.7165,7.8193"
           inkscape:connector-curvature="0" />
        <path
           id="path2559"
           style="fill:none;stroke:#523400;stroke-width:1.0629921;stroke-linecap:butt;stroke-linejoin:miter;stroke-miterlimit:5.80000019;stroke-dasharray:none;stroke-opacity:1"
           d="m 4921.8185,-1262.6072 -6.2354,1.3255 4.2654,4.7375 m -3.9867,-4.647 -8.1134,-2.6361 m 13.9566,12.9954 -0.6663,6.3401 5.8237,-2.5928 m -5.6514,2.3556 -5.0144,6.9016 m 16.6724,-9.2576 5.8236,2.5929 -0.6663,-6.3399 m 0.4941,6.1026 5.0143,6.9017 m -3.6524,-18.717 4.2655,-4.7375 -6.2356,-1.3254 m 5.9567,1.416 8.1135,-2.636 m -18.9298,-2.3104 -3.1874,-5.5207 -3.1874,5.5207 m 3.1874,-5.2274 v -8.5309"
           inkscape:connector-curvature="0" />
        <path
           inkscape:connector-curvature="0"
           d="m 4950.9957,-1243.0728 9.9458,-3.471 -6.006,-8.6542 m -5.636,-17.3464 -0.2278,-10.5315 -10.0866,3.0376 m -18.239,-2e-4 -10.0866,-3.0376 -0.2279,10.5315 m -5.6363,17.3462 -6.006,8.6541 9.9457,3.4713 m 14.7556,10.7207 6.3746,8.3863 6.3748,-8.3863"
           style="fill:none;stroke:#523400;stroke-width:1.0629921;stroke-linecap:butt;stroke-linejoin:miter;stroke-miterlimit:5.80000019;stroke-dasharray:none;stroke-opacity:1"
           id="path2561" />
        <path
           inkscape:connector-curvature="0"
           d="m 4901.7692,-1250.8836 c -1.64,-4.662 -1.8185,-9.8799 -0.1733,-14.943 1.6511,-5.0821 4.8807,-9.2104 8.9694,-12.0186 m 16.0939,49.7042 c -4.9407,0.1191 -9.9585,-1.3235 -14.2654,-4.4527 -4.3231,-3.1409 -7.2513,-7.4881 -8.6587,-12.2445 m 52.245,0.053 c -1.4136,4.7356 -4.3361,9.0621 -8.6432,12.1912 -4.3231,3.141 -9.3623,4.5825 -14.3207,4.4512 m 16.1952,-49.6713 c 4.0671,2.8077 7.2786,6.9241 8.9237,11.9873 1.6513,5.082 1.4651,10.3201 -0.192,14.9953 m -42.2358,-30.7518 c 3.9271,-3.0005 8.8345,-4.7827 14.1583,-4.7827 5.3436,0 10.2677,1.7957 14.202,4.8165"
           style="display:inline;opacity:1;fill:none;fill-opacity:1;fill-rule:evenodd;stroke:#523400;stroke-width:1.0629921;stroke-linecap:butt;stroke-linejoin:miter;stroke-miterlimit:5.80000019;stroke-dasharray:none;stroke-dashoffset:0;stroke-opacity:1"
           id="path2563" />
        <path
           inkscape:connector-curvature="0"
           d="m 4947.3371,-1312.7107 c 4.3071,-3.1292 7.2296,-7.4556 8.6432,-12.1913 l 4.9614,-1.7585 -2.9984,-4.2877 c 1.6571,-4.6752 1.8433,-9.9133 0.192,-14.9954 -1.6451,-5.0632 -4.8566,-9.1796 -8.9237,-11.9873 l -0.1397,-5.2621 -5.0041,1.5266 c -3.9343,-3.0207 -8.8584,-4.8164 -14.202,-4.8164 -5.3238,0 -10.2312,1.7822 -14.1583,4.7827 l -5.0478,-1.4931 -0.094,5.2309 c -4.0888,2.8083 -7.3184,6.9366 -8.9695,12.0187 -1.6452,5.0631 -1.4667,10.2811 0.1733,14.9431 l -2.9799,4.3393 4.9458,1.7064 c 1.4074,4.7564 4.3356,9.1036 8.6587,12.2444 4.3069,3.1293 9.3247,4.5718 14.2654,4.4528 l 3.206,4.175 3.151,-4.177 c 4.9584,0.1314 9.9976,-1.3102 14.3207,-4.4511 z"
           style="display:inline;opacity:1;fill:#ffcb2d;fill-opacity:1;fill-rule:evenodd;stroke:none;stroke-width:1.0629921;stroke-linecap:butt;stroke-linejoin:miter;stroke-miterlimit:5.80000019;stroke-dasharray:none;stroke-dashoffset:0;stroke-opacity:1"
           id="path2567"
           sodipodi:nodetypes="ccccccccsccccccccccccc" />
        <path
           inkscape:connector-curvature="0"
           id="path2569"
           d="m 4939.8889,-1336.7582 a 10.023339,10.023339 0 0 1 -10.0232,10.0233 10.023339,10.023339 0 0 1 -10.0234,-10.0233 10.023339,10.023339 0 0 1 10.0234,-10.0233 10.023339,10.023339 0 0 1 10.0232,10.0233 z"
           style="display:inline;opacity:1;fill:none;fill-opacity:1;fill-rule:evenodd;stroke:#523400;stroke-width:1.0629921;stroke-linecap:butt;stroke-linejoin:miter;stroke-miterlimit:5.80000019;stroke-dasharray:none;stroke-dashoffset:0;stroke-opacity:1" />
        <path
           inkscape:connector-curvature="0"
           d="m 4923.1202,-1344.2373 -5.67,-7.8531 c -0.6525,-0.8705 -1.4781,-1.4558 -2.3887,-1.7518 -2.7322,-0.8877 -5.147,0.7764 -6.0348,3.5086 -0.8878,2.7322 -0.5689,4.3766 -1.2282,6.4056 -0.6592,2.0289 -1.8836,3.1716 -2.7715,5.904 -0.8876,2.7322 0.088,5.4978 2.8202,6.3857 0.9106,0.2959 1.9225,0.3076 2.962,-0.014 l 9.203,-3.0205 m 0.656,2.018 -9.2208,2.9657 c -1.0297,0.3516 -1.8414,0.956 -2.4042,1.7305 -1.6886,2.324 -0.8521,5.1351 1.4719,6.8237 2.3242,1.6886 3.9867,1.8936 5.7125,3.1475 1.7259,1.2539 2.4344,2.7715 4.7587,4.4602 2.3241,1.6886 5.256,1.6154 6.9446,-0.7087 0.5627,-0.7745 0.8867,-1.7335 0.9028,-2.8213 l -0.029,-9.6858 m 2.1218,-5e-4 -0.028,9.6862 c 0.016,1.0878 0.34,2.0465 0.9028,2.8211 1.6885,2.3243 4.6204,2.3973 6.9445,0.7088 2.3243,-1.6887 3.0328,-3.2064 4.7587,-4.4603 1.7259,-1.2539 3.3882,-1.4588 5.7124,-3.1474 2.3243,-1.6887 3.1606,-4.4997 1.472,-6.8238 -0.5627,-0.7746 -1.3745,-1.3791 -2.404,-1.7304 l -9.2209,-2.9658 m 0.6554,-2.0181 9.2031,3.0205 c 1.0395,0.321 2.0516,0.309 2.962,0.014 2.7322,-0.8878 3.7078,-3.6535 2.8202,-6.3859 -0.8879,-2.7321 -2.1123,-3.875 -2.7715,-5.9039 -0.6593,-2.0289 -0.3403,-3.6731 -1.2281,-6.4054 -0.8879,-2.7323 -3.3028,-4.3963 -6.035,-3.5086 -0.9104,0.2958 -1.7362,0.8811 -2.3887,1.7517 l -5.6699,7.853 m -1.7168,-1.247 5.7165,-7.8193 c 0.6265,-0.8894 0.9281,-1.8557 0.9281,-2.813 -2e-4,-2.8728 -2.329,-4.6553 -5.202,-4.6553 -2.8728,0 -4.3381,0.8113 -6.4714,0.8113 -2.1333,0 -3.5986,-0.8113 -6.4714,-0.8113 -2.8729,0 -5.2019,1.7825 -5.202,4.6553 0,0.9573 0.3016,1.9236 0.928,2.813 l 5.7165,7.8193"
           style="display:inline;opacity:1;fill:none;fill-opacity:1;fill-rule:evenodd;stroke:#523400;stroke-width:1.0629921;stroke-linecap:butt;stroke-linejoin:miter;stroke-miterlimit:5.80000019;stroke-dasharray:none;stroke-dashoffset:0;stroke-opacity:1"
           id="path2571" />
        <path
           inkscape:connector-curvature="0"
           d="m 4921.8187,-1342.7242 -6.2354,1.3256 4.2654,4.7374 m -3.9867,-4.6469 -8.1134,-2.6362 m 13.9566,12.9955 -0.6663,6.34 5.8237,-2.5928 m -5.6514,2.3557 -5.0144,6.9016 m 16.6724,-9.2577 5.8236,2.5929 -0.6663,-6.3398 m 0.4941,6.1026 5.0143,6.9017 m -3.6524,-18.7171 4.2655,-4.7374 -6.2356,-1.3255 m 5.9567,1.4161 8.1135,-2.636 m -18.9298,-2.3105 -3.1874,-5.5207 -3.1874,5.5207 m 3.1874,-5.2274 v -8.5309"
           style="fill:none;stroke:#523400;stroke-width:1.0629921;stroke-linecap:butt;stroke-linejoin:miter;stroke-miterlimit:5.80000019;stroke-dasharray:none;stroke-opacity:1"
           id="path2573" />
        <path
           id="path2575"
           style="fill:none;stroke:#523400;stroke-width:1.0629921;stroke-linecap:butt;stroke-linejoin:miter;stroke-miterlimit:5.80000019;stroke-dasharray:none;stroke-opacity:1"
           d="m 4950.9959,-1323.1897 9.9458,-3.471 -6.006,-8.6543 m -5.636,-17.3464 -0.2278,-10.5316 -10.0866,3.0377 m -18.239,-2e-4 -10.0866,-3.0377 -0.2279,10.5316 m -5.6363,17.3462 -6.006,8.6542 9.9457,3.4712 m 14.7556,10.7208 6.3746,8.3863 6.3748,-8.3863"
           inkscape:connector-curvature="0" />
        <path
           id="path2577"
           style="display:inline;opacity:1;fill:none;fill-opacity:1;fill-rule:evenodd;stroke:#523400;stroke-width:1.0629921;stroke-linecap:butt;stroke-linejoin:miter;stroke-miterlimit:5.80000019;stroke-dasharray:none;stroke-dashoffset:0;stroke-opacity:1"
           d="m 4901.7694,-1331.0005 c -1.64,-4.662 -1.8185,-9.88 -0.1733,-14.9431 1.6511,-5.0821 4.8807,-9.2104 8.9694,-12.0187 m 16.0939,49.7044 c -4.9407,0.119 -9.9585,-1.3235 -14.2654,-4.4527 -4.3231,-3.1409 -7.2513,-7.4881 -8.6587,-12.2445 m 52.245,0.053 c -1.4136,4.7357 -4.3361,9.0621 -8.6432,12.1913 -4.3231,3.1409 -9.3623,4.5825 -14.3207,4.4511 m 16.1952,-49.6713 c 4.0671,2.8077 7.2786,6.9241 8.9237,11.9873 1.6513,5.0821 1.4651,10.3202 -0.192,14.9954 m -42.2358,-30.7519 c 3.9271,-3.0005 8.8345,-4.7827 14.1583,-4.7827 5.3436,0 10.2677,1.7957 14.202,4.8165"
           inkscape:connector-curvature="0" />
        <path
           sodipodi:nodetypes="ccccccccsccccccccccccc"
           id="path2581"
           style="display:inline;opacity:1;fill:#ffcb2d;fill-opacity:1;fill-rule:evenodd;stroke:none;stroke-width:1.0629921;stroke-linecap:butt;stroke-linejoin:miter;stroke-miterlimit:5.80000019;stroke-dasharray:none;stroke-dashoffset:0;stroke-opacity:1"
           d="m 4947.3373,-1392.8278 c 4.3071,-3.1291 7.2296,-7.4555 8.6432,-12.1912 l 4.9614,-1.7585 -2.9984,-4.2878 c 1.6571,-4.6752 1.8433,-9.9132 0.192,-14.9953 -1.6451,-5.0632 -4.8566,-9.1796 -8.9237,-11.9874 l -0.1397,-5.262 -5.0041,1.5266 c -3.9343,-3.0207 -8.8584,-4.8165 -14.202,-4.8165 -5.3238,0 -10.2312,1.7823 -14.1583,4.7828 l -5.0478,-1.4931 -0.094,5.2309 c -4.0888,2.8083 -7.3184,6.9366 -8.9695,12.0187 -1.6452,5.0631 -1.4667,10.2811 0.1733,14.9431 l -2.9799,4.3392 4.9458,1.7065 c 1.4074,4.7564 4.3356,9.1035 8.6587,12.2444 4.3069,3.1292 9.3247,4.5718 14.2654,4.4527 l 3.206,4.175 3.151,-4.1769 c 4.9584,0.1314 9.9976,-1.3102 14.3207,-4.4512 z"
           inkscape:connector-curvature="0" />
        <path
           style="display:inline;opacity:1;fill:none;fill-opacity:1;fill-rule:evenodd;stroke:#523400;stroke-width:1.0629921;stroke-linecap:butt;stroke-linejoin:miter;stroke-miterlimit:5.80000019;stroke-dasharray:none;stroke-dashoffset:0;stroke-opacity:1"
           d="m 4939.8891,-1416.8753 a 10.023339,10.023339 0 0 1 -10.0232,10.0234 10.023339,10.023339 0 0 1 -10.0234,-10.0234 10.023339,10.023339 0 0 1 10.0234,-10.0233 10.023339,10.023339 0 0 1 10.0232,10.0233 z"
           id="path2583"
           inkscape:connector-curvature="0" />
        <path
           id="path2585"
           style="display:inline;opacity:1;fill:none;fill-opacity:1;fill-rule:evenodd;stroke:#523400;stroke-width:1.0629921;stroke-linecap:butt;stroke-linejoin:miter;stroke-miterlimit:5.80000019;stroke-dasharray:none;stroke-dashoffset:0;stroke-opacity:1"
           d="m 4923.1204,-1424.3543 -5.67,-7.8532 c -0.6525,-0.8704 -1.4781,-1.4557 -2.3887,-1.7517 -2.7322,-0.8877 -5.147,0.7763 -6.0348,3.5086 -0.8878,2.7322 -0.5689,4.3766 -1.2282,6.4056 -0.6592,2.0288 -1.8836,3.1715 -2.7715,5.904 -0.8876,2.7322 0.088,5.4978 2.8202,6.3857 0.9106,0.2959 1.9225,0.3076 2.962,-0.014 l 9.203,-3.0205 m 0.656,2.018 -9.2208,2.9657 c -1.0297,0.3516 -1.8414,0.956 -2.4042,1.7304 -1.6886,2.3241 -0.8521,5.1352 1.4719,6.8238 2.3242,1.6886 3.9867,1.8936 5.7125,3.1474 1.7259,1.254 2.4344,2.7716 4.7587,4.4603 2.3241,1.6886 5.256,1.6153 6.9446,-0.7087 0.5627,-0.7746 0.8867,-1.7335 0.9028,-2.8214 l -0.029,-9.6858 m 2.1218,-5e-4 -0.028,9.6862 c 0.016,1.0879 0.34,2.0465 0.9028,2.8212 1.6885,2.3242 4.6204,2.3973 6.9445,0.7088 2.3243,-1.6887 3.0328,-3.2064 4.7587,-4.4604 1.7259,-1.2538 3.3882,-1.4588 5.7124,-3.1473 2.3243,-1.6887 3.1606,-4.4997 1.472,-6.8238 -0.5627,-0.7746 -1.3745,-1.3791 -2.404,-1.7304 l -9.2209,-2.9658 m 0.6554,-2.0181 9.2031,3.0205 c 1.0395,0.321 2.0516,0.309 2.962,0.014 2.7322,-0.8878 3.7078,-3.6535 2.8202,-6.3859 -0.8879,-2.7321 -2.1123,-3.875 -2.7715,-5.9039 -0.6593,-2.0289 -0.3403,-3.6731 -1.2281,-6.4054 -0.8879,-2.7324 -3.3028,-4.3963 -6.035,-3.5087 -0.9104,0.2959 -1.7362,0.8811 -2.3887,1.7517 l -5.6699,7.8531 m -1.7168,-1.247 5.7165,-7.8193 c 0.6265,-0.8894 0.9281,-1.8557 0.9281,-2.813 -2e-4,-2.8728 -2.329,-4.6554 -5.202,-4.6554 -2.8728,0 -4.3381,0.8114 -6.4714,0.8114 -2.1333,0 -3.5986,-0.8114 -6.4714,-0.8114 -2.8729,0 -5.2019,1.7826 -5.202,4.6554 0,0.9573 0.3016,1.9236 0.928,2.813 l 5.7165,7.8193"
           inkscape:connector-curvature="0" />
        <path
           id="path2587"
           style="fill:none;stroke:#523400;stroke-width:1.0629921;stroke-linecap:butt;stroke-linejoin:miter;stroke-miterlimit:5.80000019;stroke-dasharray:none;stroke-opacity:1"
           d="m 4921.8189,-1422.8412 -6.2354,1.3256 4.2654,4.7374 m -3.9867,-4.6469 -8.1134,-2.6362 m 13.9566,12.9954 -0.6663,6.3401 5.8237,-2.5928 m -5.6514,2.3556 -5.0144,6.9017 m 16.6724,-9.2577 5.8236,2.5929 -0.6663,-6.3399 m 0.4941,6.1027 5.0143,6.9017 m -3.6524,-18.7171 4.2655,-4.7374 -6.2356,-1.3255 m 5.9567,1.4161 8.1135,-2.6361 m -18.9298,-2.3104 -3.1874,-5.5207 -3.1874,5.5207 m 3.1874,-5.2274 v -8.531"
           inkscape:connector-curvature="0" />
        <path
           inkscape:connector-curvature="0"
           d="m 4950.9961,-1403.3067 9.9458,-3.4711 -6.006,-8.6542 m -5.636,-17.3464 -0.2278,-10.5316 -10.0866,3.0377 m -18.239,-2e-4 -10.0866,-3.0377 -0.2279,10.5316 m -5.6363,17.3462 -6.006,8.6541 9.9457,3.4713 m 14.7556,10.7208 6.3746,8.3862 6.3748,-8.3862"
           style="fill:none;stroke:#523400;stroke-width:1.0629921;stroke-linecap:butt;stroke-linejoin:miter;stroke-miterlimit:5.80000019;stroke-dasharray:none;stroke-opacity:1"
           id="path2589" />
        <path
           inkscape:connector-curvature="0"
           d="m 4901.7696,-1411.1175 c -1.64,-4.662 -1.8185,-9.88 -0.1733,-14.9431 1.6511,-5.0821 4.8807,-9.2104 8.9694,-12.0187 m 16.0939,49.7044 c -4.9407,0.119 -9.9585,-1.3235 -14.2654,-4.4528 -4.3231,-3.1409 -7.2513,-7.488 -8.6587,-12.2444 m 52.245,0.053 c -1.4136,4.7357 -4.3361,9.0621 -8.6432,12.1912 -4.3231,3.141 -9.3623,4.5826 -14.3207,4.4512 m 16.1952,-49.6714 c 4.0671,2.8078 7.2786,6.9242 8.9237,11.9874 1.6513,5.0821 1.4651,10.3201 -0.192,14.9953 m -42.2358,-30.7518 c 3.9271,-3.0005 8.8345,-4.7828 14.1583,-4.7828 5.3436,0 10.2677,1.7958 14.202,4.8165"
           style="display:inline;opacity:1;fill:none;fill-opacity:1;fill-rule:evenodd;stroke:#523400;stroke-width:1.0629921;stroke-linecap:butt;stroke-linejoin:miter;stroke-miterlimit:5.80000019;stroke-dasharray:none;stroke-dashoffset:0;stroke-opacity:1"
           id="path2591" />
      </g>
    </g>
  </g>
</svg>
