<?xml version="1.0" encoding="UTF-8" standalone="no"?>
<!-- Created with Inkscape (http://www.inkscape.org/) -->

<svg
   xmlns:dc="http://purl.org/dc/elements/1.1/"
   xmlns:cc="http://creativecommons.org/ns#"
   xmlns:rdf="http://www.w3.org/1999/02/22-rdf-syntax-ns#"
   xmlns:svg="http://www.w3.org/2000/svg"
   xmlns="http://www.w3.org/2000/svg"
   xmlns:sodipodi="http://sodipodi.sourceforge.net/DTD/sodipodi-0.dtd"
   xmlns:inkscape="http://www.inkscape.org/namespaces/inkscape"
   width="29.999941mm"
   height="90mm"
   viewBox="0 0 29.99994 90"
   version="1.1"
   id="svg8"
   inkscape:version="0.92.2 (5c3e80d, 2017-08-06)"
   sodipodi:docname="FDF_M05_OF2_kapteeni.svg">
  <defs
     id="defs2">
    <pattern
       y="0"
       x="0"
       height="6"
       width="6"
       patternUnits="userSpaceOnUse"
       id="EMFhbasepattern" />
    <pattern
       y="0"
       x="0"
       height="6"
       width="6"
       patternUnits="userSpaceOnUse"
       id="EMFhbasepattern-7" />
  </defs>
  <sodipodi:namedview
     id="base"
     pagecolor="#ffffff"
     bordercolor="#666666"
     borderopacity="1.0"
     inkscape:pageopacity="0.0"
     inkscape:pageshadow="2"
     inkscape:zoom="1.979899"
     inkscape:cx="57.506613"
     inkscape:cy="185.14841"
     inkscape:document-units="mm"
     inkscape:current-layer="layer1"
     showgrid="false"
     fit-margin-top="0"
     fit-margin-left="0"
     fit-margin-right="0"
     fit-margin-bottom="0"
     inkscape:window-width="3840"
     inkscape:window-height="2066"
     inkscape:window-x="-11"
     inkscape:window-y="-11"
     inkscape:window-maximized="1" />
  <metadata
     id="metadata5">
    <rdf:RDF>
      <cc:Work
         rdf:about="">
        <dc:format>image/svg+xml</dc:format>
        <dc:type
           rdf:resource="http://purl.org/dc/dcmitype/StillImage" />
        <dc:title />
      </cc:Work>
    </rdf:RDF>
  </metadata>
  <g
     inkscape:label="Taso 1"
     inkscape:groupmode="layer"
     id="layer1"
     transform="translate(-78.53753,-89.17376)"
     style="display:inline">
    <g
       id="g1453">
      <path
         inkscape:connector-curvature="0"
         id="path13153"
         d="m 78.53753,89.17376 h 29.99994 v 90 H 78.53753 Z"
         style="display:inline;opacity:1;fill:#3d4321;fill-opacity:1;fill-rule:evenodd;stroke:none;stroke-width:1.9336518;stroke-linecap:round;stroke-linejoin:miter;stroke-miterlimit:4;stroke-dasharray:none;stroke-dashoffset:0;stroke-opacity:1" />
      <g
         transform="matrix(0.28222223,0,0,0.28222223,-967.46916,510.97115)"
         id="g4226"
         style="display:inline">
        <path
           inkscape:connector-curvature="0"
           d="m 3774.2762,-1246.115 c 3.9482,-2.8685 6.6502,-6.8146 7.9959,-11.142 l 2.5626,-1.0683 -1.4804,-2.2623 c 1.4462,-4.2845 1.5758,-9.0544 0.071,-13.6856 -1.508,-4.6413 -4.4261,-8.4305 -8.1259,-11.0476 l -0.1522,-2.8206 -2.6811,0.7618 c -3.6281,-2.6991 -8.1245,-4.2964 -12.994,-4.2964 -4.8803,0 -9.3858,1.6043 -13.018,4.3142 l -2.657,-0.7798 -0.176,2.8373 c -3.6883,2.6165 -6.5967,6.3992 -8.1016,11.0305 -1.5085,4.6412 -1.3749,9.4219 0.08,13.7138 l -1.4902,2.2338 2.5725,1.0974 c 1.3487,4.3163 4.0476,8.2514 7.987,11.1137 3.9482,2.8684 8.5361,4.2188 13.0675,4.1613 l 1.7356,2.0553 1.7666,-2.0547 c 4.5217,0.052 9.0982,-1.2997 13.0377,-4.1618 z"
           style="display:inline;opacity:1;fill:#ffcb2d;fill-opacity:1;fill-rule:evenodd;stroke:none;stroke-width:1.0629921;stroke-linecap:butt;stroke-linejoin:miter;stroke-miterlimit:5.80000019;stroke-dasharray:none;stroke-dashoffset:0;stroke-opacity:1"
           id="path2451"
           sodipodi:nodetypes="ccccccccscccccccccccc" />
        <path
           style="display:inline;opacity:1;fill:none;fill-opacity:1;fill-rule:evenodd;stroke:#523400;stroke-width:1.0629921;stroke-linecap:butt;stroke-linejoin:miter;stroke-miterlimit:5.80000019;stroke-dasharray:none;stroke-dashoffset:0;stroke-opacity:1"
           d="m 3768.128,-1266.4912 a 8.6560172,8.6560172 0 0 1 -8.6559,8.656 8.6560172,8.6560172 0 0 1 -8.6561,-8.656 8.6560172,8.6560172 0 0 1 8.6561,-8.6559 8.6560172,8.6560172 0 0 1 8.6559,8.6559 z"
           id="path2453"
           inkscape:connector-curvature="0" />
        <path
           id="path2455"
           style="display:inline;opacity:1;fill:none;fill-opacity:1;fill-rule:evenodd;stroke:#523400;stroke-width:1.0629921;stroke-linecap:butt;stroke-linejoin:miter;stroke-miterlimit:5.80000019;stroke-dasharray:none;stroke-dashoffset:0;stroke-opacity:1"
           d="m 3753.6467,-1272.9499 -4.8965,-6.7819 c -0.5635,-0.7517 -1.2766,-1.2572 -2.0628,-1.5128 -2.3595,-0.7667 -4.4449,0.6705 -5.2117,3.03 -0.7666,2.3595 -0.4912,3.7796 -1.0606,5.5317 -0.5693,1.7521 -1.6266,2.739 -2.3934,5.0986 -0.7666,2.3596 0.076,4.7478 2.4355,5.5146 0.7863,0.2555 1.6602,0.2656 2.5579,-0.012 l 7.9476,-2.6084 m 0.5665,1.7427 -7.963,2.5611 c -0.8891,0.3037 -1.5901,0.8257 -2.0762,1.4945 -1.4582,2.007 -0.7359,4.4345 1.2712,5.8929 2.0071,1.4582 3.4428,1.6352 4.9332,2.718 1.4904,1.0829 2.1023,2.3935 4.1095,3.8519 2.0071,1.4582 4.539,1.3949 5.9973,-0.6121 0.4859,-0.6689 0.7657,-1.497 0.7797,-2.4364 l -0.025,-8.3646 m 1.8324,-3e-4 -0.024,8.3647 c 0.014,0.9394 0.2938,1.7674 0.7797,2.4364 1.4582,2.0071 3.9901,2.0702 5.9972,0.6121 2.0072,-1.4584 2.6191,-2.7691 4.1095,-3.8519 1.4905,-1.0828 2.926,-1.2598 4.9332,-2.718 2.0072,-1.4584 2.7294,-3.8859 1.2712,-5.893 -0.486,-0.6689 -1.187,-1.1909 -2.0761,-1.4944 l -7.963,-2.5611 m 0.566,-1.7428 7.9476,2.6085 c 0.8977,0.2771 1.7717,0.2668 2.558,0.012 2.3595,-0.7667 3.202,-3.155 2.4354,-5.5146 -0.7667,-2.3595 -1.8241,-3.3465 -2.3934,-5.0986 -0.5693,-1.7521 -0.2939,-3.172 -1.0605,-5.5316 -0.7668,-2.3595 -2.8523,-3.7966 -5.2118,-3.03 -0.7862,0.2554 -1.4993,0.7609 -2.0628,1.5127 l -4.8965,6.7818 m -1.4826,-1.0769 4.9368,-6.7526 c 0.541,-0.7681 0.8014,-1.6026 0.8014,-2.4293 -1e-4,-2.4809 -2.0114,-4.0203 -4.4924,-4.0203 -2.4809,0 -3.7463,0.7007 -5.5885,0.7007 -1.8423,0 -3.1078,-0.7007 -5.5887,-0.7007 -2.481,0 -4.4922,1.5394 -4.4923,4.0203 0,0.8267 0.2604,1.6612 0.8013,2.4293 l 4.9368,6.7526"
           inkscape:connector-curvature="0" />
        <path
           id="path2457"
           style="fill:none;stroke:#523400;stroke-width:1.0629921;stroke-linecap:butt;stroke-linejoin:miter;stroke-miterlimit:5.80000019;stroke-dasharray:none;stroke-opacity:1"
           d="m 3752.5228,-1271.6432 -5.3849,1.1447 3.6837,4.0912 m -3.4429,-4.013 -7.0067,-2.2766 m 12.0528,11.2227 -0.5754,5.475 5.0292,-2.239 m -4.8805,2.0343 -4.3303,5.9601 m 14.3981,-7.9947 5.0291,2.2392 -0.5753,-5.4751 m 0.4266,5.2702 4.3303,5.9602 m -3.1543,-16.1638 3.6838,-4.0911 -5.385,-1.1447 m 5.1442,1.2229 7.0066,-2.2765 m -16.3474,-1.9951 -2.7526,-4.7677 -2.7527,4.7677 m 2.7527,-4.5144 v -7.3672"
           inkscape:connector-curvature="0" />
        <path
           id="path2459"
           style="fill:none;stroke:#523400;stroke-width:1.0629921;stroke-linecap:butt;stroke-linejoin:miter;stroke-miterlimit:5.80000019;stroke-dasharray:none;stroke-opacity:1"
           d="m 3750.7525,-1285.9236 -6.9553,-2.218 -0.1116,7.3524 m -5.3894,16.5859 -4.1869,5.8771 6.8862,2.4305 m 14.1087,10.2509 4.3677,5.7458 4.3676,-5.7458 m 14.1089,-10.2505 6.8863,-2.4305 -4.187,-5.8772 m -5.3888,-16.5859 -0.1116,-7.3525 -6.9554,2.218"
           inkscape:connector-curvature="0"
           sodipodi:nodetypes="ccccccccccccccc" />
        <path
           id="path2461"
           style="display:inline;opacity:1;fill:none;fill-opacity:1;fill-rule:evenodd;stroke:#523400;stroke-width:1.0629921;stroke-linecap:butt;stroke-linejoin:miter;stroke-miterlimit:5.80000019;stroke-dasharray:none;stroke-dashoffset:0;stroke-opacity:1"
           d="m 3735.5995,-1260.56 c -1.4548,-4.2919 -1.5884,-9.0726 -0.08,-13.7138 1.5049,-4.6313 4.4133,-8.414 8.1016,-11.0305 m 14.1151,43.3501 c -4.5314,0.057 -9.1193,-1.293 -13.0675,-4.1614 -3.9394,-2.8623 -6.6383,-6.7974 -7.987,-11.1137 m 45.5903,-0.028 c -1.3457,4.3275 -4.0477,8.2735 -7.9959,11.142 -3.9395,2.8622 -8.516,4.213 -13.0377,4.1618 m 14.061,-43.3676 c 3.6998,2.6171 6.6179,6.4063 8.1259,11.0476 1.5047,4.6312 1.3751,9.4011 -0.071,13.6856 m -36.9001,-26.7742 c 3.6322,-2.7099 8.1377,-4.3142 13.018,-4.3142 4.8695,0 9.3659,1.5973 12.994,4.2964"
           inkscape:connector-curvature="0" />
        <path
           sodipodi:nodetypes="ccccccccscccccccccccc"
           id="path2467"
           style="display:inline;opacity:1;fill:#ffcb2d;fill-opacity:1;fill-rule:evenodd;stroke:none;stroke-width:1.0629921;stroke-linecap:butt;stroke-linejoin:miter;stroke-miterlimit:5.80000019;stroke-dasharray:none;stroke-dashoffset:0;stroke-opacity:1"
           d="m 3774.2765,-1315.6096 c 3.9482,-2.8684 6.6502,-6.8145 7.9959,-11.142 l 2.5626,-1.0683 -1.4804,-2.2622 c 1.4462,-4.2847 1.5758,-9.0545 0.071,-13.6858 -1.508,-4.6412 -4.4261,-8.4305 -8.1259,-11.0476 l -0.1522,-2.8205 -2.6811,0.7618 c -3.6281,-2.6991 -8.1245,-4.2964 -12.9941,-4.2964 -4.8802,0 -9.3857,1.6043 -13.0179,4.3142 l -2.657,-0.7798 -0.176,2.8373 c -3.6883,2.6165 -6.5967,6.3992 -8.1016,11.0304 -1.5085,4.6413 -1.3749,9.422 0.08,13.7139 l -1.4901,2.2339 2.5725,1.0974 c 1.3487,4.3163 4.0476,8.2513 7.987,11.1136 3.9482,2.8685 8.5361,4.2189 13.0675,4.1614 l 1.7356,2.0553 1.7666,-2.0547 c 4.5217,0.052 9.0982,-1.2997 13.0377,-4.1619 z"
           inkscape:connector-curvature="0" />
        <path
           inkscape:connector-curvature="0"
           id="path2469"
           d="m 3768.1283,-1335.9858 a 8.6560172,8.6560172 0 0 1 -8.656,8.656 8.6560172,8.6560172 0 0 1 -8.656,-8.656 8.6560172,8.6560172 0 0 1 8.656,-8.6559 8.6560172,8.6560172 0 0 1 8.656,8.6559 z"
           style="display:inline;opacity:1;fill:none;fill-opacity:1;fill-rule:evenodd;stroke:#523400;stroke-width:1.0629921;stroke-linecap:butt;stroke-linejoin:miter;stroke-miterlimit:5.80000019;stroke-dasharray:none;stroke-dashoffset:0;stroke-opacity:1" />
        <path
           inkscape:connector-curvature="0"
           d="m 3753.647,-1342.4445 -4.8965,-6.7819 c -0.5635,-0.7518 -1.2766,-1.2572 -2.0628,-1.5128 -2.3595,-0.7667 -4.4449,0.6704 -5.2117,3.0299 -0.7666,2.3595 -0.4912,3.7796 -1.0606,5.5318 -0.5693,1.7521 -1.6266,2.739 -2.3934,5.0986 -0.7666,2.3596 0.076,4.7479 2.4355,5.5147 0.7863,0.2554 1.6602,0.2656 2.5579,-0.012 l 7.9476,-2.6085 m 0.5665,1.7427 -7.963,2.5612 c -0.8891,0.3037 -1.5901,0.8256 -2.0762,1.4944 -1.4583,2.0071 -0.7359,4.4346 1.2712,5.8929 2.0071,1.4582 3.4428,1.6352 4.9332,2.7181 1.4904,1.0829 2.1023,2.3935 4.1094,3.8518 2.0072,1.4583 4.5391,1.395 5.9974,-0.6121 0.4859,-0.6688 0.7657,-1.4969 0.7797,-2.4363 l -0.025,-8.3647 m 1.8324,-3e-4 -0.024,8.3648 c 0.014,0.9394 0.2938,1.7674 0.7797,2.4364 1.4582,2.0071 3.9901,2.0702 5.9972,0.612 2.0072,-1.4583 2.6191,-2.769 4.1095,-3.8518 1.4905,-1.0829 2.926,-1.2599 4.9332,-2.718 2.0072,-1.4584 2.7294,-3.8859 1.2712,-5.8931 -0.486,-0.6688 -1.187,-1.1908 -2.0761,-1.4943 l -7.963,-2.5611 m 0.566,-1.7429 7.9476,2.6085 c 0.8977,0.2772 1.7717,0.2669 2.558,0.012 2.3595,-0.7667 3.202,-3.1551 2.4354,-5.5147 -0.7667,-2.3595 -1.8241,-3.3465 -2.3934,-5.0986 -0.5693,-1.7522 -0.2939,-3.1721 -1.0605,-5.5317 -0.7668,-2.3595 -2.8523,-3.7965 -5.2118,-3.0299 -0.7862,0.2554 -1.4994,0.7608 -2.0628,1.5127 l -4.8965,6.7818 m -1.4826,-1.0769 4.9368,-6.7526 c 0.5409,-0.7681 0.8013,-1.6026 0.8013,-2.4293 -1e-4,-2.481 -2.0113,-4.0203 -4.4923,-4.0203 -2.4809,0 -3.7463,0.7006 -5.5885,0.7006 -1.8424,0 -3.1078,-0.7006 -5.5887,-0.7006 -2.481,0 -4.4922,1.5393 -4.4923,4.0203 0,0.8267 0.2604,1.6612 0.8013,2.4293 l 4.9368,6.7526"
           style="display:inline;opacity:1;fill:none;fill-opacity:1;fill-rule:evenodd;stroke:#523400;stroke-width:1.0629921;stroke-linecap:butt;stroke-linejoin:miter;stroke-miterlimit:5.80000019;stroke-dasharray:none;stroke-dashoffset:0;stroke-opacity:1"
           id="path2471" />
        <path
           inkscape:connector-curvature="0"
           d="m 3752.5231,-1341.1378 -5.3849,1.1447 3.6837,4.0912 m -3.4429,-4.013 -7.0067,-2.2766 m 12.0528,11.2227 -0.5755,5.4751 5.0293,-2.2391 m -4.8805,2.0343 -4.3303,5.9602 m 14.398,-7.9948 5.0292,2.2392 -0.5753,-5.4751 m 0.4266,5.2703 4.3303,5.9602 m -3.1543,-16.1639 3.6838,-4.0911 -5.385,-1.1447 m 5.1441,1.2229 7.0067,-2.2765 m -16.3475,-1.9952 -2.7525,-4.7676 -2.7527,4.7676 m 2.7527,-4.5143 v -7.3673"
           style="fill:none;stroke:#523400;stroke-width:1.0629921;stroke-linecap:butt;stroke-linejoin:miter;stroke-miterlimit:5.80000019;stroke-dasharray:none;stroke-opacity:1"
           id="path2473" />
        <path
           sodipodi:nodetypes="ccccccccccccccc"
           inkscape:connector-curvature="0"
           d="m 3750.7528,-1355.4182 -6.9553,-2.218 -0.1116,7.3524 m -5.3894,16.5859 -4.1869,5.8772 6.8862,2.4305 m 14.1087,10.2509 4.3677,5.7458 4.3676,-5.7458 m 14.1089,-10.2505 6.8863,-2.4306 -4.187,-5.8772 m -5.3888,-16.5859 -0.1116,-7.3525 -6.9554,2.218"
           style="fill:none;stroke:#523400;stroke-width:1.0629921;stroke-linecap:butt;stroke-linejoin:miter;stroke-miterlimit:5.80000019;stroke-dasharray:none;stroke-opacity:1"
           id="path2475" />
        <path
           inkscape:connector-curvature="0"
           d="m 3735.5997,-1330.0546 c -1.4547,-4.2919 -1.5883,-9.0726 -0.08,-13.7139 1.5049,-4.6312 4.4133,-8.4139 8.1016,-11.0304 m 14.1151,43.3501 c -4.5314,0.057 -9.1193,-1.2929 -13.0675,-4.1614 -3.9394,-2.8622 -6.6383,-6.7973 -7.987,-11.1136 m 45.5903,-0.028 c -1.3457,4.3275 -4.0477,8.2736 -7.9959,11.142 -3.9395,2.8622 -8.516,4.2131 -13.0377,4.1619 m 14.061,-43.3677 c 3.6998,2.617 6.6179,6.4063 8.1259,11.0475 1.5047,4.6313 1.3751,9.4011 -0.071,13.6858 m -36.9001,-26.7743 c 3.6322,-2.7099 8.1377,-4.3142 13.0179,-4.3142 4.8696,0 9.366,1.5973 12.9941,4.2964"
           style="display:inline;opacity:1;fill:none;fill-opacity:1;fill-rule:evenodd;stroke:#523400;stroke-width:1.0629921;stroke-linecap:butt;stroke-linejoin:miter;stroke-miterlimit:5.80000019;stroke-dasharray:none;stroke-dashoffset:0;stroke-opacity:1"
           id="path2477" />
        <path
           inkscape:connector-curvature="0"
           d="m 3774.2768,-1385.1042 c 3.9482,-2.8684 6.6502,-6.8145 7.9959,-11.142 l 2.5626,-1.0683 -1.4804,-2.2623 c 1.4462,-4.2846 1.5757,-9.0545 0.071,-13.6857 -1.5081,-4.6413 -4.4261,-8.4305 -8.1259,-11.0476 l -0.1522,-2.8206 -2.6811,0.7618 c -3.6281,-2.6991 -8.1245,-4.2964 -12.9941,-4.2964 -4.8802,0 -9.3857,1.6044 -13.0179,4.3143 l -2.657,-0.7799 -0.176,2.8374 c -3.6883,2.6165 -6.5967,6.3992 -8.1016,11.0304 -1.5085,4.6413 -1.3749,9.422 0.08,13.7139 l -1.4901,2.2338 2.5725,1.0975 c 1.3486,4.3162 4.0476,8.2513 7.987,11.1136 3.9481,2.8684 8.5361,4.2189 13.0675,4.1614 l 1.7355,2.0552 1.7667,-2.0546 c 4.5217,0.052 9.0982,-1.2997 13.0377,-4.1619 z"
           style="display:inline;opacity:1;fill:#ffcb2d;fill-opacity:1;fill-rule:evenodd;stroke:none;stroke-width:1.0629921;stroke-linecap:butt;stroke-linejoin:miter;stroke-miterlimit:5.80000019;stroke-dasharray:none;stroke-dashoffset:0;stroke-opacity:1"
           id="path11477"
           sodipodi:nodetypes="ccccccccscccccccccccc" />
        <path
           style="display:inline;opacity:1;fill:none;fill-opacity:1;fill-rule:evenodd;stroke:#523400;stroke-width:1.0629921;stroke-linecap:butt;stroke-linejoin:miter;stroke-miterlimit:5.80000019;stroke-dasharray:none;stroke-dashoffset:0;stroke-opacity:1"
           d="m 3768.1286,-1405.4804 a 8.6560172,8.6560172 0 0 1 -8.656,8.656 8.6560172,8.6560172 0 0 1 -8.656,-8.656 8.6560172,8.6560172 0 0 1 8.656,-8.6559 8.6560172,8.6560172 0 0 1 8.656,8.6559 z"
           id="path11479"
           inkscape:connector-curvature="0" />
        <path
           id="path11481"
           style="display:inline;opacity:1;fill:none;fill-opacity:1;fill-rule:evenodd;stroke:#523400;stroke-width:1.0629921;stroke-linecap:butt;stroke-linejoin:miter;stroke-miterlimit:5.80000019;stroke-dasharray:none;stroke-dashoffset:0;stroke-opacity:1"
           d="m 3753.6473,-1411.9391 -4.8965,-6.7819 c -0.5636,-0.7518 -1.2766,-1.2572 -2.0628,-1.5128 -2.3595,-0.7667 -4.4449,0.6704 -5.2117,3.0299 -0.7666,2.3595 -0.4912,3.7796 -1.0606,5.5318 -0.5693,1.7521 -1.6266,2.7389 -2.3934,5.0985 -0.7666,2.3596 0.076,4.748 2.4355,5.5148 0.7862,0.2554 1.6602,0.2655 2.5579,-0.012 l 7.9476,-2.6085 m 0.5665,1.7427 -7.963,2.5612 c -0.8891,0.3036 -1.5902,0.8256 -2.0762,1.4944 -1.4583,2.007 -0.7359,4.4345 1.2711,5.8929 2.0072,1.4582 3.4429,1.6352 4.9333,2.718 1.4904,1.0829 2.1023,2.3935 4.1094,3.8519 2.0072,1.4583 4.5391,1.395 5.9974,-0.6121 0.4859,-0.6689 0.7657,-1.4969 0.7796,-2.4363 l -0.025,-8.3647 m 1.8324,-3e-4 -0.024,8.3648 c 0.014,0.9394 0.2937,1.7673 0.7797,2.4363 1.4582,2.0072 3.9901,2.0703 5.9972,0.6121 2.0072,-1.4584 2.6191,-2.769 4.1095,-3.8519 1.4905,-1.0828 2.926,-1.2598 4.9332,-2.718 2.0072,-1.4583 2.7294,-3.8859 1.2712,-5.893 -0.486,-0.6689 -1.187,-1.1908 -2.0762,-1.4943 l -7.9629,-2.5612 m 0.566,-1.7428 7.9476,2.6085 c 0.8977,0.2772 1.7717,0.2668 2.558,0.012 2.3595,-0.7667 3.202,-3.1551 2.4354,-5.5147 -0.7667,-2.3596 -1.8241,-3.3465 -2.3934,-5.0986 -0.5693,-1.7522 -0.2939,-3.1721 -1.0605,-5.5317 -0.7668,-2.3595 -2.8523,-3.7965 -5.2118,-3.0299 -0.7863,0.2554 -1.4994,0.7608 -2.0628,1.5127 l -4.8965,6.7818 m -1.4826,-1.0769 4.9368,-6.7527 c 0.5409,-0.768 0.8013,-1.6025 0.8013,-2.4292 -1e-4,-2.481 -2.0113,-4.0203 -4.4923,-4.0203 -2.4809,0 -3.7463,0.7006 -5.5886,0.7006 -1.8423,0 -3.1077,-0.7006 -5.5886,-0.7006 -2.481,0 -4.4923,1.5393 -4.4923,4.0203 0,0.8267 0.2604,1.6612 0.8013,2.4292 l 4.9368,6.7527"
           inkscape:connector-curvature="0" />
        <path
           id="path11483"
           style="fill:none;stroke:#523400;stroke-width:1.0629921;stroke-linecap:butt;stroke-linejoin:miter;stroke-miterlimit:5.80000019;stroke-dasharray:none;stroke-opacity:1"
           d="m 3752.5234,-1410.6325 -5.3849,1.1447 3.6837,4.0913 m -3.443,-4.013 -7.0066,-2.2766 m 12.0528,11.2227 -0.5755,5.4751 5.0293,-2.2391 m -4.8805,2.0343 -4.3303,5.9602 m 14.398,-7.9948 5.0292,2.2392 -0.5753,-5.4751 m 0.4266,5.2702 4.3303,5.9603 m -3.1543,-16.1639 3.6838,-4.0912 -5.385,-1.1446 m 5.1441,1.2229 7.0067,-2.2765 m -16.3475,-1.9952 -2.7526,-4.7676 -2.7526,4.7676 m 2.7526,-4.5143 v -7.3673"
           inkscape:connector-curvature="0" />
        <path
           id="path11485"
           style="fill:none;stroke:#523400;stroke-width:1.0629921;stroke-linecap:butt;stroke-linejoin:miter;stroke-miterlimit:5.80000019;stroke-dasharray:none;stroke-opacity:1"
           d="m 3750.7531,-1424.9128 -6.9553,-2.2181 -0.1116,7.3525 m -5.3894,16.5859 -4.1869,5.8771 6.8862,2.4306 m 14.1087,10.2508 4.3676,5.7459 4.3677,-5.7459 m 14.1089,-10.2505 6.8863,-2.4305 -4.187,-5.8772 m -5.3888,-16.5859 -0.1116,-7.3526 -6.9554,2.2181"
           inkscape:connector-curvature="0"
           sodipodi:nodetypes="ccccccccccccccc" />
        <path
           id="path11487"
           style="display:inline;opacity:1;fill:none;fill-opacity:1;fill-rule:evenodd;stroke:#523400;stroke-width:1.0629921;stroke-linecap:butt;stroke-linejoin:miter;stroke-miterlimit:5.80000019;stroke-dasharray:none;stroke-dashoffset:0;stroke-opacity:1"
           d="m 3735.6,-1399.5492 c -1.4547,-4.2919 -1.5883,-9.0726 -0.08,-13.7139 1.5049,-4.6312 4.4133,-8.4139 8.1016,-11.0304 m 14.1151,43.3501 c -4.5314,0.058 -9.1194,-1.293 -13.0675,-4.1614 -3.9394,-2.8623 -6.6384,-6.7973 -7.987,-11.1136 m 45.5903,-0.028 c -1.3457,4.3275 -4.0477,8.2736 -7.9959,11.142 -3.9395,2.8622 -8.516,4.213 -13.0377,4.1619 m 14.061,-43.3678 c 3.6998,2.6171 6.6178,6.4064 8.1259,11.0476 1.5046,4.6313 1.3751,9.4011 -0.071,13.6857 m -36.9001,-26.7742 c 3.6322,-2.7099 8.1377,-4.3142 13.0179,-4.3142 4.8696,0 9.366,1.5973 12.9941,4.2964"
           inkscape:connector-curvature="0" />
      </g>
    </g>
  </g>
</svg>
