<?xml version="1.0" encoding="UTF-8" standalone="no"?>
<!-- Created with Inkscape (http://www.inkscape.org/) -->

<svg
   xmlns:dc="http://purl.org/dc/elements/1.1/"
   xmlns:cc="http://creativecommons.org/ns#"
   xmlns:rdf="http://www.w3.org/1999/02/22-rdf-syntax-ns#"
   xmlns:svg="http://www.w3.org/2000/svg"
   xmlns="http://www.w3.org/2000/svg"
   xmlns:sodipodi="http://sodipodi.sourceforge.net/DTD/sodipodi-0.dtd"
   xmlns:inkscape="http://www.inkscape.org/namespaces/inkscape"
   width="29.999941mm"
   height="90mm"
   viewBox="0 0 29.99994 90"
   version="1.1"
   id="svg8"
   inkscape:version="0.92.2 (5c3e80d, 2017-08-06)"
   sodipodi:docname="FDF_M05_OF1c_vänrikki.svg">
  <defs
     id="defs2">
    <pattern
       y="0"
       x="0"
       height="6"
       width="6"
       patternUnits="userSpaceOnUse"
       id="EMFhbasepattern" />
    <pattern
       y="0"
       x="0"
       height="6"
       width="6"
       patternUnits="userSpaceOnUse"
       id="EMFhbasepattern-7" />
  </defs>
  <sodipodi:namedview
     id="base"
     pagecolor="#ffffff"
     bordercolor="#666666"
     borderopacity="1.0"
     inkscape:pageopacity="0.0"
     inkscape:pageshadow="2"
     inkscape:zoom="1.4"
     inkscape:cx="-157.31597"
     inkscape:cy="226.53183"
     inkscape:document-units="mm"
     inkscape:current-layer="layer1"
     showgrid="false"
     fit-margin-top="0"
     fit-margin-left="0"
     fit-margin-right="0"
     fit-margin-bottom="0"
     inkscape:window-width="3840"
     inkscape:window-height="2066"
     inkscape:window-x="-11"
     inkscape:window-y="-11"
     inkscape:window-maximized="1" />
  <metadata
     id="metadata5">
    <rdf:RDF>
      <cc:Work
         rdf:about="">
        <dc:format>image/svg+xml</dc:format>
        <dc:type
           rdf:resource="http://purl.org/dc/dcmitype/StillImage" />
        <dc:title />
      </cc:Work>
    </rdf:RDF>
  </metadata>
  <g
     inkscape:label="Taso 1"
     inkscape:groupmode="layer"
     id="layer1"
     transform="translate(-78.53753,-89.17376)"
     style="display:inline">
    <g
       id="g1257">
      <path
         inkscape:connector-curvature="0"
         id="path13153"
         d="m 78.53753,89.17376 h 29.99994 v 90 H 78.53753 Z"
         style="display:inline;opacity:1;fill:#3d4321;fill-opacity:1;fill-rule:evenodd;stroke:none;stroke-width:1.9336518;stroke-linecap:round;stroke-linejoin:miter;stroke-miterlimit:4;stroke-dasharray:none;stroke-dashoffset:0;stroke-opacity:1" />
      <g
         transform="matrix(0.28222223,0,0,0.28222223,-658.84498,510.97113)"
         id="g4263"
         style="display:inline">
        <path
           sodipodi:nodetypes="ccccccccscccccccccccc"
           id="path1554-1"
           style="display:inline;opacity:1;fill:#ffcb2d;fill-opacity:1;fill-rule:evenodd;stroke:none;stroke-width:1.0629921;stroke-linecap:butt;stroke-linejoin:miter;stroke-miterlimit:5.80000019;stroke-dasharray:none;stroke-dashoffset:0;stroke-opacity:1"
           d="m 2680.7263,-1315.6096 c 3.9482,-2.8684 6.6502,-6.8145 7.9959,-11.142 l 2.5626,-1.0683 -1.4804,-2.2622 c 1.4462,-4.2847 1.5758,-9.0545 0.071,-13.6858 -1.508,-4.6412 -4.4261,-8.4305 -8.1259,-11.0476 l -0.1522,-2.8205 -2.6811,0.7618 c -3.6281,-2.6991 -8.1245,-4.2964 -12.9941,-4.2964 -4.8802,0 -9.3857,1.6043 -13.0179,4.3142 l -2.657,-0.7798 -0.176,2.8373 c -3.6883,2.6165 -6.5967,6.3992 -8.1016,11.0304 -1.5085,4.6413 -1.3749,9.422 0.08,13.7139 l -1.4901,2.2339 2.5725,1.0974 c 1.3487,4.3163 4.0476,8.2513 7.987,11.1136 3.9482,2.8685 8.5361,4.2189 13.0675,4.1614 l 1.7356,2.0553 1.7666,-2.0547 c 4.5217,0.052 9.0982,-1.2997 13.0377,-4.1619 z"
           inkscape:connector-curvature="0" />
        <path
           inkscape:connector-curvature="0"
           id="path1556-0"
           d="m 2674.5781,-1335.9858 a 8.6560172,8.6560172 0 0 1 -8.6559,8.656 8.6560172,8.6560172 0 0 1 -8.6561,-8.656 8.6560172,8.6560172 0 0 1 8.6561,-8.6559 8.6560172,8.6560172 0 0 1 8.6559,8.6559 z"
           style="display:inline;opacity:1;fill:none;fill-opacity:1;fill-rule:evenodd;stroke:#523400;stroke-width:1.0629921;stroke-linecap:butt;stroke-linejoin:miter;stroke-miterlimit:5.80000019;stroke-dasharray:none;stroke-dashoffset:0;stroke-opacity:1" />
        <path
           inkscape:connector-curvature="0"
           d="m 2660.0968,-1342.4445 -4.8965,-6.7819 c -0.5635,-0.7518 -1.2766,-1.2572 -2.0628,-1.5128 -2.3595,-0.7667 -4.4449,0.6704 -5.2117,3.0299 -0.7666,2.3595 -0.4912,3.7796 -1.0606,5.5318 -0.5693,1.7521 -1.6266,2.739 -2.3934,5.0986 -0.7666,2.3596 0.076,4.7479 2.4355,5.5147 0.7863,0.2554 1.6602,0.2656 2.5579,-0.012 l 7.9476,-2.6085 m 0.5665,1.7427 -7.963,2.5612 c -0.8891,0.3037 -1.5901,0.8256 -2.0762,1.4944 -1.4582,2.0071 -0.7359,4.4346 1.2712,5.8929 2.0071,1.4582 3.4428,1.6352 4.9332,2.7181 1.4904,1.0829 2.1023,2.3935 4.1095,3.8518 2.0071,1.4583 4.539,1.395 5.9973,-0.6121 0.4859,-0.6688 0.7657,-1.4969 0.7797,-2.4363 l -0.025,-8.3647 m 1.8324,-3e-4 -0.024,8.3648 c 0.014,0.9394 0.2938,1.7674 0.7797,2.4364 1.4582,2.0071 3.9901,2.0702 5.9972,0.612 2.0072,-1.4583 2.6191,-2.769 4.1095,-3.8518 1.4905,-1.0829 2.926,-1.2599 4.9332,-2.718 2.0072,-1.4584 2.7294,-3.8859 1.2712,-5.8931 -0.486,-0.6688 -1.187,-1.1908 -2.0761,-1.4943 l -7.963,-2.5611 m 0.566,-1.7429 7.9476,2.6085 c 0.8977,0.2772 1.7717,0.2669 2.558,0.012 2.3595,-0.7667 3.202,-3.1551 2.4354,-5.5147 -0.7667,-2.3595 -1.8241,-3.3465 -2.3934,-5.0986 -0.5693,-1.7522 -0.2939,-3.1721 -1.0605,-5.5317 -0.7668,-2.3595 -2.8523,-3.7965 -5.2118,-3.0299 -0.7862,0.2554 -1.4994,0.7608 -2.0628,1.5127 l -4.8965,6.7818 m -1.4826,-1.0769 4.9368,-6.7526 c 0.5409,-0.7681 0.8013,-1.6026 0.8013,-2.4293 0,-2.481 -2.0113,-4.0203 -4.4923,-4.0203 -2.4809,0 -3.7463,0.7006 -5.5885,0.7006 -1.8423,0 -3.1078,-0.7006 -5.5887,-0.7006 -2.481,0 -4.4922,1.5393 -4.4923,4.0203 0,0.8267 0.2604,1.6612 0.8013,2.4293 l 4.9368,6.7526"
           style="display:inline;opacity:1;fill:none;fill-opacity:1;fill-rule:evenodd;stroke:#523400;stroke-width:1.0629921;stroke-linecap:butt;stroke-linejoin:miter;stroke-miterlimit:5.80000019;stroke-dasharray:none;stroke-dashoffset:0;stroke-opacity:1"
           id="path1558-1" />
        <path
           inkscape:connector-curvature="0"
           d="m 2658.9729,-1341.1378 -5.3849,1.1447 3.6837,4.0912 m -3.4429,-4.013 -7.0067,-2.2766 m 12.0528,11.2227 -0.5755,5.4751 5.0293,-2.2391 m -4.8805,2.0343 -4.3303,5.9602 m 14.3981,-7.9948 5.0291,2.2392 -0.5753,-5.4751 m 0.4266,5.2703 4.3303,5.9602 m -3.1543,-16.1639 3.6838,-4.0911 -5.385,-1.1447 m 5.1441,1.2229 7.0067,-2.2765 m -16.3475,-1.9952 -2.7525,-4.7676 -2.7527,4.7676 m 2.7527,-4.5143 v -7.3673"
           style="fill:none;stroke:#523400;stroke-width:1.0629921;stroke-linecap:butt;stroke-linejoin:miter;stroke-miterlimit:5.80000019;stroke-dasharray:none;stroke-opacity:1"
           id="path1560-9" />
        <path
           sodipodi:nodetypes="ccccccccccccccc"
           inkscape:connector-curvature="0"
           d="m 2657.2026,-1355.4182 -6.9553,-2.218 -0.1116,7.3524 m -5.3894,16.5859 -4.1869,5.8772 6.8862,2.4305 m 14.1087,10.2509 4.3677,5.7458 4.3676,-5.7458 m 14.1089,-10.2505 6.8863,-2.4306 -4.187,-5.8772 m -5.3888,-16.5859 -0.1116,-7.3525 -6.9554,2.218"
           style="fill:none;stroke:#523400;stroke-width:1.0629921;stroke-linecap:butt;stroke-linejoin:miter;stroke-miterlimit:5.80000019;stroke-dasharray:none;stroke-opacity:1"
           id="path1562-4" />
        <path
           inkscape:connector-curvature="0"
           d="m 2642.0495,-1330.0546 c -1.4547,-4.2919 -1.5883,-9.0726 -0.08,-13.7139 1.5049,-4.6312 4.4133,-8.4139 8.1016,-11.0304 m 14.1151,43.3501 c -4.5314,0.057 -9.1193,-1.2929 -13.0675,-4.1614 -3.9394,-2.8622 -6.6383,-6.7973 -7.987,-11.1136 m 45.5903,-0.028 c -1.3457,4.3275 -4.0477,8.2736 -7.9959,11.142 -3.9395,2.8622 -8.516,4.2131 -13.0377,4.1619 m 14.061,-43.3677 c 3.6998,2.617 6.6179,6.4063 8.1259,11.0475 1.5047,4.6313 1.3751,9.4011 -0.071,13.6858 m -36.9001,-26.7743 c 3.6322,-2.7099 8.1377,-4.3142 13.0179,-4.3142 4.8696,0 9.366,1.5973 12.9941,4.2964"
           style="display:inline;opacity:1;fill:none;fill-opacity:1;fill-rule:evenodd;stroke:#523400;stroke-width:1.0629921;stroke-linecap:butt;stroke-linejoin:miter;stroke-miterlimit:5.80000019;stroke-dasharray:none;stroke-dashoffset:0;stroke-opacity:1"
           id="path1564-0" />
      </g>
    </g>
  </g>
</svg>
