<?xml version="1.0" encoding="UTF-8" standalone="no"?>
<!-- Created with Inkscape (http://www.inkscape.org/) -->
<svg
   xmlns:svg="http://www.w3.org/2000/svg"
   xmlns="http://www.w3.org/2000/svg"
   version="1.0"
   width="692.38751"
   height="1000.44"
   viewBox="0 0 26.531 38.335"
   id="Layer_1"
   xml:space="preserve"><defs
   id="defs72" />
<rect
   width="26.461"
   height="38.264999"
   x="0.034999214"
   y="0.035"
   id="rect3" />
<rect
   width="26.461"
   height="38.264999"
   x="0.034999214"
   y="0.035"
   style="fill:none;stroke:black;stroke-width:0.07;stroke-miterlimit:3.86400008"
   id="rect5" />
<rect
   width="26.461"
   height="4.0170002"
   x="0.034999214"
   y="29.561001"
   style="fill:#ffd200"
   id="rect7" />
<rect
   width="26.461"
   height="4.0170002"
   x="0.034999214"
   y="29.561001"
   style="fill:none;stroke:#ffd200;stroke-width:0.07;stroke-miterlimit:3.86400008"
   id="rect9" />
<polyline
   clip-rule="evenodd"
   points="12.983,21.108 12.983,21.117 12.962,21.134 12.95,21.146   12.95,21.154 12.947,21.158 12.962,21.182 12.975,21.187 13.011,21.179 13.04,21.187 13.06,21.21 13.073,21.264 13.057,21.296   13.024,21.33 12.991,21.346 12.962,21.35 12.917,21.326 12.906,21.33 12.885,21.35 12.889,21.363 12.954,21.407 13.073,21.486   13.167,21.542 13.188,21.539 13.203,21.518 13.2,21.498 13.167,21.473 13.142,21.464 13.11,21.44 13.098,21.416 13.101,21.371   13.126,21.318 13.155,21.292 13.22,21.296 13.22,21.302 13.237,21.31 13.257,21.35 13.262,21.371 13.282,21.391 13.298,21.391   13.318,21.366 13.31,21.337 13.315,21.333 13.31,21.322 13.315,21.292 13.339,21.269 13.359,21.264 13.367,21.264 13.372,21.261   13.417,21.269 13.453,21.281 13.479,21.302 13.494,21.322 13.499,21.378 13.494,21.407 13.449,21.445 13.428,21.453 13.417,21.481   13.425,21.498 13.446,21.509 13.494,21.501 13.519,21.489 13.556,21.494 13.576,21.509 13.597,21.535 13.601,21.559 13.597,21.563   13.601,21.567 13.584,21.612 13.564,21.632 13.543,21.645 13.523,21.653 13.519,21.65 13.486,21.653 13.469,21.653 13.466,21.65   13.461,21.653 13.417,21.625 13.396,21.616 13.372,21.621 13.359,21.628 13.351,21.637 13.359,21.657 13.405,21.69 13.494,21.748   13.556,21.789 13.609,21.824 13.65,21.833 13.67,21.83 13.678,21.816 13.674,21.796 13.638,21.751 13.629,21.707 13.638,21.673   13.642,21.662 13.65,21.637 13.678,21.612 13.727,21.599 13.776,21.599 13.793,21.625 13.785,21.666 13.781,21.669 13.785,21.686   13.797,21.694 13.817,21.694 13.85,21.662 13.871,21.64 13.908,21.628 13.952,21.632 13.965,21.645 13.785,21.816 13.67,21.919   13.663,21.919 13.642,21.882 13.56,21.8 13.515,21.78 13.412,21.763 13.295,21.69 13.019,21.518 12.803,21.382 12.791,21.387   12.786,21.387 12.783,21.382 12.794,21.343 12.827,21.264 12.934,21.027 12.947,21.003 12.975,21.056 12.983,21.108 "
   id="polyline11"
   style="fill:#ffd200;fill-rule:evenodd"
   transform="translate(1.957912e-5,0)" />
<polyline
   points="11.788,21.498 11.768,21.539 11.751,21.591 11.743,21.628 11.74,21.632 11.74,21.64 11.735,21.71   11.731,21.751 11.74,21.849 11.776,21.977 11.822,22.046 11.907,22.123 11.919,22.13 11.915,22.162 11.904,22.181 11.833,22.339   11.829,22.345 11.653,22.205 11.649,22.197 11.658,22.152 11.674,22.103 11.682,22.007 11.682,21.947 11.653,21.808 11.617,21.703   11.559,21.591 11.526,21.55 11.515,21.542 11.51,21.539 11.506,21.535 11.51,21.509 11.597,21.322 11.784,21.486 11.788,21.498 "
   id="polyline13"
   style="fill:#ffd200"
   transform="translate(1.957912e-5,0)" />
<polyline
   clip-rule="evenodd"
   points="14.247,21.395 14.3,21.412 14.436,21.464 14.448,21.477   14.407,21.518 14.239,21.645 14.051,21.673 14.039,21.657 14.047,21.64 14.042,21.616 13.993,21.583 13.952,21.575 13.871,21.58   13.867,21.583 13.847,21.58 13.817,21.555 13.768,21.539 13.683,21.542 13.678,21.546 13.663,21.546 13.646,21.509 13.609,21.457   13.609,21.453 13.617,21.445 13.875,21.412 14.165,21.371 14.215,21.378 14.247,21.395 "
   id="polyline15"
   style="fill:#ffd200;fill-rule:evenodd"
   transform="translate(1.957912e-5,0)" />
<polyline
   points="12.832,21.457 12.865,21.477 13.044,21.591 13.073,21.612 13.11,21.632 13.315,21.763   13.323,21.772 13.323,21.78 13.295,21.792 13.265,21.8 13.241,21.816 13.237,21.821 13.208,21.813 12.95,21.653 12.729,21.518   12.717,21.505 12.753,21.445 12.77,21.425 12.807,21.44 12.832,21.457 "
   id="polyline17"
   style="fill:#ffd200"
   transform="translate(1.957912e-5,0)" />
<polyline
   clip-rule="evenodd"
   points="12.602,21.571 12.497,21.735 12.484,21.744   12.426,21.731 12.14,21.755 11.809,21.785 11.805,21.772 11.805,21.759 11.801,21.755 11.805,21.751 11.801,21.681 11.809,21.666   11.825,21.653 12.108,21.621 12.569,21.563 12.594,21.563 12.602,21.571 "
   id="polyline19"
   style="fill:#ffd200;fill-rule:evenodd"
   transform="translate(1.957912e-5,0)" />
<polyline
   clip-rule="evenodd"
   points="11.298,21.673 11.395,21.681 11.485,21.677 11.51,21.69   11.526,21.71 11.556,21.78 11.576,21.821 11.592,21.875 11.608,21.972 11.604,22.087 11.567,22.21 11.567,22.242 11.625,22.332   11.682,22.421 11.699,22.455 11.699,22.466 11.342,22.548 11.183,22.585 11.175,22.585 11.167,22.578 11.175,22.491 11.183,22.483   11.208,22.488 11.236,22.483 11.252,22.462 11.252,22.451 11.224,22.43 11.167,22.414 11.121,22.376 11.072,22.304 11.04,22.212   11.035,22.185 11.04,22.171 11.142,22.162 11.208,22.164 11.346,22.13 11.362,22.123 11.4,22.13 11.42,22.111 11.424,22.013   11.428,22.007 11.424,22.005 11.433,21.972 11.436,21.936 11.457,21.865 11.457,21.849 11.444,21.837 11.367,21.824 11.31,21.8   11.26,21.759 11.216,21.694 11.208,21.666 11.211,21.653 11.24,21.657 11.298,21.673 "
   id="polyline21"
   style="fill:#ffd200;fill-rule:evenodd"
   transform="translate(1.957912e-5,0)" />
<polyline
   clip-rule="evenodd"
   points="14.816,21.694 14.918,21.735 14.959,21.755 15,21.785   15.085,21.849 15.205,21.972 15.258,22.041 15.29,22.115 15.32,22.197 15.327,22.242 15.335,22.291 15.34,22.335 15.327,22.451   15.302,22.552 15.249,22.688 15.167,22.815 15.164,22.815 15.156,22.832 15.065,22.921 14.972,22.996 14.857,23.082 14.742,23.154   14.627,23.224 14.542,23.302 14.481,23.378 14.423,23.473 14.39,23.542 14.341,23.686 14.317,23.792 14.313,23.849 14.321,23.936   14.338,23.992 14.346,24.017 14.305,24.013 14.231,23.94 14.162,23.825 14.141,23.772 14.128,23.669 14.141,23.563 14.165,23.514   14.19,23.49 14.19,23.481 14.182,23.473 14.165,23.478 14.083,23.555 14.051,23.613 14.026,23.669 14.014,23.755 14.018,23.821   14.039,23.912 14.039,23.916 14.01,23.907 13.949,23.846 13.908,23.767 13.896,23.714 13.891,23.686 13.896,23.682 13.891,23.649   13.891,23.632 13.896,23.628 13.891,23.625 13.899,23.572 13.924,23.505 13.96,23.445 14.018,23.399 14.01,23.388 13.985,23.391   13.957,23.408 13.944,23.408 13.85,23.494 13.801,23.572 13.789,23.604 13.776,23.567 13.781,23.453 13.793,23.399 13.814,23.337   13.847,23.289 13.911,23.228 13.981,23.183 14.067,23.15 14.174,23.117 14.338,23.089 14.399,23.072 14.423,23.069 14.513,23.041   14.709,22.941 14.86,22.839 14.967,22.75 15.074,22.626 15.131,22.529 15.164,22.455 15.18,22.386 15.188,22.298 15.192,22.266   15.177,22.177 15.151,22.128 15.085,22.048 15.098,21.992 15.098,21.977 15.082,21.964 15.065,21.968 15.054,21.985 15.049,22.021   15.021,22.103 15.004,22.171 14.996,22.181 14.975,22.171 14.934,22.115 14.901,22.048 14.869,21.953 14.89,21.878 14.893,21.865   14.893,21.849 14.881,21.841 14.86,21.845 14.849,21.857 14.837,21.895 14.775,21.968 14.767,21.992 14.771,21.998 14.767,22.013   14.771,22.041 14.767,22.046 14.788,22.136 14.791,22.148 14.791,22.164 14.779,22.169 14.73,22.162 14.656,22.111 14.599,22.054   14.542,21.964 14.53,21.871 14.525,21.821 14.501,21.816 14.476,21.821 14.469,21.833 14.456,21.919 14.464,21.968 14.505,22.046   14.553,22.121 14.571,22.152 14.594,22.189 14.55,22.201 14.497,22.201 14.492,22.197 14.489,22.201 14.431,22.189 14.37,22.169   14.321,22.136 14.267,22.095 14.231,22.048 14.218,22.013 14.206,22.013 14.162,22.066 14.128,22.156 14.12,22.205 14.124,22.21   14.12,22.242 14.12,22.253 14.116,22.257 14.12,22.263 14.116,22.365 14.12,22.369 14.116,22.373 14.128,22.496 14.136,22.512   14.141,22.544 14.174,22.643 14.185,22.671 14.243,22.762 14.328,22.888 14.42,22.996 14.436,23.011 14.436,23.015 14.402,23.028   14.288,23.052 14.251,23.061 14.235,23.061 14.149,22.946 14.063,22.794 14.018,22.688 13.985,22.593 13.973,22.544 13.949,22.427   13.937,22.335 13.94,22.225 13.957,22.164 13.973,22.111 14.051,21.98 14.083,21.936 14.182,21.83 14.297,21.735 14.387,21.698   14.553,21.666 14.594,21.662 14.697,21.669 14.816,21.694 "
   id="polyline23"
   style="fill:#ffd200;fill-rule:evenodd"
   transform="translate(1.957912e-5,0)" />
<polyline
   points="11.203,21.813 11.277,21.871 11.342,21.895 11.362,21.898 11.367,21.912 11.354,22.046   11.359,22.07 11.346,22.074 11.293,22.07 11.219,22.082 11.154,22.087 11.048,22.089 11.024,22.087 10.999,22.07 10.986,22.017   10.966,21.964 10.945,21.862 10.937,21.796 10.966,21.78 11.089,21.731 11.13,21.718 11.146,21.727 11.203,21.813 "
   id="polyline25"
   style="fill:#ffd200"
   transform="translate(1.957912e-5,0)" />
<polyline
   clip-rule="evenodd"
   points="12.459,21.775 12.456,21.8 12.431,21.854 12.398,21.898   11.866,21.977 11.842,21.944 11.822,21.89 11.822,21.871 11.833,21.862 12.406,21.78 12.451,21.772 12.456,21.775 12.459,21.775 "
   id="polyline27"
   style="fill:#ffd200;fill-rule:evenodd"
   transform="translate(1.957912e-5,0)" />
<polyline
   points="10.848,21.854 10.868,21.875 10.876,21.886 10.884,21.936 10.909,22.013 10.925,22.054   10.904,22.111 10.876,22.152 10.749,22.08 10.651,22.017 10.687,21.939 10.728,21.871 10.753,21.824 10.786,21.83 10.848,21.854 "
   id="polyline29"
   style="fill:#ffd200"
   transform="translate(1.957912e-5,0)" />
<polyline
   clip-rule="evenodd"
   points="12.111,22.242 12.165,22.356 12.226,22.41 12.263,22.427   12.357,22.442 12.439,22.442 12.484,22.507 12.5,22.548 12.439,22.552 12.341,22.548 12.254,22.532 12.177,22.5 12.144,22.479   12.091,22.435 12.037,22.376 12.034,22.291 12.034,22.283 12.037,22.279 12.034,22.274 12.05,22.212 12.07,22.171 12.083,22.162   12.099,22.177 12.111,22.242 "
   id="polyline31"
   style="fill:#ffd200;fill-rule:evenodd"
   transform="translate(1.957912e-5,0)" />
<polyline
   clip-rule="evenodd"
   points="12.889,22.427 12.922,22.442 12.95,22.451 13.044,22.516   13.114,22.589 13.142,22.623 13.146,22.626 13.146,22.643 13.131,22.66 13.11,22.667 13.085,22.66 13.057,22.63 12.95,22.557   12.876,22.524 12.799,22.507 12.729,22.496 12.722,22.496 12.709,22.417 12.712,22.414 12.712,22.397 12.709,22.393 12.712,22.389   12.799,22.406 12.889,22.427 "
   id="polyline33"
   style="fill:#ffd200;fill-rule:evenodd"
   transform="translate(1.957912e-5,0)" />
<polyline
   points="11.71,22.614 11.71,22.626 11.661,22.675 11.645,22.683 11.641,22.688 11.628,22.675   11.604,22.589 11.6,22.57 11.6,22.557 11.62,22.544 11.641,22.541 11.666,22.541 11.71,22.614 "
   id="polyline35"
   style="fill:#ffd200"
   transform="translate(1.957912e-5,0)" />
<polyline
   points="11.579,22.688 11.584,22.716 11.559,22.741 11.457,22.774 11.395,22.787 11.321,22.782   11.293,22.77 11.273,22.75 11.277,22.626 11.306,22.611 11.515,22.565 11.538,22.565 11.579,22.688 "
   id="polyline37"
   style="fill:#ffd200"
   transform="translate(1.957912e-5,0)" />
<polyline
   clip-rule="evenodd"
   points="11.944,22.639 11.932,22.68 11.886,22.774 11.858,22.815   11.74,22.835 11.674,22.859 11.612,22.897 11.571,22.929 11.515,23 11.482,23.072 11.469,23.15 11.465,23.166 11.465,23.179   11.461,23.183 11.15,23.109 11.199,22.966 11.252,22.819 11.26,22.811 11.339,22.835 11.444,22.839 11.535,22.823 11.641,22.778   11.771,22.675 11.809,22.619 11.853,22.623 11.944,22.639 "
   id="polyline39"
   style="fill:#ffd200;fill-rule:evenodd"
   transform="translate(1.957912e-5,0)" />
<polyline
   points="12.083,22.835 12.226,22.905 12.234,22.917 12.157,22.974 12.132,23 12.108,22.996 12.047,22.955   11.935,22.873 11.932,22.867 11.932,22.856 11.976,22.787 12.017,22.806 12.083,22.835 "
   id="polyline41"
   style="fill:#ffd200"
   transform="translate(1.957912e-5,0)" />
<polyline
   clip-rule="evenodd"
   points="12.075,23.037 12.078,23.041 12.078,23.048   12.026,23.089 11.981,23.15 11.976,23.164 11.981,23.187 11.997,23.205 12.034,23.212 12.042,23.212 12.047,23.214 12.029,23.289   12.006,23.396 11.973,23.419 11.899,23.453 11.858,23.429 11.797,23.378 11.576,23.214 11.547,23.195 11.538,23.183 11.543,23.138   11.559,23.085 11.587,23.028 11.699,22.921 11.74,22.901 11.792,22.884 11.813,22.88 11.878,22.884 12.075,23.037 "
   id="polyline43"
   style="fill:#ffd200;fill-rule:evenodd"
   transform="translate(1.957912e-5,0)" />
<polyline
   clip-rule="evenodd"
   points="10.884,23.478 10.97,23.555 11.183,23.772 11.175,23.78   11.044,23.792 11.04,23.789 11.007,23.792 10.904,23.785 10.86,23.767 10.738,23.69 10.81,23.616 10.81,23.6 10.815,23.596   10.802,23.575 10.786,23.563 10.761,23.567 10.738,23.583 10.725,23.604 10.639,23.621 10.565,23.654 10.475,23.662 10.467,23.662   10.467,23.654 10.663,23.509 10.782,23.419 10.81,23.429 10.884,23.478 "
   id="polyline45"
   style="fill:#ffd200;fill-rule:evenodd"
   transform="translate(1.957912e-5,0)" />
<polyline
   clip-rule="evenodd"
   points="13.507,24.807 13.51,24.823 13.499,24.848 13.494,24.873   13.482,24.921 13.469,25.024 13.461,25.073 13.42,25.076 13.376,25.089 13.315,25.097 13.192,25.134 13.126,25.158 13.081,25.183   13.049,25.224 13.04,25.251 13.024,25.298 13.016,25.408 13.016,25.423 13.029,25.433 13.057,25.429 13.114,25.441 13.155,25.46   13.2,25.509 13.22,25.556 13.228,25.597 13.224,25.632 13.213,25.666 13.183,25.71 13.09,25.796 13.065,25.809 13.057,25.796   13.06,25.759 13.057,25.755 13.06,25.751 13.06,25.735 13.057,25.731 13.06,25.727 13.049,25.641 13.029,25.591 13.003,25.567   12.958,25.576 12.947,25.587 12.962,25.608 12.975,25.632 12.979,25.666 12.983,25.768 12.962,25.833 12.926,25.894 12.876,25.953   12.824,25.985 12.729,26.014 12.681,26.014 12.725,25.94 12.758,25.875 12.77,25.833 12.774,25.781 12.77,25.755 12.75,25.71   12.729,25.687 12.717,25.687 12.704,25.699 12.701,25.735 12.684,25.822 12.656,25.903 12.623,25.96 12.549,26.035 12.508,26.058   12.431,26.08 12.402,26.083 12.385,26.083 12.415,26.001 12.423,25.927 12.41,25.894 12.377,25.83 12.361,25.817 12.344,25.825   12.321,25.862 12.321,25.935 12.185,25.994 12.149,26.014 12.14,26.022 12.144,26.037 12.222,26.136 12.263,26.181 12.279,26.218   12.259,26.239 12.05,26.369 11.997,26.394 12.029,26.321 12.087,26.248 12.129,26.201 12.132,26.181 12.124,26.169 12.119,26.166   12.07,26.177 12.017,26.198 12.009,26.198 12.017,26.104 12.009,26.042 12.001,26.005 11.973,25.964 11.944,25.944 11.927,25.935   11.878,25.94 11.833,25.973 11.731,26.083 11.653,26.19 11.641,26.198 11.625,26.19 11.523,26.108 11.49,26.087 11.465,26.087   11.444,26.108 11.441,26.128 11.444,26.144 11.469,26.169 11.506,26.181 11.559,26.222 11.563,26.234 11.551,26.251 11.535,26.341   11.518,26.443 11.518,26.447 11.506,26.435 11.482,26.369 11.441,26.287 11.372,26.128 11.359,26.104 11.342,26.063 11.547,25.968   11.764,25.871 11.781,25.853 11.776,25.837 11.764,25.83 11.76,25.825 11.735,25.83 11.715,25.841 11.686,25.85 11.571,25.899   11.392,25.981 11.362,25.994 11.342,25.989 11.228,25.833 11.216,25.822 11.199,25.822 11.178,25.846 11.183,25.903 11.199,25.932   11.06,26.128 11.032,26.177 11.027,26.181 11.024,26.119 11.044,25.846 11.052,25.817 11.244,25.776 11.339,25.751 11.62,25.673   11.919,25.58 12.222,25.468 12.275,25.444 12.324,25.403 12.369,25.341 12.382,25.251 12.377,25.158 12.374,25.155 12.377,25.15   12.369,25.048 12.374,25.024 12.374,25.011 12.406,24.983 12.418,24.974 12.431,24.962 12.431,24.95 12.435,24.946 12.426,24.93   12.406,24.912 12.365,24.917 12.341,24.93 12.303,24.933 12.234,24.921 12.157,24.884 12.108,24.835 12.07,24.782 12.055,24.728   12.047,24.697 12.055,24.589 12.083,24.533 12.129,24.5 12.14,24.496 12.149,24.496 12.16,24.524 12.21,24.574 12.271,24.606   12.316,24.619 12.443,24.634 12.447,24.639 12.451,24.634 12.456,24.639 12.459,24.634 12.545,24.643 12.745,24.623 12.881,24.593   12.991,24.554 13.155,24.483 13.274,24.447 13.285,24.447 13.507,24.807 "
   id="polyline47"
   style="fill:#ffd200;fill-rule:evenodd"
   transform="translate(1.957912e-5,0)" />
<polyline
   clip-rule="evenodd"
   points="13.572,24.544 13.597,24.565 13.605,24.574   13.597,24.615 13.584,24.684 13.576,24.712 13.548,24.68 13.502,24.603 13.453,24.513 13.428,24.466 13.548,24.537 13.572,24.544   "
   id="polyline49"
   style="fill:#ffd200;fill-rule:evenodd"
   transform="translate(1.957912e-5,0)" />
<polyline
   clip-rule="evenodd"
   points="11.416,25.515 11.502,25.597 11.515,25.617   11.518,25.621 11.518,25.632 11.318,25.682 11.293,25.687 11.277,25.673 11.277,25.653 11.314,25.608 11.318,25.597 11.314,25.572   11.298,25.556 11.277,25.556 11.249,25.583 11.216,25.625 11.175,25.653 11.015,25.707 10.97,25.718 10.925,25.727 10.925,25.723   10.922,25.718 11.24,25.4 11.285,25.421 11.416,25.515 "
   id="polyline51"
   style="fill:#ffd200;fill-rule:evenodd"
   transform="translate(1.957912e-5,0)" />
<polyline
   clip-rule="evenodd"
   points="11.944,26.063 11.952,26.119 11.948,26.185   11.927,26.253 11.912,26.41 11.915,26.458 11.94,26.544 11.952,26.569 11.85,26.623 11.751,26.701 11.707,26.746 11.682,26.778   11.625,26.876 11.612,26.934 11.617,26.97 11.653,27.007 11.678,27.007 11.694,26.991 11.682,26.93 11.71,26.884 11.743,26.86   11.776,26.865 11.805,26.884 11.842,26.934 11.863,26.987 11.861,27.044 11.845,27.085 11.797,27.126 11.756,27.147 11.719,27.151   11.715,27.154 11.71,27.151 11.694,27.154 11.645,27.147 11.604,27.123 11.567,27.098 11.523,27.052 11.482,26.978 11.469,26.917   11.477,26.852 11.49,26.815 11.523,26.746 11.628,26.607 11.658,26.558 11.678,26.5 11.678,26.476 11.715,26.457 11.784,26.384   11.809,26.349 11.842,26.267 11.837,26.262 11.845,26.222 11.837,26.152 11.817,26.099 11.817,26.08 11.904,26.001 11.912,26.001   11.944,26.063 "
   id="polyline53"
   style="fill:#ffd200;fill-rule:evenodd"
   transform="translate(1.957912e-5,0)" />
<polyline
   clip-rule="evenodd"
   points="10.958,26.017 10.953,26.05 10.958,26.055 10.953,26.152   10.95,26.157 10.953,26.259 10.958,26.275 10.983,26.296 11.007,26.292 11.044,26.28 11.203,26.05 11.24,26.058 11.277,26.071   11.29,26.071 11.31,26.128 11.424,26.39 11.51,26.548 11.53,26.569 11.606,26.44 11.584,26.533 11.551,26.602 11.538,26.607   11.49,26.589 11.453,26.566 11.42,26.528 11.392,26.466 11.392,26.457 11.379,26.435 11.375,26.416 11.339,26.376 11.314,26.39   11.306,26.398 11.301,26.447 11.301,26.458 11.244,26.451 11.208,26.431 11.146,26.365 11.13,26.328 11.121,26.3 11.121,26.28   11.097,26.253 11.068,26.259 11.052,26.28 11.048,26.3 11.048,26.308 11.044,26.313 11.06,26.361 11.06,26.376 11.007,26.402   10.97,26.431 10.933,26.492 10.922,26.548 10.925,26.626 10.942,26.667 10.945,26.667 10.945,26.671 10.901,26.656 10.863,26.63   10.819,26.578 10.794,26.528 10.786,26.487 10.782,26.425 10.79,26.369 10.81,26.321 10.851,26.28 10.871,26.259 10.881,26.226   10.863,26.19 10.835,26.144 10.831,26.095 10.84,26.063 10.86,26.022 10.871,26.009 10.884,26.005 10.953,26.009 10.958,26.017 "
   id="polyline55"
   style="fill:#ffd200;fill-rule:evenodd"
   transform="translate(1.957912e-5,0)" />
<polyline
   clip-rule="evenodd"
   points="13.985,26.16 14.08,26.207 14.136,26.251 14.153,26.267   14.162,26.292 14.133,26.316 14.034,26.361 13.937,26.39 13.903,26.384 13.871,26.375 13.847,26.369 13.842,26.365 13.916,26.239   13.911,26.226 13.899,26.218 13.855,26.234 13.765,26.349 13.704,26.406 13.629,26.457 13.613,26.458 13.74,26.207 13.789,26.112   13.883,26.128 13.985,26.16 "
   id="polyline57"
   style="fill:#ffd200;fill-rule:evenodd"
   transform="translate(1.957912e-5,0)" />
<polyline
   clip-rule="evenodd"
   points="11.74,26.287 11.723,26.324 11.69,26.369 11.617,26.425   11.6,26.457 11.6,26.406 11.612,26.376 11.617,26.353 11.633,26.296 11.633,26.275 11.658,26.267 11.669,26.253 11.707,26.275   11.74,26.287 "
   id="polyline59"
   style="fill:#ffd200;fill-rule:evenodd"
   transform="translate(1.957912e-5,0)" />
<polyline
   clip-rule="evenodd"
   points="12.19,26.492 12.295,26.525 12.5,26.574 12.717,26.615   12.926,26.634 13.392,26.643 13.646,26.626 13.642,26.675 13.622,26.766 13.613,26.774 13.336,26.787 13.065,26.774 12.896,26.757   12.758,26.738 12.599,26.705 12.382,26.643 12.201,26.582 11.997,26.507 11.981,26.466 11.981,26.443 11.997,26.425 12.037,26.435   12.19,26.492 "
   id="polyline61"
   style="fill:#ffd200;fill-rule:evenodd"
   transform="translate(1.957912e-5,0)" />
<polyline
   points="12.242,26.681 12.423,26.716 12.508,26.738 12.672,26.77 12.979,26.811 13.149,26.823   13.302,26.828 13.605,26.832 13.609,26.843 13.597,26.893 13.592,26.934 13.576,27.011 13.568,27.019 13.31,27.024 13.057,27.011   12.913,27 12.778,26.978 12.574,26.934 12.402,26.893 12.119,26.798 11.924,26.722 11.858,26.697 11.853,26.692 11.874,26.671   11.927,26.64 11.976,26.626 12.014,26.623 12.091,26.634 12.242,26.681 "
   id="polyline63"
   style="fill:#ffd200"
   transform="translate(1.957912e-5,0)" />
<polyline
   clip-rule="evenodd"
   points="14.542,26.725 14.563,26.746 14.583,26.75 14.599,26.75   14.604,26.746 14.607,26.75 14.612,26.757 14.604,26.815 14.571,26.835 14.481,26.869 14.431,26.876 14.407,26.876 14.443,26.77   14.497,26.667 14.501,26.648 14.509,26.648 14.542,26.725 "
   id="polyline65"
   style="fill:#ffd200;fill-rule:evenodd"
   transform="translate(1.957912e-5,0)" />
<polyline
   clip-rule="evenodd"
   points="13.97,26.794 13.883,26.896 13.888,26.921 13.911,26.937   13.919,26.947 13.919,26.955 13.875,26.975 13.842,26.978 13.785,26.991 13.683,27 13.678,26.996 13.735,26.93 13.826,26.802   13.834,26.802 13.842,26.824 13.858,26.839 13.891,26.835 13.965,26.778 13.973,26.778 13.97,26.794 "
   id="polyline67"
   style="fill:#ffd200;fill-rule:evenodd"
   transform="translate(1.957912e-5,0)" />
<path
   d="M 12.738,21.788999 L 12.758,21.800999 L 12.766,21.808999 L 12.758,21.857999 L 12.766,21.875999 L 12.763,21.912999 L 12.729,21.936999 L 12.652,21.968999 L 12.602,21.999999 L 12.582,21.999999 L 12.574,21.991999 L 12.569,21.971999 L 12.593,21.938999 L 12.642,21.897999 L 12.656,21.861999 L 12.628,21.844999 L 12.602,21.840999 L 12.594,21.840999 L 12.574,21.828999 L 12.553,21.814999 L 12.549,21.799999 L 12.553,21.774999 L 12.57,21.771999 L 12.635,21.792999 L 12.738,21.788999 M 12.889,21.706999 L 12.962,21.751999 L 12.97,21.759999 L 12.989,21.768999 L 13.025,21.792999 L 13.101,21.856999 L 13.139,21.897999 L 13.142,21.918999 L 13.139,21.930999 L 13.126,21.955999 L 13.131,21.983999 L 13.147,21.996999 L 13.172,21.990999 L 13.2,21.937999 L 13.264,21.873999 L 13.323,21.840999 L 13.408,21.828999 L 13.466,21.832999 L 13.499,21.844999 L 13.551,21.885999 L 13.589,21.938999 L 13.592,21.959999 L 13.597,21.967999 L 13.597,21.976999 L 13.589,22.012999 L 13.565,22.053999 L 13.515,22.088999 L 13.483,22.109999 L 13.42,22.121999 L 13.372,22.121999 L 13.343,22.129999 L 13.323,22.150999 L 13.326,22.170999 L 13.367,22.180999 L 13.469,22.170999 L 13.573,22.129999 L 13.638,22.088999 L 13.727,22.006999 L 13.741,22.027999 L 13.746,22.052999 L 13.746,22.060999 L 13.754,22.093999 L 13.746,22.159999 L 13.746,22.167999 L 13.72,22.216999 L 13.602,22.310999 L 13.533,22.351999 L 13.463,22.371999 L 13.451,22.388999 L 13.455,22.409999 L 13.463,22.417999 L 13.492,22.421999 L 13.582,22.397999 L 13.635,22.376999 L 13.714,22.324999 L 13.758,22.282999 L 13.77,22.270999 L 13.779,22.270999 L 13.788,22.278999 L 13.796,22.306999 L 13.804,22.355999 L 13.8,22.405999 L 13.779,22.466999 L 13.738,22.524999 L 13.694,22.561999 L 13.616,22.611999 L 13.579,22.627999 L 13.472,22.660999 L 13.461,22.672999 L 13.469,22.693999 L 13.497,22.706999 L 13.571,22.701999 L 13.603,22.693999 L 13.68,22.661999 L 13.779,22.587999 L 13.8,22.566999 L 13.809,22.566999 L 13.821,22.590999 L 13.834,22.631999 L 13.826,22.734999 L 13.797,22.796999 L 13.757,22.849999 L 13.682,22.903999 L 13.621,22.931999 L 13.576,22.943999 L 13.49,22.951999 L 13.424,22.957999 L 13.416,22.969999 L 13.421,22.998999 L 13.441,23.010999 L 13.499,23.023999 L 13.577,23.018999 L 13.668,22.993999 L 13.778,22.932999 L 13.79,22.920999 L 13.798,22.920999 L 13.802,22.941999 L 13.802,22.962999 L 13.806,22.974999 L 13.794,23.048999 L 13.758,23.126999 L 13.712,23.175999 L 13.668,23.210999 L 13.594,23.243999 L 13.458,23.263999 L 13.336,23.259999 L 13.311,23.259999 L 13.303,23.257999 L 13.28,23.259999 L 13.27,23.273999 L 13.274,23.293999 L 13.291,23.311999 L 13.349,23.327999 L 13.434,23.331999 L 13.53,23.322999 L 13.547,23.322999 L 13.645,23.301999 L 13.685,23.285999 L 13.693,23.289999 L 13.671,23.362999 L 13.63,23.420999 L 13.572,23.461999 L 13.509,23.490999 L 13.44,23.506999 L 13.285,23.514999 L 13.187,23.506999 L 13.149,23.485999 L 13.138,23.485999 L 13.121,23.502999 L 13.138,23.535999 L 13.159,23.547999 L 13.29,23.571999 L 13.387,23.576999 L 13.491,23.559999 L 13.518,23.546999 L 13.539,23.550999 L 13.781,23.804999 L 14.001,24.021999 L 14.223,24.218999 L 14.354,24.316999 L 14.452,24.320999 L 14.539,24.302999 L 14.592,24.281999 L 14.636,24.251999 L 14.699,24.173999 L 14.74,24.077999 L 14.757,24.025999 L 14.773,23.960999 L 14.768,23.845999 L 14.745,23.747999 L 14.712,23.665999 L 14.654,23.559999 L 14.56,23.427999 L 14.563,23.400999 L 14.667,23.277999 L 14.687,23.281999 L 14.746,23.338999 L 14.89,23.551999 L 14.967,23.723999 L 14.992,23.793999 L 15.049,23.810999 L 15.069,23.805999 L 15.087,23.805999 L 15.139,23.810999 L 15.251,23.797999 L 15.353,23.760999 L 15.361,23.772999 L 15.353,23.871999 L 15.279,23.981999 L 15.23,24.027999 L 15.149,24.055999 L 15.054,24.063999 L 15.009,24.059999 L 14.993,24.076999 L 14.987,24.097999 L 14.993,24.113999 L 15,24.120999 L 15.103,24.136999 L 15.18,24.128999 L 15.331,24.079999 L 15.368,24.062999 L 15.389,24.062999 L 15.376,24.114999 L 15.323,24.216999 L 15.274,24.275999 L 15.212,24.320999 L 15.13,24.349999 L 15.015,24.370999 L 14.983,24.372999 L 14.921,24.364999 L 14.885,24.344999 L 14.877,24.344999 L 14.771,24.465999 L 14.693,24.523999 L 14.656,24.540999 L 14.545,24.573999 L 14.482,24.581999 L 14.41,24.569999 L 14.362,24.544999 L 14.333,24.523999 L 14.321,24.528999 L 14.348,24.581999 L 14.389,24.622999 L 14.443,24.725999 L 14.456,24.782999 L 14.461,24.950999 L 14.461,24.983999 L 14.448,25.082999 L 14.461,25.131999 L 14.497,25.180999 L 14.533,25.213999 L 14.591,25.240999 L 14.697,25.265999 L 14.775,25.298999 L 14.824,25.333999 L 14.857,25.382999 L 14.86,25.411999 L 14.843,25.538999 L 14.831,25.575999 L 14.839,25.607999 L 14.857,25.620999 L 14.898,25.624999 L 15,25.693999 L 15.103,25.799999 L 15.152,25.890999 L 15.168,25.947999 L 15.178,26.013999 L 15.168,26.070999 L 15.173,26.079999 L 15.157,26.143999 L 15.139,26.197999 L 15.118,26.238999 L 15.078,26.148999 L 15.041,26.090999 L 14.967,26.013999 L 14.943,26.004999 L 14.919,26.004999 L 14.899,26.021999 L 14.899,26.034999 L 14.989,26.132999 L 15.034,26.200999 L 15.062,26.282999 L 15.071,26.341999 L 15.066,26.423999 L 15.057,26.458999 L 15.044,26.505999 L 15.013,26.566999 L 14.989,26.582999 L 14.964,26.525999 L 14.915,26.466999 L 14.811,26.390999 L 14.803,26.390999 L 14.767,26.365999 L 14.754,26.361999 L 14.734,26.382999 L 14.725,26.415999 L 14.725,26.423999 L 14.857,26.562999 L 14.865,26.578999 L 14.857,26.623999 L 14.802,26.713999 L 14.7,26.894999 L 14.683,26.922999 L 14.666,26.943999 L 14.663,26.890999 L 14.666,26.861999 L 14.674,26.751999 L 14.683,26.734999 L 14.704,26.726999 L 14.748,26.723999 L 14.761,26.709999 L 14.765,26.685999 L 14.737,26.657999 L 14.683,26.661999 L 14.666,26.669999 L 14.597,26.677999 L 14.581,26.650999 L 14.536,26.468999 L 14.523,26.460999 L 14.482,26.474999 L 14.454,26.507999 L 14.4,26.669999 L 14.338,26.784999 L 14.305,26.861999 L 14.3,26.868999 L 14.297,26.889999 L 14.284,26.901999 L 14.276,26.901999 L 14.181,26.815999 L 14.135,26.798999 L 14.123,26.798999 L 14.112,26.811999 L 14.112,26.824999 L 14.119,26.848999 L 14.152,26.872999 L 14.183,26.909999 L 14.234,27.018999 L 14.246,27.051999 L 14.266,27.105999 L 14.276,27.133999 L 14.263,27.133999 L 14.083,26.999999 L 13.981,26.909999 L 13.977,26.900999 L 13.977,26.883999 L 14.132,26.691999 L 14.266,26.506999 L 14.266,26.499999 L 14.25,26.483999 L 14.217,26.486999 L 14.079,26.647999 L 14.038,26.691999 L 13.964,26.708999 L 13.89,26.745999 L 13.877,26.732999 L 13.857,26.639999 L 13.854,26.609999 L 13.854,26.601999 L 13.821,26.577999 L 13.813,26.577999 L 13.792,26.581999 L 13.784,26.602999 L 13.78,26.634999 L 13.784,26.648999 L 13.775,26.701999 L 13.766,26.717999 L 13.759,26.767999 L 13.702,26.825999 L 13.664,26.866999 L 13.676,26.788999 L 13.69,26.726999 L 13.693,26.693999 L 13.717,26.563999 L 13.725,26.538999 L 13.739,26.526999 L 13.821,26.501999 L 13.951,26.466999 L 14.156,26.403999 L 14.224,26.366999 L 14.283,26.309999 L 14.337,26.199999 L 14.369,26.105999 L 14.401,25.977999 L 14.422,25.847999 L 14.414,25.797999 L 14.386,25.735999 L 14.291,25.646999 L 14.197,25.605999 L 14.082,25.556999 L 14.046,25.542999 L 13.992,25.497999 L 13.976,25.501999 L 13.968,25.515999 L 13.971,25.653999 L 13.958,25.727999 L 13.935,25.792999 L 13.895,25.850999 L 13.825,25.912999 L 13.76,25.948999 L 13.718,25.957999 L 13.6,25.948999 L 13.665,25.866999 L 13.682,25.830999 L 13.685,25.793999 L 13.682,25.785999 L 13.685,25.776999 L 13.677,25.714999 L 13.657,25.652999 L 13.645,25.596999 L 13.616,25.496999 L 13.575,25.338999 L 13.563,25.258999 L 13.549,25.174999 L 13.546,25.071999 L 13.554,25.002999 L 13.554,24.985999 L 13.567,24.948999 L 13.571,24.920999 L 13.599,24.850999 L 13.636,24.773999 L 13.664,24.679999 L 13.681,24.605999 L 13.676,24.512999 L 13.645,24.389999 L 13.627,24.344999 L 13.607,24.297999 L 13.582,24.270999 L 13.549,24.229999 L 13.505,24.192999 L 13.456,24.169999 L 13.435,24.173999 L 13.423,24.185999 L 13.426,24.208999 L 13.538,24.323999 L 13.562,24.372999 L 13.578,24.425999 L 13.578,24.446999 L 13.557,24.441999 L 13.496,24.405999 L 13.246,24.288999 L 13.09,24.222999 L 12.87,24.140999 L 12.821,24.124999 L 12.87,24.050999 L 12.893,23.960999 L 12.903,23.865999 L 12.898,23.747999 L 12.873,23.673999 L 12.862,23.665999 L 12.841,23.669999 L 12.824,23.682999 L 12.816,23.714999 L 12.821,23.723999 L 12.821,23.849999 L 12.807,23.956999 L 12.787,24.013999 L 12.759,24.071999 L 12.721,24.121999 L 12.66,24.166999 L 12.611,24.186999 L 12.556,24.194999 L 12.454,24.208999 L 12.442,24.208999 L 12.492,24.060999 L 12.512,23.921999 L 12.503,23.851999 L 12.487,23.819999 L 12.479,23.810999 L 12.454,23.815999 L 12.434,23.843999 L 12.42,23.892999 L 12.404,24.027999 L 12.392,24.073999 L 12.375,24.135999 L 12.334,24.188999 L 12.296,24.225999 L 12.219,24.274999 L 12.137,24.301999 L 12.076,24.301999 L 12.137,24.196999 L 12.17,24.132999 L 12.184,24.083999 L 12.191,24.036999 L 12.184,23.987999 L 12.159,23.967999 L 12.134,23.971999 L 12.113,23.987999 L 12.081,24.107999 L 12.028,24.211999 L 11.962,24.270999 L 11.901,24.307999 L 11.836,24.332999 L 11.726,24.340999 L 11.653,24.326999 L 11.762,24.211999 L 11.779,24.188999 L 11.779,24.159999 L 11.762,24.139999 L 11.742,24.135999 L 11.729,24.139999 L 11.72,24.139999 L 11.679,24.172999 L 11.606,24.215999 L 11.476,24.281999 L 11.462,24.302999 L 11.467,24.310999 L 11.488,24.464999 L 11.455,24.485999 L 11.312,24.526999 L 11.185,24.551999 L 11.152,24.551999 L 11.23,24.472999 L 11.271,24.414999 L 11.315,24.431999 L 11.385,24.452999 L 11.397,24.444999 L 11.41,24.431999 L 11.41,24.403999 L 11.4,24.383999 L 11.35,24.369999 L 11.321,24.355999 L 11.29,24.347999 L 11.281,24.337999 L 11.285,24.296999 L 11.318,24.214999 L 11.321,24.194999 L 11.318,24.182999 L 11.297,24.166999 L 11.268,24.170999 L 11.232,24.193999 L 11.085,24.336999 L 11.003,24.399999 L 10.991,24.354999 L 10.986,24.295999 L 10.977,24.274999 L 10.953,24.252999 L 10.932,24.252999 L 10.904,24.279999 L 10.962,24.619999 L 10.929,24.582999 L 10.799,24.394999 L 10.704,24.263999 L 10.704,24.251999 L 10.876,24.171999 L 11.142,24.046999 L 11.151,24.034999 L 11.147,24.009999 L 11.118,23.988999 L 10.959,24.054999 L 10.913,24.075999 L 10.808,24.079999 L 10.709,24.095999 L 10.705,24.083999 L 10.718,24.028999 L 10.735,23.976999 L 10.74,23.931999 L 10.74,23.914999 L 10.71,23.890999 L 10.694,23.890999 L 10.669,23.914999 L 10.661,23.937999 L 10.648,24.041999 L 10.627,24.061999 L 10.578,24.086999 L 10.525,24.102999 L 10.443,24.131999 L 10.602,23.882999 L 10.606,23.869999 L 10.631,23.841999 L 10.656,23.800999 L 10.7,23.808999 L 10.782,23.836999 L 10.823,23.849999 L 10.925,23.861999 L 11.072,23.866999 L 11.191,23.849999 L 11.285,23.825999 L 11.453,23.747999 L 12.443,23.255999 L 12.528,23.241999 L 12.549,23.220999 L 12.549,23.191999 L 12.528,23.175999 L 12.488,23.169999 L 12.447,23.179999 L 12.343,23.228999 L 12.18,23.305999 L 12.149,23.326999 L 12.119,23.334999 L 12.098,23.347999 L 12.111,23.278999 L 12.16,23.171999 L 12.152,23.155999 L 12.124,23.143999 L 12.096,23.139999 L 12.112,23.114999 L 12.232,23.012999 L 12.308,22.963999 L 12.444,22.904999 L 12.522,22.884999 L 12.542,22.884999 L 12.57,22.876999 L 12.632,22.872999 L 12.653,22.876999 L 12.666,22.872999 L 12.771,22.884999 L 12.862,22.909999 L 12.908,22.925999 L 12.915,22.929999 L 12.956,22.929999 L 12.98,22.904999 L 12.976,22.855999 L 12.952,22.835999 L 12.924,22.843999 L 12.911,22.848999 L 12.87,22.839999 L 12.801,22.818999 L 12.662,22.797999 L 12.637,22.793999 L 12.61,22.772999 L 12.582,22.735999 L 12.582,22.699999 L 12.618,22.666999 L 12.631,22.654999 L 12.59,22.572999 L 12.585,22.547999 L 12.585,22.526999 L 12.651,22.555999 L 12.686,22.587999 L 12.768,22.653999 L 12.781,22.657999 L 12.794,22.669999 L 12.868,22.706999 L 12.998,22.730999 L 13.035,22.730999 L 13.043,22.734999 L 13.149,22.722999 L 13.177,22.709999 L 13.205,22.676999 L 13.235,22.607999 L 13.239,22.563999 L 13.229,22.509999 L 13.209,22.451999 L 13.168,22.379999 L 13.058,22.250999 L 13,22.205999 L 12.938,22.185999 L 12.861,22.177999 L 12.799,22.193999 L 12.742,22.230999 L 12.672,22.296999 L 12.64,22.353999 L 12.64,22.369999 L 12.631,22.379999 L 12.623,22.420999 L 12.628,22.431999 L 12.631,22.452999 L 12.631,22.473999 L 12.602,22.465999 L 12.561,22.424999 L 12.522,22.362999 L 12.513,22.325999 L 12.476,22.288999 L 12.456,22.243999 L 12.447,22.204999 L 12.488,22.124999 L 12.512,22.060999 L 12.503,22.052999 L 12.475,22.064999 L 12.417,22.123999 L 12.401,22.139999 L 12.392,22.139999 L 12.372,22.106999 L 12.375,22.061999 L 12.474,21.901999 L 12.524,21.825999 L 12.54,21.780999 L 12.639,21.635999 L 12.68,21.582999 L 12.774,21.632999 L 12.889,21.706999 z M 12.602,22.293999 L 12.599,22.314999 L 12.582,22.327999 L 12.549,22.331999 L 12.528,22.335999 L 12.521,22.327999 L 12.528,22.298999 L 12.545,22.286999 L 12.599,22.290999 L 12.602,22.293999 z "
   style="fill:#ffd200;fill-rule:evenodd"
   id="path69" />
</svg>