<?xml version="1.0" encoding="UTF-8" standalone="no"?>
<!-- Created with Inkscape (http://www.inkscape.org/) -->
<svg
   xmlns:svg="http://www.w3.org/2000/svg"
   xmlns="http://www.w3.org/2000/svg"
   version="1.0"
   width="260.93488"
   height="373.95135"
   viewBox="0 0 26.729 38.336"
   id="Layer_1"
   xml:space="preserve"><defs
   id="defs94" />
<rect
   width="26.461"
   height="38.265999"
   x="0.1665007"
   y="0.035"
   id="rect3" />
<rect
   width="26.461"
   height="38.265999"
   x="0.1665007"
   y="0.035"
   style="fill:none;stroke:black;stroke-width:0.07;stroke-miterlimit:3.86400008"
   id="rect5" />
<rect
   width="26.461"
   height="3.7090001"
   x="0.1665007"
   y="20.507999"
   style="fill:#ffd200"
   id="rect7" />
<rect
   width="26.461"
   height="3.7090001"
   x="0.1665007"
   y="20.507999"
   style="fill:none;stroke:#ffd200;stroke-width:0.07;stroke-miterlimit:3.86400008"
   id="rect9" />
<rect
   width="26.461"
   height="3.7090001"
   x="0.1665007"
   y="15.451"
   style="fill:#ffd200"
   id="rect11" />
<rect
   width="26.461"
   height="3.7090001"
   x="0.1665007"
   y="15.451"
   style="fill:none;stroke:#ffd200;stroke-width:0.07;stroke-miterlimit:3.86400008"
   id="rect13" />
<rect
   width="26.461"
   height="3.7090001"
   x="0.1665007"
   y="10.396"
   style="fill:#ffd200"
   id="rect15" />
<rect
   width="26.461"
   height="3.7090001"
   x="0.1665007"
   y="10.396"
   style="fill:none;stroke:#ffd200;stroke-width:0.07;stroke-miterlimit:3.86400008"
   id="rect17" />
<polyline
   clip-rule="evenodd"
   points="13.061,2.489 13.061,2.499 13.041,2.515 13.028,2.527   13.028,2.535 13.025,2.54 13.041,2.563 13.054,2.568 13.09,2.561 13.118,2.568 13.139,2.592 13.151,2.646 13.135,2.678   13.102,2.711 13.069,2.727 13.041,2.731 12.995,2.707 12.984,2.711 12.964,2.731 12.967,2.744 13.033,2.789 13.151,2.866   13.245,2.923 13.266,2.919 13.282,2.898 13.279,2.878 13.245,2.854 13.22,2.846 13.188,2.821 13.176,2.796 13.18,2.752   13.204,2.698 13.232,2.673 13.299,2.678 13.299,2.683 13.314,2.69 13.334,2.731 13.34,2.752 13.36,2.772 13.375,2.772 13.396,2.748   13.389,2.719 13.393,2.714 13.389,2.704 13.393,2.673 13.417,2.649 13.437,2.646 13.444,2.646 13.45,2.642 13.495,2.649   13.532,2.663 13.557,2.683 13.573,2.704 13.577,2.76 13.573,2.789 13.526,2.825 13.507,2.833 13.495,2.862 13.503,2.878   13.523,2.891 13.573,2.882 13.598,2.871 13.634,2.875 13.653,2.891 13.675,2.916 13.68,2.939 13.675,2.944 13.68,2.948   13.661,2.993 13.642,3.013 13.622,3.025 13.601,3.033 13.598,3.03 13.564,3.033 13.548,3.033 13.544,3.03 13.54,3.033 13.495,3.005   13.475,2.998 13.45,3 13.437,3.01 13.43,3.018 13.437,3.039 13.482,3.071 13.573,3.128 13.634,3.169 13.687,3.206 13.728,3.214   13.749,3.21 13.757,3.197 13.751,3.177 13.716,3.132 13.708,3.087 13.716,3.054 13.721,3.042 13.728,3.018 13.757,2.993   13.806,2.98 13.854,2.98 13.87,3.005 13.864,3.046 13.858,3.05 13.864,3.066 13.874,3.074 13.895,3.074 13.928,3.042 13.948,3.021   13.985,3.01 14.03,3.013 14.042,3.025 13.864,3.197 13.749,3.299 13.741,3.299 13.721,3.263 13.639,3.182 13.593,3.162   13.491,3.144 13.373,3.071 13.098,2.898 12.882,2.765 12.869,2.769 12.865,2.769 12.861,2.765 12.873,2.724 12.906,2.646   13.012,2.407 13.025,2.383 13.054,2.438 13.061,2.489 "
   id="polyline19"
   style="fill:#ffd200;fill-rule:evenodd"
   transform="translate(1.500708e-3,1.440165e-7)" />
<polyline
   points="11.867,2.878 11.846,2.919 11.829,2.973 11.821,3.01 11.818,3.013 11.818,3.021 11.813,3.091   11.809,3.132 11.818,3.23 11.854,3.357 11.9,3.427 11.985,3.504 11.998,3.512 11.993,3.542 11.981,3.563 11.911,3.721 11.908,3.726   11.731,3.586 11.727,3.579 11.736,3.532 11.751,3.483 11.76,3.39 11.76,3.329 11.731,3.189 11.695,3.083 11.637,2.973 11.604,2.932   11.593,2.923 11.588,2.919 11.583,2.916 11.588,2.891 11.675,2.704 11.862,2.866 11.867,2.878 "
   id="polyline21"
   style="fill:#ffd200"
   transform="translate(1.500708e-3,1.440165e-7)" />
<polyline
   clip-rule="evenodd"
   points="14.325,2.775 14.378,2.793 14.514,2.846 14.526,2.857   14.485,2.898 14.317,3.025 14.13,3.054 14.116,3.039 14.124,3.021 14.12,2.998 14.071,2.964 14.03,2.957 13.948,2.959 13.946,2.964   13.925,2.959 13.895,2.937 13.847,2.919 13.761,2.923 13.757,2.928 13.741,2.928 13.724,2.891 13.687,2.837 13.687,2.833   13.694,2.825 13.954,2.793 14.243,2.752 14.292,2.76 14.325,2.775 "
   id="polyline23"
   style="fill:#ffd200;fill-rule:evenodd"
   transform="translate(1.500708e-3,1.440165e-7)" />
<polyline
   points="12.91,2.837 12.943,2.857 13.123,2.973 13.151,2.993 13.188,3.013 13.393,3.144 13.401,3.153   13.401,3.162 13.373,3.173 13.343,3.182 13.319,3.197 13.314,3.202 13.286,3.194 13.028,3.033 12.808,2.898 12.794,2.887   12.832,2.825 12.849,2.805 12.885,2.821 12.91,2.837 "
   id="polyline25"
   style="fill:#ffd200"
   transform="translate(1.500708e-3,1.440165e-7)" />
<polyline
   clip-rule="evenodd"
   points="12.681,2.952 12.575,3.115 12.562,3.124 12.504,3.112   12.218,3.136 11.887,3.165 11.883,3.153 11.883,3.141 11.88,3.136 11.883,3.132 11.88,3.063 11.887,3.046 11.903,3.033 12.186,3   12.647,2.944 12.673,2.944 12.681,2.952 "
   id="polyline27"
   style="fill:#ffd200;fill-rule:evenodd"
   transform="translate(1.500708e-3,1.440165e-7)" />
<polyline
   clip-rule="evenodd"
   points="11.375,3.054 11.474,3.063 11.563,3.059 11.588,3.071   11.604,3.091 11.634,3.162 11.654,3.202 11.669,3.255 11.686,3.354 11.683,3.467 11.645,3.59 11.645,3.624 11.703,3.713   11.76,3.803 11.777,3.836 11.777,3.849 11.419,3.93 11.261,3.966 11.252,3.966 11.245,3.958 11.252,3.873 11.261,3.864   11.286,3.869 11.313,3.864 11.33,3.844 11.33,3.832 11.302,3.811 11.245,3.795 11.2,3.757 11.151,3.685 11.118,3.593 11.113,3.565   11.118,3.553 11.22,3.542 11.286,3.544 11.425,3.512 11.44,3.504 11.478,3.512 11.499,3.491 11.501,3.395 11.507,3.39 11.501,3.386   11.511,3.354 11.515,3.316 11.535,3.247 11.535,3.23 11.522,3.218 11.445,3.206 11.389,3.182 11.338,3.141 11.293,3.074   11.286,3.046 11.29,3.033 11.318,3.039 11.375,3.054 "
   id="polyline29"
   style="fill:#ffd200;fill-rule:evenodd"
   transform="translate(1.500708e-3,1.440165e-7)" />
<polyline
   clip-rule="evenodd"
   points="14.894,3.074 14.997,3.115 15.038,3.136 15.079,3.165   15.163,3.23 15.282,3.354 15.337,3.422 15.368,3.497 15.397,3.579 15.405,3.624 15.413,3.672 15.417,3.716 15.405,3.832   15.381,3.934 15.327,4.069 15.245,4.196 15.241,4.196 15.233,4.212 15.143,4.302 15.05,4.375 14.935,4.462 14.819,4.534   14.706,4.605 14.62,4.683 14.559,4.759 14.501,4.854 14.468,4.923 14.419,5.066 14.395,5.173 14.391,5.23 14.398,5.316   14.415,5.374 14.424,5.398 14.383,5.394 14.309,5.321 14.239,5.207 14.219,5.153 14.206,5.05 14.219,4.943 14.243,4.895   14.268,4.872 14.268,4.862 14.26,4.854 14.243,4.858 14.161,4.936 14.13,4.993 14.104,5.05 14.092,5.137 14.097,5.201 14.116,5.292   14.116,5.295 14.089,5.289 14.026,5.227 13.985,5.148 13.974,5.096 13.969,5.066 13.974,5.063 13.969,5.03 13.969,5.015   13.974,5.009 13.969,5.005 13.977,4.952 14.001,4.887 14.038,4.825 14.097,4.78 14.089,4.769 14.063,4.772 14.034,4.79 14.022,4.79   13.928,4.875 13.879,4.952 13.866,4.984 13.854,4.948 13.858,4.833 13.87,4.78 13.892,4.718 13.925,4.669 13.989,4.608   14.059,4.564 14.145,4.531 14.251,4.499 14.415,4.47 14.477,4.452 14.501,4.449 14.591,4.421 14.786,4.322 14.938,4.22 15.046,4.13   15.151,4.007 15.208,3.909 15.241,3.836 15.258,3.767 15.266,3.68 15.271,3.647 15.255,3.558 15.229,3.508 15.163,3.43   15.176,3.374 15.176,3.357 15.159,3.345 15.143,3.349 15.132,3.365 15.126,3.402 15.099,3.483 15.081,3.553 15.073,3.563   15.053,3.553 15.013,3.497 14.979,3.43 14.948,3.333 14.968,3.258 14.972,3.247 14.972,3.23 14.958,3.223 14.938,3.226   14.927,3.238 14.915,3.275 14.854,3.349 14.846,3.374 14.849,3.378 14.846,3.395 14.849,3.422 14.846,3.427 14.866,3.517   14.868,3.529 14.868,3.544 14.856,3.549 14.808,3.542 14.733,3.491 14.677,3.435 14.62,3.345 14.607,3.25 14.603,3.202   14.579,3.197 14.555,3.202 14.546,3.214 14.534,3.299 14.542,3.349 14.583,3.427 14.632,3.5 14.648,3.532 14.673,3.57 14.628,3.583   14.575,3.583 14.569,3.579 14.567,3.583 14.509,3.57 14.448,3.549 14.398,3.517 14.345,3.476 14.309,3.43 14.297,3.395   14.284,3.395 14.239,3.447 14.206,3.538 14.198,3.586 14.202,3.59 14.198,3.624 14.198,3.634 14.194,3.64 14.198,3.645   14.194,3.747 14.198,3.75 14.194,3.754 14.206,3.877 14.215,3.893 14.219,3.925 14.251,4.023 14.264,4.052 14.321,4.143   14.407,4.269 14.497,4.375 14.514,4.392 14.514,4.396 14.48,4.408 14.366,4.433 14.329,4.441 14.313,4.441 14.227,4.326   14.141,4.175 14.097,4.069 14.063,3.975 14.051,3.925 14.026,3.808 14.015,3.716 14.018,3.606 14.034,3.544 14.051,3.491   14.13,3.361 14.161,3.316 14.26,3.21 14.374,3.115 14.465,3.08 14.632,3.046 14.673,3.042 14.774,3.05 14.894,3.074 "
   id="polyline31"
   style="fill:#ffd200;fill-rule:evenodd"
   transform="translate(1.500708e-3,1.440165e-7)" />
<polyline
   points="11.282,3.194 11.354,3.25 11.419,3.275 11.44,3.279 11.445,3.292 11.433,3.427 11.437,3.45   11.425,3.456 11.371,3.45 11.298,3.463 11.232,3.467 11.125,3.471 11.102,3.467 11.077,3.45 11.064,3.398 11.043,3.345   11.023,3.243 11.016,3.177 11.043,3.162 11.167,3.112 11.208,3.1 11.225,3.107 11.282,3.194 "
   id="polyline33"
   style="fill:#ffd200"
   transform="translate(1.500708e-3,1.440165e-7)" />
<polyline
   clip-rule="evenodd"
   points="12.537,3.156 12.534,3.182 12.509,3.234 12.476,3.279   11.944,3.357 11.919,3.324 11.9,3.271 11.9,3.25 11.911,3.243 12.484,3.162 12.529,3.153 12.534,3.156 12.537,3.156 "
   id="polyline35"
   style="fill:#ffd200;fill-rule:evenodd"
   transform="translate(1.500708e-3,1.440165e-7)" />
<polyline
   points="10.926,3.234 10.946,3.255 10.954,3.267 10.961,3.316 10.987,3.395 11.002,3.435 10.982,3.491   10.954,3.532 10.827,3.46 10.729,3.398 10.766,3.32 10.807,3.25 10.832,3.206 10.865,3.21 10.926,3.234 "
   id="polyline37"
   style="fill:#ffd200"
   transform="translate(1.500708e-3,1.440165e-7)" />
<polyline
   clip-rule="evenodd"
   points="12.189,3.624 12.243,3.737 12.304,3.791 12.341,3.808   12.435,3.823 12.517,3.823 12.562,3.89 12.578,3.93 12.517,3.934 12.418,3.93 12.333,3.914 12.255,3.88 12.223,3.859 12.168,3.815   12.116,3.757 12.112,3.672 12.112,3.665 12.116,3.659 12.112,3.655 12.127,3.593 12.148,3.553 12.161,3.542 12.177,3.558   12.189,3.624 "
   id="polyline39"
   style="fill:#ffd200;fill-rule:evenodd"
   transform="translate(1.500708e-3,1.440165e-7)" />
<polyline
   clip-rule="evenodd"
   points="12.967,3.808 13,3.823 13.028,3.832 13.123,3.897   13.192,3.971 13.22,4.003 13.225,4.007 13.225,4.023 13.208,4.041 13.188,4.048 13.163,4.041 13.135,4.012 13.028,3.938   12.955,3.905 12.876,3.89 12.808,3.877 12.8,3.877 12.787,3.798 12.791,3.795 12.791,3.778 12.787,3.774 12.791,3.771 12.876,3.788   12.967,3.808 "
   id="polyline41"
   style="fill:#ffd200;fill-rule:evenodd"
   transform="translate(1.500708e-3,1.440165e-7)" />
<polyline
   points="11.789,3.996 11.789,4.007 11.74,4.057 11.724,4.064 11.719,4.069 11.707,4.057 11.683,3.971   11.678,3.95 11.678,3.938 11.699,3.925 11.719,3.921 11.744,3.921 11.789,3.996 "
   id="polyline43"
   style="fill:#ffd200"
   transform="translate(1.500708e-3,1.440165e-7)" />
<polyline
   points="11.658,4.069 11.662,4.098 11.637,4.123 11.535,4.155 11.474,4.167 11.4,4.164 11.371,4.15   11.351,4.13 11.354,4.007 11.384,3.991 11.593,3.946 11.617,3.946 11.658,4.069 "
   id="polyline45"
   style="fill:#ffd200"
   transform="translate(1.500708e-3,1.440165e-7)" />
<polyline
   clip-rule="evenodd"
   points="12.021,4.021 12.01,4.062 11.965,4.155 11.936,4.196   11.818,4.216 11.751,4.24 11.69,4.278 11.65,4.31 11.593,4.38 11.56,4.452 11.547,4.531 11.542,4.547 11.542,4.56 11.54,4.564   11.228,4.49 11.277,4.348 11.33,4.199 11.338,4.191 11.417,4.216 11.522,4.22 11.614,4.205 11.719,4.158 11.85,4.057 11.887,4   11.932,4.003 12.021,4.021 "
   id="polyline47"
   style="fill:#ffd200;fill-rule:evenodd"
   transform="translate(1.500708e-3,1.440165e-7)" />
<polyline
   points="12.161,4.216 12.304,4.285 12.312,4.298 12.235,4.355 12.209,4.38 12.186,4.375 12.125,4.334   12.013,4.253 12.01,4.249 12.01,4.237 12.054,4.167 12.095,4.188 12.161,4.216 "
   id="polyline49"
   style="fill:#ffd200"
   transform="translate(1.500708e-3,1.440165e-7)" />
<polyline
   clip-rule="evenodd"
   points="12.153,4.417 12.157,4.421 12.157,4.429 12.104,4.47   12.059,4.531 12.054,4.543 12.059,4.567 12.075,4.584 12.112,4.592 12.12,4.592 12.125,4.596 12.107,4.669 12.083,4.776 12.051,4.8   11.977,4.833 11.936,4.81 11.875,4.759 11.654,4.596 11.625,4.575 11.617,4.564 11.621,4.52 11.637,4.465 11.666,4.408   11.777,4.302 11.818,4.281 11.87,4.266 11.891,4.26 11.957,4.266 12.153,4.417 "
   id="polyline51"
   style="fill:#ffd200;fill-rule:evenodd"
   transform="translate(1.500708e-3,1.440165e-7)" />
<polyline
   clip-rule="evenodd"
   points="10.961,4.858 11.049,4.936 11.261,5.153 11.252,5.16   11.122,5.173 11.118,5.168 11.084,5.173 10.982,5.166 10.938,5.148 10.815,5.07 10.888,4.998 10.888,4.981 10.893,4.977   10.88,4.957 10.865,4.943 10.839,4.948 10.815,4.964 10.803,4.984 10.717,5.001 10.643,5.034 10.553,5.042 10.544,5.042   10.544,5.034 10.742,4.892 10.86,4.8 10.888,4.81 10.961,4.858 "
   id="polyline53"
   style="fill:#ffd200;fill-rule:evenodd"
   transform="translate(1.500708e-3,1.440165e-7)" />
<polyline
   clip-rule="evenodd"
   points="13.585,6.188 13.589,6.204 13.577,6.229 13.573,6.252   13.56,6.302 13.548,6.405 13.54,6.455 13.499,6.458 13.454,6.469 13.393,6.478 13.27,6.516 13.204,6.54 13.159,6.564 13.126,6.604   13.118,6.633 13.102,6.678 13.094,6.79 13.094,6.804 13.106,6.814 13.135,6.81 13.192,6.822 13.232,6.842 13.279,6.892   13.299,6.937 13.307,6.978 13.302,7.013 13.291,7.047 13.261,7.091 13.167,7.177 13.143,7.19 13.135,7.177 13.139,7.142   13.135,7.137 13.139,7.132 13.139,7.116 13.135,7.111 13.139,7.108 13.126,7.022 13.106,6.974 13.082,6.948 13.036,6.958   13.025,6.968 13.041,6.989 13.054,7.013 13.057,7.047 13.061,7.149 13.041,7.214 13.005,7.275 12.955,7.333 12.902,7.366   12.808,7.395 12.759,7.395 12.803,7.32 12.835,7.254 12.849,7.214 12.852,7.162 12.849,7.137 12.828,7.091 12.808,7.067   12.794,7.067 12.783,7.081 12.78,7.116 12.762,7.202 12.734,7.284 12.701,7.341 12.626,7.416 12.585,7.438 12.509,7.459   12.48,7.464 12.464,7.464 12.493,7.382 12.5,7.309 12.489,7.275 12.456,7.21 12.439,7.198 12.423,7.207 12.398,7.243 12.398,7.316   12.263,7.375 12.227,7.395 12.218,7.402 12.223,7.418 12.3,7.518 12.341,7.562 12.357,7.6 12.336,7.619 12.127,7.75 12.075,7.775   12.107,7.701 12.166,7.627 12.207,7.583 12.209,7.562 12.202,7.55 12.198,7.545 12.148,7.559 12.095,7.579 12.086,7.579   12.095,7.484 12.086,7.423 12.079,7.386 12.051,7.345 12.021,7.325 12.006,7.316 11.957,7.32 11.911,7.354 11.809,7.464   11.731,7.57 11.719,7.579 11.703,7.57 11.601,7.489 11.568,7.468 11.542,7.468 11.522,7.489 11.519,7.509 11.522,7.525 11.547,7.55   11.583,7.562 11.637,7.603 11.642,7.615 11.629,7.632 11.614,7.723 11.596,7.824 11.596,7.827 11.583,7.816 11.56,7.75   11.519,7.668 11.45,7.509 11.437,7.484 11.419,7.443 11.625,7.35 11.842,7.251 11.859,7.234 11.854,7.218 11.842,7.21 11.839,7.207   11.813,7.21 11.792,7.224 11.765,7.231 11.65,7.279 11.47,7.361 11.44,7.375 11.419,7.369 11.307,7.214 11.293,7.202 11.277,7.202   11.257,7.227 11.261,7.284 11.277,7.313 11.138,7.509 11.11,7.559 11.105,7.562 11.102,7.5 11.122,7.227 11.13,7.198 11.322,7.157   11.417,7.132 11.699,7.054 11.998,6.96 12.3,6.851 12.353,6.825 12.402,6.784 12.448,6.724 12.459,6.633 12.456,6.54 12.452,6.535   12.456,6.531 12.448,6.428 12.452,6.405 12.452,6.393 12.484,6.364 12.496,6.355 12.509,6.343 12.509,6.332 12.514,6.326   12.504,6.311 12.484,6.293 12.443,6.298 12.418,6.311 12.382,6.314 12.312,6.302 12.235,6.266 12.186,6.216 12.148,6.164   12.133,6.109 12.125,6.077 12.133,5.97 12.161,5.915 12.207,5.881 12.218,5.876 12.227,5.876 12.239,5.905 12.289,5.956   12.35,5.986 12.394,6 12.521,6.017 12.525,6.02 12.529,6.017 12.534,6.02 12.537,6.017 12.624,6.024 12.824,6.004 12.958,5.976   13.069,5.935 13.232,5.864 13.352,5.827 13.364,5.827 13.585,6.188 "
   id="polyline55"
   style="fill:#ffd200;fill-rule:evenodd"
   transform="translate(1.500708e-3,1.440165e-7)" />
<polyline
   clip-rule="evenodd"
   points="13.649,5.925 13.675,5.946 13.683,5.956 13.675,5.996   13.661,6.065 13.653,6.093 13.626,6.061 13.581,5.983 13.532,5.894 13.507,5.849 13.626,5.917 13.649,5.925 "
   id="polyline57"
   style="fill:#ffd200;fill-rule:evenodd"
   transform="translate(1.500708e-3,1.440165e-7)" />
<polyline
   clip-rule="evenodd"
   points="11.494,6.896 11.581,6.978 11.593,6.999 11.596,7.001   11.596,7.013 11.396,7.063 11.371,7.067 11.354,7.054 11.354,7.034 11.392,6.989 11.396,6.978 11.392,6.952 11.375,6.937   11.354,6.937 11.327,6.965 11.293,7.005 11.252,7.034 11.093,7.088 11.049,7.101 11.002,7.108 11.002,7.104 11,7.101 11.318,6.781   11.363,6.801 11.494,6.896 "
   id="polyline59"
   style="fill:#ffd200;fill-rule:evenodd"
   transform="translate(1.500708e-3,1.440165e-7)" />
<polyline
   clip-rule="evenodd"
   points="12.021,7.443 12.03,7.5 12.026,7.566 12.006,7.635   11.99,7.792 11.993,7.84 12.018,7.926 12.03,7.95 11.928,8.003 11.829,8.083 11.785,8.126 11.76,8.159 11.703,8.257 11.69,8.315   11.695,8.352 11.731,8.388 11.757,8.388 11.772,8.372 11.76,8.311 11.789,8.267 11.821,8.241 11.854,8.246 11.883,8.267   11.919,8.315 11.94,8.368 11.939,8.425 11.924,8.466 11.875,8.506 11.833,8.527 11.797,8.532 11.792,8.535 11.789,8.532   11.772,8.535 11.724,8.527 11.683,8.502 11.645,8.479 11.601,8.434 11.56,8.359 11.547,8.298 11.555,8.233 11.568,8.195   11.601,8.126 11.707,7.987 11.736,7.939 11.757,7.881 11.757,7.857 11.792,7.836 11.862,7.767 11.887,7.729 11.919,7.647   11.916,7.644 11.924,7.603 11.916,7.533 11.895,7.479 11.895,7.459 11.981,7.382 11.99,7.382 12.021,7.443 "
   id="polyline61"
   style="fill:#ffd200;fill-rule:evenodd"
   transform="translate(1.500708e-3,1.440165e-7)" />
<polyline
   clip-rule="evenodd"
   points="11.036,7.398 11.032,7.432 11.036,7.436 11.032,7.533   11.028,7.539 11.032,7.641 11.036,7.656 11.061,7.676 11.084,7.673 11.122,7.66 11.282,7.432 11.318,7.438 11.354,7.451   11.368,7.451 11.389,7.509 11.501,7.771 11.588,7.929 11.609,7.95 11.684,7.82 11.662,7.915 11.629,7.983 11.617,7.987 11.568,7.97   11.532,7.947 11.499,7.909 11.47,7.849 11.47,7.836 11.458,7.816 11.453,7.795 11.417,7.758 11.392,7.771 11.384,7.778   11.379,7.827 11.379,7.84 11.322,7.833 11.286,7.812 11.225,7.746 11.208,7.709 11.2,7.682 11.2,7.66 11.175,7.635 11.146,7.641   11.13,7.66 11.125,7.682 11.125,7.688 11.122,7.693 11.138,7.742 11.138,7.758 11.084,7.783 11.049,7.812 11.011,7.873 11,7.929   11.002,8.008 11.02,8.049 11.023,8.049 11.023,8.052 10.979,8.037 10.942,8.011 10.896,7.959 10.873,7.909 10.865,7.868   10.86,7.808 10.868,7.75 10.888,7.701 10.929,7.66 10.95,7.641 10.958,7.607 10.942,7.57 10.913,7.525 10.909,7.477 10.917,7.443   10.938,7.402 10.95,7.391 10.961,7.386 11.032,7.391 11.036,7.398 "
   id="polyline63"
   style="fill:#ffd200;fill-rule:evenodd"
   transform="translate(1.500708e-3,1.440165e-7)" />
<polyline
   clip-rule="evenodd"
   points="14.063,7.542 14.157,7.586 14.215,7.632 14.231,7.647   14.239,7.673 14.21,7.696 14.112,7.742 14.015,7.771 13.981,7.767 13.948,7.754 13.925,7.75 13.919,7.746 13.993,7.619   13.989,7.607 13.977,7.6 13.933,7.615 13.843,7.729 13.782,7.787 13.708,7.836 13.69,7.84 13.817,7.586 13.866,7.492 13.96,7.509   14.063,7.542 "
   id="polyline65"
   style="fill:#ffd200;fill-rule:evenodd"
   transform="translate(1.500708e-3,1.440165e-7)" />
<polyline
   clip-rule="evenodd"
   points="11.818,7.668 11.801,7.705 11.768,7.75 11.695,7.808   11.678,7.837 11.678,7.787 11.69,7.758 11.695,7.734 11.71,7.676 11.71,7.656 11.736,7.647 11.748,7.635 11.785,7.656 11.818,7.668   "
   id="polyline67"
   style="fill:#ffd200;fill-rule:evenodd"
   transform="translate(1.500708e-3,1.440165e-7)" />
<polyline
   clip-rule="evenodd"
   points="12.268,7.873 12.374,7.905 12.578,7.955 12.794,7.996   13.005,8.017 13.47,8.024 13.724,8.008 13.721,8.058 13.7,8.146 13.69,8.154 13.414,8.167 13.143,8.154 12.975,8.138 12.835,8.118   12.677,8.085 12.459,8.024 12.279,7.962 12.075,7.89 12.059,7.849 12.059,7.824 12.075,7.808 12.116,7.816 12.268,7.873 "
   id="polyline69"
   style="fill:#ffd200;fill-rule:evenodd"
   transform="translate(1.500708e-3,1.440165e-7)" />
<polyline
   points="12.32,8.062 12.5,8.099 12.585,8.118 12.75,8.151 13.057,8.192 13.227,8.205 13.381,8.208   13.683,8.212 13.687,8.226 13.675,8.273 13.669,8.315 13.653,8.393 13.646,8.4 13.389,8.404 13.135,8.393 12.992,8.379   12.856,8.359 12.652,8.315 12.48,8.273 12.198,8.179 12.001,8.103 11.936,8.077 11.932,8.073 11.952,8.052 12.006,8.021   12.054,8.008 12.092,8.003 12.168,8.017 12.32,8.062 "
   id="polyline71"
   style="fill:#ffd200"
   transform="translate(1.500708e-3,1.440165e-7)" />
<polyline
   clip-rule="evenodd"
   points="14.62,8.105 14.641,8.126 14.661,8.13 14.677,8.13   14.682,8.126 14.685,8.13 14.689,8.138 14.682,8.195 14.648,8.216 14.559,8.25 14.509,8.257 14.485,8.257 14.521,8.151   14.575,8.049 14.579,8.028 14.587,8.028 14.62,8.105 "
   id="polyline73"
   style="fill:#ffd200;fill-rule:evenodd"
   transform="translate(1.500708e-3,1.440165e-7)" />
<polyline
   clip-rule="evenodd"
   points="14.048,8.175 13.96,8.277 13.966,8.302 13.989,8.318   13.997,8.327 13.997,8.335 13.954,8.355 13.919,8.359 13.864,8.372 13.761,8.379 13.757,8.376 13.813,8.311 13.905,8.185   13.911,8.185 13.919,8.205 13.936,8.22 13.969,8.216 14.042,8.159 14.051,8.159 14.048,8.175 "
   id="polyline75"
   style="fill:#ffd200;fill-rule:evenodd"
   transform="translate(1.500708e-3,1.440165e-7)" />
<path
   d="M 12.816501,3.169 L 12.836501,3.181 L 12.844501,3.189 L 12.836501,3.238 L 12.844501,3.255 L 12.841501,3.291 L 12.808501,3.316 L 12.729501,3.348 L 12.681501,3.381 L 12.661501,3.381 L 12.653501,3.373 L 12.649501,3.353 L 12.674501,3.32 L 12.723501,3.279 L 12.735501,3.243 L 12.707501,3.225 L 12.682501,3.222 L 12.674501,3.222 L 12.653501,3.21 L 12.633501,3.197 L 12.628501,3.181 L 12.633501,3.156 L 12.649501,3.153 L 12.715501,3.173 L 12.816501,3.169 M 12.968501,3.087 L 13.042501,3.132 L 13.050501,3.14 L 13.067501,3.148 L 13.103501,3.173 L 13.181501,3.238 L 13.218501,3.279 L 13.221501,3.299 L 13.218501,3.312 L 13.205501,3.337 L 13.210501,3.365 L 13.226501,3.378 L 13.251501,3.373 L 13.280501,3.32 L 13.344501,3.255 L 13.402501,3.222 L 13.486501,3.21 L 13.545501,3.214 L 13.578501,3.225 L 13.630501,3.266 L 13.668501,3.32 L 13.670501,3.34 L 13.676501,3.348 L 13.676501,3.357 L 13.668501,3.394 L 13.643501,3.434 L 13.594501,3.471 L 13.561501,3.491 L 13.500501,3.504 L 13.451501,3.504 L 13.422501,3.512 L 13.402501,3.532 L 13.406501,3.553 L 13.446501,3.562 L 13.550501,3.553 L 13.652501,3.512 L 13.718501,3.471 L 13.808501,3.389 L 13.820501,3.409 L 13.826501,3.434 L 13.826501,3.442 L 13.834501,3.475 L 13.826501,3.541 L 13.826501,3.549 L 13.801501,3.598 L 13.681501,3.692 L 13.610501,3.733 L 13.541501,3.754 L 13.527501,3.77 L 13.533501,3.79 L 13.541501,3.798 L 13.568501,3.803 L 13.660501,3.778 L 13.711501,3.757 L 13.791501,3.705 L 13.834501,3.664 L 13.848501,3.651 L 13.856501,3.651 L 13.866501,3.659 L 13.872501,3.688 L 13.881501,3.737 L 13.876501,3.787 L 13.856501,3.848 L 13.815501,3.905 L 13.770501,3.941 L 13.692501,3.991 L 13.655501,4.007 L 13.550501,4.04 L 13.538501,4.052 L 13.546501,4.073 L 13.575501,4.084 L 13.647501,4.081 L 13.681501,4.073 L 13.758501,4.04 L 13.856501,3.966 L 13.876501,3.946 L 13.886501,3.946 L 13.897501,3.971 L 13.910501,4.012 L 13.902501,4.114 L 13.871501,4.175 L 13.832501,4.227 L 13.758501,4.281 L 13.695501,4.31 L 13.650501,4.323 L 13.565501,4.331 L 13.500501,4.335 L 13.492501,4.348 L 13.496501,4.376 L 13.517501,4.389 L 13.574501,4.4 L 13.650501,4.396 L 13.742501,4.371 L 13.851501,4.309 L 13.865501,4.298 L 13.871501,4.298 L 13.875501,4.318 L 13.875501,4.339 L 13.880501,4.35 L 13.867501,4.424 L 13.832501,4.503 L 13.785501,4.551 L 13.742501,4.588 L 13.668501,4.621 L 13.533501,4.641 L 13.409501,4.637 L 13.384501,4.637 L 13.376501,4.633 L 13.352501,4.637 L 13.343501,4.649 L 13.348501,4.669 L 13.364501,4.687 L 13.421501,4.703 L 13.507501,4.707 L 13.601501,4.698 L 13.619501,4.698 L 13.717501,4.677 L 13.758501,4.662 L 13.766501,4.666 L 13.743501,4.739 L 13.701501,4.797 L 13.642501,4.838 L 13.581501,4.866 L 13.511501,4.882 L 13.356501,4.891 L 13.258501,4.882 L 13.220501,4.862 L 13.209501,4.862 L 13.192501,4.879 L 13.209501,4.912 L 13.230501,4.923 L 13.360501,4.948 L 13.458501,4.952 L 13.560501,4.935 L 13.589501,4.923 L 13.609501,4.928 L 13.851501,5.181 L 14.072501,5.398 L 14.293501,5.594 L 14.425501,5.692 L 14.523501,5.697 L 14.609501,5.68 L 14.663501,5.659 L 14.708501,5.627 L 14.769501,5.549 L 14.810501,5.455 L 14.828501,5.402 L 14.844501,5.337 L 14.838501,5.222 L 14.815501,5.124 L 14.782501,5.042 L 14.726501,4.935 L 14.631501,4.805 L 14.635501,4.776 L 14.737501,4.654 L 14.758501,4.657 L 14.815501,4.715 L 14.960501,4.928 L 15.033501,5.1 L 15.058501,5.169 L 15.115501,5.186 L 15.136501,5.182 L 15.153501,5.182 L 15.206501,5.186 L 15.317501,5.174 L 15.419501,5.138 L 15.428501,5.149 L 15.419501,5.248 L 15.346501,5.358 L 15.298501,5.403 L 15.216501,5.432 L 15.120501,5.44 L 15.075501,5.435 L 15.059501,5.452 L 15.054501,5.473 L 15.059501,5.489 L 15.080501,5.5 L 15.182501,5.516 L 15.259501,5.508 L 15.410501,5.459 L 15.447501,5.443 L 15.468501,5.443 L 15.455501,5.496 L 15.402501,5.598 L 15.352501,5.656 L 15.291501,5.7 L 15.209501,5.73 L 15.095501,5.75 L 15.062501,5.753 L 15.000501,5.746 L 14.965501,5.725 L 14.957501,5.725 L 14.850501,5.848 L 14.772501,5.905 L 14.735501,5.922 L 14.626501,5.955 L 14.561501,5.963 L 14.490501,5.95 L 14.440501,5.925 L 14.412501,5.905 L 14.399501,5.909 L 14.427501,5.963 L 14.468501,6.004 L 14.522501,6.106 L 14.535501,6.163 L 14.539501,6.331 L 14.539501,6.364 L 14.527501,6.461 L 14.539501,6.51 L 14.576501,6.559 L 14.611501,6.592 L 14.670501,6.62 L 14.775501,6.645 L 14.854501,6.678 L 14.902501,6.715 L 14.935501,6.764 L 14.939501,6.793 L 14.923501,6.919 L 14.909501,6.957 L 14.917501,6.989 L 14.935501,7.001 L 14.976501,7.005 L 15.080501,7.075 L 15.182501,7.182 L 15.231501,7.272 L 15.247501,7.328 L 15.257501,7.394 L 15.247501,7.451 L 15.251501,7.459 L 15.235501,7.525 L 15.218501,7.578 L 15.197501,7.619 L 15.156501,7.53 L 15.119501,7.471 L 15.047501,7.394 L 15.022501,7.386 L 14.999501,7.386 L 14.978501,7.402 L 14.978501,7.415 L 15.068501,7.512 L 15.113501,7.582 L 15.142501,7.664 L 15.150501,7.722 L 15.145501,7.803 L 15.136501,7.84 L 15.123501,7.885 L 15.092501,7.947 L 15.067501,7.962 L 15.041501,7.905 L 14.992501,7.848 L 14.891501,7.771 L 14.883501,7.771 L 14.847501,7.746 L 14.834501,7.743 L 14.813501,7.764 L 14.806501,7.796 L 14.806501,7.804 L 14.936501,7.943 L 14.944501,7.96 L 14.936501,8.004 L 14.883501,8.094 L 14.779501,8.274 L 14.764501,8.303 L 14.747501,8.323 L 14.744501,8.27 L 14.748501,8.242 L 14.756501,8.131 L 14.765501,8.114 L 14.786501,8.106 L 14.829501,8.103 L 14.843501,8.09 L 14.848501,8.066 L 14.818501,8.037 L 14.766501,8.042 L 14.749501,8.05 L 14.679501,8.058 L 14.663501,8.029 L 14.618501,7.849 L 14.604501,7.84 L 14.564501,7.852 L 14.536501,7.885 L 14.481501,8.049 L 14.419501,8.163 L 14.386501,8.241 L 14.379501,8.25 L 14.375501,8.27 L 14.363501,8.283 L 14.355501,8.283 L 14.261501,8.195 L 14.216501,8.179 L 14.203501,8.179 L 14.191501,8.192 L 14.191501,8.204 L 14.199501,8.228 L 14.232501,8.253 L 14.264501,8.29 L 14.314501,8.4 L 14.326501,8.433 L 14.346501,8.486 L 14.356501,8.514 L 14.343501,8.514 L 14.162501,8.379 L 14.059501,8.29 L 14.056501,8.282 L 14.056501,8.267 L 14.210501,8.074 L 14.345501,7.89 L 14.345501,7.881 L 14.329501,7.865 L 14.297501,7.868 L 14.157501,8.028 L 14.116501,8.073 L 14.042501,8.089 L 13.969501,8.126 L 13.956501,8.113 L 13.935501,8.02 L 13.932501,7.991 L 13.932501,7.983 L 13.899501,7.959 L 13.891501,7.959 L 13.871501,7.962 L 13.865501,7.983 L 13.859501,8.016 L 13.865501,8.028 L 13.855501,8.082 L 13.847501,8.098 L 13.839501,8.146 L 13.782501,8.204 L 13.743501,8.245 L 13.757501,8.167 L 13.769501,8.105 L 13.773501,8.073 L 13.798501,7.942 L 13.806501,7.918 L 13.818501,7.905 L 13.900501,7.881 L 14.031501,7.844 L 14.236501,7.783 L 14.305501,7.745 L 14.363501,7.688 L 14.416501,7.578 L 14.449501,7.484 L 14.481501,7.357 L 14.502501,7.226 L 14.494501,7.177 L 14.466501,7.116 L 14.371501,7.026 L 14.277501,6.985 L 14.162501,6.936 L 14.125501,6.924 L 14.072501,6.878 L 14.056501,6.883 L 14.048501,6.896 L 14.051501,7.034 L 14.038501,7.108 L 14.015501,7.173 L 13.974501,7.231 L 13.906501,7.292 L 13.840501,7.328 L 13.799501,7.336 L 13.681501,7.329 L 13.744501,7.247 L 13.762501,7.211 L 13.766501,7.174 L 13.762501,7.166 L 13.766501,7.158 L 13.758501,7.096 L 13.737501,7.035 L 13.725501,6.978 L 13.696501,6.879 L 13.655501,6.72 L 13.643501,6.642 L 13.630501,6.557 L 13.627501,6.455 L 13.635501,6.385 L 13.635501,6.367 L 13.647501,6.331 L 13.651501,6.302 L 13.681501,6.232 L 13.717501,6.155 L 13.744501,6.06 L 13.762501,5.986 L 13.758501,5.893 L 13.725501,5.771 L 13.709501,5.725 L 13.688501,5.68 L 13.663501,5.651 L 13.630501,5.61 L 13.586501,5.574 L 13.537501,5.549 L 13.516501,5.554 L 13.503501,5.566 L 13.507501,5.59 L 13.618501,5.705 L 13.641501,5.753 L 13.659501,5.807 L 13.659501,5.827 L 13.638501,5.823 L 13.576501,5.787 L 13.326501,5.668 L 13.171501,5.602 L 12.950501,5.521 L 12.901501,5.505 L 12.950501,5.431 L 12.974501,5.341 L 12.983501,5.247 L 12.978501,5.127 L 12.954501,5.055 L 12.942501,5.046 L 12.923501,5.05 L 12.907501,5.063 L 12.899501,5.096 L 12.903501,5.104 L 12.903501,5.23 L 12.891501,5.337 L 12.870501,5.393 L 12.842501,5.451 L 12.804501,5.5 L 12.743501,5.546 L 12.694501,5.566 L 12.641501,5.574 L 12.538501,5.586 L 12.526501,5.586 L 12.576501,5.439 L 12.596501,5.3 L 12.587501,5.23 L 12.571501,5.198 L 12.563501,5.189 L 12.538501,5.193 L 12.518501,5.222 L 12.505501,5.271 L 12.490501,5.406 L 12.477501,5.451 L 12.461501,5.513 L 12.420501,5.566 L 12.383501,5.602 L 12.305501,5.651 L 12.224501,5.68 L 12.162501,5.68 L 12.224501,5.574 L 12.256501,5.508 L 12.269501,5.459 L 12.277501,5.414 L 12.269501,5.365 L 12.244501,5.344 L 12.219501,5.35 L 12.199501,5.366 L 12.167501,5.485 L 12.113501,5.59 L 12.047501,5.648 L 11.986501,5.684 L 11.921501,5.709 L 11.810501,5.717 L 11.737501,5.705 L 11.847501,5.59 L 11.863501,5.566 L 11.863501,5.542 L 11.847501,5.522 L 11.827501,5.517 L 11.814501,5.522 L 11.806501,5.522 L 11.766501,5.555 L 11.691501,5.599 L 11.561501,5.665 L 11.548501,5.685 L 11.553501,5.693 L 11.573501,5.849 L 11.541501,5.869 L 11.397501,5.91 L 11.270501,5.935 L 11.237501,5.935 L 11.315501,5.857 L 11.356501,5.8 L 11.401501,5.815 L 11.471501,5.835 L 11.483501,5.827 L 11.495501,5.815 L 11.495501,5.788 L 11.479501,5.767 L 11.430501,5.75 L 11.401501,5.738 L 11.369501,5.73 L 11.360501,5.721 L 11.364501,5.68 L 11.397501,5.598 L 11.401501,5.577 L 11.397501,5.566 L 11.377501,5.549 L 11.349501,5.554 L 11.311501,5.577 L 11.165501,5.721 L 11.082501,5.782 L 11.070501,5.738 L 11.065501,5.68 L 11.057501,5.659 L 11.032501,5.635 L 11.011501,5.635 L 10.983501,5.664 L 11.041501,6.004 L 11.008501,5.966 L 10.877501,5.779 L 10.783501,5.648 L 10.783501,5.635 L 10.954501,5.557 L 11.220501,5.431 L 11.228501,5.418 L 11.225501,5.393 L 11.195501,5.373 L 11.036501,5.439 L 10.991501,5.459 L 10.885501,5.464 L 10.787501,5.48 L 10.784501,5.467 L 10.796501,5.414 L 10.812501,5.362 L 10.817501,5.316 L 10.817501,5.3 L 10.787501,5.275 L 10.771501,5.275 L 10.746501,5.3 L 10.738501,5.324 L 10.726501,5.426 L 10.705501,5.447 L 10.656501,5.472 L 10.603501,5.488 L 10.521501,5.517 L 10.681501,5.268 L 10.685501,5.256 L 10.710501,5.227 L 10.735501,5.186 L 10.779501,5.194 L 10.861501,5.223 L 10.902501,5.235 L 11.004501,5.248 L 11.152501,5.251 L 11.270501,5.235 L 11.364501,5.21 L 11.533501,5.133 L 12.522501,4.642 L 12.608501,4.626 L 12.628501,4.606 L 12.628501,4.576 L 12.608501,4.56 L 12.567501,4.556 L 12.526501,4.565 L 12.424501,4.614 L 12.260501,4.69 L 12.228501,4.71 L 12.199501,4.718 L 12.178501,4.731 L 12.191501,4.662 L 12.240501,4.555 L 12.231501,4.54 L 12.202501,4.527 L 12.174501,4.524 L 12.190501,4.499 L 12.309501,4.397 L 12.386501,4.348 L 12.521501,4.29 L 12.599501,4.269 L 12.619501,4.269 L 12.648501,4.261 L 12.709501,4.258 L 12.729501,4.261 L 12.742501,4.258 L 12.849501,4.269 L 12.939501,4.295 L 12.984501,4.31 L 12.992501,4.315 L 13.033501,4.315 L 13.057501,4.29 L 13.055501,4.24 L 13.029501,4.22 L 13.001501,4.228 L 12.988501,4.233 L 12.948501,4.225 L 12.878501,4.205 L 12.740501,4.184 L 12.715501,4.18 L 12.686501,4.159 L 12.658501,4.123 L 12.658501,4.084 L 12.694501,4.052 L 12.707501,4.04 L 12.666501,3.958 L 12.661501,3.934 L 12.661501,3.914 L 12.727501,3.942 L 12.763501,3.975 L 12.845501,4.041 L 12.858501,4.044 L 12.870501,4.057 L 12.944501,4.095 L 13.075501,4.118 L 13.111501,4.118 L 13.119501,4.123 L 13.226501,4.111 L 13.254501,4.098 L 13.283501,4.065 L 13.312501,3.996 L 13.316501,3.951 L 13.308501,3.898 L 13.287501,3.84 L 13.246501,3.767 L 13.136501,3.64 L 13.078501,3.594 L 13.017501,3.574 L 12.940501,3.566 L 12.878501,3.583 L 12.822501,3.62 L 12.751501,3.685 L 12.719501,3.742 L 12.719501,3.758 L 12.710501,3.767 L 12.702501,3.808 L 12.707501,3.819 L 12.710501,3.84 L 12.710501,3.86 L 12.682501,3.852 L 12.641501,3.811 L 12.600501,3.75 L 12.592501,3.714 L 12.555501,3.676 L 12.535501,3.632 L 12.526501,3.59 L 12.567501,3.512 L 12.592501,3.447 L 12.584501,3.439 L 12.555501,3.45 L 12.497501,3.508 L 12.481501,3.524 L 12.473501,3.524 L 12.452501,3.491 L 12.456501,3.447 L 12.554501,3.287 L 12.603501,3.21 L 12.619501,3.164 L 12.718501,3.021 L 12.759501,2.969 L 12.852501,3.017 L 12.968501,3.087 z M 12.682501,3.675 L 12.678501,3.696 L 12.661501,3.708 L 12.628501,3.713 L 12.608501,3.716 L 12.600501,3.708 L 12.608501,3.68 L 12.625501,3.668 L 12.678501,3.672 L 12.682501,3.675 z "
   style="fill:#ffd200;fill-rule:evenodd"
   id="path77" />
<rect
   width="26.513"
   height="8.9180002"
   x="0.1575007"
   y="25.739"
   style="fill:#ffd200"
   id="rect79" />
<rect
   width="26.513"
   height="8.9180002"
   x="0.1575007"
   y="25.739"
   style="fill:none;stroke:#ffd200;stroke-width:0.096;stroke-miterlimit:3.86400008"
   id="rect81" />
<path
   d="M 26.578501,34.312 L 0.15750071,34.312 M 0.15750071,33.907 L 26.489501,33.907 M 0.065500708,26.488 L 26.488501,26.488 M 0.15750071,26.027 L 26.489501,26.086"
   style="fill:none;stroke:#737477;stroke-width:0.096;stroke-miterlimit:3.86400008;stroke-dasharray:2.523, 2.523"
   id="path83" />
<path
   d="M 0.11950071,34.31 L 0.80750071,33.834 L 1.4585007,34.293 L 2.2835007,33.879 L 2.9115007,34.271 L 3.5345007,33.879 L 4.1055007,34.332 L 4.7055007,33.879 L 5.2995007,34.293 L 6.1525007,33.879 L 6.7235007,34.315 L 7.4325007,33.879 L 8.1485007,34.315 L 9.0815007,33.858 L 9.6525007,34.315 L 10.281501,33.879 L 11.019501,34.332 L 11.532501,33.9 L 12.184501,34.27 L 12.697501,33.9 L 13.435501,34.314 L 13.861501,33.9 L 14.715501,34.293 L 15.569501,33.9 L 16.278501,34.293 L 17.022501,33.879 L 17.586501,34.315 L 18.359501,33.901 L 18.923501,34.315 L 19.292501,33.901 L 20.095501,34.294 L 20.631501,33.88 L 21.454501,34.294 L 22.142501,33.946 L 22.764501,34.294 L 23.133501,33.925 L 24.159501,34.294 L 24.673501,33.88 L 25.186501,34.316 L 25.555501,33.947 L 25.924501,34.295 L 26.438501,33.947 L 26.691501,34.295 M 0.21050071,26.469 L 0.75350071,26.014 L 1.4045007,26.471 L 2.2285007,26.058 L 2.8575007,26.45 L 3.4805007,26.058 L 4.0515007,26.51 L 4.6515007,26.058 L 5.2445007,26.471 L 6.0985007,26.058 L 6.6695007,26.494 L 7.3785007,26.058 L 8.0935007,26.494 L 9.0275007,26.036 L 9.5985007,26.494 L 10.227501,26.058 L 10.965501,26.51 L 11.478501,26.08 L 12.130501,26.449 L 12.643501,26.08 L 13.381501,26.493 L 13.807501,26.08 L 14.661501,26.471 L 15.514501,26.08 L 16.223501,26.471 L 16.968501,26.058 L 17.532501,26.494 L 18.305501,26.081 L 18.869501,26.494 L 19.238501,26.081 L 20.039501,26.472 L 20.576501,26.059 L 21.400501,26.472 L 22.087501,26.124 L 22.709501,26.472 L 23.078501,26.103 L 24.105501,26.472 L 24.619501,26.059 L 25.132501,26.495 L 25.500501,26.125 L 25.869501,26.473 L 26.383501,26.125 L 26.637501,26.473 M 21.912501,28.453 C 21.912501,28.453 24.470501,28.484 26.668501,30.112 M 26.668501,30.727 C 26.668501,30.727 24.658501,28.642 20.969501,28.851 M 17.617501,31.191 C 17.617501,31.191 15.758501,30.991 15.086501,31.478 M 2.3575007,30.23 C 2.3575007,30.23 1.5875007,29.505 1.0395007,29.854 M 9.0905007,29.508 C 9.0905007,29.508 8.8645007,29.549 8.5005007,29.502 C 8.1385007,29.457 6.8185007,29.476 6.7585007,29.314 M 8.5195007,28.224 L 7.9605007,28.141 L 7.9115007,28.029 L 7.9915007,27.852 L 8.2215007,27.818 L 8.4635007,27.806 L 8.3205007,27.768 L 8.2475007,27.576 L 8.3445007,27.504 L 8.7885007,27.409 L 9.2205007,27.56 L 9.3615007,27.746 L 9.4295007,27.887 L 9.2375007,28.002 L 8.9835007,28.017 L 9.1535007,28.207 L 9.0735007,28.385 L 8.9195007,28.442 L 8.7285007,28.44 L 8.5635007,28.374 L 8.5195007,28.224 z M 3.8865007,28.809 C 3.8865007,28.809 7.7975007,28.693 8.2745007,28.232 M 0.12450071,30.526 C 0.12450071,30.526 3.0055007,27.183 9.9405007,31.116 C 9.9405007,31.116 13.890501,32.928 17.057501,30.426 C 18.940501,28.938 20.539501,28.846 20.969501,28.851 C 21.043501,28.852 21.082501,28.855 21.082501,28.855 C 21.082501,28.855 20.353501,29.489 21.082501,28.855 M 0.037500708,30.053 C 0.037500708,30.053 2.9745007,26.83 9.9095007,30.764 C 9.9095007,30.764 13.703501,32.652 16.869501,30.149 C 19.074501,28.405 20.893501,28.578 20.893501,28.578 C 20.893501,28.578 22.281501,28.601 23.008501,27.968 C 23.736501,27.333 23.008501,27.968 23.008501,27.968 L 23.161501,27.689 L 22.610501,27.757 C 22.454501,27.751 22.342501,27.681 22.278501,27.55 L 22.520501,27.386 L 23.101501,27.294 L 23.131501,27.179 C 23.131501,27.179 22.832501,27.212 22.856501,27.107 C 22.747501,27.078 22.985501,26.923 22.985501,26.923 L 23.225501,26.833 C 23.288501,26.775 23.571501,26.882 23.571501,26.882 L 23.687501,26.986 C 23.687501,26.986 23.834501,27.193 23.811501,27.256 C 23.796501,27.309 23.528501,27.272 23.528501,27.272 L 23.649501,27.387 L 23.831501,27.644 L 23.710501,27.831 L 23.403501,27.806 L 23.161501,27.691"
   style="fill:none;stroke:#737477;stroke-width:0.096;stroke-miterlimit:3.86400008;stroke-dasharray:1.261, 1.261"
   id="path85" />
<path
   d="M 9.0645007,29.576 C 9.0645007,29.576 9.8695007,27.681 12.056501,28.702 C 12.056501,28.702 12.600501,27.7 14.261501,28.416 C 14.261501,28.416 15.029501,27.74 16.118501,28.365 L 16.116501,28.434 C 16.116501,28.434 17.142501,27.738 17.876501,28.374 C 17.415501,29.12 16.347501,28.939 16.347501,28.939 L 16.272501,28.987 C 15.490501,29.839 14.328501,29.388 14.328501,29.388 C 13.037501,30.459 12.176501,29.633 12.176501,29.633 C 10.510501,31.119 9.0825007,29.465 9.0825007,29.465 C 9.0825007,29.465 15.901501,28.994 17.793501,28.404"
   style="fill:none;stroke:#737477;stroke-width:0.087;stroke-miterlimit:3.86400008;stroke-dasharray:1.261, 1.261"
   id="path87" />
<path
   d="M 2.2365007,30.291 C 2.2365007,30.291 4.4565007,28.867 5.7285007,30.811 C 5.7285007,30.811 7.0155007,30.112 8.0285007,31.532 C 8.0285007,31.532 9.2735007,31.241 9.8165007,32.319 L 9.7625007,32.383 C 9.7625007,32.383 11.266501,32.188 11.467501,33.117 C 10.457501,33.612 9.5895007,32.963 9.5895007,32.963 L 9.4815007,32.975 C 8.0875007,33.426 7.3395007,32.479 7.3395007,32.479 C 5.2965007,32.91 5.1215007,31.744 5.1215007,31.744 C 2.4055007,32.396 2.3365007,30.195 2.3365007,30.195 C 2.3365007,30.195 9.1255007,32.814 11.362501,33.11"
   style="fill:none;stroke:#737477;stroke-width:0.096;stroke-miterlimit:3.86400008;stroke-dasharray:1.261, 1.261"
   id="path89" />
<path
   d="M 17.513501,31.25 C 17.513501,31.25 19.224501,29.746 20.714501,31.338 C 20.714501,31.338 21.728501,30.578 22.891501,31.732 C 22.891501,31.732 23.944501,31.338 24.625501,32.239 L 24.589501,32.302 C 24.589501,32.302 25.891501,31.968 26.240501,32.774 C 25.433501,33.322 24.541501,32.837 24.541501,32.837 L 24.447501,32.859 C 23.291501,33.409 22.451501,32.648 22.451501,32.648 C 20.716501,33.251 20.346501,32.233 20.346501,32.233 C 18.051501,33.104 17.584501,31.155 17.584501,31.155 C 17.584501,31.155 24.102501,32.755 26.146501,32.776"
   style="fill:none;stroke:#737477;stroke-width:0.087;stroke-miterlimit:3.86400008;stroke-dasharray:1.261, 1.261"
   id="path91" />
</svg>