<?xml version="1.0" encoding="UTF-8" standalone="no"?>
<!-- Created with Inkscape (http://www.inkscape.org/) -->
<svg
   xmlns:svg="http://www.w3.org/2000/svg"
   xmlns="http://www.w3.org/2000/svg"
   version="1.0"
   width="553.81128"
   height="800.26971"
   viewBox="0 0 26.53 38.335"
   id="Layer_1"
   xml:space="preserve"><defs
   id="defs80" />
<rect
   width="26.459"
   height="38.264999"
   x="0.035"
   y="0.034277905"
   id="rect3" />
<rect
   width="26.459"
   height="38.264999"
   x="0.035"
   y="0.034277905"
   style="fill:none;stroke:black;stroke-width:0.07;stroke-miterlimit:3.86400008"
   id="rect5" />
<rect
   width="26.459"
   height="3.7190001"
   x="0.035"
   y="32.159279"
   style="fill:#ffd200"
   id="rect7" />
<rect
   width="26.459"
   height="3.7190001"
   x="0.035"
   y="32.159279"
   style="fill:none;stroke:#ffd200;stroke-width:0.07;stroke-miterlimit:3.86400008"
   id="rect9" />
<rect
   width="26.459"
   height="3.72"
   x="0.035"
   y="23.59528"
   style="fill:#ffd200"
   id="rect11" />
<rect
   width="26.459"
   height="3.72"
   x="0.035"
   y="23.59528"
   style="fill:none;stroke:#ffd200;stroke-width:0.07;stroke-miterlimit:3.86400008"
   id="rect13" />
<rect
   width="26.459"
   height="2.1259999"
   x="0.035"
   y="28.615278"
   style="fill:#ffd200"
   id="rect15" />
<rect
   width="26.459"
   height="2.1259999"
   x="0.035"
   y="28.615278"
   style="fill:none;stroke:#ffd200;stroke-width:0.07;stroke-miterlimit:3.86400008"
   id="rect17" />
<polyline
   clip-rule="evenodd"
   points="12.321,14.354 12.321,14.363 12.301,14.379   12.288,14.392 12.288,14.4 12.285,14.404 12.301,14.428 12.313,14.432 12.35,14.424 12.378,14.432 12.399,14.456 12.411,14.51   12.395,14.543 12.362,14.576 12.329,14.592 12.301,14.596 12.255,14.571 12.244,14.576 12.223,14.596 12.227,14.609 12.293,14.653   12.411,14.731 12.505,14.788 12.526,14.783 12.542,14.763 12.538,14.743 12.505,14.719 12.48,14.711 12.448,14.686 12.436,14.661   12.439,14.617 12.465,14.563 12.493,14.538 12.559,14.543 12.559,14.547 12.575,14.555 12.595,14.596 12.6,14.617 12.62,14.637   12.636,14.637 12.657,14.612 12.649,14.584 12.653,14.579 12.649,14.568 12.653,14.538 12.677,14.514 12.698,14.51 12.705,14.51   12.71,14.506 12.756,14.514 12.792,14.527 12.817,14.547 12.833,14.568 12.837,14.625 12.833,14.653 12.787,14.69 12.767,14.698   12.756,14.727 12.763,14.743 12.784,14.755 12.833,14.747 12.858,14.735 12.894,14.739 12.915,14.755 12.935,14.78 12.939,14.804   12.935,14.809 12.939,14.813 12.922,14.857 12.902,14.878 12.882,14.89 12.861,14.898 12.858,14.895 12.825,14.898 12.808,14.898   12.804,14.895 12.8,14.898 12.756,14.87 12.735,14.862 12.71,14.865 12.698,14.874 12.689,14.883 12.698,14.903 12.743,14.936   12.833,14.993 12.894,15.034 12.947,15.07 12.988,15.079 13.009,15.074 13.017,15.062 13.012,15.042 12.976,14.997 12.968,14.952   12.976,14.919 12.98,14.906 12.988,14.883 13.017,14.857 13.066,14.845 13.116,14.845 13.131,14.87 13.124,14.911 13.12,14.915   13.124,14.931 13.135,14.939 13.155,14.939 13.188,14.906 13.209,14.886 13.247,14.874 13.292,14.878 13.303,14.89 13.124,15.062   13.009,15.164 13.001,15.164 12.98,15.128 12.899,15.046 12.853,15.026 12.751,15.009 12.633,14.936 12.358,14.763 12.142,14.629   12.129,14.633 12.125,14.633 12.121,14.629 12.133,14.588 12.166,14.51 12.272,14.272 12.285,14.248 12.313,14.302 12.321,14.354   "
   id="polyline19"
   style="fill:#ffd200;fill-rule:evenodd"
   transform="translate(1.429942e-7,-7.220948e-4)" />
<polyline
   points="11.127,14.743 11.106,14.783 11.09,14.837 11.081,14.874 11.078,14.878 11.078,14.886   11.073,14.956 11.069,14.997 11.078,15.095 11.115,15.222 11.16,15.291 11.245,15.369 11.258,15.377 11.253,15.406 11.242,15.427   11.171,15.586 11.168,15.59 10.992,15.451 10.987,15.443 10.996,15.397 11.012,15.348 11.02,15.254 11.02,15.193 10.992,15.054   10.955,14.947 10.897,14.837 10.864,14.796 10.853,14.788 10.848,14.783 10.844,14.78 10.848,14.755 10.935,14.568 11.122,14.731   11.127,14.743 "
   id="polyline21"
   style="fill:#ffd200"
   transform="translate(1.429942e-7,-7.220948e-4)" />
<polyline
   clip-rule="evenodd"
   points="13.584,14.641 13.638,14.657 13.774,14.711   13.786,14.722 13.745,14.763 13.577,14.89 13.39,14.919 13.377,14.903 13.385,14.886 13.379,14.862 13.333,14.829 13.292,14.821   13.209,14.825 13.206,14.829 13.185,14.825 13.155,14.801 13.107,14.783 13.021,14.788 13.017,14.793 13.001,14.793 12.984,14.755   12.947,14.702 12.947,14.698 12.955,14.69 13.213,14.657 13.502,14.617 13.553,14.625 13.584,14.641 "
   id="polyline23"
   style="fill:#ffd200;fill-rule:evenodd"
   transform="translate(1.429942e-7,-7.220948e-4)" />
<polyline
   points="12.17,14.702 12.203,14.722 12.383,14.837 12.411,14.857 12.448,14.878 12.653,15.009   12.661,15.018 12.661,15.026 12.633,15.038 12.603,15.046 12.579,15.062 12.575,15.067 12.546,15.058 12.288,14.898 12.068,14.763   12.055,14.752 12.092,14.69 12.109,14.67 12.145,14.686 12.17,14.702 "
   id="polyline25"
   style="fill:#ffd200"
   transform="translate(1.429942e-7,-7.220948e-4)" />
<polyline
   clip-rule="evenodd"
   points="11.941,14.817 11.835,14.98 11.822,14.988 11.765,14.977   11.478,15.001 11.147,15.029 11.143,15.018 11.143,15.005 11.139,15.001 11.143,14.997 11.139,14.927 11.147,14.911 11.163,14.898   11.446,14.865 11.908,14.809 11.933,14.809 11.941,14.817 "
   id="polyline27"
   style="fill:#ffd200;fill-rule:evenodd"
   transform="translate(1.429942e-7,-7.220948e-4)" />
<polyline
   clip-rule="evenodd"
   points="10.636,14.919 10.734,14.927 10.824,14.923   10.848,14.936 10.864,14.956 10.894,15.026 10.914,15.067 10.93,15.12 10.946,15.218 10.943,15.332 10.905,15.455 10.905,15.488   10.963,15.578 11.02,15.668 11.037,15.701 11.037,15.713 10.68,15.795 10.521,15.831 10.513,15.831 10.505,15.823 10.513,15.737   10.521,15.729 10.546,15.734 10.575,15.729 10.591,15.709 10.591,15.696 10.562,15.676 10.505,15.66 10.46,15.622 10.411,15.549   10.378,15.458 10.374,15.43 10.378,15.417 10.48,15.406 10.546,15.41 10.685,15.377 10.701,15.369 10.738,15.377 10.759,15.356   10.762,15.259 10.767,15.254 10.762,15.251 10.771,15.218 10.775,15.181 10.795,15.111 10.795,15.095 10.783,15.083 10.705,15.07   10.648,15.046 10.599,15.005 10.554,14.939 10.546,14.911 10.55,14.898 10.578,14.903 10.636,14.919 "
   id="polyline29"
   style="fill:#ffd200;fill-rule:evenodd"
   transform="translate(1.429942e-7,-7.220948e-4)" />
<polyline
   clip-rule="evenodd"
   points="14.155,14.939 14.256,14.98 14.297,15.001 14.338,15.029   14.424,15.095 14.543,15.218 14.597,15.287 14.627,15.361 14.659,15.443 14.667,15.488 14.674,15.537 14.678,15.581 14.667,15.696   14.641,15.798 14.586,15.933 14.506,16.061 14.502,16.061 14.495,16.077 14.403,16.166 14.31,16.24 14.195,16.327 14.081,16.399   13.966,16.47 13.881,16.547 13.819,16.624 13.761,16.719 13.728,16.788 13.679,16.931 13.657,17.038 13.651,17.095 13.659,17.181   13.676,17.238 13.684,17.263 13.643,17.258 13.569,17.186 13.5,17.071 13.479,17.018 13.467,16.915 13.479,16.808 13.502,16.76   13.528,16.736 13.528,16.726 13.52,16.719 13.502,16.723 13.42,16.8 13.39,16.858 13.366,16.915 13.352,17.002 13.356,17.066   13.377,17.156 13.377,17.161 13.348,17.153 13.288,17.091 13.247,17.013 13.234,16.961 13.229,16.931 13.234,16.928 13.229,16.895   13.229,16.879 13.234,16.874 13.229,16.87 13.237,16.817 13.262,16.752 13.299,16.69 13.356,16.645 13.348,16.633 13.325,16.637   13.295,16.654 13.284,16.654 13.188,16.739 13.139,16.817 13.127,16.849 13.116,16.813 13.12,16.698 13.131,16.645 13.152,16.583   13.185,16.534 13.25,16.473 13.319,16.429 13.405,16.396 13.512,16.363 13.676,16.335 13.737,16.317 13.761,16.314 13.851,16.286   14.047,16.187 14.2,16.085 14.305,15.995 14.413,15.872 14.469,15.774 14.502,15.701 14.518,15.631 14.526,15.545 14.53,15.512   14.515,15.422 14.491,15.373 14.424,15.295 14.436,15.238 14.436,15.222 14.42,15.21 14.403,15.213 14.392,15.23 14.387,15.267   14.359,15.348 14.342,15.417 14.334,15.427 14.313,15.417 14.273,15.361 14.241,15.295 14.208,15.197 14.228,15.123 14.232,15.111   14.232,15.095 14.219,15.087 14.2,15.09 14.187,15.103 14.175,15.14 14.114,15.213 14.106,15.238 14.109,15.243 14.106,15.259   14.109,15.287 14.106,15.291 14.125,15.381 14.129,15.394 14.129,15.41 14.118,15.414 14.068,15.406 13.995,15.356 13.937,15.299   13.881,15.21 13.868,15.115 13.864,15.067 13.84,15.062 13.815,15.067 13.807,15.079 13.793,15.164 13.802,15.213 13.843,15.291   13.892,15.365 13.909,15.397 13.933,15.435 13.888,15.447 13.834,15.447 13.831,15.443 13.827,15.447 13.769,15.435 13.708,15.414   13.659,15.381 13.605,15.34 13.569,15.295 13.557,15.259 13.543,15.259 13.5,15.312 13.467,15.402 13.459,15.451 13.461,15.455   13.459,15.488 13.459,15.499 13.454,15.504 13.459,15.508 13.454,15.611 13.459,15.614 13.454,15.619 13.467,15.741 13.475,15.757   13.479,15.79 13.512,15.888 13.524,15.918 13.581,16.007 13.667,16.133 13.758,16.24 13.774,16.256 13.774,16.261 13.741,16.273   13.625,16.297 13.59,16.306 13.575,16.306 13.487,16.191 13.401,16.04 13.356,15.933 13.325,15.839 13.311,15.79 13.288,15.672   13.275,15.581 13.278,15.471 13.295,15.41 13.311,15.356 13.39,15.226 13.42,15.181 13.52,15.074 13.635,14.98 13.725,14.944   13.892,14.911 13.933,14.906 14.036,14.915 14.155,14.939 "
   id="polyline31"
   style="fill:#ffd200;fill-rule:evenodd"
   transform="translate(1.429942e-7,-7.220948e-4)" />
<polyline
   points="10.542,15.058 10.615,15.115 10.68,15.14 10.701,15.144 10.705,15.156 10.693,15.291   10.697,15.315 10.685,15.32 10.632,15.315 10.558,15.328 10.493,15.332 10.386,15.336 10.362,15.332 10.337,15.315 10.325,15.263   10.304,15.21 10.284,15.107 10.276,15.042 10.304,15.026 10.427,14.977 10.468,14.964 10.485,14.972 10.542,15.058 "
   id="polyline33"
   style="fill:#ffd200"
   transform="translate(1.429942e-7,-7.220948e-4)" />
<polyline
   clip-rule="evenodd"
   points="11.797,15.021 11.794,15.046 11.769,15.099   11.736,15.144 11.204,15.222 11.18,15.189 11.16,15.136 11.16,15.115 11.171,15.107 11.744,15.026 11.789,15.018 11.794,15.021   11.797,15.021 "
   id="polyline35"
   style="fill:#ffd200;fill-rule:evenodd"
   transform="translate(1.429942e-7,-7.220948e-4)" />
<polyline
   points="10.186,15.099 10.206,15.12 10.214,15.131 10.222,15.181 10.247,15.259 10.263,15.299   10.243,15.356 10.214,15.397 10.087,15.324 9.989,15.263 10.026,15.184 10.067,15.115 10.092,15.07 10.125,15.074 10.186,15.099 "
   id="polyline37"
   style="fill:#ffd200"
   transform="translate(1.429942e-7,-7.220948e-4)" />
<polyline
   clip-rule="evenodd"
   points="11.45,15.488 11.503,15.602 11.564,15.655 11.601,15.672   11.695,15.688 11.777,15.688 11.822,15.754 11.838,15.795 11.777,15.798 11.679,15.795 11.593,15.778 11.516,15.745 11.483,15.724   11.429,15.68 11.376,15.622 11.372,15.537 11.372,15.529 11.376,15.524 11.372,15.52 11.388,15.458 11.409,15.417 11.421,15.406   11.437,15.422 11.45,15.488 "
   id="polyline39"
   style="fill:#ffd200;fill-rule:evenodd"
   transform="translate(1.429942e-7,-7.220948e-4)" />
<polyline
   clip-rule="evenodd"
   points="12.227,15.672 12.26,15.688 12.288,15.696 12.383,15.762   12.452,15.836 12.48,15.867 12.485,15.872 12.485,15.888 12.469,15.905 12.448,15.913 12.424,15.905 12.395,15.877 12.288,15.803   12.215,15.77 12.137,15.754 12.068,15.741 12.06,15.741 12.047,15.663 12.051,15.66 12.051,15.643 12.047,15.639 12.051,15.635   12.137,15.652 12.227,15.672 "
   id="polyline41"
   style="fill:#ffd200;fill-rule:evenodd"
   transform="translate(1.429942e-7,-7.220948e-4)" />
<polyline
   points="11.049,15.86 11.049,15.872 11,15.921 10.984,15.929 10.979,15.933 10.967,15.921 10.943,15.836   10.938,15.815 10.938,15.803 10.959,15.79 10.979,15.786 11.004,15.786 11.049,15.86 "
   id="polyline43"
   style="fill:#ffd200"
   transform="translate(1.429942e-7,-7.220948e-4)" />
<polyline
   points="10.918,15.933 10.922,15.962 10.897,15.987 10.795,16.02 10.734,16.031 10.66,16.028   10.632,16.015 10.611,15.995 10.615,15.872 10.644,15.856 10.853,15.811 10.877,15.811 10.918,15.933 "
   id="polyline45"
   style="fill:#ffd200"
   transform="translate(1.429942e-7,-7.220948e-4)" />
<polyline
   clip-rule="evenodd"
   points="11.283,15.885 11.27,15.925 11.225,16.02 11.196,16.061   11.078,16.081 11.012,16.105 10.951,16.143 10.91,16.174 10.853,16.245 10.82,16.317 10.808,16.396 10.803,16.412 10.803,16.424   10.8,16.429 10.488,16.355 10.537,16.212 10.591,16.064 10.599,16.056 10.677,16.081 10.783,16.085 10.874,16.069 10.979,16.023   11.11,15.921 11.147,15.864 11.192,15.867 11.283,15.885 "
   id="polyline47"
   style="fill:#ffd200;fill-rule:evenodd"
   transform="translate(1.429942e-7,-7.220948e-4)" />
<polyline
   points="11.421,16.081 11.564,16.151 11.572,16.163 11.495,16.22 11.47,16.245 11.446,16.24 11.385,16.199   11.274,16.117 11.27,16.113 11.27,16.102 11.315,16.031 11.355,16.052 11.421,16.081 "
   id="polyline49"
   style="fill:#ffd200"
   transform="translate(1.429942e-7,-7.220948e-4)" />
<polyline
   clip-rule="evenodd"
   points="11.413,16.281 11.417,16.286 11.417,16.294   11.364,16.335 11.319,16.396 11.315,16.408 11.319,16.432 11.335,16.449 11.372,16.457 11.38,16.457 11.385,16.461 11.368,16.534   11.344,16.641 11.311,16.665 11.237,16.698 11.196,16.674 11.135,16.624 10.914,16.461 10.885,16.44 10.877,16.429 10.881,16.384   10.897,16.33 10.926,16.273 11.037,16.166 11.078,16.146 11.13,16.13 11.151,16.126 11.217,16.13 11.413,16.281 "
   id="polyline51"
   style="fill:#ffd200;fill-rule:evenodd"
   transform="translate(1.429942e-7,-7.220948e-4)" />
<polyline
   clip-rule="evenodd"
   points="10.222,16.723 10.309,16.8 10.521,17.018 10.513,17.026   10.383,17.038 10.378,17.033 10.345,17.038 10.243,17.03 10.198,17.013 10.076,16.936 10.149,16.862 10.149,16.846 10.153,16.841   10.141,16.821 10.125,16.808 10.1,16.813 10.076,16.829 10.063,16.849 9.977,16.866 9.903,16.899 9.813,16.907 9.805,16.907   9.805,16.899 10.002,16.756 10.12,16.665 10.149,16.674 10.222,16.723 "
   id="polyline53"
   style="fill:#ffd200;fill-rule:evenodd"
   transform="translate(1.429942e-7,-7.220948e-4)" />
<polyline
   clip-rule="evenodd"
   points="12.845,18.052 12.849,18.068 12.837,18.093   12.833,18.117 12.82,18.167 12.808,18.27 12.8,18.318 12.759,18.322 12.715,18.333 12.653,18.341 12.531,18.38 12.465,18.404   12.419,18.429 12.387,18.47 12.378,18.498 12.362,18.544 12.354,18.654 12.354,18.669 12.367,18.679 12.395,18.673 12.452,18.687   12.493,18.707 12.538,18.755 12.559,18.8 12.567,18.841 12.562,18.878 12.551,18.912 12.521,18.957 12.428,19.042 12.403,19.055   12.395,19.042 12.399,19.005 12.395,19.001 12.399,18.998 12.399,18.981 12.395,18.976 12.399,18.973 12.387,18.887 12.367,18.837   12.342,18.813 12.296,18.822 12.285,18.833 12.301,18.854 12.313,18.878 12.317,18.912 12.321,19.014 12.301,19.078 12.264,19.14   12.215,19.198 12.162,19.231 12.068,19.259 12.019,19.259 12.063,19.185 12.096,19.121 12.109,19.078 12.112,19.026 12.109,19.001   12.088,18.957 12.068,18.932 12.055,18.932 12.043,18.945 12.039,18.981 12.022,19.067 11.994,19.149 11.961,19.207 11.887,19.28   11.846,19.304 11.769,19.324 11.74,19.33 11.724,19.33 11.753,19.248 11.761,19.173 11.749,19.14 11.716,19.075 11.7,19.063   11.683,19.071 11.659,19.108 11.659,19.181 11.524,19.239 11.487,19.259 11.478,19.267 11.483,19.283 11.56,19.382 11.601,19.425   11.618,19.464 11.597,19.484 11.388,19.615 11.335,19.64 11.368,19.566 11.426,19.492 11.467,19.447 11.47,19.425 11.462,19.416   11.458,19.412 11.409,19.423 11.355,19.443 11.347,19.443 11.355,19.349 11.347,19.289 11.339,19.251 11.311,19.21 11.283,19.19   11.266,19.181 11.217,19.185 11.171,19.218 11.069,19.33 10.992,19.435 10.979,19.443 10.963,19.435 10.861,19.354 10.828,19.333   10.803,19.333 10.783,19.354 10.779,19.375 10.783,19.39 10.808,19.416 10.844,19.425 10.897,19.466 10.902,19.48 10.889,19.498   10.874,19.585 10.856,19.689 10.856,19.692 10.844,19.681 10.82,19.615 10.779,19.533 10.71,19.375 10.697,19.349 10.68,19.308   10.885,19.214 11.102,19.116 11.119,19.099 11.115,19.083 11.102,19.075 11.098,19.071 11.073,19.075 11.053,19.087 11.025,19.096   10.91,19.145 10.73,19.226 10.701,19.239 10.68,19.234 10.567,19.078 10.554,19.067 10.537,19.067 10.517,19.091 10.521,19.149   10.537,19.177 10.399,19.375 10.37,19.423 10.365,19.425 10.362,19.365 10.383,19.091 10.391,19.063 10.583,19.022 10.677,18.998   10.959,18.919 11.258,18.825 11.56,18.714 11.613,18.69 11.662,18.649 11.708,18.587 11.72,18.498 11.716,18.404 11.712,18.4   11.716,18.396 11.708,18.292 11.712,18.27 11.712,18.257 11.744,18.229 11.757,18.22 11.769,18.208 11.769,18.196 11.774,18.191   11.765,18.175 11.744,18.158 11.703,18.164 11.679,18.175 11.642,18.179 11.572,18.167 11.495,18.13 11.446,18.082 11.409,18.027   11.393,17.974 11.385,17.942 11.393,17.836 11.421,17.779 11.467,17.746 11.478,17.741 11.487,17.741 11.499,17.77 11.548,17.82   11.61,17.851 11.654,17.864 11.781,17.881 11.785,17.885 11.789,17.881 11.794,17.885 11.797,17.881 11.884,17.889 12.084,17.869   12.219,17.84 12.329,17.799 12.493,17.729 12.612,17.692 12.624,17.692 12.845,18.052 "
   id="polyline55"
   style="fill:#ffd200;fill-rule:evenodd"
   transform="translate(1.429942e-7,-7.220948e-4)" />
<polyline
   clip-rule="evenodd"
   points="12.91,17.79 12.935,17.81 12.943,17.82 12.935,17.861   12.922,17.93 12.915,17.958 12.886,17.925 12.841,17.848 12.792,17.758 12.767,17.713 12.886,17.782 12.91,17.79 "
   id="polyline57"
   style="fill:#ffd200;fill-rule:evenodd"
   transform="translate(1.429942e-7,-7.220948e-4)" />
<polyline
   clip-rule="evenodd"
   points="10.754,18.759 10.84,18.841 10.853,18.863 10.856,18.866   10.856,18.878 10.656,18.927 10.632,18.932 10.615,18.919 10.615,18.899 10.652,18.854 10.656,18.841 10.652,18.817 10.636,18.8   10.615,18.8 10.587,18.83 10.554,18.871 10.513,18.899 10.353,18.953 10.309,18.964 10.263,18.973 10.263,18.968 10.26,18.964   10.578,18.646 10.623,18.666 10.754,18.759 "
   id="polyline59"
   style="fill:#ffd200;fill-rule:evenodd"
   transform="translate(1.429942e-7,-7.220948e-4)" />
<polyline
   clip-rule="evenodd"
   points="11.283,19.308 11.291,19.365 11.286,19.431 11.266,19.5   11.25,19.656 11.253,19.705 11.278,19.791 11.291,19.815 11.188,19.869 11.09,19.947 11.045,19.991 11.02,20.024 10.963,20.123   10.951,20.18 10.955,20.216 10.992,20.253 11.017,20.253 11.033,20.236 11.02,20.175 11.049,20.13 11.081,20.106 11.115,20.11   11.143,20.13 11.18,20.18 11.201,20.233 11.199,20.291 11.184,20.332 11.135,20.373 11.094,20.392 11.058,20.397 11.053,20.4   11.049,20.397 11.033,20.4 10.984,20.392 10.943,20.367 10.905,20.343 10.861,20.298 10.82,20.224 10.808,20.164 10.816,20.098   10.828,20.06 10.861,19.991 10.967,19.852 10.996,19.804 11.017,19.746 11.017,19.722 11.053,19.701 11.122,19.63 11.147,19.595   11.18,19.513 11.176,19.507 11.184,19.466 11.176,19.398 11.155,19.343 11.155,19.324 11.242,19.248 11.25,19.248 11.283,19.308 "
   id="polyline61"
   style="fill:#ffd200;fill-rule:evenodd"
   transform="translate(1.429942e-7,-7.220948e-4)" />
<polyline
   clip-rule="evenodd"
   points="10.296,19.263 10.292,19.296 10.296,19.3 10.292,19.398   10.288,19.402 10.292,19.505 10.296,19.521 10.321,19.541 10.345,19.539 10.383,19.525 10.542,19.296 10.578,19.304 10.615,19.316   10.628,19.316 10.648,19.375 10.762,19.634 10.848,19.794 10.869,19.815 10.944,19.685 10.922,19.778 10.889,19.848 10.877,19.852   10.828,19.835 10.792,19.812 10.759,19.774 10.73,19.712 10.73,19.701 10.718,19.681 10.713,19.66 10.677,19.623 10.652,19.634   10.644,19.643 10.639,19.692 10.639,19.705 10.583,19.697 10.546,19.675 10.485,19.61 10.468,19.574 10.46,19.546 10.46,19.525   10.435,19.5 10.406,19.505 10.391,19.525 10.386,19.546 10.386,19.554 10.383,19.558 10.399,19.607 10.399,19.623 10.345,19.648   10.309,19.675 10.271,19.738 10.26,19.794 10.263,19.873 10.28,19.914 10.284,19.914 10.284,19.917 10.239,19.901 10.202,19.876   10.158,19.824 10.132,19.774 10.125,19.733 10.12,19.671 10.128,19.615 10.149,19.566 10.19,19.525 10.21,19.505 10.219,19.472   10.202,19.435 10.173,19.39 10.169,19.341 10.178,19.308 10.198,19.267 10.21,19.255 10.222,19.251 10.292,19.255 10.296,19.263 "
   id="polyline63"
   style="fill:#ffd200;fill-rule:evenodd"
   transform="translate(1.429942e-7,-7.220948e-4)" />
<polyline
   clip-rule="evenodd"
   points="13.325,19.406 13.418,19.451 13.475,19.498   13.493,19.513 13.5,19.539 13.471,19.561 13.374,19.607 13.275,19.634 13.243,19.63 13.209,19.619 13.185,19.615 13.18,19.61   13.254,19.484 13.25,19.472 13.237,19.464 13.193,19.48 13.103,19.595 13.042,19.651 12.968,19.701 12.951,19.705 13.079,19.451   13.127,19.357 13.221,19.375 13.325,19.406 "
   id="polyline65"
   style="fill:#ffd200;fill-rule:evenodd"
   transform="translate(1.429942e-7,-7.220948e-4)" />
<polyline
   clip-rule="evenodd"
   points="11.078,19.533 11.061,19.569 11.028,19.615   10.955,19.671 10.938,19.703 10.938,19.651 10.951,19.623 10.955,19.599 10.971,19.541 10.971,19.521 10.996,19.513 11.008,19.5   11.045,19.521 11.078,19.533 "
   id="polyline67"
   style="fill:#ffd200;fill-rule:evenodd"
   transform="translate(1.429942e-7,-7.220948e-4)" />
<polyline
   clip-rule="evenodd"
   points="11.528,19.738 11.634,19.771 11.838,19.819 12.055,19.86   12.264,19.88 12.73,19.889 12.984,19.873 12.98,19.921 12.96,20.011 12.951,20.019 12.674,20.032 12.403,20.019 12.235,20.003   12.096,19.983 11.937,19.95 11.72,19.889 11.539,19.828 11.335,19.753 11.319,19.712 11.319,19.689 11.335,19.671 11.376,19.681   11.528,19.738 "
   id="polyline69"
   style="fill:#ffd200;fill-rule:evenodd"
   transform="translate(1.429942e-7,-7.220948e-4)" />
<polyline
   points="11.581,19.925 11.761,19.962 11.846,19.983 12.01,20.016 12.317,20.057 12.487,20.069   12.641,20.073 12.943,20.078 12.947,20.089 12.935,20.139 12.931,20.18 12.915,20.257 12.907,20.265 12.649,20.269 12.395,20.257   12.252,20.244 12.117,20.224 11.912,20.18 11.74,20.139 11.458,20.044 11.262,19.966 11.196,19.942 11.192,19.938 11.212,19.917   11.266,19.884 11.315,19.873 11.352,19.869 11.429,19.88 11.581,19.925 "
   id="polyline71"
   style="fill:#ffd200"
   transform="translate(1.429942e-7,-7.220948e-4)" />
<polyline
   clip-rule="evenodd"
   points="13.881,19.97 13.901,19.991 13.92,19.996 13.937,19.996   13.942,19.991 13.945,19.996 13.95,20.003 13.942,20.06 13.909,20.082 13.819,20.114 13.769,20.123 13.745,20.123 13.782,20.016   13.834,19.914 13.84,19.893 13.847,19.893 13.881,19.97 "
   id="polyline73"
   style="fill:#ffd200;fill-rule:evenodd"
   transform="translate(1.429942e-7,-7.220948e-4)" />
<polyline
   clip-rule="evenodd"
   points="13.308,20.041 13.221,20.142 13.226,20.167 13.25,20.183   13.258,20.192 13.258,20.2 13.213,20.221 13.18,20.224 13.124,20.236 13.021,20.244 13.017,20.241 13.075,20.175 13.165,20.048   13.172,20.048 13.18,20.069 13.196,20.085 13.229,20.082 13.303,20.024 13.311,20.024 13.308,20.041 "
   id="polyline75"
   style="fill:#ffd200;fill-rule:evenodd"
   transform="translate(1.429942e-7,-7.220948e-4)" />
<path
   d="M 12.076,15.033278 L 12.096,15.045278 L 12.104,15.053278 L 12.096,15.102278 L 12.104,15.119278 L 12.101,15.155278 L 12.068,15.180278 L 11.99,15.212278 L 11.941,15.245278 L 11.92,15.245278 L 11.912,15.237278 L 11.908,15.217278 L 11.933,15.183278 L 11.982,15.143278 L 11.994,15.106278 L 11.966,15.089278 L 11.941,15.086278 L 11.933,15.086278 L 11.912,15.073278 L 11.892,15.061278 L 11.887,15.045278 L 11.892,15.020278 L 11.908,15.017278 L 11.973,15.037278 L 12.076,15.033278 M 12.227,14.951278 L 12.301,14.996278 L 12.309,15.004278 L 12.326,15.012278 L 12.362,15.037278 L 12.439,15.102278 L 12.477,15.143278 L 12.48,15.163278 L 12.477,15.176278 L 12.465,15.201278 L 12.469,15.229278 L 12.485,15.242278 L 12.51,15.237278 L 12.538,15.183278 L 12.603,15.119278 L 12.661,15.086278 L 12.746,15.073278 L 12.804,15.078278 L 12.837,15.089278 L 12.89,15.130278 L 12.927,15.183278 L 12.931,15.204278 L 12.935,15.212278 L 12.935,15.221278 L 12.927,15.258278 L 12.902,15.298278 L 12.853,15.335278 L 12.82,15.355278 L 12.759,15.368278 L 12.71,15.368278 L 12.681,15.376278 L 12.661,15.396278 L 12.665,15.416278 L 12.705,15.426278 L 12.808,15.416278 L 12.91,15.376278 L 12.976,15.335278 L 13.066,15.253278 L 13.079,15.274278 L 13.083,15.298278 L 13.083,15.307278 L 13.092,15.339278 L 13.083,15.405278 L 13.083,15.413278 L 13.059,15.462278 L 12.94,15.556278 L 12.87,15.597278 L 12.8,15.618278 L 12.787,15.634278 L 12.792,15.654278 L 12.8,15.662278 L 12.828,15.667278 L 12.919,15.642278 L 12.971,15.621278 L 13.05,15.569278 L 13.094,15.528278 L 13.107,15.516278 L 13.116,15.516278 L 13.124,15.523278 L 13.132,15.552278 L 13.14,15.601278 L 13.136,15.651278 L 13.116,15.712278 L 13.075,15.769278 L 13.03,15.805278 L 12.951,15.855278 L 12.915,15.871278 L 12.808,15.904278 L 12.796,15.917278 L 12.804,15.937278 L 12.833,15.948278 L 12.907,15.945278 L 12.939,15.937278 L 13.017,15.904278 L 13.116,15.830278 L 13.136,15.810278 L 13.145,15.810278 L 13.156,15.835278 L 13.17,15.876278 L 13.162,15.978278 L 13.133,16.039278 L 13.093,16.091278 L 13.019,16.145278 L 12.957,16.173278 L 12.912,16.186278 L 12.827,16.194278 L 12.761,16.198278 L 12.753,16.211278 L 12.758,16.239278 L 12.778,16.252278 L 12.835,16.264278 L 12.912,16.260278 L 13.003,16.235278 L 13.113,16.173278 L 13.126,16.162278 L 13.134,16.162278 L 13.138,16.182278 L 13.138,16.203278 L 13.142,16.214278 L 13.13,16.288278 L 13.094,16.367278 L 13.048,16.415278 L 13.004,16.452278 L 12.93,16.485278 L 12.795,16.505278 L 12.672,16.501278 L 12.647,16.501278 L 12.639,16.497278 L 12.615,16.501278 L 12.606,16.513278 L 12.611,16.533278 L 12.627,16.551278 L 12.684,16.567278 L 12.77,16.571278 L 12.864,16.562278 L 12.881,16.562278 L 12.979,16.541278 L 13.02,16.526278 L 13.028,16.530278 L 13.004,16.603278 L 12.963,16.661278 L 12.905,16.702278 L 12.844,16.730278 L 12.774,16.746278 L 12.619,16.755278 L 12.521,16.746278 L 12.483,16.725278 L 12.472,16.725278 L 12.455,16.743278 L 12.472,16.776278 L 12.492,16.787278 L 12.623,16.812278 L 12.721,16.816278 L 12.82,16.799278 L 12.849,16.787278 L 12.869,16.792278 L 13.111,17.045278 L 13.333,17.262278 L 13.554,17.459278 L 13.685,17.556278 L 13.783,17.561278 L 13.869,17.544278 L 13.922,17.523278 L 13.968,17.491278 L 14.029,17.413278 L 14.07,17.319278 L 14.087,17.266278 L 14.104,17.201278 L 14.099,17.086278 L 14.076,16.988278 L 14.043,16.906278 L 13.983,16.799278 L 13.888,16.669278 L 13.892,16.640278 L 13.995,16.518278 L 14.016,16.521278 L 14.074,16.579278 L 14.218,16.792278 L 14.295,16.963278 L 14.319,17.032278 L 14.377,17.049278 L 14.397,17.045278 L 14.415,17.045278 L 14.468,17.049278 L 14.579,17.037278 L 14.681,17.001278 L 14.689,17.012278 L 14.681,17.111278 L 14.607,17.221278 L 14.559,17.266278 L 14.477,17.295278 L 14.382,17.303278 L 14.337,17.298278 L 14.32,17.315278 L 14.315,17.336278 L 14.32,17.352278 L 14.341,17.364278 L 14.444,17.380278 L 14.521,17.372278 L 14.671,17.323278 L 14.71,17.307278 L 14.73,17.307278 L 14.716,17.359278 L 14.663,17.462278 L 14.614,17.520278 L 14.553,17.564278 L 14.471,17.594278 L 14.356,17.614278 L 14.323,17.617278 L 14.262,17.610278 L 14.226,17.589278 L 14.218,17.589278 L 14.111,17.712278 L 14.034,17.769278 L 13.997,17.786278 L 13.887,17.819278 L 13.822,17.827278 L 13.752,17.814278 L 13.7,17.789278 L 13.671,17.769278 L 13.659,17.773278 L 13.687,17.827278 L 13.728,17.868278 L 13.782,17.970278 L 13.794,18.026278 L 13.8,18.195278 L 13.8,18.228278 L 13.786,18.325278 L 13.8,18.374278 L 13.835,18.423278 L 13.872,18.456278 L 13.93,18.485278 L 14.036,18.510278 L 14.114,18.543278 L 14.163,18.578278 L 14.195,18.627278 L 14.2,18.656278 L 14.183,18.783278 L 14.17,18.820278 L 14.178,18.852278 L 14.195,18.864278 L 14.236,18.869278 L 14.339,18.938278 L 14.442,19.044278 L 14.492,19.135278 L 14.508,19.191278 L 14.517,19.257278 L 14.508,19.314278 L 14.512,19.322278 L 14.496,19.388278 L 14.478,19.441278 L 14.458,19.482278 L 14.417,19.393278 L 14.38,19.333278 L 14.306,19.257278 L 14.281,19.249278 L 14.258,19.249278 L 14.237,19.265278 L 14.237,19.278278 L 14.328,19.375278 L 14.373,19.445278 L 14.401,19.526278 L 14.41,19.584278 L 14.404,19.666278 L 14.396,19.703278 L 14.384,19.748278 L 14.352,19.811278 L 14.328,19.827278 L 14.303,19.770278 L 14.254,19.711278 L 14.151,19.633278 L 14.143,19.633278 L 14.107,19.609278 L 14.094,19.606278 L 14.073,19.627278 L 14.064,19.658278 L 14.064,19.666278 L 14.195,19.806278 L 14.204,19.823278 L 14.195,19.868278 L 14.142,19.958278 L 14.039,20.139278 L 14.023,20.167278 L 14.005,20.188278 L 14.001,20.134278 L 14.005,20.106278 L 14.014,19.996278 L 14.023,19.978278 L 14.043,19.970278 L 14.088,19.966278 L 14.101,19.954278 L 14.106,19.930278 L 14.077,19.901278 L 14.024,19.906278 L 14.006,19.914278 L 13.937,19.922278 L 13.92,19.894278 L 13.875,19.713278 L 13.863,19.705278 L 13.822,19.717278 L 13.793,19.750278 L 13.74,19.914278 L 13.678,20.029278 L 13.646,20.106278 L 13.637,20.114278 L 13.634,20.135278 L 13.62,20.148278 L 13.612,20.148278 L 13.52,20.059278 L 13.475,20.043278 L 13.461,20.043278 L 13.451,20.056278 L 13.451,20.068278 L 13.459,20.092278 L 13.492,20.117278 L 13.523,20.153278 L 13.574,20.263278 L 13.584,20.296278 L 13.605,20.349278 L 13.614,20.378278 L 13.602,20.378278 L 13.42,20.241278 L 13.318,20.152278 L 13.315,20.144278 L 13.315,20.129278 L 13.47,19.937278 L 13.604,19.752278 L 13.604,19.744278 L 13.59,19.729278 L 13.557,19.732278 L 13.418,19.892278 L 13.377,19.937278 L 13.303,19.954278 L 13.229,19.990278 L 13.217,19.977278 L 13.196,19.883278 L 13.193,19.855278 L 13.193,19.847278 L 13.161,19.823278 L 13.152,19.823278 L 13.131,19.827278 L 13.123,19.848278 L 13.12,19.879278 L 13.124,19.892278 L 13.116,19.946278 L 13.107,19.962278 L 13.099,20.011278 L 13.041,20.069278 L 13.003,20.110278 L 13.016,20.032278 L 13.029,19.970278 L 13.033,19.938278 L 13.057,19.807278 L 13.065,19.783278 L 13.078,19.771278 L 13.16,19.746278 L 13.291,19.709278 L 13.494,19.648278 L 13.564,19.610278 L 13.621,19.554278 L 13.676,19.443278 L 13.707,19.349278 L 13.74,19.222278 L 13.761,19.091278 L 13.752,19.042278 L 13.725,18.980278 L 13.629,18.890278 L 13.535,18.849278 L 13.42,18.799278 L 13.385,18.787278 L 13.332,18.742278 L 13.315,18.746278 L 13.307,18.758278 L 13.31,18.898278 L 13.298,18.972278 L 13.274,19.037278 L 13.233,19.095278 L 13.164,19.156278 L 13.099,19.192278 L 13.058,19.200278 L 12.939,19.192278 L 13.004,19.110278 L 13.021,19.074278 L 13.025,19.038278 L 13.021,19.029278 L 13.025,19.021278 L 13.017,18.959278 L 12.996,18.897278 L 12.984,18.839278 L 12.955,18.741278 L 12.915,18.581278 L 12.902,18.503278 L 12.89,18.419278 L 12.886,18.315278 L 12.894,18.247278 L 12.894,18.229278 L 12.907,18.193278 L 12.91,18.165278 L 12.939,18.095278 L 12.976,18.018278 L 13.004,17.923278 L 13.021,17.849278 L 13.017,17.756278 L 12.984,17.634278 L 12.968,17.588278 L 12.947,17.543278 L 12.922,17.514278 L 12.89,17.473278 L 12.845,17.437278 L 12.796,17.412278 L 12.776,17.417278 L 12.763,17.429278 L 12.767,17.453278 L 12.878,17.568278 L 12.902,17.616278 L 12.919,17.670278 L 12.919,17.690278 L 12.899,17.686278 L 12.837,17.650278 L 12.587,17.531278 L 12.432,17.465278 L 12.211,17.384278 L 12.162,17.368278 L 12.211,17.294278 L 12.235,17.204278 L 12.244,17.110278 L 12.239,16.990278 L 12.215,16.918278 L 12.203,16.909278 L 12.183,16.913278 L 12.166,16.926278 L 12.158,16.959278 L 12.162,16.967278 L 12.162,17.093278 L 12.15,17.200278 L 12.129,17.256278 L 12.101,17.314278 L 12.063,17.363278 L 12.002,17.409278 L 11.953,17.429278 L 11.9,17.438278 L 11.797,17.450278 L 11.785,17.450278 L 11.835,17.303278 L 11.856,17.164278 L 11.846,17.094278 L 11.83,17.062278 L 11.822,17.053278 L 11.797,17.057278 L 11.777,17.086278 L 11.765,17.135278 L 11.749,17.270278 L 11.736,17.315278 L 11.72,17.377278 L 11.679,17.430278 L 11.642,17.466278 L 11.564,17.515278 L 11.483,17.544278 L 11.421,17.544278 L 11.483,17.438278 L 11.516,17.372278 L 11.528,17.323278 L 11.536,17.278278 L 11.528,17.229278 L 11.503,17.209278 L 11.478,17.213278 L 11.458,17.229278 L 11.426,17.348278 L 11.372,17.454278 L 11.306,17.512278 L 11.245,17.548278 L 11.18,17.573278 L 11.069,17.581278 L 10.996,17.569278 L 11.106,17.454278 L 11.122,17.430278 L 11.122,17.405278 L 11.106,17.385278 L 11.086,17.380278 L 11.073,17.385278 L 11.066,17.385278 L 11.025,17.418278 L 10.951,17.462278 L 10.82,17.528278 L 10.808,17.548278 L 10.812,17.556278 L 10.833,17.712278 L 10.8,17.732278 L 10.656,17.773278 L 10.529,17.798278 L 10.496,17.798278 L 10.575,17.720278 L 10.615,17.663278 L 10.66,17.679278 L 10.73,17.699278 L 10.742,17.691278 L 10.754,17.679278 L 10.754,17.651278 L 10.738,17.630278 L 10.689,17.614278 L 10.66,17.602278 L 10.628,17.594278 L 10.619,17.585278 L 10.623,17.544278 L 10.656,17.462278 L 10.66,17.441278 L 10.656,17.430278 L 10.636,17.413278 L 10.607,17.418278 L 10.57,17.441278 L 10.423,17.585278 L 10.342,17.646278 L 10.329,17.602278 L 10.325,17.544278 L 10.317,17.523278 L 10.292,17.499278 L 10.271,17.499278 L 10.243,17.528278 L 10.301,17.868278 L 10.268,17.830278 L 10.137,17.643278 L 10.043,17.512278 L 10.043,17.499278 L 10.214,17.421278 L 10.48,17.295278 L 10.488,17.282278 L 10.485,17.257278 L 10.455,17.237278 L 10.296,17.303278 L 10.251,17.323278 L 10.145,17.328278 L 10.046,17.344278 L 10.043,17.331278 L 10.055,17.278278 L 10.071,17.226278 L 10.076,17.180278 L 10.076,17.164278 L 10.046,17.139278 L 10.03,17.139278 L 10.005,17.164278 L 9.997,17.188278 L 9.985,17.290278 L 9.964,17.311278 L 9.916,17.336278 L 9.862,17.352278 L 9.78,17.380278 L 9.94,17.131278 L 9.944,17.119278 L 9.969,17.090278 L 9.994,17.049278 L 10.038,17.057278 L 10.12,17.086278 L 10.161,17.098278 L 10.263,17.111278 L 10.411,17.114278 L 10.529,17.098278 L 10.623,17.073278 L 10.792,16.996278 L 11.781,16.505278 L 11.867,16.489278 L 11.887,16.469278 L 11.887,16.439278 L 11.867,16.423278 L 11.826,16.419278 L 11.785,16.428278 L 11.683,16.477278 L 11.519,16.554278 L 11.487,16.575278 L 11.458,16.582278 L 11.437,16.595278 L 11.45,16.526278 L 11.499,16.419278 L 11.491,16.403278 L 11.462,16.391278 L 11.434,16.387278 L 11.45,16.362278 L 11.569,16.260278 L 11.646,16.211278 L 11.781,16.153278 L 11.859,16.132278 L 11.879,16.132278 L 11.908,16.125278 L 11.969,16.121278 L 11.99,16.125278 L 12.002,16.121278 L 12.109,16.132278 L 12.199,16.157278 L 12.244,16.173278 L 12.252,16.178278 L 12.293,16.178278 L 12.317,16.153278 L 12.313,16.104278 L 12.288,16.084278 L 12.26,16.091278 L 12.247,16.096278 L 12.206,16.088278 L 12.137,16.068278 L 11.998,16.047278 L 11.973,16.043278 L 11.945,16.022278 L 11.917,15.986278 L 11.917,15.948278 L 11.953,15.917278 L 11.966,15.904278 L 11.925,15.822278 L 11.92,15.797278 L 11.92,15.777278 L 11.986,15.805278 L 12.022,15.838278 L 12.104,15.904278 L 12.117,15.907278 L 12.129,15.920278 L 12.203,15.957278 L 12.334,15.981278 L 12.37,15.981278 L 12.378,15.986278 L 12.485,15.973278 L 12.513,15.961278 L 12.542,15.928278 L 12.571,15.859278 L 12.575,15.814278 L 12.567,15.761278 L 12.546,15.703278 L 12.505,15.630278 L 12.395,15.503278 L 12.337,15.457278 L 12.276,15.437278 L 12.199,15.429278 L 12.137,15.446278 L 12.08,15.482278 L 12.01,15.548278 L 11.978,15.605278 L 11.978,15.621278 L 11.969,15.630278 L 11.961,15.671278 L 11.966,15.682278 L 11.969,15.703278 L 11.969,15.723278 L 11.941,15.715278 L 11.9,15.675278 L 11.859,15.613278 L 11.851,15.577278 L 11.814,15.539278 L 11.794,15.495278 L 11.785,15.454278 L 11.826,15.376278 L 11.851,15.311278 L 11.843,15.303278 L 11.814,15.314278 L 11.757,15.372278 L 11.74,15.388278 L 11.733,15.388278 L 11.712,15.355278 L 11.716,15.311278 L 11.814,15.151278 L 11.863,15.073278 L 11.879,15.028278 L 11.978,14.885278 L 12.019,14.833278 L 12.112,14.882278 L 12.227,14.951278 z M 11.941,15.539278 L 11.937,15.560278 L 11.92,15.572278 L 11.887,15.577278 L 11.867,15.580278 L 11.859,15.572278 L 11.867,15.544278 L 11.884,15.531278 L 11.937,15.536278 L 11.941,15.539278 z "
   style="fill:#ffd200;fill-rule:evenodd"
   id="path77" />
</svg>