<?xml version="1.0" encoding="UTF-8" standalone="no"?>
<!-- Created with Inkscape (http://www.inkscape.org/) -->
<svg
   xmlns:svg="http://www.w3.org/2000/svg"
   xmlns="http://www.w3.org/2000/svg"
   version="1.0"
   width="553.88727"
   height="800.34003"
   viewBox="0 0 26.531 38.336"
   id="Layer_1"
   xml:space="preserve"><defs
   id="defs84" />
<rect
   width="26.461"
   height="38.265999"
   x="0.034999341"
   y="0.035"
   id="rect3" />
<rect
   width="26.461"
   height="38.265999"
   x="0.034999341"
   y="0.035"
   style="fill:none;stroke:black;stroke-width:0.07;stroke-miterlimit:3.86400008"
   id="rect5" />
<rect
   width="26.461"
   height="3.428"
   x="0.034999341"
   y="16.658001"
   style="fill:#ffd200"
   id="rect7" />
<rect
   width="26.461"
   height="3.428"
   x="0.034999341"
   y="16.658001"
   style="fill:none;stroke:#ffd200;stroke-width:0.07;stroke-miterlimit:3.86400008"
   id="rect9" />
<rect
   width="26.461"
   height="3.4300001"
   x="0.034999341"
   y="25.035"
   style="fill:#ffd200"
   id="rect11" />
<rect
   width="26.461"
   height="3.4300001"
   x="0.034999341"
   y="25.035"
   style="fill:none;stroke:#ffd200;stroke-width:0.07;stroke-miterlimit:3.86400008"
   id="rect13" />
<rect
   width="26.461"
   height="3.4289999"
   x="0.034999341"
   y="30.059"
   style="fill:#ffd200"
   id="rect15" />
<rect
   width="26.461"
   height="3.4289999"
   x="0.034999341"
   y="30.059"
   style="fill:none;stroke:#ffd200;stroke-width:0.07;stroke-miterlimit:3.86400008"
   id="rect17" />
<rect
   width="26.461"
   height="1.819"
   x="0.034999341"
   y="21.695"
   style="fill:#ffd200"
   id="rect19" />
<rect
   width="26.461"
   height="1.819"
   x="0.034999341"
   y="21.695"
   style="fill:none;stroke:#ffd200;stroke-width:0.07;stroke-miterlimit:3.86400008"
   id="rect21" />
<polyline
   clip-rule="evenodd"
   points="13.215,8.383 13.215,8.393 13.193,8.408 13.182,8.42   13.182,8.428 13.178,8.434 13.193,8.458 13.206,8.461 13.242,8.454 13.271,8.461 13.291,8.485 13.305,8.539 13.288,8.571   13.256,8.604 13.223,8.621 13.193,8.625 13.148,8.601 13.138,8.604 13.116,8.625 13.12,8.637 13.186,8.682 13.305,8.76   13.398,8.817 13.419,8.813 13.435,8.792 13.432,8.772 13.398,8.748 13.373,8.739 13.342,8.715 13.329,8.689 13.332,8.646   13.357,8.592 13.387,8.567 13.452,8.571 13.452,8.576 13.469,8.584 13.488,8.625 13.492,8.646 13.514,8.667 13.529,8.667   13.55,8.641 13.541,8.612 13.546,8.608 13.541,8.596 13.546,8.567 13.57,8.543 13.591,8.539 13.599,8.539 13.604,8.535   13.648,8.543 13.685,8.555 13.71,8.576 13.726,8.596 13.73,8.653 13.726,8.682 13.681,8.719 13.66,8.728 13.648,8.755 13.656,8.772   13.677,8.784 13.726,8.776 13.75,8.763 13.787,8.769 13.808,8.784 13.828,8.81 13.832,8.833 13.828,8.837 13.832,8.842   13.815,8.886 13.795,8.907 13.774,8.919 13.754,8.927 13.75,8.924 13.719,8.927 13.7,8.927 13.697,8.924 13.692,8.927 13.648,8.899   13.628,8.892 13.604,8.895 13.591,8.903 13.582,8.912 13.591,8.933 13.637,8.964 13.726,9.021 13.787,9.063 13.841,9.1   13.881,9.108 13.901,9.104 13.909,9.09 13.905,9.07 13.869,9.026 13.861,8.98 13.869,8.948 13.873,8.936 13.881,8.912 13.909,8.886   13.958,8.874 14.008,8.874 14.024,8.899 14.017,8.94 14.013,8.944 14.017,8.96 14.028,8.968 14.049,8.968 14.081,8.936   14.103,8.916 14.14,8.903 14.184,8.907 14.196,8.919 14.017,9.09 13.901,9.193 13.895,9.193 13.873,9.157 13.791,9.075   13.746,9.054 13.645,9.038 13.526,8.964 13.251,8.792 13.034,8.658 13.022,8.662 13.018,8.662 13.015,8.658 13.025,8.617   13.059,8.539 13.165,8.301 13.178,8.277 13.206,8.331 13.215,8.383 "
   id="polyline23"
   style="fill:#ffd200;fill-rule:evenodd" />
<polyline
   points="12.021,8.772 11.999,8.813 11.982,8.866 11.975,8.903 11.972,8.907 11.972,8.916 11.967,8.985   11.962,9.026 11.972,9.125 12.008,9.251 12.053,9.32 12.139,9.397 12.15,9.405 12.146,9.436 12.135,9.456 12.064,9.614   12.061,9.619 11.885,9.479 11.881,9.471 11.89,9.426 11.905,9.377 11.913,9.283 11.913,9.221 11.885,9.083 11.849,8.977   11.79,8.866 11.758,8.825 11.746,8.817 11.741,8.813 11.737,8.81 11.741,8.784 11.828,8.596 12.016,8.76 12.021,8.772 "
   id="polyline25"
   style="fill:#ffd200" />
<polyline
   clip-rule="evenodd"
   points="14.479,8.669 14.531,8.687 14.666,8.739 14.68,8.751   14.639,8.792 14.471,8.919 14.282,8.948 14.271,8.933 14.278,8.916 14.273,8.892 14.225,8.858 14.184,8.851 14.103,8.854   14.099,8.858 14.078,8.854 14.049,8.83 13.999,8.813 13.914,8.817 13.909,8.821 13.895,8.821 13.877,8.784 13.841,8.73   13.841,8.728 13.849,8.719 14.106,8.687 14.396,8.646 14.446,8.653 14.479,8.669 "
   id="polyline27"
   style="fill:#ffd200;fill-rule:evenodd" />
<polyline
   points="13.063,8.73 13.097,8.751 13.275,8.866 13.305,8.886 13.342,8.907 13.546,9.038 13.555,9.046   13.555,9.054 13.526,9.067 13.496,9.075 13.473,9.09 13.469,9.095 13.439,9.087 13.182,8.927 12.961,8.792 12.948,8.781   12.984,8.719 13.002,8.699 13.038,8.715 13.063,8.73 "
   id="polyline29"
   style="fill:#ffd200" />
<polyline
   clip-rule="evenodd"
   points="12.833,8.845 12.728,9.009 12.716,9.018 12.657,9.005   12.371,9.029 12.04,9.059 12.036,9.046 12.036,9.034 12.032,9.029 12.036,9.026 12.032,8.956 12.04,8.94 12.057,8.927 12.34,8.895   12.801,8.837 12.825,8.837 12.833,8.845 "
   id="polyline31"
   style="fill:#ffd200;fill-rule:evenodd" />
<polyline
   clip-rule="evenodd"
   points="11.529,8.948 11.626,8.956 11.717,8.952 11.741,8.964   11.758,8.985 11.787,9.054 11.808,9.095 11.823,9.148 11.84,9.247 11.835,9.361 11.799,9.484 11.799,9.518 11.856,9.607   11.913,9.696 11.931,9.729 11.931,9.742 11.573,9.824 11.414,9.86 11.406,9.86 11.398,9.853 11.406,9.766 11.414,9.758   11.439,9.762 11.468,9.758 11.483,9.737 11.483,9.726 11.455,9.705 11.398,9.688 11.354,9.651 11.305,9.579 11.271,9.487   11.267,9.459 11.271,9.446 11.373,9.436 11.439,9.438 11.578,9.405 11.594,9.397 11.631,9.405 11.651,9.385 11.655,9.288   11.659,9.283 11.655,9.279 11.664,9.247 11.667,9.21 11.688,9.14 11.688,9.125 11.676,9.111 11.599,9.1 11.541,9.075 11.491,9.034   11.447,8.968 11.439,8.94 11.442,8.927 11.472,8.933 11.529,8.948 "
   id="polyline33"
   style="fill:#ffd200;fill-rule:evenodd" />
<polyline
   clip-rule="evenodd"
   points="15.047,8.968 15.149,9.009 15.19,9.029 15.231,9.059   15.317,9.125 15.437,9.247 15.489,9.316 15.521,9.391 15.552,9.471 15.56,9.518 15.566,9.566 15.571,9.61 15.56,9.726 15.533,9.827   15.48,9.962 15.398,10.089 15.396,10.089 15.388,10.105 15.296,10.195 15.203,10.27 15.088,10.355 14.974,10.428 14.858,10.499   14.773,10.576 14.712,10.653 14.654,10.748 14.621,10.817 14.572,10.96 14.549,11.066 14.544,11.124 14.553,11.21 14.568,11.267   14.577,11.292 14.536,11.288 14.462,11.214 14.393,11.101 14.372,11.046 14.359,10.944 14.372,10.837 14.396,10.789 14.421,10.765   14.421,10.755 14.413,10.748 14.396,10.752 14.314,10.83 14.282,10.887 14.258,10.944 14.245,11.03 14.249,11.095 14.271,11.186   14.271,11.189 14.242,11.182 14.181,11.121 14.14,11.042 14.127,10.989 14.122,10.96 14.127,10.957 14.122,10.923 14.122,10.907   14.127,10.903 14.122,10.898 14.131,10.846 14.155,10.78 14.191,10.719 14.249,10.673 14.242,10.663 14.218,10.666 14.188,10.684   14.176,10.684 14.081,10.769 14.032,10.846 14.021,10.878 14.008,10.842 14.013,10.728 14.024,10.673 14.045,10.612 14.078,10.563   14.143,10.502 14.212,10.458 14.299,10.425 14.405,10.393 14.568,10.363 14.631,10.346 14.654,10.343 14.744,10.314 14.94,10.215   15.093,10.113 15.198,10.024 15.306,9.901 15.362,9.803 15.396,9.729 15.411,9.66 15.419,9.574 15.424,9.541 15.408,9.451   15.383,9.402 15.317,9.323 15.329,9.268 15.329,9.251 15.313,9.238 15.296,9.242 15.284,9.259 15.28,9.295 15.252,9.377   15.235,9.446 15.228,9.456 15.206,9.446 15.165,9.391 15.133,9.323 15.102,9.227 15.121,9.152 15.124,9.14 15.124,9.125   15.112,9.116 15.093,9.119 15.08,9.131 15.068,9.169 15.006,9.242 14.998,9.268 15.002,9.271 14.998,9.288 15.002,9.316   14.998,9.32 15.02,9.41 15.022,9.422 15.022,9.438 15.011,9.443 14.961,9.436 14.888,9.385 14.83,9.329 14.773,9.238 14.762,9.145   14.756,9.095 14.732,9.09 14.707,9.095 14.7,9.108 14.688,9.193 14.695,9.242 14.736,9.32 14.784,9.395 14.803,9.426 14.825,9.463   14.781,9.477 14.729,9.477 14.724,9.471 14.721,9.477 14.662,9.463 14.602,9.443 14.553,9.41 14.498,9.369 14.462,9.323   14.449,9.288 14.438,9.288 14.393,9.341 14.359,9.43 14.353,9.479 14.355,9.484 14.353,9.518 14.353,9.528 14.348,9.532   14.353,9.538 14.348,9.64 14.353,9.644 14.348,9.647 14.359,9.771 14.367,9.787 14.372,9.819 14.405,9.917 14.416,9.946   14.475,10.037 14.561,10.163 14.651,10.27 14.666,10.285 14.666,10.29 14.635,10.302 14.52,10.326 14.482,10.335 14.467,10.335   14.381,10.22 14.294,10.069 14.249,9.962 14.218,9.868 14.204,9.819 14.181,9.701 14.168,9.61 14.171,9.5 14.188,9.438   14.204,9.385 14.282,9.254 14.314,9.21 14.413,9.104 14.528,9.009 14.617,8.974 14.784,8.94 14.825,8.936 14.929,8.944   15.047,8.968 "
   id="polyline35"
   style="fill:#ffd200;fill-rule:evenodd" />
<polyline
   points="11.435,9.087 11.509,9.145 11.573,9.169 11.594,9.172 11.599,9.186 11.585,9.32 11.591,9.344   11.578,9.35 11.524,9.344 11.45,9.357 11.386,9.361 11.279,9.364 11.256,9.361 11.23,9.344 11.218,9.292 11.197,9.238 11.177,9.136   11.168,9.07 11.197,9.054 11.32,9.005 11.361,8.993 11.377,9.001 11.435,9.087 "
   id="polyline37"
   style="fill:#ffd200" />
<polyline
   clip-rule="evenodd"
   points="12.69,9.05 12.688,9.075 12.662,9.128 12.629,9.172   12.098,9.251 12.073,9.218 12.053,9.165 12.053,9.145 12.064,9.136 12.638,9.054 12.683,9.046 12.688,9.05 12.69,9.05 "
   id="polyline39"
   style="fill:#ffd200;fill-rule:evenodd" />
<polyline
   points="11.079,9.128 11.1,9.148 11.107,9.16 11.115,9.21 11.141,9.288 11.156,9.329 11.136,9.385   11.107,9.426 10.98,9.354 10.883,9.292 10.919,9.213 10.959,9.145 10.984,9.1 11.018,9.104 11.079,9.128 "
   id="polyline41"
   style="fill:#ffd200" />
<polyline
   clip-rule="evenodd"
   points="12.343,9.518 12.396,9.63 12.457,9.685 12.494,9.701   12.588,9.717 12.67,9.717 12.716,9.783 12.731,9.824 12.67,9.827 12.572,9.824 12.486,9.807 12.408,9.773 12.375,9.753   12.322,9.709 12.269,9.651 12.266,9.566 12.266,9.559 12.269,9.553 12.266,9.548 12.281,9.487 12.302,9.446 12.314,9.436   12.33,9.451 12.343,9.518 "
   id="polyline43"
   style="fill:#ffd200;fill-rule:evenodd" />
<polyline
   clip-rule="evenodd"
   points="13.12,9.701 13.153,9.717 13.182,9.726 13.275,9.792   13.346,9.864 13.373,9.896 13.378,9.901 13.378,9.917 13.362,9.935 13.342,9.941 13.316,9.935 13.288,9.905 13.182,9.832   13.107,9.799 13.03,9.783 12.961,9.771 12.953,9.771 12.94,9.692 12.944,9.688 12.944,9.671 12.94,9.668 12.944,9.664 13.03,9.68   13.12,9.701 "
   id="polyline45"
   style="fill:#ffd200;fill-rule:evenodd" />
<polyline
   points="11.941,9.888 11.941,9.901 11.893,9.95 11.876,9.958 11.872,9.962 11.859,9.95 11.835,9.864   11.831,9.844 11.831,9.832 11.852,9.819 11.872,9.814 11.897,9.814 11.941,9.888 "
   id="polyline47"
   style="fill:#ffd200" />
<polyline
   points="11.811,9.962 11.815,9.991 11.79,10.016 11.688,10.048 11.626,10.061 11.554,10.057 11.524,10.044   11.504,10.024 11.509,9.901 11.537,9.885 11.746,9.84 11.771,9.84 11.811,9.962 "
   id="polyline49"
   style="fill:#ffd200" />
<polyline
   clip-rule="evenodd"
   points="12.176,9.914 12.163,9.955 12.117,10.048 12.09,10.089   11.972,10.11 11.905,10.134 11.844,10.171 11.803,10.204 11.746,10.273 11.713,10.346 11.7,10.425 11.696,10.44 11.696,10.454   11.692,10.458 11.381,10.384 11.431,10.241 11.483,10.093 11.491,10.085 11.57,10.11 11.676,10.113 11.767,10.098 11.872,10.052   12.003,9.95 12.04,9.894 12.084,9.896 12.176,9.914 "
   id="polyline51"
   style="fill:#ffd200;fill-rule:evenodd" />
<polyline
   points="12.314,10.11 12.457,10.179 12.466,10.192 12.389,10.249 12.363,10.273 12.34,10.27 12.278,10.229   12.166,10.146 12.163,10.143 12.163,10.13 12.207,10.061 12.248,10.081 12.314,10.11 "
   id="polyline53"
   style="fill:#ffd200" />
<polyline
   clip-rule="evenodd"
   points="12.307,10.311 12.31,10.314 12.31,10.322 12.258,10.363   12.212,10.425 12.207,10.438 12.212,10.461 12.229,10.479 12.266,10.486 12.273,10.486 12.278,10.489 12.262,10.563 12.237,10.67   12.204,10.694 12.131,10.728 12.09,10.704 12.028,10.653 11.808,10.489 11.778,10.469 11.771,10.458 11.774,10.413 11.79,10.359   11.819,10.302 11.931,10.195 11.972,10.174 12.023,10.159 12.044,10.154 12.109,10.159 12.307,10.311 "
   id="polyline55"
   style="fill:#ffd200;fill-rule:evenodd" />
<polyline
   clip-rule="evenodd"
   points="11.115,10.752 11.201,10.83 11.414,11.046 11.406,11.054   11.275,11.066 11.271,11.063 11.238,11.066 11.136,11.06 11.092,11.042 10.969,10.964 11.041,10.891 11.041,10.875 11.046,10.871   11.033,10.85 11.018,10.837 10.992,10.842 10.969,10.857 10.956,10.878 10.87,10.896 10.796,10.928 10.706,10.937 10.698,10.937   10.698,10.928 10.896,10.785 11.014,10.694 11.041,10.704 11.115,10.752 "
   id="polyline57"
   style="fill:#ffd200;fill-rule:evenodd" />
<polyline
   clip-rule="evenodd"
   points="13.738,12.082 13.741,12.098 13.73,12.123 13.726,12.146   13.713,12.196 13.7,12.298 13.692,12.348 13.651,12.351 13.607,12.363 13.546,12.372 13.424,12.408 13.357,12.433 13.313,12.458   13.28,12.499 13.271,12.527 13.256,12.572 13.247,12.683 13.247,12.698 13.26,12.708 13.288,12.704 13.346,12.715 13.387,12.736   13.432,12.784 13.452,12.831 13.46,12.872 13.455,12.907 13.443,12.94 13.414,12.984 13.321,13.071 13.296,13.083 13.288,13.071   13.291,13.035 13.288,13.03 13.291,13.025 13.291,13.009 13.288,13.005 13.291,13.001 13.28,12.916 13.26,12.866 13.234,12.841   13.189,12.851 13.178,12.862 13.193,12.882 13.206,12.907 13.21,12.94 13.215,13.042 13.193,13.107 13.157,13.168 13.107,13.227   13.056,13.26 12.961,13.289 12.912,13.289 12.956,13.214 12.989,13.148 13.002,13.107 13.006,13.055 13.002,13.03 12.981,12.984   12.961,12.96 12.948,12.96 12.936,12.974 12.933,13.009 12.915,13.096 12.888,13.178 12.854,13.234 12.78,13.309 12.739,13.333   12.662,13.354 12.634,13.357 12.616,13.357 12.646,13.275 12.654,13.201 12.642,13.168 12.608,13.104 12.593,13.091 12.575,13.1   12.552,13.137 12.552,13.209 12.416,13.269 12.381,13.289 12.371,13.296 12.375,13.313 12.453,13.41 12.494,13.456 12.512,13.493   12.49,13.513 12.281,13.644 12.229,13.669 12.262,13.595 12.318,13.521 12.359,13.476 12.363,13.456 12.355,13.444 12.351,13.439   12.302,13.452 12.248,13.473 12.24,13.473 12.248,13.378 12.24,13.316 12.232,13.28 12.204,13.239 12.176,13.219 12.158,13.209   12.109,13.214 12.064,13.248 11.962,13.357 11.885,13.464 11.872,13.473 11.856,13.464 11.753,13.382 11.722,13.362 11.696,13.362   11.676,13.382 11.672,13.403 11.676,13.418 11.7,13.444 11.737,13.456 11.79,13.497 11.795,13.508 11.782,13.525 11.767,13.615   11.749,13.717 11.749,13.721 11.737,13.709 11.713,13.644 11.672,13.563 11.603,13.403 11.591,13.378 11.573,13.337 11.778,13.242   11.995,13.146 12.013,13.128 12.008,13.112 11.995,13.104 11.991,13.1 11.967,13.104 11.946,13.116 11.917,13.125 11.803,13.173   11.623,13.255 11.594,13.269 11.573,13.263 11.459,13.107 11.447,13.096 11.431,13.096 11.409,13.121 11.414,13.178 11.431,13.207   11.291,13.403 11.264,13.452 11.259,13.456 11.256,13.395 11.275,13.121 11.283,13.091 11.476,13.051 11.57,13.025 11.852,12.948   12.15,12.854 12.453,12.743 12.506,12.718 12.556,12.678 12.601,12.616 12.613,12.527 12.608,12.433 12.605,12.429 12.608,12.424   12.601,12.322 12.605,12.298 12.605,12.287 12.638,12.257 12.649,12.249 12.662,12.237 12.662,12.225 12.666,12.22 12.657,12.205   12.638,12.188 12.597,12.191 12.572,12.205 12.535,12.208 12.466,12.196 12.389,12.158 12.34,12.109 12.302,12.057 12.286,12.003   12.278,11.971 12.286,11.864 12.314,11.808 12.359,11.774 12.371,11.771 12.381,11.771 12.392,11.798 12.441,11.849 12.503,11.88   12.547,11.893 12.675,11.91 12.679,11.914 12.683,11.91 12.688,11.914 12.69,11.91 12.776,11.918 12.978,11.897 13.112,11.869   13.223,11.829 13.387,11.757 13.506,11.721 13.517,11.721 13.738,12.082 "
   id="polyline59"
   style="fill:#ffd200;fill-rule:evenodd" />
<polyline
   clip-rule="evenodd"
   points="13.804,11.819 13.828,11.839 13.836,11.849 13.828,11.89   13.815,11.959 13.808,11.987 13.779,11.955 13.733,11.877 13.685,11.788 13.66,11.741 13.779,11.812 13.804,11.819 "
   id="polyline61"
   style="fill:#ffd200;fill-rule:evenodd" />
<polyline
   clip-rule="evenodd"
   points="11.647,12.79 11.733,12.872 11.746,12.892 11.749,12.896   11.749,12.907 11.55,12.957 11.524,12.96 11.509,12.948 11.509,12.928 11.545,12.882 11.55,12.872 11.545,12.846 11.529,12.831   11.509,12.831 11.48,12.859 11.447,12.899 11.406,12.928 11.246,12.981 11.201,12.994 11.156,13.001 11.156,12.998 11.152,12.994   11.472,12.674 11.517,12.695 11.647,12.79 "
   id="polyline63"
   style="fill:#ffd200;fill-rule:evenodd" />
<polyline
   clip-rule="evenodd"
   points="12.176,13.337 12.184,13.395 12.18,13.459 12.158,13.529   12.143,13.685 12.146,13.733 12.171,13.819 12.184,13.843 12.081,13.897 11.982,13.976 11.938,14.021 11.913,14.052 11.856,14.15   11.844,14.208 11.849,14.246 11.885,14.282 11.909,14.282 11.926,14.266 11.913,14.205 11.941,14.159 11.975,14.134 12.008,14.14   12.036,14.159 12.073,14.208 12.094,14.262 12.093,14.319 12.077,14.359 12.028,14.4 11.987,14.421 11.95,14.425 11.946,14.429   11.941,14.425 11.926,14.429 11.876,14.421 11.835,14.396 11.799,14.373 11.753,14.326 11.713,14.253 11.7,14.191 11.708,14.126   11.722,14.089 11.753,14.021 11.859,13.881 11.89,13.833 11.909,13.774 11.909,13.75 11.946,13.73 12.016,13.659 12.04,13.624   12.073,13.542 12.069,13.538 12.077,13.497 12.069,13.426 12.049,13.374 12.049,13.354 12.135,13.275 12.143,13.275 12.176,13.337   "
   id="polyline65"
   style="fill:#ffd200;fill-rule:evenodd" />
<polyline
   clip-rule="evenodd"
   points="11.189,13.292 11.185,13.324 11.189,13.33 11.185,13.426   11.182,13.432 11.185,13.533 11.189,13.549 11.215,13.57 11.238,13.566 11.275,13.554 11.435,13.324 11.472,13.333 11.509,13.345   11.521,13.345 11.541,13.403 11.655,13.665 11.741,13.823 11.763,13.843 11.837,13.714 11.815,13.808 11.782,13.877 11.771,13.881   11.722,13.864 11.686,13.84 11.651,13.803 11.623,13.741 11.623,13.73 11.611,13.709 11.606,13.689 11.57,13.651 11.545,13.665   11.537,13.672 11.532,13.721 11.532,13.733 11.476,13.726 11.439,13.706 11.377,13.64 11.361,13.604 11.354,13.574 11.354,13.554   11.328,13.529 11.3,13.533 11.283,13.554 11.279,13.574 11.279,13.583 11.275,13.587 11.291,13.635 11.291,13.651 11.238,13.677   11.201,13.706 11.164,13.767 11.152,13.823 11.156,13.902 11.174,13.942 11.177,13.942 11.177,13.946 11.133,13.93 11.095,13.905   11.052,13.854 11.025,13.803 11.018,13.762 11.014,13.7 11.021,13.644 11.041,13.595 11.104,13.533 11.112,13.5 11.095,13.464   11.066,13.418 11.063,13.371 11.071,13.337 11.092,13.296 11.104,13.283 11.115,13.28 11.185,13.283 11.189,13.292 "
   id="polyline67"
   style="fill:#ffd200;fill-rule:evenodd" />
<polyline
   clip-rule="evenodd"
   points="14.218,13.435 14.311,13.48 14.367,13.525 14.386,13.542   14.393,13.566 14.364,13.59 14.266,13.635 14.168,13.665 14.136,13.659 14.103,13.648 14.078,13.644 14.073,13.64 14.147,13.513   14.143,13.5 14.131,13.493 14.086,13.508 13.996,13.624 13.936,13.68 13.861,13.73 13.845,13.733 13.972,13.48 14.021,13.386   14.114,13.403 14.218,13.435 "
   id="polyline69"
   style="fill:#ffd200;fill-rule:evenodd" />
<polyline
   clip-rule="evenodd"
   points="11.972,13.563 11.954,13.599 11.921,13.644 11.849,13.7   11.831,13.731 11.831,13.68 11.844,13.651 11.849,13.628 11.864,13.57 11.864,13.549 11.89,13.542 11.9,13.529 11.938,13.549   11.972,13.563 "
   id="polyline71"
   style="fill:#ffd200;fill-rule:evenodd" />
<polyline
   clip-rule="evenodd"
   points="12.421,13.767 12.526,13.799 12.731,13.849 12.948,13.89   13.157,13.909 13.623,13.917 13.877,13.902 13.873,13.95 13.854,14.041 13.845,14.048 13.566,14.061 13.296,14.048 13.128,14.032   12.989,14.012 12.83,13.979 12.613,13.917 12.433,13.856 12.229,13.782 12.212,13.741 12.212,13.717 12.229,13.7 12.269,13.709   12.421,13.767 "
   id="polyline73"
   style="fill:#ffd200;fill-rule:evenodd" />
<polyline
   points="12.474,13.956 12.654,13.991 12.739,14.012 12.903,14.045 13.21,14.085 13.379,14.098   13.533,14.102 13.836,14.106 13.841,14.118 13.828,14.167 13.823,14.208 13.808,14.285 13.8,14.293 13.541,14.298 13.288,14.285   13.146,14.273 13.01,14.253 12.806,14.208 12.634,14.167 12.351,14.073 12.155,13.997 12.09,13.971 12.084,13.966 12.105,13.946   12.158,13.915 12.207,13.902 12.245,13.897 12.322,13.909 12.474,13.956 "
   id="polyline75"
   style="fill:#ffd200" />
<polyline
   clip-rule="evenodd"
   points="14.773,14 14.794,14.021 14.814,14.024 14.83,14.024   14.835,14.021 14.838,14.024 14.844,14.032 14.835,14.089 14.803,14.109 14.712,14.143 14.662,14.15 14.639,14.15 14.675,14.045   14.729,13.942 14.732,13.922 14.741,13.922 14.773,14 "
   id="polyline77"
   style="fill:#ffd200;fill-rule:evenodd" />
<polyline
   clip-rule="evenodd"
   points="14.201,14.068 14.114,14.171 14.119,14.196   14.143,14.212 14.15,14.221 14.15,14.229 14.106,14.25 14.073,14.253 14.017,14.266 13.914,14.273 13.909,14.271 13.968,14.205   14.058,14.079 14.065,14.079 14.073,14.099 14.09,14.114 14.122,14.109 14.196,14.052 14.204,14.052 14.201,14.068 "
   id="polyline79"
   style="fill:#ffd200;fill-rule:evenodd" />
<path
   d="M 12.97,9.063 L 12.99,9.076 L 12.998,9.084 L 12.99,9.132 L 12.998,9.149 L 12.995,9.186 L 12.961,9.21 L 12.883,9.242 L 12.833,9.274 L 12.813,9.274 L 12.805,9.267 L 12.8,9.246 L 12.824,9.213 L 12.873,9.172 L 12.887,9.136 L 12.858,9.119 L 12.833,9.116 L 12.825,9.116 L 12.805,9.103 L 12.785,9.09 L 12.78,9.075 L 12.785,9.05 L 12.801,9.046 L 12.866,9.067 L 12.97,9.063 M 13.12,8.98 L 13.193,9.026 L 13.202,9.034 L 13.22,9.042 L 13.256,9.067 L 13.332,9.131 L 13.37,9.172 L 13.373,9.193 L 13.37,9.207 L 13.357,9.23 L 13.362,9.259 L 13.378,9.271 L 13.403,9.267 L 13.431,9.213 L 13.495,9.148 L 13.554,9.116 L 13.639,9.103 L 13.697,9.108 L 13.73,9.119 L 13.782,9.16 L 13.82,9.213 L 13.823,9.234 L 13.828,9.242 L 13.828,9.251 L 13.82,9.288 L 13.795,9.329 L 13.746,9.365 L 13.713,9.386 L 13.651,9.398 L 13.603,9.398 L 13.574,9.406 L 13.554,9.427 L 13.557,9.447 L 13.598,9.456 L 13.7,9.446 L 13.804,9.405 L 13.869,9.364 L 13.958,9.283 L 13.972,9.303 L 13.977,9.328 L 13.977,9.336 L 13.984,9.369 L 13.977,9.435 L 13.977,9.443 L 13.95,9.492 L 13.832,9.586 L 13.763,9.627 L 13.693,9.647 L 13.681,9.663 L 13.685,9.684 L 13.693,9.692 L 13.722,9.696 L 13.813,9.671 L 13.865,9.651 L 13.942,9.6 L 13.987,9.559 L 13.999,9.546 L 14.008,9.546 L 14.017,9.554 L 14.025,9.583 L 14.033,9.631 L 14.029,9.681 L 14.008,9.743 L 13.968,9.8 L 13.922,9.836 L 13.845,9.886 L 13.808,9.902 L 13.7,9.935 L 13.689,9.947 L 13.697,9.968 L 13.725,9.979 L 13.8,9.976 L 13.832,9.968 L 13.909,9.935 L 14.008,9.861 L 14.029,9.841 L 14.038,9.841 L 14.05,9.865 L 14.063,9.906 L 14.055,10.009 L 14.026,10.07 L 13.985,10.122 L 13.911,10.175 L 13.85,10.204 L 13.805,10.216 L 13.72,10.224 L 13.653,10.229 L 13.646,10.242 L 13.65,10.27 L 13.671,10.282 L 13.728,10.295 L 13.806,10.29 L 13.897,10.265 L 14.006,10.204 L 14.019,10.193 L 14.027,10.193 L 14.031,10.213 L 14.031,10.234 L 14.035,10.245 L 14.023,10.319 L 13.986,10.397 L 13.941,10.446 L 13.897,10.482 L 13.823,10.515 L 13.687,10.536 L 13.565,10.531 L 13.54,10.531 L 13.532,10.528 L 13.509,10.531 L 13.499,10.544 L 13.504,10.564 L 13.52,10.581 L 13.578,10.597 L 13.664,10.602 L 13.758,10.592 L 13.776,10.592 L 13.874,10.572 L 13.914,10.556 L 13.923,10.561 L 13.9,10.633 L 13.859,10.691 L 13.8,10.732 L 13.738,10.761 L 13.669,10.777 L 13.514,10.786 L 13.416,10.777 L 13.378,10.756 L 13.367,10.756 L 13.35,10.773 L 13.367,10.806 L 13.388,10.818 L 13.519,10.843 L 13.617,10.847 L 13.719,10.83 L 13.747,10.818 L 13.768,10.822 L 14.009,11.075 L 14.23,11.293 L 14.452,11.489 L 14.583,11.587 L 14.681,11.591 L 14.768,11.574 L 14.821,11.554 L 14.865,11.522 L 14.927,11.444 L 14.968,11.349 L 14.986,11.297 L 15.002,11.231 L 14.997,11.117 L 14.974,11.019 L 14.941,10.937 L 14.883,10.83 L 14.789,10.699 L 14.792,10.671 L 14.896,10.548 L 14.916,10.552 L 14.975,10.61 L 15.118,10.822 L 15.196,10.994 L 15.22,11.063 L 15.278,11.08 L 15.298,11.075 L 15.316,11.075 L 15.368,11.08 L 15.48,11.067 L 15.582,11.031 L 15.59,11.043 L 15.582,11.141 L 15.508,11.252 L 15.459,11.297 L 15.378,11.325 L 15.283,11.333 L 15.238,11.329 L 15.221,11.346 L 15.216,11.366 L 15.221,11.382 L 15.242,11.395 L 15.345,11.411 L 15.422,11.403 L 15.573,11.354 L 15.61,11.338 L 15.631,11.338 L 15.618,11.39 L 15.565,11.492 L 15.516,11.55 L 15.454,11.595 L 15.372,11.624 L 15.257,11.645 L 15.225,11.648 L 15.163,11.64 L 15.126,11.619 L 15.118,11.619 L 15.012,11.741 L 14.936,11.798 L 14.898,11.815 L 14.788,11.848 L 14.723,11.856 L 14.653,11.844 L 14.605,11.819 L 14.576,11.798 L 14.564,11.803 L 14.591,11.856 L 14.632,11.897 L 14.675,12 L 14.688,12.057 L 14.693,12.225 L 14.693,12.258 L 14.68,12.356 L 14.693,12.405 L 14.729,12.454 L 14.765,12.487 L 14.823,12.515 L 14.929,12.54 L 15.006,12.573 L 15.056,12.609 L 15.088,12.658 L 15.093,12.688 L 15.075,12.814 L 15.063,12.851 L 15.071,12.883 L 15.088,12.896 L 15.129,12.9 L 15.232,12.969 L 15.335,13.077 L 15.384,13.166 L 15.4,13.223 L 15.41,13.289 L 15.4,13.346 L 15.405,13.354 L 15.389,13.419 L 15.371,13.473 L 15.351,13.514 L 15.31,13.424 L 15.273,13.366 L 15.199,13.289 L 15.175,13.281 L 15.151,13.281 L 15.13,13.297 L 15.13,13.309 L 15.221,13.407 L 15.266,13.476 L 15.294,13.558 L 15.303,13.616 L 15.297,13.698 L 15.289,13.734 L 15.277,13.78 L 15.245,13.841 L 15.221,13.857 L 15.196,13.8 L 15.147,13.742 L 15.044,13.665 L 15.035,13.665 L 14.999,13.64 L 14.987,13.636 L 14.966,13.657 L 14.958,13.69 L 14.958,13.698 L 15.088,13.836 L 15.097,13.854 L 15.088,13.898 L 15.034,13.988 L 14.932,14.168 L 14.915,14.197 L 14.898,14.217 L 14.895,14.164 L 14.898,14.135 L 14.906,14.025 L 14.915,14.008 L 14.938,14 L 14.982,13.997 L 14.995,13.984 L 14.999,13.959 L 14.97,13.93 L 14.916,13.934 L 14.899,13.942 L 14.83,13.95 L 14.814,13.922 L 14.769,13.741 L 14.755,13.733 L 14.715,13.746 L 14.687,13.779 L 14.634,13.942 L 14.571,14.057 L 14.538,14.134 L 14.53,14.142 L 14.527,14.163 L 14.514,14.175 L 14.506,14.175 L 14.411,14.089 L 14.365,14.073 L 14.353,14.073 L 14.342,14.085 L 14.342,14.098 L 14.35,14.122 L 14.383,14.147 L 14.413,14.183 L 14.464,14.293 L 14.476,14.326 L 14.496,14.38 L 14.506,14.408 L 14.493,14.408 L 14.312,14.273 L 14.209,14.183 L 14.205,14.175 L 14.205,14.159 L 14.361,13.966 L 14.495,13.782 L 14.495,13.774 L 14.479,13.758 L 14.446,13.762 L 14.307,13.922 L 14.267,13.966 L 14.193,13.983 L 14.119,14.02 L 14.107,14.007 L 14.086,13.914 L 14.082,13.884 L 14.082,13.877 L 14.05,13.853 L 14.041,13.853 L 14.02,13.856 L 14.012,13.877 L 14.008,13.909 L 14.012,13.922 L 14.003,13.975 L 13.994,13.991 L 13.986,14.04 L 13.93,14.098 L 13.892,14.139 L 13.904,14.06 L 13.922,14 L 13.927,13.967 L 13.95,13.836 L 13.958,13.812 L 13.972,13.8 L 14.054,13.775 L 14.184,13.739 L 14.389,13.678 L 14.457,13.64 L 14.516,13.583 L 14.569,13.473 L 14.602,13.379 L 14.635,13.251 L 14.655,13.121 L 14.647,13.072 L 14.618,13.01 L 14.524,12.921 L 14.43,12.88 L 14.315,12.831 L 14.279,12.819 L 14.225,12.773 L 14.208,12.778 L 14.201,12.79 L 14.204,12.929 L 14.191,13.002 L 14.168,13.067 L 14.127,13.125 L 14.058,13.186 L 13.992,13.223 L 13.95,13.23 L 13.832,13.222 L 13.897,13.14 L 13.914,13.104 L 13.918,13.066 L 13.914,13.058 L 13.918,13.051 L 13.909,12.989 L 13.889,12.928 L 13.876,12.871 L 13.848,12.772 L 13.807,12.613 L 13.794,12.534 L 13.781,12.449 L 13.778,12.347 L 13.786,12.278 L 13.786,12.261 L 13.799,12.224 L 13.803,12.196 L 13.831,12.126 L 13.868,12.048 L 13.896,11.954 L 13.913,11.88 L 13.908,11.787 L 13.876,11.664 L 13.86,11.619 L 13.839,11.573 L 13.814,11.545 L 13.781,11.504 L 13.737,11.468 L 13.688,11.443 L 13.667,11.447 L 13.654,11.46 L 13.658,11.483 L 13.769,11.598 L 13.792,11.647 L 13.81,11.7 L 13.81,11.721 L 13.789,11.716 L 13.73,11.68 L 13.48,11.562 L 13.324,11.496 L 13.104,11.414 L 13.055,11.398 L 13.104,11.324 L 13.127,11.235 L 13.137,11.14 L 13.132,11.021 L 13.107,10.948 L 13.096,10.939 L 13.075,10.944 L 13.058,10.956 L 13.05,10.989 L 13.055,10.997 L 13.055,11.123 L 13.041,11.23 L 13.021,11.287 L 12.993,11.345 L 12.955,11.394 L 12.894,11.439 L 12.845,11.46 L 12.791,11.468 L 12.69,11.48 L 12.678,11.48 L 12.727,11.332 L 12.748,11.194 L 12.739,11.123 L 12.723,11.092 L 12.715,11.082 L 12.69,11.087 L 12.669,11.116 L 12.656,11.164 L 12.64,11.299 L 12.627,11.345 L 12.611,11.406 L 12.57,11.46 L 12.533,11.496 L 12.455,11.545 L 12.373,11.573 L 12.312,11.573 L 12.373,11.468 L 12.406,11.402 L 12.419,11.353 L 12.428,11.307 L 12.419,11.258 L 12.395,11.238 L 12.37,11.243 L 12.349,11.258 L 12.317,11.378 L 12.264,11.483 L 12.198,11.541 L 12.137,11.578 L 12.072,11.603 L 11.961,11.611 L 11.889,11.598 L 11.998,11.483 L 12.015,11.46 L 12.015,11.435 L 11.998,11.414 L 11.978,11.41 L 11.965,11.414 L 11.956,11.414 L 11.915,11.447 L 11.842,11.491 L 11.711,11.557 L 11.7,11.579 L 11.705,11.587 L 11.726,11.742 L 11.693,11.763 L 11.55,11.804 L 11.422,11.829 L 11.39,11.829 L 11.468,11.75 L 11.509,11.694 L 11.554,11.709 L 11.623,11.73 L 11.635,11.722 L 11.648,11.709 L 11.648,11.68 L 11.631,11.659 L 11.582,11.644 L 11.554,11.631 L 11.522,11.623 L 11.513,11.614 L 11.517,11.573 L 11.55,11.491 L 11.554,11.471 L 11.55,11.46 L 11.529,11.443 L 11.5,11.447 L 11.463,11.471 L 11.317,11.614 L 11.235,11.676 L 11.223,11.631 L 11.218,11.573 L 11.209,11.553 L 11.185,11.529 L 11.164,11.529 L 11.136,11.557 L 11.194,11.897 L 11.162,11.86 L 11.030999,11.672 L 10.935999,11.541 L 10.935999,11.529 L 11.107999,11.45 L 11.374,11.324 L 11.382,11.312 L 11.378,11.287 L 11.35,11.266 L 11.191,11.332 L 11.145,11.353 L 11.039999,11.358 L 10.940999,11.373 L 10.936999,11.361 L 10.949999,11.307 L 10.966999,11.255 L 10.970999,11.21 L 10.970999,11.194 L 10.941999,11.169 L 10.925999,11.169 L 10.900999,11.194 L 10.892999,11.218 L 10.878999,11.32 L 10.858999,11.34 L 10.809999,11.365 L 10.756999,11.381 L 10.674999,11.41 L 10.833999,11.161 L 10.837999,11.148 L 10.862999,11.12 L 10.886999,11.079 L 10.931999,11.087 L 11.013999,11.116 L 11.054999,11.128 L 11.157,11.14 L 11.305,11.144 L 11.422,11.128 L 11.517,11.103 L 11.686,11.025 L 12.675,10.535 L 12.761,10.519 L 12.781,10.498 L 12.781,10.469 L 12.761,10.453 L 12.72,10.448 L 12.679,10.458 L 12.575,10.506 L 12.412,10.584 L 12.381,10.604 L 12.351,10.612 L 12.33,10.624 L 12.343,10.555 L 12.392,10.448 L 12.384,10.433 L 12.356,10.42 L 12.327,10.417 L 12.344,10.392 L 12.463,10.289 L 12.54,10.241 L 12.676,10.183 L 12.753,10.162 L 12.774,10.162 L 12.802,10.154 L 12.864,10.151 L 12.885,10.154 L 12.898,10.151 L 13.004,10.162 L 13.094,10.187 L 13.14,10.203 L 13.148,10.208 L 13.188,10.208 L 13.212,10.183 L 13.208,10.134 L 13.184,10.113 L 13.156,10.121 L 13.143,10.126 L 13.1,10.118 L 13.031,10.097 L 12.892,10.076 L 12.867,10.071 L 12.839,10.051 L 12.812,10.014 L 12.812,9.979 L 12.848,9.947 L 12.86,9.935 L 12.819,9.853 L 12.815,9.828 L 12.815,9.807 L 12.88,9.836 L 12.916,9.869 L 12.998,9.935 L 13.011,9.938 L 13.024,9.951 L 13.098,9.988 L 13.228,10.012 L 13.265,10.012 L 13.273,10.016 L 13.379,10.004 L 13.407,9.992 L 13.435,9.958 L 13.465,9.889 L 13.469,9.845 L 13.46,9.792 L 13.439,9.734 L 13.398,9.66 L 13.288,9.532 L 13.23,9.487 L 13.168,9.467 L 13.091,9.459 L 13.03,9.477 L 12.973,9.513 L 12.903,9.579 L 12.871,9.636 L 12.871,9.652 L 12.862,9.66 L 12.854,9.701 L 12.858,9.712 L 12.862,9.733 L 12.862,9.753 L 12.833,9.745 L 12.793,9.704 L 12.752,9.643 L 12.744,9.607 L 12.707,9.569 L 12.687,9.525 L 12.678,9.484 L 12.719,9.405 L 12.743,9.341 L 12.735,9.333 L 12.706,9.344 L 12.648,9.402 L 12.632,9.418 L 12.623,9.418 L 12.603,9.385 L 12.606,9.341 L 12.705,9.18 L 12.754,9.103 L 12.771,9.058 L 12.87,8.915 L 12.911,8.862 L 13.005,8.911 L 13.12,8.98 z M 12.833,9.569 L 12.83,9.589 L 12.813,9.602 L 12.78,9.607 L 12.76,9.61 L 12.751,9.602 L 12.76,9.574 L 12.776,9.561 L 12.83,9.566 L 12.833,9.569 z "
   style="fill:#ffd200;fill-rule:evenodd"
   id="path81" />
</svg>