<?xml version="1.0" encoding="UTF-8" standalone="no"?>
<!-- Created with Inkscape (http://www.inkscape.org/) -->
<svg
   xmlns:svg="http://www.w3.org/2000/svg"
   xmlns="http://www.w3.org/2000/svg"
   version="1.0"
   width="553.87384"
   height="800.32996"
   viewBox="0 0 26.53 38.335"
   id="Layer_1"
   xml:space="preserve"><defs
   id="defs80" />
<rect
   width="26.459999"
   height="38.264999"
   x="0.035"
   y="0.03499848"
   id="rect3" />
<rect
   width="26.459999"
   height="38.264999"
   x="0.035"
   y="0.03499848"
   style="fill:none;stroke:black;stroke-width:0.07;stroke-miterlimit:3.86400008"
   id="rect5" />
<rect
   width="26.459999"
   height="3.721"
   x="0.035"
   y="21.706999"
   style="fill:#ffd200"
   id="rect7" />
<rect
   width="26.459999"
   height="3.721"
   x="0.035"
   y="21.706999"
   style="fill:none;stroke:#ffd200;stroke-width:0.07;stroke-miterlimit:3.86400008"
   id="rect9" />
<rect
   width="26.459999"
   height="3.7190001"
   x="0.035"
   y="26.786999"
   style="fill:#ffd200"
   id="rect11" />
<rect
   width="26.459999"
   height="3.7190001"
   x="0.035"
   y="26.786999"
   style="fill:none;stroke:#ffd200;stroke-width:0.07;stroke-miterlimit:3.86400008"
   id="rect13" />
<rect
   width="26.459999"
   height="3.7190001"
   x="0.035"
   y="32.16"
   style="fill:#ffd200"
   id="rect15" />
<rect
   width="26.459999"
   height="3.7190001"
   x="0.035"
   y="32.16"
   style="fill:none;stroke:#ffd200;stroke-width:0.07;stroke-miterlimit:3.86400008"
   id="rect17" />
<polyline
   clip-rule="evenodd"
   points="13.55,12.602 13.55,12.611 13.529,12.627 13.517,12.639   13.517,12.647 13.513,12.652 13.529,12.675 13.542,12.68 13.578,12.672 13.606,12.68 13.626,12.704 13.64,12.757 13.624,12.79   13.591,12.823 13.558,12.839 13.529,12.844 13.483,12.819 13.472,12.823 13.451,12.844 13.456,12.856 13.521,12.901 13.64,12.979   13.733,13.036 13.755,13.031 13.771,13.011 13.767,12.99 13.733,12.966 13.708,12.958 13.677,12.934 13.665,12.908 13.667,12.864   13.692,12.811 13.722,12.786 13.787,12.79 13.787,12.795 13.804,12.803 13.823,12.844 13.828,12.864 13.849,12.885 13.864,12.885   13.886,12.86 13.878,12.831 13.882,12.827 13.878,12.815 13.882,12.786 13.905,12.762 13.925,12.757 13.934,12.757 13.938,12.754   13.983,12.762 14.021,12.774 14.046,12.795 14.062,12.815 14.065,12.872 14.062,12.901 14.015,12.938 13.995,12.946 13.983,12.974   13.991,12.99 14.013,13.003 14.062,12.995 14.087,12.982 14.122,12.987 14.143,13.003 14.163,13.028 14.167,13.051 14.163,13.056   14.167,13.061 14.15,13.105 14.13,13.125 14.109,13.138 14.089,13.146 14.087,13.142 14.054,13.146 14.035,13.146 14.032,13.142   14.028,13.146 13.983,13.118 13.964,13.11 13.938,13.113 13.925,13.122 13.917,13.13 13.925,13.151 13.972,13.183 14.062,13.24   14.122,13.281 14.175,13.317 14.216,13.326 14.237,13.322 14.245,13.309 14.24,13.289 14.204,13.245 14.196,13.199 14.204,13.166   14.208,13.154 14.216,13.13 14.245,13.105 14.294,13.093 14.343,13.093 14.359,13.118 14.352,13.158 14.347,13.163 14.352,13.179   14.363,13.187 14.384,13.187 14.417,13.154 14.438,13.133 14.474,13.122 14.52,13.125 14.531,13.138 14.352,13.309 14.237,13.412   14.229,13.412 14.208,13.375 14.128,13.294 14.081,13.273 13.979,13.256 13.86,13.183 13.585,13.011 13.37,12.877 13.357,12.88   13.354,12.88 13.349,12.877 13.36,12.836 13.395,12.757 13.501,12.52 13.513,12.496 13.542,12.549 13.55,12.602 "
   id="polyline19"
   style="fill:#ffd200;fill-rule:evenodd"
   transform="translate(1.429942e-7,-1.520441e-6)" />
<polyline
   points="12.355,12.99 12.334,13.031 12.317,13.085 12.31,13.122 12.306,13.125 12.306,13.133   12.301,13.204 12.297,13.245 12.306,13.343 12.342,13.47 12.388,13.539 12.473,13.616 12.485,13.624 12.481,13.654 12.47,13.674   12.399,13.834 12.396,13.838 12.22,13.698 12.215,13.69 12.224,13.645 12.24,13.596 12.249,13.501 12.249,13.44 12.22,13.302   12.184,13.195 12.125,13.085 12.092,13.044 12.082,13.036 12.076,13.031 12.072,13.028 12.076,13.003 12.164,12.815 12.351,12.979   12.355,12.99 "
   id="polyline21"
   style="fill:#ffd200"
   transform="translate(1.429942e-7,-1.520441e-6)" />
<polyline
   clip-rule="evenodd"
   points="14.813,12.888 14.866,12.905 15.003,12.958 15.015,12.97   14.974,13.011 14.806,13.138 14.617,13.166 14.605,13.151 14.613,13.133 14.608,13.11 14.56,13.077 14.52,13.069 14.438,13.072   14.434,13.077 14.413,13.072 14.384,13.048 14.335,13.031 14.249,13.036 14.245,13.04 14.229,13.04 14.212,13.003 14.175,12.95   14.175,12.946 14.184,12.938 14.441,12.905 14.731,12.864 14.781,12.872 14.813,12.888 "
   id="polyline23"
   style="fill:#ffd200;fill-rule:evenodd"
   transform="translate(1.429942e-7,-1.520441e-6)" />
<polyline
   points="13.398,12.95 13.431,12.97 13.611,13.085 13.64,13.105 13.677,13.125 13.882,13.256 13.89,13.265   13.89,13.273 13.86,13.286 13.831,13.294 13.808,13.309 13.804,13.314 13.774,13.306 13.517,13.146 13.296,13.011 13.283,12.999   13.319,12.938 13.337,12.917 13.374,12.934 13.398,12.95 "
   id="polyline25"
   style="fill:#ffd200"
   transform="translate(1.429942e-7,-1.520441e-6)" />
<polyline
   clip-rule="evenodd"
   points="13.169,13.064 13.063,13.228 13.05,13.236 12.992,13.224   12.707,13.248 12.375,13.277 12.372,13.265 12.372,13.253 12.367,13.248 12.372,13.245 12.367,13.174 12.375,13.158 12.391,13.146   12.674,13.113 13.135,13.056 13.161,13.056 13.169,13.064 "
   id="polyline27"
   style="fill:#ffd200;fill-rule:evenodd"
   transform="translate(1.429942e-7,-1.520441e-6)" />
<polyline
   clip-rule="evenodd"
   points="11.864,13.166 11.961,13.174 12.051,13.171   12.076,13.183 12.092,13.204 12.123,13.273 12.143,13.314 12.158,13.367 12.174,13.465 12.171,13.58 12.133,13.703 12.133,13.736   12.191,13.825 12.249,13.915 12.265,13.948 12.265,13.961 11.908,14.042 11.75,14.079 11.741,14.079 11.733,14.071 11.741,13.985   11.75,13.977 11.774,13.981 11.803,13.977 11.818,13.956 11.818,13.943 11.791,13.923 11.733,13.907 11.688,13.87 11.639,13.797   11.606,13.706 11.602,13.678 11.606,13.665 11.708,13.654 11.774,13.657 11.914,13.624 11.929,13.616 11.966,13.624 11.987,13.604   11.99,13.506 11.995,13.501 11.99,13.498 12,13.465 12.002,13.429 12.023,13.358 12.023,13.343 12.01,13.33 11.934,13.317   11.876,13.294 11.826,13.253 11.782,13.187 11.774,13.158 11.778,13.146 11.806,13.151 11.864,13.166 "
   id="polyline29"
   style="fill:#ffd200;fill-rule:evenodd"
   transform="translate(1.429942e-7,-1.520441e-6)" />
<polyline
   clip-rule="evenodd"
   points="15.382,13.187 15.485,13.228 15.525,13.248   15.566,13.277 15.651,13.343 15.771,13.465 15.824,13.534 15.856,13.608 15.886,13.69 15.894,13.736 15.902,13.785 15.906,13.829   15.894,13.943 15.869,14.046 15.815,14.181 15.733,14.308 15.73,14.308 15.722,14.324 15.632,14.414 15.538,14.488 15.423,14.574   15.309,14.647 15.194,14.717 15.108,14.795 15.048,14.872 14.989,14.966 14.956,15.035 14.907,15.179 14.884,15.286 14.88,15.342   14.888,15.429 14.904,15.485 14.912,15.51 14.872,15.506 14.798,15.433 14.729,15.318 14.708,15.265 14.695,15.163 14.708,15.056   14.731,15.007 14.757,14.983 14.757,14.974 14.749,14.966 14.731,14.971 14.649,15.048 14.617,15.106 14.593,15.163 14.581,15.249   14.585,15.314 14.605,15.404 14.605,15.408 14.576,15.4 14.515,15.339 14.474,15.26 14.462,15.208 14.458,15.179 14.462,15.175   14.458,15.142 14.458,15.126 14.462,15.122 14.458,15.117 14.466,15.065 14.49,14.999 14.526,14.938 14.585,14.892 14.576,14.881   14.552,14.884 14.523,14.901 14.511,14.901 14.417,14.986 14.367,15.065 14.355,15.097 14.343,15.061 14.347,14.946 14.359,14.892   14.38,14.831 14.413,14.782 14.479,14.721 14.548,14.676 14.634,14.643 14.74,14.611 14.904,14.582 14.966,14.565 14.989,14.562   15.079,14.533 15.275,14.434 15.427,14.332 15.533,14.242 15.64,14.12 15.697,14.022 15.73,13.948 15.747,13.879 15.755,13.792   15.759,13.76 15.742,13.67 15.718,13.621 15.651,13.542 15.665,13.486 15.665,13.47 15.648,13.457 15.632,13.461 15.62,13.478   15.615,13.514 15.587,13.596 15.57,13.665 15.563,13.674 15.542,13.665 15.501,13.608 15.468,13.542 15.437,13.445 15.456,13.371   15.46,13.358 15.46,13.343 15.447,13.335 15.427,13.338 15.415,13.351 15.403,13.388 15.341,13.461 15.333,13.486 15.337,13.49   15.333,13.506 15.337,13.534 15.333,13.539 15.354,13.629 15.357,13.641 15.357,13.657 15.345,13.662 15.296,13.654 15.222,13.604   15.165,13.547 15.108,13.457 15.097,13.363 15.091,13.314 15.067,13.309 15.042,13.314 15.035,13.326 15.022,13.412 15.03,13.461   15.071,13.539 15.119,13.613 15.138,13.645 15.161,13.682 15.116,13.695 15.063,13.695 15.059,13.69 15.056,13.695 14.997,13.682   14.936,13.662 14.888,13.629 14.833,13.588 14.798,13.542 14.785,13.506 14.772,13.506 14.729,13.559 14.695,13.649 14.688,13.698   14.69,13.703 14.688,13.736 14.688,13.747 14.683,13.752 14.688,13.756 14.683,13.858 14.688,13.862 14.683,13.866 14.695,13.989   14.703,14.005 14.708,14.038 14.74,14.135 14.751,14.165 14.81,14.255 14.896,14.381 14.986,14.488 15.003,14.504 15.003,14.508   14.97,14.521 14.854,14.545 14.817,14.554 14.802,14.554 14.716,14.439 14.63,14.288 14.585,14.181 14.552,14.086 14.54,14.038   14.515,13.92 14.503,13.829 14.507,13.718 14.523,13.657 14.54,13.604 14.617,13.473 14.649,13.429 14.749,13.322 14.863,13.228   14.953,13.191 15.119,13.158 15.161,13.154 15.263,13.163 15.382,13.187 "
   id="polyline31"
   style="fill:#ffd200;fill-rule:evenodd"
   transform="translate(1.429942e-7,-1.520441e-6)" />
<polyline
   points="11.771,13.306 11.843,13.363 11.908,13.388 11.929,13.391 11.934,13.404 11.921,13.539   11.925,13.563 11.914,13.568 11.859,13.563 11.785,13.576 11.721,13.58 11.614,13.583 11.59,13.58 11.565,13.563 11.553,13.511   11.532,13.457 11.512,13.355 11.504,13.289 11.532,13.273 11.655,13.224 11.696,13.212 11.713,13.22 11.771,13.306 "
   id="polyline33"
   style="fill:#ffd200"
   transform="translate(1.429942e-7,-1.520441e-6)" />
<polyline
   clip-rule="evenodd"
   points="13.025,13.268 13.022,13.294 12.998,13.347   12.964,13.391 12.432,13.47 12.408,13.437 12.388,13.383 12.388,13.363 12.399,13.355 12.972,13.273 13.018,13.265 13.022,13.268   13.025,13.268 "
   id="polyline35"
   style="fill:#ffd200;fill-rule:evenodd"
   transform="translate(1.429942e-7,-1.520441e-6)" />
<polyline
   points="11.415,13.347 11.435,13.367 11.442,13.379 11.45,13.429 11.476,13.506 11.491,13.547   11.471,13.604 11.442,13.645 11.315,13.572 11.217,13.511 11.254,13.432 11.294,13.363 11.32,13.317 11.353,13.322 11.415,13.347   "
   id="polyline37"
   style="fill:#ffd200"
   transform="translate(1.429942e-7,-1.520441e-6)" />
<polyline
   clip-rule="evenodd"
   points="12.678,13.736 12.731,13.849 12.792,13.902 12.83,13.92   12.923,13.936 13.005,13.936 13.05,14.002 13.066,14.042 13.005,14.046 12.907,14.042 12.821,14.025 12.743,13.992 12.711,13.972   12.657,13.928 12.604,13.87 12.601,13.785 12.601,13.776 12.604,13.772 12.601,13.767 12.616,13.706 12.637,13.665 12.649,13.654   12.666,13.67 12.678,13.736 "
   id="polyline39"
   style="fill:#ffd200;fill-rule:evenodd"
   transform="translate(1.429942e-7,-1.520441e-6)" />
<polyline
   clip-rule="evenodd"
   points="13.456,13.92 13.488,13.936 13.517,13.943 13.611,14.009   13.681,14.083 13.708,14.115 13.714,14.12 13.714,14.135 13.697,14.153 13.677,14.161 13.651,14.153 13.624,14.124 13.517,14.05   13.443,14.018 13.365,14.002 13.296,13.989 13.288,13.989 13.275,13.911 13.279,13.907 13.279,13.89 13.275,13.887 13.279,13.882   13.365,13.899 13.456,13.92 "
   id="polyline41"
   style="fill:#ffd200;fill-rule:evenodd"
   transform="translate(1.429942e-7,-1.520441e-6)" />
<polyline
   points="12.276,14.107 12.276,14.12 12.229,14.168 12.212,14.176 12.208,14.181 12.194,14.168   12.171,14.083 12.167,14.063 12.167,14.05 12.187,14.038 12.208,14.033 12.232,14.033 12.276,14.107 "
   id="polyline43"
   style="fill:#ffd200"
   transform="translate(1.429942e-7,-1.520441e-6)" />
<polyline
   points="12.146,14.181 12.15,14.21 12.125,14.235 12.023,14.267 11.961,14.279 11.888,14.275   11.859,14.263 11.839,14.242 11.843,14.12 11.873,14.104 12.082,14.058 12.105,14.058 12.146,14.181 "
   id="polyline45"
   style="fill:#ffd200"
   transform="translate(1.429942e-7,-1.520441e-6)" />
<polyline
   clip-rule="evenodd"
   points="12.51,14.132 12.499,14.173 12.453,14.267 12.424,14.308   12.306,14.329 12.24,14.353 12.179,14.39 12.138,14.422 12.082,14.492 12.048,14.565 12.036,14.643 12.031,14.659 12.031,14.672   12.027,14.676 11.716,14.603 11.765,14.459 11.818,14.312 11.826,14.304 11.905,14.329 12.01,14.332 12.102,14.316 12.208,14.271   12.338,14.168 12.375,14.112 12.419,14.115 12.51,14.132 "
   id="polyline47"
   style="fill:#ffd200;fill-rule:evenodd"
   transform="translate(1.429942e-7,-1.520441e-6)" />
<polyline
   points="12.649,14.329 12.792,14.398 12.8,14.411 12.723,14.467 12.698,14.492 12.674,14.488   12.613,14.447 12.501,14.365 12.499,14.361 12.499,14.349 12.542,14.279 12.583,14.299 12.649,14.329 "
   id="polyline49"
   style="fill:#ffd200"
   transform="translate(1.429942e-7,-1.520441e-6)" />
<polyline
   clip-rule="evenodd"
   points="12.641,14.529 12.646,14.533 12.646,14.541   12.592,14.582 12.547,14.643 12.542,14.656 12.547,14.68 12.563,14.697 12.601,14.705 12.608,14.705 12.613,14.708 12.596,14.782   12.572,14.889 12.54,14.913 12.465,14.946 12.424,14.922 12.363,14.872 12.143,14.708 12.113,14.688 12.105,14.676 12.109,14.631   12.125,14.577 12.154,14.521 12.265,14.414 12.306,14.393 12.358,14.378 12.378,14.373 12.445,14.378 12.641,14.529 "
   id="polyline51"
   style="fill:#ffd200;fill-rule:evenodd"
   transform="translate(1.429942e-7,-1.520441e-6)" />
<polyline
   clip-rule="evenodd"
   points="11.45,14.971 11.537,15.048 11.75,15.265 11.741,15.273   11.61,15.286 11.606,15.281 11.573,15.286 11.471,15.277 11.426,15.26 11.304,15.183 11.376,15.109 11.376,15.093 11.381,15.089   11.368,15.068 11.353,15.056 11.328,15.061 11.304,15.076 11.292,15.097 11.206,15.114 11.131,15.147 11.042,15.155 11.033,15.155   11.033,15.147 11.23,15.004 11.348,14.913 11.376,14.922 11.45,14.971 "
   id="polyline53"
   style="fill:#ffd200;fill-rule:evenodd"
   transform="translate(1.429942e-7,-1.520441e-6)" />
<polyline
   clip-rule="evenodd"
   points="14.073,16.3 14.076,16.316 14.065,16.341 14.062,16.365   14.048,16.415 14.035,16.517 14.028,16.566 13.986,16.569 13.942,16.582 13.882,16.59 13.759,16.627 13.692,16.651 13.647,16.676   13.615,16.717 13.606,16.746 13.591,16.791 13.583,16.901 13.583,16.917 13.595,16.926 13.624,16.921 13.681,16.934 13.722,16.955   13.767,17.003 13.787,17.049 13.796,17.09 13.79,17.126 13.779,17.159 13.749,17.203 13.656,17.29 13.632,17.302 13.624,17.29   13.626,17.254 13.624,17.249 13.626,17.244 13.626,17.228 13.624,17.224 13.626,17.221 13.615,17.134 13.595,17.085 13.57,17.06   13.524,17.069 13.513,17.081 13.529,17.101 13.542,17.126 13.546,17.159 13.55,17.261 13.529,17.326 13.492,17.388 13.443,17.446   13.39,17.478 13.296,17.507 13.247,17.507 13.292,17.433 13.324,17.367 13.337,17.326 13.341,17.274 13.337,17.249 13.316,17.203   13.296,17.18 13.283,17.18 13.271,17.192 13.268,17.228 13.251,17.315 13.222,17.397 13.189,17.453 13.115,17.527 13.074,17.551   12.998,17.572 12.968,17.576 12.951,17.576 12.981,17.494 12.989,17.42 12.977,17.388 12.944,17.323 12.928,17.31 12.91,17.318   12.887,17.356 12.887,17.428 12.751,17.486 12.715,17.507 12.707,17.515 12.711,17.531 12.789,17.629 12.83,17.674 12.846,17.711   12.825,17.732 12.616,17.862 12.563,17.888 12.596,17.813 12.654,17.74 12.695,17.694 12.698,17.674 12.69,17.662 12.686,17.658   12.637,17.67 12.583,17.691 12.575,17.691 12.583,17.596 12.575,17.535 12.567,17.499 12.54,17.458 12.51,17.438 12.494,17.428   12.445,17.433 12.399,17.466 12.297,17.576 12.22,17.683 12.208,17.691 12.191,17.683 12.089,17.601 12.056,17.581 12.031,17.581   12.01,17.601 12.007,17.622 12.01,17.637 12.036,17.662 12.072,17.674 12.125,17.715 12.13,17.727 12.117,17.744 12.102,17.834   12.084,17.936 12.084,17.94 12.072,17.928 12.048,17.862 12.007,17.781 11.938,17.622 11.925,17.596 11.908,17.556 12.113,17.461   12.331,17.364 12.347,17.347 12.342,17.331 12.331,17.323 12.326,17.318 12.301,17.323 12.281,17.335 12.252,17.343 12.138,17.392   11.958,17.474 11.929,17.486 11.908,17.482 11.794,17.326 11.782,17.315 11.765,17.315 11.744,17.339 11.75,17.397 11.765,17.425   11.626,17.622 11.598,17.67 11.593,17.674 11.59,17.612 11.61,17.339 11.618,17.31 11.812,17.269 11.905,17.244 12.187,17.167   12.485,17.073 12.789,16.962 12.841,16.938 12.89,16.897 12.937,16.835 12.948,16.746 12.944,16.651 12.94,16.648 12.944,16.643   12.937,16.541 12.94,16.517 12.94,16.505 12.972,16.476 12.984,16.467 12.998,16.456 12.998,16.443 13.001,16.439 12.992,16.423   12.972,16.406 12.931,16.41 12.907,16.423 12.87,16.426 12.8,16.415 12.723,16.377 12.674,16.329 12.637,16.275 12.622,16.222   12.613,16.19 12.622,16.083 12.649,16.026 12.695,15.993 12.707,15.989 12.715,15.989 12.727,16.017 12.776,16.067 12.838,16.099   12.882,16.111 13.009,16.129 13.013,16.132 13.018,16.129 13.022,16.132 13.025,16.129 13.112,16.137 13.313,16.116 13.447,16.088   13.558,16.047 13.722,15.976 13.841,15.94 13.852,15.94 14.073,16.3 "
   id="polyline55"
   style="fill:#ffd200;fill-rule:evenodd"
   transform="translate(1.429942e-7,-1.520441e-6)" />
<polyline
   clip-rule="evenodd"
   points="14.138,16.038 14.163,16.058 14.171,16.067   14.163,16.108 14.15,16.177 14.143,16.206 14.114,16.173 14.069,16.096 14.021,16.006 13.995,15.96 14.114,16.03 14.138,16.038 "
   id="polyline57"
   style="fill:#ffd200;fill-rule:evenodd"
   transform="translate(1.429942e-7,-1.520441e-6)" />
<polyline
   clip-rule="evenodd"
   points="11.982,17.008 12.068,17.09 12.082,17.11 12.084,17.114   12.084,17.126 11.884,17.175 11.859,17.18 11.843,17.167 11.843,17.147 11.88,17.101 11.884,17.09 11.88,17.065 11.864,17.049   11.843,17.049 11.815,17.077 11.782,17.118 11.741,17.147 11.582,17.2 11.537,17.213 11.491,17.221 11.491,17.216 11.488,17.213   11.806,16.893 11.852,16.914 11.982,17.008 "
   id="polyline59"
   style="fill:#ffd200;fill-rule:evenodd"
   transform="translate(1.429942e-7,-1.520441e-6)" />
<polyline
   clip-rule="evenodd"
   points="12.51,17.556 12.52,17.612 12.514,17.679 12.494,17.748   12.478,17.903 12.481,17.952 12.506,18.039 12.52,18.062 12.417,18.116 12.317,18.194 12.273,18.238 12.249,18.271 12.191,18.369   12.179,18.427 12.184,18.462 12.22,18.501 12.244,18.501 12.261,18.484 12.249,18.423 12.276,18.378 12.31,18.353 12.342,18.358   12.372,18.378 12.408,18.427 12.429,18.481 12.427,18.539 12.412,18.578 12.363,18.619 12.322,18.64 12.286,18.644 12.281,18.648   12.276,18.644 12.261,18.648 12.212,18.64 12.171,18.615 12.133,18.591 12.089,18.544 12.048,18.471 12.036,18.41 12.044,18.345   12.056,18.308 12.089,18.238 12.194,18.1 12.224,18.05 12.244,17.994 12.244,17.968 12.281,17.949 12.351,17.878 12.375,17.842   12.408,17.76 12.404,17.756 12.412,17.715 12.404,17.645 12.383,17.592 12.383,17.572 12.47,17.494 12.478,17.494 12.51,17.556 "
   id="polyline61"
   style="fill:#ffd200;fill-rule:evenodd"
   transform="translate(1.429942e-7,-1.520441e-6)" />
<polyline
   clip-rule="evenodd"
   points="11.524,17.51 11.52,17.543 11.524,17.548 11.52,17.645   11.516,17.65 11.52,17.752 11.524,17.768 11.549,17.789 11.573,17.785 11.61,17.773 11.771,17.543 11.806,17.551 11.843,17.564   11.856,17.564 11.876,17.622 11.99,17.883 12.076,18.042 12.097,18.062 12.172,17.933 12.15,18.026 12.117,18.095 12.105,18.1   12.056,18.083 12.021,18.059 11.987,18.021 11.958,17.96 11.958,17.949 11.946,17.928 11.941,17.908 11.905,17.87 11.88,17.883   11.873,17.891 11.867,17.94 11.867,17.952 11.812,17.944 11.774,17.924 11.713,17.858 11.696,17.821 11.688,17.793 11.688,17.773   11.662,17.748 11.634,17.752 11.618,17.773 11.614,17.793 11.614,17.801 11.61,17.806 11.626,17.854 11.626,17.87 11.573,17.895   11.537,17.924 11.5,17.985 11.488,18.042 11.491,18.121 11.508,18.162 11.512,18.162 11.512,18.166 11.467,18.149 11.43,18.125   11.385,18.072 11.36,18.021 11.353,17.98 11.348,17.919 11.356,17.862 11.376,17.813 11.417,17.773 11.438,17.752 11.447,17.719   11.43,17.683 11.401,17.637 11.397,17.588 11.406,17.556 11.426,17.515 11.438,17.502 11.45,17.499 11.52,17.502 11.524,17.51 "
   id="polyline63"
   style="fill:#ffd200;fill-rule:evenodd"
   transform="translate(1.429942e-7,-1.520441e-6)" />
<polyline
   clip-rule="evenodd"
   points="14.552,17.653 14.646,17.699 14.703,17.744 14.72,17.76   14.729,17.785 14.699,17.809 14.601,17.854 14.503,17.883 14.47,17.878 14.438,17.867 14.413,17.862 14.408,17.858 14.482,17.732   14.479,17.719 14.466,17.711 14.421,17.727 14.331,17.842 14.271,17.899 14.196,17.949 14.179,17.952 14.306,17.699 14.355,17.604   14.449,17.622 14.552,17.653 "
   id="polyline65"
   style="fill:#ffd200;fill-rule:evenodd"
   transform="translate(1.429942e-7,-1.520441e-6)" />
<polyline
   clip-rule="evenodd"
   points="12.306,17.781 12.29,17.817 12.256,17.862 12.184,17.919   12.167,17.95 12.167,17.899 12.179,17.87 12.184,17.847 12.199,17.789 12.199,17.768 12.224,17.76 12.235,17.748 12.273,17.768   12.306,17.781 "
   id="polyline67"
   style="fill:#ffd200;fill-rule:evenodd"
   transform="translate(1.429942e-7,-1.520441e-6)" />
<polyline
   clip-rule="evenodd"
   points="12.756,17.985 12.861,18.018 13.066,18.067   13.283,18.108 13.492,18.128 13.958,18.136 14.212,18.121 14.208,18.169 14.188,18.259 14.179,18.267 13.901,18.279 13.632,18.267   13.464,18.251 13.324,18.23 13.166,18.198 12.948,18.136 12.768,18.075 12.563,18.001 12.547,17.96 12.547,17.936 12.563,17.919   12.604,17.928 12.756,17.985 "
   id="polyline69"
   style="fill:#ffd200;fill-rule:evenodd"
   transform="translate(1.429942e-7,-1.520441e-6)" />
<polyline
   points="12.809,18.173 12.989,18.21 13.074,18.23 13.238,18.264 13.546,18.305 13.714,18.316 13.869,18.32   14.171,18.325 14.175,18.337 14.163,18.386 14.158,18.427 14.143,18.503 14.134,18.512 13.878,18.517 13.624,18.503 13.48,18.492   13.345,18.471 13.14,18.427 12.968,18.386 12.686,18.292 12.49,18.214 12.424,18.19 12.419,18.185 12.44,18.166 12.494,18.132   12.542,18.121 12.581,18.116 12.657,18.128 12.809,18.173 "
   id="polyline71"
   style="fill:#ffd200"
   transform="translate(1.429942e-7,-1.520441e-6)" />
<polyline
   clip-rule="evenodd"
   points="15.108,18.218 15.13,18.238 15.149,18.244 15.165,18.244   15.171,18.238 15.173,18.244 15.179,18.251 15.171,18.308 15.138,18.328 15.048,18.361 14.997,18.369 14.974,18.369 15.009,18.264   15.063,18.162 15.067,18.141 15.075,18.141 15.108,18.218 "
   id="polyline73"
   style="fill:#ffd200;fill-rule:evenodd"
   transform="translate(1.429942e-7,-1.520441e-6)" />
<polyline
   clip-rule="evenodd"
   points="14.536,18.287 14.449,18.39 14.454,18.416 14.479,18.431   14.485,18.439 14.485,18.447 14.441,18.468 14.408,18.471 14.352,18.484 14.249,18.492 14.245,18.489 14.302,18.423 14.393,18.296   14.4,18.296 14.408,18.317 14.425,18.333 14.458,18.328 14.531,18.271 14.54,18.271 14.536,18.287 "
   id="polyline75"
   style="fill:#ffd200;fill-rule:evenodd"
   transform="translate(1.429942e-7,-1.520441e-6)" />
<path
   d="M 13.304,13.280998 L 13.325,13.293998 L 13.334,13.301998 L 13.325,13.350998 L 13.334,13.366998 L 13.33,13.403998 L 13.297,13.428998 L 13.218,13.460998 L 13.17,13.493998 L 13.149,13.493998 L 13.141,13.485998 L 13.136,13.464998 L 13.162,13.431998 L 13.21,13.390998 L 13.223,13.354998 L 13.194,13.337998 L 13.17,13.334998 L 13.162,13.334998 L 13.141,13.321998 L 13.121,13.308998 L 13.116,13.293998 L 13.121,13.267998 L 13.136,13.264998 L 13.202,13.285998 L 13.304,13.280998 M 13.456,13.198998 L 13.529,13.244998 L 13.537,13.252998 L 13.554,13.260998 L 13.591,13.285998 L 13.667,13.350998 L 13.706,13.390998 L 13.708,13.411998 L 13.706,13.423998 L 13.692,13.448998 L 13.697,13.477998 L 13.714,13.489998 L 13.738,13.485998 L 13.766,13.431998 L 13.83,13.366998 L 13.889,13.334998 L 13.973,13.321998 L 14.032,13.325998 L 14.065,13.337998 L 14.117,13.378998 L 14.155,13.431998 L 14.158,13.451998 L 14.163,13.460998 L 14.163,13.469998 L 14.155,13.505998 L 14.13,13.546998 L 14.081,13.582998 L 14.048,13.603998 L 13.986,13.615998 L 13.938,13.615998 L 13.909,13.623998 L 13.889,13.644998 L 13.892,13.664998 L 13.933,13.673998 L 14.035,13.664998 L 14.138,13.623998 L 14.204,13.582998 L 14.294,13.500998 L 14.306,13.521998 L 14.312,13.546998 L 14.312,13.554998 L 14.32,13.587998 L 14.312,13.653998 L 14.312,13.661998 L 14.287,13.710998 L 14.168,13.804998 L 14.098,13.845998 L 14.03,13.865998 L 14.016,13.881998 L 14.022,13.901998 L 14.03,13.910998 L 14.057,13.914998 L 14.149,13.889998 L 14.201,13.869998 L 14.279,13.816998 L 14.324,13.775998 L 14.337,13.763998 L 14.345,13.763998 L 14.354,13.771998 L 14.362,13.799998 L 14.37,13.848998 L 14.366,13.898998 L 14.345,13.960998 L 14.304,14.017998 L 14.259,14.053998 L 14.181,14.103998 L 14.145,14.119998 L 14.038,14.152998 L 14.027,14.164998 L 14.035,14.185998 L 14.064,14.196998 L 14.136,14.192998 L 14.169,14.185998 L 14.247,14.152998 L 14.345,14.078998 L 14.366,14.057998 L 14.375,14.057998 L 14.387,14.082998 L 14.4,14.123998 L 14.391,14.226998 L 14.363,14.287998 L 14.323,14.339998 L 14.249,14.392998 L 14.187,14.421998 L 14.141,14.433998 L 14.057,14.441998 L 13.99,14.446998 L 13.983,14.458998 L 13.987,14.487998 L 14.008,14.499998 L 14.065,14.512998 L 14.141,14.507998 L 14.233,14.482998 L 14.342,14.421998 L 14.355,14.410998 L 14.363,14.410998 L 14.367,14.430998 L 14.367,14.450998 L 14.371,14.462998 L 14.359,14.536998 L 14.323,14.614998 L 14.277,14.663998 L 14.229,14.699998 L 14.155,14.732998 L 14.02,14.753998 L 13.897,14.748998 L 13.872,14.748998 L 13.864,14.745998 L 13.841,14.748998 L 13.831,14.761998 L 13.837,14.781998 L 13.852,14.798998 L 13.91,14.814998 L 13.996,14.819998 L 14.09,14.809998 L 14.108,14.809998 L 14.206,14.789998 L 14.247,14.773998 L 14.255,14.778998 L 14.232,14.850998 L 14.191,14.908998 L 14.13,14.949998 L 14.069,14.977998 L 13.999,14.994998 L 13.845,15.003998 L 13.747,14.994998 L 13.708,14.973998 L 13.697,14.973998 L 13.68,14.990998 L 13.697,15.023998 L 13.718,15.034998 L 13.849,15.060998 L 13.947,15.064998 L 14.049,15.047998 L 14.077,15.034998 L 14.098,15.039998 L 14.34,15.292998 L 14.561,15.509998 L 14.783,15.706998 L 14.914,15.804998 L 15.011,15.808998 L 15.099,15.791998 L 15.152,15.771998 L 15.197,15.739998 L 15.258,15.660998 L 15.299,15.566998 L 15.317,15.514998 L 15.333,15.448998 L 15.328,15.333998 L 15.3,15.236998 L 15.269,15.154998 L 15.212,15.047998 L 15.116,14.916998 L 15.119,14.888998 L 15.222,14.765998 L 15.243,14.768998 L 15.3,14.826998 L 15.445,15.039998 L 15.522,15.210998 L 15.546,15.280998 L 15.604,15.297998 L 15.625,15.292998 L 15.641,15.292998 L 15.694,15.297998 L 15.805,15.285998 L 15.908,15.248998 L 15.917,15.259998 L 15.908,15.358998 L 15.835,15.469998 L 15.785,15.514998 L 15.703,15.542998 L 15.609,15.550998 L 15.564,15.546998 L 15.547,15.563998 L 15.543,15.583998 L 15.547,15.599998 L 15.568,15.612998 L 15.671,15.628998 L 15.749,15.620998 L 15.899,15.571998 L 15.936,15.555998 L 15.957,15.555998 L 15.943,15.607998 L 15.89,15.709998 L 15.841,15.767998 L 15.779,15.812998 L 15.697,15.841998 L 15.583,15.862998 L 15.55,15.865998 L 15.488,15.857998 L 15.452,15.836998 L 15.444,15.836998 L 15.337,15.959998 L 15.259,16.016998 L 15.222,16.033998 L 15.113,16.066998 L 15.049,16.074998 L 14.978,16.062998 L 14.93,16.037998 L 14.901,16.016998 L 14.889,16.021998 L 14.916,16.074998 L 14.957,16.115998 L 15.01,16.217998 L 15.024,16.274998 L 15.028,16.442998 L 15.028,16.475998 L 15.016,16.573998 L 15.028,16.622998 L 15.065,16.671998 L 15.1,16.704998 L 15.159,16.732998 L 15.264,16.757998 L 15.342,16.790998 L 15.391,16.826998 L 15.424,16.875998 L 15.428,16.905998 L 15.412,17.031998 L 15.399,17.068998 L 15.407,17.100998 L 15.424,17.113998 L 15.465,17.117998 L 15.568,17.186998 L 15.671,17.293998 L 15.72,17.383998 L 15.736,17.440998 L 15.745,17.506998 L 15.736,17.563998 L 15.741,17.571998 L 15.724,17.636998 L 15.708,17.690998 L 15.687,17.731998 L 15.646,17.641998 L 15.609,17.583998 L 15.535,17.506998 L 15.511,17.498998 L 15.488,17.498998 L 15.467,17.514998 L 15.467,17.526998 L 15.557,17.624998 L 15.602,17.693998 L 15.631,17.775998 L 15.639,17.833998 L 15.635,17.915998 L 15.627,17.951998 L 15.614,17.996998 L 15.582,18.058998 L 15.557,18.074998 L 15.533,18.017998 L 15.48,17.959998 L 15.377,17.882998 L 15.37,17.882998 L 15.333,17.857998 L 15.321,17.853998 L 15.3,17.874998 L 15.292,17.907998 L 15.292,17.915998 L 15.423,18.053998 L 15.431,18.071998 L 15.423,18.115998 L 15.37,18.206998 L 15.268,18.386998 L 15.252,18.415998 L 15.234,18.435998 L 15.23,18.382998 L 15.234,18.353998 L 15.242,18.244998 L 15.252,18.226998 L 15.272,18.218998 L 15.316,18.214998 L 15.329,18.202998 L 15.333,18.177998 L 15.304,18.149998 L 15.253,18.153998 L 15.235,18.162998 L 15.165,18.170998 L 15.149,18.142998 L 15.104,17.961998 L 15.09,17.953998 L 15.049,17.966998 L 15.022,17.999998 L 14.969,18.163998 L 14.906,18.277998 L 14.873,18.354998 L 14.865,18.362998 L 14.862,18.383998 L 14.849,18.395998 L 14.841,18.395998 L 14.747,18.309998 L 14.701,18.293998 L 14.69,18.293998 L 14.678,18.306998 L 14.678,18.318998 L 14.687,18.342998 L 14.719,18.366998 L 14.75,18.402998 L 14.801,18.512998 L 14.813,18.544998 L 14.833,18.599998 L 14.843,18.626998 L 14.831,18.626998 L 14.649,18.491998 L 14.547,18.401998 L 14.543,18.393998 L 14.543,18.377998 L 14.698,18.184998 L 14.832,18.000998 L 14.832,17.992998 L 14.816,17.975998 L 14.784,17.978998 L 14.645,18.139998 L 14.604,18.183998 L 14.53,18.201998 L 14.457,18.236998 L 14.444,18.224998 L 14.423,18.130998 L 14.419,18.101998 L 14.419,18.093998 L 14.386,18.070998 L 14.38,18.070998 L 14.359,18.073998 L 14.351,18.094998 L 14.346,18.127998 L 14.351,18.140998 L 14.342,18.193998 L 14.334,18.210998 L 14.325,18.259998 L 14.269,18.317998 L 14.231,18.358998 L 14.244,18.279998 L 14.256,18.218998 L 14.26,18.185998 L 14.285,18.054998 L 14.293,18.031998 L 14.305,18.018998 L 14.387,17.994998 L 14.519,17.957998 L 14.723,17.895998 L 14.791,17.858998 L 14.85,17.801998 L 14.904,17.691998 L 14.935,17.596998 L 14.969,17.469998 L 14.989,17.339998 L 14.981,17.290998 L 14.953,17.228998 L 14.858,17.139998 L 14.764,17.098998 L 14.649,17.049998 L 14.613,17.036998 L 14.559,16.991998 L 14.543,16.996998 L 14.535,17.008998 L 14.539,17.147998 L 14.525,17.221998 L 14.502,17.285998 L 14.461,17.343998 L 14.392,17.405998 L 14.326,17.441998 L 14.286,17.449998 L 14.167,17.441998 L 14.232,17.359998 L 14.249,17.323998 L 14.253,17.285998 L 14.249,17.277998 L 14.253,17.269998 L 14.245,17.208998 L 14.224,17.147998 L 14.212,17.090998 L 14.184,16.991998 L 14.143,16.832998 L 14.13,16.753998 L 14.117,16.668998 L 14.114,16.566998 L 14.122,16.497998 L 14.122,16.479998 L 14.134,16.443998 L 14.138,16.415998 L 14.167,16.344998 L 14.204,16.267998 L 14.232,16.173998 L 14.249,16.099998 L 14.245,16.006998 L 14.212,15.883998 L 14.196,15.837998 L 14.175,15.792998 L 14.151,15.764998 L 14.118,15.723998 L 14.074,15.687998 L 14.025,15.661998 L 14.005,15.666998 L 13.991,15.679998 L 13.995,15.702998 L 14.106,15.817998 L 14.129,15.866998 L 14.147,15.920998 L 14.147,15.940998 L 14.127,15.935998 L 14.064,15.899998 L 13.814,15.781998 L 13.658,15.715998 L 13.438,15.633998 L 13.388,15.617998 L 13.438,15.543998 L 13.462,15.454998 L 13.47,15.359998 L 13.466,15.240998 L 13.442,15.167998 L 13.429,15.158998 L 13.409,15.163998 L 13.392,15.175998 L 13.383,15.208998 L 13.387,15.216998 L 13.387,15.342998 L 13.375,15.449998 L 13.354,15.506998 L 13.326,15.564998 L 13.289,15.613998 L 13.227,15.658998 L 13.178,15.679998 L 13.125,15.687998 L 13.022,15.699998 L 13.01,15.699998 L 13.06,15.551998 L 13.08,15.413998 L 13.071,15.342998 L 13.055,15.310998 L 13.047,15.301998 L 13.022,15.306998 L 13.002,15.334998 L 12.989,15.383998 L 12.973,15.518998 L 12.961,15.564998 L 12.945,15.625998 L 12.904,15.679998 L 12.867,15.715998 L 12.789,15.764998 L 12.708,15.792998 L 12.646,15.792998 L 12.708,15.687998 L 12.74,15.621998 L 12.753,15.572998 L 12.761,15.526998 L 12.753,15.477998 L 12.728,15.457998 L 12.703,15.462998 L 12.682,15.477998 L 12.651,15.597998 L 12.597,15.702998 L 12.531,15.760998 L 12.47,15.797998 L 12.405,15.822998 L 12.294,15.830998 L 12.221,15.817998 L 12.331,15.702998 L 12.347,15.679998 L 12.347,15.653998 L 12.331,15.633998 L 12.311,15.629998 L 12.298,15.633998 L 12.29,15.633998 L 12.249,15.666998 L 12.176,15.710998 L 12.045,15.776998 L 12.033,15.797998 L 12.037,15.805998 L 12.057,15.960998 L 12.024,15.981998 L 11.881,16.022998 L 11.754,16.047998 L 11.721,16.047998 L 11.8,15.968998 L 11.84,15.912998 L 11.885,15.927998 L 11.955,15.948998 L 11.966,15.940998 L 11.979,15.927998 L 11.979,15.899998 L 11.963,15.879998 L 11.914,15.863998 L 11.885,15.850998 L 11.853,15.842998 L 11.844,15.833998 L 11.848,15.792998 L 11.881,15.710998 L 11.885,15.690998 L 11.881,15.679998 L 11.861,15.661998 L 11.832,15.666998 L 11.795,15.690998 L 11.648,15.833998 L 11.567,15.894998 L 11.554,15.850998 L 11.55,15.792998 L 11.542,15.772998 L 11.516,15.748998 L 11.5,15.748998 L 11.472,15.776998 L 11.53,16.116998 L 11.497,16.078998 L 11.366,15.891998 L 11.272,15.760998 L 11.272,15.748998 L 11.443,15.669998 L 11.709,15.543998 L 11.717,15.531998 L 11.714,15.506998 L 11.684,15.485998 L 11.525,15.551998 L 11.479,15.572998 L 11.374,15.576998 L 11.275,15.592998 L 11.272,15.580998 L 11.284,15.526998 L 11.3,15.474998 L 11.305,15.429998 L 11.305,15.413998 L 11.275,15.388998 L 11.259,15.388998 L 11.234,15.413998 L 11.226,15.436998 L 11.214,15.539998 L 11.193,15.559998 L 11.145,15.584998 L 11.09,15.599998 L 11.008,15.628998 L 11.168,15.379998 L 11.172,15.366998 L 11.197,15.338998 L 11.222,15.297998 L 11.266,15.305998 L 11.348,15.333998 L 11.389,15.346998 L 11.491,15.358998 L 11.639,15.362998 L 11.757,15.346998 L 11.851,15.321998 L 12.02,15.244998 L 13.009,14.753998 L 13.094,14.737998 L 13.115,14.716998 L 13.115,14.687998 L 13.094,14.671998 L 13.054,14.666998 L 13.013,14.675998 L 12.91,14.724998 L 12.747,14.801998 L 12.715,14.822998 L 12.685,14.830998 L 12.665,14.842998 L 12.678,14.773998 L 12.726,14.666998 L 12.718,14.651998 L 12.69,14.638998 L 12.662,14.635998 L 12.678,14.610998 L 12.797,14.507998 L 12.874,14.458998 L 13.009,14.400998 L 13.086,14.380998 L 13.107,14.380998 L 13.135,14.372998 L 13.197,14.369998 L 13.217,14.372998 L 13.23,14.369998 L 13.336,14.380998 L 13.426,14.405998 L 13.471,14.421998 L 13.48,14.425998 L 13.521,14.425998 L 13.545,14.400998 L 13.541,14.352998 L 13.516,14.331998 L 13.488,14.339998 L 13.475,14.344998 L 13.434,14.336998 L 13.365,14.315998 L 13.226,14.295998 L 13.201,14.290998 L 13.173,14.270998 L 13.145,14.234998 L 13.145,14.196998 L 13.181,14.164998 L 13.193,14.152998 L 13.153,14.070998 L 13.148,14.045998 L 13.148,14.024998 L 13.214,14.053998 L 13.251,14.085998 L 13.333,14.152998 L 13.345,14.155998 L 13.358,14.167998 L 13.431,14.205998 L 13.563,14.229998 L 13.599,14.229998 L 13.607,14.234998 L 13.714,14.221998 L 13.741,14.209998 L 13.77,14.175998 L 13.799,14.106998 L 13.803,14.062998 L 13.795,14.008998 L 13.774,13.950998 L 13.733,13.878998 L 13.624,13.751998 L 13.565,13.705998 L 13.504,13.684998 L 13.426,13.677998 L 13.364,13.694998 L 13.307,13.730998 L 13.237,13.796998 L 13.205,13.853998 L 13.205,13.869998 L 13.196,13.878998 L 13.188,13.919998 L 13.192,13.930998 L 13.196,13.950998 L 13.196,13.971998 L 13.168,13.963998 L 13.127,13.922998 L 13.085,13.861998 L 13.078,13.824998 L 13.041,13.787998 L 13.021,13.743998 L 13.012,13.702998 L 13.053,13.623998 L 13.078,13.558998 L 13.07,13.551998 L 13.041,13.562998 L 12.983,13.620998 L 12.967,13.636998 L 12.96,13.636998 L 12.94,13.603998 L 12.944,13.558998 L 13.042,13.398998 L 13.091,13.321998 L 13.107,13.276998 L 13.206,13.132998 L 13.247,13.080998 L 13.341,13.129998 L 13.456,13.198998 z M 13.169,13.787998 L 13.165,13.807998 L 13.148,13.820998 L 13.115,13.824998 L 13.094,13.828998 L 13.086,13.820998 L 13.094,13.791998 L 13.112,13.779998 L 13.165,13.784998 L 13.169,13.787998 z "
   style="fill:#ffd200;fill-rule:evenodd"
   id="path77" />
</svg>