<?xml version="1.0" encoding="UTF-8" standalone="no"?>
<!-- Created with Inkscape (http://www.inkscape.org/) -->
<svg
   xmlns:svg="http://www.w3.org/2000/svg"
   xmlns="http://www.w3.org/2000/svg"
   version="1.0"
   width="553.88727"
   height="800.34003"
   viewBox="0 0 26.531 38.336"
   id="Layer_1"
   xml:space="preserve"><defs
   id="defs84" />
<rect
   width="26.461"
   height="38.265999"
   x="0.034999341"
   y="0.035"
   id="rect3" />
<rect
   width="26.461"
   height="38.265999"
   x="0.034999341"
   y="0.035"
   style="fill:none;stroke:black;stroke-width:0.07;stroke-miterlimit:3.86400008"
   id="rect5" />
<rect
   width="26.461"
   height="3.99"
   x="0.034999341"
   y="14.418"
   style="fill:#ffd200"
   id="rect7" />
<rect
   width="26.461"
   height="3.99"
   x="0.034999341"
   y="14.418"
   style="fill:none;stroke:#ffd200;stroke-width:0.07;stroke-miterlimit:3.86400008"
   id="rect9" />
<rect
   width="26.461"
   height="3.99"
   x="0.034999341"
   y="19.441"
   style="fill:#ffd200"
   id="rect11" />
<rect
   width="26.461"
   height="3.99"
   x="0.034999341"
   y="19.441"
   style="fill:none;stroke:#ffd200;stroke-width:0.07;stroke-miterlimit:3.86400008"
   id="rect13" />
<rect
   width="26.461"
   height="3.99"
   x="0.034999341"
   y="24.811001"
   style="fill:#ffd200"
   id="rect15" />
<rect
   width="26.461"
   height="3.99"
   x="0.034999341"
   y="24.811001"
   style="fill:none;stroke:#ffd200;stroke-width:0.07;stroke-miterlimit:3.86400008"
   id="rect17" />
<rect
   width="26.461"
   height="3.99"
   x="0.034999341"
   y="30.18"
   style="fill:#ffd200"
   id="rect19" />
<rect
   width="26.461"
   height="3.99"
   x="0.034999341"
   y="30.18"
   style="fill:none;stroke:#ffd200;stroke-width:0.07;stroke-miterlimit:3.86400008"
   id="rect21" />
<polyline
   clip-rule="evenodd"
   points="12.52,6.085 12.52,6.094 12.499,6.11 12.487,6.123   12.487,6.13 12.483,6.135 12.499,6.158 12.512,6.164 12.548,6.155 12.576,6.164 12.597,6.188 12.61,6.24 12.594,6.273 12.561,6.307   12.528,6.322 12.499,6.327 12.454,6.301 12.442,6.307 12.422,6.327 12.425,6.339 12.491,6.383 12.61,6.462 12.704,6.52   12.725,6.515 12.74,6.494 12.737,6.474 12.704,6.449 12.679,6.441 12.646,6.417 12.635,6.392 12.638,6.348 12.663,6.294   12.692,6.27 12.757,6.273 12.757,6.278 12.773,6.287 12.793,6.327 12.798,6.348 12.819,6.368 12.835,6.368 12.855,6.342   12.847,6.314 12.852,6.31 12.847,6.298 12.852,6.27 12.875,6.246 12.896,6.24 12.904,6.24 12.908,6.237 12.954,6.246 12.99,6.257   13.015,6.278 13.031,6.298 13.036,6.355 13.031,6.383 12.986,6.421 12.965,6.429 12.954,6.458 12.962,6.474 12.982,6.486   13.031,6.479 13.056,6.465 13.093,6.47 13.113,6.486 13.134,6.511 13.138,6.534 13.134,6.54 13.138,6.544 13.121,6.588 13.1,6.608   13.08,6.622 13.059,6.629 13.056,6.625 13.023,6.629 13.006,6.629 13.003,6.625 12.998,6.629 12.954,6.601 12.934,6.593   12.908,6.596 12.896,6.605 12.888,6.613 12.896,6.634 12.941,6.667 13.031,6.724 13.093,6.765 13.146,6.8 13.187,6.81 13.207,6.805   13.215,6.792 13.211,6.772 13.174,6.729 13.166,6.683 13.174,6.649 13.179,6.637 13.187,6.613 13.215,6.588 13.264,6.575   13.313,6.575 13.33,6.601 13.322,6.642 13.318,6.646 13.322,6.663 13.333,6.67 13.354,6.67 13.407,6.616 13.445,6.605 13.489,6.608   13.502,6.622 13.322,6.792 13.207,6.896 13.199,6.896 13.179,6.858 13.097,6.777 13.052,6.756 12.949,6.739 12.831,6.667   12.556,6.494 12.34,6.36 12.328,6.363 12.323,6.363 12.32,6.36 12.331,6.319 12.364,6.24 12.471,6.003 12.483,5.979 12.512,6.032   12.52,6.085 "
   id="polyline23"
   style="fill:#ffd200;fill-rule:evenodd" />
<polyline
   points="11.325,6.474 11.305,6.515 11.288,6.567 11.28,6.605 11.276,6.608 11.276,6.616 11.271,6.688   11.267,6.729 11.276,6.825 11.313,6.954 11.358,7.022 11.443,7.1 11.456,7.107 11.451,7.137 11.44,7.157 11.37,7.316 11.366,7.321   11.19,7.182 11.186,7.173 11.195,7.128 11.21,7.08 11.218,6.984 11.218,6.923 11.19,6.784 11.154,6.678 11.096,6.567 11.063,6.527   11.051,6.52 11.047,6.515 11.042,6.511 11.047,6.486 11.133,6.298 11.321,6.462 11.325,6.474 "
   id="polyline25"
   style="fill:#ffd200" />
<polyline
   clip-rule="evenodd"
   points="13.783,6.372 13.837,6.388 13.972,6.441 13.985,6.454   13.944,6.494 13.775,6.622 13.588,6.649 13.576,6.634 13.583,6.616 13.579,6.593 13.53,6.56 13.489,6.552 13.407,6.555 13.404,6.56   13.384,6.555 13.354,6.531 13.305,6.515 13.22,6.52 13.215,6.523 13.199,6.523 13.182,6.486 13.146,6.433 13.146,6.429   13.154,6.421 13.412,6.388 13.702,6.348 13.752,6.355 13.783,6.372 "
   id="polyline27"
   style="fill:#ffd200;fill-rule:evenodd" />
<polyline
   points="12.369,6.433 12.401,6.454 12.581,6.567 12.61,6.588 12.646,6.608 12.852,6.739 12.86,6.749   12.86,6.756 12.831,6.77 12.802,6.777 12.778,6.792 12.773,6.797 12.745,6.79 12.487,6.629 12.266,6.494 12.254,6.482 12.29,6.421   12.307,6.401 12.343,6.417 12.369,6.433 "
   id="polyline29"
   style="fill:#ffd200" />
<polyline
   clip-rule="evenodd"
   points="12.139,6.547 12.033,6.711 12.021,6.719 11.963,6.708   11.676,6.731 11.346,6.76 11.341,6.749 11.341,6.736 11.338,6.731 11.341,6.729 11.338,6.657 11.346,6.642 11.362,6.629   11.645,6.596 12.106,6.54 12.131,6.54 12.139,6.547 "
   id="polyline31"
   style="fill:#ffd200;fill-rule:evenodd" />
<polyline
   clip-rule="evenodd"
   points="10.835,6.649 10.932,6.657 11.021,6.654 11.047,6.667   11.063,6.688 11.092,6.756 11.113,6.797 11.129,6.852 11.145,6.948 11.141,7.063 11.104,7.186 11.104,7.219 11.162,7.309   11.218,7.398 11.236,7.432 11.236,7.443 10.879,7.525 10.72,7.563 10.712,7.563 10.704,7.554 10.712,7.467 10.72,7.459   10.745,7.464 10.773,7.459 10.789,7.439 10.789,7.426 10.761,7.406 10.704,7.391 10.658,7.354 10.609,7.28 10.577,7.189   10.572,7.162 10.577,7.148 10.679,7.137 10.745,7.141 10.883,7.107 10.899,7.1 10.937,7.107 10.957,7.087 10.96,6.989 10.965,6.984   10.96,6.981 10.97,6.948 10.973,6.913 10.993,6.841 10.993,6.825 10.981,6.813 10.904,6.8 10.847,6.777 10.797,6.736 10.753,6.67   10.745,6.642 10.748,6.629 10.776,6.634 10.835,6.649 "
   id="polyline33"
   style="fill:#ffd200;fill-rule:evenodd" />
<polyline
   clip-rule="evenodd"
   points="14.353,6.67 14.455,6.711 14.496,6.731 14.537,6.76   14.622,6.825 14.741,6.948 14.795,7.018 14.827,7.091 14.856,7.173 14.864,7.219 14.872,7.269 14.877,7.313 14.864,7.426   14.839,7.529 14.786,7.665 14.704,7.792 14.701,7.792 14.693,7.808 14.602,7.897 14.508,7.971 14.394,8.058 14.279,8.13 14.164,8.2   14.079,8.277 14.018,8.355 13.96,8.449 13.927,8.519 13.878,8.663 13.854,8.769 13.85,8.825 13.858,8.913 13.874,8.968   13.882,8.993 13.841,8.989 13.768,8.917 13.698,8.801 13.678,8.749 13.665,8.646 13.678,8.54 13.702,8.49 13.727,8.466   13.727,8.458 13.719,8.449 13.702,8.454 13.62,8.531 13.588,8.589 13.563,8.646 13.55,8.732 13.555,8.797 13.576,8.887   13.576,8.892 13.547,8.883 13.486,8.822 13.445,8.743 13.432,8.691 13.428,8.663 13.432,8.658 13.428,8.625 13.428,8.609   13.432,8.605 13.428,8.601 13.436,8.548 13.461,8.482 13.497,8.421 13.555,8.375 13.547,8.364 13.521,8.367 13.494,8.384   13.481,8.384 13.387,8.47 13.338,8.548 13.326,8.581 13.313,8.543 13.318,8.429 13.33,8.375 13.351,8.314 13.384,8.266   13.448,8.205 13.517,8.159 13.604,8.126 13.711,8.093 13.874,8.065 13.936,8.048 13.96,8.045 14.049,8.017 14.246,7.917   14.396,7.815 14.504,7.726 14.611,7.603 14.667,7.505 14.701,7.432 14.716,7.362 14.724,7.275 14.729,7.242 14.713,7.153   14.688,7.104 14.622,7.025 14.635,6.969 14.635,6.954 14.619,6.94 14.602,6.944 14.59,6.96 14.586,6.998 14.557,7.08 14.54,7.148   14.533,7.157 14.512,7.148 14.471,7.091 14.438,7.025 14.406,6.928 14.427,6.854 14.43,6.841 14.43,6.825 14.418,6.818   14.396,6.821 14.386,6.833 14.373,6.872 14.312,6.944 14.304,6.969 14.307,6.974 14.304,6.989 14.307,7.018 14.304,7.022   14.324,7.112 14.328,7.125 14.328,7.141 14.316,7.146 14.266,7.137 14.192,7.087 14.136,7.03 14.079,6.94 14.067,6.846   14.062,6.797 14.038,6.792 14.013,6.797 14.005,6.81 13.993,6.896 14,6.944 14.041,7.022 14.09,7.096 14.107,7.128 14.131,7.166   14.087,7.178 14.033,7.178 14.029,7.173 14.026,7.178 13.968,7.166 13.906,7.146 13.858,7.112 13.804,7.071 13.768,7.025   13.755,6.989 13.743,6.989 13.698,7.042 13.665,7.132 13.657,7.182 13.661,7.186 13.657,7.219 13.657,7.23 13.653,7.234   13.657,7.239 13.653,7.341 13.657,7.345 13.653,7.35 13.665,7.473 13.673,7.488 13.678,7.521 13.711,7.618 13.722,7.648   13.78,7.738 13.865,7.864 13.956,7.971 13.972,7.987 13.972,7.991 13.939,8.004 13.824,8.028 13.788,8.038 13.771,8.038   13.686,7.922 13.599,7.771 13.555,7.665 13.521,7.57 13.509,7.521 13.486,7.403 13.473,7.313 13.476,7.201 13.494,7.141   13.509,7.087 13.588,6.957 13.62,6.913 13.719,6.805 13.833,6.711 13.923,6.674 14.09,6.642 14.131,6.637 14.233,6.646 14.353,6.67   "
   id="polyline35"
   style="fill:#ffd200;fill-rule:evenodd" />
<polyline
   points="10.74,6.79 10.814,6.846 10.879,6.872 10.899,6.875 10.904,6.887 10.891,7.022 10.896,7.046   10.883,7.05 10.83,7.046 10.756,7.059 10.691,7.063 10.584,7.066 10.56,7.063 10.536,7.046 10.523,6.994 10.502,6.94 10.482,6.838   10.474,6.772 10.502,6.756 10.625,6.708 10.666,6.695 10.683,6.704 10.74,6.79 "
   id="polyline37"
   style="fill:#ffd200" />
<polyline
   clip-rule="evenodd"
   points="11.996,6.751 11.992,6.777 11.968,6.831 11.934,6.875   11.403,6.954 11.379,6.92 11.358,6.866 11.358,6.846 11.37,6.838 11.942,6.756 11.988,6.749 11.992,6.751 11.996,6.751 "
   id="polyline39"
   style="fill:#ffd200;fill-rule:evenodd" />
<polyline
   points="10.384,6.831 10.405,6.852 10.413,6.862 10.421,6.913 10.446,6.989 10.462,7.03 10.441,7.087   10.413,7.128 10.285,7.055 10.188,6.994 10.224,6.916 10.265,6.846 10.29,6.8 10.323,6.805 10.384,6.831 "
   id="polyline41"
   style="fill:#ffd200" />
<polyline
   clip-rule="evenodd"
   points="11.648,7.219 11.702,7.333 11.763,7.385 11.799,7.403   11.894,7.418 11.975,7.418 12.021,7.484 12.037,7.525 11.975,7.529 11.878,7.525 11.791,7.508 11.714,7.476 11.681,7.456   11.627,7.412 11.574,7.354 11.571,7.269 11.571,7.259 11.574,7.255 11.571,7.25 11.586,7.189 11.607,7.148 11.62,7.137   11.635,7.153 11.648,7.219 "
   id="polyline43"
   style="fill:#ffd200;fill-rule:evenodd" />
<polyline
   clip-rule="evenodd"
   points="12.425,7.403 12.458,7.418 12.487,7.426 12.581,7.492   12.65,7.566 12.679,7.599 12.683,7.603 12.683,7.618 12.668,7.635 12.646,7.644 12.622,7.635 12.594,7.607 12.487,7.533 12.413,7.5   12.335,7.484 12.266,7.473 12.258,7.473 12.246,7.395 12.249,7.391 12.249,7.374 12.246,7.371 12.249,7.365 12.335,7.382   12.425,7.403 "
   id="polyline45"
   style="fill:#ffd200;fill-rule:evenodd" />
<polyline
   points="11.247,7.59 11.247,7.603 11.198,7.651 11.182,7.659 11.178,7.665 11.165,7.651 11.141,7.566   11.137,7.546 11.137,7.533 11.157,7.521 11.178,7.517 11.203,7.517 11.247,7.59 "
   id="polyline47"
   style="fill:#ffd200" />
<polyline
   points="11.116,7.665 11.121,7.692 11.096,7.717 10.993,7.75 10.932,7.762 10.858,7.758 10.83,7.747   10.809,7.726 10.814,7.603 10.842,7.587 11.051,7.542 11.075,7.542 11.116,7.665 "
   id="polyline49"
   style="fill:#ffd200" />
<polyline
   clip-rule="evenodd"
   points="11.481,7.615 11.469,7.656 11.423,7.75 11.395,7.792   11.276,7.813 11.21,7.835 11.149,7.874 11.108,7.905 11.051,7.976 11.019,8.048 11.006,8.126 11.001,8.143 11.001,8.155   10.998,8.159 10.687,8.085 10.735,7.942 10.789,7.795 10.797,7.788 10.876,7.813 10.981,7.815 11.072,7.799 11.178,7.754   11.308,7.651 11.346,7.595 11.39,7.599 11.481,7.615 "
   id="polyline51"
   style="fill:#ffd200;fill-rule:evenodd" />
<polyline
   points="11.62,7.813 11.763,7.881 11.771,7.894 11.694,7.95 11.668,7.976 11.645,7.971 11.583,7.93   11.472,7.849 11.469,7.843 11.469,7.833 11.513,7.762 11.554,7.782 11.62,7.813 "
   id="polyline53"
   style="fill:#ffd200" />
<polyline
   clip-rule="evenodd"
   points="11.612,8.012 11.615,8.017 11.615,8.024 11.563,8.065   11.517,8.126 11.513,8.14 11.517,8.164 11.533,8.18 11.571,8.188 11.579,8.188 11.583,8.191 11.566,8.266 11.543,8.373 11.51,8.396   11.436,8.429 11.395,8.405 11.333,8.355 11.113,8.191 11.083,8.171 11.075,8.159 11.08,8.114 11.096,8.061 11.124,8.004   11.236,7.897 11.276,7.876 11.329,7.861 11.349,7.856 11.415,7.861 11.612,8.012 "
   id="polyline55"
   style="fill:#ffd200;fill-rule:evenodd" />
<polyline
   clip-rule="evenodd"
   points="10.421,8.454 10.507,8.531 10.72,8.749 10.712,8.756   10.581,8.769 10.577,8.765 10.543,8.769 10.441,8.76 10.396,8.743 10.274,8.667 10.347,8.592 10.347,8.576 10.351,8.572   10.339,8.551 10.323,8.54 10.298,8.543 10.274,8.56 10.262,8.581 10.175,8.598 10.101,8.63 10.012,8.638 10.004,8.638 10.004,8.63   10.2,8.487 10.318,8.396 10.347,8.405 10.421,8.454 "
   id="polyline57"
   style="fill:#ffd200;fill-rule:evenodd" />
<polyline
   clip-rule="evenodd"
   points="13.044,9.783 13.047,9.799 13.036,9.824 13.031,9.849   13.018,9.898 13.006,10 12.998,10.049 12.957,10.052 12.913,10.065 12.852,10.073 12.729,10.11 12.663,10.134 12.618,10.159   12.586,10.2 12.576,10.229 12.561,10.274 12.553,10.384 12.553,10.4 12.565,10.409 12.594,10.404 12.65,10.417 12.692,10.438   12.737,10.486 12.757,10.532 12.765,10.573 12.761,10.609 12.749,10.643 12.72,10.687 12.627,10.773 12.602,10.785 12.594,10.773   12.597,10.736 12.594,10.732 12.597,10.728 12.597,10.711 12.594,10.708 12.597,10.704 12.586,10.617 12.565,10.568 12.54,10.543   12.495,10.552 12.483,10.564 12.499,10.584 12.512,10.609 12.515,10.643 12.52,10.744 12.499,10.81 12.463,10.871 12.413,10.928   12.361,10.961 12.266,10.99 12.218,10.99 12.262,10.917 12.294,10.851 12.307,10.81 12.311,10.757 12.307,10.732 12.287,10.687   12.266,10.663 12.254,10.663 12.241,10.675 12.238,10.711 12.221,10.798 12.192,10.879 12.159,10.937 12.085,11.01 12.045,11.034   11.968,11.054 11.939,11.06 11.922,11.06 11.952,10.978 11.96,10.903 11.947,10.871 11.914,10.807 11.898,10.793 11.881,10.801   11.857,10.838 11.857,10.912 11.722,10.969 11.685,10.99 11.676,10.999 11.681,11.015 11.758,11.112 11.799,11.157 11.816,11.194   11.796,11.215 11.586,11.345 11.533,11.371 11.566,11.296 11.624,11.224 11.665,11.177 11.668,11.157 11.661,11.146 11.656,11.142   11.607,11.153 11.554,11.174 11.546,11.174 11.554,11.08 11.546,11.019 11.538,10.982 11.51,10.941 11.481,10.92 11.464,10.912   11.415,10.917 11.37,10.949 11.267,11.06 11.19,11.167 11.178,11.174 11.162,11.167 11.059,11.084 11.026,11.064 11.001,11.064   10.981,11.084 10.977,11.104 10.981,11.121 11.006,11.146 11.042,11.157 11.096,11.198 11.1,11.21 11.088,11.228 11.072,11.317   11.055,11.419 11.055,11.423 11.042,11.412 11.019,11.345 10.977,11.263 10.908,11.104 10.896,11.08 10.879,11.039 11.083,10.944   11.3,10.846 11.317,10.83 11.313,10.814 11.3,10.807 11.297,10.801 11.271,10.807 11.252,10.818 11.223,10.826 11.108,10.875   10.929,10.958 10.899,10.969 10.879,10.965 10.765,10.81 10.753,10.798 10.735,10.798 10.715,10.822 10.72,10.879 10.735,10.908   10.597,11.104 10.568,11.153 10.564,11.157 10.56,11.095 10.581,10.822 10.589,10.793 10.781,10.752 10.876,10.728 11.157,10.65   11.456,10.557 11.758,10.445 11.812,10.42 11.861,10.38 11.906,10.318 11.919,10.229 11.914,10.134 11.911,10.131 11.914,10.126   11.906,10.024 11.911,10 11.911,9.987 11.942,9.959 11.955,9.95 11.968,9.939 11.968,9.926 11.972,9.922 11.963,9.906 11.942,9.89   11.902,9.894 11.878,9.906 11.84,9.909 11.771,9.898 11.694,9.86 11.645,9.812 11.607,9.758 11.592,9.706 11.583,9.673   11.592,9.566 11.62,9.509 11.665,9.477 11.676,9.473 11.685,9.473 11.697,9.5 11.747,9.55 11.808,9.583 11.853,9.594 11.98,9.612   11.983,9.615 11.988,9.612 11.992,9.615 11.996,9.612 12.082,9.619 12.282,9.6 12.418,9.57 12.528,9.53 12.692,9.459 12.811,9.423   12.822,9.423 13.044,9.783 "
   id="polyline59"
   style="fill:#ffd200;fill-rule:evenodd" />
<polyline
   clip-rule="evenodd"
   points="13.108,9.521 13.134,9.542 13.141,9.55 13.134,9.591   13.121,9.66 13.113,9.689 13.085,9.656 13.039,9.579 12.99,9.489 12.965,9.443 13.085,9.512 13.108,9.521 "
   id="polyline61"
   style="fill:#ffd200;fill-rule:evenodd" />
<polyline
   clip-rule="evenodd"
   points="10.952,10.491 11.039,10.573 11.051,10.593   11.055,10.598 11.055,10.609 10.855,10.658 10.83,10.663 10.814,10.65 10.814,10.629 10.85,10.584 10.855,10.573 10.85,10.548   10.835,10.532 10.814,10.532 10.786,10.561 10.753,10.602 10.712,10.629 10.551,10.684 10.507,10.695 10.462,10.704 10.462,10.699   10.458,10.695 10.776,10.376 10.822,10.397 10.952,10.491 "
   id="polyline63"
   style="fill:#ffd200;fill-rule:evenodd" />
<polyline
   clip-rule="evenodd"
   points="11.481,11.039 11.489,11.095 11.484,11.162   11.464,11.231 11.448,11.386 11.451,11.436 11.477,11.521 11.489,11.545 11.387,11.6 11.288,11.677 11.244,11.721 11.218,11.754   11.162,11.853 11.149,11.91 11.154,11.946 11.19,11.984 11.215,11.984 11.231,11.967 11.218,11.905 11.247,11.861 11.28,11.836   11.313,11.841 11.341,11.861 11.379,11.91 11.399,11.963 11.398,12.021 11.382,12.062 11.333,12.103 11.293,12.124 11.256,12.127   11.252,12.131 11.247,12.127 11.231,12.131 11.182,12.124 11.141,12.099 11.104,12.074 11.059,12.028 11.019,11.955 11.006,11.894   11.014,11.829 11.026,11.792 11.059,11.721 11.165,11.583 11.195,11.534 11.215,11.477 11.215,11.452 11.252,11.433 11.321,11.361   11.346,11.325 11.379,11.243 11.374,11.239 11.382,11.198 11.374,11.128 11.354,11.075 11.354,11.054 11.44,10.978 11.448,10.978   11.481,11.039 "
   id="polyline65"
   style="fill:#ffd200;fill-rule:evenodd" />
<polyline
   clip-rule="evenodd"
   points="10.494,10.993 10.49,11.026 10.494,11.03 10.49,11.128   10.487,11.133 10.49,11.235 10.494,11.251 10.52,11.271 10.543,11.269 10.581,11.256 10.74,11.026 10.776,11.034 10.814,11.046   10.827,11.046 10.847,11.104 10.96,11.366 11.047,11.525 11.067,11.545 11.143,11.417 11.121,11.509 11.088,11.579 11.075,11.583   11.026,11.566 10.99,11.542 10.957,11.504 10.929,11.443 10.929,11.433 10.916,11.412 10.912,11.392 10.876,11.354 10.85,11.366   10.842,11.375 10.838,11.423 10.838,11.436 10.781,11.427 10.745,11.407 10.683,11.341 10.666,11.305 10.658,11.276 10.658,11.256   10.633,11.231 10.605,11.235 10.589,11.256 10.584,11.276 10.584,11.284 10.581,11.289 10.597,11.337 10.597,11.354 10.543,11.378   10.507,11.407 10.47,11.468 10.458,11.525 10.462,11.604 10.479,11.645 10.482,11.645 10.482,11.648 10.438,11.632 10.4,11.607   10.356,11.554 10.331,11.504 10.323,11.464 10.318,11.402 10.326,11.345 10.347,11.296 10.388,11.256 10.408,11.235 10.417,11.202   10.4,11.167 10.372,11.121 10.367,11.072 10.377,11.039 10.396,10.999 10.408,10.985 10.421,10.982 10.49,10.985 10.494,10.993 "
   id="polyline67"
   style="fill:#ffd200;fill-rule:evenodd" />
<polyline
   clip-rule="evenodd"
   points="13.521,11.136 13.616,11.183 13.673,11.228 13.69,11.243   13.698,11.269 13.67,11.292 13.571,11.337 13.473,11.366 13.44,11.361 13.407,11.351 13.384,11.345 13.379,11.341 13.453,11.215   13.448,11.202 13.436,11.194 13.392,11.21 13.302,11.325 13.24,11.382 13.166,11.433 13.149,11.436 13.277,11.183 13.326,11.087   13.42,11.104 13.521,11.136 "
   id="polyline69"
   style="fill:#ffd200;fill-rule:evenodd" />
<polyline
   clip-rule="evenodd"
   points="11.276,11.263 11.259,11.3 11.226,11.345 11.154,11.402   11.137,11.434 11.137,11.382 11.149,11.354 11.154,11.33 11.169,11.271 11.169,11.251 11.195,11.243 11.206,11.231 11.244,11.251   11.276,11.263 "
   id="polyline71"
   style="fill:#ffd200;fill-rule:evenodd" />
<polyline
   clip-rule="evenodd"
   points="11.726,11.468 11.832,11.501 12.037,11.55 12.254,11.591   12.463,11.611 12.929,11.619 13.182,11.604 13.179,11.652 13.158,11.742 13.149,11.75 12.872,11.762 12.602,11.75 12.433,11.734   12.294,11.713 12.136,11.682 11.919,11.619 11.738,11.559 11.533,11.484 11.517,11.443 11.517,11.419 11.533,11.402 11.574,11.412   11.726,11.468 "
   id="polyline73"
   style="fill:#ffd200;fill-rule:evenodd" />
<polyline
   points="11.779,11.657 11.96,11.693 12.045,11.713 12.208,11.747 12.515,11.788 12.685,11.799   12.839,11.803 13.141,11.809 13.146,11.82 13.134,11.869 13.129,11.91 13.113,11.987 13.105,11.996 12.847,12 12.594,11.987   12.45,11.976 12.315,11.955 12.111,11.91 11.939,11.869 11.656,11.775 11.461,11.698 11.395,11.672 11.39,11.668 11.411,11.648   11.464,11.616 11.513,11.604 11.55,11.6 11.627,11.611 11.779,11.657 "
   id="polyline75"
   style="fill:#ffd200" />
<polyline
   clip-rule="evenodd"
   points="14.079,11.701 14.1,11.721 14.12,11.727 14.136,11.727   14.14,11.721 14.143,11.727 14.148,11.734 14.14,11.792 14.107,11.812 14.018,11.844 13.968,11.853 13.944,11.853 13.98,11.747   14.033,11.645 14.038,11.625 14.046,11.625 14.079,11.701 "
   id="polyline77"
   style="fill:#ffd200;fill-rule:evenodd" />
<polyline
   clip-rule="evenodd"
   points="13.506,11.771 13.42,11.874 13.424,11.897 13.448,11.915   13.456,11.922 13.456,11.93 13.412,11.951 13.379,11.955 13.322,11.967 13.22,11.976 13.215,11.971 13.271,11.905 13.363,11.779   13.371,11.779 13.379,11.8 13.395,11.816 13.428,11.812 13.502,11.754 13.509,11.754 13.506,11.771 "
   id="polyline79"
   style="fill:#ffd200;fill-rule:evenodd" />
<path
   d="M 12.274,6.765 L 12.294,6.778 L 12.302,6.785 L 12.294,6.834 L 12.302,6.852 L 12.299,6.888 L 12.266,6.913 L 12.188,6.945 L 12.139,6.977 L 12.119,6.977 L 12.111,6.97 L 12.106,6.949 L 12.13,6.916 L 12.179,6.875 L 12.192,6.839 L 12.164,6.822 L 12.139,6.819 L 12.131,6.819 L 12.111,6.806 L 12.09,6.792 L 12.085,6.777 L 12.09,6.751 L 12.107,6.748 L 12.172,6.769 L 12.274,6.765 M 12.425,6.683 L 12.499,6.729 L 12.507,6.737 L 12.525,6.744 L 12.561,6.77 L 12.638,6.834 L 12.676,6.875 L 12.679,6.896 L 12.676,6.908 L 12.663,6.933 L 12.668,6.961 L 12.683,6.974 L 12.708,6.97 L 12.737,6.916 L 12.801,6.852 L 12.86,6.819 L 12.945,6.806 L 13.003,6.81 L 13.036,6.822 L 13.088,6.863 L 13.125,6.916 L 13.129,6.936 L 13.134,6.945 L 13.134,6.954 L 13.125,6.99 L 13.1,7.03 L 13.052,7.066 L 13.018,7.087 L 12.957,7.1 L 12.908,7.1 L 12.88,7.107 L 12.86,7.128 L 12.863,7.148 L 12.904,7.157 L 13.006,7.148 L 13.109,7.107 L 13.174,7.066 L 13.264,6.984 L 13.278,7.005 L 13.282,7.03 L 13.282,7.038 L 13.29,7.071 L 13.282,7.137 L 13.282,7.145 L 13.257,7.193 L 13.139,7.288 L 13.069,7.329 L 13,7.349 L 12.988,7.365 L 12.992,7.385 L 13,7.394 L 13.029,7.398 L 13.119,7.373 L 13.172,7.353 L 13.248,7.3 L 13.292,7.259 L 13.305,7.247 L 13.313,7.247 L 13.323,7.255 L 13.331,7.283 L 13.339,7.332 L 13.334,7.382 L 13.313,7.443 L 13.271,7.5 L 13.227,7.537 L 13.149,7.587 L 13.113,7.602 L 13.006,7.635 L 12.995,7.648 L 13.003,7.669 L 13.031,7.68 L 13.105,7.676 L 13.137,7.669 L 13.214,7.635 L 13.312,7.562 L 13.333,7.541 L 13.343,7.541 L 13.354,7.566 L 13.367,7.607 L 13.36,7.709 L 13.33,7.771 L 13.289,7.823 L 13.215,7.876 L 13.154,7.905 L 13.108,7.917 L 13.023,7.925 L 12.957,7.93 L 12.949,7.942 L 12.954,7.971 L 12.974,7.983 L 13.032,7.996 L 13.109,7.991 L 13.2,7.966 L 13.31,7.905 L 13.323,7.893 L 13.331,7.893 L 13.334,7.914 L 13.334,7.934 L 13.339,7.946 L 13.327,8.02 L 13.29,8.098 L 13.245,8.147 L 13.2,8.183 L 13.126,8.216 L 12.99,8.237 L 12.867,8.232 L 12.842,8.232 L 12.835,8.229 L 12.811,8.232 L 12.802,8.245 L 12.806,8.265 L 12.823,8.282 L 12.881,8.298 L 12.966,8.303 L 13.06,8.293 L 13.079,8.293 L 13.176,8.273 L 13.217,8.257 L 13.225,8.262 L 13.202,8.334 L 13.161,8.392 L 13.1,8.434 L 13.039,8.462 L 12.97,8.478 L 12.815,8.488 L 12.716,8.478 L 12.679,8.458 L 12.668,8.458 L 12.65,8.475 L 12.668,8.508 L 12.688,8.519 L 12.82,8.544 L 12.917,8.549 L 13.019,8.532 L 13.048,8.519 L 13.069,8.524 L 13.311,8.777 L 13.532,8.994 L 13.754,9.191 L 13.884,9.289 L 13.983,9.293 L 14.07,9.276 L 14.123,9.256 L 14.167,9.224 L 14.228,9.145 L 14.269,9.051 L 14.287,8.999 L 14.303,8.933 L 14.299,8.818 L 14.276,8.72 L 14.243,8.639 L 14.185,8.532 L 14.087,8.4 L 14.09,8.372 L 14.193,8.249 L 14.214,8.252 L 14.273,8.31 L 14.416,8.523 L 14.494,8.694 L 14.518,8.764 L 14.575,8.781 L 14.596,8.776 L 14.614,8.776 L 14.666,8.781 L 14.777,8.768 L 14.88,8.732 L 14.888,8.743 L 14.88,8.842 L 14.806,8.952 L 14.757,8.998 L 14.675,9.026 L 14.581,9.034 L 14.533,9.03 L 14.516,9.047 L 14.511,9.067 L 14.516,9.083 L 14.537,9.096 L 14.639,9.111 L 14.716,9.104 L 14.868,9.055 L 14.905,9.039 L 14.926,9.039 L 14.913,9.091 L 14.859,9.193 L 14.81,9.251 L 14.748,9.296 L 14.666,9.325 L 14.552,9.345 L 14.52,9.35 L 14.459,9.342 L 14.422,9.322 L 14.414,9.322 L 14.307,9.444 L 14.23,9.5 L 14.192,9.517 L 14.082,9.55 L 14.018,9.558 L 13.948,9.546 L 13.899,9.521 L 13.87,9.5 L 13.858,9.505 L 13.885,9.558 L 13.927,9.6 L 13.981,9.702 L 13.994,9.759 L 13.998,9.927 L 13.998,9.96 L 13.986,10.058 L 13.998,10.107 L 14.034,10.156 L 14.071,10.189 L 14.129,10.217 L 14.234,10.242 L 14.312,10.275 L 14.362,10.311 L 14.394,10.36 L 14.397,10.39 L 14.381,10.516 L 14.369,10.553 L 14.377,10.585 L 14.394,10.598 L 14.435,10.602 L 14.538,10.671 L 14.64,10.778 L 14.689,10.868 L 14.706,10.925 L 14.715,10.991 L 14.706,11.047 L 14.711,11.055 L 14.695,11.121 L 14.677,11.175 L 14.656,11.216 L 14.615,11.126 L 14.579,11.068 L 14.505,10.991 L 14.48,10.983 L 14.457,10.983 L 14.436,10.999 L 14.436,11.011 L 14.527,11.109 L 14.572,11.178 L 14.599,11.26 L 14.608,11.318 L 14.603,11.4 L 14.595,11.436 L 14.582,11.481 L 14.55,11.543 L 14.527,11.559 L 14.501,11.502 L 14.453,11.444 L 14.349,11.367 L 14.34,11.367 L 14.304,11.342 L 14.291,11.338 L 14.271,11.359 L 14.262,11.392 L 14.262,11.4 L 14.393,11.538 L 14.402,11.555 L 14.394,11.6 L 14.34,11.69 L 14.238,11.87 L 14.221,11.898 L 14.204,11.919 L 14.201,11.866 L 14.204,11.837 L 14.212,11.727 L 14.221,11.71 L 14.242,11.702 L 14.287,11.699 L 14.299,11.686 L 14.304,11.661 L 14.275,11.633 L 14.222,11.637 L 14.205,11.645 L 14.136,11.653 L 14.12,11.625 L 14.074,11.444 L 14.061,11.436 L 14.021,11.449 L 13.993,11.481 L 13.939,11.645 L 13.877,11.76 L 13.844,11.837 L 13.836,11.845 L 13.832,11.866 L 13.82,11.878 L 13.811,11.878 L 13.717,11.792 L 13.671,11.776 L 13.659,11.776 L 13.647,11.788 L 13.647,11.8 L 13.655,11.824 L 13.688,11.849 L 13.719,11.885 L 13.769,11.995 L 13.781,12.028 L 13.802,12.082 L 13.811,12.11 L 13.799,12.11 L 13.618,11.975 L 13.514,11.885 L 13.511,11.877 L 13.511,11.861 L 13.667,11.668 L 13.801,11.484 L 13.801,11.476 L 13.785,11.46 L 13.752,11.464 L 13.613,11.624 L 13.573,11.668 L 13.499,11.685 L 13.425,11.721 L 13.412,11.709 L 13.391,11.616 L 13.388,11.586 L 13.388,11.578 L 13.356,11.554 L 13.347,11.554 L 13.326,11.558 L 13.318,11.578 L 13.314,11.611 L 13.318,11.624 L 13.308,11.677 L 13.3,11.693 L 13.292,11.742 L 13.24,11.8 L 13.203,11.841 L 13.215,11.762 L 13.228,11.701 L 13.232,11.668 L 13.256,11.537 L 13.264,11.513 L 13.278,11.501 L 13.36,11.476 L 13.49,11.44 L 13.695,11.378 L 13.763,11.341 L 13.822,11.284 L 13.875,11.174 L 13.907,11.079 L 13.94,10.952 L 13.961,10.822 L 13.953,10.773 L 13.924,10.711 L 13.83,10.622 L 13.735,10.581 L 13.621,10.532 L 13.584,10.519 L 13.531,10.474 L 13.514,10.478 L 13.506,10.491 L 13.509,10.629 L 13.497,10.703 L 13.473,10.768 L 13.432,10.826 L 13.364,10.887 L 13.298,10.924 L 13.257,10.932 L 13.139,10.924 L 13.204,10.842 L 13.221,10.806 L 13.224,10.768 L 13.22,10.76 L 13.223,10.752 L 13.215,10.691 L 13.195,10.629 L 13.181,10.573 L 13.154,10.474 L 13.113,10.315 L 13.1,10.236 L 13.088,10.151 L 13.085,10.049 L 13.093,9.979 L 13.093,9.962 L 13.106,9.926 L 13.109,9.898 L 13.138,9.827 L 13.174,9.75 L 13.203,9.656 L 13.22,9.582 L 13.215,9.489 L 13.182,9.366 L 13.166,9.321 L 13.146,9.275 L 13.121,9.247 L 13.088,9.206 L 13.044,9.169 L 12.995,9.144 L 12.974,9.149 L 12.962,9.162 L 12.965,9.185 L 13.077,9.3 L 13.1,9.35 L 13.118,9.403 L 13.118,9.424 L 13.097,9.419 L 13.036,9.383 L 12.786,9.265 L 12.63,9.198 L 12.409,9.116 L 12.361,9.1 L 12.409,9.026 L 12.432,8.936 L 12.442,8.842 L 12.437,8.723 L 12.413,8.65 L 12.401,8.641 L 12.38,8.646 L 12.363,8.658 L 12.355,8.691 L 12.36,8.699 L 12.36,8.825 L 12.346,8.932 L 12.326,8.989 L 12.297,9.047 L 12.26,9.096 L 12.2,9.142 L 12.152,9.163 L 12.097,9.17 L 11.995,9.183 L 11.982,9.183 L 12.032,9.035 L 12.053,8.897 L 12.044,8.826 L 12.028,8.794 L 12.02,8.785 L 11.996,8.79 L 11.975,8.818 L 11.963,8.867 L 11.947,9.002 L 11.933,9.048 L 11.918,9.109 L 11.877,9.163 L 11.84,9.198 L 11.763,9.247 L 11.681,9.275 L 11.62,9.275 L 11.681,9.169 L 11.714,9.104 L 11.726,9.055 L 11.735,9.009 L 11.726,8.96 L 11.703,8.94 L 11.677,8.944 L 11.657,8.96 L 11.625,9.08 L 11.572,9.185 L 11.506,9.243 L 11.443,9.28 L 11.379,9.305 L 11.267,9.313 L 11.195,9.3 L 11.304,9.185 L 11.321,9.162 L 11.321,9.136 L 11.304,9.116 L 11.283,9.111 L 11.27,9.116 L 11.262,9.116 L 11.221,9.149 L 11.148,9.193 L 11.016999,9.259 L 11.005999,9.28 L 11.010999,9.288 L 11.031999,9.443 L 10.998999,9.464 L 10.855999,9.505 L 10.727999,9.53 L 10.695999,9.53 L 10.773999,9.451 L 10.814999,9.394 L 10.858999,9.41 L 10.928999,9.431 L 10.940999,9.423 L 10.952999,9.41 L 10.952999,9.382 L 10.936999,9.361 L 10.887999,9.345 L 10.858999,9.333 L 10.827999,9.325 L 10.817999,9.316 L 10.822999,9.275 L 10.855999,9.193 L 10.858999,9.173 L 10.855999,9.162 L 10.834999,9.144 L 10.805999,9.149 L 10.768999,9.173 L 10.622999,9.316 L 10.539999,9.377 L 10.527999,9.333 L 10.522999,9.275 L 10.513999,9.255 L 10.489999,9.231 L 10.469999,9.231 L 10.441999,9.259 L 10.499999,9.599 L 10.466999,9.561 L 10.336999,9.374 L 10.241999,9.243 L 10.241999,9.231 L 10.413999,9.153 L 10.679999,9.026 L 10.687999,9.014 L 10.683999,8.989 L 10.655999,8.968 L 10.495999,9.034 L 10.450999,9.055 L 10.342999,9.06 L 10.243999,9.076 L 10.240999,9.064 L 10.253999,9.01 L 10.269999,8.958 L 10.274999,8.913 L 10.274999,8.896 L 10.244999,8.871 L 10.228999,8.871 L 10.204999,8.896 L 10.196999,8.919 L 10.182999,9.022 L 10.162999,9.042 L 10.113999,9.067 L 10.059999,9.083 L 9.9789994,9.111 L 10.138999,8.863 L 10.141999,8.85 L 10.167999,8.822 L 10.191999,8.781 L 10.235999,8.789 L 10.317999,8.817 L 10.358999,8.83 L 10.461999,8.842 L 10.608999,8.846 L 10.726999,8.83 L 10.821999,8.805 L 10.989999,8.727 L 11.98,8.237 L 12.065,8.22 L 12.085,8.2 L 12.085,8.171 L 12.065,8.155 L 12.024,8.15 L 11.983,8.159 L 11.88,8.208 L 11.716,8.285 L 11.684,8.306 L 11.656,8.314 L 11.635,8.326 L 11.649,8.257 L 11.698,8.15 L 11.69,8.134 L 11.662,8.122 L 11.633,8.118 L 11.65,8.093 L 11.768,7.991 L 11.846,7.942 L 11.982,7.884 L 12.058,7.864 L 12.079,7.864 L 12.107,7.856 L 12.168,7.853 L 12.189,7.856 L 12.2,7.854 L 12.306,7.865 L 12.396,7.89 L 12.442,7.906 L 12.45,7.91 L 12.491,7.91 L 12.514,7.885 L 12.511,7.836 L 12.487,7.816 L 12.458,7.824 L 12.446,7.828 L 12.405,7.82 L 12.335,7.8 L 12.197,7.78 L 12.172,7.775 L 12.144,7.755 L 12.116,7.718 L 12.116,7.68 L 12.153,7.648 L 12.165,7.635 L 12.124,7.554 L 12.12,7.529 L 12.12,7.508 L 12.184,7.537 L 12.221,7.57 L 12.302,7.635 L 12.316,7.639 L 12.329,7.651 L 12.402,7.689 L 12.533,7.713 L 12.57,7.713 L 12.577,7.717 L 12.683,7.705 L 12.712,7.692 L 12.74,7.659 L 12.77,7.59 L 12.774,7.546 L 12.765,7.492 L 12.745,7.434 L 12.704,7.362 L 12.594,7.234 L 12.536,7.189 L 12.473,7.169 L 12.396,7.161 L 12.334,7.178 L 12.278,7.214 L 12.208,7.28 L 12.177,7.337 L 12.177,7.353 L 12.167,7.362 L 12.159,7.403 L 12.164,7.414 L 12.167,7.434 L 12.167,7.455 L 12.139,7.447 L 12.098,7.406 L 12.057,7.345 L 12.049,7.308 L 12.013,7.271 L 11.992,7.226 L 11.983,7.185 L 12.024,7.107 L 12.048,7.042 L 12.04,7.035 L 12.012,7.046 L 11.954,7.104 L 11.938,7.12 L 11.929,7.12 L 11.909,7.087 L 11.912,7.042 L 12.011,6.882 L 12.06,6.805 L 12.077,6.76 L 12.176,6.616 L 12.217,6.564 L 12.31,6.613 L 12.425,6.683 z M 12.139,7.271 L 12.136,7.291 L 12.119,7.304 L 12.085,7.308 L 12.065,7.312 L 12.056,7.304 L 12.065,7.275 L 12.082,7.263 L 12.136,7.268 L 12.139,7.271 z "
   style="fill:#ffd200;fill-rule:evenodd"
   id="path81" />
</svg>