<?xml version="1.0" encoding="UTF-8" standalone="no"?>
<!-- Created with Inkscape (http://www.inkscape.org/) -->
<svg
   xmlns:svg="http://www.w3.org/2000/svg"
   xmlns="http://www.w3.org/2000/svg"
   version="1.0"
   width="548.91852"
   height="800.34003"
   viewBox="0 0 26.273 38.336"
   id="Layer_1"
   xml:space="preserve"><defs
   id="defs86" />
<rect
   width="25.988001"
   height="38.265999"
   x="0.20299993"
   y="0.035"
   id="rect3" />
<rect
   width="25.988001"
   height="38.265999"
   x="0.20299993"
   y="0.035"
   style="fill:none;stroke:black;stroke-width:0.07;stroke-miterlimit:3.86400008"
   id="rect5" />
<rect
   width="25.988001"
   height="3.595"
   x="0.20299993"
   y="20.157"
   style="fill:#ffd200"
   id="rect7" />
<rect
   width="25.988001"
   height="3.595"
   x="0.20299993"
   y="20.157"
   style="fill:none;stroke:#ffd200;stroke-width:0.07;stroke-miterlimit:3.86400008"
   id="rect9" />
<polyline
   clip-rule="evenodd"
   points="13.107,10.769 13.107,10.777 13.086,10.793   13.073,10.805 13.073,10.813 13.07,10.818 13.086,10.842 13.099,10.846 13.135,10.838 13.164,10.846 13.185,10.871 13.197,10.923   13.181,10.957 13.148,10.989 13.115,11.005 13.086,11.01 13.041,10.985 13.029,10.989 13.009,11.01 13.012,11.022 13.079,11.066   13.197,11.146 13.291,11.202 13.312,11.197 13.328,11.177 13.324,11.156 13.291,11.132 13.265,11.125 13.234,11.101 13.222,11.074   13.224,11.03 13.25,10.978 13.279,10.952 13.344,10.957 13.344,10.961 13.361,10.969 13.38,11.01 13.385,11.03 13.406,11.051   13.421,11.051 13.441,11.025 13.435,10.998 13.439,10.993 13.435,10.981 13.439,10.952 13.462,10.928 13.484,10.923 13.49,10.923   13.496,10.92 13.541,10.928 13.578,10.94 13.603,10.961 13.619,10.981 13.623,11.039 13.619,11.066 13.572,11.104 13.552,11.112   13.541,11.141 13.548,11.156 13.57,11.169 13.619,11.162 13.644,11.148 13.679,11.153 13.701,11.169 13.72,11.194 13.726,11.217   13.72,11.223 13.726,11.228 13.708,11.271 13.687,11.292 13.667,11.304 13.646,11.313 13.644,11.31 13.611,11.313 13.593,11.313   13.589,11.31 13.585,11.313 13.541,11.284 13.521,11.276 13.496,11.279 13.484,11.289 13.476,11.296 13.484,11.316 13.529,11.35   13.619,11.406 13.679,11.447 13.732,11.483 13.773,11.493 13.794,11.488 13.802,11.476 13.797,11.456 13.761,11.412 13.753,11.365   13.761,11.333 13.765,11.32 13.773,11.296 13.802,11.271 13.851,11.258 13.9,11.258 13.917,11.284 13.91,11.324 13.904,11.33   13.91,11.345 13.92,11.354 13.941,11.354 13.974,11.32 13.995,11.299 14.031,11.289 14.077,11.292 14.088,11.304 13.91,11.476   13.794,11.579 13.787,11.579 13.765,11.542 13.685,11.46 13.638,11.439 13.537,11.422 13.418,11.35 13.144,11.177 12.927,11.043   12.915,11.046 12.911,11.046 12.906,11.043 12.918,11.002 12.952,10.923 13.058,10.687 13.07,10.663 13.099,10.715 13.107,10.769   "
   id="polyline11"
   style="fill:#ffd200;fill-rule:evenodd"
   transform="translate(2.000211e-3,0)" />
<polyline
   points="11.913,11.156 11.893,11.197 11.875,11.25 11.867,11.289 11.863,11.292 11.863,11.299   11.858,11.371 11.854,11.412 11.863,11.509 11.9,11.636 11.945,11.706 12.03,11.782 12.043,11.791 12.039,11.82 12.027,11.84   11.957,12 11.954,12.004 11.777,11.864 11.772,11.856 11.781,11.812 11.797,11.762 11.806,11.667 11.806,11.606 11.777,11.468   11.74,11.361 11.684,11.25 11.649,11.21 11.639,11.202 11.634,11.197 11.629,11.194 11.634,11.169 11.72,10.981 11.907,11.146   11.913,11.156 "
   id="polyline13"
   style="fill:#ffd200"
   transform="translate(2.000211e-3,0)" />
<polyline
   clip-rule="evenodd"
   points="14.371,11.054 14.424,11.071 14.56,11.125 14.572,11.136   14.531,11.177 14.363,11.304 14.175,11.333 14.163,11.316 14.17,11.299 14.166,11.276 14.118,11.243 14.077,11.235 13.995,11.238   13.992,11.243 13.97,11.238 13.941,11.214 13.892,11.197 13.806,11.202 13.802,11.207 13.787,11.207 13.769,11.169 13.732,11.116   13.732,11.112 13.74,11.104 13.999,11.071 14.289,11.03 14.338,11.039 14.371,11.054 "
   id="polyline15"
   style="fill:#ffd200;fill-rule:evenodd"
   transform="translate(2.000211e-3,0)" />
<polyline
   points="12.956,11.116 12.988,11.136 13.168,11.25 13.197,11.271 13.234,11.292 13.439,11.422   13.447,11.432 13.447,11.439 13.418,11.452 13.388,11.46 13.365,11.476 13.361,11.48 13.332,11.473 13.073,11.313 12.854,11.177   12.84,11.166 12.877,11.104 12.895,11.083 12.931,11.101 12.956,11.116 "
   id="polyline17"
   style="fill:#ffd200"
   transform="translate(2.000211e-3,0)" />
<polyline
   clip-rule="evenodd"
   points="12.727,11.23 12.621,11.395 12.607,11.402 12.549,11.391   12.264,11.415 11.933,11.443 11.928,11.432 11.928,11.419 11.924,11.415 11.928,11.412 11.924,11.34 11.933,11.324 11.948,11.313   12.231,11.279 12.693,11.223 12.718,11.223 12.727,11.23 "
   id="polyline19"
   style="fill:#ffd200;fill-rule:evenodd"
   transform="translate(2.000211e-3,0)" />
<polyline
   clip-rule="evenodd"
   points="11.421,11.333 11.52,11.34 11.608,11.337 11.634,11.35   11.649,11.371 11.679,11.439 11.699,11.48 11.715,11.533 11.731,11.631 11.729,11.747 11.69,11.869 11.69,11.902 11.749,11.991   11.806,12.082 11.822,12.114 11.822,12.127 11.465,12.208 11.307,12.246 11.298,12.246 11.291,12.237 11.298,12.15 11.307,12.144   11.332,12.147 11.36,12.144 11.375,12.123 11.375,12.109 11.348,12.089 11.291,12.073 11.246,12.037 11.196,11.963 11.164,11.873   11.159,11.844 11.164,11.832 11.266,11.82 11.332,11.823 11.47,11.791 11.486,11.782 11.523,11.791 11.544,11.771 11.547,11.672   11.552,11.667 11.547,11.665 11.557,11.631 11.561,11.595 11.581,11.524 11.581,11.509 11.567,11.497 11.49,11.483 11.435,11.46   11.383,11.419 11.339,11.354 11.332,11.324 11.334,11.313 11.363,11.316 11.421,11.333 "
   id="polyline21"
   style="fill:#ffd200;fill-rule:evenodd"
   transform="translate(2.000211e-3,0)" />
<polyline
   clip-rule="evenodd"
   points="14.939,11.354 15.042,11.395 15.083,11.415   15.125,11.443 15.209,11.509 15.329,11.631 15.381,11.7 15.414,11.774 15.443,11.856 15.452,11.902 15.459,11.951 15.463,11.996   15.452,12.109 15.426,12.212 15.374,12.348 15.291,12.475 15.288,12.475 15.279,12.49 15.189,12.581 15.095,12.654 14.98,12.74   14.867,12.813 14.751,12.883 14.666,12.96 14.605,13.039 14.546,13.132 14.513,13.201 14.464,13.345 14.441,13.452 14.437,13.508   14.445,13.595 14.461,13.651 14.469,13.677 14.428,13.672 14.355,13.6 14.286,13.484 14.265,13.432 14.252,13.33 14.265,13.223   14.289,13.173 14.314,13.149 14.314,13.141 14.306,13.132 14.289,13.137 14.207,13.214 14.175,13.272 14.15,13.33 14.137,13.416   14.142,13.48 14.163,13.57 14.163,13.574 14.134,13.566 14.072,13.505 14.031,13.426 14.019,13.375 14.015,13.345 14.019,13.341   14.015,13.309 14.015,13.292 14.019,13.289 14.015,13.283 14.023,13.231 14.047,13.166 14.084,13.104 14.142,13.059 14.134,13.047   14.109,13.051 14.081,13.067 14.068,13.067 13.974,13.153 13.925,13.231 13.913,13.263 13.9,13.227 13.904,13.112 13.917,13.059   13.937,12.998 13.97,12.948 14.036,12.887 14.105,12.842 14.191,12.811 14.297,12.777 14.461,12.749 14.523,12.731 14.546,12.729   14.636,12.699 14.833,12.601 14.984,12.499 15.091,12.408 15.197,12.287 15.254,12.188 15.288,12.114 15.303,12.045 15.312,11.958   15.316,11.926 15.3,11.836 15.275,11.788 15.209,11.708 15.222,11.652 15.222,11.636 15.206,11.624 15.189,11.627 15.177,11.645   15.172,11.68 15.144,11.762 15.127,11.832 15.12,11.84 15.099,11.832 15.058,11.774 15.025,11.708 14.994,11.611 15.013,11.538   15.017,11.524 15.017,11.509 15.004,11.501 14.984,11.504 14.972,11.518 14.96,11.554 14.898,11.627 14.892,11.652 14.894,11.656   14.892,11.672 14.894,11.7 14.892,11.706 14.912,11.795 14.915,11.808 14.915,11.823 14.902,11.829 14.853,11.82 14.779,11.771   14.722,11.713 14.666,11.624 14.654,11.529 14.65,11.48 14.625,11.476 14.601,11.48 14.592,11.493 14.58,11.579 14.587,11.627   14.628,11.706 14.677,11.779 14.695,11.812 14.718,11.849 14.674,11.861 14.621,11.861 14.617,11.856 14.613,11.861 14.554,11.849   14.494,11.829 14.445,11.795 14.39,11.754 14.355,11.708 14.342,11.672 14.33,11.672 14.286,11.726 14.252,11.815 14.245,11.864   14.248,11.869 14.245,11.902 14.245,11.914 14.24,11.918 14.245,11.922 14.24,12.024 14.245,12.028 14.24,12.032 14.252,12.155   14.26,12.171 14.265,12.205 14.297,12.302 14.31,12.332 14.368,12.421 14.453,12.547 14.543,12.654 14.56,12.67 14.56,12.674   14.527,12.688 14.412,12.711 14.375,12.72 14.359,12.72 14.273,12.605 14.187,12.455 14.142,12.348 14.109,12.253 14.097,12.205   14.072,12.086 14.06,11.996 14.064,11.885 14.081,11.823 14.097,11.771 14.175,11.64 14.207,11.595 14.306,11.488 14.42,11.395   14.51,11.357 14.677,11.324 14.718,11.32 14.82,11.33 14.939,11.354 "
   id="polyline23"
   style="fill:#ffd200;fill-rule:evenodd"
   transform="translate(2.000211e-3,0)" />
<polyline
   points="11.328,11.473 11.401,11.529 11.465,11.554 11.486,11.558 11.49,11.57 11.479,11.706   11.482,11.729 11.47,11.734 11.417,11.729 11.343,11.741 11.278,11.747 11.171,11.75 11.147,11.747 11.123,11.729 11.11,11.677   11.089,11.624 11.069,11.521 11.062,11.456 11.089,11.439 11.212,11.391 11.253,11.378 11.271,11.386 11.328,11.473 "
   id="polyline25"
   style="fill:#ffd200"
   transform="translate(2.000211e-3,0)" />
<polyline
   clip-rule="evenodd"
   points="12.583,11.436 12.58,11.46 12.554,11.513 12.521,11.558   11.989,11.636 11.965,11.604 11.945,11.549 11.945,11.529 11.957,11.521 12.529,11.439 12.574,11.432 12.58,11.436 12.583,11.436   "
   id="polyline27"
   style="fill:#ffd200;fill-rule:evenodd"
   transform="translate(2.000211e-3,0)" />
<polyline
   points="10.972,11.513 10.992,11.533 11,11.545 11.007,11.595 11.032,11.672 11.048,11.713 11.028,11.771   11,11.812 10.873,11.738 10.774,11.677 10.812,11.599 10.853,11.529 10.877,11.483 10.911,11.488 10.972,11.513 "
   id="polyline29"
   style="fill:#ffd200"
   transform="translate(2.000211e-3,0)" />
<polyline
   clip-rule="evenodd"
   points="12.235,11.902 12.289,12.016 12.351,12.069   12.386,12.086 12.48,12.102 12.563,12.102 12.607,12.167 12.624,12.208 12.563,12.212 12.464,12.208 12.378,12.191 12.301,12.158   12.269,12.138 12.214,12.094 12.162,12.037 12.157,11.951 12.157,11.943 12.162,11.938 12.157,11.934 12.173,11.873 12.194,11.832   12.207,11.82 12.223,11.836 12.235,11.902 "
   id="polyline31"
   style="fill:#ffd200;fill-rule:evenodd"
   transform="translate(2.000211e-3,0)" />
<polyline
   clip-rule="evenodd"
   points="13.012,12.086 13.045,12.102 13.073,12.109   13.168,12.176 13.238,12.25 13.265,12.281 13.271,12.287 13.271,12.302 13.254,12.319 13.234,12.327 13.209,12.319 13.181,12.291   13.073,12.216 13,12.185 12.922,12.167 12.854,12.155 12.845,12.155 12.833,12.077 12.836,12.073 12.836,12.057 12.833,12.053   12.836,12.048 12.922,12.065 13.012,12.086 "
   id="polyline33"
   style="fill:#ffd200;fill-rule:evenodd"
   transform="translate(2.000211e-3,0)" />
<polyline
   points="11.833,12.273 11.833,12.287 11.786,12.334 11.77,12.342 11.765,12.348 11.752,12.334   11.729,12.25 11.724,12.229 11.724,12.216 11.745,12.205 11.765,12.199 11.79,12.199 11.833,12.273 "
   id="polyline35"
   style="fill:#ffd200"
   transform="translate(2.000211e-3,0)" />
<polyline
   points="11.704,12.348 11.708,12.375 11.684,12.4 11.581,12.434 11.52,12.445 11.445,12.441 11.417,12.429   11.396,12.408 11.401,12.287 11.429,12.271 11.639,12.225 11.663,12.225 11.704,12.348 "
   id="polyline37"
   style="fill:#ffd200"
   transform="translate(2.000211e-3,0)" />
<polyline
   clip-rule="evenodd"
   points="12.068,12.298 12.056,12.339 12.01,12.434 11.981,12.475   11.863,12.496 11.797,12.519 11.736,12.557 11.695,12.588 11.639,12.658 11.605,12.731 11.593,12.811 11.588,12.825 11.588,12.838   11.585,12.842 11.273,12.77 11.322,12.625 11.375,12.479 11.383,12.47 11.462,12.496 11.567,12.499 11.66,12.482 11.765,12.438   11.896,12.334 11.933,12.278 11.978,12.281 12.068,12.298 "
   id="polyline39"
   style="fill:#ffd200;fill-rule:evenodd"
   transform="translate(2.000211e-3,0)" />
<polyline
   points="12.207,12.496 12.351,12.564 12.357,12.577 12.28,12.633 12.255,12.658 12.231,12.654   12.17,12.613 12.06,12.531 12.056,12.527 12.056,12.516 12.1,12.445 12.141,12.465 12.207,12.496 "
   id="polyline41"
   style="fill:#ffd200"
   transform="translate(2.000211e-3,0)" />
<polyline
   clip-rule="evenodd"
   points="12.198,12.695 12.203,12.699 12.203,12.708   12.149,12.749 12.104,12.811 12.1,12.822 12.104,12.846 12.121,12.863 12.157,12.872 12.167,12.872 12.17,12.875 12.153,12.948   12.129,13.055 12.097,13.08 12.022,13.112 11.981,13.088 11.92,13.039 11.699,12.875 11.67,12.854 11.663,12.842 11.667,12.797   11.684,12.743 11.711,12.688 11.822,12.581 11.863,12.56 11.916,12.544 11.937,12.54 12.002,12.544 12.198,12.695 "
   id="polyline43"
   style="fill:#ffd200;fill-rule:evenodd"
   transform="translate(2.000211e-3,0)" />
<polyline
   clip-rule="evenodd"
   points="11.007,13.137 11.094,13.214 11.307,13.432   11.298,13.439 11.168,13.452 11.164,13.447 11.13,13.452 11.028,13.444 10.983,13.426 10.861,13.35 10.934,13.275 10.934,13.26   10.938,13.255 10.925,13.234 10.911,13.223 10.884,13.227 10.861,13.242 10.849,13.263 10.762,13.28 10.688,13.313 10.599,13.321   10.59,13.321 10.59,13.313 10.788,13.17 10.905,13.08 10.934,13.088 11.007,13.137 "
   id="polyline45"
   style="fill:#ffd200;fill-rule:evenodd"
   transform="translate(2.000211e-3,0)" />
<polyline
   clip-rule="evenodd"
   points="13.63,14.466 13.634,14.482 13.623,14.507 13.619,14.531   13.605,14.582 13.593,14.684 13.585,14.732 13.544,14.735 13.5,14.749 13.439,14.756 13.316,14.793 13.25,14.817 13.205,14.842   13.172,14.883 13.164,14.913 13.148,14.958 13.14,15.067 13.14,15.083 13.152,15.092 13.181,15.088 13.238,15.101 13.279,15.122   13.324,15.169 13.344,15.215 13.353,15.256 13.347,15.292 13.336,15.325 13.306,15.369 13.213,15.457 13.189,15.468 13.181,15.457   13.185,15.42 13.181,15.416 13.185,15.41 13.185,15.395 13.181,15.391 13.185,15.387 13.172,15.3 13.152,15.251 13.127,15.227   13.082,15.235 13.07,15.248 13.086,15.268 13.099,15.292 13.103,15.325 13.107,15.427 13.086,15.492 13.049,15.553 13,15.611   12.947,15.645 12.854,15.673 12.804,15.673 12.85,15.6 12.881,15.533 12.895,15.492 12.897,15.44 12.895,15.416 12.874,15.369   12.854,15.346 12.84,15.346 12.829,15.358 12.824,15.395 12.809,15.481 12.779,15.563 12.747,15.619 12.672,15.693 12.631,15.717   12.554,15.738 12.526,15.742 12.509,15.742 12.539,15.66 12.546,15.586 12.535,15.553 12.501,15.489 12.485,15.477 12.468,15.484   12.444,15.522 12.444,15.594 12.31,15.652 12.272,15.673 12.264,15.682 12.269,15.697 12.345,15.795 12.386,15.84 12.403,15.877   12.382,15.898 12.173,16.028 12.121,16.054 12.153,15.98 12.211,15.906 12.252,15.86 12.255,15.84 12.248,15.83 12.244,15.824   12.194,15.837 12.141,15.857 12.133,15.857 12.141,15.762 12.133,15.701 12.125,15.666 12.097,15.625 12.068,15.604 12.05,15.594   12.002,15.6 11.957,15.632 11.854,15.742 11.777,15.85 11.765,15.857 11.749,15.85 11.646,15.768 11.613,15.748 11.588,15.748   11.567,15.768 11.564,15.789 11.567,15.803 11.593,15.83 11.629,15.84 11.684,15.881 11.688,15.894 11.674,15.91 11.66,16   11.642,16.103 11.642,16.106 11.629,16.094 11.605,16.028 11.564,15.947 11.496,15.789 11.482,15.762 11.465,15.723 11.67,15.627   11.887,15.53 11.904,15.513 11.9,15.498 11.887,15.489 11.884,15.484 11.858,15.489 11.838,15.501 11.811,15.509 11.695,15.559   11.516,15.641 11.486,15.652 11.465,15.648 11.353,15.492 11.339,15.481 11.322,15.481 11.302,15.505 11.307,15.563 11.322,15.591   11.185,15.789 11.155,15.837 11.15,15.84 11.147,15.778 11.168,15.505 11.175,15.477 11.369,15.436 11.462,15.41 11.745,15.333   12.043,15.239 12.345,15.128 12.399,15.104 12.447,15.063 12.494,15.001 12.505,14.913 12.501,14.817 12.498,14.814 12.501,14.81   12.494,14.708 12.498,14.684 12.498,14.671 12.529,14.643 12.542,14.633 12.554,14.623 12.554,14.609 12.56,14.605 12.549,14.589   12.529,14.572 12.488,14.576 12.464,14.589 12.427,14.592 12.357,14.582 12.28,14.543 12.231,14.494 12.194,14.441 12.178,14.388   12.17,14.356 12.178,14.25 12.207,14.192 12.252,14.159 12.264,14.155 12.272,14.155 12.284,14.184 12.334,14.233 12.396,14.266   12.439,14.277 12.567,14.295 12.57,14.298 12.574,14.295 12.58,14.298 12.583,14.295 12.669,14.303 12.87,14.282 13.004,14.254   13.115,14.213 13.279,14.143 13.398,14.106 13.41,14.106 13.63,14.466 "
   id="polyline47"
   style="fill:#ffd200;fill-rule:evenodd"
   transform="translate(2.000211e-3,0)" />
<polyline
   clip-rule="evenodd"
   points="13.695,14.205 13.72,14.225 13.728,14.233 13.72,14.274   13.708,14.343 13.701,14.373 13.671,14.339 13.626,14.262 13.578,14.172 13.552,14.126 13.671,14.196 13.695,14.205 "
   id="polyline49"
   style="fill:#ffd200;fill-rule:evenodd"
   transform="translate(2.000211e-3,0)" />
<polyline
   clip-rule="evenodd"
   points="11.54,15.174 11.626,15.256 11.639,15.276 11.642,15.28   11.642,15.292 11.441,15.341 11.417,15.346 11.401,15.333 11.401,15.313 11.438,15.268 11.441,15.256 11.438,15.231 11.421,15.215   11.401,15.215 11.373,15.243 11.339,15.284 11.298,15.313 11.139,15.366 11.094,15.378 11.048,15.387 11.048,15.382 11.045,15.378   11.363,15.06 11.41,15.081 11.54,15.174 "
   id="polyline51"
   style="fill:#ffd200;fill-rule:evenodd"
   transform="translate(2.000211e-3,0)" />
<polyline
   clip-rule="evenodd"
   points="12.068,15.723 12.077,15.778 12.071,15.844 12.05,15.915   12.036,16.069 12.039,16.118 12.063,16.205 12.077,16.229 11.974,16.282 11.875,16.36 11.831,16.405 11.806,16.438 11.749,16.535   11.736,16.593 11.74,16.629 11.777,16.667 11.802,16.667 11.818,16.65 11.806,16.589 11.833,16.544 11.867,16.52 11.9,16.524   11.928,16.544 11.965,16.593 11.986,16.647 11.985,16.705 11.969,16.744 11.92,16.785 11.879,16.807 11.843,16.811 11.838,16.813   11.833,16.811 11.818,16.813 11.77,16.807 11.729,16.781 11.69,16.757 11.646,16.711 11.605,16.637 11.593,16.576 11.601,16.511   11.613,16.475 11.646,16.405 11.752,16.267 11.781,16.217 11.802,16.159 11.802,16.135 11.838,16.115 11.907,16.044 11.933,16.008   11.965,15.926 11.961,15.922 11.969,15.881 11.961,15.812 11.94,15.758 11.94,15.738 12.027,15.66 12.036,15.66 12.068,15.723 "
   id="polyline53"
   style="fill:#ffd200;fill-rule:evenodd"
   transform="translate(2.000211e-3,0)" />
<polyline
   clip-rule="evenodd"
   points="11.082,15.676 11.078,15.709 11.082,15.714   11.078,15.812 11.073,15.816 11.078,15.918 11.082,15.935 11.106,15.956 11.13,15.951 11.168,15.939 11.328,15.709 11.363,15.717   11.401,15.73 11.414,15.73 11.435,15.789 11.547,16.049 11.634,16.208 11.654,16.229 11.729,16.1 11.708,16.192 11.674,16.261   11.663,16.267 11.613,16.25 11.578,16.226 11.544,16.188 11.516,16.126 11.516,16.115 11.503,16.094 11.499,16.074 11.462,16.037   11.438,16.049 11.429,16.058 11.424,16.106 11.424,16.118 11.369,16.11 11.332,16.09 11.271,16.024 11.253,15.987 11.246,15.959   11.246,15.939 11.22,15.915 11.191,15.918 11.175,15.939 11.171,15.959 11.171,15.967 11.168,15.973 11.185,16.021 11.185,16.037   11.13,16.062 11.094,16.09 11.057,16.151 11.045,16.208 11.048,16.288 11.065,16.327 11.069,16.327 11.069,16.332 11.024,16.315   10.987,16.291 10.943,16.238 10.918,16.188 10.911,16.147 10.905,16.085 10.914,16.028 10.934,15.98 10.975,15.939 10.996,15.918   11.004,15.885 10.987,15.85 10.958,15.803 10.955,15.754 10.963,15.723 10.983,15.682 10.996,15.668 11.007,15.666 11.078,15.668   11.082,15.676 "
   id="polyline55"
   style="fill:#ffd200;fill-rule:evenodd"
   transform="translate(2.000211e-3,0)" />
<polyline
   clip-rule="evenodd"
   points="14.109,15.819 14.204,15.865 14.26,15.91 14.277,15.926   14.286,15.951 14.256,15.976 14.159,16.021 14.06,16.049 14.027,16.044 13.995,16.033 13.97,16.028 13.966,16.024 14.04,15.898   14.036,15.885 14.023,15.877 13.978,15.894 13.888,16.008 13.828,16.065 13.753,16.115 13.736,16.118 13.863,15.865 13.913,15.771   14.006,15.789 14.109,15.819 "
   id="polyline57"
   style="fill:#ffd200;fill-rule:evenodd"
   transform="translate(2.000211e-3,0)" />
<polyline
   clip-rule="evenodd"
   points="11.863,15.947 11.847,15.983 11.813,16.028 11.74,16.085   11.724,16.116 11.724,16.065 11.736,16.037 11.74,16.013 11.756,15.956 11.756,15.935 11.781,15.926 11.793,15.915 11.831,15.935   11.863,15.947 "
   id="polyline59"
   style="fill:#ffd200;fill-rule:evenodd"
   transform="translate(2.000211e-3,0)" />
<polyline
   clip-rule="evenodd"
   points="12.313,16.151 12.419,16.185 12.624,16.233 12.84,16.274   13.049,16.294 13.515,16.302 13.769,16.288 13.765,16.335 13.746,16.425 13.736,16.434 13.459,16.445 13.189,16.434 13.021,16.417   12.881,16.396 12.723,16.364 12.505,16.302 12.324,16.241 12.121,16.167 12.104,16.126 12.104,16.103 12.121,16.085 12.162,16.094   12.313,16.151 "
   id="polyline61"
   style="fill:#ffd200;fill-rule:evenodd"
   transform="translate(2.000211e-3,0)" />
<polyline
   points="12.365,16.34 12.546,16.376 12.631,16.396 12.795,16.429 13.103,16.47 13.273,16.482   13.426,16.486 13.728,16.491 13.732,16.503 13.72,16.552 13.715,16.593 13.701,16.67 13.693,16.678 13.435,16.684 13.181,16.67   13.038,16.658 12.902,16.637 12.697,16.593 12.526,16.552 12.244,16.458 12.047,16.381 11.981,16.356 11.978,16.352 11.998,16.332   12.05,16.299 12.1,16.288 12.137,16.282 12.214,16.294 12.365,16.34 "
   id="polyline63"
   style="fill:#ffd200"
   transform="translate(2.000211e-3,0)" />
<polyline
   clip-rule="evenodd"
   points="14.666,16.384 14.687,16.405 14.707,16.409   14.722,16.409 14.728,16.405 14.73,16.409 14.736,16.417 14.728,16.475 14.695,16.494 14.605,16.527 14.554,16.535 14.531,16.535   14.568,16.429 14.621,16.327 14.625,16.308 14.633,16.308 14.666,16.384 "
   id="polyline65"
   style="fill:#ffd200;fill-rule:evenodd"
   transform="translate(2.000211e-3,0)" />
<polyline
   clip-rule="evenodd"
   points="14.093,16.454 14.006,16.557 14.011,16.582   14.036,16.598 14.043,16.605 14.043,16.614 13.999,16.634 13.966,16.637 13.91,16.65 13.806,16.658 13.802,16.654 13.859,16.589   13.949,16.463 13.958,16.463 13.966,16.483 13.982,16.5 14.015,16.494 14.088,16.438 14.097,16.438 14.093,16.454 "
   id="polyline67"
   style="fill:#ffd200;fill-rule:evenodd"
   transform="translate(2.000211e-3,0)" />
<path
   d="M 12.863,11.447 L 12.883,11.46 L 12.891,11.468 L 12.883,11.517 L 12.891,11.533 L 12.888,11.57 L 12.855,11.595 L 12.776,11.627 L 12.728,11.659 L 12.707,11.659 L 12.699,11.652 L 12.695,11.631 L 12.72,11.598 L 12.768,11.557 L 12.781,11.521 L 12.753,11.504 L 12.728,11.501 L 12.72,11.501 L 12.699,11.488 L 12.679,11.475 L 12.674,11.46 L 12.679,11.435 L 12.695,11.431 L 12.761,11.452 L 12.863,11.447 M 13.014,11.365 L 13.088,11.411 L 13.096,11.419 L 13.113,11.427 L 13.15,11.452 L 13.226,11.517 L 13.264,11.557 L 13.267,11.578 L 13.264,11.59 L 13.252,11.615 L 13.256,11.644 L 13.273,11.656 L 13.297,11.652 L 13.325,11.598 L 13.389,11.533 L 13.448,11.501 L 13.532,11.488 L 13.591,11.493 L 13.624,11.504 L 13.676,11.545 L 13.714,11.598 L 13.717,11.619 L 13.722,11.627 L 13.722,11.636 L 13.714,11.672 L 13.689,11.713 L 13.64,11.749 L 13.607,11.77 L 13.546,11.782 L 13.497,11.782 L 13.469,11.79 L 13.448,11.811 L 13.45,11.831 L 13.491,11.84 L 13.595,11.831 L 13.697,11.79 L 13.763,11.749 L 13.853,11.667 L 13.865,11.688 L 13.871,11.713 L 13.871,11.721 L 13.879,11.754 L 13.871,11.82 L 13.871,11.828 L 13.846,11.877 L 13.729,11.971 L 13.657,12.012 L 13.589,12.032 L 13.575,12.048 L 13.581,12.069 L 13.589,12.077 L 13.616,12.081 L 13.708,12.056 L 13.76,12.036 L 13.839,11.983 L 13.883,11.943 L 13.896,11.93 L 13.902,11.93 L 13.912,11.938 L 13.92,11.966 L 13.928,12.015 L 13.923,12.065 L 13.902,12.127 L 13.861,12.184 L 13.816,12.22 L 13.738,12.27 L 13.703,12.286 L 13.596,12.319 L 13.584,12.331 L 13.592,12.352 L 13.621,12.363 L 13.695,12.36 L 13.728,12.352 L 13.804,12.319 L 13.902,12.245 L 13.923,12.224 L 13.932,12.224 L 13.944,12.249 L 13.957,12.29 L 13.948,12.393 L 13.921,12.454 L 13.88,12.506 L 13.806,12.559 L 13.743,12.588 L 13.698,12.6 L 13.614,12.608 L 13.548,12.613 L 13.54,12.625 L 13.544,12.654 L 13.565,12.666 L 13.622,12.679 L 13.698,12.674 L 13.79,12.649 L 13.899,12.588 L 13.913,12.577 L 13.921,12.577 L 13.924,12.598 L 13.924,12.618 L 13.929,12.63 L 13.916,12.704 L 13.88,12.782 L 13.834,12.831 L 13.79,12.867 L 13.716,12.9 L 13.581,12.921 L 13.458,12.916 L 13.433,12.916 L 13.425,12.913 L 13.402,12.916 L 13.392,12.929 L 13.398,12.949 L 13.414,12.966 L 13.472,12.982 L 13.557,12.987 L 13.651,12.977 L 13.669,12.977 L 13.767,12.957 L 13.808,12.941 L 13.816,12.946 L 13.793,13.018 L 13.752,13.076 L 13.693,13.117 L 13.632,13.146 L 13.562,13.162 L 13.408,13.171 L 13.309,13.162 L 13.271,13.141 L 13.26,13.141 L 13.243,13.158 L 13.26,13.191 L 13.281,13.202 L 13.412,13.227 L 13.51,13.232 L 13.612,13.215 L 13.641,13.202 L 13.661,13.207 L 13.903,13.46 L 14.125,13.678 L 14.346,13.874 L 14.477,13.972 L 14.576,13.976 L 14.662,13.959 L 14.715,13.939 L 14.76,13.907 L 14.821,13.829 L 14.862,13.734 L 14.88,13.682 L 14.896,13.616 L 14.883,13.5 L 14.861,13.403 L 14.828,13.321 L 14.771,13.214 L 14.676,13.083 L 14.679,13.055 L 14.781,12.932 L 14.802,12.936 L 14.861,12.994 L 15.004,13.206 L 15.081,13.378 L 15.105,13.447 L 15.163,13.464 L 15.184,13.459 L 15.2,13.459 L 15.254,13.464 L 15.364,13.452 L 15.467,13.415 L 15.476,13.426 L 15.467,13.525 L 15.394,13.635 L 15.345,13.681 L 15.263,13.709 L 15.168,13.717 L 15.123,13.713 L 15.106,13.73 L 15.102,13.75 L 15.106,13.766 L 15.127,13.779 L 15.229,13.795 L 15.306,13.787 L 15.457,13.738 L 15.495,13.722 L 15.515,13.722 L 15.502,13.774 L 15.448,13.876 L 15.399,13.934 L 15.337,13.979 L 15.255,14.008 L 15.141,14.029 L 15.108,14.032 L 15.046,14.024 L 15.01,14.003 L 15.002,14.003 L 14.895,14.126 L 14.819,14.183 L 14.781,14.2 L 14.672,14.233 L 14.608,14.241 L 14.538,14.229 L 14.489,14.204 L 14.46,14.183 L 14.448,14.188 L 14.477,14.241 L 14.516,14.282 L 14.571,14.384 L 14.583,14.441 L 14.588,14.609 L 14.588,14.642 L 14.575,14.74 L 14.588,14.789 L 14.624,14.838 L 14.659,14.87 L 14.718,14.899 L 14.823,14.924 L 14.901,14.957 L 14.95,14.993 L 14.983,15.042 L 14.987,15.072 L 14.971,15.198 L 14.959,15.235 L 14.966,15.267 L 14.983,15.28 L 15.024,15.284 L 15.128,15.353 L 15.23,15.46 L 15.279,15.55 L 15.295,15.607 L 15.305,15.673 L 15.295,15.73 L 15.3,15.738 L 15.283,15.803 L 15.266,15.857 L 15.246,15.898 L 15.205,15.808 L 15.168,15.75 L 15.095,15.673 L 15.07,15.665 L 15.047,15.665 L 15.026,15.681 L 15.026,15.693 L 15.116,15.791 L 15.161,15.86 L 15.19,15.942 L 15.195,16 L 15.191,16.082 L 15.183,16.118 L 15.17,16.164 L 15.138,16.225 L 15.113,16.241 L 15.089,16.184 L 15.04,16.126 L 14.937,16.049 L 14.929,16.049 L 14.894,16.024 L 14.88,16.02 L 14.86,16.041 L 14.852,16.074 L 14.852,16.082 L 14.981,16.22 L 14.989,16.238 L 14.981,16.282 L 14.928,16.372 L 14.826,16.552 L 14.81,16.581 L 14.791,16.601 L 14.788,16.548 L 14.791,16.519 L 14.8,16.409 L 14.81,16.392 L 14.83,16.384 L 14.875,16.381 L 14.887,16.368 L 14.893,16.343 L 14.862,16.315 L 14.811,16.319 L 14.792,16.327 L 14.723,16.335 L 14.707,16.307 L 14.662,16.126 L 14.65,16.118 L 14.609,16.131 L 14.58,16.164 L 14.527,16.327 L 14.464,16.442 L 14.431,16.519 L 14.424,16.527 L 14.42,16.548 L 14.408,16.56 L 14.402,16.56 L 14.308,16.474 L 14.262,16.458 L 14.249,16.458 L 14.237,16.47 L 14.237,16.483 L 14.246,16.507 L 14.278,16.532 L 14.311,16.568 L 14.36,16.678 L 14.372,16.711 L 14.392,16.765 L 14.402,16.793 L 14.389,16.793 L 14.208,16.658 L 14.106,16.568 L 14.102,16.56 L 14.102,16.544 L 14.257,16.351 L 14.391,16.167 L 14.391,16.159 L 14.376,16.143 L 14.343,16.147 L 14.204,16.307 L 14.163,16.351 L 14.089,16.368 L 14.016,16.405 L 14.003,16.392 L 13.982,16.299 L 13.978,16.269 L 13.978,16.261 L 13.945,16.238 L 13.937,16.238 L 13.917,16.241 L 13.909,16.261 L 13.903,16.294 L 13.909,16.307 L 13.902,16.36 L 13.894,16.376 L 13.886,16.425 L 13.829,16.483 L 13.791,16.524 L 13.804,16.445 L 13.816,16.384 L 13.82,16.351 L 13.845,16.22 L 13.853,16.197 L 13.865,16.184 L 13.947,16.159 L 14.079,16.123 L 14.283,16.061 L 14.353,16.024 L 14.411,15.967 L 14.464,15.857 L 14.496,15.762 L 14.529,15.635 L 14.549,15.505 L 14.541,15.456 L 14.513,15.394 L 14.418,15.305 L 14.324,15.264 L 14.209,15.215 L 14.173,15.203 L 14.12,15.157 L 14.103,15.162 L 14.095,15.174 L 14.099,15.313 L 14.086,15.387 L 14.062,15.451 L 14.021,15.509 L 13.951,15.57 L 13.887,15.607 L 13.846,15.615 L 13.729,15.607 L 13.792,15.525 L 13.809,15.489 L 13.813,15.451 L 13.809,15.443 L 13.813,15.435 L 13.805,15.374 L 13.784,15.313 L 13.772,15.256 L 13.743,15.157 L 13.704,14.998 L 13.69,14.919 L 13.677,14.834 L 13.674,14.732 L 13.682,14.663 L 13.682,14.646 L 13.696,14.609 L 13.698,14.581 L 13.729,14.51 L 13.764,14.433 L 13.792,14.339 L 13.809,14.265 L 13.805,14.172 L 13.772,14.049 L 13.756,14.003 L 13.735,13.958 L 13.712,13.93 L 13.678,13.889 L 13.634,13.853 L 13.585,13.828 L 13.565,13.832 L 13.551,13.845 L 13.555,13.868 L 13.666,13.983 L 13.689,14.032 L 13.707,14.085 L 13.707,14.106 L 13.687,14.101 L 13.624,14.065 L 13.374,13.947 L 13.219,13.881 L 12.998,13.799 L 12.949,13.783 L 12.998,13.709 L 13.022,13.62 L 13.031,13.525 L 13.027,13.406 L 13.002,13.333 L 12.991,13.324 L 12.971,13.329 L 12.954,13.341 L 12.946,13.374 L 12.95,13.382 L 12.95,13.508 L 12.938,13.615 L 12.917,13.672 L 12.889,13.73 L 12.852,13.779 L 12.79,13.824 L 12.741,13.845 L 12.688,13.853 L 12.586,13.865 L 12.572,13.865 L 12.622,13.717 L 12.642,13.579 L 12.633,13.508 L 12.617,13.476 L 12.609,13.467 L 12.585,13.472 L 12.565,13.5 L 12.552,13.549 L 12.537,13.684 L 12.524,13.73 L 12.508,13.791 L 12.467,13.845 L 12.43,13.881 L 12.353,13.93 L 12.271,13.958 L 12.209,13.958 L 12.271,13.853 L 12.304,13.787 L 12.316,13.738 L 12.324,13.692 L 12.316,13.643 L 12.291,13.623 L 12.266,13.628 L 12.246,13.643 L 12.214,13.763 L 12.16,13.868 L 12.095,13.926 L 12.033,13.963 L 11.968,13.988 L 11.857,13.996 L 11.784,13.983 L 11.895,13.868 L 11.91,13.845 L 11.91,13.819 L 11.895,13.799 L 11.874,13.795 L 11.861,13.799 L 11.854,13.799 L 11.813,13.832 L 11.739,13.876 L 11.608,13.942 L 11.596,13.963 L 11.6,13.971 L 11.621,14.126 L 11.588,14.147 L 11.444,14.188 L 11.317,14.213 L 11.284,14.213 L 11.363,14.134 L 11.404,14.078 L 11.448,14.093 L 11.518,14.114 L 11.53,14.106 L 11.542,14.093 L 11.542,14.065 L 11.526,14.045 L 11.477,14.029 L 11.448,14.016 L 11.416,14.008 L 11.406,14 L 11.411,13.959 L 11.443,13.877 L 11.447,13.857 L 11.443,13.846 L 11.423,13.829 L 11.395,13.833 L 11.357,13.857 L 11.21,14 L 11.129,14.061 L 11.116,14.017 L 11.112,13.959 L 11.103,13.939 L 11.079,13.915 L 11.058,13.915 L 11.03,13.943 L 11.088,14.283 L 11.055,14.245 L 10.924,14.058 L 10.83,13.927 L 10.83,13.915 L 11.002,13.835 L 11.268,13.709 L 11.276,13.697 L 11.273,13.672 L 11.243,13.651 L 11.084,13.717 L 11.039,13.738 L 10.933,13.742 L 10.834,13.758 L 10.831,13.746 L 10.843,13.692 L 10.859,13.64 L 10.864,13.595 L 10.864,13.58 L 10.834,13.555 L 10.818,13.555 L 10.793,13.58 L 10.785,13.603 L 10.773,13.706 L 10.752,13.726 L 10.703,13.751 L 10.65,13.767 L 10.568,13.796 L 10.728,13.547 L 10.732,13.534 L 10.757,13.506 L 10.782,13.465 L 10.826,13.473 L 10.908,13.501 L 10.949,13.514 L 11.051,13.526 L 11.199,13.53 L 11.317,13.514 L 11.412,13.489 L 11.58,13.411 L 12.57,12.921 L 12.655,12.905 L 12.675,12.884 L 12.675,12.855 L 12.655,12.839 L 12.614,12.834 L 12.573,12.843 L 12.471,12.892 L 12.307,12.969 L 12.275,12.99 L 12.246,12.998 L 12.225,13.01 L 12.238,12.941 L 12.286,12.834 L 12.279,12.819 L 12.25,12.806 L 12.222,12.802 L 12.238,12.778 L 12.357,12.675 L 12.434,12.626 L 12.57,12.568 L 12.647,12.548 L 12.667,12.548 L 12.696,12.54 L 12.757,12.537 L 12.777,12.54 L 12.79,12.537 L 12.897,12.548 L 12.987,12.573 L 13.032,12.589 L 13.04,12.593 L 13.081,12.593 L 13.105,12.568 L 13.101,12.519 L 13.075,12.499 L 13.047,12.507 L 13.035,12.512 L 12.993,12.504 L 12.924,12.483 L 12.786,12.463 L 12.761,12.458 L 12.732,12.438 L 12.705,12.4 L 12.705,12.363 L 12.741,12.331 L 12.754,12.319 L 12.713,12.237 L 12.708,12.212 L 12.708,12.191 L 12.774,12.22 L 12.811,12.253 L 12.892,12.319 L 12.905,12.322 L 12.917,12.334 L 12.991,12.372 L 13.122,12.396 L 13.158,12.396 L 13.166,12.4 L 13.273,12.388 L 13.301,12.375 L 13.329,12.342 L 13.358,12.273 L 13.362,12.229 L 13.354,12.176 L 13.333,12.118 L 13.292,12.045 L 13.183,11.918 L 13.124,11.872 L 13.063,11.852 L 12.986,11.844 L 12.924,11.861 L 12.867,11.897 L 12.797,11.963 L 12.765,12.02 L 12.765,12.036 L 12.756,12.045 L 12.748,12.086 L 12.753,12.097 L 12.756,12.118 L 12.756,12.138 L 12.728,12.13 L 12.687,12.089 L 12.646,12.028 L 12.638,11.991 L 12.602,11.955 L 12.582,11.911 L 12.573,11.87 L 12.614,11.791 L 12.639,11.726 L 12.631,11.719 L 12.602,11.729 L 12.544,11.787 L 12.529,11.803 L 12.521,11.803 L 12.5,11.77 L 12.504,11.725 L 12.602,11.565 L 12.651,11.488 L 12.667,11.443 L 12.766,11.299 L 12.807,11.247 L 12.9,11.296 L 13.014,11.365 z M 12.729,11.955 L 12.725,11.975 L 12.708,11.988 L 12.675,11.992 L 12.655,11.996 L 12.647,11.988 L 12.655,11.959 L 12.672,11.947 L 12.725,11.952 L 12.729,11.955 z "
   style="fill:#ffd200;fill-rule:evenodd"
   id="path69" />
<rect
   width="26.059999"
   height="8.8780003"
   x="0.15499996"
   y="25.348"
   style="fill:#ffd200"
   id="rect71" />
<rect
   width="26.059999"
   height="8.8780003"
   x="0.15499996"
   y="25.348"
   style="fill:none;stroke:#ffd200;stroke-width:0.096;stroke-miterlimit:3.86400008"
   id="rect73" />
<path
   d="M 26.126,33.881 L 0.15500001,33.881 M 0.15500001,33.479 L 26.036,33.479 M 0.066000011,26.094 L 26.036,26.094 M 0.15500001,25.635 L 26.036,25.692"
   style="fill:none;stroke:#737477;stroke-width:0.096;stroke-miterlimit:3.86400008;stroke-dasharray:2.523, 2.523"
   id="path75" />
<path
   d="M 0.11900001,33.881 L 0.79499998,33.407 L 1.435,33.862 L 2.245,33.451 L 2.862,33.84 L 3.474,33.451 L 4.035,33.901 L 4.625,33.451 L 5.209,33.862 L 6.048,33.451 L 6.609,33.885 L 7.306,33.451 L 8.009,33.885 L 8.927,33.43 L 9.488,33.885 L 10.106,33.451 L 10.831,33.901 L 11.336,33.473 L 11.976,33.839 L 12.481,33.473 L 13.206,33.884 L 13.625,33.473 L 14.464,33.862 L 15.303,33.473 L 16,33.862 L 16.731,33.451 L 17.287,33.885 L 18.047,33.474 L 18.603,33.885 L 18.964,33.474 L 19.753,33.863 L 20.278,33.452 L 21.09,33.863 L 21.765,33.517 L 22.376,33.863 L 22.739,33.497 L 23.748,33.863 L 24.253,33.452 L 24.757,33.886 L 25.12,33.518 L 25.483,33.864 L 25.987,33.518 L 26.235,33.864 M 0.21000001,26.074 L 0.74199998,25.621 L 1.383,26.076 L 2.193,25.664 L 2.811,26.055 L 3.423,25.664 L 3.984,26.115 L 4.574,25.664 L 5.157,26.076 L 5.996,25.664 L 6.558,26.099 L 7.255,25.664 L 7.958,26.099 L 8.875,25.643 L 9.437,26.099 L 10.055,25.664 L 10.78,26.115 L 11.285,25.686 L 11.925,26.054 L 12.429,25.686 L 13.155,26.098 L 13.575,25.686 L 14.414,26.076 L 15.253,25.686 L 15.95,26.076 L 16.681,25.664 L 17.235,26.099 L 17.996,25.687 L 18.551,26.099 L 18.914,25.687 L 19.702,26.077 L 20.229,25.665 L 21.039,26.077 L 21.714,25.731 L 22.325,26.077 L 22.688,25.71 L 23.698,26.077 L 24.202,25.665 L 24.707,26.1 L 25.069,25.732 L 25.432,26.078 L 25.936,25.732 L 26.186,26.078 M 21.54,28.051 C 21.54,28.051 24.054,28.08 26.213,29.7 M 26.212,30.313 C 26.212,30.313 24.237,28.238 20.61,28.445 M 17.318,30.775 C 17.318,30.775 15.49,30.576 14.83,31.061 M 2.318,29.819 C 2.318,29.819 1.561,29.095 1.023,29.444 M 8.936,29.1 C 8.936,29.1 8.714,29.14 8.357,29.094 C 8,29.047 6.703,29.067 6.644,28.906 M 8.375,27.82 L 7.826,27.738 L 7.777,27.627 L 7.856,27.451 L 8.082,27.418 L 8.32,27.405 L 8.179,27.368 L 8.108,27.176 L 8.203,27.105 L 8.64,27.01 L 9.065,27.16 L 9.202,27.346 L 9.269,27.486 L 9.081,27.6 L 8.831,27.615 L 8.998,27.805 L 8.919,27.98 L 8.767,28.037 L 8.579,28.035 L 8.417,27.969 L 8.375,27.82 z M 3.82,28.402 C 3.82,28.402 7.664,28.287 8.133,27.828 M 0.12400001,30.113 C 0.12400001,30.113 2.956,26.785 9.772,30.701 C 9.772,30.701 13.654,32.504 16.768,30.012 C 18.618,28.532 20.192,28.44 20.612,28.445 C 20.686,28.446 20.723,28.45 20.723,28.45 C 20.723,28.45 20.008,29.081 20.723,28.45 M 0.038000011,29.643 C 0.038000011,29.643 2.925,26.434 9.742,30.35 C 9.742,30.35 13.47,32.229 16.583,29.737 C 18.751,28.003 20.539,28.174 20.539,28.174 C 20.539,28.174 21.902,28.196 22.617,27.566 C 23.332,26.934 22.617,27.566 22.617,27.566 L 22.769,27.288 L 22.228,27.356 C 22.072,27.349 21.963,27.28 21.9,27.15 L 22.137,26.987 L 22.708,26.894 L 22.737,26.78 C 22.737,26.78 22.444,26.814 22.466,26.708 C 22.36,26.679 22.594,26.525 22.594,26.525 L 22.829,26.437 C 22.891,26.379 23.168,26.484 23.168,26.484 L 23.283,26.587 C 23.283,26.587 23.429,26.794 23.406,26.856 C 23.39,26.909 23.127,26.873 23.127,26.873 L 23.246,26.988 L 23.424,27.243 L 23.305,27.43 L 23.005,27.405 L 22.768,27.29"
   style="fill:none;stroke:#737477;stroke-width:0.096;stroke-miterlimit:3.86400008;stroke-dasharray:1.261, 1.261"
   id="path77" />
<path
   d="M 8.912,29.168 C 8.912,29.168 9.703,27.281 11.852,28.297 C 11.852,28.297 12.387,27.301 14.019,28.012 C 14.019,28.012 14.775,27.34 15.844,27.963 L 15.842,28.03 C 15.842,28.03 16.853,27.338 17.573,27.97 C 17.12,28.712 16.069,28.533 16.069,28.533 L 15.995,28.581 C 15.227,29.429 14.084,28.98 14.084,28.98 C 12.816,30.047 11.969,29.225 11.969,29.225 C 10.331,30.704 8.927,29.057 8.927,29.057 C 8.927,29.057 15.63,28.588 17.49,28.002"
   style="fill:none;stroke:#737477;stroke-width:0.087;stroke-miterlimit:3.86400008;stroke-dasharray:1.261, 1.261"
   id="path79" />
<path
   d="M 2.198,29.879 C 2.198,29.879 4.381,28.461 5.631,30.397 C 5.631,30.397 6.896,29.701 7.891,31.115 C 7.891,31.115 9.115,30.825 9.649,31.898 L 9.596,31.961 C 9.596,31.961 11.075,31.768 11.271,32.693 C 10.279,33.185 9.425,32.539 9.425,32.539 L 9.319,32.551 C 7.95,33 7.214,32.057 7.214,32.057 C 5.206,32.486 5.034,31.326 5.034,31.326 C 2.364,31.975 2.296,29.784 2.296,29.784 C 2.296,29.784 8.969,32.391 11.169,32.685"
   style="fill:none;stroke:#737477;stroke-width:0.096;stroke-miterlimit:3.86400008;stroke-dasharray:1.261, 1.261"
   id="path81" />
<path
   d="M 17.214,30.834 C 17.214,30.834 18.896,29.338 20.36,30.92 C 20.36,30.92 21.356,30.164 22.5,31.314 C 22.5,31.314 23.535,30.922 24.205,31.818 L 24.169,31.881 C 24.169,31.881 25.448,31.547 25.792,32.349 C 25,32.896 24.123,32.414 24.123,32.414 L 24.03,32.435 C 22.895,32.983 22.069,32.225 22.069,32.225 C 20.362,32.825 19.999,31.812 19.999,31.812 C 17.743,32.678 17.284,30.739 17.284,30.739 C 17.284,30.739 23.69,32.331 25.698,32.353"
   style="fill:none;stroke:#737477;stroke-width:0.087;stroke-miterlimit:3.86400008;stroke-dasharray:1.261, 1.261"
   id="path83" />
</svg>