<?xml version="1.0" encoding="UTF-8" standalone="no"?>
<!-- Created with Inkscape (http://www.inkscape.org/) -->
<svg
   xmlns:svg="http://www.w3.org/2000/svg"
   xmlns="http://www.w3.org/2000/svg"
   version="1.0"
   width="566.4552"
   height="800.34003"
   viewBox="0 0 27.12 38.336"
   id="Layer_1"
   xml:space="preserve"><defs
   id="defs82" />
<rect
   width="26.933001"
   height="38.265999"
   x="0.15849961"
   y="0.035"
   id="rect3" />
<rect
   width="26.933001"
   height="38.265999"
   x="0.15849961"
   y="0.035"
   style="fill:none;stroke:black;stroke-width:0.07;stroke-miterlimit:3.86400008"
   id="rect5" />
<polyline
   clip-rule="evenodd"
   points="13.069,16.129 13.069,16.138 13.049,16.154   13.036,16.167 13.036,16.174 13.033,16.179 13.049,16.204 13.062,16.208 13.098,16.2 13.126,16.208 13.146,16.231 13.159,16.285   13.143,16.318 13.11,16.352 13.077,16.367 13.049,16.372 13.003,16.346 12.992,16.352 12.971,16.372 12.975,16.384 13.041,16.428   13.159,16.506 13.253,16.563 13.274,16.56 13.29,16.539 13.286,16.519 13.253,16.494 13.229,16.486 13.196,16.461 13.184,16.437   13.188,16.393 13.212,16.338 13.241,16.313 13.307,16.318 13.307,16.322 13.322,16.331 13.343,16.372 13.348,16.393 13.368,16.413   13.384,16.413 13.404,16.387 13.396,16.359 13.401,16.354 13.396,16.343 13.401,16.313 13.425,16.29 13.445,16.285 13.453,16.285   13.458,16.281 13.503,16.29 13.539,16.302 13.564,16.322 13.58,16.343 13.585,16.4 13.58,16.428 13.535,16.465 13.515,16.475   13.503,16.502 13.511,16.519 13.532,16.53 13.58,16.522 13.605,16.51 13.642,16.515 13.662,16.53 13.683,16.555 13.688,16.58   13.683,16.584 13.688,16.588 13.67,16.632 13.65,16.653 13.629,16.666 13.609,16.673 13.605,16.67 13.572,16.673 13.556,16.673   13.552,16.67 13.547,16.673 13.503,16.646 13.483,16.637 13.458,16.641 13.445,16.65 13.438,16.657 13.445,16.678 13.49,16.711   13.58,16.769 13.642,16.809 13.695,16.845 13.736,16.854 13.757,16.851 13.765,16.837 13.76,16.816 13.724,16.772 13.716,16.728   13.724,16.694 13.729,16.682 13.736,16.657 13.765,16.632 13.814,16.621 13.862,16.621 13.879,16.646 13.871,16.687 13.867,16.69   13.871,16.707 13.883,16.714 13.903,16.714 13.937,16.682 13.957,16.662 13.994,16.65 14.038,16.653 14.051,16.666 13.871,16.837   13.757,16.939 13.748,16.939 13.729,16.903 13.646,16.821 13.601,16.801 13.499,16.784 13.38,16.711 13.106,16.539 12.889,16.404   12.877,16.407 12.872,16.407 12.869,16.404 12.88,16.363 12.913,16.285 13.021,16.047 13.033,16.024 13.062,16.077 13.069,16.129   "
   id="polyline7"
   style="fill:#ffd200;fill-rule:evenodd"
   transform="translate(6.499792e-3,0)" />
<polyline
   points="11.875,16.519 11.854,16.56 11.837,16.612 11.829,16.65 11.826,16.653 11.826,16.662   11.821,16.731 11.817,16.772 11.826,16.871 11.862,16.998 11.908,17.066 11.993,17.145 12.005,17.152 12.001,17.182 11.989,17.202   11.919,17.361 11.916,17.365 11.739,17.227 11.735,17.218 11.744,17.172 11.76,17.124 11.768,17.029 11.768,16.968 11.739,16.83   11.703,16.723 11.646,16.612 11.612,16.571 11.601,16.563 11.596,16.56 11.591,16.555 11.596,16.53 11.683,16.343 11.87,16.506   11.875,16.519 "
   id="polyline9"
   style="fill:#ffd200"
   transform="translate(6.499792e-3,0)" />
<polyline
   clip-rule="evenodd"
   points="14.333,16.416 14.386,16.433 14.522,16.486   14.534,16.498 14.493,16.539 14.325,16.666 14.137,16.694 14.125,16.678 14.133,16.662 14.128,16.637 14.079,16.604 14.038,16.596   13.957,16.601 13.953,16.604 13.933,16.601 13.903,16.576 13.854,16.56 13.77,16.563 13.765,16.568 13.748,16.568 13.732,16.53   13.695,16.478 13.695,16.475 13.703,16.465 13.961,16.433 14.251,16.393 14.301,16.4 14.333,16.416 "
   id="polyline11"
   style="fill:#ffd200;fill-rule:evenodd"
   transform="translate(6.499792e-3,0)" />
<polyline
   points="12.918,16.478 12.951,16.498 13.13,16.612 13.159,16.632 13.196,16.653 13.401,16.784   13.409,16.793 13.409,16.801 13.38,16.813 13.351,16.821 13.327,16.837 13.322,16.842 13.294,16.834 13.036,16.673 12.816,16.539   12.803,16.527 12.84,16.465 12.856,16.445 12.893,16.461 12.918,16.478 "
   id="polyline13"
   style="fill:#ffd200"
   transform="translate(6.499792e-3,0)" />
<polyline
   clip-rule="evenodd"
   points="12.688,16.592 12.583,16.755 12.57,16.763 12.512,16.752   12.226,16.776 11.896,16.804 11.891,16.793 11.891,16.78 11.887,16.776 11.891,16.772 11.887,16.702 11.896,16.687 11.911,16.673   12.194,16.641 12.655,16.584 12.681,16.584 12.688,16.592 "
   id="polyline15"
   style="fill:#ffd200;fill-rule:evenodd"
   transform="translate(6.499792e-3,0)" />
<polyline
   clip-rule="evenodd"
   points="11.384,16.694 11.481,16.702 11.571,16.698   11.596,16.711 11.612,16.731 11.642,16.801 11.662,16.842 11.678,16.896 11.694,16.992 11.69,17.108 11.653,17.23 11.653,17.263   11.711,17.354 11.768,17.442 11.785,17.476 11.785,17.488 11.428,17.57 11.27,17.606 11.261,17.606 11.253,17.599 11.261,17.512   11.27,17.504 11.294,17.509 11.322,17.504 11.338,17.484 11.338,17.471 11.31,17.45 11.253,17.436 11.208,17.397 11.159,17.325   11.126,17.233 11.121,17.206 11.126,17.193 11.229,17.182 11.294,17.186 11.433,17.152 11.448,17.145 11.486,17.152 11.506,17.131   11.51,17.034 11.514,17.029 11.51,17.025 11.52,16.992 11.522,16.957 11.543,16.886 11.543,16.871 11.53,16.857 11.453,16.845   11.396,16.821 11.346,16.78 11.302,16.714 11.294,16.687 11.298,16.673 11.326,16.678 11.384,16.694 "
   id="polyline17"
   style="fill:#ffd200;fill-rule:evenodd"
   transform="translate(6.499792e-3,0)" />
<polyline
   clip-rule="evenodd"
   points="14.902,16.714 15.004,16.755 15.045,16.776   15.086,16.804 15.171,16.871 15.291,16.992 15.344,17.063 15.376,17.136 15.406,17.218 15.413,17.263 15.421,17.313 15.426,17.356   15.413,17.471 15.388,17.573 15.335,17.708 15.253,17.836 15.25,17.836 15.242,17.853 15.151,17.941 15.058,18.016 14.943,18.102   14.828,18.174 14.713,18.246 14.628,18.322 14.567,18.399 14.509,18.494 14.476,18.563 14.427,18.707 14.403,18.813 14.399,18.871   14.407,18.957 14.424,19.014 14.432,19.039 14.391,19.033 14.317,18.961 14.247,18.846 14.228,18.793 14.215,18.69 14.228,18.584   14.251,18.535 14.276,18.512 14.276,18.502 14.268,18.494 14.251,18.498 14.169,18.575 14.137,18.633 14.112,18.69 14.1,18.777   14.104,18.842 14.125,18.932 14.125,18.937 14.096,18.928 14.035,18.866 13.994,18.789 13.982,18.736 13.978,18.707 13.982,18.703   13.978,18.67 13.978,18.654 13.982,18.649 13.978,18.646 13.985,18.594 14.01,18.526 14.046,18.465 14.104,18.42 14.096,18.409   14.071,18.412 14.043,18.43 14.031,18.43 13.937,18.515 13.887,18.594 13.875,18.625 13.862,18.588 13.867,18.474 13.879,18.42   13.9,18.358 13.933,18.311 13.997,18.248 14.067,18.205 14.153,18.171 14.26,18.138 14.424,18.109 14.485,18.093 14.509,18.089   14.599,18.062 14.795,17.962 14.947,17.86 15.053,17.771 15.16,17.647 15.217,17.549 15.25,17.476 15.266,17.406 15.274,17.32   15.278,17.288 15.262,17.197 15.237,17.148 15.171,17.07 15.184,17.013 15.184,16.998 15.168,16.985 15.151,16.988 15.14,17.005   15.135,17.042 15.107,17.124 15.09,17.193 15.082,17.202 15.062,17.193 15.021,17.136 14.988,17.07 14.955,16.973 14.976,16.898   14.979,16.886 14.979,16.871 14.967,16.862 14.947,16.865 14.935,16.878 14.922,16.916 14.861,16.988 14.854,17.013 14.857,17.019   14.854,17.034 14.857,17.063 14.854,17.066 14.873,17.156 14.877,17.169 14.877,17.186 14.865,17.189 14.816,17.182 14.742,17.131   14.685,17.074 14.628,16.985 14.616,16.891 14.611,16.842 14.588,16.837 14.563,16.842 14.554,16.854 14.542,16.939 14.55,16.988   14.591,17.066 14.64,17.142 14.657,17.172 14.681,17.209 14.636,17.223 14.583,17.223 14.578,17.218 14.575,17.223 14.517,17.209   14.455,17.189 14.407,17.156 14.354,17.115 14.317,17.07 14.304,17.034 14.292,17.034 14.247,17.087 14.215,17.177 14.206,17.227   14.21,17.23 14.206,17.263 14.206,17.274 14.202,17.279 14.206,17.284 14.202,17.386 14.206,17.39 14.202,17.395 14.215,17.518   14.223,17.532 14.228,17.565 14.26,17.664 14.272,17.693 14.329,17.782 14.415,17.909 14.505,18.016 14.522,18.031 14.522,18.037   14.488,18.048 14.374,18.072 14.337,18.082 14.321,18.082 14.235,17.967 14.149,17.815 14.104,17.708 14.071,17.614 14.059,17.565   14.035,17.447 14.022,17.356 14.026,17.247 14.043,17.186 14.059,17.131 14.137,17.001 14.169,16.957 14.268,16.851 14.383,16.755   14.473,16.719 14.64,16.687 14.681,16.682 14.783,16.69 14.902,16.714 "
   id="polyline19"
   style="fill:#ffd200;fill-rule:evenodd"
   transform="translate(6.499792e-3,0)" />
<polyline
   points="11.289,16.834 11.363,16.891 11.428,16.916 11.448,16.919 11.453,16.932 11.441,17.066   11.445,17.09 11.433,17.095 11.379,17.09 11.306,17.104 11.24,17.108 11.134,17.111 11.11,17.108 11.085,17.09 11.072,17.039   11.052,16.985 11.031,16.883 11.023,16.816 11.052,16.801 11.175,16.752 11.216,16.739 11.232,16.748 11.289,16.834 "
   id="polyline21"
   style="fill:#ffd200"
   transform="translate(6.499792e-3,0)" />
<polyline
   clip-rule="evenodd"
   points="12.545,16.796 12.542,16.821 12.517,16.875   12.484,16.919 11.952,16.998 11.928,16.964 11.908,16.912 11.908,16.891 11.919,16.883 12.492,16.801 12.537,16.793 12.542,16.796   12.545,16.796 "
   id="polyline23"
   style="fill:#ffd200;fill-rule:evenodd"
   transform="translate(6.499792e-3,0)" />
<polyline
   points="10.934,16.875 10.954,16.896 10.962,16.906 10.97,16.957 10.995,17.034 11.011,17.074   10.99,17.131 10.962,17.172 10.835,17.1 10.737,17.039 10.773,16.96 10.814,16.891 10.839,16.845 10.872,16.851 10.934,16.875 "
   id="polyline25"
   style="fill:#ffd200"
   transform="translate(6.499792e-3,0)" />
<polyline
   clip-rule="evenodd"
   points="12.197,17.263 12.251,17.377 12.313,17.43 12.349,17.447   12.443,17.463 12.525,17.463 12.57,17.529 12.586,17.57 12.525,17.573 12.427,17.57 12.341,17.553 12.263,17.521 12.23,17.5   12.177,17.456 12.124,17.397 12.12,17.313 12.12,17.304 12.124,17.299 12.12,17.295 12.136,17.233 12.157,17.193 12.169,17.182   12.185,17.197 12.197,17.263 "
   id="polyline27"
   style="fill:#ffd200;fill-rule:evenodd"
   transform="translate(6.499792e-3,0)" />
<polyline
   clip-rule="evenodd"
   points="12.975,17.447 13.008,17.463 13.036,17.471 13.13,17.538   13.2,17.611 13.229,17.644 13.233,17.647 13.233,17.664 13.217,17.68 13.196,17.688 13.171,17.68 13.143,17.652 13.036,17.579   12.962,17.545 12.885,17.529 12.816,17.518 12.808,17.518 12.795,17.438 12.799,17.436 12.799,17.418 12.795,17.415 12.799,17.41   12.885,17.427 12.975,17.447 "
   id="polyline29"
   style="fill:#ffd200;fill-rule:evenodd"
   transform="translate(6.499792e-3,0)" />
<polyline
   points="11.796,17.635 11.796,17.647 11.747,17.696 11.731,17.705 11.728,17.708 11.715,17.696   11.69,17.611 11.687,17.59 11.687,17.579 11.706,17.565 11.728,17.562 11.752,17.562 11.796,17.635 "
   id="polyline31"
   style="fill:#ffd200"
   transform="translate(6.499792e-3,0)" />
<polyline
   points="11.666,17.708 11.67,17.737 11.646,17.762 11.543,17.795 11.481,17.807 11.408,17.803   11.379,17.791 11.359,17.771 11.363,17.647 11.392,17.631 11.601,17.586 11.625,17.586 11.666,17.708 "
   id="polyline33"
   style="fill:#ffd200"
   transform="translate(6.499792e-3,0)" />
<polyline
   clip-rule="evenodd"
   points="12.03,17.66 12.018,17.7 11.972,17.795 11.944,17.836   11.826,17.856 11.76,17.88 11.698,17.918 11.658,17.949 11.601,18.021 11.568,18.093 11.555,18.171 11.551,18.188 11.551,18.199   11.547,18.205 11.236,18.13 11.285,17.987 11.338,17.839 11.346,17.832 11.425,17.856 11.53,17.86 11.621,17.844 11.728,17.798   11.858,17.696 11.896,17.64 11.94,17.644 12.03,17.66 "
   id="polyline35"
   style="fill:#ffd200;fill-rule:evenodd"
   transform="translate(6.499792e-3,0)" />
<polyline
   points="12.169,17.856 12.313,17.926 12.32,17.938 12.243,17.996 12.218,18.021 12.194,18.016   12.133,17.975 12.021,17.893 12.018,17.888 12.018,17.877 12.063,17.807 12.104,17.827 12.169,17.856 "
   id="polyline37"
   style="fill:#ffd200"
   transform="translate(6.499792e-3,0)" />
<polyline
   clip-rule="evenodd"
   points="12.161,18.057 12.164,18.062 12.164,18.069   12.112,18.109 12.067,18.171 12.063,18.184 12.067,18.208 12.082,18.225 12.12,18.232 12.128,18.232 12.133,18.236 12.115,18.311   12.092,18.416 12.059,18.44 11.985,18.474 11.944,18.449 11.883,18.399 11.662,18.236 11.632,18.215 11.625,18.205 11.629,18.158   11.646,18.105 11.674,18.048 11.785,17.941 11.826,17.921 11.878,17.905 11.899,17.901 11.965,17.905 12.161,18.057 "
   id="polyline39"
   style="fill:#ffd200;fill-rule:evenodd"
   transform="translate(6.499792e-3,0)" />
<polyline
   clip-rule="evenodd"
   points="10.97,18.498 11.056,18.575 11.27,18.793 11.261,18.801   11.13,18.813 11.126,18.809 11.093,18.813 10.99,18.805 10.946,18.789 10.823,18.711 10.896,18.637 10.896,18.621 10.901,18.616   10.888,18.596 10.872,18.584 10.847,18.588 10.823,18.604 10.812,18.625 10.725,18.643 10.651,18.674 10.562,18.683 10.553,18.683   10.553,18.674 10.75,18.531 10.868,18.44 10.896,18.449 10.97,18.498 "
   id="polyline41"
   style="fill:#ffd200;fill-rule:evenodd"
   transform="translate(6.499792e-3,0)" />
<polyline
   clip-rule="evenodd"
   points="13.593,19.827 13.596,19.844 13.585,19.868 13.58,19.893   13.568,19.942 13.556,20.045 13.547,20.094 13.507,20.098 13.462,20.109 13.401,20.117 13.278,20.155 13.212,20.18 13.167,20.205   13.135,20.246 13.126,20.273 13.11,20.318 13.103,20.43 13.103,20.445 13.114,20.455 13.143,20.449 13.2,20.463 13.241,20.482   13.286,20.531 13.307,20.576 13.315,20.617 13.31,20.654 13.299,20.688 13.27,20.731 13.176,20.817 13.151,20.83 13.143,20.817   13.146,20.781 13.143,20.776 13.146,20.772 13.146,20.756 13.143,20.752 13.146,20.748 13.135,20.662 13.114,20.613 13.09,20.588   13.044,20.598 13.033,20.608 13.049,20.629 13.062,20.654 13.065,20.688 13.069,20.789 13.049,20.854 13.012,20.916 12.962,20.974   12.91,21.006 12.816,21.034 12.767,21.034 12.812,20.961 12.844,20.896 12.856,20.854 12.86,20.803 12.856,20.776 12.836,20.731   12.816,20.707 12.803,20.707 12.791,20.719 12.787,20.756 12.771,20.842 12.742,20.924 12.709,20.981 12.635,21.055 12.594,21.08   12.517,21.1 12.488,21.104 12.471,21.104 12.501,21.022 12.509,20.948 12.496,20.916 12.463,20.851 12.447,20.838 12.431,20.846   12.406,20.883 12.406,20.957 12.271,21.015 12.235,21.034 12.226,21.043 12.23,21.059 12.308,21.157 12.349,21.201 12.365,21.239   12.345,21.26 12.136,21.391 12.082,21.416 12.115,21.342 12.174,21.268 12.215,21.223 12.218,21.201 12.21,21.19 12.205,21.186   12.157,21.198 12.104,21.219 12.095,21.219 12.104,21.125 12.095,21.063 12.087,21.026 12.059,20.986 12.03,20.965 12.013,20.957   11.965,20.961 11.919,20.993 11.817,21.104 11.739,21.211 11.728,21.219 11.711,21.211 11.609,21.129 11.576,21.108 11.551,21.108   11.53,21.129 11.527,21.149 11.53,21.166 11.555,21.19 11.591,21.201 11.646,21.242 11.649,21.256 11.637,21.272 11.621,21.361   11.604,21.465 11.604,21.467 11.591,21.457 11.568,21.391 11.527,21.309 11.458,21.149 11.445,21.125 11.428,21.084 11.632,20.989   11.85,20.892 11.867,20.875 11.862,20.858 11.85,20.851 11.846,20.846 11.821,20.851 11.801,20.863 11.772,20.871 11.658,20.92   11.479,21.002 11.448,21.015 11.428,21.01 11.314,20.854 11.302,20.842 11.285,20.842 11.264,20.866 11.27,20.924 11.285,20.952   11.146,21.149 11.118,21.198 11.113,21.201 11.11,21.141 11.13,20.866 11.138,20.838 11.33,20.797 11.425,20.772 11.706,20.695   12.005,20.601 12.308,20.49 12.361,20.465 12.41,20.424 12.455,20.363 12.468,20.273 12.463,20.18 12.46,20.176 12.463,20.172   12.455,20.068 12.46,20.045 12.46,20.032 12.492,20.004 12.504,19.996 12.517,19.983 12.517,19.971 12.521,19.967 12.512,19.95   12.492,19.934 12.451,19.938 12.427,19.95 12.39,19.955 12.32,19.942 12.243,19.905 12.194,19.856 12.157,19.803 12.14,19.75   12.133,19.717 12.14,19.611 12.169,19.555 12.215,19.521 12.226,19.517 12.235,19.517 12.246,19.545 12.296,19.594 12.357,19.627   12.402,19.64 12.529,19.656 12.533,19.659 12.537,19.656 12.542,19.659 12.545,19.656 12.632,19.664 12.831,19.644 12.967,19.615   13.077,19.574 13.241,19.504 13.36,19.467 13.371,19.467 13.593,19.827 "
   id="polyline43"
   style="fill:#ffd200;fill-rule:evenodd"
   transform="translate(6.499792e-3,0)" />
<polyline
   clip-rule="evenodd"
   points="13.658,19.565 13.683,19.586 13.691,19.594   13.683,19.637 13.67,19.705 13.662,19.733 13.634,19.7 13.588,19.623 13.539,19.533 13.515,19.488 13.634,19.558 13.658,19.565 "
   id="polyline45"
   style="fill:#ffd200;fill-rule:evenodd"
   transform="translate(6.499792e-3,0)" />
<polyline
   clip-rule="evenodd"
   points="11.502,20.535 11.588,20.617 11.601,20.639   11.604,20.642 11.604,20.654 11.404,20.702 11.379,20.707 11.363,20.695 11.363,20.674 11.4,20.629 11.404,20.617 11.4,20.592   11.384,20.576 11.363,20.576 11.335,20.605 11.302,20.646 11.261,20.674 11.101,20.728 11.056,20.74 11.011,20.748 11.011,20.743   11.007,20.74 11.326,20.422 11.371,20.441 11.502,20.535 "
   id="polyline47"
   style="fill:#ffd200;fill-rule:evenodd"
   transform="translate(6.499792e-3,0)" />
<polyline
   clip-rule="evenodd"
   points="12.03,21.084 12.038,21.141 12.034,21.207 12.013,21.275   11.997,21.432 12.001,21.48 12.026,21.566 12.038,21.59 11.937,21.644 11.837,21.723 11.793,21.767 11.768,21.799 11.711,21.897   11.698,21.955 11.703,21.991 11.739,22.028 11.764,22.028 11.78,22.012 11.768,21.95 11.796,21.906 11.829,21.881 11.862,21.885   11.891,21.906 11.928,21.955 11.948,22.008 11.947,22.065 11.932,22.106 11.883,22.147 11.842,22.168 11.805,22.172 11.801,22.176   11.796,22.172 11.78,22.176 11.731,22.168 11.69,22.143 11.653,22.118 11.609,22.073 11.568,22 11.555,21.938 11.563,21.873   11.576,21.836 11.609,21.767 11.715,21.627 11.744,21.578 11.764,21.521 11.764,21.498 11.801,21.477 11.87,21.406 11.896,21.369   11.928,21.289 11.924,21.283 11.932,21.242 11.924,21.174 11.903,21.121 11.903,21.1 11.989,21.022 11.997,21.022 12.03,21.084 "
   id="polyline49"
   style="fill:#ffd200;fill-rule:evenodd"
   transform="translate(6.499792e-3,0)" />
<polyline
   clip-rule="evenodd"
   points="11.044,21.039 11.039,21.071 11.044,21.075   11.039,21.174 11.036,21.178 11.039,21.28 11.044,21.297 11.069,21.316 11.093,21.313 11.13,21.301 11.289,21.071 11.326,21.08   11.363,21.092 11.376,21.092 11.396,21.149 11.51,21.41 11.596,21.569 11.617,21.59 11.692,21.461 11.67,21.555 11.637,21.623   11.625,21.627 11.576,21.61 11.539,21.586 11.506,21.549 11.479,21.488 11.479,21.477 11.466,21.457 11.461,21.436 11.425,21.398   11.4,21.41 11.392,21.418 11.387,21.467 11.387,21.48 11.33,21.473 11.294,21.451 11.232,21.385 11.216,21.35 11.208,21.321   11.208,21.301 11.183,21.275 11.154,21.28 11.138,21.301 11.134,21.321 11.134,21.33 11.13,21.334 11.146,21.383 11.146,21.398   11.093,21.424 11.056,21.451 11.02,21.514 11.007,21.569 11.011,21.648 11.028,21.689 11.031,21.689 11.031,21.692 10.987,21.676   10.95,21.651 10.905,21.6 10.88,21.549 10.872,21.508 10.868,21.447 10.875,21.391 10.896,21.342 10.938,21.301 10.957,21.28   10.967,21.248 10.95,21.211 10.921,21.166 10.917,21.116 10.926,21.084 10.946,21.043 10.957,21.03 10.97,21.026 11.039,21.03   11.044,21.039 "
   id="polyline51"
   style="fill:#ffd200;fill-rule:evenodd"
   transform="translate(6.499792e-3,0)" />
<polyline
   clip-rule="evenodd"
   points="14.071,21.182 14.166,21.227 14.223,21.272   14.239,21.289 14.247,21.313 14.219,21.336 14.12,21.383 14.022,21.41 13.989,21.406 13.957,21.395 13.933,21.391 13.928,21.385   14.002,21.26 13.997,21.248 13.985,21.239 13.941,21.256 13.851,21.369 13.789,21.426 13.716,21.477 13.699,21.48 13.826,21.227   13.875,21.133 13.969,21.149 14.071,21.182 "
   id="polyline53"
   style="fill:#ffd200;fill-rule:evenodd"
   transform="translate(6.499792e-3,0)" />
<polyline
   clip-rule="evenodd"
   points="11.826,21.309 11.809,21.346 11.776,21.391   11.703,21.447 11.687,21.478 11.687,21.426 11.698,21.398 11.703,21.375 11.719,21.316 11.719,21.297 11.744,21.289 11.755,21.275   11.793,21.297 11.826,21.309 "
   id="polyline55"
   style="fill:#ffd200;fill-rule:evenodd"
   transform="translate(6.499792e-3,0)" />
<polyline
   clip-rule="evenodd"
   points="12.276,21.514 12.382,21.547 12.586,21.594   12.803,21.635 13.012,21.656 13.479,21.664 13.732,21.648 13.729,21.697 13.708,21.787 13.699,21.795 13.421,21.808 13.151,21.795   12.983,21.778 12.844,21.758 12.685,21.726 12.468,21.664 12.287,21.603 12.082,21.528 12.067,21.488 12.067,21.465 12.082,21.447   12.124,21.457 12.276,21.514 "
   id="polyline57"
   style="fill:#ffd200;fill-rule:evenodd"
   transform="translate(6.499792e-3,0)" />
<polyline
   points="12.328,21.701 12.509,21.738 12.594,21.758 12.758,21.791 13.065,21.832 13.234,21.844   13.388,21.849 13.691,21.853 13.695,21.865 13.683,21.914 13.678,21.955 13.662,22.032 13.654,22.041 13.396,22.045 13.143,22.032   13,22.02 12.864,22 12.66,21.955 12.488,21.914 12.205,21.819 12.01,21.742 11.944,21.717 11.94,21.713 11.96,21.692 12.013,21.66   12.063,21.648 12.1,21.644 12.177,21.656 12.328,21.701 "
   id="polyline59"
   style="fill:#ffd200"
   transform="translate(6.499792e-3,0)" />
<polyline
   clip-rule="evenodd"
   points="14.628,21.746 14.649,21.767 14.669,21.771   14.685,21.771 14.69,21.767 14.693,21.771 14.697,21.778 14.69,21.836 14.657,21.856 14.567,21.89 14.517,21.897 14.493,21.897   14.529,21.791 14.583,21.689 14.588,21.668 14.595,21.668 14.628,21.746 "
   id="polyline61"
   style="fill:#ffd200;fill-rule:evenodd"
   transform="translate(6.499792e-3,0)" />
<polyline
   clip-rule="evenodd"
   points="14.056,21.815 13.969,21.918 13.974,21.942   13.997,21.959 14.005,21.967 14.005,21.976 13.961,21.996 13.928,22 13.871,22.012 13.77,22.02 13.765,22.017 13.821,21.95   13.912,21.824 13.92,21.824 13.928,21.844 13.944,21.86 13.978,21.856 14.051,21.799 14.059,21.799 14.056,21.815 "
   id="polyline63"
   style="fill:#ffd200;fill-rule:evenodd"
   transform="translate(6.499792e-3,0)" />
<path
   d="M 12.8295,16.809 L 12.8505,16.822 L 12.8595,16.83 L 12.8505,16.879 L 12.8595,16.896 L 12.8555,16.932 L 12.8235,16.957 L 12.7445,16.989 L 12.6955,17.022 L 12.6745,17.022 L 12.6665,17.014 L 12.6615,16.993 L 12.6865,16.961 L 12.7355,16.92 L 12.7485,16.884 L 12.7195,16.866 L 12.6955,16.863 L 12.6875,16.863 L 12.6665,16.851 L 12.6455,16.838 L 12.6415,16.822 L 12.6455,16.797 L 12.6625,16.794 L 12.7275,16.814 L 12.8295,16.809 M 12.9815,16.728 L 13.0555,16.773 L 13.0635,16.781 L 13.0805,16.789 L 13.1175,16.814 L 13.1945,16.879 L 13.2315,16.92 L 13.2355,16.94 L 13.2315,16.953 L 13.2185,16.978 L 13.2235,17.006 L 13.2405,17.019 L 13.2645,17.014 L 13.2925,16.961 L 13.3565,16.896 L 13.4155,16.863 L 13.5005,16.851 L 13.5585,16.855 L 13.5915,16.866 L 13.6435,16.907 L 13.6815,16.961 L 13.6845,16.981 L 13.6895,16.989 L 13.6895,16.998 L 13.6815,17.035 L 13.6575,17.075 L 13.6075,17.112 L 13.5755,17.132 L 13.5135,17.145 L 13.4645,17.145 L 13.4355,17.153 L 13.4155,17.173 L 13.4185,17.194 L 13.4595,17.203 L 13.5625,17.194 L 13.6655,17.153 L 13.7305,17.112 L 13.8215,17.03 L 13.8335,17.05 L 13.8375,17.075 L 13.8375,17.083 L 13.8455,17.116 L 13.8375,17.182 L 13.8375,17.19 L 13.8135,17.239 L 13.6955,17.333 L 13.6255,17.374 L 13.5555,17.395 L 13.5435,17.411 L 13.5475,17.431 L 13.5555,17.439 L 13.5845,17.443 L 13.6755,17.419 L 13.7275,17.398 L 13.8055,17.346 L 13.8505,17.305 L 13.8635,17.293 L 13.8715,17.293 L 13.8805,17.3 L 13.8885,17.329 L 13.8965,17.378 L 13.8925,17.428 L 13.8715,17.489 L 13.8305,17.546 L 13.7865,17.582 L 13.7085,17.632 L 13.6715,17.648 L 13.5655,17.681 L 13.5535,17.694 L 13.5615,17.714 L 13.5895,17.725 L 13.6635,17.722 L 13.6965,17.714 L 13.7735,17.681 L 13.8715,17.607 L 13.8925,17.587 L 13.9015,17.587 L 13.9135,17.612 L 13.9265,17.653 L 13.9185,17.755 L 13.8895,17.816 L 13.8485,17.869 L 13.7755,17.922 L 13.7135,17.95 L 13.6685,17.963 L 13.5825,17.971 L 13.5175,17.975 L 13.5095,17.988 L 13.5135,18.016 L 13.5345,18.029 L 13.5905,18.041 L 13.6685,18.037 L 13.7585,18.012 L 13.8695,17.95 L 13.8815,17.939 L 13.8895,17.939 L 13.8935,17.96 L 13.8935,17.98 L 13.8975,17.991 L 13.8855,18.065 L 13.8485,18.144 L 13.8035,18.192 L 13.7585,18.229 L 13.6855,18.262 L 13.5495,18.282 L 13.4275,18.278 L 13.4025,18.278 L 13.3945,18.274 L 13.3715,18.278 L 13.3615,18.29 L 13.3665,18.311 L 13.3825,18.328 L 13.4405,18.343 L 13.5265,18.349 L 13.6215,18.339 L 13.6385,18.339 L 13.7365,18.318 L 13.7775,18.303 L 13.7855,18.307 L 13.7615,18.379 L 13.7215,18.438 L 13.6635,18.479 L 13.6005,18.506 L 13.5325,18.523 L 13.3765,18.532 L 13.2785,18.523 L 13.2415,18.502 L 13.2295,18.502 L 13.2065,18.52 L 13.2235,18.553 L 13.2445,18.564 L 13.3755,18.588 L 13.4735,18.594 L 13.5765,18.575 L 13.6035,18.563 L 13.6245,18.567 L 13.8665,18.821 L 14.0865,19.039 L 14.3085,19.234 L 14.4395,19.332 L 14.5375,19.338 L 14.6245,19.32 L 14.6775,19.299 L 14.7215,19.268 L 14.7845,19.19 L 14.8255,19.096 L 14.8425,19.043 L 14.8585,18.978 L 14.8535,18.863 L 14.8305,18.765 L 14.7975,18.683 L 14.7405,18.576 L 14.6455,18.446 L 14.6495,18.417 L 14.7525,18.296 L 14.7725,18.298 L 14.8315,18.357 L 14.9745,18.569 L 15.0525,18.741 L 15.0775,18.81 L 15.1335,18.827 L 15.1545,18.823 L 15.1725,18.823 L 15.2245,18.827 L 15.3365,18.815 L 15.4385,18.779 L 15.4465,18.791 L 15.4385,18.889 L 15.3655,19 L 15.3155,19.045 L 15.2335,19.073 L 15.1395,19.082 L 15.0945,19.076 L 15.0785,19.094 L 15.0735,19.115 L 15.0785,19.132 L 15.0985,19.144 L 15.2025,19.16 L 15.2785,19.152 L 15.4295,19.103 L 15.4665,19.087 L 15.4875,19.087 L 15.4745,19.14 L 15.4215,19.242 L 15.3725,19.301 L 15.3105,19.344 L 15.2285,19.375 L 15.1145,19.395 L 15.0815,19.399 L 15.0195,19.391 L 14.9825,19.37 L 14.9745,19.37 L 14.8695,19.493 L 14.7915,19.55 L 14.7545,19.568 L 14.6445,19.599 L 14.5805,19.608 L 14.5095,19.595 L 14.4615,19.571 L 14.4325,19.55 L 14.4205,19.554 L 14.4475,19.608 L 14.4885,19.649 L 14.5425,19.752 L 14.5555,19.809 L 14.5595,19.977 L 14.5595,20.01 L 14.5475,20.108 L 14.5595,20.157 L 14.5965,20.206 L 14.6325,20.239 L 14.6905,20.268 L 14.7965,20.291 L 14.8745,20.324 L 14.9235,20.361 L 14.9565,20.41 L 14.9605,20.439 L 14.9435,20.565 L 14.9305,20.603 L 14.9385,20.634 L 14.9565,20.647 L 14.9975,20.652 L 15.0995,20.72 L 15.2035,20.827 L 15.2515,20.917 L 15.2675,20.974 L 15.2765,21.039 L 15.2675,21.097 L 15.2725,21.105 L 15.2565,21.171 L 15.2385,21.224 L 15.2175,21.265 L 15.1775,21.175 L 15.1405,21.117 L 15.0665,21.039 L 15.0425,21.031 L 15.0185,21.031 L 14.9985,21.048 L 14.9985,21.06 L 15.0885,21.158 L 15.1335,21.228 L 15.1625,21.31 L 15.1705,21.367 L 15.1655,21.449 L 15.1565,21.486 L 15.1435,21.531 L 15.1125,21.592 L 15.0885,21.609 L 15.0635,21.553 L 15.0065,21.488 L 14.9045,21.41 L 14.8965,21.41 L 14.8605,21.385 L 14.8475,21.383 L 14.8265,21.403 L 14.8185,21.436 L 14.8185,21.444 L 14.9495,21.583 L 14.9575,21.601 L 14.9495,21.645 L 14.8955,21.735 L 14.7925,21.916 L 14.7765,21.944 L 14.7585,21.965 L 14.7555,21.911 L 14.7585,21.883 L 14.7665,21.773 L 14.7765,21.756 L 14.7975,21.748 L 14.8415,21.744 L 14.8545,21.732 L 14.8595,21.707 L 14.8305,21.678 L 14.7775,21.684 L 14.7595,21.692 L 14.6905,21.7 L 14.6745,21.671 L 14.6285,21.491 L 14.6165,21.483 L 14.5755,21.495 L 14.5475,21.528 L 14.4935,21.692 L 14.4315,21.805 L 14.3995,21.883 L 14.3905,21.892 L 14.3875,21.912 L 14.3745,21.925 L 14.3665,21.925 L 14.2715,21.839 L 14.2265,21.822 L 14.2165,21.822 L 14.2055,21.835 L 14.2055,21.847 L 14.2125,21.871 L 14.2455,21.896 L 14.2785,21.932 L 14.3275,22.043 L 14.3395,22.075 L 14.3605,22.129 L 14.3695,22.157 L 14.3565,22.157 L 14.1755,22.021 L 14.0735,21.931 L 14.0695,21.923 L 14.0695,21.907 L 14.2245,21.714 L 14.3595,21.529 L 14.3595,21.522 L 14.3425,21.506 L 14.3095,21.508 L 14.1715,21.668 L 14.1305,21.713 L 14.0565,21.731 L 13.9835,21.767 L 13.9705,21.754 L 13.9495,21.66 L 13.9465,21.631 L 13.9465,21.623 L 13.9145,21.6 L 13.9065,21.6 L 13.8855,21.603 L 13.8775,21.624 L 13.8735,21.657 L 13.8775,21.669 L 13.8685,21.724 L 13.8605,21.74 L 13.8515,21.789 L 13.7945,21.846 L 13.7575,21.887 L 13.7705,21.81 L 13.7835,21.748 L 13.7875,21.715 L 13.8115,21.584 L 13.8205,21.561 L 13.8325,21.549 L 13.9145,21.524 L 14.0445,21.487 L 14.2495,21.426 L 14.3185,21.387 L 14.3765,21.332 L 14.4305,21.221 L 14.4615,21.127 L 14.4945,21 L 14.5155,20.868 L 14.5075,20.819 L 14.4795,20.757 L 14.3845,20.667 L 14.2905,20.626 L 14.1755,20.577 L 14.1395,20.565 L 14.0855,20.519 L 14.0695,20.524 L 14.0615,20.536 L 14.0645,20.675 L 14.0515,20.749 L 14.0285,20.814 L 13.9885,20.872 L 13.9185,20.934 L 13.8525,20.97 L 13.8125,20.978 L 13.6945,20.97 L 13.7585,20.888 L 13.7765,20.852 L 13.7795,20.815 L 13.7765,20.806 L 13.7795,20.798 L 13.7715,20.736 L 13.7505,20.674 L 13.7385,20.617 L 13.7095,20.518 L 13.6685,20.359 L 13.6565,20.281 L 13.6425,20.196 L 13.6395,20.093 L 13.6475,20.024 L 13.6475,20.007 L 13.6605,19.97 L 13.6645,19.942 L 13.6935,19.873 L 13.7295,19.795 L 13.7575,19.7 L 13.7755,19.627 L 13.7705,19.533 L 13.7385,19.41 L 13.7215,19.365 L 13.7005,19.32 L 13.6755,19.291 L 13.6425,19.25 L 13.5985,19.215 L 13.5495,19.19 L 13.5295,19.194 L 13.5155,19.208 L 13.5195,19.231 L 13.6305,19.346 L 13.6545,19.395 L 13.6715,19.448 L 13.6715,19.468 L 13.6505,19.464 L 13.5885,19.427 L 13.3385,19.31 L 13.1825,19.244 L 12.9625,19.164 L 12.9135,19.147 L 12.9625,19.073 L 12.9865,18.983 L 12.9955,18.888 L 12.9905,18.77 L 12.9655,18.697 L 12.9545,18.688 L 12.9365,18.69 L 12.9195,18.703 L 12.9115,18.736 L 12.9165,18.743 L 12.9165,18.871 L 12.9045,18.977 L 12.8835,19.033 L 12.8555,19.092 L 12.8185,19.141 L 12.7565,19.187 L 12.7075,19.208 L 12.6535,19.216 L 12.5505,19.228 L 12.5385,19.228 L 12.5885,19.082 L 12.6095,18.942 L 12.5995,18.873 L 12.5835,18.84 L 12.5765,18.83 L 12.5515,18.834 L 12.5315,18.862 L 12.5175,18.912 L 12.5015,19.047 L 12.4895,19.092 L 12.4725,19.154 L 12.4315,19.208 L 12.3945,19.243 L 12.3175,19.292 L 12.2365,19.32 L 12.1745,19.32 L 12.2365,19.215 L 12.2685,19.149 L 12.2825,19.1 L 12.2905,19.055 L 12.2825,19.006 L 12.2575,18.985 L 12.2325,18.99 L 12.2115,19.007 L 12.1805,19.126 L 12.1265,19.23 L 12.0605,19.289 L 11.9995,19.324 L 11.9345,19.349 L 11.8245,19.357 L 11.7515,19.345 L 11.8615,19.23 L 11.8775,19.207 L 11.8775,19.182 L 11.8615,19.162 L 11.8405,19.156 L 11.8275,19.162 L 11.8195,19.162 L 11.7785,19.193 L 11.7045,19.238 L 11.5745,19.304 L 11.5605,19.324 L 11.5655,19.332 L 11.5865,19.488 L 11.5535,19.508 L 11.4105,19.549 L 11.2835,19.574 L 11.2505,19.574 L 11.3285,19.496 L 11.3695,19.439 L 11.4145,19.455 L 11.4845,19.476 L 11.4955,19.467 L 11.5085,19.455 L 11.5085,19.426 L 11.4925,19.406 L 11.4435,19.39 L 11.4145,19.378 L 11.3825,19.37 L 11.3735,19.36 L 11.3775,19.319 L 11.4105,19.237 L 11.4145,19.216 L 11.4105,19.206 L 11.3895,19.188 L 11.3615,19.192 L 11.3245,19.215 L 11.1775,19.36 L 11.0955,19.421 L 11.0835,19.378 L 11.0785,19.319 L 11.0705,19.298 L 11.0455,19.275 L 11.0255,19.275 L 10.9965,19.304 L 11.0545,19.643 L 11.0215,19.606 L 10.8915,19.418 L 10.7975,19.289 L 10.7975,19.275 L 10.9685,19.197 L 11.2355,19.071 L 11.2435,19.058 L 11.2395,19.033 L 11.2105,19.013 L 11.0515,19.079 L 11.0065,19.099 L 10.9005,19.104 L 10.8015,19.121 L 10.7985,19.107 L 10.8105,19.054 L 10.8275,19.001 L 10.8315,18.956 L 10.8315,18.94 L 10.8025,18.916 L 10.7865,18.916 L 10.7615,18.94 L 10.7535,18.964 L 10.7415,19.066 L 10.7205,19.087 L 10.6715,19.111 L 10.6185,19.128 L 10.5365,19.155 L 10.6965,18.906 L 10.7005,18.894 L 10.7245,18.865 L 10.7495,18.824 L 10.7935,18.833 L 10.8755,18.861 L 10.9165,18.874 L 11.0185,18.886 L 11.1665,18.89 L 11.2845,18.874 L 11.3785,18.849 L 11.5465,18.772 L 12.5365,18.281 L 12.6215,18.265 L 12.6425,18.245 L 12.6425,18.214 L 12.6215,18.198 L 12.5815,18.194 L 12.5405,18.203 L 12.4375,18.252 L 12.2735,18.328 L 12.2425,18.349 L 12.2125,18.357 L 12.1915,18.37 L 12.2045,18.302 L 12.2535,18.195 L 12.2455,18.179 L 12.2175,18.166 L 12.1895,18.163 L 12.2055,18.138 L 12.3255,18.036 L 12.4025,17.987 L 12.5375,17.929 L 12.6155,17.909 L 12.6355,17.909 L 12.6635,17.901 L 12.7255,17.897 L 12.7465,17.901 L 12.7595,17.897 L 12.8655,17.909 L 12.9555,17.933 L 13.0015,17.949 L 13.0065,17.955 L 13.0475,17.955 L 13.0715,17.93 L 13.0675,17.881 L 13.0425,17.861 L 13.0145,17.869 L 13.0015,17.873 L 12.9605,17.865 L 12.8915,17.845 L 12.7525,17.824 L 12.7275,17.82 L 12.7005,17.799 L 12.6715,17.763 L 12.6715,17.725 L 12.7085,17.694 L 12.7205,17.681 L 12.6795,17.599 L 12.6755,17.574 L 12.6755,17.554 L 12.7415,17.582 L 12.7775,17.615 L 12.8595,17.681 L 12.8715,17.684 L 12.8845,17.697 L 12.9585,17.734 L 13.0885,17.758 L 13.1255,17.758 L 13.1335,17.763 L 13.2405,17.75 L 13.2675,17.738 L 13.2965,17.705 L 13.3255,17.636 L 13.3285,17.591 L 13.3215,17.538 L 13.3005,17.48 L 13.2595,17.407 L 13.1495,17.28 L 13.0915,17.234 L 13.0305,17.214 L 12.9525,17.206 L 12.8905,17.223 L 12.8335,17.259 L 12.7635,17.326 L 12.7315,17.382 L 12.7315,17.398 L 12.7225,17.407 L 12.7145,17.448 L 12.7185,17.46 L 12.7225,17.48 L 12.7225,17.5 L 12.6945,17.492 L 12.6535,17.451 L 12.6135,17.39 L 12.6045,17.354 L 12.5685,17.316 L 12.5475,17.272 L 12.5385,17.231 L 12.5795,17.153 L 12.6035,17.088 L 12.5955,17.08 L 12.5675,17.091 L 12.5085,17.149 L 12.4925,17.165 L 12.4865,17.165 L 12.4655,17.132 L 12.4685,17.088 L 12.5685,16.928 L 12.6175,16.851 L 12.6335,16.805 L 12.7325,16.662 L 12.7735,16.61 L 12.8675,16.658 L 12.9815,16.728 z M 12.6945,17.315 L 12.6905,17.336 L 12.6735,17.348 L 12.6405,17.353 L 12.6195,17.356 L 12.6125,17.348 L 12.6195,17.32 L 12.6375,17.307 L 12.6905,17.312 L 12.6945,17.315 z "
   style="fill:#ffd200;fill-rule:evenodd"
   id="path65" />
<rect
   width="26.825001"
   height="8.908"
   x="0.16249962"
   y="25.832001"
   style="fill:#ffd200"
   id="rect67" />
<rect
   width="26.825001"
   height="8.908"
   x="0.16249962"
   y="25.832001"
   style="fill:none;stroke:#ffd200;stroke-width:0.096;stroke-miterlimit:3.86400008"
   id="rect69" />
<path
   d="M 26.8965,34.395 L 0.16249962,34.395 M 0.16249962,33.991 L 26.8045,33.991 M 0.070499622,26.58 L 26.8035,26.58 M 0.16249962,26.119 L 26.8045,26.176"
   style="fill:none;stroke:#737477;stroke-width:0.096;stroke-miterlimit:3.86400008;stroke-dasharray:2.523, 2.523"
   id="path71" />
<path
   d="M 0.12449962,34.394 L 0.82049962,33.918 L 1.4784996,34.377 L 2.3124996,33.963 L 2.9504996,34.355 L 3.5804996,33.963 L 4.1574996,34.414 L 4.7634996,33.963 L 5.3654996,34.377 L 6.2274996,33.963 L 6.8064996,34.397 L 7.5244996,33.962 L 8.2484996,34.397 L 9.1934996,33.94 L 9.7704996,34.397 L 10.4075,33.962 L 11.1545,34.413 L 11.6735,33.983 L 12.3325,34.353 L 12.8515,33.983 L 13.5985,34.396 L 14.0315,33.983 L 14.8935,34.376 L 15.7575,33.983 L 16.4745,34.376 L 17.2275,33.962 L 17.7995,34.397 L 18.5815,33.984 L 19.1525,34.397 L 19.5265,33.984 L 20.3375,34.377 L 20.8795,33.963 L 21.7145,34.377 L 22.4085,34.028 L 23.0385,34.377 L 23.4115,34.006 L 24.4505,34.377 L 24.9705,33.963 L 25.4905,34.398 L 25.8635,34.029 L 26.2365,34.378 L 26.7565,34.029 L 27.0125,34.378 M 0.21749962,26.561 L 0.76649962,26.106 L 1.4254996,26.563 L 2.2604996,26.15 L 2.8964996,26.542 L 3.5274996,26.15 L 4.1034996,26.602 L 4.7104996,26.15 L 5.3114996,26.563 L 6.1744996,26.15 L 6.7524996,26.585 L 7.4704996,26.15 L 8.1944996,26.585 L 9.1384996,26.128 L 9.7164996,26.585 L 10.3525,26.15 L 11.0995,26.602 L 11.6195,26.172 L 12.2785,26.541 L 12.7985,26.172 L 13.5445,26.584 L 13.9765,26.172 L 14.8405,26.563 L 15.7035,26.172 L 16.4205,26.563 L 17.1745,26.15 L 17.7455,26.585 L 18.5275,26.173 L 19.0985,26.585 L 19.4715,26.173 L 20.2835,26.564 L 20.8255,26.151 L 21.6605,26.564 L 22.3535,26.216 L 22.9845,26.564 L 23.3575,26.195 L 24.3955,26.564 L 24.9165,26.151 L 25.4355,26.586 L 25.8085,26.217 L 26.1825,26.565 L 26.7025,26.217 L 26.9595,26.565 M 22.1765,28.543 C 22.1765,28.543 24.7635,28.573 26.9875,30.199 M 26.9865,30.813 C 26.9865,30.813 24.9535,28.73 21.2195,28.939 M 17.8295,31.278 C 17.8295,31.278 15.9475,31.077 15.2665,31.564 M 2.3894996,30.318 C 2.3894996,30.318 1.6114996,29.593 1.0564996,29.941 M 9.2004996,29.596 C 9.2004996,29.596 8.9714996,29.637 8.6044996,29.59 C 8.2374996,29.545 6.9024996,29.564 6.8404996,29.402 M 8.6234996,28.313 L 8.0584996,28.23 L 8.0084996,28.119 L 8.0894996,27.942 L 8.3214996,27.908 L 8.5674996,27.896 L 8.4214996,27.858 L 8.3474996,27.666 L 8.4464996,27.594 L 8.8954996,27.5 L 9.3334996,27.65 L 9.4754996,27.836 L 9.5434996,27.977 L 9.3504996,28.09 L 9.0924996,28.106 L 9.2654996,28.297 L 9.1834996,28.474 L 9.0284996,28.53 L 8.8344996,28.528 L 8.6684996,28.461 L 8.6234996,28.313 z M 3.9364996,28.896 C 3.9364996,28.896 7.8924996,28.781 8.3764996,28.32 M 0.12949962,30.613 C 0.12949962,30.613 3.0444996,27.274 10.0615,31.203 C 10.0615,31.203 14.0575,33.012 17.2625,30.512 C 19.1675,29.026 20.7865,28.934 21.2205,28.94 C 21.2955,28.94 21.3345,28.944 21.3345,28.944 C 21.3345,28.944 20.5985,29.577 21.3345,28.944 M 0.041499622,30.141 C 0.041499622,30.141 3.0134996,26.922 10.0305,30.851 C 10.0305,30.851 13.8685,32.736 17.0725,30.236 C 19.3035,28.494 21.1435,28.667 21.1435,28.667 C 21.1435,28.667 22.5465,28.69 23.2845,28.058 C 24.0195,27.425 23.2845,28.058 23.2845,28.058 L 23.4395,27.779 L 22.8825,27.847 C 22.7225,27.841 22.6115,27.772 22.5455,27.64 L 22.7905,27.477 L 23.3785,27.384 L 23.4085,27.269 C 23.4085,27.269 23.1075,27.302 23.1305,27.198 C 23.0205,27.168 23.2615,27.013 23.2615,27.013 L 23.5035,26.925 C 23.5665,26.866 23.8525,26.972 23.8525,26.972 L 23.9715,27.076 C 23.9715,27.076 24.1205,27.282 24.0965,27.345 C 24.0815,27.399 23.8105,27.361 23.8105,27.361 L 23.9325,27.477 L 24.1175,27.733 L 23.9945,27.92 L 23.6845,27.895 L 23.4395,27.78"
   style="fill:none;stroke:#737477;stroke-width:0.096;stroke-miterlimit:3.86400008;stroke-dasharray:1.261, 1.261"
   id="path73" />
<path
   d="M 9.1764996,29.664 C 9.1764996,29.664 9.9904996,27.771 12.2025,28.791 C 12.2025,28.791 12.7535,27.791 14.4335,28.506 C 14.4335,28.506 15.2105,27.83 16.3115,28.455 L 16.3105,28.523 C 16.3105,28.523 17.3495,27.828 18.0915,28.464 C 17.6255,29.208 16.5445,29.028 16.5445,29.028 L 16.4675,29.076 C 15.6765,29.927 14.4995,29.476 14.4995,29.476 C 13.1945,30.547 12.3225,29.722 12.3225,29.722 C 10.6365,31.205 9.1914996,29.553 9.1914996,29.553 C 9.1914996,29.553 16.0905,29.082 18.0055,28.494"
   style="fill:none;stroke:#737477;stroke-width:0.087;stroke-miterlimit:3.86400008;stroke-dasharray:1.261, 1.261"
   id="path75" />
<path
   d="M 2.2664996,30.379 C 2.2664996,30.379 4.5124996,28.955 5.8004996,30.898 C 5.8004996,30.898 7.1014996,30.2 8.1264996,31.619 C 8.1264996,31.619 9.3864996,31.327 9.9364996,32.404 L 9.8804996,32.467 C 9.8804996,32.467 11.4035,32.274 11.6055,33.202 C 10.5845,33.697 9.7064996,33.047 9.7064996,33.047 L 9.5964996,33.06 C 8.1864996,33.51 7.4294996,32.564 7.4294996,32.564 C 5.3634996,32.995 5.1854996,31.831 5.1854996,31.831 C 2.4374996,32.481 2.3684996,30.283 2.3684996,30.283 C 2.3684996,30.283 9.2374996,32.899 11.5015,33.194"
   style="fill:none;stroke:#737477;stroke-width:0.096;stroke-miterlimit:3.86400008;stroke-dasharray:1.261, 1.261"
   id="path77" />
<path
   d="M 17.7235,31.336 C 17.7235,31.336 19.4545,29.834 20.9615,31.424 C 20.9615,31.424 21.9885,30.664 23.1645,31.818 C 23.1645,31.818 24.2285,31.426 24.9195,32.324 L 24.8825,32.387 C 24.8825,32.387 26.1995,32.053 26.5535,32.857 C 25.7395,33.405 24.8355,32.922 24.8355,32.922 L 24.7405,32.943 C 23.5715,33.493 22.7205,32.733 22.7205,32.733 C 20.9635,33.335 20.5895,32.318 20.5895,32.318 C 18.2675,33.188 17.7945,31.241 17.7945,31.241 C 17.7945,31.241 24.3895,32.839 26.4565,32.861"
   style="fill:none;stroke:#737477;stroke-width:0.087;stroke-miterlimit:3.86400008;stroke-dasharray:1.261, 1.261"
   id="path79" />
</svg>