<?xml version="1.0" encoding="UTF-8" standalone="no"?>
<!-- Created with Inkscape (http://www.inkscape.org/) -->
<svg
   xmlns:svg="http://www.w3.org/2000/svg"
   xmlns="http://www.w3.org/2000/svg"
   version="1.0"
   width="553.89478"
   height="800.33002"
   viewBox="0 0 26.531 38.335"
   id="Layer_1"
   xml:space="preserve"><defs
   id="defs76" />
<rect
   width="26.461"
   height="38.264999"
   x="0.034999669"
   y="0.035"
   id="rect3" />
<rect
   width="26.461"
   height="38.264999"
   x="0.034999669"
   y="0.035"
   style="fill:none;stroke:black;stroke-width:0.07;stroke-miterlimit:3.86400008"
   id="rect5" />
<rect
   width="26.461"
   height="3.779"
   x="0.034999669"
   y="24.482"
   style="fill:#ffd200"
   id="rect7" />
<rect
   width="26.461"
   height="3.779"
   x="0.034999669"
   y="24.482"
   style="fill:none;stroke:#ffd200;stroke-width:0.07;stroke-miterlimit:3.86400008"
   id="rect9" />
<rect
   width="26.461"
   height="3.7780001"
   x="0.034999669"
   y="29.916"
   style="fill:#ffd200"
   id="rect11" />
<rect
   width="26.461"
   height="3.7780001"
   x="0.034999669"
   y="29.916"
   style="fill:none;stroke:#ffd200;stroke-width:0.07;stroke-miterlimit:3.86400008"
   id="rect13" />
<polyline
   clip-rule="evenodd"
   points="13.882,15.357 13.882,15.366 13.861,15.382 13.85,15.395   13.85,15.403 13.845,15.407 13.861,15.431 13.874,15.436 13.91,15.428 13.939,15.436 13.959,15.459 13.973,15.513 13.956,15.546   13.923,15.579 13.891,15.595 13.861,15.599 13.816,15.574 13.804,15.579 13.784,15.599 13.788,15.612 13.854,15.656 13.973,15.734   14.066,15.791 14.086,15.787 14.103,15.766 14.1,15.746 14.066,15.722 14.041,15.714 14.009,15.689 13.997,15.664 14,15.62   14.025,15.566 14.054,15.541 14.119,15.546 14.119,15.55 14.135,15.558 14.156,15.599 14.16,15.62 14.182,15.64 14.197,15.64   14.217,15.615 14.209,15.587 14.214,15.582 14.209,15.571 14.214,15.541 14.237,15.517 14.258,15.513 14.267,15.513 14.271,15.509   14.316,15.517 14.353,15.53 14.377,15.55 14.394,15.571 14.398,15.627 14.394,15.656 14.349,15.694 14.327,15.702 14.316,15.73   14.324,15.746 14.344,15.758 14.394,15.75 14.418,15.738 14.455,15.742 14.476,15.758 14.495,15.783 14.5,15.807 14.495,15.812   14.5,15.816 14.483,15.861 14.463,15.881 14.442,15.893 14.422,15.901 14.418,15.898 14.385,15.901 14.368,15.901 14.365,15.898   14.36,15.901 14.316,15.873 14.295,15.865 14.271,15.868 14.258,15.878 14.25,15.886 14.258,15.906 14.303,15.939 14.394,15.996   14.455,16.037 14.508,16.073 14.549,16.082 14.569,16.077 14.577,16.065 14.573,16.045 14.536,16 14.528,15.955 14.536,15.922   14.541,15.909 14.549,15.886 14.577,15.861 14.626,15.848 14.675,15.848 14.692,15.873 14.685,15.914 14.681,15.919 14.685,15.934   14.695,15.942 14.716,15.942 14.749,15.909 14.77,15.889 14.808,15.878 14.852,15.881 14.864,15.893 14.685,16.065 14.569,16.167   14.562,16.167 14.541,16.131 14.459,16.049 14.414,16.029 14.312,16.012 14.193,15.939 13.918,15.766 13.702,15.632 13.69,15.635   13.686,15.635 13.683,15.632 13.693,15.591 13.727,15.513 13.833,15.275 13.845,15.252 13.874,15.305 13.882,15.357 "
   id="polyline15"
   style="fill:#ffd200;fill-rule:evenodd" />
<polyline
   points="12.688,15.746 12.667,15.787 12.65,15.84 12.643,15.878 12.639,15.881 12.639,15.889   12.634,15.959 12.63,16 12.639,16.098 12.675,16.225 12.72,16.295 12.806,16.372 12.818,16.38 12.814,16.409 12.802,16.43   12.732,16.589 12.729,16.594 12.552,16.453 12.548,16.446 12.558,16.4 12.573,16.351 12.581,16.257 12.581,16.196 12.552,16.057   12.517,15.95 12.458,15.84 12.425,15.799 12.413,15.791 12.409,15.787 12.405,15.783 12.409,15.758 12.495,15.571 12.684,15.734   12.688,15.746 "
   id="polyline17"
   style="fill:#ffd200" />
<polyline
   clip-rule="evenodd"
   points="15.146,15.644 15.199,15.661 15.334,15.714   15.348,15.725 15.307,15.766 15.139,15.893 14.95,15.922 14.938,15.906 14.945,15.889 14.941,15.865 14.893,15.832 14.852,15.824   14.77,15.828 14.767,15.832 14.745,15.828 14.716,15.804 14.667,15.787 14.582,15.791 14.577,15.796 14.562,15.796 14.544,15.758   14.508,15.705 14.508,15.702 14.517,15.694 14.774,15.661 15.064,15.62 15.114,15.627 15.146,15.644 "
   id="polyline19"
   style="fill:#ffd200;fill-rule:evenodd" />
<polyline
   points="13.731,15.705 13.764,15.725 13.943,15.84 13.973,15.861 14.009,15.881 14.214,16.012   14.221,16.021 14.221,16.029 14.193,16.041 14.163,16.049 14.141,16.065 14.135,16.07 14.107,16.062 13.85,15.901 13.628,15.766   13.616,15.755 13.652,15.694 13.669,15.673 13.706,15.689 13.731,15.705 "
   id="polyline21"
   style="fill:#ffd200" />
<polyline
   clip-rule="evenodd"
   points="13.501,15.82 13.396,15.983 13.383,15.991 13.325,15.98   13.038,16.004 12.708,16.032 12.703,16.021 12.703,16.008 12.7,16.004 12.703,16 12.7,15.93 12.708,15.914 12.725,15.901   13.007,15.868 13.468,15.812 13.493,15.812 13.501,15.82 "
   id="polyline23"
   style="fill:#ffd200;fill-rule:evenodd" />
<polyline
   clip-rule="evenodd"
   points="12.196,15.922 12.294,15.93 12.384,15.926 12.409,15.939   12.425,15.959 12.454,16.029 12.476,16.07 12.491,16.123 12.507,16.221 12.503,16.336 12.466,16.458 12.466,16.491 12.524,16.581   12.581,16.671 12.598,16.704 12.598,16.716 12.241,16.798 12.082,16.835 12.074,16.835 12.066,16.826 12.074,16.74 12.082,16.732   12.107,16.737 12.135,16.732 12.151,16.711 12.151,16.699 12.123,16.679 12.066,16.663 12.021,16.625 11.971,16.553 11.939,16.462   11.935,16.433 11.939,16.421 12.041,16.409 12.107,16.413 12.245,16.38 12.261,16.372 12.299,16.38 12.319,16.359 12.322,16.262   12.327,16.257 12.322,16.254 12.332,16.221 12.335,16.184 12.356,16.114 12.356,16.098 12.343,16.085 12.267,16.073 12.209,16.049   12.159,16.008 12.115,15.942 12.107,15.914 12.11,15.901 12.139,15.906 12.196,15.922 "
   id="polyline25"
   style="fill:#ffd200;fill-rule:evenodd" />
<polyline
   clip-rule="evenodd"
   points="15.715,15.942 15.817,15.983 15.858,16.004   15.899,16.032 15.984,16.098 16.104,16.221 16.157,16.29 16.189,16.364 16.218,16.446 16.227,16.491 16.234,16.54 16.239,16.584   16.227,16.699 16.201,16.801 16.148,16.937 16.066,17.064 16.063,17.064 16.056,17.08 15.963,17.17 15.87,17.243 15.756,17.33   15.642,17.402 15.526,17.473 15.441,17.55 15.38,17.627 15.322,17.722 15.289,17.791 15.24,17.934 15.216,18.041 15.211,18.098   15.219,18.184 15.236,18.241 15.244,18.266 15.203,18.262 15.13,18.189 15.061,18.074 15.04,18.02 15.027,17.918 15.04,17.812   15.064,17.763 15.089,17.739 15.089,17.73 15.081,17.722 15.064,17.726 14.982,17.804 14.95,17.862 14.925,17.918 14.913,18.005   14.917,18.069 14.938,18.16 14.938,18.164 14.909,18.156 14.849,18.095 14.808,18.016 14.794,17.964 14.79,17.934 14.794,17.931   14.79,17.898 14.79,17.882 14.794,17.877 14.79,17.873 14.798,17.821 14.823,17.755 14.859,17.693 14.917,17.648 14.909,17.637   14.884,17.64 14.856,17.657 14.843,17.657 14.749,17.742 14.7,17.821 14.688,17.852 14.675,17.816 14.681,17.701 14.692,17.648   14.713,17.586 14.745,17.538 14.811,17.476 14.88,17.432 14.966,17.399 15.073,17.366 15.236,17.338 15.298,17.321 15.322,17.317   15.411,17.289 15.608,17.19 15.759,17.088 15.866,16.998 15.974,16.875 16.03,16.778 16.063,16.704 16.078,16.634 16.086,16.548   16.091,16.515 16.075,16.425 16.05,16.376 15.984,16.298 15.997,16.241 15.997,16.225 15.981,16.213 15.963,16.216 15.952,16.233   15.948,16.269 15.919,16.351 15.902,16.421 15.896,16.43 15.874,16.421 15.833,16.364 15.8,16.298 15.769,16.2 15.789,16.126   15.792,16.114 15.792,16.098 15.78,16.09 15.759,16.094 15.748,16.106 15.735,16.143 15.674,16.216 15.666,16.241 15.669,16.246   15.666,16.262 15.669,16.29 15.666,16.295 15.687,16.384 15.69,16.397 15.69,16.413 15.678,16.417 15.629,16.409 15.556,16.359   15.498,16.303 15.441,16.213 15.429,16.118 15.424,16.07 15.4,16.065 15.375,16.07 15.367,16.082 15.355,16.167 15.362,16.216   15.403,16.295 15.452,16.368 15.469,16.4 15.493,16.438 15.449,16.45 15.396,16.45 15.392,16.446 15.387,16.45 15.33,16.438   15.269,16.417 15.219,16.384 15.166,16.343 15.13,16.298 15.117,16.262 15.105,16.262 15.061,16.315 15.027,16.405 15.02,16.453   15.023,16.458 15.02,16.491 15.02,16.502 15.016,16.507 15.02,16.512 15.016,16.614 15.02,16.617 15.016,16.622 15.027,16.745   15.035,16.76 15.04,16.793 15.073,16.891 15.084,16.921 15.143,17.01 15.228,17.136 15.318,17.243 15.334,17.259 15.334,17.264   15.301,17.277 15.188,17.3 15.15,17.309 15.134,17.309 15.048,17.195 14.962,17.044 14.917,16.937 14.884,16.842 14.872,16.793   14.849,16.675 14.835,16.584 14.838,16.474 14.856,16.413 14.872,16.359 14.95,16.229 14.982,16.184 15.081,16.077 15.195,15.983   15.285,15.947 15.452,15.914 15.493,15.909 15.596,15.919 15.715,15.942 "
   id="polyline27"
   style="fill:#ffd200;fill-rule:evenodd" />
<polyline
   points="12.103,16.062 12.176,16.118 12.241,16.143 12.261,16.147 12.267,16.159 12.253,16.295   12.258,16.318 12.245,16.323 12.192,16.318 12.118,16.331 12.053,16.336 11.947,16.339 11.922,16.336 11.898,16.318 11.885,16.266   11.865,16.213 11.844,16.111 11.836,16.045 11.865,16.029 11.987,15.98 12.028,15.967 12.045,15.975 12.103,16.062 "
   id="polyline29"
   style="fill:#ffd200" />
<polyline
   clip-rule="evenodd"
   points="13.358,16.024 13.354,16.049 13.33,16.103 13.296,16.147   12.766,16.225 12.741,16.192 12.72,16.139 12.72,16.118 12.732,16.111 13.304,16.029 13.351,16.021 13.354,16.024 13.358,16.024 "
   id="polyline31"
   style="fill:#ffd200;fill-rule:evenodd" />
<polyline
   points="11.746,16.103 11.768,16.123 11.775,16.134 11.783,16.184 11.809,16.262 11.823,16.303   11.803,16.359 11.775,16.4 11.647,16.328 11.55,16.266 11.586,16.188 11.627,16.118 11.652,16.073 11.686,16.077 11.746,16.103 "
   id="polyline33"
   style="fill:#ffd200" />
<polyline
   clip-rule="evenodd"
   points="13.01,16.491 13.064,16.605 13.125,16.658 13.161,16.675   13.256,16.691 13.338,16.691 13.383,16.757 13.399,16.798 13.338,16.801 13.24,16.798 13.153,16.781 13.076,16.748 13.043,16.728   12.99,16.683 12.937,16.625 12.934,16.54 12.934,16.532 12.937,16.527 12.934,16.523 12.949,16.462 12.969,16.421 12.982,16.409   12.997,16.425 13.01,16.491 "
   id="polyline35"
   style="fill:#ffd200;fill-rule:evenodd" />
<polyline
   clip-rule="evenodd"
   points="13.788,16.675 13.82,16.691 13.85,16.699 13.943,16.765   14.012,16.839 14.041,16.871 14.046,16.875 14.046,16.891 14.029,16.908 14.009,16.916 13.984,16.908 13.956,16.88 13.85,16.806   13.775,16.773 13.698,16.757 13.628,16.745 13.62,16.745 13.608,16.666 13.611,16.663 13.611,16.646 13.608,16.642 13.611,16.638   13.698,16.655 13.788,16.675 "
   id="polyline37"
   style="fill:#ffd200;fill-rule:evenodd" />
<polyline
   points="12.609,16.863 12.609,16.875 12.561,16.924 12.544,16.932 12.54,16.937 12.527,16.924   12.503,16.839 12.499,16.818 12.499,16.806 12.52,16.793 12.54,16.789 12.565,16.789 12.609,16.863 "
   id="polyline39"
   style="fill:#ffd200" />
<polyline
   points="12.479,16.937 12.483,16.965 12.458,16.99 12.356,17.023 12.294,17.034 12.22,17.031   12.192,17.018 12.171,16.998 12.176,16.875 12.204,16.859 12.413,16.814 12.438,16.814 12.479,16.937 "
   id="polyline41"
   style="fill:#ffd200" />
<polyline
   clip-rule="evenodd"
   points="12.843,16.888 12.83,16.929 12.785,17.023 12.757,17.064   12.639,17.084 12.573,17.108 12.511,17.146 12.47,17.178 12.413,17.248 12.38,17.321 12.368,17.399 12.363,17.415 12.363,17.427   12.36,17.432 12.049,17.358 12.098,17.215 12.151,17.067 12.159,17.059 12.237,17.084 12.343,17.088 12.435,17.072 12.54,17.026   12.67,16.924 12.708,16.867 12.752,16.871 12.843,16.888 "
   id="polyline43"
   style="fill:#ffd200;fill-rule:evenodd" />
<polyline
   points="12.982,17.084 13.125,17.154 13.133,17.166 13.056,17.223 13.031,17.248 13.007,17.243   12.945,17.202 12.834,17.121 12.83,17.116 12.83,17.105 12.875,17.034 12.916,17.055 12.982,17.084 "
   id="polyline45"
   style="fill:#ffd200" />
<polyline
   clip-rule="evenodd"
   points="12.975,17.284 12.978,17.289 12.978,17.297   12.925,17.338 12.879,17.399 12.875,17.412 12.879,17.435 12.896,17.452 12.934,17.46 12.941,17.46 12.945,17.464 12.928,17.538   12.904,17.644 12.872,17.668 12.798,17.701 12.757,17.678 12.695,17.627 12.476,17.464 12.445,17.443 12.438,17.432 12.442,17.386   12.458,17.333 12.486,17.277 12.598,17.17 12.639,17.149 12.691,17.133 12.711,17.129 12.777,17.133 12.975,17.284 "
   id="polyline47"
   style="fill:#ffd200;fill-rule:evenodd" />
<polyline
   clip-rule="evenodd"
   points="11.783,17.726 11.869,17.804 12.082,18.02 12.074,18.028   11.943,18.041 11.939,18.037 11.906,18.041 11.803,18.033 11.759,18.016 11.636,17.939 11.709,17.865 11.709,17.849 11.713,17.844   11.701,17.824 11.686,17.812 11.66,17.816 11.636,17.832 11.624,17.852 11.537,17.87 11.463,17.902 11.374,17.91 11.366,17.91   11.366,17.902 11.563,17.759 11.681,17.668 11.709,17.678 11.783,17.726 "
   id="polyline49"
   style="fill:#ffd200;fill-rule:evenodd" />
<polyline
   clip-rule="evenodd"
   points="14.406,19.056 14.409,19.072 14.398,19.097   14.394,19.121 14.381,19.171 14.368,19.273 14.36,19.322 14.319,19.325 14.275,19.337 14.214,19.345 14.091,19.382 14.025,19.407   13.979,19.432 13.948,19.473 13.939,19.501 13.923,19.546 13.915,19.657 13.915,19.673 13.927,19.682 13.956,19.677 14.012,19.69   14.054,19.71 14.1,19.759 14.119,19.805 14.127,19.845 14.122,19.882 14.111,19.916 14.082,19.958 13.989,20.044 13.964,20.058   13.956,20.044 13.959,20.009 13.956,20.003 13.959,20 13.959,19.984 13.956,19.979 13.959,19.976 13.948,19.89 13.927,19.841   13.902,19.816 13.857,19.825 13.845,19.835 13.861,19.857 13.874,19.882 13.877,19.916 13.882,20.017 13.861,20.082 13.825,20.143   13.775,20.201 13.724,20.234 13.628,20.262 13.58,20.262 13.624,20.189 13.657,20.123 13.669,20.082 13.673,20.03 13.669,20.003   13.649,19.958 13.628,19.935 13.616,19.935 13.604,19.948 13.601,19.984 13.583,20.071 13.556,20.152 13.521,20.208 13.448,20.283   13.407,20.307 13.33,20.328 13.301,20.332 13.284,20.332 13.313,20.25 13.322,20.175 13.31,20.143 13.276,20.078 13.26,20.066   13.243,20.074 13.219,20.111 13.219,20.184 13.084,20.242 13.047,20.262 13.038,20.27 13.043,20.287 13.121,20.384 13.161,20.43   13.178,20.466 13.158,20.487 12.949,20.619 12.896,20.643 12.928,20.569 12.986,20.496 13.027,20.45 13.031,20.43 13.023,20.417   13.019,20.414 12.969,20.425 12.916,20.446 12.908,20.446 12.916,20.352 12.908,20.291 12.9,20.253 12.872,20.212 12.843,20.193   12.826,20.184 12.777,20.189 12.732,20.221 12.63,20.332 12.552,20.438 12.54,20.446 12.524,20.438 12.421,20.357 12.389,20.335   12.363,20.335 12.343,20.357 12.34,20.376 12.343,20.393 12.368,20.417 12.405,20.43 12.458,20.47 12.462,20.483 12.45,20.5   12.435,20.589 12.417,20.692 12.417,20.695 12.405,20.684 12.38,20.619 12.34,20.537 12.271,20.376 12.258,20.352 12.241,20.311   12.445,20.216 12.662,20.119 12.679,20.102 12.675,20.085 12.662,20.078 12.659,20.074 12.634,20.078 12.614,20.091 12.585,20.099   12.47,20.148 12.291,20.229 12.261,20.242 12.241,20.237 12.127,20.082 12.115,20.071 12.098,20.071 12.077,20.093 12.082,20.152   12.098,20.181 11.959,20.376 11.931,20.425 11.926,20.43 11.922,20.369 11.943,20.093 11.951,20.066 12.144,20.025 12.237,20   12.52,19.923 12.818,19.828 13.121,19.718 13.174,19.693 13.224,19.652 13.269,19.591 13.281,19.501 13.276,19.407 13.273,19.403   13.276,19.399 13.269,19.296 13.273,19.273 13.273,19.259 13.304,19.232 13.317,19.223 13.33,19.21 13.33,19.199 13.334,19.194   13.325,19.179 13.304,19.162 13.265,19.166 13.24,19.179 13.202,19.182 13.133,19.171 13.056,19.132 13.007,19.083 12.969,19.031   12.953,18.977 12.945,18.946 12.953,18.839 12.982,18.782 13.027,18.75 13.038,18.744 13.047,18.744 13.06,18.773 13.109,18.823   13.17,18.855 13.215,18.867 13.342,18.884 13.345,18.887 13.351,18.884 13.354,18.887 13.358,18.884 13.444,18.892 13.645,18.873   13.78,18.843 13.891,18.802 14.054,18.732 14.173,18.696 14.185,18.696 14.406,19.056 "
   id="polyline51"
   style="fill:#ffd200;fill-rule:evenodd" />
<polyline
   clip-rule="evenodd"
   points="14.471,18.792 14.495,18.814 14.504,18.823   14.495,18.864 14.483,18.933 14.476,18.96 14.447,18.927 14.401,18.851 14.353,18.761 14.327,18.716 14.447,18.785 14.471,18.792   "
   id="polyline53"
   style="fill:#ffd200;fill-rule:evenodd" />
<polyline
   clip-rule="evenodd"
   points="12.315,19.764 12.401,19.845 12.413,19.866   12.417,19.869 12.417,19.882 12.217,19.931 12.192,19.935 12.176,19.923 12.176,19.902 12.212,19.857 12.217,19.845 12.212,19.82   12.196,19.805 12.176,19.805 12.148,19.833 12.115,19.875 12.074,19.902 11.913,19.957 11.869,19.968 11.823,19.976 11.823,19.971   11.82,19.968 12.139,19.649 12.185,19.669 12.315,19.764 "
   id="polyline55"
   style="fill:#ffd200;fill-rule:evenodd" />
<polyline
   clip-rule="evenodd"
   points="12.843,20.311 12.852,20.369 12.846,20.434   12.826,20.503 12.811,20.66 12.814,20.708 12.839,20.794 12.852,20.818 12.749,20.871 12.65,20.95 12.606,20.994 12.581,21.027   12.524,21.125 12.511,21.183 12.517,21.218 12.552,21.257 12.577,21.257 12.593,21.24 12.581,21.177 12.609,21.134 12.643,21.109   12.675,21.113 12.703,21.134 12.741,21.183 12.761,21.236 12.76,21.292 12.744,21.333 12.695,21.375 12.655,21.395 12.618,21.4   12.614,21.403 12.609,21.4 12.593,21.403 12.544,21.395 12.503,21.371 12.466,21.346 12.421,21.3 12.38,21.227 12.368,21.166   12.376,21.101 12.389,21.064 12.421,20.994 12.527,20.855 12.558,20.807 12.577,20.75 12.577,20.725 12.614,20.705 12.684,20.634   12.708,20.598 12.741,20.516 12.736,20.511 12.744,20.47 12.736,20.401 12.716,20.348 12.716,20.328 12.802,20.25 12.811,20.25   12.843,20.311 "
   id="polyline57"
   style="fill:#ffd200;fill-rule:evenodd" />
<polyline
   clip-rule="evenodd"
   points="11.857,20.266 11.853,20.298 11.857,20.304   11.853,20.401 11.85,20.405 11.853,20.507 11.857,20.524 11.881,20.544 11.906,20.541 11.943,20.528 12.103,20.298 12.139,20.307   12.176,20.319 12.188,20.319 12.209,20.376 12.322,20.638 12.409,20.798 12.429,20.818 12.505,20.689 12.483,20.782 12.45,20.851   12.438,20.855 12.389,20.839 12.353,20.815 12.319,20.777 12.291,20.716 12.291,20.705 12.278,20.684 12.273,20.664 12.237,20.626   12.212,20.638 12.204,20.646 12.2,20.695 12.2,20.708 12.144,20.7 12.107,20.679 12.045,20.614 12.028,20.578 12.021,20.548   12.021,20.528 11.995,20.503 11.967,20.507 11.951,20.528 11.947,20.548 11.947,20.557 11.943,20.561 11.959,20.61 11.959,20.626   11.906,20.651 11.869,20.679 11.832,20.741 11.82,20.798 11.823,20.876 11.841,20.917 11.844,20.917 11.844,20.919 11.8,20.904   11.762,20.878 11.718,20.828 11.693,20.777 11.686,20.736 11.681,20.675 11.689,20.619 11.709,20.569 11.75,20.528 11.771,20.507   11.779,20.475 11.762,20.438 11.734,20.393 11.729,20.343 11.738,20.311 11.759,20.27 11.771,20.257 11.783,20.253 11.853,20.257   11.857,20.266 "
   id="polyline59"
   style="fill:#ffd200;fill-rule:evenodd" />
<polyline
   clip-rule="evenodd"
   points="14.884,20.41 14.979,20.455 15.035,20.5 15.052,20.516   15.061,20.541 15.032,20.565 14.934,20.61 14.835,20.638 14.802,20.634 14.77,20.623 14.745,20.619 14.741,20.614 14.815,20.487   14.811,20.475 14.798,20.466 14.753,20.483 14.664,20.598 14.603,20.654 14.528,20.705 14.511,20.708 14.64,20.455 14.688,20.36   14.782,20.376 14.884,20.41 "
   id="polyline61"
   style="fill:#ffd200;fill-rule:evenodd" />
<polyline
   clip-rule="evenodd"
   points="12.639,20.537 12.622,20.573 12.588,20.619   12.517,20.675 12.499,20.705 12.499,20.654 12.511,20.626 12.517,20.602 12.532,20.544 12.532,20.524 12.558,20.516 12.568,20.503   12.606,20.524 12.639,20.537 "
   id="polyline63"
   style="fill:#ffd200;fill-rule:evenodd" />
<polyline
   clip-rule="evenodd"
   points="13.088,20.741 13.194,20.774 13.399,20.823   13.616,20.863 13.825,20.884 14.291,20.892 14.544,20.876 14.541,20.925 14.521,21.015 14.511,21.023 14.234,21.035 13.964,21.023   13.795,21.007 13.657,20.986 13.498,20.953 13.281,20.892 13.101,20.832 12.896,20.757 12.879,20.716 12.879,20.692 12.896,20.675   12.937,20.684 13.088,20.741 "
   id="polyline65"
   style="fill:#ffd200;fill-rule:evenodd" />
<polyline
   points="13.142,20.929 13.322,20.966 13.407,20.986 13.57,21.019 13.877,21.06 14.047,21.072   14.201,21.076 14.504,21.082 14.508,21.093 14.495,21.142 14.491,21.183 14.476,21.259 14.467,21.268 14.209,21.273 13.956,21.259   13.813,21.248 13.677,21.227 13.474,21.183 13.301,21.142 13.019,21.048 12.823,20.97 12.757,20.945 12.752,20.941 12.772,20.919   12.826,20.889 12.875,20.876 12.912,20.871 12.99,20.884 13.142,20.929 "
   id="polyline67"
   style="fill:#ffd200" />
<polyline
   clip-rule="evenodd"
   points="15.441,20.974 15.461,20.994 15.482,21 15.498,21   15.502,20.994 15.506,21 15.51,21.007 15.502,21.064 15.469,21.083 15.38,21.117 15.33,21.125 15.307,21.125 15.342,21.019   15.396,20.917 15.4,20.896 15.408,20.896 15.441,20.974 "
   id="polyline69"
   style="fill:#ffd200;fill-rule:evenodd" />
<polyline
   clip-rule="evenodd"
   points="14.868,21.042 14.782,21.145 14.786,21.169   14.811,21.186 14.818,21.195 14.818,21.203 14.774,21.224 14.741,21.227 14.685,21.24 14.582,21.248 14.577,21.244 14.634,21.177   14.726,21.052 14.733,21.052 14.741,21.072 14.757,21.087 14.79,21.083 14.864,21.027 14.872,21.027 14.868,21.042 "
   id="polyline71"
   style="fill:#ffd200;fill-rule:evenodd" />
<path
   d="M 13.636,16.037 L 13.657,16.049 L 13.665,16.057 L 13.657,16.106 L 13.665,16.123 L 13.661,16.159 L 13.628,16.184 L 13.55,16.216 L 13.501,16.249 L 13.481,16.249 L 13.473,16.241 L 13.467,16.221 L 13.492,16.188 L 13.541,16.147 L 13.555,16.111 L 13.526,16.094 L 13.501,16.09 L 13.493,16.09 L 13.473,16.077 L 13.452,16.065 L 13.448,16.049 L 13.452,16.024 L 13.468,16.021 L 13.534,16.041 L 13.636,16.037 M 13.788,15.955 L 13.861,16 L 13.869,16.008 L 13.886,16.016 L 13.923,16.041 L 14,16.106 L 14.038,16.147 L 14.041,16.167 L 14.038,16.18 L 14.025,16.205 L 14.029,16.233 L 14.046,16.246 L 14.07,16.241 L 14.099,16.188 L 14.162,16.123 L 14.22,16.09 L 14.307,16.077 L 14.365,16.082 L 14.398,16.094 L 14.45,16.134 L 14.487,16.188 L 14.491,16.208 L 14.495,16.216 L 14.495,16.225 L 14.487,16.262 L 14.463,16.303 L 14.414,16.339 L 14.381,16.359 L 14.319,16.372 L 14.27,16.372 L 14.242,16.38 L 14.221,16.4 L 14.226,16.421 L 14.267,16.43 L 14.369,16.421 L 14.472,16.38 L 14.537,16.339 L 14.627,16.257 L 14.641,16.278 L 14.645,16.303 L 14.645,16.31 L 14.653,16.343 L 14.645,16.409 L 14.645,16.417 L 14.62,16.466 L 14.5,16.561 L 14.431,16.602 L 14.361,16.622 L 14.349,16.638 L 14.353,16.658 L 14.361,16.666 L 14.39,16.671 L 14.48,16.646 L 14.533,16.625 L 14.611,16.573 L 14.656,16.532 L 14.668,16.52 L 14.676,16.52 L 14.686,16.527 L 14.694,16.556 L 14.702,16.605 L 14.697,16.655 L 14.676,16.716 L 14.635,16.773 L 14.591,16.809 L 14.512,16.859 L 14.477,16.875 L 14.37,16.908 L 14.359,16.921 L 14.367,16.941 L 14.395,16.952 L 14.468,16.949 L 14.501,16.941 L 14.578,16.908 L 14.676,16.835 L 14.697,16.814 L 14.707,16.814 L 14.718,16.839 L 14.731,16.88 L 14.722,16.982 L 14.695,17.044 L 14.654,17.096 L 14.58,17.149 L 14.519,17.178 L 14.473,17.19 L 14.387,17.198 L 14.322,17.202 L 14.314,17.215 L 14.319,17.243 L 14.339,17.256 L 14.397,17.268 L 14.474,17.264 L 14.565,17.239 L 14.675,17.178 L 14.688,17.166 L 14.696,17.166 L 14.699,17.187 L 14.699,17.207 L 14.704,17.218 L 14.692,17.292 L 14.655,17.371 L 14.61,17.42 L 14.565,17.456 L 14.491,17.489 L 14.356,17.509 L 14.233,17.505 L 14.209,17.505 L 14.201,17.501 L 14.177,17.505 L 14.167,17.517 L 14.172,17.538 L 14.189,17.555 L 14.247,17.571 L 14.332,17.575 L 14.427,17.566 L 14.444,17.566 L 14.542,17.546 L 14.583,17.53 L 14.591,17.534 L 14.568,17.607 L 14.527,17.665 L 14.469,17.706 L 14.407,17.734 L 14.338,17.75 L 14.182,17.759 L 14.084,17.75 L 14.047,17.73 L 14.035,17.73 L 14.017,17.747 L 14.035,17.78 L 14.056,17.791 L 14.188,17.816 L 14.285,17.821 L 14.388,17.804 L 14.416,17.791 L 14.437,17.796 L 14.678,18.048 L 14.899,18.266 L 15.121,18.462 L 15.251,18.56 L 15.349,18.565 L 15.436,18.548 L 15.49,18.527 L 15.534,18.496 L 15.596,18.418 L 15.637,18.323 L 15.654,18.271 L 15.67,18.205 L 15.666,18.09 L 15.642,17.992 L 15.61,17.91 L 15.552,17.804 L 15.458,17.673 L 15.461,17.644 L 15.565,17.522 L 15.585,17.525 L 15.643,17.583 L 15.787,17.796 L 15.864,17.966 L 15.889,18.036 L 15.946,18.054 L 15.967,18.048 L 15.985,18.048 L 16.037,18.054 L 16.148,18.04 L 16.251,18.005 L 16.259,18.016 L 16.251,18.115 L 16.177,18.225 L 16.128,18.271 L 16.046,18.298 L 15.952,18.307 L 15.907,18.302 L 15.89,18.32 L 15.885,18.34 L 15.89,18.357 L 15.911,18.37 L 16.013,18.386 L 16.09,18.378 L 16.242,18.329 L 16.279,18.313 L 16.3,18.313 L 16.287,18.365 L 16.234,18.468 L 16.184,18.526 L 16.122,18.57 L 16.041,18.6 L 15.926,18.621 L 15.893,18.625 L 15.832,18.616 L 15.795,18.595 L 15.787,18.595 L 15.68,18.718 L 15.603,18.775 L 15.567,18.793 L 15.456,18.825 L 15.392,18.834 L 15.322,18.82 L 15.272,18.795 L 15.245,18.775 L 15.231,18.779 L 15.26,18.834 L 15.301,18.875 L 15.354,18.977 L 15.368,19.034 L 15.372,19.202 L 15.372,19.235 L 15.36,19.333 L 15.372,19.382 L 15.409,19.431 L 15.445,19.464 L 15.503,19.492 L 15.608,19.517 L 15.686,19.549 L 15.736,19.586 L 15.768,19.635 L 15.771,19.664 L 15.755,19.789 L 15.743,19.827 L 15.751,19.859 L 15.768,19.871 L 15.809,19.877 L 15.912,19.945 L 16.014,20.052 L 16.063,20.142 L 16.08,20.199 L 16.089,20.264 L 16.08,20.321 L 16.084,20.33 L 16.069,20.395 L 16.051,20.448 L 16.03,20.489 L 15.989,20.4 L 15.953,20.341 L 15.879,20.264 L 15.854,20.255 L 15.831,20.255 L 15.81,20.272 L 15.81,20.285 L 15.9,20.383 L 15.946,20.452 L 15.973,20.534 L 15.981,20.592 L 15.976,20.674 L 15.969,20.711 L 15.956,20.756 L 15.924,20.818 L 15.9,20.835 L 15.875,20.777 L 15.827,20.719 L 15.723,20.641 L 15.715,20.641 L 15.679,20.617 L 15.666,20.613 L 15.645,20.634 L 15.637,20.667 L 15.637,20.675 L 15.768,20.814 L 15.777,20.832 L 15.768,20.875 L 15.714,20.965 L 15.612,21.147 L 15.595,21.174 L 15.578,21.195 L 15.575,21.141 L 15.578,21.113 L 15.575,21 L 15.584,20.982 L 15.605,20.974 L 15.65,20.97 L 15.662,20.958 L 15.667,20.933 L 15.638,20.904 L 15.585,20.91 L 15.568,20.918 L 15.499,20.926 L 15.483,20.897 L 15.437,20.717 L 15.424,20.709 L 15.383,20.721 L 15.356,20.754 L 15.301,20.918 L 15.24,21.032 L 15.207,21.109 L 15.199,21.117 L 15.195,21.138 L 15.183,21.151 L 15.174,21.151 L 15.08,21.065 L 15.034,21.049 L 15.022,21.049 L 15.009,21.061 L 15.009,21.073 L 15.018,21.097 L 15.05,21.121 L 15.082,21.158 L 15.132,21.268 L 15.145,21.3 L 15.165,21.354 L 15.174,21.382 L 15.162,21.382 L 14.981,21.247 L 14.878,21.157 L 14.874,21.149 L 14.874,21.133 L 15.03,20.94 L 15.164,20.756 L 15.164,20.75 L 15.148,20.733 L 15.115,20.736 L 14.976,20.896 L 14.935,20.941 L 14.862,20.959 L 14.788,20.994 L 14.775,20.982 L 14.754,20.889 L 14.75,20.859 L 14.75,20.851 L 14.717,20.828 L 14.71,20.828 L 14.689,20.832 L 14.681,20.852 L 14.677,20.885 L 14.681,20.897 L 14.671,20.951 L 14.663,20.968 L 14.655,21.017 L 14.598,21.074 L 14.561,21.115 L 14.573,21.037 L 14.586,20.976 L 14.589,20.943 L 14.614,20.812 L 14.622,20.789 L 14.636,20.776 L 14.716,20.752 L 14.848,20.715 L 15.053,20.653 L 15.121,20.616 L 15.18,20.559 L 15.233,20.448 L 15.265,20.354 L 15.297,20.227 L 15.318,20.095 L 15.31,20.046 L 15.281,19.985 L 15.187,19.895 L 15.093,19.854 L 14.978,19.806 L 14.941,19.793 L 14.888,19.748 L 14.871,19.752 L 14.863,19.765 L 14.867,19.903 L 14.854,19.977 L 14.83,20.041 L 14.789,20.1 L 14.721,20.161 L 14.655,20.198 L 14.614,20.206 L 14.5,20.197 L 14.565,20.115 L 14.582,20.078 L 14.585,20.041 L 14.582,20.033 L 14.585,20.025 L 14.577,19.964 L 14.557,19.901 L 14.543,19.844 L 14.516,19.746 L 14.475,19.586 L 14.462,19.508 L 14.449,19.422 L 14.446,19.32 L 14.454,19.25 L 14.454,19.233 L 14.466,19.197 L 14.47,19.17 L 14.5,19.1 L 14.536,19.023 L 14.565,18.927 L 14.582,18.855 L 14.577,18.761 L 14.544,18.639 L 14.528,18.593 L 14.507,18.548 L 14.483,18.519 L 14.45,18.478 L 14.406,18.442 L 14.357,18.418 L 14.336,18.422 L 14.324,18.435 L 14.327,18.459 L 14.438,18.573 L 14.462,18.623 L 14.479,18.676 L 14.479,18.697 L 14.458,18.692 L 14.397,18.656 L 14.147,18.538 L 13.991,18.472 L 13.77,18.391 L 13.722,18.374 L 13.77,18.3 L 13.793,18.21 L 13.802,18.116 L 13.8,17.996 L 13.776,17.923 L 13.764,17.914 L 13.743,17.918 L 13.726,17.931 L 13.717,17.964 L 13.723,17.972 L 13.723,18.098 L 13.709,18.204 L 13.689,18.262 L 13.66,18.32 L 13.623,18.369 L 13.561,18.414 L 13.512,18.435 L 13.458,18.443 L 13.356,18.456 L 13.342,18.456 L 13.393,18.309 L 13.414,18.169 L 13.405,18.1 L 13.389,18.068 L 13.38,18.059 L 13.356,18.063 L 13.335,18.091 L 13.322,18.141 L 13.306,18.276 L 13.292,18.322 L 13.277,18.383 L 13.236,18.437 L 13.198,18.473 L 13.121,18.522 L 13.039,18.551 L 12.978,18.551 L 13.039,18.445 L 13.072,18.38 L 13.084,18.331 L 13.092,18.285 L 13.084,18.236 L 13.061,18.215 L 13.035,18.219 L 13.015,18.236 L 12.983,18.355 L 12.93,18.461 L 12.864,18.519 L 12.802,18.555 L 12.738,18.58 L 12.627,18.588 L 12.555,18.575 L 12.664,18.461 L 12.681,18.437 L 12.681,18.41 L 12.664,18.389 L 12.643,18.384 L 12.63,18.389 L 12.622,18.389 L 12.581,18.421 L 12.507,18.466 L 12.376,18.531 L 12.364,18.552 L 12.369,18.56 L 12.39,18.716 L 12.357,18.736 L 12.213,18.777 L 12.086,18.802 L 12.054,18.802 L 12.131,18.724 L 12.172,18.667 L 12.216,18.683 L 12.287,18.703 L 12.298,18.696 L 12.312,18.683 L 12.312,18.655 L 12.295,18.634 L 12.246,18.618 L 12.216,18.605 L 12.185,18.597 L 12.175,18.588 L 12.181,18.547 L 12.213,18.465 L 12.216,18.444 L 12.213,18.432 L 12.192,18.415 L 12.164,18.419 L 12.127,18.443 L 11.981,18.587 L 11.899,18.648 L 11.887,18.604 L 11.881,18.546 L 11.873,18.525 L 11.849,18.502 L 11.828,18.502 L 11.799,18.53 L 11.858,18.871 L 11.825,18.832 L 11.694,18.645 L 11.6,18.514 L 11.6,18.501 L 11.772,18.423 L 12.038,18.296 L 12.046,18.284 L 12.042,18.26 L 12.014,18.239 L 11.855,18.305 L 11.809,18.326 L 11.703,18.33 L 11.604,18.347 L 11.601,18.334 L 11.614,18.28 L 11.63,18.228 L 11.634,18.182 L 11.634,18.165 L 11.605,18.141 L 11.589,18.141 L 11.564,18.165 L 11.557,18.189 L 11.543,18.292 L 11.523,18.313 L 11.474,18.337 L 11.419,18.354 L 11.338,18.382 L 11.498,18.132 L 11.501,18.12 L 11.526,18.093 L 11.55,18.052 L 11.596,18.059 L 11.677,18.087 L 11.717,18.1 L 11.82,18.113 L 11.967,18.117 L 12.086,18.1 L 12.181,18.076 L 12.353,18 L 13.342,17.509 L 13.427,17.493 L 13.448,17.473 L 13.448,17.443 L 13.427,17.427 L 13.386,17.423 L 13.345,17.432 L 13.243,17.481 L 13.08,17.558 L 13.047,17.579 L 13.019,17.586 L 12.998,17.599 L 13.011,17.53 L 13.061,17.423 L 13.052,17.407 L 13.025,17.394 L 12.996,17.391 L 13.012,17.366 L 13.131,17.264 L 13.209,17.215 L 13.344,17.157 L 13.421,17.136 L 13.442,17.136 L 13.469,17.129 L 13.532,17.125 L 13.552,17.129 L 13.565,17.125 L 13.671,17.136 L 13.761,17.161 L 13.806,17.178 L 13.815,17.182 L 13.856,17.182 L 13.879,17.157 L 13.876,17.108 L 13.852,17.088 L 13.823,17.096 L 13.809,17.1 L 13.768,17.092 L 13.699,17.072 L 13.56,17.051 L 13.535,17.047 L 13.507,17.026 L 13.479,16.99 L 13.479,16.952 L 13.515,16.921 L 13.528,16.908 L 13.487,16.826 L 13.483,16.801 L 13.483,16.781 L 13.548,16.809 L 13.584,16.842 L 13.666,16.908 L 13.678,16.912 L 13.692,16.924 L 13.765,16.962 L 13.896,16.985 L 13.933,16.985 L 13.941,16.99 L 14.047,16.977 L 14.075,16.965 L 14.103,16.932 L 14.132,16.863 L 14.135,16.818 L 14.127,16.765 L 14.107,16.707 L 14.066,16.634 L 13.956,16.507 L 13.898,16.462 L 13.836,16.441 L 13.758,16.433 L 13.697,16.45 L 13.64,16.487 L 13.569,16.553 L 13.538,16.609 L 13.538,16.625 L 13.529,16.634 L 13.52,16.675 L 13.525,16.687 L 13.529,16.707 L 13.529,16.728 L 13.5,16.72 L 13.459,16.679 L 13.418,16.616 L 13.41,16.58 L 13.374,16.542 L 13.353,16.498 L 13.343,16.457 L 13.384,16.379 L 13.409,16.314 L 13.401,16.306 L 13.373,16.317 L 13.315,16.375 L 13.298,16.391 L 13.29,16.391 L 13.27,16.358 L 13.273,16.314 L 13.372,16.154 L 13.421,16.076 L 13.438,16.031 L 13.537,15.888 L 13.578,15.836 L 13.671,15.885 L 13.788,15.955 z M 13.501,16.543 L 13.498,16.564 L 13.481,16.576 L 13.448,16.581 L 13.427,16.584 L 13.419,16.576 L 13.427,16.548 L 13.445,16.535 L 13.499,16.54 L 13.501,16.543 z "
   style="fill:#ffd200;fill-rule:evenodd"
   id="path73" />
</svg>