<?xml version="1.0" encoding="UTF-8" standalone="no"?>
<!-- Created with Inkscape (http://www.inkscape.org/) -->
<svg
   xmlns:svg="http://www.w3.org/2000/svg"
   xmlns="http://www.w3.org/2000/svg"
   version="1.0"
   width="553.86633"
   height="800.33997"
   viewBox="0 0 26.53 38.336"
   id="Layer_1"
   xml:space="preserve"><defs
   id="defs144" />
<rect
   width="26.459999"
   height="38.265999"
   x="0.035"
   y="0.034998942"
   id="rect3" />
<rect
   width="26.459999"
   height="38.265999"
   x="0.035"
   y="0.034998942"
   style="fill:none;stroke:black;stroke-width:0.07;stroke-miterlimit:3.86400008"
   id="rect5" />
<path
   d="M 2.056,19.861999 L 11.994,12.005999 C 10.872,11.628999 10.076,10.682999 10.076,9.5769989 C 10.076,8.1379989 11.42,6.9729989 13.079,6.9729989 C 14.737,6.9729989 16.082,8.1379989 16.082,9.5769989 C 16.082,10.682999 15.284,11.630999 14.16,12.006999 L 23.898,19.861999 L 23.826,22.297999 L 13.087,13.445999 L 2.144,22.297999 L 2.056,19.861999 z M 11.381,9.5769989 C 11.381,10.389999 12.142,11.048999 13.078,11.048999 C 14.016,11.048999 14.775,10.389999 14.775,9.5769989 C 14.775,8.7639989 14.015,8.1039989 13.078,8.1039989 C 12.142,8.1039989 11.381,8.7639989 11.381,9.5769989 z "
   style="fill:#ffd200"
   id="path7" />
<path
   d="M 2.056,19.861999 L 11.994,12.005999 C 10.872,11.628999 10.076,10.682999 10.076,9.5769989 C 10.076,8.1379989 11.42,6.9729989 13.079,6.9729989 C 14.737,6.9729989 16.082,8.1379989 16.082,9.5769989 C 16.082,10.682999 15.284,11.630999 14.16,12.006999 L 23.898,19.861999 L 23.826,22.297999 L 13.087,13.445999 L 2.144,22.297999 L 2.056,19.861999 z M 11.381,9.5769989 C 11.381,10.389999 12.142,11.048999 13.078,11.048999 C 14.016,11.048999 14.775,10.389999 14.775,9.5769989 C 14.775,8.7639989 14.015,8.1039989 13.078,8.1039989 C 12.142,8.1039989 11.381,8.7639989 11.381,9.5769989 z "
   style="fill:none;stroke:#fdb714;stroke-width:0.182;stroke-miterlimit:3.86400008"
   id="path9" />
<polygon
   points="2.056,24.056 13.086,15.335 23.897,24.056 23.825,26.49 13.086,17.64 2.144,26.49 2.056,24.056 "
   transform="translate(4.078104e-7,-1.056472e-6)"
   style="fill:#ffd200"
   id="polygon11" />
<polygon
   points="2.056,24.056 13.086,15.335 23.897,24.056 23.825,26.49 13.086,17.64 2.144,26.49 2.056,24.056 "
   transform="translate(4.078104e-7,-1.056472e-6)"
   style="fill:none;stroke:#fdb714;stroke-width:0.182;stroke-miterlimit:3.86400008"
   id="polygon13" />
<path
   d="M 10.664,25.024999 L 15.601,28.078999 L 16.083,28.244999 L 16.096,28.395999 L 16.186,28.421999 L 16.21,28.738999 C 16.21,28.738999 16.517,28.790999 16.439,29.018999 C 16.363,29.247999 16.198,29.234999 16.198,29.234999 L 16.058,29.159999 L 15.651,29.299999 L 15.18,28.853999 L 10.358,25.647999 L 9.735,25.342999 C 9.735,25.342999 9.709,24.973999 9.824,24.833999 C 9.938,24.692999 10.193,24.579999 10.193,24.579999 L 10.587,24.999999 L 10.664,25.024999 z "
   style="fill:#ffd400"
   id="path15" />
<path
   d="M 10.664,25.024999 L 15.601,28.078999 L 16.083,28.244999 L 16.096,28.395999 L 16.186,28.421999 L 16.21,28.738999 C 16.21,28.738999 16.517,28.790999 16.439,29.018999 C 16.363,29.247999 16.198,29.234999 16.198,29.234999 L 16.058,29.159999 L 15.651,29.299999 L 15.18,28.853999 L 10.358,25.647999 L 9.735,25.342999 C 9.735,25.342999 9.709,24.973999 9.824,24.833999 C 9.938,24.692999 10.193,24.579999 10.193,24.579999 L 10.587,24.999999 L 10.664,25.024999 z "
   style="fill:none;stroke:black;stroke-width:0.07;stroke-miterlimit:3.86400008"
   id="path17" />
<path
   d="M 16.21,28.739999 C 16.21,28.739999 15.968,28.968999 16.059,29.160999 M 16.096,28.395999 C 16.096,28.395999 15.728,28.663999 15.639,29.249999 M 15.651,28.103999 C 15.651,28.103999 15.231,28.306999 15.18,28.853999 M 10.295,25.623999 C 10.295,25.623999 10.333,25.113999 10.664,25.024999"
   style="fill:none;stroke:black;stroke-width:0.07;stroke-miterlimit:3.86400008"
   id="path19" />
<path
   d="M 14.961,24.986999 L 10.024,28.040999 L 9.541,28.205999 L 9.528,28.357999 L 9.439,28.383999 L 9.414,28.701999 C 9.414,28.701999 9.108,28.752999 9.185,28.980999 C 9.26,29.209999 9.425,29.196999 9.425,29.196999 L 9.566,29.120999 L 9.974,29.260999 L 10.444,28.815999 L 15.266,25.609999 L 15.889,25.304999 C 15.889,25.304999 15.914,24.935999 15.799,24.795999 C 15.686,24.654999 15.431,24.541999 15.431,24.541999 L 15.036,24.960999 L 14.961,24.986999 z "
   style="fill:#ffd400"
   id="path21" />
<path
   d="M 14.961,24.986999 L 10.024,28.040999 L 9.541,28.205999 L 9.528,28.357999 L 9.439,28.383999 L 9.414,28.701999 C 9.414,28.701999 9.108,28.752999 9.185,28.980999 C 9.26,29.209999 9.425,29.196999 9.425,29.196999 L 9.566,29.120999 L 9.974,29.260999 L 10.444,28.815999 L 15.266,25.609999 L 15.889,25.304999 C 15.889,25.304999 15.914,24.935999 15.799,24.795999 C 15.686,24.654999 15.431,24.541999 15.431,24.541999 L 15.036,24.960999 L 14.961,24.986999 z "
   style="fill:none;stroke:black;stroke-width:0.07;stroke-miterlimit:3.86400008"
   id="path23" />
<path
   d="M 9.414,28.702999 C 9.414,28.702999 9.656,28.931999 9.566,29.121999 M 9.528,28.357999 C 9.528,28.357999 9.897,28.625999 9.986,29.211999 M 9.975,28.065999 C 9.975,28.065999 10.394,28.268999 10.445,28.815999 M 15.33,25.585999 C 15.33,25.585999 15.292,25.076999 14.961,24.986999"
   style="fill:none;stroke:black;stroke-width:0.07;stroke-miterlimit:3.86400008"
   id="path25" />
<path
   d="M 14.086,29.478999 L 13.876,30.126999 L 13.653,30.451999 L 13.488,30.368999 C 13.488,30.368999 13.507,30.017999 13.52,29.993999 C 13.532,29.968999 13.774,29.586999 13.774,29.586999 L 14.079,29.357999 L 14.086,29.478999 z "
   style="fill:#ffd200;fill-rule:evenodd"
   id="path27" />
<path
   d="M 14.086,29.478999 L 13.876,30.126999 L 13.653,30.451999 L 13.488,30.368999 C 13.488,30.368999 13.507,30.017999 13.52,29.993999 C 13.532,29.968999 13.774,29.586999 13.774,29.586999 L 14.079,29.357999 L 14.086,29.478999 z "
   style="fill:none;stroke:black;stroke-width:0.07;stroke-miterlimit:3.86400008"
   id="path29" />
<path
   d="M 13.901,29.655999 L 13.977,29.783999 M 13.769,29.719999 L 13.92,29.929999 M 13.628,29.834999 L 13.818,30.158999 M 13.571,29.961999 L 13.73,30.330999"
   style="fill:none;stroke:black;stroke-width:0.07;stroke-miterlimit:3.86400008"
   id="path31" />
<path
   d="M 12.063,24.611999 C 12.063,24.200999 12.378,23.867999 12.769,23.867999 C 13.159,23.867999 13.475,24.200999 13.475,24.611999 C 13.475,25.022999 13.159,25.355999 12.769,25.355999 C 12.379,25.355999 12.063,25.022999 12.063,24.611999 z M 12.343,24.542999 C 12.343,24.345999 12.526,24.186999 12.75,24.186999 C 12.976,24.186999 13.157,24.345999 13.157,24.542999 C 13.157,24.737999 12.975,24.897999 12.75,24.897999 C 12.525,24.897999 12.343,24.737999 12.343,24.542999 z "
   style="fill:#ffd400;fill-rule:evenodd"
   id="path33" />
<path
   d="M 12.063,24.611999 C 12.063,24.200999 12.378,23.867999 12.769,23.867999 C 13.159,23.867999 13.475,24.200999 13.475,24.611999 C 13.475,25.022999 13.159,25.355999 12.769,25.355999 C 12.379,25.355999 12.063,25.022999 12.063,24.611999 z M 12.343,24.542999 C 12.343,24.345999 12.526,24.186999 12.75,24.186999 C 12.976,24.186999 13.157,24.345999 13.157,24.542999 C 13.157,24.737999 12.975,24.897999 12.75,24.897999 C 12.525,24.897999 12.343,24.737999 12.343,24.542999 z "
   style="fill:none;stroke:black;stroke-width:0.07;stroke-miterlimit:3.86400008"
   id="path35" />
<path
   d="M 12.279,25.547999 L 13.933,25.547999 C 14.017,25.547999 14.085,25.614999 14.085,25.699999 L 14.085,25.916999 C 14.085,26.000999 14.017,26.067999 13.933,26.067999 L 12.279,26.067999 C 12.195,26.067999 12.126,26.000999 12.126,25.916999 L 12.126,25.699999 C 12.126,25.614999 12.195,25.547999 12.279,25.547999 z "
   style="fill:#ffd400"
   id="path37" />
<path
   d="M 12.279,25.547999 L 13.933,25.547999 C 14.017,25.547999 14.085,25.614999 14.085,25.699999 L 14.085,25.916999 C 14.085,26.000999 14.017,26.067999 13.933,26.067999 L 12.279,26.067999 C 12.195,26.067999 12.126,26.000999 12.126,25.916999 L 12.126,25.699999 C 12.126,25.614999 12.195,25.547999 12.279,25.547999 z "
   style="fill:none;stroke:black;stroke-width:0.07;stroke-miterlimit:3.86400008"
   id="path39" />
<path
   d="M 11.872,25.508999 L 11.975,25.508999 C 12.059,25.508999 12.126,25.577999 12.126,25.661999 L 12.126,25.864999 C 12.126,25.949999 12.059,26.016999 11.975,26.016999 L 11.872,26.016999 C 11.788,26.016999 11.719,25.949999 11.719,25.864999 L 11.719,25.661999 C 11.719,25.577999 11.788,25.508999 11.872,25.508999 z "
   style="fill:#ffd400"
   id="path41" />
<path
   d="M 11.872,25.508999 L 11.975,25.508999 C 12.059,25.508999 12.126,25.577999 12.126,25.661999 L 12.126,25.864999 C 12.126,25.949999 12.059,26.016999 11.975,26.016999 L 11.872,26.016999 C 11.788,26.016999 11.719,25.949999 11.719,25.864999 L 11.719,25.661999 C 11.719,25.577999 11.788,25.508999 11.872,25.508999 z "
   style="fill:none;stroke:black;stroke-width:0.07;stroke-miterlimit:3.86400008"
   id="path43" />
<path
   d="M 11.465,25.508999 L 11.568,25.508999 C 11.652,25.508999 11.719,25.577999 11.719,25.661999 L 11.719,25.864999 C 11.719,25.949999 11.652,26.016999 11.568,26.016999 L 11.465,26.016999 C 11.381,26.016999 11.313,25.949999 11.313,25.864999 L 11.313,25.661999 C 11.313,25.577999 11.381,25.508999 11.465,25.508999 z "
   style="fill:#ffd400"
   id="path45" />
<path
   d="M 11.465,25.508999 L 11.568,25.508999 C 11.652,25.508999 11.719,25.577999 11.719,25.661999 L 11.719,25.864999 C 11.719,25.949999 11.652,26.016999 11.568,26.016999 L 11.465,26.016999 C 11.381,26.016999 11.313,25.949999 11.313,25.864999 L 11.313,25.661999 C 11.313,25.577999 11.381,25.508999 11.465,25.508999 z "
   style="fill:none;stroke:black;stroke-width:0.07;stroke-miterlimit:3.86400008"
   id="path47" />
<path
   d="M 14.238,25.547999 L 14.301,25.547999 C 14.385,25.547999 14.454,25.614999 14.454,25.699999 L 14.454,25.902999 C 14.454,25.986999 14.385,26.054999 14.301,26.054999 L 14.238,26.054999 C 14.154,26.054999 14.086,25.986999 14.086,25.902999 L 14.086,25.699999 C 14.086,25.614999 14.154,25.547999 14.238,25.547999 z "
   style="fill:#ffd400"
   id="path49" />
<path
   d="M 14.238,25.547999 L 14.301,25.547999 C 14.385,25.547999 14.454,25.614999 14.454,25.699999 L 14.454,25.902999 C 14.454,25.986999 14.385,26.054999 14.301,26.054999 L 14.238,26.054999 C 14.154,26.054999 14.086,25.986999 14.086,25.902999 L 14.086,25.699999 C 14.086,25.614999 14.154,25.547999 14.238,25.547999 z "
   style="fill:none;stroke:black;stroke-width:0.07;stroke-miterlimit:3.86400008"
   id="path51" />
<path
   d="M 12.42,31.152999 L 12.715,31.185999 C 12.715,31.185999 12.694,31.603999 13.27,31.921999 C 13.27,31.921999 13.394,32.171999 13.123,32.272999 C 13.122,32.272999 12.307,31.741999 12.42,31.152999 z "
   style="fill:#ffd400"
   id="path53" />
<path
   d="M 12.42,31.152999 L 12.715,31.185999 C 12.715,31.185999 12.694,31.603999 13.27,31.921999 C 13.27,31.921999 13.394,32.171999 13.123,32.272999 C 13.122,32.272999 12.307,31.741999 12.42,31.152999 z "
   style="fill:none;stroke:black;stroke-width:0.07;stroke-miterlimit:3.86400008"
   id="path55" />
<path
   d="M 12.862,31.616999 C 12.862,31.616999 12.953,31.321999 12.896,31.140999 L 13.223,31.152999 C 13.223,31.152999 13.224,31.661999 13.087,31.797999 L 12.862,31.616999 z "
   style="fill:#ffd400;fill-rule:evenodd"
   id="path57" />
<path
   d="M 12.862,31.616999 C 12.862,31.616999 12.953,31.321999 12.896,31.140999 L 13.223,31.152999 C 13.223,31.152999 13.224,31.661999 13.087,31.797999 L 12.862,31.616999 z "
   style="fill:none;stroke:black;stroke-width:0.07;stroke-miterlimit:3.86400008"
   id="path59" />
<path
   d="M 16.017,29.309999 C 16.017,29.309999 16.255,28.845999 16.945,28.721999 C 16.945,28.721999 16.979,29.433999 16.538,29.999999 C 16.099,30.563999 15.577,30.712999 15.577,30.712999 L 15.485,30.204999 L 16.017,29.309999 z "
   style="fill:#ffd400"
   id="path61" />
<path
   d="M 16.017,29.309999 C 16.017,29.309999 16.255,28.845999 16.945,28.721999 C 16.945,28.721999 16.979,29.433999 16.538,29.999999 C 16.099,30.563999 15.577,30.712999 15.577,30.712999 L 15.485,30.204999 L 16.017,29.309999 z "
   style="fill:none;stroke:black;stroke-width:0.07;stroke-miterlimit:3.86400008"
   id="path63" />
<path
   d="M 15.701,30.430999 C 15.701,30.430999 16.164,30.079999 16.175,29.897999 C 16.187,29.716999 16.335,29.163999 16.707,29.094999"
   style="fill:none;stroke:black;stroke-width:0.07;stroke-miterlimit:3.86400008"
   id="path65" />
<path
   d="M 14.863,30.858999 C 14.863,30.858999 15.055,29.422999 16.016,29.208999 C 16.016,29.208999 15.994,30.383999 15.576,30.712999 L 15.214,30.949999 L 14.863,30.858999 z "
   style="fill:#ffd400"
   id="path67" />
<path
   d="M 14.863,30.858999 C 14.863,30.858999 15.055,29.422999 16.016,29.208999 C 16.016,29.208999 15.994,30.383999 15.576,30.712999 L 15.214,30.949999 L 14.863,30.858999 z "
   style="fill:none;stroke:black;stroke-width:0.07;stroke-miterlimit:3.86400008"
   id="path69" />
<path
   d="M 15.181,30.778999 C 15.181,30.778999 15.293,30.088999 15.78,29.580999"
   style="fill:none;stroke:black;stroke-width:0.07;stroke-miterlimit:3.86400008"
   id="path71" />
<path
   d="M 14.377,31.130999 C 14.377,31.130999 15.182,30.518999 16.13,30.778999 C 16.13,30.778999 15.939,31.412999 15.361,31.548999 C 14.784,31.685999 14.479,31.470999 14.479,31.470999 L 14.217,31.378999 L 14.377,31.130999 z "
   style="fill:#ffd400"
   id="path73" />
<path
   d="M 14.377,31.130999 C 14.377,31.130999 15.182,30.518999 16.13,30.778999 C 16.13,30.778999 15.939,31.412999 15.361,31.548999 C 14.784,31.685999 14.479,31.470999 14.479,31.470999 L 14.217,31.378999 L 14.377,31.130999 z "
   style="fill:none;stroke:black;stroke-width:0.07;stroke-miterlimit:3.86400008"
   id="path75" />
<path
   d="M 14.343,31.367999 C 14.343,31.367999 15.397,31.220999 15.712,31.005999"
   style="fill:none;stroke:black;stroke-width:0.07;stroke-miterlimit:3.86400008"
   id="path77" />
<path
   d="M 14.287,31.311999 C 14.287,31.311999 14.909,31.663999 14.988,32.058999 C 14.988,32.058999 14.377,31.955999 13.981,31.989999 C 13.585,32.023999 13.314,32.012999 13.132,31.742999 L 13.563,31.379999 L 14.287,31.311999 z "
   style="fill:#ffd400;fill-rule:evenodd"
   id="path79" />
<path
   d="M 14.287,31.311999 C 14.287,31.311999 14.909,31.663999 14.988,32.058999 C 14.988,32.058999 14.377,31.955999 13.981,31.989999 C 13.585,32.023999 13.314,32.012999 13.132,31.742999 L 13.563,31.379999 L 14.287,31.311999 z "
   style="fill:none;stroke:black;stroke-width:0.07;stroke-miterlimit:3.86400008"
   id="path81" />
<path
   d="M 13.247,31.662999 C 13.247,31.662999 14.017,31.423999 14.502,31.786999"
   style="fill:none;stroke:black;stroke-width:0.07;stroke-miterlimit:3.86400008"
   id="path83" />
<path
   d="M 13.145,31.662999 C 13.145,31.662999 13.995,31.786999 14.288,31.310999 C 14.581,30.836999 14.581,30.417999 14.581,30.417999 L 13.304,31.230999 L 13.2,31.378999 L 13.189,31.582999 L 13.145,31.662999 z "
   style="fill:#ffd400"
   id="path85" />
<path
   d="M 13.145,31.662999 C 13.145,31.662999 13.995,31.786999 14.288,31.310999 C 14.581,30.836999 14.581,30.417999 14.581,30.417999 L 13.304,31.230999 L 13.2,31.378999 L 13.189,31.582999 L 13.145,31.662999 z "
   style="fill:none;stroke:black;stroke-width:0.07;stroke-miterlimit:3.86400008"
   id="path87" />
<path
   d="M 13.189,31.582999 C 13.189,31.582999 14.217,31.117999 14.4,30.768999"
   style="fill:none;stroke:black;stroke-width:0.07;stroke-miterlimit:3.86400008"
   id="path89" />
<path
   d="M 9.623,29.383999 C 9.623,29.383999 9.385,28.918999 8.695,28.795999 C 8.695,28.795999 8.662,29.506999 9.102,30.071999 C 9.542,30.637999 10.064,30.785999 10.064,30.785999 L 10.155,30.276999 L 9.623,29.383999 z "
   style="fill:#ffd400"
   id="path91" />
<path
   d="M 9.623,29.383999 C 9.623,29.383999 9.385,28.918999 8.695,28.795999 C 8.695,28.795999 8.662,29.506999 9.102,30.071999 C 9.542,30.637999 10.064,30.785999 10.064,30.785999 L 10.155,30.276999 L 9.623,29.383999 z "
   style="fill:none;stroke:black;stroke-width:0.07;stroke-miterlimit:3.86400008"
   id="path93" />
<path
   d="M 9.939,30.503999 C 9.939,30.503999 9.476,30.151999 9.463,29.971999 C 9.452,29.790999 9.303,29.235999 8.932,29.168999"
   style="fill:none;stroke:black;stroke-width:0.07;stroke-miterlimit:3.86400008"
   id="path95" />
<path
   d="M 10.777,30.932999 C 10.777,30.932999 10.585,29.496999 9.623,29.282999 C 9.623,29.282999 9.645,30.458999 10.064,30.786999 L 10.425,31.022999 L 10.777,30.932999 z "
   style="fill:#ffd400"
   id="path97" />
<path
   d="M 10.777,30.932999 C 10.777,30.932999 10.585,29.496999 9.623,29.282999 C 9.623,29.282999 9.645,30.458999 10.064,30.786999 L 10.425,31.022999 L 10.777,30.932999 z "
   style="fill:none;stroke:black;stroke-width:0.07;stroke-miterlimit:3.86400008"
   id="path99" />
<path
   d="M 10.46,30.853999 C 10.46,30.853999 10.346,30.163999 9.86,29.653999"
   style="fill:none;stroke:black;stroke-width:0.07;stroke-miterlimit:3.86400008"
   id="path101" />
<path
   d="M 11.264,31.203999 C 11.264,31.203999 10.458,30.591999 9.509,30.852999 C 9.509,30.852999 9.702,31.485999 10.279,31.622999 C 10.857,31.758999 11.161,31.543999 11.161,31.543999 L 11.422,31.452999 L 11.264,31.203999 z "
   style="fill:#ffd400"
   id="path103" />
<path
   d="M 11.264,31.203999 C 11.264,31.203999 10.458,30.591999 9.509,30.852999 C 9.509,30.852999 9.702,31.485999 10.279,31.622999 C 10.857,31.758999 11.161,31.543999 11.161,31.543999 L 11.422,31.452999 L 11.264,31.203999 z "
   style="fill:none;stroke:black;stroke-width:0.07;stroke-miterlimit:3.86400008"
   id="path105" />
<path
   d="M 11.296,31.440999 C 11.296,31.440999 10.243,31.293999 9.928,31.078999"
   style="fill:none;stroke:black;stroke-width:0.07;stroke-miterlimit:3.86400008"
   id="path107" />
<path
   d="M 11.354,31.385999 C 11.354,31.385999 10.732,31.735999 10.653,32.131999 C 10.653,32.131999 11.264,32.028999 11.659,32.063999 C 12.056,32.096999 12.326,32.085999 12.508,31.814999 L 12.078,31.453999 L 11.354,31.385999 z "
   style="fill:#ffd400;fill-rule:evenodd"
   id="path109" />
<path
   d="M 11.354,31.385999 C 11.354,31.385999 10.732,31.735999 10.653,32.131999 C 10.653,32.131999 11.264,32.028999 11.659,32.063999 C 12.056,32.096999 12.326,32.085999 12.508,31.814999 L 12.078,31.453999 L 11.354,31.385999 z "
   style="fill:none;stroke:black;stroke-width:0.07;stroke-miterlimit:3.86400008"
   id="path111" />
<path
   d="M 12.394,31.734999 C 12.394,31.734999 11.623,31.497999 11.139,31.858999"
   style="fill:none;stroke:black;stroke-width:0.07;stroke-miterlimit:3.86400008"
   id="path113" />
<path
   d="M 12.495,31.734999 C 12.495,31.734999 11.646,31.858999 11.353,31.384999 C 11.059,30.909999 11.059,30.491999 11.059,30.491999 L 12.336,31.304999 L 12.439,31.450999 L 12.45,31.653999 L 12.495,31.734999 z "
   style="fill:#ffd400"
   id="path115" />
<path
   d="M 12.495,31.734999 C 12.495,31.734999 11.646,31.858999 11.353,31.384999 C 11.059,30.909999 11.059,30.491999 11.059,30.491999 L 12.336,31.304999 L 12.439,31.450999 L 12.45,31.653999 L 12.495,31.734999 z "
   style="fill:none;stroke:black;stroke-width:0.07;stroke-miterlimit:3.86400008"
   id="path117" />
<path
   d="M 12.45,31.655999 C 12.45,31.655999 11.421,31.190999 11.24,30.841999"
   style="fill:none;stroke:black;stroke-width:0.07;stroke-miterlimit:3.86400008"
   id="path119" />
<polygon
   points="12.612,31.753 12.319,32.048 12.578,32.285 12.804,32.023 12.612,31.753 "
   transform="translate(4.078104e-7,-1.056472e-6)"
   style="fill:#ffd400"
   id="polygon121" />
<polygon
   points="12.612,31.753 12.319,32.048 12.578,32.285 12.804,32.023 12.612,31.753 "
   transform="translate(4.078104e-7,-1.056472e-6)"
   style="fill:none;stroke:black;stroke-width:0.07;stroke-miterlimit:3.86400008"
   id="polygon123" />
<path
   d="M 12.565,26.076999 L 12.587,28.787999 C 12.587,28.787999 12.438,29.295999 12.18,29.295999 C 11.922,29.295999 11.389,28.723999 11.389,28.723999 L 11.803,28.715999 L 11.829,28.622999 L 10.812,27.955999 L 10.827,29.270999 C 10.827,29.270999 10.92,29.312999 10.935,29.224999 C 10.95,29.136999 11.061,28.956999 11.061,28.956999 C 11.061,28.956999 11.713,29.796999 12.471,29.857999 C 12.471,29.857999 12.779,29.997999 12.821,30.138999 C 12.821,30.138999 12.793,29.980999 13.043,29.919999 C 13.293,29.856999 14.05,29.823999 14.583,28.955999 L 14.726,29.120999 C 14.726,29.120999 14.883,29.246999 14.883,29.081999 C 14.883,28.916999 14.883,27.944999 14.883,27.944999 L 13.848,28.604999 C 13.848,28.604999 13.863,28.720999 14.036,28.705999 C 14.208,28.689999 14.296,28.713999 14.296,28.713999 C 14.296,28.713999 13.843,29.254999 13.655,29.293999 C 13.467,29.331999 13.34,29.269999 13.136,29.081999 C 13.136,29.081999 13.074,29.073999 13.074,28.832999 C 13.074,28.589999 13.066,26.051999 13.066,26.051999 L 12.565,26.076999 z "
   style="fill:#ffd400;fill-rule:evenodd"
   id="path125" />
<path
   d="M 12.565,26.076999 L 12.587,28.787999 C 12.587,28.787999 12.438,29.295999 12.18,29.295999 C 11.922,29.295999 11.389,28.723999 11.389,28.723999 L 11.803,28.715999 L 11.829,28.622999 L 10.812,27.955999 L 10.827,29.270999 C 10.827,29.270999 10.92,29.312999 10.935,29.224999 C 10.95,29.136999 11.061,28.956999 11.061,28.956999 C 11.061,28.956999 11.713,29.796999 12.471,29.857999 C 12.471,29.857999 12.779,29.997999 12.821,30.138999 C 12.821,30.138999 12.793,29.980999 13.043,29.919999 C 13.293,29.856999 14.05,29.823999 14.583,28.955999 L 14.726,29.120999 C 14.726,29.120999 14.883,29.246999 14.883,29.081999 C 14.883,28.916999 14.883,27.944999 14.883,27.944999 L 13.848,28.604999 C 13.848,28.604999 13.863,28.720999 14.036,28.705999 C 14.208,28.689999 14.296,28.713999 14.296,28.713999 C 14.296,28.713999 13.843,29.254999 13.655,29.293999 C 13.467,29.331999 13.34,29.269999 13.136,29.081999 C 13.136,29.081999 13.074,29.073999 13.074,28.832999 C 13.074,28.589999 13.066,26.051999 13.066,26.051999 L 12.565,26.076999 z "
   style="fill:none;stroke:black;stroke-width:0.07;stroke-miterlimit:3.86400008"
   id="path127" />
<path
   d="M 12.572,27.040999 C 12.572,27.040999 11.946,27.624999 12.588,28.353999 C 12.588,28.353999 13.214,28.672999 13.613,28.775999 C 14.013,28.879999 13.958,29.059999 13.958,29.059999 L 13.755,29.263999 L 13.655,29.294999 C 13.655,29.294999 12.81,28.887999 12.268,28.722999 C 12.268,28.722999 11.786,28.399999 11.812,27.719999 C 11.837,27.039999 12.472,26.609999 12.472,26.609999 L 12.572,26.570999 L 12.572,27.040999 L 12.572,27.040999 z "
   style="fill:#ffd200"
   id="path129" />
<path
   d="M 12.572,27.040999 C 12.572,27.040999 11.946,27.624999 12.588,28.353999 C 12.588,28.353999 13.214,28.672999 13.613,28.775999 C 14.013,28.879999 13.958,29.059999 13.958,29.059999 L 13.755,29.263999 L 13.655,29.294999 C 13.655,29.294999 12.81,28.887999 12.268,28.722999 C 12.268,28.722999 11.786,28.399999 11.812,27.719999 C 11.837,27.039999 12.472,26.609999 12.472,26.609999 L 12.572,26.570999 L 12.572,27.040999 L 12.572,27.040999 z "
   style="fill:none;stroke:black;stroke-width:0.07;stroke-miterlimit:3.86400008"
   id="path131" />
<path
   d="M 13.087,26.679999 C 13.087,26.679999 13.78,26.342999 13.787,25.935999 C 13.793,25.528999 13.876,25.235999 13.558,24.956999 C 13.24,24.676999 13.048,24.561999 13.048,24.561999 L 12.831,24.536999 L 12.781,24.632999 L 12.8,24.746999 L 12.99,24.765999 C 12.99,24.765999 13.582,25.032999 13.525,25.471999 C 13.467,25.910999 13.404,26.184999 13.067,26.305999 L 13.087,26.679999 z "
   style="fill:#ffd200"
   id="path133" />
<path
   d="M 13.087,26.679999 C 13.087,26.679999 13.78,26.342999 13.787,25.935999 C 13.793,25.528999 13.876,25.235999 13.558,24.956999 C 13.24,24.676999 13.048,24.561999 13.048,24.561999 L 12.831,24.536999 L 12.781,24.632999 L 12.8,24.746999 L 12.99,24.765999 C 12.99,24.765999 13.582,25.032999 13.525,25.471999 C 13.467,25.910999 13.404,26.184999 13.067,26.305999 L 13.087,26.679999 z "
   style="fill:none;stroke:black;stroke-width:0.07;stroke-miterlimit:3.86400008"
   id="path135" />
<path
   d="M 12.661,25.826999 C 12.661,25.734999 12.732,25.661999 12.82,25.661999 C 12.908,25.661999 12.979,25.734999 12.979,25.826999 C 12.979,25.918999 12.908,25.992999 12.82,25.992999 C 12.732,25.992999 12.661,25.918999 12.661,25.826999 z M 13.917,28.962999 L 13.628,29.293999 M 13.802,28.855999 L 13.523,29.239999 M 13.673,28.775999 L 13.437,29.192999 M 13.504,28.747999 L 13.318,29.136999 M 13.36,28.693999 L 13.162,29.083999 M 13.203,28.635999 L 12.993,28.995999 M 13.05,28.566999 L 12.832,28.932999 M 12.905,28.508999 L 12.661,28.868999 M 12.761,28.442999 L 12.523,28.814999 M 12.634,28.390999 L 12.33,28.747999 M 12.534,28.304999 L 12.085,28.600999 M 12.457,28.197999 L 11.97,28.414999 M 12.39,28.070999 L 11.876,28.174999 M 12.33,27.938999 L 11.835,27.976999 M 11.828,27.803999 L 12.289,27.785999 M 12.289,27.676999 L 11.835,27.605999 M 11.864,27.431999 L 12.295,27.588999 M 11.936,27.239999 L 12.313,27.472999 M 12.011,27.083999 L 12.361,27.372999 M 12.132,26.944999 L 12.424,27.215999 M 12.254,26.803999 L 12.523,27.089999 M 12.342,26.700999 L 12.57,26.937999 M 12.434,26.629999 L 12.57,26.774999 M 13.316,24.999999 L 13.456,24.879999 M 13.393,25.062999 L 13.559,24.955999 M 13.443,25.145999 L 13.633,25.030999 M 13.494,25.209999 L 13.691,25.127999 M 13.514,25.305999 L 13.743,25.267999 M 13.78,25.388999 L 13.539,25.388999 M 13.526,25.470999 L 13.78,25.496999 M 13.793,25.623999 L 13.514,25.571999 M 13.494,25.661999 L 13.793,25.699999 M 13.259,24.949999 L 13.373,24.820999 M 13.157,24.859999 L 13.265,24.732999 M 13.068,24.802999 L 13.163,24.650999 M 12.96,24.752999 L 13.018,24.586999 M 12.832,24.752999 L 12.909,24.572999 M 13.494,25.750999 L 13.78,25.801999 M 13.476,25.833999 L 13.761,25.954999 M 13.411,25.909999 L 13.73,26.105999 M 13.399,26.004999 L 13.66,26.233999 M 13.342,26.105999 L 13.565,26.334999 M 13.291,26.183999 L 13.469,26.405999 M 13.163,26.239999 L 13.373,26.494999 M 13.101,26.310999 L 13.259,26.578999"
   style="fill:none;stroke:black;stroke-width:0.07;stroke-miterlimit:3.86400008"
   id="path137" />
<path
   d="M 12.61,24.693999 L 13.017,24.693999 C 13.031,24.693999 13.041,24.706999 13.041,24.719999 L 13.041,25.533999 C 13.041,25.547999 13.03,25.557999 13.017,25.557999 L 12.61,25.557999 C 12.595,25.557999 12.585,25.546999 12.585,25.533999 L 12.585,24.719999 C 12.585,24.706999 12.596,24.693999 12.61,24.693999 z "
   style="fill:#ffd400"
   id="path139" />
<path
   d="M 12.61,24.693999 L 13.017,24.693999 C 13.031,24.693999 13.041,24.706999 13.041,24.719999 L 13.041,25.533999 C 13.041,25.547999 13.03,25.557999 13.017,25.557999 L 12.61,25.557999 C 12.595,25.557999 12.585,25.546999 12.585,25.533999 L 12.585,24.719999 C 12.585,24.706999 12.596,24.693999 12.61,24.693999 z "
   style="fill:none;stroke:black;stroke-width:0.07;stroke-miterlimit:3.86400008"
   id="path141" />
</svg>