<?xml version="1.0" encoding="UTF-8" standalone="no"?>
<!-- Created with Inkscape (http://www.inkscape.org/) -->
<svg
   xmlns:svg="http://www.w3.org/2000/svg"
   xmlns="http://www.w3.org/2000/svg"
   version="1.0"
   width="802.15503"
   height="1180.2159"
   viewBox="0 0 802.155 1180.216"
   id="Layer_1"
   xml:space="preserve"><defs
   id="defs140" />
<rect
   width="800"
   height="1178.061"
   x="1.0779999"
   y="1.0779999"
   id="rect3" />
<rect
   width="800"
   height="1178.061"
   x="1.0779999"
   y="1.0779999"
   style="fill:none;stroke:#000000;stroke-width:2.15490007;stroke-miterlimit:3.86400008"
   id="rect5" />
<path
   d="M 70.524,647.859 L 376.462,405.969 C 341.905,394.365 317.418,365.264 317.418,331.172 C 317.418,286.919 358.8,251.023 409.833,251.023 C 460.911,251.023 502.292,286.919 502.292,331.172 C 502.292,365.294 477.746,394.425 443.142,406.029 L 742.903,647.858 L 740.709,722.806 L 410.119,450.313 L 73.245,722.808 L 70.524,647.859 z M 357.598,331.173 C 357.598,356.215 380.988,376.508 409.833,376.508 C 438.708,376.508 462.113,356.216 462.113,331.173 C 462.113,306.16 438.709,285.867 409.833,285.867 C 380.988,285.867 357.598,306.16 357.598,331.173 z "
   style="fill:#ffd600"
   id="path7" />
<path
   d="M 70.524,647.859 L 376.462,405.969 C 341.905,394.365 317.418,365.264 317.418,331.172 C 317.418,286.919 358.8,251.023 409.833,251.023 C 460.911,251.023 502.292,286.919 502.292,331.172 C 502.292,365.294 477.746,394.425 443.142,406.029 L 742.903,647.858 L 740.709,722.806 L 410.119,450.313 L 73.245,722.808 L 70.524,647.859 z M 357.598,331.173 C 357.598,356.215 380.988,376.508 409.833,376.508 C 438.708,376.508 462.113,356.216 462.113,331.173 C 462.113,306.16 438.709,285.867 409.833,285.867 C 380.988,285.867 357.598,306.16 357.598,331.173 z "
   style="fill:none;stroke:#ffb000;stroke-width:5.60279989;stroke-miterlimit:3.86400008"
   id="path9" />
<path
   d="M 351.165,752.359 L 503.15,846.338 L 518.016,851.447 L 518.422,856.138 L 521.157,856.919 L 521.923,866.72 C 521.923,866.72 531.349,868.283 528.974,875.348 C 526.643,882.382 521.533,881.993 521.533,881.993 L 517.249,879.647 L 504.683,883.946 L 490.223,870.238 L 341.77,771.54 L 322.59,762.131 C 322.59,762.131 321.794,750.797 325.341,746.467 C 328.842,742.168 336.69,738.651 336.69,738.651 L 348.82,751.578 L 351.165,752.359 z "
   style="fill:#ffd900"
   id="path11" />
<path
   d="M 351.165,752.359 L 503.15,846.338 L 518.016,851.447 L 518.422,856.138 L 521.157,856.919 L 521.923,866.72 C 521.923,866.72 531.349,868.283 528.974,875.348 C 526.643,882.382 521.533,881.993 521.533,881.993 L 517.249,879.647 L 504.683,883.946 L 490.223,870.238 L 341.77,771.54 L 322.59,762.131 C 322.59,762.131 321.794,750.797 325.341,746.467 C 328.842,742.168 336.69,738.651 336.69,738.651 L 348.82,751.578 L 351.165,752.359 z "
   style="fill:none;stroke:#000000;stroke-width:2.15490007;stroke-miterlimit:3.86400008"
   id="path13" />
<path
   d="M 521.924,866.721 C 521.924,866.721 514.484,873.756 517.25,879.648 M 518.422,856.139 C 518.422,856.139 507.058,864.375 504.322,882.383 M 504.683,847.149 C 504.683,847.149 491.786,853.402 490.223,870.238 M 339.831,770.758 C 339.831,770.758 341.003,755.095 351.165,752.36"
   style="fill:none;stroke:#000000;stroke-width:2.15490007;stroke-miterlimit:3.86400008"
   id="path15" />
<path
   d="M 483.473,751.187 L 331.489,845.165 L 316.622,850.276 L 316.216,854.965 L 313.48,855.747 L 312.713,865.548 C 312.713,865.548 303.318,867.111 305.664,874.176 C 308.009,881.211 313.119,880.82 313.119,880.82 L 317.418,878.446 L 329.954,882.775 L 344.415,869.066 L 492.867,770.369 L 512.047,760.988 C 512.047,760.988 512.844,749.624 509.311,745.295 C 505.794,740.997 497.947,737.48 497.947,737.48 L 485.817,750.376 L 483.473,751.187 z "
   style="fill:#ffd900"
   id="path17" />
<path
   d="M 483.473,751.187 L 331.489,845.165 L 316.622,850.276 L 316.216,854.965 L 313.48,855.747 L 312.713,865.548 C 312.713,865.548 303.318,867.111 305.664,874.176 C 308.009,881.211 313.119,880.82 313.119,880.82 L 317.418,878.446 L 329.954,882.775 L 344.415,869.066 L 492.867,770.369 L 512.047,760.988 C 512.047,760.988 512.844,749.624 509.311,745.295 C 505.794,740.997 497.947,737.48 497.947,737.48 L 485.817,750.376 L 483.473,751.187 z "
   style="fill:none;stroke:#000000;stroke-width:2.15490007;stroke-miterlimit:3.86400008"
   id="path19" />
<path
   d="M 312.714,865.548 C 312.714,865.548 320.17,872.582 317.419,878.445 M 316.216,854.965 C 316.216,854.965 327.579,863.173 330.316,881.211 M 329.955,845.946 C 329.955,845.946 342.852,852.229 344.416,869.065 M 494.837,769.586 C 494.837,769.586 493.665,753.923 483.473,751.187"
   style="fill:none;stroke:#000000;stroke-width:2.15490007;stroke-miterlimit:3.86400008"
   id="path21" />
<path
   d="M 456.537,889.448 L 450.073,909.381 L 443.204,919.392 L 438.138,916.836 C 438.138,916.836 438.709,906.073 439.116,905.292 C 439.491,904.51 446.932,892.755 446.932,892.755 L 456.328,885.721 L 456.537,889.448 z "
   style="fill:#ffd600;fill-rule:evenodd"
   id="path23" />
<path
   d="M 456.537,889.448 L 450.073,909.381 L 443.204,919.392 L 438.138,916.836 C 438.138,916.836 438.709,906.073 439.116,905.292 C 439.491,904.51 446.932,892.755 446.932,892.755 L 456.328,885.721 L 456.537,889.448 z "
   style="fill:none;stroke:#000000;stroke-width:2.15490007;stroke-miterlimit:3.86400008"
   id="path25" />
<path
   d="M 450.839,894.92 L 453.185,898.828 M 446.751,896.843 L 451.456,903.338 M 442.437,900.391 L 448.314,910.371 M 440.693,904.3 L 445.548,915.664"
   style="fill:none;stroke:#000000;stroke-width:2.15490007;stroke-miterlimit:3.86400008"
   id="path27" />
<path
   d="M 394.26,739.643 C 394.26,726.986 403.986,716.705 415.996,716.705 C 428.006,716.705 437.732,726.985 437.732,739.643 C 437.732,752.301 428.006,762.551 415.996,762.551 C 403.986,762.551 394.26,752.3 394.26,739.643 z M 402.889,737.479 C 402.889,731.436 408.48,726.536 415.41,726.536 C 422.339,726.536 427.947,731.436 427.947,737.479 C 427.947,743.522 422.34,748.452 415.41,748.452 C 408.48,748.451 402.889,743.521 402.889,737.479 z "
   style="fill:#ffd900;fill-rule:evenodd"
   id="path29" />
<path
   d="M 394.26,739.643 C 394.26,726.986 403.986,716.705 415.996,716.705 C 428.006,716.705 437.732,726.985 437.732,739.643 C 437.732,752.301 428.006,762.551 415.996,762.551 C 403.986,762.551 394.26,752.3 394.26,739.643 z M 402.889,737.479 C 402.889,731.436 408.48,726.536 415.41,726.536 C 422.339,726.536 427.947,731.436 427.947,737.479 C 427.947,743.522 422.34,748.452 415.41,748.452 C 408.48,748.451 402.889,743.521 402.889,737.479 z "
   style="fill:none;stroke:#000000;stroke-width:2.15490007;stroke-miterlimit:3.86400008"
   id="path31" />
<path
   d="M 400.919,768.413 L 451.831,768.413 C 454.447,768.413 456.536,770.517 456.536,773.103 L 456.536,779.747 C 456.536,782.363 454.447,784.467 451.831,784.467 L 400.919,784.467 C 398.319,784.467 396.23,782.363 396.23,779.747 L 396.23,773.103 C 396.23,770.518 398.319,768.413 400.919,768.413 z "
   style="fill:#ffd900"
   id="path33" />
<path
   d="M 400.919,768.413 L 451.831,768.413 C 454.447,768.413 456.536,770.517 456.536,773.103 L 456.536,779.747 C 456.536,782.363 454.447,784.467 451.831,784.467 L 400.919,784.467 C 398.319,784.467 396.23,782.363 396.23,779.747 L 396.23,773.103 C 396.23,770.518 398.319,768.413 400.919,768.413 z "
   style="fill:none;stroke:#000000;stroke-width:2.15490007;stroke-miterlimit:3.86400008"
   id="path35" />
<path
   d="M 388.383,767.211 L 391.525,767.211 C 394.11,767.211 396.23,769.346 396.23,771.932 L 396.23,778.214 C 396.23,780.8 394.11,782.904 391.525,782.904 L 388.383,782.904 C 385.798,782.904 383.678,780.8 383.678,778.214 L 383.678,771.932 C 383.679,769.346 385.798,767.211 388.383,767.211 z "
   style="fill:#ffd900"
   id="path37" />
<path
   d="M 388.383,767.211 L 391.525,767.211 C 394.11,767.211 396.23,769.346 396.23,771.932 L 396.23,778.214 C 396.23,780.8 394.11,782.904 391.525,782.904 L 388.383,782.904 C 385.798,782.904 383.678,780.8 383.678,778.214 L 383.678,771.932 C 383.679,769.346 385.798,767.211 388.383,767.211 z "
   style="fill:none;stroke:#000000;stroke-width:2.15490007;stroke-miterlimit:3.86400008"
   id="path39" />
<path
   d="M 375.847,767.211 L 378.989,767.211 C 381.574,767.211 383.679,769.346 383.679,771.932 L 383.679,778.214 C 383.679,780.8 381.574,782.904 378.989,782.904 L 375.847,782.904 C 373.262,782.904 371.142,780.8 371.142,778.214 L 371.142,771.932 C 371.142,769.346 373.262,767.211 375.847,767.211 z "
   style="fill:#ffd900"
   id="path41" />
<path
   d="M 375.847,767.211 L 378.989,767.211 C 381.574,767.211 383.679,769.346 383.679,771.932 L 383.679,778.214 C 383.679,780.8 381.574,782.904 378.989,782.904 L 375.847,782.904 C 373.262,782.904 371.142,780.8 371.142,778.214 L 371.142,771.932 C 371.142,769.346 373.262,767.211 375.847,767.211 z "
   style="fill:none;stroke:#000000;stroke-width:2.15490007;stroke-miterlimit:3.86400008"
   id="path43" />
<path
   d="M 461.226,768.413 L 463.196,768.413 C 465.781,768.413 467.901,770.517 467.901,773.103 L 467.901,779.386 C 467.901,781.971 465.782,784.075 463.196,784.075 L 461.226,784.075 C 458.641,784.075 456.537,781.971 456.537,779.386 L 456.537,773.103 C 456.537,770.518 458.641,768.413 461.226,768.413 z "
   style="fill:#ffd900"
   id="path45" />
<path
   d="M 461.226,768.413 L 463.196,768.413 C 465.781,768.413 467.901,770.517 467.901,773.103 L 467.901,779.386 C 467.901,781.971 465.782,784.075 463.196,784.075 L 461.226,784.075 C 458.641,784.075 456.537,781.971 456.537,779.386 L 456.537,773.103 C 456.537,770.518 458.641,768.413 461.226,768.413 z "
   style="fill:none;stroke:#000000;stroke-width:2.15490007;stroke-miterlimit:3.86400008"
   id="path47" />
<path
   d="M 405.249,941.006 L 414.328,942.028 C 414.328,942.028 413.682,954.895 431.389,964.666 C 431.389,964.666 435.207,972.363 426.865,975.489 C 426.865,975.489 401.747,959.104 405.249,941.006 z "
   style="fill:#ffd900"
   id="path49" />
<path
   d="M 405.249,941.006 L 414.328,942.028 C 414.328,942.028 413.682,954.895 431.389,964.666 C 431.389,964.666 435.207,972.363 426.865,975.489 C 426.865,975.489 401.747,959.104 405.249,941.006 z "
   style="fill:none;stroke:#000000;stroke-width:2.15490007;stroke-miterlimit:3.86400008"
   id="path51" />
<path
   d="M 418.867,955.257 C 418.867,955.257 421.663,946.238 419.905,940.646 L 429.976,941.006 C 429.976,941.006 430.006,956.64 425.812,960.818 L 418.867,955.257 z "
   style="fill:#ffd900;fill-rule:evenodd"
   id="path53" />
<path
   d="M 418.867,955.257 C 418.867,955.257 421.663,946.238 419.905,940.646 L 429.976,941.006 C 429.976,941.006 430.006,956.64 425.812,960.818 L 418.867,955.257 z "
   style="fill:none;stroke:#000000;stroke-width:2.15490007;stroke-miterlimit:3.86400008"
   id="path55" />
<path
   d="M 515.987,884.247 C 515.987,884.247 523.308,869.968 544.517,866.149 C 544.517,866.149 545.569,888.064 531.996,905.471 C 518.423,922.878 502.414,927.417 502.414,927.417 L 499.573,911.784 L 515.987,884.247 z "
   style="fill:#ffd900"
   id="path57" />
<path
   d="M 515.987,884.247 C 515.987,884.247 523.308,869.968 544.517,866.149 C 544.517,866.149 545.569,888.064 531.996,905.471 C 518.423,922.878 502.414,927.417 502.414,927.417 L 499.573,911.784 L 515.987,884.247 z "
   style="fill:none;stroke:#000000;stroke-width:2.15490007;stroke-miterlimit:3.86400008"
   id="path59" />
<path
   d="M 506.262,918.76 C 506.262,918.76 520.512,907.937 520.857,902.376 C 521.188,896.784 525.773,879.708 537.227,877.663"
   style="fill:none;stroke:#000000;stroke-width:2.15490007;stroke-miterlimit:3.86400008"
   id="path61" />
<path
   d="M 480.437,931.958 C 480.437,931.958 486.375,887.734 515.987,881.12 C 515.987,881.12 515.281,917.287 502.413,927.418 L 491.26,934.723 L 480.437,931.958 z "
   style="fill:#ffd900"
   id="path63" />
<path
   d="M 480.437,931.958 C 480.437,931.958 486.375,887.734 515.987,881.12 C 515.987,881.12 515.281,917.287 502.413,927.418 L 491.26,934.723 L 480.437,931.958 z "
   style="fill:none;stroke:#000000;stroke-width:2.15490007;stroke-miterlimit:3.86400008"
   id="path65" />
<path
   d="M 490.223,929.493 C 490.223,929.493 493.694,908.237 508.667,892.575"
   style="fill:none;stroke:#000000;stroke-width:2.15490007;stroke-miterlimit:3.86400008"
   id="path67" />
<path
   d="M 465.495,940.286 C 465.495,940.286 490.252,921.465 519.459,929.493 C 519.459,929.493 513.552,948.973 495.784,953.152 C 478.032,957.39 468.637,950.776 468.637,950.776 L 460.61,947.951 L 465.495,940.286 z "
   style="fill:#ffd900"
   id="path69" />
<path
   d="M 465.495,940.286 C 465.495,940.286 490.252,921.465 519.459,929.493 C 519.459,929.493 513.552,948.973 495.784,953.152 C 478.032,957.39 468.637,950.776 468.637,950.776 L 460.61,947.951 L 465.495,940.286 z "
   style="fill:none;stroke:#000000;stroke-width:2.15490007;stroke-miterlimit:3.86400008"
   id="path71" />
<path
   d="M 464.458,947.59 C 464.458,947.59 496.866,943.081 506.592,936.438"
   style="fill:none;stroke:#000000;stroke-width:2.15490007;stroke-miterlimit:3.86400008"
   id="path73" />
<path
   d="M 462.729,945.877 C 462.729,945.877 481.879,956.67 484.314,968.876 C 484.314,968.876 465.494,965.719 453.304,966.741 C 441.113,967.793 432.77,967.462 427.208,959.104 L 440.436,947.951 L 462.729,945.877 z "
   style="fill:#ffd900;fill-rule:evenodd"
   id="path75" />
<path
   d="M 462.729,945.877 C 462.729,945.877 481.879,956.67 484.314,968.876 C 484.314,968.876 465.494,965.719 453.304,966.741 C 441.113,967.793 432.77,967.462 427.208,959.104 L 440.436,947.951 L 462.729,945.877 z "
   style="fill:none;stroke:#000000;stroke-width:2.15490007;stroke-miterlimit:3.86400008"
   id="path77" />
<path
   d="M 430.712,956.67 C 430.712,956.67 454.387,949.334 469.343,960.487"
   style="fill:none;stroke:#000000;stroke-width:2.15490007;stroke-miterlimit:3.86400008"
   id="path79" />
<path
   d="M 427.541,956.67 C 427.541,956.67 453.711,960.487 462.73,945.877 C 471.78,931.266 471.78,918.399 471.78,918.399 L 432.442,943.47 L 429.3,947.95 L 428.924,954.203 L 427.541,956.67 z "
   style="fill:#ffd900"
   id="path81" />
<path
   d="M 427.541,956.67 C 427.541,956.67 453.711,960.487 462.73,945.877 C 471.78,931.266 471.78,918.399 471.78,918.399 L 432.442,943.47 L 429.3,947.95 L 428.924,954.203 L 427.541,956.67 z "
   style="fill:none;stroke:#000000;stroke-width:2.15490007;stroke-miterlimit:3.86400008"
   id="path83" />
<path
   d="M 428.923,954.204 C 428.923,954.204 460.61,939.894 466.172,929.162"
   style="fill:none;stroke:#000000;stroke-width:2.15490007;stroke-miterlimit:3.86400008"
   id="path85" />
<path
   d="M 319.147,886.502 C 319.147,886.502 311.797,872.192 290.571,868.404 C 290.571,868.404 289.565,890.29 303.108,907.726 C 316.682,925.164 332.72,929.672 332.72,929.672 L 335.531,914.039 L 319.147,886.502 z "
   style="fill:#ffd900"
   id="path87" />
<path
   d="M 319.147,886.502 C 319.147,886.502 311.797,872.192 290.571,868.404 C 290.571,868.404 289.565,890.29 303.108,907.726 C 316.682,925.164 332.72,929.672 332.72,929.672 L 335.531,914.039 L 319.147,886.502 z "
   style="fill:none;stroke:#000000;stroke-width:2.15490007;stroke-miterlimit:3.86400008"
   id="path89" />
<path
   d="M 328.873,920.984 C 328.873,920.984 314.623,910.191 314.278,904.63 C 313.917,899.037 309.332,881.962 297.878,879.887"
   style="fill:none;stroke:#000000;stroke-width:2.15490007;stroke-miterlimit:3.86400008"
   id="path91" />
<path
   d="M 354.667,934.243 C 354.667,934.243 348.759,889.989 319.147,883.405 C 319.147,883.405 319.854,919.571 332.721,929.673 L 343.874,937.008 L 354.667,934.243 z "
   style="fill:#ffd900"
   id="path93" />
<path
   d="M 354.667,934.243 C 354.667,934.243 348.759,889.989 319.147,883.405 C 319.147,883.405 319.854,919.571 332.721,929.673 L 343.874,937.008 L 354.667,934.243 z "
   style="fill:none;stroke:#000000;stroke-width:2.15490007;stroke-miterlimit:3.86400008"
   id="path95" />
<path
   d="M 344.912,931.748 C 344.912,931.748 341.41,910.492 326.438,894.86"
   style="fill:none;stroke:#000000;stroke-width:2.15490007;stroke-miterlimit:3.86400008"
   id="path97" />
<path
   d="M 369.639,942.539 C 369.639,942.539 344.851,923.689 315.645,931.748 C 315.645,931.748 321.583,951.259 339.35,955.437 C 357.102,959.615 366.467,953.001 366.467,953.001 L 374.494,950.205 L 369.639,942.539 z "
   style="fill:#ffd900"
   id="path99" />
<path
   d="M 369.639,942.539 C 369.639,942.539 344.851,923.689 315.645,931.748 C 315.645,931.748 321.583,951.259 339.35,955.437 C 357.102,959.615 366.467,953.001 366.467,953.001 L 374.494,950.205 L 369.639,942.539 z "
   style="fill:none;stroke:#000000;stroke-width:2.15490007;stroke-miterlimit:3.86400008"
   id="path101" />
<path
   d="M 370.646,949.875 C 370.646,949.875 338.238,945.307 328.542,938.723"
   style="fill:none;stroke:#000000;stroke-width:2.15490007;stroke-miterlimit:3.86400008"
   id="path103" />
<path
   d="M 372.404,948.132 C 372.404,948.132 353.254,958.924 350.819,971.101 C 350.819,971.101 369.639,967.974 381.829,969.026 C 393.99,970.048 402.363,969.687 407.924,961.361 L 394.696,950.207 L 372.404,948.132 z "
   style="fill:#ffd900;fill-rule:evenodd"
   id="path105" />
<path
   d="M 372.404,948.132 C 372.404,948.132 353.254,958.924 350.819,971.101 C 350.819,971.101 369.639,967.974 381.829,969.026 C 393.99,970.048 402.363,969.687 407.924,961.361 L 394.696,950.207 L 372.404,948.132 z "
   style="fill:none;stroke:#000000;stroke-width:2.15490007;stroke-miterlimit:3.86400008"
   id="path107" />
<path
   d="M 404.422,958.924 C 404.422,958.924 380.717,951.59 365.791,962.742"
   style="fill:none;stroke:#000000;stroke-width:2.15490007;stroke-miterlimit:3.86400008"
   id="path109" />
<path
   d="M 407.563,958.924 C 407.563,958.924 381.423,962.742 372.404,948.132 C 363.355,933.521 363.355,920.654 363.355,920.654 L 402.693,945.726 L 405.835,950.205 L 406.181,956.488 L 407.563,958.924 z "
   style="fill:#ffd900"
   id="path111" />
<path
   d="M 407.563,958.924 C 407.563,958.924 381.423,962.742 372.404,948.132 C 363.355,933.521 363.355,920.654 363.355,920.654 L 402.693,945.726 L 405.835,950.205 L 406.181,956.488 L 407.563,958.924 z "
   style="fill:none;stroke:#000000;stroke-width:2.15490007;stroke-miterlimit:3.86400008"
   id="path113" />
<path
   d="M 406.181,956.489 C 406.181,956.489 374.494,942.179 368.932,931.386"
   style="fill:none;stroke:#000000;stroke-width:2.15490007;stroke-miterlimit:3.86400008"
   id="path115" />
<polygon
   points="411.171,959.436 402.137,968.515 410.119,975.82 417.079,967.793 411.171,959.436 "
   style="fill:#ffd900"
   id="polygon117" />
<polygon
   points="411.171,959.436 402.137,968.515 410.119,975.82 417.079,967.793 411.171,959.436 "
   style="fill:none;stroke:#000000;stroke-width:2.15490007;stroke-miterlimit:3.86400008"
   id="polygon119" />
<path
   d="M 409.683,784.707 L 410.419,868.163 C 410.419,868.163 405.804,883.767 397.898,883.767 C 389.947,883.767 373.517,866.21 373.517,866.21 L 386.294,865.939 L 387.09,863.084 L 355.78,842.55 L 356.246,883.074 C 356.246,883.074 359.101,884.367 359.568,881.662 C 360.034,878.956 363.476,873.394 363.476,873.394 C 363.476,873.394 383.542,899.248 406.857,901.172 C 406.857,901.172 416.372,905.441 417.635,909.83 C 417.635,909.83 416.763,904.96 424.46,903.066 C 432.156,901.171 455.47,900.119 471.87,873.393 L 476.274,878.474 C 476.274,878.474 481.114,882.351 481.114,877.27 C 481.114,872.221 481.114,842.307 481.114,842.307 L 449.187,862.63 C 449.187,862.63 449.684,866.208 455.004,865.696 C 460.295,865.246 463.001,865.936 463.001,865.936 C 463.001,865.936 449.067,882.592 443.279,883.764 C 437.492,884.966 433.569,883.072 427.331,877.269 C 427.331,877.269 425.422,877.059 425.422,869.604 C 425.422,862.119 425.166,784.013 425.166,784.013 L 409.683,784.707 z "
   style="fill:#ffd900;fill-rule:evenodd"
   id="path121" />
<path
   d="M 409.683,784.707 L 410.419,868.163 C 410.419,868.163 405.804,883.767 397.898,883.767 C 389.947,883.767 373.517,866.21 373.517,866.21 L 386.294,865.939 L 387.09,863.084 L 355.78,842.55 L 356.246,883.074 C 356.246,883.074 359.101,884.367 359.568,881.662 C 360.034,878.956 363.476,873.394 363.476,873.394 C 363.476,873.394 383.542,899.248 406.857,901.172 C 406.857,901.172 416.372,905.441 417.635,909.83 C 417.635,909.83 416.763,904.96 424.46,903.066 C 432.156,901.171 455.47,900.119 471.87,873.393 L 476.274,878.474 C 476.274,878.474 481.114,882.351 481.114,877.27 C 481.114,872.221 481.114,842.307 481.114,842.307 L 449.187,862.63 C 449.187,862.63 449.684,866.208 455.004,865.696 C 460.295,865.246 463.001,865.936 463.001,865.936 C 463.001,865.936 449.067,882.592 443.279,883.764 C 437.492,884.966 433.569,883.072 427.331,877.269 C 427.331,877.269 425.422,877.059 425.422,869.604 C 425.422,862.119 425.166,784.013 425.166,784.013 L 409.683,784.707 z "
   style="fill:none;stroke:#000000;stroke-width:2.15490007;stroke-miterlimit:3.86400008"
   id="path123" />
<path
   d="M 409.938,814.38 C 409.938,814.38 390.667,832.388 410.419,854.846 C 410.419,854.846 429.69,864.647 441.986,867.832 C 454.296,871.019 452.598,876.581 452.598,876.581 L 446.345,882.864 L 443.278,883.766 C 443.278,883.766 417.258,871.288 400.604,866.209 C 400.604,866.209 385.737,856.257 386.534,835.334 C 387.33,814.379 406.857,801.151 406.857,801.151 L 409.939,799.949 L 409.939,814.38 L 409.938,814.38 z "
   style="fill:#ffd600"
   id="path125" />
<path
   d="M 409.938,814.38 C 409.938,814.38 390.667,832.388 410.419,854.846 C 410.419,854.846 429.69,864.647 441.986,867.832 C 454.296,871.019 452.598,876.581 452.598,876.581 L 446.345,882.864 L 443.278,883.766 C 443.278,883.766 417.258,871.288 400.604,866.209 C 400.604,866.209 385.737,856.257 386.534,835.334 C 387.33,814.379 406.857,801.151 406.857,801.151 L 409.939,799.949 L 409.939,814.38 L 409.938,814.38 z "
   style="fill:none;stroke:#000000;stroke-width:2.15490007;stroke-miterlimit:3.86400008"
   id="path127" />
<path
   d="M 425.782,803.286 C 425.782,803.286 447.127,792.885 447.338,780.348 C 447.518,767.842 450.073,758.822 440.288,750.195 C 430.502,741.566 424.61,738.079 424.61,738.079 L 417.966,737.268 L 416.403,740.213 L 416.989,743.731 L 422.866,744.332 C 422.866,744.332 441.054,752.54 439.296,766.068 C 437.552,779.566 435.583,788.014 425.196,791.742 L 425.782,803.286 z "
   style="fill:#ffd600"
   id="path129" />
<path
   d="M 425.782,803.286 C 425.782,803.286 447.127,792.885 447.338,780.348 C 447.518,767.842 450.073,758.822 440.288,750.195 C 430.502,741.566 424.61,738.079 424.61,738.079 L 417.966,737.268 L 416.403,740.213 L 416.989,743.731 L 422.866,744.332 C 422.866,744.332 441.054,752.54 439.296,766.068 C 437.552,779.566 435.583,788.014 425.196,791.742 L 425.782,803.286 z "
   style="fill:none;stroke:#000000;stroke-width:2.15490007;stroke-miterlimit:3.86400008"
   id="path131" />
<path
   d="M 412.675,777.012 C 412.675,774.215 414.854,771.932 417.56,771.932 C 420.28,771.932 422.459,774.215 422.459,777.012 C 422.459,779.838 420.28,782.122 417.56,782.122 C 414.854,782.122 412.675,779.838 412.675,777.012 z M 451.335,873.544 L 442.437,883.736 M 447.804,870.299 L 439.175,882.112 M 443.82,867.832 L 436.529,880.64 M 438.619,866.931 L 432.891,878.926 M 434.185,865.307 L 428.098,877.272 M 429.36,863.473 L 422.926,874.567 M 424.655,861.399 L 417.905,872.672 M 420.19,859.565 L 412.674,870.658 M 415.756,857.581 L 408.391,869.036 M 411.848,855.957 L 402.483,866.931 M 408.766,853.342 L 394.937,862.422 M 406.391,850.035 L 391.405,856.68 M 404.302,846.127 L 388.504,849.314 M 402.483,842.038 L 387.241,843.24 M 387.061,837.889 L 401.221,837.349 M 401.22,833.951 L 387.241,831.817 M 388.143,826.436 L 401.401,831.247 M 390.322,820.514 L 401.927,827.729 M 392.667,815.703 L 403.399,824.631 M 396.38,811.464 L 405.369,819.792 M 400.107,807.104 L 408.39,815.882 M 402.859,803.888 L 409.834,811.284 M 405.654,801.724 L 409.833,806.203 M 432.832,751.577 L 437.145,747.849 M 435.177,753.532 L 440.287,750.195 M 436.74,756.088 L 442.632,752.54 M 438.318,758.042 L 444.376,755.486 M 438.904,760.987 L 445.954,759.815 M 447.127,763.513 L 439.701,763.513 M 439.295,766.068 L 447.127,766.85 M 447.517,770.758 L 438.904,769.195 M 438.318,771.932 L 447.517,773.104 M 431.088,750.015 L 434.59,746.077 M 427.947,747.279 L 431.269,743.34 M 425.196,745.476 L 428.127,740.815 M 421.874,743.912 L 423.633,738.831 M 417.965,743.912 L 420.31,738.44 M 438.318,774.666 L 447.127,776.229 M 437.732,777.222 L 446.541,780.95 M 435.763,779.566 L 445.549,785.639 M 435.387,782.513 L 443.429,789.578 M 433.614,785.64 L 440.468,792.675 M 432.065,788.015 L 437.551,794.839 M 428.127,789.758 L 434.591,797.605 M 426.188,791.923 L 431.088,800.13"
   style="fill:none;stroke:#000000;stroke-width:2.15490007;stroke-miterlimit:3.86400008"
   id="path133" />
<path
   d="M 411.096,742.168 L 423.632,742.168 C 424.068,742.168 424.429,742.529 424.429,742.981 L 424.429,768.023 C 424.429,768.444 424.068,768.805 423.632,768.805 L 411.096,768.805 C 410.675,768.805 410.329,768.444 410.329,768.023 L 410.329,742.98 C 410.329,742.529 410.675,742.168 411.096,742.168 z "
   style="fill:#ffd900"
   id="path135" />
<path
   d="M 411.096,742.168 L 423.632,742.168 C 424.068,742.168 424.429,742.529 424.429,742.981 L 424.429,768.023 C 424.429,768.444 424.068,768.805 423.632,768.805 L 411.096,768.805 C 410.675,768.805 410.329,768.444 410.329,768.023 L 410.329,742.98 C 410.329,742.529 410.675,742.168 411.096,742.168 z "
   style="fill:none;stroke:#000000;stroke-width:2.15490007;stroke-miterlimit:3.86400008"
   id="path137" />
</svg>