<?xml version="1.0" encoding="UTF-8" standalone="no"?>
<!-- Created with Inkscape (http://www.inkscape.org/) -->
<svg
   xmlns:svg="http://www.w3.org/2000/svg"
   xmlns="http://www.w3.org/2000/svg"
   version="1.0"
   width="555.47388"
   height="800.34003"
   viewBox="0 0 26.584 38.336"
   id="Layer_1"
   xml:space="preserve"><defs
   id="defs90" />
<rect
   width="26.459"
   height="38.265999"
   x="0.084500313"
   y="0.035"
   id="rect3" />
<rect
   width="26.459"
   height="38.265999"
   x="0.084500313"
   y="0.035"
   style="fill:none;stroke:black;stroke-width:0.07;stroke-miterlimit:3.86400008"
   id="rect5" />
<rect
   width="26.459"
   height="3.7079999"
   x="0.084500313"
   y="15.629"
   style="fill:#ffd200"
   id="rect7" />
<rect
   width="26.459"
   height="3.7079999"
   x="0.084500313"
   y="15.629"
   style="fill:none;stroke:#ffd200;stroke-width:0.07;stroke-miterlimit:3.86400008"
   id="rect9" />
<rect
   width="26.459"
   height="3.7090001"
   x="0.084500313"
   y="20.604"
   style="fill:#ffd200"
   id="rect11" />
<rect
   width="26.459"
   height="3.7090001"
   x="0.084500313"
   y="20.604"
   style="fill:none;stroke:#ffd200;stroke-width:0.07;stroke-miterlimit:3.86400008"
   id="rect13" />
<polyline
   clip-rule="evenodd"
   points="12.449,5.907 12.449,5.917 12.429,5.933 12.416,5.945   12.416,5.954 12.413,5.958 12.429,5.981 12.441,5.986 12.477,5.979 12.506,5.986 12.526,6.009 12.539,6.063 12.523,6.096   12.49,6.129 12.457,6.146 12.429,6.149 12.383,6.125 12.372,6.129 12.351,6.149 12.355,6.163 12.421,6.207 12.539,6.284   12.633,6.341 12.654,6.337 12.67,6.316 12.666,6.296 12.633,6.272 12.608,6.265 12.576,6.239 12.564,6.214 12.567,6.169   12.592,6.116 12.621,6.091 12.687,6.096 12.687,6.101 12.702,6.108 12.723,6.149 12.728,6.169 12.748,6.19 12.764,6.19   12.784,6.166 12.777,6.137 12.781,6.132 12.777,6.122 12.781,6.091 12.805,6.068 12.825,6.063 12.833,6.063 12.838,6.061   12.883,6.068 12.919,6.081 12.945,6.101 12.96,6.122 12.965,6.178 12.96,6.207 12.915,6.244 12.895,6.251 12.883,6.28 12.891,6.296   12.912,6.309 12.96,6.301 12.986,6.289 13.022,6.293 13.042,6.309 13.063,6.333 13.067,6.357 13.063,6.362 13.067,6.366 13.05,6.41   13.03,6.432 13.009,6.444 12.989,6.451 12.986,6.448 12.953,6.451 12.936,6.451 12.932,6.448 12.928,6.451 12.883,6.423   12.863,6.416 12.838,6.419 12.825,6.428 12.817,6.436 12.825,6.457 12.871,6.489 12.96,6.546 13.022,6.587 13.075,6.624   13.116,6.632 13.137,6.628 13.145,6.615 13.139,6.595 13.104,6.55 13.096,6.505 13.104,6.473 13.108,6.459 13.116,6.436   13.145,6.41 13.193,6.398 13.242,6.398 13.258,6.423 13.252,6.464 13.247,6.469 13.252,6.484 13.262,6.492 13.283,6.492   13.316,6.459 13.336,6.439 13.374,6.428 13.418,6.432 13.43,6.444 13.252,6.615 13.137,6.717 13.129,6.717 13.108,6.682 13.026,6.6   12.981,6.58 12.879,6.563 12.76,6.489 12.485,6.316 12.27,6.183 12.257,6.187 12.252,6.187 12.249,6.183 12.261,6.142 12.293,6.063   12.4,5.825 12.413,5.802 12.441,5.855 12.449,5.907 "
   id="polyline15"
   style="fill:#ffd200;fill-rule:evenodd"
   transform="translate(4.999426e-4,0)" />
<polyline
   points="11.255,6.296 11.234,6.337 11.217,6.391 11.209,6.428 11.206,6.432 11.206,6.439 11.201,6.509   11.197,6.55 11.206,6.648 11.242,6.775 11.288,6.845 11.373,6.922 11.385,6.93 11.381,6.959 11.37,6.98 11.299,7.14 11.296,7.145   11.119,7.004 11.115,6.997 11.124,6.95 11.14,6.901 11.148,6.808 11.148,6.747 11.119,6.607 11.083,6.5 11.025,6.391 10.992,6.35   10.981,6.341 10.977,6.337 10.972,6.333 10.977,6.309 11.063,6.122 11.25,6.284 11.255,6.296 "
   id="polyline17"
   style="fill:#ffd200"
   transform="translate(4.999426e-4,0)" />
<polyline
   clip-rule="evenodd"
   points="13.713,6.194 13.766,6.211 13.902,6.265 13.915,6.275   13.874,6.316 13.706,6.444 13.518,6.473 13.504,6.457 13.512,6.439 13.508,6.416 13.459,6.382 13.418,6.375 13.336,6.378   13.333,6.382 13.313,6.378 13.283,6.354 13.234,6.337 13.149,6.341 13.145,6.346 13.129,6.346 13.112,6.309 13.075,6.255   13.075,6.251 13.083,6.244 13.34,6.211 13.631,6.169 13.68,6.178 13.713,6.194 "
   id="polyline19"
   style="fill:#ffd200;fill-rule:evenodd"
   transform="translate(4.999426e-4,0)" />
<polyline
   points="12.298,6.255 12.331,6.275 12.51,6.391 12.539,6.41 12.576,6.432 12.781,6.563 12.789,6.571   12.789,6.58 12.76,6.591 12.731,6.6 12.707,6.615 12.702,6.619 12.674,6.612 12.416,6.451 12.196,6.316 12.183,6.305 12.22,6.244   12.237,6.224 12.273,6.239 12.298,6.255 "
   id="polyline21"
   style="fill:#ffd200"
   transform="translate(4.999426e-4,0)" />
<polyline
   clip-rule="evenodd"
   points="12.068,6.371 11.963,6.533 11.95,6.542 11.892,6.53   11.606,6.554 11.275,6.583 11.271,6.571 11.271,6.559 11.267,6.554 11.271,6.55 11.267,6.48 11.275,6.464 11.291,6.451   11.574,6.419 12.036,6.362 12.06,6.362 12.068,6.371 "
   id="polyline23"
   style="fill:#ffd200;fill-rule:evenodd"
   transform="translate(4.999426e-4,0)" />
<polyline
   clip-rule="evenodd"
   points="10.764,6.473 10.862,6.48 10.951,6.477 10.977,6.489   10.992,6.509 11.022,6.58 11.042,6.619 11.058,6.673 11.074,6.771 11.07,6.885 11.033,7.008 11.033,7.042 11.091,7.131   11.148,7.221 11.165,7.254 11.165,7.267 10.808,7.349 10.649,7.384 10.641,7.384 10.633,7.376 10.641,7.291 10.649,7.282   10.674,7.288 10.703,7.282 10.718,7.262 10.718,7.25 10.69,7.229 10.633,7.213 10.588,7.175 10.539,7.104 10.506,7.012   10.501,6.983 10.506,6.971 10.608,6.959 10.674,6.963 10.813,6.93 10.829,6.922 10.866,6.93 10.887,6.909 10.89,6.813 10.894,6.808   10.89,6.804 10.899,6.771 10.902,6.734 10.923,6.665 10.923,6.648 10.91,6.636 10.833,6.624 10.776,6.6 10.726,6.559 10.682,6.492   10.674,6.464 10.677,6.451 10.706,6.457 10.764,6.473 "
   id="polyline25"
   style="fill:#ffd200;fill-rule:evenodd"
   transform="translate(4.999426e-4,0)" />
<polyline
   clip-rule="evenodd"
   points="14.282,6.492 14.383,6.533 14.424,6.554 14.465,6.583   14.551,6.648 14.67,6.771 14.723,6.84 14.756,6.915 14.786,6.997 14.793,7.042 14.801,7.09 14.805,7.134 14.793,7.25 14.769,7.352   14.715,7.487 14.633,7.614 14.629,7.614 14.622,7.63 14.531,7.719 14.438,7.793 14.323,7.88 14.208,7.952 14.092,8.023   14.008,8.101 13.947,8.177 13.889,8.272 13.856,8.341 13.807,8.484 13.783,8.591 13.779,8.648 13.787,8.734 13.803,8.792   13.812,8.816 13.771,8.812 13.697,8.739 13.627,8.625 13.607,8.571 13.594,8.468 13.607,8.361 13.631,8.313 13.656,8.29   13.656,8.28 13.648,8.272 13.631,8.276 13.549,8.354 13.518,8.413 13.492,8.468 13.48,8.555 13.484,8.619 13.504,8.709   13.504,8.714 13.476,8.707 13.415,8.645 13.374,8.566 13.362,8.515 13.357,8.484 13.362,8.481 13.357,8.448 13.357,8.433   13.362,8.427 13.357,8.423 13.365,8.372 13.389,8.305 13.426,8.243 13.484,8.198 13.476,8.187 13.452,8.19 13.422,8.208   13.411,8.208 13.316,8.292 13.268,8.372 13.254,8.402 13.242,8.366 13.247,8.251 13.258,8.198 13.28,8.137 13.313,8.088   13.377,8.026 13.447,7.982 13.533,7.949 13.639,7.917 13.803,7.888 13.865,7.872 13.889,7.867 13.979,7.839 14.174,7.74   14.326,7.638 14.432,7.548 14.54,7.425 14.596,7.329 14.629,7.254 14.646,7.185 14.654,7.099 14.658,7.065 14.642,6.976   14.617,6.927 14.551,6.849 14.564,6.792 14.564,6.775 14.547,6.763 14.531,6.767 14.52,6.783 14.514,6.82 14.487,6.901   14.469,6.971 14.461,6.98 14.441,6.971 14.4,6.915 14.367,6.849 14.336,6.75 14.356,6.676 14.359,6.665 14.359,6.648 14.346,6.641   14.326,6.644 14.315,6.656 14.303,6.694 14.241,6.767 14.233,6.792 14.237,6.796 14.233,6.813 14.237,6.84 14.233,6.845   14.254,6.935 14.256,6.947 14.256,6.963 14.245,6.967 14.196,6.959 14.122,6.909 14.065,6.853 14.008,6.763 13.996,6.668   13.991,6.619 13.967,6.615 13.942,6.619 13.935,6.632 13.922,6.717 13.93,6.767 13.971,6.845 14.02,6.918 14.037,6.95 14.061,6.988   14.016,7 13.963,7 13.958,6.997 13.956,7 13.897,6.988 13.836,6.967 13.787,6.935 13.733,6.894 13.697,6.849 13.684,6.813   13.672,6.813 13.627,6.865 13.594,6.956 13.586,7.004 13.59,7.008 13.586,7.042 13.586,7.053 13.583,7.058 13.586,7.062   13.583,7.165 13.586,7.167 13.583,7.172 13.594,7.294 13.602,7.311 13.607,7.343 13.639,7.441 13.651,7.471 13.709,7.561   13.795,7.688 13.885,7.793 13.902,7.81 13.902,7.814 13.868,7.826 13.754,7.851 13.717,7.859 13.702,7.859 13.615,7.744   13.529,7.593 13.484,7.487 13.452,7.393 13.439,7.343 13.415,7.226 13.403,7.134 13.406,7.024 13.422,6.963 13.439,6.909   13.518,6.779 13.549,6.734 13.648,6.628 13.762,6.533 13.853,6.498 14.02,6.464 14.061,6.459 14.163,6.469 14.282,6.492 "
   id="polyline27"
   style="fill:#ffd200;fill-rule:evenodd"
   transform="translate(4.999426e-4,0)" />
<polyline
   points="10.669,6.612 10.743,6.668 10.808,6.694 10.829,6.697 10.833,6.709 10.821,6.845 10.825,6.869   10.813,6.874 10.759,6.869 10.685,6.881 10.621,6.885 10.514,6.89 10.49,6.885 10.465,6.869 10.452,6.816 10.432,6.763 10.411,6.66   10.404,6.595 10.432,6.58 10.555,6.53 10.596,6.518 10.613,6.525 10.669,6.612 "
   id="polyline29"
   style="fill:#ffd200"
   transform="translate(4.999426e-4,0)" />
<polyline
   clip-rule="evenodd"
   points="11.925,6.574 11.922,6.6 11.897,6.653 11.864,6.697   11.332,6.775 11.308,6.742 11.288,6.689 11.288,6.668 11.299,6.66 11.872,6.58 11.917,6.571 11.922,6.574 11.925,6.574 "
   id="polyline31"
   style="fill:#ffd200;fill-rule:evenodd"
   transform="translate(4.999426e-4,0)" />
<polyline
   points="10.314,6.653 10.334,6.673 10.342,6.685 10.35,6.734 10.375,6.813 10.391,6.853 10.371,6.909   10.342,6.95 10.215,6.878 10.117,6.816 10.154,6.738 10.194,6.668 10.219,6.624 10.253,6.628 10.314,6.653 "
   id="polyline33"
   style="fill:#ffd200"
   transform="translate(4.999426e-4,0)" />
<polyline
   clip-rule="evenodd"
   points="11.577,7.042 11.631,7.155 11.692,7.208 11.729,7.226   11.823,7.241 11.905,7.241 11.95,7.308 11.966,7.349 11.905,7.352 11.807,7.349 11.721,7.332 11.643,7.298 11.61,7.277   11.557,7.233 11.504,7.175 11.5,7.09 11.5,7.083 11.504,7.077 11.5,7.073 11.516,7.012 11.537,6.971 11.549,6.959 11.565,6.976   11.577,7.042 "
   id="polyline35"
   style="fill:#ffd200;fill-rule:evenodd"
   transform="translate(4.999426e-4,0)" />
<polyline
   clip-rule="evenodd"
   points="12.355,7.226 12.388,7.241 12.416,7.25 12.51,7.315   12.58,7.39 12.608,7.421 12.613,7.425 12.613,7.441 12.597,7.458 12.576,7.466 12.552,7.458 12.523,7.43 12.416,7.356 12.342,7.323   12.265,7.308 12.196,7.294 12.188,7.294 12.175,7.216 12.179,7.213 12.179,7.196 12.175,7.192 12.179,7.188 12.265,7.206   12.355,7.226 "
   id="polyline37"
   style="fill:#ffd200;fill-rule:evenodd"
   transform="translate(4.999426e-4,0)" />
<polyline
   points="11.176,7.414 11.176,7.425 11.127,7.475 11.112,7.482 11.107,7.487 11.094,7.475 11.07,7.39   11.066,7.369 11.066,7.356 11.087,7.343 11.107,7.339 11.132,7.339 11.176,7.414 "
   id="polyline39"
   style="fill:#ffd200"
   transform="translate(4.999426e-4,0)" />
<polyline
   points="11.046,7.487 11.05,7.516 11.025,7.541 10.923,7.573 10.862,7.584 10.788,7.582 10.759,7.568   10.739,7.548 10.743,7.425 10.772,7.409 10.981,7.364 11.005,7.364 11.046,7.487 "
   id="polyline41"
   style="fill:#ffd200"
   transform="translate(4.999426e-4,0)" />
<polyline
   clip-rule="evenodd"
   points="11.41,7.438 11.398,7.479 11.352,7.573 11.324,7.614   11.206,7.634 11.14,7.658 11.079,7.695 11.038,7.728 10.981,7.798 10.948,7.872 10.935,7.949 10.931,7.965 10.931,7.978   10.928,7.982 10.616,7.908 10.665,7.766 10.718,7.617 10.726,7.609 10.805,7.634 10.91,7.638 11.001,7.623 11.107,7.576   11.238,7.475 11.275,7.417 11.32,7.421 11.41,7.438 "
   id="polyline43"
   style="fill:#ffd200;fill-rule:evenodd"
   transform="translate(4.999426e-4,0)" />
<polyline
   points="11.549,7.634 11.692,7.705 11.7,7.716 11.623,7.773 11.598,7.798 11.574,7.793 11.513,7.752   11.401,7.671 11.398,7.667 11.398,7.655 11.442,7.584 11.483,7.605 11.549,7.634 "
   id="polyline45"
   style="fill:#ffd200"
   transform="translate(4.999426e-4,0)" />
<polyline
   clip-rule="evenodd"
   points="11.541,7.834 11.545,7.839 11.545,7.848 11.492,7.888   11.447,7.949 11.442,7.962 11.447,7.985 11.463,8.003 11.5,8.01 11.508,8.01 11.513,8.015 11.496,8.088 11.472,8.194 11.439,8.218   11.365,8.251 11.324,8.228 11.263,8.177 11.042,8.015 11.013,7.993 11.005,7.982 11.009,7.937 11.025,7.883 11.054,7.826   11.165,7.719 11.206,7.699 11.258,7.684 11.279,7.679 11.344,7.684 11.541,7.834 "
   id="polyline47"
   style="fill:#ffd200;fill-rule:evenodd"
   transform="translate(4.999426e-4,0)" />
<polyline
   clip-rule="evenodd"
   points="10.35,8.276 10.437,8.354 10.649,8.571 10.641,8.579   10.51,8.591 10.506,8.586 10.473,8.591 10.371,8.583 10.326,8.566 10.204,8.489 10.276,8.416 10.276,8.399 10.281,8.395   10.268,8.375 10.253,8.361 10.227,8.366 10.204,8.382 10.191,8.402 10.105,8.419 10.031,8.452 9.941,8.46 9.933,8.46 9.933,8.452   10.13,8.31 10.248,8.218 10.276,8.228 10.35,8.276 "
   id="polyline49"
   style="fill:#ffd200;fill-rule:evenodd"
   transform="translate(4.999426e-4,0)" />
<polyline
   clip-rule="evenodd"
   points="12.973,9.606 12.976,9.623 12.965,9.646 12.96,9.67   12.948,9.72 12.936,9.823 12.928,9.873 12.887,9.875 12.842,9.888 12.781,9.896 12.658,9.934 12.592,9.958 12.547,9.982   12.515,10.023 12.506,10.051 12.49,10.096 12.482,10.208 12.482,10.224 12.495,10.232 12.523,10.228 12.58,10.24 12.621,10.26   12.666,10.31 12.687,10.354 12.695,10.396 12.69,10.433 12.679,10.465 12.649,10.509 12.556,10.595 12.531,10.608 12.523,10.595   12.526,10.56 12.523,10.554 12.526,10.55 12.526,10.534 12.523,10.529 12.526,10.526 12.515,10.44 12.495,10.392 12.469,10.366   12.424,10.375 12.413,10.386 12.429,10.407 12.441,10.433 12.445,10.465 12.449,10.567 12.429,10.631 12.392,10.693 12.342,10.751   12.29,10.784 12.196,10.813 12.147,10.813 12.191,10.738 12.224,10.673 12.237,10.631 12.24,10.58 12.237,10.554 12.216,10.509   12.196,10.485 12.183,10.485 12.171,10.498 12.167,10.534 12.15,10.621 12.122,10.702 12.089,10.759 12.015,10.833 11.974,10.857   11.897,10.877 11.868,10.882 11.851,10.882 11.881,10.8 11.889,10.727 11.876,10.693 11.843,10.628 11.828,10.616 11.81,10.625   11.786,10.662 11.786,10.734 11.652,10.792 11.615,10.813 11.606,10.82 11.61,10.836 11.688,10.936 11.729,10.979 11.746,11.018   11.725,11.038 11.516,11.168 11.463,11.193 11.496,11.119 11.554,11.045 11.595,11 11.598,10.979 11.59,10.968 11.585,10.963   11.537,10.977 11.483,10.997 11.475,10.997 11.483,10.902 11.475,10.841 11.467,10.804 11.439,10.763 11.41,10.743 11.393,10.734   11.344,10.738 11.299,10.771 11.197,10.882 11.119,10.988 11.107,10.997 11.091,10.988 10.989,10.907 10.956,10.886 10.931,10.886   10.91,10.907 10.907,10.927 10.91,10.943 10.935,10.968 10.972,10.979 11.025,11.021 11.03,11.033 11.017,11.05 11.001,11.14   10.984,11.242 10.984,11.246 10.972,11.234 10.948,11.168 10.907,11.086 10.838,10.927 10.825,10.902 10.808,10.861 11.013,10.768   11.23,10.669 11.247,10.652 11.242,10.636 11.23,10.628 11.226,10.625 11.201,10.628 11.181,10.642 11.153,10.649 11.038,10.698   10.858,10.779 10.829,10.792 10.808,10.788 10.695,10.631 10.682,10.621 10.665,10.621 10.644,10.645 10.649,10.702 10.665,10.73   10.527,10.927 10.498,10.977 10.493,10.979 10.49,10.918 10.51,10.645 10.518,10.616 10.71,10.575 10.805,10.55 11.087,10.474   11.385,10.378 11.688,10.269 11.741,10.243 11.79,10.202 11.835,10.142 11.848,10.051 11.843,9.958 11.84,9.954 11.843,9.949   11.835,9.848 11.84,9.823 11.84,9.811 11.872,9.782 11.884,9.773 11.897,9.762 11.897,9.75 11.901,9.744 11.892,9.729 11.872,9.711   11.831,9.716 11.807,9.729 11.77,9.732 11.7,9.72 11.623,9.684 11.574,9.634 11.537,9.582 11.521,9.527 11.513,9.497 11.521,9.39   11.549,9.333 11.595,9.299 11.606,9.294 11.615,9.294 11.626,9.323 11.676,9.374 11.738,9.405 11.782,9.417 11.909,9.435   11.913,9.438 11.917,9.435 11.922,9.438 11.925,9.435 12.012,9.442 12.212,9.422 12.347,9.394 12.457,9.353 12.621,9.282   12.74,9.246 12.751,9.246 12.973,9.606 "
   id="polyline51"
   style="fill:#ffd200;fill-rule:evenodd"
   transform="translate(4.999426e-4,0)" />
<polyline
   clip-rule="evenodd"
   points="13.038,9.343 13.063,9.364 13.071,9.374 13.063,9.415   13.05,9.483 13.042,9.511 13.014,9.479 12.968,9.401 12.919,9.312 12.895,9.267 13.014,9.335 13.038,9.343 "
   id="polyline53"
   style="fill:#ffd200;fill-rule:evenodd"
   transform="translate(4.999426e-4,0)" />
<polyline
   clip-rule="evenodd"
   points="10.882,10.313 10.968,10.396 10.981,10.417   10.984,10.419 10.984,10.433 10.784,10.481 10.759,10.485 10.743,10.474 10.743,10.452 10.78,10.407 10.784,10.396 10.78,10.371   10.764,10.354 10.743,10.354 10.715,10.383 10.682,10.424 10.641,10.452 10.481,10.506 10.437,10.519 10.391,10.526 10.391,10.522   10.388,10.519 10.706,10.199 10.751,10.219 10.882,10.313 "
   id="polyline55"
   style="fill:#ffd200;fill-rule:evenodd"
   transform="translate(4.999426e-4,0)" />
<polyline
   clip-rule="evenodd"
   points="11.41,10.861 11.419,10.918 11.414,10.984 11.393,11.053   11.378,11.209 11.381,11.258 11.406,11.344 11.419,11.368 11.316,11.421 11.217,11.5 11.173,11.544 11.148,11.577 11.091,11.675   11.079,11.733 11.083,11.77 11.119,11.808 11.145,11.808 11.16,11.791 11.148,11.729 11.176,11.685 11.209,11.659 11.242,11.664   11.271,11.685 11.308,11.733 11.329,11.787 11.327,11.843 11.312,11.884 11.263,11.925 11.222,11.945 11.185,11.95 11.181,11.954   11.176,11.95 11.16,11.954 11.112,11.945 11.07,11.92 11.033,11.896 10.989,11.852 10.948,11.777 10.935,11.715 10.943,11.651   10.956,11.613 10.989,11.544 11.094,11.405 11.124,11.357 11.145,11.299 11.145,11.275 11.181,11.254 11.25,11.185 11.275,11.148   11.308,11.066 11.304,11.062 11.312,11.021 11.304,10.951 11.283,10.898 11.283,10.877 11.37,10.8 11.378,10.8 11.41,10.861 "
   id="polyline57"
   style="fill:#ffd200;fill-rule:evenodd"
   transform="translate(4.999426e-4,0)" />
<polyline
   clip-rule="evenodd"
   points="10.424,10.816 10.42,10.85 10.424,10.854 10.42,10.951   10.416,10.956 10.42,11.059 10.424,11.074 10.449,11.094 10.473,11.091 10.51,11.079 10.669,10.85 10.706,10.857 10.743,10.869   10.756,10.869 10.776,10.927 10.89,11.188 10.977,11.349 10.997,11.368 11.072,11.238 11.05,11.333 11.017,11.401 11.005,11.405   10.956,11.388 10.92,11.365 10.887,11.327 10.858,11.266 10.858,11.254 10.846,11.234 10.841,11.213 10.805,11.176 10.78,11.188   10.772,11.196 10.767,11.246 10.767,11.258 10.71,11.25 10.674,11.229 10.613,11.165 10.596,11.127 10.588,11.1 10.588,11.079   10.563,11.053 10.534,11.059 10.518,11.079 10.514,11.1 10.514,11.107 10.51,11.111 10.527,11.16 10.527,11.176 10.473,11.201   10.437,11.229 10.399,11.292 10.388,11.349 10.391,11.426 10.408,11.467 10.411,11.467 10.411,11.47 10.367,11.455 10.33,11.429   10.285,11.377 10.26,11.327 10.253,11.287 10.248,11.226 10.256,11.168 10.276,11.119 10.317,11.079 10.338,11.059 10.347,11.025   10.33,10.988 10.301,10.943 10.297,10.895 10.306,10.861 10.326,10.82 10.338,10.809 10.35,10.804 10.42,10.809 10.424,10.816 "
   id="polyline59"
   style="fill:#ffd200;fill-rule:evenodd"
   transform="translate(4.999426e-4,0)" />
<polyline
   clip-rule="evenodd"
   points="13.452,10.959 13.545,11.004 13.602,11.05 13.62,11.066   13.627,11.091 13.598,11.115 13.5,11.16 13.403,11.188 13.369,11.185 13.336,11.173 13.313,11.168 13.307,11.165 13.381,11.038   13.377,11.025 13.365,11.018 13.321,11.033 13.231,11.148 13.17,11.205 13.096,11.254 13.079,11.258 13.206,11.004 13.254,10.91   13.348,10.927 13.452,10.959 "
   id="polyline61"
   style="fill:#ffd200;fill-rule:evenodd"
   transform="translate(4.999426e-4,0)" />
<polyline
   clip-rule="evenodd"
   points="11.206,11.086 11.189,11.123 11.156,11.168   11.083,11.226 11.066,11.255 11.066,11.205 11.079,11.176 11.083,11.152 11.099,11.094 11.099,11.074 11.124,11.066 11.136,11.053   11.173,11.074 11.206,11.086 "
   id="polyline63"
   style="fill:#ffd200;fill-rule:evenodd"
   transform="translate(4.999426e-4,0)" />
<polyline
   clip-rule="evenodd"
   points="11.656,11.292 11.762,11.324 11.966,11.373   12.183,11.414 12.392,11.435 12.858,11.442 13.112,11.426 13.108,11.476 13.088,11.565 13.079,11.573 12.802,11.585 12.531,11.573   12.363,11.558 12.224,11.537 12.065,11.503 11.848,11.442 11.667,11.38 11.463,11.307 11.447,11.266 11.447,11.242 11.463,11.226   11.504,11.234 11.656,11.292 "
   id="polyline65"
   style="fill:#ffd200;fill-rule:evenodd"
   transform="translate(4.999426e-4,0)" />
<polyline
   points="11.708,11.479 11.889,11.517 11.974,11.537 12.138,11.569 12.445,11.61 12.615,11.623   12.769,11.626 13.071,11.63 13.075,11.644 13.063,11.692 13.058,11.733 13.042,11.811 13.035,11.818 12.777,11.822 12.523,11.811   12.38,11.798 12.244,11.777 12.04,11.733 11.868,11.692 11.585,11.599 11.39,11.521 11.324,11.496 11.32,11.491 11.34,11.47   11.393,11.438 11.442,11.426 11.48,11.421 11.557,11.435 11.708,11.479 "
   id="polyline67"
   style="fill:#ffd200"
   transform="translate(4.999426e-4,0)" />
<polyline
   clip-rule="evenodd"
   points="14.008,11.524 14.029,11.544 14.049,11.549   14.065,11.549 14.07,11.544 14.073,11.549 14.078,11.558 14.07,11.613 14.037,11.634 13.947,11.667 13.897,11.675 13.874,11.675   13.909,11.569 13.963,11.467 13.967,11.446 13.975,11.446 14.008,11.524 "
   id="polyline69"
   style="fill:#ffd200;fill-rule:evenodd"
   transform="translate(4.999426e-4,0)" />
<polyline
   clip-rule="evenodd"
   points="13.436,11.593 13.348,11.695 13.354,11.72 13.377,11.736   13.385,11.746 13.385,11.753 13.34,11.774 13.307,11.777 13.252,11.791 13.149,11.798 13.145,11.794 13.201,11.729 13.292,11.603   13.299,11.603 13.307,11.623 13.324,11.638 13.357,11.634 13.43,11.577 13.439,11.577 13.436,11.593 "
   id="polyline71"
   style="fill:#ffd200;fill-rule:evenodd"
   transform="translate(4.999426e-4,0)" />
<path
   d="M 12.2045,6.587 L 12.2245,6.599 L 12.2325,6.607 L 12.2245,6.656 L 12.2325,6.673 L 12.2295,6.709 L 12.1965,6.734 L 12.1175,6.766 L 12.0685,6.799 L 12.0485,6.799 L 12.0405,6.792 L 12.0365,6.772 L 12.0605,6.739 L 12.1095,6.698 L 12.1225,6.661 L 12.0945,6.644 L 12.0685,6.641 L 12.0605,6.641 L 12.0405,6.629 L 12.0195,6.616 L 12.0155,6.6 L 12.0195,6.575 L 12.0365,6.572 L 12.1015,6.592 L 12.2045,6.587 M 12.3555,6.505 L 12.4295,6.55 L 12.4375,6.558 L 12.4545,6.566 L 12.4905,6.591 L 12.5675,6.656 L 12.6055,6.697 L 12.6085,6.717 L 12.6055,6.73 L 12.5925,6.755 L 12.5975,6.783 L 12.6135,6.796 L 12.6385,6.791 L 12.6665,6.738 L 12.7315,6.673 L 12.7895,6.64 L 12.8745,6.628 L 12.9325,6.632 L 12.9655,6.643 L 13.0175,6.684 L 13.0555,6.738 L 13.0585,6.758 L 13.0635,6.766 L 13.0635,6.775 L 13.0555,6.812 L 13.0305,6.852 L 12.9815,6.89 L 12.9485,6.91 L 12.8875,6.923 L 12.8385,6.923 L 12.8095,6.93 L 12.7895,6.95 L 12.7925,6.971 L 12.8335,6.98 L 12.9365,6.971 L 13.0385,6.93 L 13.1045,6.889 L 13.1935,6.807 L 13.2065,6.828 L 13.2125,6.852 L 13.2125,6.86 L 13.2205,6.893 L 13.2125,6.959 L 13.2125,6.967 L 13.1865,7.016 L 13.0685,7.111 L 12.9985,7.151 L 12.9295,7.172 L 12.9165,7.188 L 12.9205,7.208 L 12.9295,7.216 L 12.9575,7.221 L 13.0485,7.196 L 13.0995,7.175 L 13.1795,7.123 L 13.2225,7.082 L 13.2355,7.069 L 13.2435,7.069 L 13.2545,7.077 L 13.2605,7.106 L 13.2705,7.155 L 13.2645,7.205 L 13.2435,7.266 L 13.2025,7.323 L 13.1585,7.359 L 13.0805,7.409 L 13.0435,7.425 L 12.9375,7.458 L 12.9255,7.471 L 12.9335,7.491 L 12.9615,7.503 L 13.0355,7.5 L 13.0675,7.492 L 13.1455,7.459 L 13.2425,7.385 L 13.2635,7.365 L 13.2735,7.365 L 13.2845,7.39 L 13.2975,7.431 L 13.2895,7.533 L 13.2605,7.594 L 13.2215,7.647 L 13.1475,7.7 L 13.0845,7.728 L 13.0385,7.74 L 12.9535,7.748 L 12.8875,7.752 L 12.8795,7.765 L 12.8835,7.793 L 12.9045,7.806 L 12.9605,7.819 L 13.0385,7.814 L 13.1305,7.789 L 13.2395,7.727 L 13.2535,7.716 L 13.2595,7.716 L 13.2635,7.737 L 13.2635,7.757 L 13.2695,7.768 L 13.2555,7.842 L 13.2195,7.92 L 13.1725,7.969 L 13.1295,8.006 L 13.0555,8.04 L 12.9195,8.06 L 12.7975,8.056 L 12.7725,8.056 L 12.7645,8.052 L 12.7405,8.055 L 12.7315,8.067 L 12.7355,8.088 L 12.7515,8.105 L 12.8095,8.121 L 12.8955,8.125 L 12.9895,8.116 L 13.0065,8.116 L 13.1045,8.096 L 13.1455,8.08 L 13.1535,8.084 L 13.1305,8.157 L 13.0895,8.215 L 13.0305,8.256 L 12.9685,8.284 L 12.8995,8.3 L 12.7445,8.31 L 12.6465,8.3 L 12.6085,8.28 L 12.5975,8.28 L 12.5805,8.297 L 12.5975,8.329 L 12.6175,8.341 L 12.7485,8.366 L 12.8465,8.371 L 12.9485,8.353 L 12.9765,8.341 L 12.9975,8.346 L 13.2395,8.6 L 13.4605,8.817 L 13.6815,9.013 L 13.8135,9.111 L 13.9105,9.116 L 13.9975,9.099 L 14.0515,9.078 L 14.0945,9.046 L 14.1575,8.968 L 14.1985,8.874 L 14.2165,8.821 L 14.2325,8.756 L 14.2265,8.641 L 14.2005,8.542 L 14.1685,8.46 L 14.1105,8.353 L 14.0155,8.223 L 14.0195,8.194 L 14.1215,8.072 L 14.1425,8.075 L 14.2005,8.133 L 14.3455,8.346 L 14.4215,8.517 L 14.4465,8.586 L 14.5035,8.603 L 14.5235,8.6 L 14.5405,8.6 L 14.5935,8.604 L 14.7045,8.592 L 14.8065,8.556 L 14.8155,8.567 L 14.8065,8.666 L 14.7335,8.776 L 14.6835,8.821 L 14.6035,8.85 L 14.5075,8.858 L 14.4625,8.853 L 14.4465,8.87 L 14.4415,8.891 L 14.4465,8.907 L 14.4665,8.919 L 14.5705,8.935 L 14.6475,8.927 L 14.7985,8.878 L 14.8355,8.863 L 14.8565,8.863 L 14.8435,8.915 L 14.7905,9.017 L 14.7405,9.075 L 14.6785,9.119 L 14.5965,9.149 L 14.4825,9.169 L 14.4495,9.173 L 14.3875,9.165 L 14.3525,9.144 L 14.3445,9.144 L 14.2375,9.267 L 14.1605,9.323 L 14.1225,9.34 L 14.0135,9.373 L 13.9485,9.381 L 13.8795,9.368 L 13.8295,9.343 L 13.8015,9.323 L 13.7885,9.327 L 13.8165,9.381 L 13.8575,9.422 L 13.9105,9.524 L 13.9245,9.581 L 13.9285,9.749 L 13.9285,9.782 L 13.9165,9.879 L 13.9285,9.928 L 13.9655,9.977 L 14.0005,10.01 L 14.0595,10.039 L 14.1645,10.063 L 14.2425,10.096 L 14.2915,10.133 L 14.3245,10.182 L 14.3275,10.211 L 14.3125,10.337 L 14.2985,10.375 L 14.3065,10.407 L 14.3245,10.419 L 14.3655,10.424 L 14.4675,10.493 L 14.5715,10.6 L 14.6195,10.69 L 14.6365,10.746 L 14.6455,10.812 L 14.6365,10.869 L 14.6405,10.877 L 14.6245,10.943 L 14.6075,10.996 L 14.5865,11.037 L 14.5455,10.947 L 14.5085,10.89 L 14.4345,10.812 L 14.4105,10.804 L 14.3865,10.804 L 14.3665,10.82 L 14.3665,10.833 L 14.4565,10.931 L 14.4995,11 L 14.5285,11.082 L 14.5355,11.139 L 14.5315,11.221 L 14.5235,11.258 L 14.5105,11.303 L 14.4795,11.365 L 14.4545,11.38 L 14.4295,11.324 L 14.3805,11.265 L 14.2775,11.188 L 14.2695,11.188 L 14.2335,11.164 L 14.2215,11.16 L 14.2005,11.18 L 14.1925,11.213 L 14.1925,11.221 L 14.3235,11.36 L 14.3315,11.377 L 14.3235,11.421 L 14.2695,11.511 L 14.1685,11.692 L 14.1515,11.72 L 14.1325,11.741 L 14.1305,11.687 L 14.1325,11.659 L 14.1415,11.549 L 14.1515,11.532 L 14.1725,11.524 L 14.2155,11.52 L 14.2295,11.508 L 14.2335,11.483 L 14.2045,11.454 L 14.1525,11.459 L 14.1335,11.467 L 14.0655,11.475 L 14.0495,11.446 L 14.0045,11.265 L 13.9905,11.258 L 13.9495,11.27 L 13.9225,11.303 L 13.8675,11.467 L 13.8065,11.581 L 13.7735,11.659 L 13.7655,11.667 L 13.7615,11.687 L 13.7505,11.7 L 13.7415,11.7 L 13.6475,11.613 L 13.6015,11.598 L 13.5905,11.598 L 13.5785,11.61 L 13.5785,11.622 L 13.5865,11.646 L 13.6195,11.671 L 13.6505,11.708 L 13.7015,11.818 L 13.7135,11.851 L 13.7335,11.904 L 13.7425,11.933 L 13.7305,11.933 L 13.5495,11.798 L 13.4465,11.708 L 13.4445,11.7 L 13.4445,11.684 L 13.5985,11.491 L 13.7335,11.306 L 13.7335,11.299 L 13.7175,11.283 L 13.6845,11.286 L 13.5455,11.446 L 13.5045,11.491 L 13.4305,11.508 L 13.3575,11.544 L 13.3445,11.532 L 13.3235,11.438 L 13.3205,11.409 L 13.3205,11.401 L 13.2875,11.377 L 13.2805,11.377 L 13.2595,11.38 L 13.2535,11.401 L 13.2475,11.434 L 13.2535,11.446 L 13.2425,11.5 L 13.2345,11.516 L 13.2275,11.565 L 13.1705,11.622 L 13.1315,11.663 L 13.1455,11.585 L 13.1575,11.524 L 13.1615,11.491 L 13.1855,11.36 L 13.1935,11.336 L 13.2065,11.324 L 13.2885,11.299 L 13.4195,11.262 L 13.6245,11.201 L 13.6925,11.164 L 13.7515,11.107 L 13.8045,10.996 L 13.8375,10.902 L 13.8685,10.775 L 13.8895,10.644 L 13.8815,10.595 L 13.8535,10.534 L 13.7585,10.444 L 13.6645,10.403 L 13.5495,10.354 L 13.5125,10.342 L 13.4595,10.297 L 13.4435,10.301 L 13.4355,10.313 L 13.4385,10.452 L 13.4255,10.526 L 13.4025,10.591 L 13.3615,10.649 L 13.2915,10.71 L 13.2275,10.746 L 13.1855,10.754 L 13.0675,10.746 L 13.1315,10.665 L 13.1495,10.628 L 13.1535,10.591 L 13.1495,10.583 L 13.1535,10.575 L 13.1455,10.513 L 13.1245,10.452 L 13.1125,10.395 L 13.0835,10.297 L 13.0425,10.137 L 13.0305,10.06 L 13.0175,9.975 L 13.0145,9.873 L 13.0225,9.803 L 13.0225,9.785 L 13.0355,9.749 L 13.0385,9.72 L 13.0675,9.65 L 13.1045,9.573 L 13.1315,9.478 L 13.1495,9.405 L 13.1455,9.311 L 13.1125,9.189 L 13.0965,9.143 L 13.0755,9.098 L 13.0505,9.069 L 13.0175,9.028 L 12.9735,8.992 L 12.9245,8.967 L 12.9045,8.972 L 12.8915,8.984 L 12.8955,9.008 L 13.0065,9.123 L 13.0305,9.172 L 13.0475,9.225 L 13.0475,9.245 L 13.0265,9.241 L 12.9655,9.205 L 12.7155,9.086 L 12.5595,9.021 L 12.3395,8.939 L 12.2905,8.923 L 12.3395,8.849 L 12.3635,8.759 L 12.3725,8.665 L 12.3675,8.546 L 12.3425,8.473 L 12.3315,8.464 L 12.3105,8.468 L 12.2935,8.481 L 12.2855,8.514 L 12.2905,8.522 L 12.2905,8.648 L 12.2785,8.755 L 12.2575,8.811 L 12.2295,8.869 L 12.1915,8.918 L 12.1305,8.964 L 12.0815,8.984 L 12.0285,8.992 L 11.9255,9.004 L 11.9135,9.004 L 11.9635,8.857 L 11.9835,8.718 L 11.9745,8.648 L 11.9585,8.616 L 11.9505,8.607 L 11.9255,8.611 L 11.9055,8.64 L 11.8925,8.689 L 11.8765,8.824 L 11.8645,8.869 L 11.8485,8.932 L 11.8075,8.985 L 11.7705,9.021 L 11.6925,9.069 L 11.6105,9.099 L 11.5495,9.099 L 11.6105,8.993 L 11.6435,8.927 L 11.6565,8.878 L 11.6645,8.833 L 11.6565,8.784 L 11.6315,8.764 L 11.6065,8.768 L 11.5855,8.784 L 11.5545,8.903 L 11.5005,9.008 L 11.4345,9.066 L 11.3735,9.102 L 11.3085,9.127 L 11.1975,9.135 L 11.1245,9.123 L 11.2345,9.008 L 11.2505,8.984 L 11.2505,8.959 L 11.2345,8.939 L 11.2145,8.934 L 11.2015,8.939 L 11.1945,8.939 L 11.1535,8.972 L 11.0795,9.016 L 10.9485,9.082 L 10.9355,9.102 L 10.9405,9.11 L 10.9615,9.266 L 10.9285,9.286 L 10.7845,9.327 L 10.6575,9.352 L 10.6245,9.352 L 10.7035,9.274 L 10.7435,9.217 L 10.7885,9.233 L 10.8585,9.253 L 10.8705,9.245 L 10.8825,9.233 L 10.8825,9.206 L 10.8665,9.185 L 10.8175,9.169 L 10.7885,9.157 L 10.7565,9.149 L 10.7475,9.14 L 10.7515,9.099 L 10.7845,9.017 L 10.7885,8.997 L 10.7845,8.985 L 10.7645,8.968 L 10.7365,8.973 L 10.6985,8.997 L 10.5515,9.14 L 10.4695,9.2 L 10.4575,9.156 L 10.4525,9.098 L 10.4445,9.077 L 10.4205,9.053 L 10.3995,9.053 L 10.3715,9.082 L 10.4295,9.422 L 10.3965,9.384 L 10.2655,9.196 L 10.1715,9.066 L 10.1715,9.053 L 10.3425,8.975 L 10.6085,8.849 L 10.6165,8.836 L 10.6135,8.811 L 10.5835,8.791 L 10.4245,8.857 L 10.3795,8.877 L 10.2735,8.882 L 10.1745,8.898 L 10.1715,8.885 L 10.1835,8.832 L 10.1995,8.78 L 10.2045,8.734 L 10.2045,8.718 L 10.1745,8.693 L 10.1585,8.693 L 10.1335,8.718 L 10.1255,8.742 L 10.1135,8.844 L 10.0925,8.865 L 10.0435,8.89 L 9.9905003,8.906 L 9.9085003,8.935 L 10.0685,8.686 L 10.0725,8.674 L 10.0975,8.645 L 10.1225,8.604 L 10.1665,8.612 L 10.2485,8.641 L 10.2895,8.653 L 10.3915,8.666 L 10.5395,8.669 L 10.6575,8.653 L 10.7515,8.628 L 10.9205,8.55 L 11.9095,8.059 L 11.9955,8.043 L 12.0155,8.023 L 12.0155,7.993 L 11.9955,7.977 L 11.9545,7.973 L 11.9135,7.982 L 11.8105,8.031 L 11.6475,8.108 L 11.6155,8.129 L 11.5855,8.137 L 11.5655,8.149 L 11.5775,8.08 L 11.6265,7.973 L 11.6185,7.957 L 11.5905,7.944 L 11.5625,7.941 L 11.5775,7.916 L 11.6975,7.814 L 11.7745,7.765 L 11.9095,7.707 L 11.9875,7.687 L 12.0075,7.687 L 12.0365,7.679 L 12.0975,7.675 L 12.1175,7.679 L 12.1305,7.675 L 12.2375,7.687 L 12.3275,7.712 L 12.3725,7.727 L 12.3805,7.732 L 12.4215,7.732 L 12.4455,7.707 L 12.4415,7.658 L 12.4165,7.638 L 12.3885,7.646 L 12.3755,7.65 L 12.3345,7.642 L 12.2655,7.622 L 12.1265,7.601 L 12.1015,7.597 L 12.0735,7.576 L 12.0455,7.54 L 12.0455,7.503 L 12.0815,7.471 L 12.0945,7.458 L 12.0535,7.376 L 12.0485,7.351 L 12.0485,7.331 L 12.1145,7.359 L 12.1505,7.392 L 12.2325,7.458 L 12.2445,7.462 L 12.2575,7.474 L 12.3315,7.512 L 12.4625,7.535 L 12.4985,7.535 L 12.5065,7.54 L 12.6135,7.527 L 12.6415,7.515 L 12.6705,7.482 L 12.6995,7.413 L 12.7025,7.369 L 12.6955,7.315 L 12.6745,7.257 L 12.6335,7.184 L 12.5235,7.057 L 12.4655,7.012 L 12.4045,6.991 L 12.3275,6.983 L 12.2655,7 L 12.2085,7.037 L 12.1385,7.103 L 12.1065,7.159 L 12.1065,7.175 L 12.0975,7.184 L 12.0895,7.225 L 12.0945,7.237 L 12.0975,7.257 L 12.0975,7.277 L 12.0685,7.27 L 12.0285,7.229 L 11.9875,7.167 L 11.9795,7.131 L 11.9425,7.093 L 11.9225,7.049 L 11.9135,7.008 L 11.9545,6.93 L 11.9795,6.865 L 11.9705,6.857 L 11.9425,6.869 L 11.8845,6.927 L 11.8685,6.942 L 11.8615,6.942 L 11.8405,6.909 L 11.8435,6.865 L 11.9425,6.705 L 11.9915,6.628 L 12.0075,6.582 L 12.1065,6.439 L 12.1475,6.387 L 12.2405,6.435 L 12.3555,6.505 z M 12.0685,7.093 L 12.0655,7.114 L 12.0485,7.126 L 12.0155,7.131 L 11.9955,7.134 L 11.9875,7.126 L 11.9955,7.098 L 12.0125,7.085 L 12.0655,7.09 L 12.0685,7.093 z "
   style="fill:#ffd200;fill-rule:evenodd"
   id="path73" />
<rect
   width="26.368"
   height="8.8859997"
   x="0.15650034"
   y="25.771"
   style="fill:#ffd200"
   id="rect75" />
<rect
   width="26.368"
   height="8.8859997"
   x="0.15650034"
   y="25.771"
   style="fill:none;stroke:#ffd200;stroke-width:0.096;stroke-miterlimit:3.86400008"
   id="rect77" />
<path
   d="M 26.4345,34.313 L 0.15650032,34.313 M 0.15650032,33.91 L 26.3435,33.91 M 0.065500343,26.519 L 26.3425,26.519 M 0.15650032,26.059 L 26.3435,26.117"
   style="fill:none;stroke:#737477;stroke-width:0.096;stroke-miterlimit:3.86400008;stroke-dasharray:2.523, 2.523"
   id="path79" />
<path
   d="M 0.11850032,34.312 L 0.80250032,33.838 L 1.4505003,34.295 L 2.2705003,33.881 L 2.8955003,34.273 L 3.5155003,33.881 L 4.0835003,34.332 L 4.6795003,33.881 L 5.2695003,34.295 L 6.1185003,33.881 L 6.6865003,34.316 L 7.3925003,33.881 L 8.1035003,34.316 L 9.0325003,33.86 L 9.6005003,34.315 L 10.2255,33.88 L 10.9595,34.331 L 11.4695,33.902 L 12.1175,34.271 L 12.6285,33.902 L 13.3625,34.314 L 13.7865,33.902 L 14.6365,34.294 L 15.4855,33.902 L 16.1905,34.294 L 16.9295,33.88 L 17.4915,34.315 L 18.2605,33.903 L 18.8235,34.315 L 19.1905,33.903 L 19.9885,34.295 L 20.5215,33.881 L 21.3405,34.295 L 22.0245,33.947 L 22.6415,34.295 L 23.0085,33.926 L 24.0305,34.295 L 24.5415,33.881 L 25.0515,34.316 L 25.4185,33.948 L 25.7855,34.296 L 26.2955,33.948 L 26.5475,34.296 M 0.21050032,26.498 L 0.75050032,26.045 L 1.3975003,26.502 L 2.2175003,26.088 L 2.8435003,26.48 L 3.4625003,26.088 L 4.0305003,26.541 L 4.6265003,26.088 L 5.2175003,26.502 L 6.0655003,26.088 L 6.6335003,26.523 L 7.3395003,26.088 L 8.0505003,26.523 L 8.9795003,26.067 L 9.5475003,26.523 L 10.1725,26.088 L 10.9065,26.541 L 11.4165,26.11 L 12.0645,26.479 L 12.5755,26.11 L 13.3095,26.522 L 13.7335,26.11 L 14.5835,26.502 L 15.4315,26.11 L 16.1365,26.502 L 16.8765,26.088 L 17.4395,26.523 L 18.2095,26.111 L 18.7705,26.523 L 19.1375,26.111 L 19.9345,26.503 L 20.4675,26.089 L 21.2875,26.503 L 21.9715,26.155 L 22.5905,26.503 L 22.9555,26.134 L 23.9775,26.503 L 24.4875,26.089 L 24.9985,26.524 L 25.3655,26.156 L 25.7325,26.504 L 26.2425,26.156 L 26.4945,26.504 M 21.7935,28.477 C 21.7935,28.477 24.3365,28.506 26.5225,30.129 M 26.5225,30.74 C 26.5225,30.74 24.5235,28.664 20.8545,28.871 M 17.5215,31.205 C 17.5215,31.205 15.6725,31.004 15.0045,31.489 M 2.3455003,30.246 C 2.3455003,30.246 1.5795003,29.524 1.0345003,29.871 M 9.0405003,29.527 C 9.0405003,29.527 8.8155003,29.566 8.4545003,29.52 C 8.0935003,29.474 6.7815003,29.493 6.7215003,29.332 M 8.4725003,28.246 L 7.9175003,28.164 L 7.8685003,28.055 L 7.9475003,27.877 L 8.1755003,27.844 L 8.4175003,27.832 L 8.2755003,27.793 L 8.2025003,27.602 L 8.2985003,27.53 L 8.7405003,27.437 L 9.1705003,27.586 L 9.3095003,27.772 L 9.3775003,27.911 L 9.1875003,28.026 L 8.9345003,28.042 L 9.1035003,28.231 L 9.0235003,28.407 L 8.8705003,28.463 L 8.6805003,28.463 L 8.5165003,28.396 L 8.4725003,28.246 z M 3.8655003,28.83 C 3.8655003,28.83 7.7545003,28.715 8.2295003,28.256 M 0.12350032,30.541 C 0.12350032,30.541 2.9895003,27.211 9.8865003,31.129 C 9.8865003,31.129 13.8145,32.935 16.9645,30.441 C 18.8375,28.96 20.4295,28.867 20.8555,28.872 C 20.9295,28.872 20.9685,28.876 20.9685,28.876 C 20.9685,28.876 20.2435,29.509 20.9685,28.876 M 0.036500343,30.07 C 0.036500343,30.07 2.9585003,26.858 9.8555003,30.777 C 9.8555003,30.777 13.6275,32.658 16.7775,30.164 C 18.9715,28.428 20.7805,28.6 20.7805,28.6 C 20.7805,28.6 22.1595,28.623 22.8845,27.992 C 23.6085,27.36 22.8845,27.992 22.8845,27.992 L 23.0375,27.714 L 22.4895,27.782 C 22.3335,27.775 22.2215,27.706 22.1585,27.575 L 22.3995,27.413 L 22.9775,27.32 L 23.0065,27.206 C 23.0065,27.206 22.7095,27.239 22.7335,27.134 C 22.6265,27.105 22.8615,26.95 22.8615,26.95 L 23.1005,26.862 C 23.1625,26.803 23.4435,26.909 23.4435,26.909 L 23.5595,27.013 C 23.5595,27.013 23.7055,27.22 23.6825,27.282 C 23.6665,27.336 23.4015,27.299 23.4015,27.299 L 23.5215,27.414 L 23.7025,27.668 L 23.5815,27.855 L 23.2775,27.83 L 23.0375,27.716"
   style="fill:none;stroke:#737477;stroke-width:0.096;stroke-miterlimit:3.86400008;stroke-dasharray:1.261, 1.261"
   id="path81" />
<path
   d="M 9.0165003,29.594 C 9.0165003,29.594 9.8165003,27.707 11.9915,28.724 C 11.9915,28.724 12.5325,27.726 14.1845,28.439 C 14.1845,28.439 14.9485,27.766 16.0315,28.389 L 16.0295,28.457 C 16.0295,28.457 17.0515,27.764 17.7805,28.398 C 17.3225,29.14 16.2595,28.961 16.2595,28.961 L 16.1855,29.01 C 15.4075,29.857 14.2515,29.408 14.2515,29.408 C 12.9665,30.476 12.1095,29.653 12.1095,29.653 C 10.4525,31.132 9.0325003,29.485 9.0325003,29.485 C 9.0325003,29.485 15.8145,29.015 17.6965,28.429"
   style="fill:none;stroke:#737477;stroke-width:0.087;stroke-miterlimit:3.86400008;stroke-dasharray:1.261, 1.261"
   id="path83" />
<path
   d="M 2.2235003,30.307 C 2.2235003,30.307 4.4325003,28.889 5.6975003,30.825 C 5.6975003,30.825 6.9765003,30.13 7.9845003,31.544 C 7.9845003,31.544 9.2225003,31.255 9.7625003,32.327 L 9.7085003,32.391 C 9.7085003,32.391 11.2055,32.198 11.4045,33.123 C 10.4005,33.616 9.5365003,32.969 9.5365003,32.969 L 9.4295003,32.98 C 8.0435003,33.429 7.2985003,32.486 7.2985003,32.486 C 5.2675003,32.916 5.0935003,31.754 5.0935003,31.754 C 2.3915003,32.403 2.3235003,30.211 2.3235003,30.211 C 2.3235003,30.211 9.0755003,32.82 11.3005,33.115"
   style="fill:none;stroke:#737477;stroke-width:0.096;stroke-miterlimit:3.86400008;stroke-dasharray:1.261, 1.261"
   id="path85" />
<path
   d="M 17.4175,31.262 C 17.4175,31.262 19.1195,29.765 20.6015,31.35 C 20.6015,31.35 21.6105,30.592 22.7675,31.743 C 22.7675,31.743 23.8145,31.351 24.4925,32.249 L 24.4555,32.312 C 24.4555,32.312 25.7505,31.978 26.0985,32.78 C 25.2975,33.327 24.4105,32.843 24.4105,32.843 L 24.3175,32.865 C 23.1675,33.413 22.3335,32.655 22.3335,32.655 C 20.6055,33.255 20.2375,32.241 20.2375,32.241 C 17.9555,33.109 17.4905,31.169 17.4905,31.169 C 17.4905,31.169 23.9715,32.761 26.0055,32.783"
   style="fill:none;stroke:#737477;stroke-width:0.087;stroke-miterlimit:3.86400008;stroke-dasharray:1.261, 1.261"
   id="path87" />
</svg>