<?xml version="1.0" encoding="UTF-8" standalone="no"?>
<!-- Created with Inkscape (http://www.inkscape.org/) -->
<svg
   xmlns:svg="http://www.w3.org/2000/svg"
   xmlns="http://www.w3.org/2000/svg"
   version="1.0"
   width="543.97803"
   height="800.29926"
   viewBox="0 0 26.058 38.335"
   id="Layer_1"
   xml:space="preserve"><defs
   id="defs80" />
<rect
   width="25.987"
   height="38.264999"
   x="0.035"
   y="0.034263141"
   id="rect3" />
<rect
   width="25.987"
   height="38.264999"
   x="0.035"
   y="0.034263141"
   style="fill:none;stroke:black;stroke-width:0.07;stroke-miterlimit:3.86400008"
   id="rect5" />
<rect
   width="25.987"
   height="3.72"
   x="0.035"
   y="31.922264"
   style="fill:#ffd200"
   id="rect7" />
<rect
   width="25.987"
   height="3.72"
   x="0.035"
   y="31.922264"
   style="fill:none;stroke:#ffd200;stroke-width:0.07;stroke-miterlimit:3.86400008"
   id="rect9" />
<rect
   width="25.987"
   height="2.066"
   x="0.035"
   y="28.438263"
   style="fill:#ffd200"
   id="rect11" />
<rect
   width="25.987"
   height="2.066"
   x="0.035"
   y="28.438263"
   style="fill:none;stroke:#ffd200;stroke-width:0.07;stroke-miterlimit:3.86400008"
   id="rect13" />
<rect
   width="25.987"
   height="2.0669999"
   x="0.035"
   y="25.072264"
   style="fill:#ffd200"
   id="rect15" />
<rect
   width="25.987"
   height="2.0669999"
   x="0.035"
   y="25.072264"
   style="fill:none;stroke:#ffd200;stroke-width:0.07;stroke-miterlimit:3.86400008"
   id="rect17" />
<polyline
   clip-rule="evenodd"
   points="13.037,14.932 13.037,14.941 13.017,14.957 13.005,14.97   13.005,14.978 13.001,14.982 13.017,15.006 13.028,15.01 13.065,15.003 13.095,15.01 13.115,15.034 13.127,15.088 13.11,15.121   13.078,15.154 13.045,15.17 13.017,15.174 12.972,15.149 12.96,15.154 12.94,15.174 12.942,15.187 13.009,15.231 13.127,15.309   13.222,15.366 13.242,15.362 13.258,15.341 13.254,15.321 13.222,15.297 13.197,15.289 13.165,15.264 13.151,15.239 13.155,15.195   13.181,15.141 13.209,15.116 13.274,15.121 13.274,15.125 13.291,15.133 13.312,15.174 13.315,15.195 13.336,15.215 13.353,15.215   13.373,15.19 13.365,15.162 13.369,15.157 13.365,15.146 13.369,15.116 13.394,15.092 13.413,15.088 13.422,15.088 13.426,15.084   13.472,15.092 13.508,15.105 13.533,15.125 13.549,15.146 13.554,15.203 13.549,15.231 13.503,15.268 13.483,15.276 13.472,15.305   13.479,15.321 13.5,15.333 13.549,15.325 13.574,15.313 13.61,15.317 13.631,15.333 13.651,15.358 13.655,15.382 13.651,15.387   13.655,15.391 13.64,15.436 13.618,15.456 13.599,15.469 13.577,15.476 13.574,15.473 13.541,15.476 13.524,15.476 13.521,15.473   13.517,15.476 13.472,15.448 13.451,15.44 13.426,15.443 13.413,15.452 13.406,15.461 13.413,15.481 13.459,15.514 13.549,15.571   13.61,15.612 13.664,15.648 13.704,15.657 13.726,15.653 13.733,15.64 13.728,15.62 13.692,15.575 13.685,15.53 13.692,15.497   13.697,15.484 13.704,15.461 13.733,15.436 13.782,15.423 13.83,15.423 13.849,15.448 13.84,15.489 13.835,15.493 13.84,15.509   13.851,15.517 13.872,15.517 13.905,15.484 13.925,15.464 13.962,15.452 14.007,15.456 14.019,15.469 13.84,15.64 13.726,15.742   13.717,15.742 13.697,15.706 13.615,15.624 13.569,15.604 13.467,15.587 13.349,15.514 13.074,15.341 12.858,15.207 12.845,15.211   12.841,15.211 12.837,15.207 12.849,15.166 12.882,15.088 12.987,14.85 13.001,14.826 13.028,14.88 13.037,14.932 "
   id="polyline19"
   style="fill:#ffd200;fill-rule:evenodd"
   transform="translate(1.516078e-7,-7.368594e-4)" />
<polyline
   points="11.843,15.321 11.822,15.362 11.805,15.415 11.797,15.452 11.794,15.456 11.794,15.464   11.79,15.534 11.785,15.575 11.794,15.673 11.83,15.8 11.876,15.87 11.961,15.947 11.974,15.955 11.969,15.984 11.958,16.005   11.887,16.164 11.884,16.168 11.708,16.028 11.703,16.021 11.712,15.975 11.728,15.926 11.736,15.832 11.736,15.77 11.708,15.632   11.671,15.525 11.613,15.415 11.58,15.374 11.569,15.366 11.564,15.362 11.56,15.358 11.564,15.333 11.651,15.146 11.839,15.309   11.843,15.321 "
   id="polyline21"
   style="fill:#ffd200"
   transform="translate(1.516078e-7,-7.368594e-4)" />
<polyline
   clip-rule="evenodd"
   points="14.301,15.218 14.354,15.236 14.49,15.289 14.502,15.3   14.461,15.341 14.293,15.469 14.106,15.497 14.093,15.481 14.101,15.464 14.097,15.44 14.048,15.407 14.007,15.399 13.925,15.402   13.922,15.407 13.901,15.402 13.872,15.379 13.823,15.362 13.737,15.366 13.733,15.371 13.717,15.371 13.7,15.333 13.664,15.28   13.664,15.276 13.672,15.268 13.931,15.236 14.22,15.195 14.269,15.203 14.301,15.218 "
   id="polyline23"
   style="fill:#ffd200;fill-rule:evenodd"
   transform="translate(1.516078e-7,-7.368594e-4)" />
<polyline
   points="12.886,15.28 12.919,15.3 13.099,15.415 13.127,15.436 13.165,15.456 13.369,15.587 13.377,15.596   13.377,15.604 13.349,15.616 13.319,15.624 13.295,15.64 13.291,15.644 13.263,15.637 13.005,15.476 12.784,15.341 12.772,15.33   12.808,15.268 12.825,15.248 12.861,15.264 12.886,15.28 "
   id="polyline25"
   style="fill:#ffd200"
   transform="translate(1.516078e-7,-7.368594e-4)" />
<polyline
   clip-rule="evenodd"
   points="12.657,15.395 12.551,15.558 12.538,15.566 12.48,15.555   12.194,15.579 11.863,15.607 11.859,15.596 11.859,15.583 11.855,15.579 11.859,15.575 11.855,15.505 11.863,15.489 11.879,15.476   12.162,15.443 12.624,15.387 12.649,15.387 12.657,15.395 "
   id="polyline27"
   style="fill:#ffd200;fill-rule:evenodd"
   transform="translate(1.516078e-7,-7.368594e-4)" />
<polyline
   clip-rule="evenodd"
   points="11.352,15.497 11.45,15.505 11.539,15.501 11.564,15.514   11.58,15.534 11.61,15.604 11.63,15.644 11.646,15.698 11.662,15.796 11.659,15.91 11.621,16.033 11.621,16.066 11.679,16.156   11.736,16.246 11.753,16.279 11.753,16.291 11.396,16.373 11.237,16.409 11.229,16.409 11.221,16.401 11.229,16.315 11.237,16.307   11.262,16.312 11.291,16.307 11.307,16.287 11.307,16.274 11.278,16.253 11.221,16.238 11.176,16.2 11.127,16.127 11.094,16.036   11.089,16.008 11.094,15.996 11.196,15.984 11.262,15.988 11.401,15.955 11.417,15.947 11.454,15.955 11.475,15.934 11.478,15.837   11.483,15.832 11.478,15.829 11.487,15.796 11.491,15.759 11.511,15.689 11.511,15.673 11.499,15.66 11.421,15.648 11.365,15.624   11.314,15.583 11.27,15.517 11.262,15.489 11.266,15.476 11.294,15.481 11.352,15.497 "
   id="polyline29"
   style="fill:#ffd200;fill-rule:evenodd"
   transform="translate(1.516078e-7,-7.368594e-4)" />
<polyline
   clip-rule="evenodd"
   points="14.87,15.517 14.974,15.558 15.015,15.579 15.056,15.607   15.14,15.673 15.259,15.796 15.312,15.865 15.345,15.939 15.374,16.021 15.382,16.066 15.39,16.115 15.394,16.159 15.382,16.274   15.356,16.376 15.304,16.511 15.222,16.639 15.218,16.639 15.21,16.655 15.119,16.744 15.026,16.818 14.911,16.905 14.797,16.977   14.683,17.048 14.597,17.125 14.535,17.202 14.478,17.297 14.444,17.366 14.396,17.509 14.371,17.616 14.367,17.673 14.375,17.759   14.392,17.816 14.399,17.841 14.358,17.836 14.285,17.764 14.216,17.649 14.194,17.596 14.183,17.493 14.194,17.386 14.22,17.337   14.244,17.314 14.244,17.305 14.235,17.297 14.22,17.301 14.138,17.378 14.106,17.436 14.081,17.493 14.067,17.58 14.073,17.644   14.093,17.734 14.093,17.739 14.065,17.731 14.003,17.669 13.962,17.591 13.95,17.539 13.944,17.509 13.95,17.506 13.944,17.473   13.944,17.457 13.95,17.452 13.944,17.448 13.953,17.395 13.978,17.33 14.015,17.268 14.073,17.223 14.065,17.211 14.04,17.215   14.011,17.232 13.999,17.232 13.905,17.317 13.856,17.395 13.843,17.427 13.83,17.391 13.835,17.276 13.849,17.223 13.868,17.161   13.901,17.113 13.966,17.051 14.035,17.007 14.121,16.974 14.228,16.941 14.392,16.913 14.453,16.895 14.478,16.892 14.567,16.864   14.765,16.765 14.915,16.662 15.022,16.573 15.128,16.45 15.185,16.352 15.218,16.279 15.233,16.209 15.242,16.123 15.247,16.09   15.231,16 15.206,15.951 15.14,15.873 15.151,15.816 15.151,15.8 15.136,15.788 15.119,15.791 15.108,15.808 15.103,15.845   15.075,15.926 15.058,15.996 15.05,16.005 15.03,15.996 14.989,15.939 14.956,15.873 14.924,15.775 14.948,15.689 14.948,15.673   14.935,15.665 14.915,15.668 14.903,15.681 14.892,15.718 14.83,15.791 14.822,15.816 14.825,15.821 14.822,15.837 14.825,15.865   14.822,15.87 14.842,15.959 14.845,15.972 14.845,15.988 14.833,15.992 14.784,15.984 14.71,15.934 14.653,15.877 14.597,15.788   14.584,15.693 14.58,15.644 14.556,15.64 14.531,15.644 14.522,15.657 14.511,15.742 14.519,15.791 14.56,15.87 14.608,15.943   14.625,15.975 14.649,16.013 14.604,16.025 14.551,16.025 14.547,16.021 14.543,16.025 14.485,16.013 14.424,15.992 14.375,15.959   14.322,15.918 14.285,15.873 14.272,15.837 14.261,15.837 14.216,15.89 14.183,15.98 14.175,16.028 14.179,16.033 14.175,16.066   14.175,16.077 14.17,16.082 14.175,16.087 14.17,16.189 14.175,16.192 14.17,16.197 14.183,16.32 14.19,16.335 14.194,16.368   14.228,16.466 14.24,16.496 14.298,16.585 14.383,16.711 14.474,16.818 14.49,16.834 14.49,16.839 14.457,16.851 14.342,16.875   14.306,16.884 14.29,16.884 14.203,16.769 14.117,16.618 14.073,16.511 14.04,16.417 14.026,16.368 14.003,16.25 13.991,16.159   13.994,16.049 14.011,15.988 14.026,15.934 14.106,15.804 14.138,15.759 14.235,15.653 14.351,15.558 14.44,15.522 14.608,15.489   14.649,15.484 14.751,15.493 14.87,15.517 "
   id="polyline31"
   style="fill:#ffd200;fill-rule:evenodd"
   transform="translate(1.516078e-7,-7.368594e-4)" />
<polyline
   points="11.258,15.637 11.331,15.693 11.396,15.718 11.417,15.722 11.421,15.734 11.409,15.87   11.413,15.893 11.401,15.898 11.348,15.893 11.273,15.906 11.209,15.91 11.102,15.914 11.078,15.91 11.053,15.893 11.04,15.841   11.02,15.788 11,15.685 10.992,15.62 11.02,15.604 11.143,15.555 11.184,15.542 11.201,15.55 11.258,15.637 "
   id="polyline33"
   style="fill:#ffd200"
   transform="translate(1.516078e-7,-7.368594e-4)" />
<polyline
   clip-rule="evenodd"
   points="12.513,15.599 12.51,15.624 12.485,15.678 12.452,15.722   11.92,15.8 11.896,15.767 11.876,15.714 11.876,15.693 11.887,15.685 12.46,15.604 12.506,15.596 12.51,15.599 12.513,15.599 "
   id="polyline35"
   style="fill:#ffd200;fill-rule:evenodd"
   transform="translate(1.516078e-7,-7.368594e-4)" />
<polyline
   points="10.902,15.678 10.922,15.698 10.93,15.709 10.938,15.759 10.963,15.837 10.979,15.877   10.959,15.934 10.93,15.975 10.803,15.902 10.705,15.841 10.742,15.763 10.783,15.693 10.808,15.648 10.841,15.653 10.902,15.678   "
   id="polyline37"
   style="fill:#ffd200"
   transform="translate(1.516078e-7,-7.368594e-4)" />
<polyline
   clip-rule="evenodd"
   points="12.166,16.066 12.219,16.18 12.28,16.233 12.317,16.25   12.411,16.266 12.493,16.266 12.538,16.332 12.554,16.373 12.493,16.376 12.395,16.373 12.309,16.356 12.232,16.323 12.199,16.302   12.145,16.258 12.092,16.2 12.088,16.115 12.088,16.107 12.092,16.103 12.088,16.098 12.104,16.036 12.125,15.996 12.137,15.984   12.153,16 12.166,16.066 "
   id="polyline39"
   style="fill:#ffd200;fill-rule:evenodd"
   transform="translate(1.516078e-7,-7.368594e-4)" />
<polyline
   clip-rule="evenodd"
   points="12.942,16.25 12.976,16.266 13.005,16.274 13.099,16.34   13.168,16.414 13.197,16.446 13.201,16.45 13.201,16.466 13.185,16.483 13.165,16.491 13.14,16.483 13.11,16.455 13.005,16.381   12.931,16.348 12.853,16.332 12.784,16.32 12.776,16.32 12.763,16.241 12.767,16.238 12.767,16.221 12.763,16.217 12.767,16.213   12.853,16.23 12.942,16.25 "
   id="polyline41"
   style="fill:#ffd200;fill-rule:evenodd"
   transform="translate(1.516078e-7,-7.368594e-4)" />
<polyline
   points="11.764,16.437 11.764,16.45 11.716,16.499 11.7,16.507 11.695,16.511 11.683,16.499 11.659,16.414   11.654,16.393 11.654,16.381 11.675,16.368 11.695,16.364 11.72,16.364 11.764,16.437 "
   id="polyline43"
   style="fill:#ffd200"
   transform="translate(1.516078e-7,-7.368594e-4)" />
<polyline
   points="11.634,16.511 11.638,16.54 11.613,16.565 11.511,16.598 11.45,16.609 11.376,16.606   11.348,16.593 11.327,16.573 11.331,16.45 11.36,16.434 11.569,16.389 11.593,16.389 11.634,16.511 "
   id="polyline45"
   style="fill:#ffd200"
   transform="translate(1.516078e-7,-7.368594e-4)" />
<polyline
   clip-rule="evenodd"
   points="11.999,16.463 11.986,16.504 11.94,16.598 11.912,16.639   11.794,16.659 11.728,16.683 11.667,16.721 11.626,16.752 11.569,16.823 11.536,16.895 11.524,16.974 11.519,16.99 11.519,17.002   11.516,17.007 11.204,16.933 11.253,16.79 11.307,16.642 11.314,16.634 11.393,16.659 11.499,16.662 11.589,16.647 11.695,16.601   11.826,16.499 11.863,16.442 11.908,16.446 11.999,16.463 "
   id="polyline47"
   style="fill:#ffd200;fill-rule:evenodd"
   transform="translate(1.516078e-7,-7.368594e-4)" />
<polyline
   points="12.137,16.659 12.28,16.729 12.289,16.741 12.211,16.798 12.186,16.823 12.162,16.818   12.101,16.777 11.989,16.696 11.986,16.691 11.986,16.68 12.03,16.609 12.071,16.63 12.137,16.659 "
   id="polyline49"
   style="fill:#ffd200"
   transform="translate(1.516078e-7,-7.368594e-4)" />
<polyline
   clip-rule="evenodd"
   points="12.129,16.859 12.133,16.864 12.133,16.872   12.081,16.913 12.035,16.974 12.03,16.987 12.035,17.01 12.051,17.027 12.088,17.035 12.096,17.035 12.101,17.039 12.084,17.113   12.06,17.219 12.027,17.243 11.953,17.276 11.912,17.252 11.851,17.202 11.63,17.039 11.601,17.018 11.593,17.007 11.597,16.962   11.613,16.908 11.642,16.851 11.753,16.744 11.794,16.724 11.846,16.708 11.867,16.704 11.933,16.708 12.129,16.859 "
   id="polyline51"
   style="fill:#ffd200;fill-rule:evenodd"
   transform="translate(1.516078e-7,-7.368594e-4)" />
<polyline
   clip-rule="evenodd"
   points="10.938,17.301 11.025,17.378 11.237,17.596   11.229,17.603 11.098,17.616 11.094,17.611 11.061,17.616 10.959,17.608 10.914,17.591 10.792,17.514 10.864,17.44 10.864,17.424   10.869,17.42 10.857,17.399 10.841,17.386 10.815,17.391 10.792,17.407 10.779,17.427 10.693,17.444 10.619,17.477 10.529,17.485   10.521,17.485 10.521,17.477 10.718,17.334 10.836,17.243 10.864,17.252 10.938,17.301 "
   id="polyline53"
   style="fill:#ffd200;fill-rule:evenodd"
   transform="translate(1.516078e-7,-7.368594e-4)" />
<polyline
   clip-rule="evenodd"
   points="13.562,18.63 13.565,18.646 13.554,18.671 13.549,18.695   13.536,18.746 13.524,18.848 13.517,18.896 13.476,18.9 13.431,18.912 13.369,18.919 13.246,18.958 13.181,18.982 13.136,19.007   13.103,19.046 13.095,19.076 13.078,19.123 13.069,19.232 13.069,19.248 13.083,19.257 13.11,19.251 13.168,19.265 13.209,19.285   13.254,19.333 13.274,19.378 13.283,19.419 13.278,19.457 13.267,19.49 13.237,19.535 13.144,19.621 13.119,19.632 13.11,19.621   13.115,19.583 13.11,19.58 13.115,19.575 13.115,19.559 13.11,19.554 13.115,19.55 13.103,19.464 13.083,19.416 13.058,19.391   13.013,19.4 13.001,19.412 13.017,19.432 13.028,19.457 13.033,19.49 13.037,19.591 13.017,19.657 12.981,19.718 12.931,19.776   12.878,19.809 12.784,19.837 12.735,19.837 12.779,19.764 12.812,19.697 12.825,19.657 12.828,19.604 12.825,19.58 12.804,19.535   12.784,19.509 12.772,19.509 12.759,19.523 12.755,19.559 12.739,19.645 12.71,19.727 12.677,19.785 12.603,19.858 12.562,19.882   12.485,19.902 12.457,19.907 12.44,19.907 12.469,19.825 12.477,19.751 12.464,19.718 12.432,19.653 12.416,19.641 12.399,19.649   12.375,19.686 12.375,19.759 12.24,19.817 12.203,19.837 12.194,19.845 12.199,19.861 12.276,19.96 12.317,20.003 12.334,20.042   12.313,20.062 12.104,20.193 12.051,20.218 12.084,20.144 12.142,20.07 12.183,20.025 12.186,20.003 12.178,19.994 12.173,19.989   12.125,20.001 12.071,20.021 12.064,20.021 12.071,19.927 12.064,19.866 12.056,19.83 12.027,19.789 11.999,19.768 11.982,19.759   11.933,19.764 11.887,19.796 11.785,19.907 11.708,20.013 11.695,20.021 11.679,20.013 11.577,19.932 11.544,19.912 11.519,19.912   11.499,19.932 11.495,19.953 11.499,19.968 11.524,19.994 11.56,20.003 11.613,20.044 11.618,20.058 11.606,20.075 11.589,20.166   11.573,20.267 11.573,20.27 11.56,20.259 11.536,20.193 11.495,20.111 11.426,19.953 11.413,19.927 11.396,19.886 11.601,19.792   11.818,19.694 11.835,19.677 11.83,19.662 11.818,19.653 11.814,19.649 11.79,19.653 11.769,19.666 11.741,19.673 11.626,19.722   11.446,19.804 11.417,19.817 11.396,19.812 11.283,19.657 11.27,19.645 11.253,19.645 11.233,19.669 11.237,19.727 11.253,19.755   11.114,19.953 11.086,20.001 11.082,20.003 11.078,19.943 11.098,19.669 11.106,19.641 11.299,19.6 11.393,19.575 11.675,19.498   11.974,19.403 12.276,19.292 12.329,19.268 12.378,19.227 12.424,19.166 12.436,19.076 12.432,18.982 12.428,18.978 12.432,18.974   12.424,18.871 12.428,18.848 12.428,18.835 12.46,18.807 12.473,18.798 12.485,18.787 12.485,18.774 12.49,18.769 12.48,18.753   12.46,18.736 12.419,18.741 12.395,18.753 12.358,18.757 12.289,18.746 12.211,18.708 12.162,18.66 12.125,18.605 12.109,18.552   12.101,18.52 12.109,18.414 12.137,18.357 12.183,18.324 12.194,18.319 12.203,18.319 12.214,18.348 12.265,18.398 12.326,18.429   12.37,18.442 12.498,18.458 12.501,18.462 12.506,18.458 12.51,18.462 12.513,18.458 12.6,18.466 12.8,18.447 12.935,18.417   13.045,18.376 13.209,18.307 13.328,18.27 13.34,18.27 13.562,18.63 "
   id="polyline55"
   style="fill:#ffd200;fill-rule:evenodd"
   transform="translate(1.516078e-7,-7.368594e-4)" />
<polyline
   clip-rule="evenodd"
   points="13.626,18.369 13.651,18.389 13.659,18.398   13.651,18.439 13.64,18.507 13.631,18.537 13.603,18.503 13.558,18.425 13.508,18.335 13.483,18.291 13.603,18.36 13.626,18.369 "
   id="polyline57"
   style="fill:#ffd200;fill-rule:evenodd"
   transform="translate(1.516078e-7,-7.368594e-4)" />
<polyline
   clip-rule="evenodd"
   points="11.47,19.339 11.557,19.419 11.569,19.441 11.573,19.444   11.573,19.457 11.373,19.505 11.348,19.509 11.331,19.498 11.331,19.477 11.368,19.432 11.373,19.419 11.368,19.395 11.352,19.378   11.331,19.378 11.303,19.408 11.27,19.449 11.229,19.477 11.069,19.531 11.025,19.542 10.979,19.55 10.979,19.546 10.976,19.542   11.294,19.224 11.34,19.244 11.47,19.339 "
   id="polyline59"
   style="fill:#ffd200;fill-rule:evenodd"
   transform="translate(1.516078e-7,-7.368594e-4)" />
<polyline
   clip-rule="evenodd"
   points="11.999,19.886 12.007,19.943 12.002,20.009   11.982,20.078 11.966,20.234 11.969,20.283 11.994,20.369 12.007,20.393 11.904,20.446 11.805,20.525 11.761,20.569 11.736,20.602   11.679,20.7 11.667,20.757 11.671,20.794 11.708,20.832 11.733,20.832 11.749,20.814 11.736,20.753 11.764,20.708 11.797,20.684   11.83,20.688 11.859,20.708 11.896,20.757 11.917,20.811 11.916,20.869 11.9,20.91 11.851,20.95 11.81,20.97 11.774,20.975   11.769,20.978 11.764,20.975 11.749,20.978 11.7,20.97 11.659,20.945 11.621,20.921 11.577,20.876 11.536,20.802 11.524,20.741   11.532,20.675 11.544,20.638 11.577,20.569 11.683,20.431 11.712,20.382 11.733,20.324 11.733,20.3 11.769,20.279 11.839,20.208   11.863,20.171 11.896,20.091 11.892,20.085 11.9,20.044 11.892,19.976 11.871,19.921 11.871,19.902 11.958,19.825 11.966,19.825   11.999,19.886 "
   id="polyline61"
   style="fill:#ffd200;fill-rule:evenodd"
   transform="translate(1.516078e-7,-7.368594e-4)" />
<polyline
   clip-rule="evenodd"
   points="11.012,19.841 11.008,19.875 11.012,19.878   11.008,19.976 11.004,19.981 11.008,20.083 11.012,20.099 11.037,20.119 11.061,20.116 11.098,20.103 11.258,19.875 11.294,19.882   11.331,19.894 11.344,19.894 11.365,19.953 11.478,20.212 11.564,20.373 11.585,20.393 11.66,20.263 11.638,20.356 11.606,20.425   11.593,20.431 11.544,20.414 11.508,20.39 11.475,20.352 11.446,20.291 11.446,20.279 11.434,20.259 11.429,20.238 11.393,20.201   11.368,20.212 11.36,20.221 11.355,20.27 11.355,20.283 11.299,20.275 11.262,20.253 11.201,20.188 11.184,20.152 11.176,20.123   11.176,20.103 11.151,20.078 11.123,20.083 11.106,20.103 11.102,20.123 11.102,20.13 11.098,20.136 11.114,20.185 11.114,20.201   11.061,20.226 11.025,20.253 10.987,20.316 10.976,20.373 10.979,20.451 10.996,20.492 11,20.492 11,20.496 10.955,20.479   10.918,20.455 10.874,20.402 10.849,20.352 10.841,20.311 10.836,20.25 10.844,20.193 10.864,20.144 10.905,20.103 10.926,20.083   10.935,20.05 10.918,20.013 10.89,19.968 10.885,19.919 10.894,19.886 10.914,19.845 10.926,19.833 10.938,19.83 11.008,19.833   11.012,19.841 "
   id="polyline63"
   style="fill:#ffd200;fill-rule:evenodd"
   transform="translate(1.516078e-7,-7.368594e-4)" />
<polyline
   clip-rule="evenodd"
   points="14.04,19.984 14.134,20.029 14.19,20.075 14.208,20.091   14.216,20.116 14.187,20.14 14.089,20.185 13.991,20.212 13.958,20.208 13.925,20.198 13.901,20.193 13.897,20.188 13.97,20.062   13.966,20.05 13.953,20.042 13.909,20.058 13.819,20.171 13.758,20.229 13.685,20.279 13.667,20.283 13.794,20.029 13.843,19.935   13.937,19.953 14.04,19.984 "
   id="polyline65"
   style="fill:#ffd200;fill-rule:evenodd"
   transform="translate(1.516078e-7,-7.368594e-4)" />
<polyline
   clip-rule="evenodd"
   points="11.794,20.111 11.777,20.147 11.744,20.193 11.671,20.25   11.654,20.281 11.654,20.229 11.667,20.201 11.671,20.177 11.687,20.119 11.687,20.099 11.712,20.091 11.724,20.078 11.761,20.099   11.794,20.111 "
   id="polyline67"
   style="fill:#ffd200;fill-rule:evenodd"
   transform="translate(1.516078e-7,-7.368594e-4)" />
<polyline
   clip-rule="evenodd"
   points="12.244,20.316 12.35,20.349 12.554,20.397 12.772,20.438   12.981,20.458 13.447,20.466 13.7,20.451 13.697,20.5 13.676,20.589 13.667,20.597 13.39,20.61 13.119,20.597 12.951,20.582   12.812,20.561 12.653,20.528 12.436,20.466 12.256,20.405 12.051,20.332 12.035,20.291 12.035,20.267 12.051,20.25 12.092,20.259   12.244,20.316 "
   id="polyline69"
   style="fill:#ffd200;fill-rule:evenodd"
   transform="translate(1.516078e-7,-7.368594e-4)" />
<polyline
   points="12.296,20.503 12.477,20.541 12.562,20.561 12.726,20.593 13.033,20.634 13.203,20.647   13.356,20.651 13.659,20.655 13.664,20.667 13.651,20.716 13.647,20.757 13.631,20.835 13.623,20.843 13.365,20.847 13.11,20.835   12.968,20.822 12.833,20.802 12.628,20.757 12.457,20.716 12.173,20.623 11.978,20.544 11.912,20.52 11.908,20.516 11.928,20.496   11.982,20.462 12.03,20.451 12.068,20.446 12.145,20.458 12.296,20.503 "
   id="polyline71"
   style="fill:#ffd200"
   transform="translate(1.516078e-7,-7.368594e-4)" />
<polyline
   clip-rule="evenodd"
   points="14.597,20.548 14.617,20.569 14.638,20.573   14.653,20.573 14.658,20.569 14.661,20.573 14.666,20.582 14.658,20.638 14.625,20.66 14.535,20.692 14.485,20.7 14.461,20.7   14.498,20.593 14.551,20.492 14.556,20.471 14.563,20.471 14.597,20.548 "
   id="polyline73"
   style="fill:#ffd200;fill-rule:evenodd"
   transform="translate(1.516078e-7,-7.368594e-4)" />
<polyline
   clip-rule="evenodd"
   points="14.024,20.619 13.937,20.72 13.942,20.746 13.966,20.761   13.974,20.77 13.974,20.778 13.931,20.798 13.897,20.802 13.84,20.814 13.737,20.822 13.733,20.819 13.79,20.753 13.881,20.626   13.888,20.626 13.897,20.647 13.913,20.664 13.944,20.66 14.019,20.602 14.026,20.602 14.024,20.619 "
   id="polyline75"
   style="fill:#ffd200;fill-rule:evenodd"
   transform="translate(1.516078e-7,-7.368594e-4)" />
<path
   d="M 12.792,15.611263 L 12.812,15.623263 L 12.82,15.631263 L 12.812,15.680263 L 12.82,15.697263 L 12.817,15.733263 L 12.784,15.758263 L 12.705,15.790263 L 12.657,15.823263 L 12.636,15.823263 L 12.628,15.815263 L 12.624,15.795263 L 12.649,15.762263 L 12.698,15.721263 L 12.71,15.684263 L 12.682,15.667263 L 12.657,15.664263 L 12.649,15.664263 L 12.628,15.652263 L 12.608,15.639263 L 12.603,15.623263 L 12.608,15.598263 L 12.624,15.595263 L 12.69,15.615263 L 12.792,15.611263 M 12.942,15.529263 L 13.016,15.574263 L 13.024,15.582263 L 13.042,15.590263 L 13.078,15.615263 L 13.155,15.680263 L 13.192,15.721263 L 13.197,15.741263 L 13.192,15.754263 L 13.18,15.779263 L 13.184,15.807263 L 13.201,15.820263 L 13.225,15.815263 L 13.253,15.762263 L 13.318,15.697263 L 13.376,15.664263 L 13.461,15.652263 L 13.52,15.656263 L 13.553,15.667263 L 13.604,15.708263 L 13.643,15.762263 L 13.647,15.782263 L 13.651,15.790263 L 13.651,15.799263 L 13.643,15.836263 L 13.618,15.876263 L 13.569,15.913263 L 13.536,15.933263 L 13.475,15.946263 L 13.425,15.946263 L 13.397,15.954263 L 13.376,15.974263 L 13.38,15.995263 L 13.421,16.004263 L 13.524,15.995263 L 13.626,15.954263 L 13.692,15.913263 L 13.782,15.831263 L 13.794,15.851263 L 13.799,15.876263 L 13.799,15.885263 L 13.808,15.917263 L 13.799,15.983263 L 13.799,15.991263 L 13.775,16.040263 L 13.656,16.134263 L 13.586,16.175263 L 13.518,16.196263 L 13.504,16.212263 L 13.509,16.232263 L 13.518,16.240263 L 13.545,16.245263 L 13.637,16.220263 L 13.688,16.199263 L 13.768,16.147263 L 13.811,16.106263 L 13.825,16.094263 L 13.832,16.094263 L 13.842,16.102263 L 13.851,16.130263 L 13.859,16.179263 L 13.853,16.229263 L 13.832,16.290263 L 13.792,16.347263 L 13.747,16.383263 L 13.669,16.433263 L 13.633,16.449263 L 13.527,16.482263 L 13.515,16.495263 L 13.523,16.515263 L 13.551,16.526263 L 13.625,16.523263 L 13.657,16.515263 L 13.735,16.482263 L 13.832,16.408263 L 13.853,16.388263 L 13.863,16.388263 L 13.875,16.413263 L 13.887,16.454263 L 13.879,16.556263 L 13.852,16.617263 L 13.811,16.669263 L 13.737,16.723263 L 13.675,16.751263 L 13.629,16.764263 L 13.544,16.772263 L 13.479,16.776263 L 13.47,16.789263 L 13.475,16.817263 L 13.496,16.830263 L 13.553,16.842263 L 13.63,16.838263 L 13.721,16.813263 L 13.831,16.751263 L 13.844,16.740263 L 13.853,16.740263 L 13.855,16.760263 L 13.855,16.781263 L 13.861,16.792263 L 13.847,16.866263 L 13.812,16.945263 L 13.765,16.993263 L 13.721,17.030263 L 13.648,17.063263 L 13.512,17.083263 L 13.39,17.079263 L 13.36,17.079263 L 13.352,17.075263 L 13.328,17.079263 L 13.319,17.091263 L 13.324,17.112263 L 13.34,17.129263 L 13.398,17.145263 L 13.484,17.149263 L 13.578,17.140263 L 13.596,17.140263 L 13.694,17.119263 L 13.735,17.104263 L 13.743,17.108263 L 13.719,17.181263 L 13.678,17.239263 L 13.62,17.280263 L 13.559,17.308263 L 13.489,17.324263 L 13.334,17.333263 L 13.235,17.324263 L 13.199,17.304263 L 13.186,17.304263 L 13.169,17.321263 L 13.186,17.354263 L 13.207,17.365263 L 13.337,17.390263 L 13.436,17.394263 L 13.538,17.377263 L 13.567,17.365263 L 13.587,17.370263 L 13.829,17.623263 L 14.05,17.840263 L 14.271,18.036263 L 14.402,18.134263 L 14.501,18.140263 L 14.587,18.122263 L 14.641,18.101263 L 14.686,18.070263 L 14.747,17.991263 L 14.788,17.897263 L 14.805,17.844263 L 14.822,17.779263 L 14.818,17.664263 L 14.794,17.566263 L 14.761,17.484263 L 14.704,17.377263 L 14.609,17.247263 L 14.613,17.218263 L 14.715,17.096263 L 14.735,17.099263 L 14.795,17.157263 L 14.939,17.370263 L 15.015,17.541263 L 15.04,17.610263 L 15.097,17.627263 L 15.117,17.623263 L 15.135,17.623263 L 15.188,17.627263 L 15.299,17.615263 L 15.401,17.579263 L 15.409,17.590263 L 15.401,17.689263 L 15.327,17.799263 L 15.28,17.844263 L 15.198,17.873263 L 15.102,17.881263 L 15.057,17.876263 L 15.041,17.893263 L 15.037,17.914263 L 15.041,17.930263 L 15.062,17.942263 L 15.164,17.958263 L 15.24,17.950263 L 15.392,17.901263 L 15.429,17.885263 L 15.449,17.885263 L 15.437,17.938263 L 15.383,18.040263 L 15.334,18.099263 L 15.272,18.143263 L 15.19,18.173263 L 15.075,18.193263 L 15.044,18.197263 L 14.981,18.188263 L 14.946,18.167263 L 14.938,18.167263 L 14.831,18.290263 L 14.754,18.348263 L 14.716,18.365263 L 14.607,18.398263 L 14.542,18.406263 L 14.472,18.393263 L 14.423,18.369263 L 14.395,18.348263 L 14.382,18.352263 L 14.41,18.406263 L 14.451,18.447263 L 14.505,18.549263 L 14.518,18.606263 L 14.522,18.775263 L 14.522,18.808263 L 14.509,18.905263 L 14.522,18.954263 L 14.558,19.003263 L 14.595,19.036263 L 14.653,19.065263 L 14.758,19.088263 L 14.837,19.123263 L 14.885,19.158263 L 14.918,19.207263 L 14.922,19.236263 L 14.906,19.362263 L 14.886,19.399263 L 14.894,19.431263 L 14.912,19.443263 L 14.953,19.448263 L 15.057,19.517263 L 15.159,19.623263 L 15.208,19.713263 L 15.224,19.770263 L 15.234,19.836263 L 15.224,19.893263 L 15.228,19.901263 L 15.212,19.967263 L 15.194,20.020263 L 15.174,20.061263 L 15.133,19.972263 L 15.096,19.912263 L 15.024,19.836263 L 14.999,19.828263 L 14.976,19.828263 L 14.955,19.844263 L 14.955,19.857263 L 15.045,19.954263 L 15.09,20.024263 L 15.119,20.106263 L 15.127,20.165263 L 15.122,20.245263 L 15.113,20.282263 L 15.101,20.327263 L 15.07,20.390263 L 15.045,20.405263 L 15.02,20.349263 L 14.971,20.290263 L 14.869,20.212263 L 14.861,20.212263 L 14.825,20.188263 L 14.812,20.185263 L 14.791,20.206263 L 14.783,20.237263 L 14.783,20.245263 L 14.913,20.384263 L 14.921,20.402263 L 14.913,20.446263 L 14.86,20.537263 L 14.757,20.717263 L 14.741,20.746263 L 14.724,20.767263 L 14.72,20.713263 L 14.724,20.685263 L 14.73,20.574263 L 14.741,20.557263 L 14.762,20.549263 L 14.807,20.545263 L 14.819,20.533263 L 14.824,20.508263 L 14.794,20.480263 L 14.742,20.485263 L 14.725,20.493263 L 14.655,20.501263 L 14.639,20.473263 L 14.593,20.292263 L 14.581,20.284263 L 14.54,20.296263 L 14.512,20.329263 L 14.458,20.493263 L 14.396,20.608263 L 14.363,20.685263 L 14.355,20.693263 L 14.351,20.714263 L 14.339,20.727263 L 14.331,20.727263 L 14.235,20.640263 L 14.19,20.624263 L 14.178,20.624263 L 14.166,20.636263 L 14.166,20.649263 L 14.174,20.673263 L 14.207,20.697263 L 14.239,20.734263 L 14.289,20.844263 L 14.3,20.877263 L 14.321,20.930263 L 14.33,20.959263 L 14.316,20.959263 L 14.136,20.822263 L 14.033,20.733263 L 14.03,20.725263 L 14.03,20.708263 L 14.184,20.516263 L 14.32,20.331263 L 14.32,20.323263 L 14.303,20.307263 L 14.27,20.310263 L 14.131,20.470263 L 14.09,20.515263 L 14.016,20.532263 L 13.942,20.568263 L 13.93,20.555263 L 13.91,20.461263 L 13.906,20.433263 L 13.906,20.424263 L 13.873,20.401263 L 13.865,20.401263 L 13.845,20.404263 L 13.836,20.425263 L 13.831,20.458263 L 13.836,20.471263 L 13.826,20.525263 L 13.819,20.541263 L 13.811,20.590263 L 13.753,20.648263 L 13.715,20.689263 L 13.729,20.611263 L 13.741,20.549263 L 13.745,20.517263 L 13.77,20.385263 L 13.778,20.362263 L 13.79,20.350263 L 13.872,20.325263 L 14.003,20.288263 L 14.207,20.227263 L 14.277,20.189263 L 14.335,20.131263 L 14.388,20.022263 L 14.42,19.928263 L 14.453,19.801263 L 14.474,19.670263 L 14.466,19.621263 L 14.437,19.559263 L 14.343,19.468263 L 14.248,19.427263 L 14.134,19.378263 L 14.097,19.366263 L 14.044,19.320263 L 14.028,19.325263 L 14.02,19.339263 L 14.022,19.477263 L 14.01,19.550263 L 13.987,19.615263 L 13.946,19.673263 L 13.877,19.735263 L 13.812,19.771263 L 13.771,19.779263 L 13.652,19.771263 L 13.716,19.690263 L 13.734,19.653263 L 13.738,19.616263 L 13.734,19.608263 L 13.738,19.600263 L 13.73,19.538263 L 13.709,19.476263 L 13.7,19.418263 L 13.672,19.319263 L 13.631,19.160263 L 13.618,19.082263 L 13.604,18.999263 L 13.602,18.895263 L 13.61,18.827263 L 13.61,18.809263 L 13.623,18.773263 L 13.626,18.745263 L 13.655,18.675263 L 13.692,18.598263 L 13.719,18.503263 L 13.737,18.429263 L 13.733,18.335263 L 13.7,18.213263 L 13.684,18.166263 L 13.663,18.121263 L 13.639,18.092263 L 13.604,18.051263 L 13.561,18.016263 L 13.512,17.991263 L 13.491,17.997263 L 13.478,18.009263 L 13.482,18.032263 L 13.593,18.147263 L 13.616,18.196263 L 13.634,18.249263 L 13.634,18.270263 L 13.613,18.266263 L 13.551,18.230263 L 13.301,18.111263 L 13.145,18.047263 L 12.924,17.964263 L 12.875,17.948263 L 12.924,17.874263 L 12.948,17.784263 L 12.957,17.690263 L 12.953,17.570263 L 12.928,17.498263 L 12.916,17.489263 L 12.896,17.493263 L 12.878,17.506263 L 12.87,17.539263 L 12.874,17.547263 L 12.874,17.673263 L 12.862,17.780263 L 12.841,17.836263 L 12.813,17.894263 L 12.775,17.943263 L 12.714,17.989263 L 12.665,18.010263 L 12.612,18.018263 L 12.509,18.030263 L 12.497,18.030263 L 12.547,17.883263 L 12.567,17.744263 L 12.558,17.674263 L 12.542,17.642263 L 12.534,17.633263 L 12.509,17.637263 L 12.489,17.666263 L 12.476,17.715263 L 12.46,17.850263 L 12.448,17.895263 L 12.432,17.957263 L 12.391,18.010263 L 12.354,18.047263 L 12.276,18.094263 L 12.195,18.123263 L 12.133,18.123263 L 12.195,18.018263 L 12.228,17.952263 L 12.24,17.903263 L 12.248,17.858263 L 12.24,17.809263 L 12.215,17.788263 L 12.19,17.793263 L 12.169,17.809263 L 12.138,17.928263 L 12.084,18.034263 L 12.019,18.093263 L 11.957,18.128263 L 11.892,18.153263 L 11.781,18.161263 L 11.708,18.149263 L 11.818,18.034263 L 11.835,18.011263 L 11.835,17.986263 L 11.818,17.966263 L 11.798,17.961263 L 11.786,17.966263 L 11.778,17.966263 L 11.737,18.000263 L 11.663,18.043263 L 11.532,18.109263 L 11.52,18.129263 L 11.524,18.137263 L 11.545,18.293263 L 11.512,18.314263 L 11.369,18.355263 L 11.241,18.379263 L 11.208,18.379263 L 11.287,18.301263 L 11.327,18.244263 L 11.372,18.260263 L 11.442,18.281263 L 11.454,18.273263 L 11.466,18.260263 L 11.466,18.229263 L 11.45,18.208263 L 11.401,18.192263 L 11.372,18.180263 L 11.34,18.172263 L 11.331,18.162263 L 11.336,18.121263 L 11.369,18.039263 L 11.372,18.018263 L 11.369,18.007263 L 11.348,17.989263 L 11.32,17.995263 L 11.282,18.017263 L 11.136,18.161263 L 11.054,18.223263 L 11.041,18.179263 L 11.036,18.120263 L 11.029,18.099263 L 11.004,18.075263 L 10.983,18.075263 L 10.955,18.104263 L 11.013,18.444263 L 10.98,18.407263 L 10.849,18.219263 L 10.755,18.088263 L 10.755,18.074263 L 10.93,17.999263 L 11.196,17.874263 L 11.204,17.861263 L 11.201,17.836263 L 11.171,17.816263 L 11.012,17.882263 L 10.967,17.902263 L 10.861,17.907263 L 10.762,17.923263 L 10.759,17.910263 L 10.771,17.857263 L 10.787,17.805263 L 10.792,17.759263 L 10.792,17.743263 L 10.762,17.718263 L 10.746,17.718263 L 10.721,17.743263 L 10.713,17.767263 L 10.701,17.869263 L 10.68,17.889263 L 10.632,17.914263 L 10.578,17.930263 L 10.496,17.958263 L 10.657,17.709263 L 10.66,17.697263 L 10.685,17.668263 L 10.71,17.627263 L 10.754,17.635263 L 10.836,17.664263 L 10.877,17.676263 L 10.979,17.689263 L 11.127,17.692263 L 11.245,17.676263 L 11.34,17.651263 L 11.508,17.574263 L 12.498,17.083263 L 12.583,17.067263 L 12.603,17.047263 L 12.603,17.017263 L 12.583,17.001263 L 12.542,16.997263 L 12.501,17.006263 L 12.399,17.055263 L 12.235,17.132263 L 12.203,17.152263 L 12.173,17.160263 L 12.153,17.173263 L 12.166,17.104263 L 12.214,16.997263 L 12.207,16.981263 L 12.178,16.969263 L 12.15,16.965263 L 12.166,16.940263 L 12.285,16.838263 L 12.362,16.789263 L 12.498,16.731263 L 12.575,16.710263 L 12.595,16.710263 L 12.624,16.703263 L 12.685,16.699263 L 12.705,16.703263 L 12.718,16.699263 L 12.825,16.710263 L 12.915,16.736263 L 12.96,16.751263 L 12.968,16.756263 L 13.009,16.756263 L 13.033,16.731263 L 13.028,16.682263 L 13.005,16.661263 L 12.976,16.669263 L 12.964,16.674263 L 12.923,16.666263 L 12.853,16.646263 L 12.715,16.625263 L 12.69,16.621263 L 12.661,16.600263 L 12.633,16.564263 L 12.633,16.526263 L 12.669,16.495263 L 12.682,16.482263 L 12.641,16.400263 L 12.636,16.375263 L 12.636,16.355263 L 12.702,16.383263 L 12.739,16.416263 L 12.82,16.482263 L 12.833,16.485263 L 12.845,16.498263 L 12.919,16.535263 L 13.05,16.559263 L 13.086,16.559263 L 13.095,16.564263 L 13.201,16.552263 L 13.229,16.539263 L 13.257,16.506263 L 13.286,16.436263 L 13.29,16.392263 L 13.282,16.339263 L 13.261,16.281263 L 13.22,16.208263 L 13.109,16.081263 L 13.052,16.035263 L 12.99,16.015263 L 12.913,16.007263 L 12.851,16.024263 L 12.794,16.061263 L 12.724,16.126263 L 12.692,16.183263 L 12.692,16.199263 L 12.683,16.208263 L 12.675,16.249263 L 12.68,16.260263 L 12.683,16.281263 L 12.683,16.301263 L 12.655,16.294263 L 12.614,16.252263 L 12.573,16.191263 L 12.565,16.155263 L 12.528,16.117263 L 12.508,16.073263 L 12.499,16.032263 L 12.54,15.954263 L 12.565,15.889263 L 12.557,15.881263 L 12.528,15.892263 L 12.471,15.950263 L 12.455,15.966263 L 12.447,15.966263 L 12.426,15.933263 L 12.43,15.889263 L 12.528,15.729263 L 12.577,15.652263 L 12.593,15.606263 L 12.692,15.463263 L 12.733,15.411263 L 12.826,15.460263 L 12.942,15.529263 z M 12.657,16.117263 L 12.653,16.138263 L 12.636,16.150263 L 12.603,16.155263 L 12.583,16.158263 L 12.575,16.150263 L 12.583,16.122263 L 12.6,16.109263 L 12.653,16.114263 L 12.657,16.117263 z "
   style="fill:#ffd200;fill-rule:evenodd"
   id="path77" />
</svg>