<?xml version="1.0" encoding="UTF-8" standalone="no"?>
<!-- Created with Inkscape (http://www.inkscape.org/) -->

<svg
   xmlns:dc="http://purl.org/dc/elements/1.1/"
   xmlns:cc="http://creativecommons.org/ns#"
   xmlns:rdf="http://www.w3.org/1999/02/22-rdf-syntax-ns#"
   xmlns:svg="http://www.w3.org/2000/svg"
   xmlns="http://www.w3.org/2000/svg"
   xmlns:sodipodi="http://sodipodi.sourceforge.net/DTD/sodipodi-0.dtd"
   xmlns:inkscape="http://www.inkscape.org/namespaces/inkscape"
   width="96.88266mm"
   height="44.244968mm"
   viewBox="0 0 96.882658 44.244969"
   version="1.1"
   id="svg8"
   inkscape:version="0.92.2 (5c3e80d, 2017-08-06)"
   sodipodi:docname="FDF_collar_OF4_everstiluutnantti.svg">
  <defs
     id="defs2">
    <pattern
       y="0"
       x="0"
       height="6"
       width="6"
       patternUnits="userSpaceOnUse"
       id="EMFhbasepattern" />
  </defs>
  <sodipodi:namedview
     id="base"
     pagecolor="#ffffff"
     bordercolor="#666666"
     borderopacity="1.0"
     inkscape:pageopacity="0.0"
     inkscape:pageshadow="2"
     inkscape:zoom="0.98994949"
     inkscape:cx="161.27219"
     inkscape:cy="47.539821"
     inkscape:document-units="mm"
     inkscape:current-layer="layer1"
     showgrid="false"
     fit-margin-top="0"
     fit-margin-left="0"
     fit-margin-right="0"
     fit-margin-bottom="0"
     inkscape:window-width="3840"
     inkscape:window-height="2066"
     inkscape:window-x="-11"
     inkscape:window-y="-11"
     inkscape:window-maximized="1"
     inkscape:snap-midpoints="true" />
  <metadata
     id="metadata5">
    <rdf:RDF>
      <cc:Work
         rdf:about="">
        <dc:format>image/svg+xml</dc:format>
        <dc:type
           rdf:resource="http://purl.org/dc/dcmitype/StillImage" />
        <dc:title />
      </cc:Work>
    </rdf:RDF>
  </metadata>
  <g
     inkscape:label="Taso 1"
     inkscape:groupmode="layer"
     id="layer1"
     transform="translate(-43.991931,-110.57837)"
     style="display:inline">
    <path
       style="color:#000000;font-style:normal;font-variant:normal;font-weight:normal;font-stretch:normal;font-size:medium;line-height:normal;font-family:sans-serif;font-variant-ligatures:normal;font-variant-position:normal;font-variant-caps:normal;font-variant-numeric:normal;font-variant-alternates:normal;font-feature-settings:normal;text-indent:0;text-align:start;text-decoration:none;text-decoration-line:none;text-decoration-style:solid;text-decoration-color:#000000;letter-spacing:normal;word-spacing:normal;text-transform:none;writing-mode:lr-tb;direction:ltr;text-orientation:mixed;dominant-baseline:auto;baseline-shift:baseline;text-anchor:start;white-space:normal;shape-padding:0;clip-rule:nonzero;display:inline;overflow:visible;visibility:visible;opacity:1;isolation:auto;mix-blend-mode:normal;color-interpolation:sRGB;color-interpolation-filters:linearRGB;solid-color:#000000;solid-opacity:1;vector-effect:none;fill:#005647;fill-opacity:1;fill-rule:evenodd;stroke:none;stroke-width:3.00011039;stroke-linecap:round;stroke-linejoin:miter;stroke-miterlimit:4;stroke-dasharray:none;stroke-dashoffset:0;stroke-opacity:1;color-rendering:auto;image-rendering:auto;shape-rendering:auto;text-rendering:auto;enable-background:accumulate"
       d="m 62.615212,110.5784 -18.623281,44.24494 91.551759,-2.34959 c -3.9624,-7.07415 -5.09241,-13.45153 0.18796,-20.16805 -4.58131,-8.53996 1.33435,-16.88719 5.14294,-21.72733 z"
       id="path11132"
       inkscape:connector-curvature="0"
       sodipodi:nodetypes="cccccc" />
    <path
       style="color:#000000;font-style:normal;font-variant:normal;font-weight:normal;font-stretch:normal;font-size:medium;line-height:normal;font-family:sans-serif;font-variant-ligatures:normal;font-variant-position:normal;font-variant-caps:normal;font-variant-numeric:normal;font-variant-alternates:normal;font-feature-settings:normal;text-indent:0;text-align:start;text-decoration:none;text-decoration-line:none;text-decoration-style:solid;text-decoration-color:#000000;letter-spacing:normal;word-spacing:normal;text-transform:none;writing-mode:lr-tb;direction:ltr;text-orientation:mixed;dominant-baseline:auto;baseline-shift:baseline;text-anchor:start;white-space:normal;shape-padding:0;clip-rule:nonzero;display:inline;overflow:visible;visibility:visible;opacity:1;isolation:auto;mix-blend-mode:normal;color-interpolation:sRGB;color-interpolation-filters:linearRGB;solid-color:#000000;solid-opacity:1;vector-effect:none;fill:#e6e6e6;fill-opacity:1;fill-rule:evenodd;stroke:none;stroke-width:0.19999999;stroke-linecap:round;stroke-linejoin:miter;stroke-miterlimit:4;stroke-dasharray:none;stroke-dashoffset:0;stroke-opacity:1;color-rendering:auto;image-rendering:auto;shape-rendering:auto;text-rendering:auto;enable-background:accumulate"
       d="m 64.60883,113.57907 -15.999743,38.00128 82.217543,-2.01196 c -3.01639,-6.99296 -1.64761,-12.86471 1.48195,-17.40631 -2.5369,-6.55811 -1.07978,-13.11044 3.08864,-18.58304 z m 1.99136,3.00031 h 63.38034 c -2.14715,4.52783 -2.51855,10.40799 -0.98552,15.17599 -2.65176,4.51857 -3.5656,9.56084 -2.27302,14.86916 l -73.49095,1.70846 z"
       id="path11134"
       inkscape:connector-curvature="0"
       sodipodi:nodetypes="cccccccccccc" />
    <path
       style="color:#000000;font-style:normal;font-variant:normal;font-weight:normal;font-stretch:normal;font-size:medium;line-height:normal;font-family:sans-serif;font-variant-ligatures:normal;font-variant-position:normal;font-variant-caps:normal;font-variant-numeric:normal;font-variant-alternates:normal;font-feature-settings:normal;text-indent:0;text-align:start;text-decoration:none;text-decoration-line:none;text-decoration-style:solid;text-decoration-color:#000000;letter-spacing:normal;word-spacing:normal;text-transform:none;writing-mode:lr-tb;direction:ltr;text-orientation:mixed;dominant-baseline:auto;baseline-shift:baseline;text-anchor:start;white-space:normal;shape-padding:0;clip-rule:nonzero;display:inline;overflow:visible;visibility:visible;opacity:1;isolation:auto;mix-blend-mode:normal;color-interpolation:sRGB;color-interpolation-filters:linearRGB;solid-color:#000000;solid-opacity:1;vector-effect:none;fill:#e6e6e6;fill-opacity:1;fill-rule:evenodd;stroke:none;stroke-width:3;stroke-linecap:round;stroke-linejoin:miter;stroke-miterlimit:4;stroke-dasharray:none;stroke-dashoffset:0;stroke-opacity:1;color-rendering:auto;image-rendering:auto;shape-rendering:auto;text-rendering:auto;enable-background:accumulate"
       d="m 67.265387,117.5798 -12.500469,29.67854 70.683682,-1.61727 c -1.03801,-6.0916 0.5128,-10.45882 2.44179,-14.03088 -1.38627,-4.94569 -0.98693,-9.59967 0.46595,-14.03039 z m 1.991643,2.99971 h 55.22271 c -0.62287,2.80475 -0.59662,7.36834 0.20884,10.67833 -1.78223,3.62323 -2.71752,7.31416 -2.53944,11.38727 l -62.769042,1.38422 z"
       id="path11136"
       inkscape:connector-curvature="0"
       sodipodi:nodetypes="cccccccccccc" />
    <path
       style="color:#000000;font-style:normal;font-variant:normal;font-weight:normal;font-stretch:normal;font-size:medium;line-height:normal;font-family:sans-serif;font-variant-ligatures:normal;font-variant-position:normal;font-variant-caps:normal;font-variant-numeric:normal;font-variant-alternates:normal;font-feature-settings:normal;text-indent:0;text-align:start;text-decoration:none;text-decoration-line:none;text-decoration-style:solid;text-decoration-color:#000000;letter-spacing:normal;word-spacing:normal;text-transform:none;writing-mode:lr-tb;direction:ltr;text-orientation:mixed;dominant-baseline:auto;baseline-shift:baseline;text-anchor:start;white-space:normal;shape-padding:0;clip-rule:nonzero;display:inline;overflow:visible;visibility:visible;opacity:1;isolation:auto;mix-blend-mode:normal;color-interpolation:sRGB;color-interpolation-filters:linearRGB;solid-color:#000000;solid-opacity:1;vector-effect:none;fill:#e6e6e6;fill-opacity:1;fill-rule:nonzero;stroke:none;stroke-width:3;stroke-linecap:butt;stroke-linejoin:miter;stroke-miterlimit:4;stroke-dasharray:none;stroke-dashoffset:0;stroke-opacity:1;color-rendering:auto;image-rendering:auto;shape-rendering:auto;text-rendering:auto;enable-background:accumulate"
       d="m 71.767396,128.73748 -2.756746,6.88174 2.073204,-1.37428 0.0085,-0.0226 1.41732,-3.57158 0.03697,-0.0925 v 0 z m 2.785252,1.11529 -1.820616,0.77933 -0.03641,0.092 -1.319953,3.32749 2.03454,-1.34951 z m 2.061915,0.9755 -3.337278,2.20686 v -0.007 l -2.032282,1.34744 -0.0056,0.0133 -0.0085,-0.003 -2.42824,1.60864 -0.08269,0.0557 v -0.003 l -2.867378,1.89656 -1.128607,2.39627 11.410809,-7.51942 0.08269,-0.0542 z m -0.28448,2.10622 -0.08467,0.0546 -11.390207,7.50624 2.761826,-0.11969 2.91846,-1.93049 v 0 l 4.726094,-3.1286 0.08326,-0.0551 v 0 l 2.921001,-1.932 z m -12.63396,1.40776 -3.95478,9.32597 2.271324,-1.44235 2.549032,-5.81431 0.0381,-0.0879 z m 11.58494,1.20201 -2.041595,1.35148 3.588738,0.0815 0.09962,0.003 v 0 l 1.431149,-1.37185 z m -8.642491,0.15768 -1.855611,0.70081 -0.03895,0.0889 -2.49682,5.69618 11.622758,-0.4392 0.09991,-0.004 v 0.003 l 1.349022,-1.45152 -7.341729,0.26625 -3.650827,0.15793 1.2065,-2.56108 -0.0056,0.004 z m 6.310207,1.38768 -2.059094,1.36311 7.406641,0.15587 -1.370754,-1.42948 -0.09991,-0.003 -3.784601,-0.0858 z m 1.022491,4.85524 -0.09285,0.003 -11.755121,0.44408 -2.260035,1.43574 15.62862,-0.34259 z"
       id="path11138"
       inkscape:connector-curvature="0"
       sodipodi:nodetypes="cccccccccccccccccccccccccccccccccccccccccccccccccccccccccccccccccccccccccccccc" />
    <path
       inkscape:connector-curvature="0"
       style="color:#000000;font-style:normal;font-variant:normal;font-weight:normal;font-stretch:normal;font-size:medium;line-height:normal;font-family:sans-serif;font-variant-ligatures:normal;font-variant-position:normal;font-variant-caps:normal;font-variant-numeric:normal;font-variant-alternates:normal;font-feature-settings:normal;text-indent:0;text-align:start;text-decoration:none;text-decoration-line:none;text-decoration-style:solid;text-decoration-color:#000000;letter-spacing:normal;word-spacing:normal;text-transform:none;writing-mode:lr-tb;direction:ltr;text-orientation:mixed;dominant-baseline:auto;baseline-shift:baseline;text-anchor:start;white-space:normal;shape-padding:0;clip-rule:nonzero;display:inline;overflow:visible;visibility:visible;opacity:1;isolation:auto;mix-blend-mode:normal;color-interpolation:sRGB;color-interpolation-filters:linearRGB;solid-color:#000000;solid-opacity:1;vector-effect:none;fill:#e6e6e6;fill-opacity:1;fill-rule:nonzero;stroke:none;stroke-width:3;stroke-linecap:butt;stroke-linejoin:miter;stroke-miterlimit:4;stroke-dasharray:none;stroke-dashoffset:0;stroke-opacity:1;color-rendering:auto;image-rendering:auto;shape-rendering:auto;text-rendering:auto;enable-background:accumulate"
       d="m 69.516731,120.75093 0.931333,1.44642 0.03471,0.0543 4.193823,-0.003 h 0.092 l 1.345636,-1.46036 z m -0.166511,0.11111 -2.592212,6.18775 1.861538,-0.68678 0.03725,-0.0863 1.660031,-3.91397 -0.03754,-0.0574 z m 5.42544,1.5787 v 0.007 H 74.6766 l -4.18084,0.003 -1.655234,3.9031 -0.03895,0.092 -0.0056,-0.003 0.687211,1.86087 0.997938,-2.26755 0.03951,-0.092 0.902829,-2.11461 h 1.789289 l 3.024011,-0.0429 z m -3.114887,1.59009 1.187027,1.81799 0.05249,0.0822 1.944229,0.38552 -1.50114,-2.28567 z m -0.158609,0.12353 -0.656731,1.53789 1.50622,2.29238 0.384387,-1.94356 -0.05532,-0.0837 z"
       id="path11140" />
    <g
       id="g11572"
       transform="matrix(0.28222223,0,0,0.28222223,-955.21256,66.828591)">
      <path
         inkscape:connector-curvature="0"
         d="m 3719.871,254.01835 c 4.307,-3.12913 7.2295,-7.45556 8.6432,-12.19123 l 4.9613,-1.75847 -2.9984,-4.28779 c 1.6571,-4.67521 1.8433,-9.91326 0.192,-14.99536 -1.645,-5.06322 -4.8565,-9.1796 -8.9237,-11.98734 l -0.1396,-5.26202 -5.0042,1.5266 c -3.9343,-3.02073 -8.8584,-4.81648 -14.202,-4.81648 -5.3237,0 -10.2312,1.78225 -14.1583,4.78273 l -5.0477,-1.49305 -0.094,5.23091 c -4.0888,2.80824 -7.3184,6.93655 -8.9696,12.01865 -1.6452,5.06312 -1.4666,10.28112 0.1734,14.94312 l -2.98,4.33924 4.9459,1.70643 c 1.4073,4.75641 4.3355,9.10358 8.6586,12.24445 4.3069,3.12923 9.3248,4.5718 14.2654,4.45274 l 3.206,4.17498 3.151,-4.17694 c 4.9584,0.13139 9.9977,-1.3102 14.3208,-4.45117 z"
         style="display:inline;opacity:1;fill:#ffcb2d;fill-opacity:1;fill-rule:evenodd;stroke:none;stroke-width:1.0629921;stroke-linecap:butt;stroke-linejoin:miter;stroke-miterlimit:5.80000019;stroke-dasharray:none;stroke-dashoffset:0;stroke-opacity:1"
         id="path11219"
         sodipodi:nodetypes="ccccccccsccccccccccccc" />
      <path
         inkscape:connector-curvature="0"
         id="path11221"
         d="m 3712.4228,229.97087 a 10.023339,10.023339 0 0 1 -10.0233,10.02332 10.023339,10.023339 0 0 1 -10.0234,-10.02332 10.023339,10.023339 0 0 1 10.0234,-10.02332 10.023339,10.023339 0 0 1 10.0233,10.02332 z"
         style="display:inline;opacity:1;fill:none;fill-opacity:1;fill-rule:evenodd;stroke:#523400;stroke-width:1.0629921;stroke-linecap:butt;stroke-linejoin:miter;stroke-miterlimit:5.80000019;stroke-dasharray:none;stroke-dashoffset:0;stroke-opacity:1" />
      <path
         inkscape:connector-curvature="0"
         d="m 3695.654,222.49183 -5.6699,-7.85316 c -0.6526,-0.87043 -1.4782,-1.45577 -2.3888,-1.75172 -2.7322,-0.88775 -5.1469,0.77631 -6.0348,3.50853 -0.8877,2.73222 -0.5689,4.37662 -1.2282,6.4056 -0.6592,2.02889 -1.8836,3.1716 -2.7714,5.90401 -0.8877,2.73222 0.088,5.4978 2.8201,6.38575 0.9106,0.29585 1.9225,0.30759 2.9621,-0.0137 l 9.2029,-3.02054 m 0.656,2.01803 -9.2208,2.96565 c -1.0297,0.35162 -1.8414,0.95604 -2.4041,1.7305 -1.6887,2.32405 -0.8522,5.13512 1.4719,6.82374 2.3241,1.68862 3.9866,1.89359 5.7124,3.14743 1.7259,1.25394 2.4344,2.77155 4.7587,4.46027 2.3241,1.68862 5.256,1.61534 6.9447,-0.70871 0.5626,-0.77456 0.8866,-1.73353 0.9028,-2.82135 l -0.029,-9.68579 m 2.1219,-4.9e-4 -0.028,9.68618 c 0.016,1.08782 0.3401,2.0465 0.9028,2.82115 1.6885,2.32425 4.6204,2.39734 6.9446,0.70881 2.3242,-1.68872 3.0327,-3.20642 4.7586,-4.46036 1.7259,-1.25385 3.3882,-1.45881 5.7125,-3.14733 2.3242,-1.68872 3.1605,-4.4997 1.4719,-6.82385 -0.5626,-0.77455 -1.3745,-1.37907 -2.404,-1.73039 l -9.2209,-2.96575 m 0.6554,-2.01813 9.2031,3.02054 c 1.0395,0.32099 2.0516,0.30896 2.962,0.0137 2.7322,-0.88784 3.7079,-3.65352 2.8202,-6.38593 -0.8878,-2.73213 -2.1122,-3.87503 -2.7714,-5.90391 -0.6594,-2.02889 -0.3404,-3.6731 -1.2282,-6.40541 -0.8879,-2.73232 -3.3028,-4.39629 -6.035,-3.50863 -0.9104,0.29585 -1.7361,0.88109 -2.3887,1.75172 l -5.6699,7.85306 m -1.7168,-1.24699 5.7166,-7.81931 c 0.6264,-0.88942 0.928,-1.85573 0.928,-2.81303 -2e-4,-2.87281 -2.329,-4.65535 -5.202,-4.65535 -2.8727,0 -4.3381,0.81134 -6.4714,0.81134 -2.1332,0 -3.5986,-0.81134 -6.4714,-0.81134 -2.8729,0 -5.2019,1.78254 -5.202,4.65535 0,0.9573 0.3017,1.92361 0.928,2.81303 l 5.7166,7.81931"
         style="display:inline;opacity:1;fill:none;fill-opacity:1;fill-rule:evenodd;stroke:#523400;stroke-width:1.0629921;stroke-linecap:butt;stroke-linejoin:miter;stroke-miterlimit:5.80000019;stroke-dasharray:none;stroke-dashoffset:0;stroke-opacity:1"
         id="path11223" />
      <path
         inkscape:connector-curvature="0"
         d="m 3694.3526,224.00494 -6.2355,1.32555 4.2655,4.73743 m -3.9868,-4.64693 -8.1134,-2.63615 m 13.9567,12.99543 -0.6664,6.34006 5.8237,-2.59281 m -5.6514,2.35566 -5.0144,6.90162 m 16.6724,-9.25767 5.8236,2.59291 -0.6662,-6.33986 m 0.494,6.10261 5.0143,6.90172 m -3.6524,-18.71707 4.2656,-4.73744 -6.2357,-1.32546 m 5.9567,1.41606 8.1135,-2.63605 m -18.9297,-2.31045 -3.1875,-5.5207 -3.1874,5.5207 m 3.1874,-5.22739 v -8.53096"
         style="fill:none;stroke:#523400;stroke-width:1.0629921;stroke-linecap:butt;stroke-linejoin:miter;stroke-miterlimit:5.80000019;stroke-dasharray:none;stroke-opacity:1"
         id="path11225" />
      <path
         id="path11227"
         style="fill:none;stroke:#523400;stroke-width:1.0629921;stroke-linecap:butt;stroke-linejoin:miter;stroke-miterlimit:5.80000019;stroke-dasharray:none;stroke-opacity:1"
         d="m 3723.5297,243.53942 9.9458,-3.47107 -6.0059,-8.65423 m -5.6361,-17.34641 -0.2277,-10.53157 -10.0866,3.03766 m -18.2391,-2e-4 -10.0865,-3.03766 -0.228,10.53157 m -5.6363,17.34622 -6.006,8.65413 9.9458,3.47126 m 14.7555,10.72079 6.3746,8.38626 6.3748,-8.38626"
         inkscape:connector-curvature="0" />
      <path
         id="path11229"
         style="display:inline;opacity:1;fill:none;fill-opacity:1;fill-rule:evenodd;stroke:#523400;stroke-width:1.0629921;stroke-linecap:butt;stroke-linejoin:miter;stroke-miterlimit:5.80000019;stroke-dasharray:none;stroke-dashoffset:0;stroke-opacity:1"
         d="m 3674.3033,235.72862 c -1.64,-4.662 -1.8186,-9.88 -0.1734,-14.94312 1.6512,-5.0821 4.8808,-9.21041 8.9695,-12.01865 m 16.0938,49.70433 c -4.9406,0.11907 -9.9585,-1.3235 -14.2654,-4.45273 -4.3231,-3.14087 -7.2513,-7.48804 -8.6586,-12.24445 m 52.245,0.0528 c -1.4137,4.73567 -4.3362,9.0621 -8.6432,12.19123 -4.3231,3.14097 -9.3624,4.58256 -14.3208,4.45117 m 16.1952,-49.67137 c 4.0672,2.80775 7.2787,6.92413 8.9237,11.98735 1.6513,5.0821 1.4651,10.32015 -0.192,14.99536 m -42.2358,-30.75187 c 3.9271,-3.00048 8.8346,-4.78273 14.1583,-4.78273 5.3436,0 10.2677,1.79575 14.202,4.81648"
         inkscape:connector-curvature="0" />
    </g>
    <g
       id="g11564"
       transform="matrix(0.28222223,0,0,0.28222223,-955.71257,66.828591)">
      <path
         sodipodi:nodetypes="ccccccccsccccccccccccc"
         id="path11233"
         style="display:inline;opacity:1;fill:#ffcb2d;fill-opacity:1;fill-rule:evenodd;stroke:none;stroke-width:1.0629921;stroke-linecap:butt;stroke-linejoin:miter;stroke-miterlimit:5.80000019;stroke-dasharray:none;stroke-dashoffset:0;stroke-opacity:1"
         d="m 3797.7533,252.73215 c 4.3071,-3.12913 7.2296,-7.45556 8.6432,-12.19123 l 4.9613,-1.75847 -2.9984,-4.28779 c 1.6571,-4.67521 1.8433,-9.91326 0.1921,-14.99536 -1.6451,-5.06322 -4.8566,-9.1796 -8.9238,-11.98734 l -0.1396,-5.26202 -5.0041,1.5266 c -3.9343,-3.02073 -8.8584,-4.81648 -14.2021,-4.81648 -5.3237,0 -10.2312,1.78225 -14.1582,4.78273 l -5.0478,-1.49305 -0.094,5.23091 c -4.0888,2.80824 -7.3184,6.93655 -8.9696,12.01865 -1.6452,5.06312 -1.4666,10.28112 0.1734,14.94312 l -2.9799,4.33924 4.9458,1.70643 c 1.4073,4.75641 4.3355,9.10358 8.6586,12.24445 4.307,3.12923 9.3248,4.5718 14.2654,4.45274 l 3.2061,4.17498 3.1509,-4.17694 c 4.9584,0.13139 9.9977,-1.3102 14.3208,-4.45117 z"
         inkscape:connector-curvature="0" />
      <path
         style="display:inline;opacity:1;fill:none;fill-opacity:1;fill-rule:evenodd;stroke:#523400;stroke-width:1.0629921;stroke-linecap:butt;stroke-linejoin:miter;stroke-miterlimit:5.80000019;stroke-dasharray:none;stroke-dashoffset:0;stroke-opacity:1"
         d="m 3790.3051,228.68467 a 10.023339,10.023339 0 0 1 -10.0233,10.02332 10.023339,10.023339 0 0 1 -10.0234,-10.02332 10.023339,10.023339 0 0 1 10.0234,-10.02332 10.023339,10.023339 0 0 1 10.0233,10.02332 z"
         id="path11235"
         inkscape:connector-curvature="0" />
      <path
         id="path11237"
         style="display:inline;opacity:1;fill:none;fill-opacity:1;fill-rule:evenodd;stroke:#523400;stroke-width:1.0629921;stroke-linecap:butt;stroke-linejoin:miter;stroke-miterlimit:5.80000019;stroke-dasharray:none;stroke-dashoffset:0;stroke-opacity:1"
         d="m 3773.5364,221.20563 -5.67,-7.85316 c -0.6526,-0.87043 -1.4782,-1.45577 -2.3887,-1.75172 -2.7323,-0.88775 -5.147,0.77631 -6.0349,3.50853 -0.8877,2.73222 -0.5689,4.37662 -1.2282,6.4056 -0.6592,2.02889 -1.8836,3.1716 -2.7714,5.90401 -0.8877,2.73222 0.088,5.4978 2.8202,6.38575 0.9105,0.29585 1.9224,0.30759 2.962,-0.0137 l 9.203,-3.02054 m 0.6559,2.01803 -9.2207,2.96565 c -1.0297,0.35162 -1.8415,0.95604 -2.4042,1.7305 -1.6886,2.32405 -0.8522,5.13512 1.4719,6.82374 2.3242,1.68862 3.9866,1.89359 5.7124,3.14743 1.7259,1.25394 2.4345,2.77155 4.7587,4.46027 2.3242,1.68862 5.2561,1.61534 6.9447,-0.70871 0.5626,-0.77456 0.8867,-1.73353 0.9028,-2.82135 l -0.029,-9.68579 m 2.1219,-4.9e-4 -0.028,9.68618 c 0.016,1.08782 0.3401,2.0465 0.9028,2.82115 1.6885,2.32425 4.6204,2.39734 6.9446,0.70881 2.3242,-1.68872 3.0328,-3.20642 4.7587,-4.46036 1.7258,-1.25385 3.3881,-1.45881 5.7124,-3.14733 2.3242,-1.68872 3.1605,-4.4997 1.4719,-6.82385 -0.5626,-0.77455 -1.3745,-1.37907 -2.404,-1.73039 l -9.2209,-2.96575 m 0.6554,-2.01813 9.2031,3.02054 c 1.0395,0.32099 2.0516,0.30896 2.962,0.0137 2.7323,-0.88784 3.7079,-3.65352 2.8202,-6.38593 -0.8878,-2.73213 -2.1122,-3.87503 -2.7714,-5.90391 -0.6593,-2.02889 -0.3404,-3.6731 -1.2281,-6.40541 -0.888,-2.73232 -3.3028,-4.39629 -6.0351,-3.50863 -0.9104,0.29585 -1.7361,0.88109 -2.3887,1.75172 l -5.6699,7.85306 m -1.7168,-1.24699 5.7166,-7.81931 c 0.6264,-0.88942 0.9281,-1.85573 0.9281,-2.81303 -2e-4,-2.87281 -2.3291,-4.65535 -5.2021,-4.65535 -2.8727,0 -4.3381,0.81134 -6.4713,0.81134 -2.1333,0 -3.5987,-0.81134 -6.4715,-0.81134 -2.8729,0 -5.2018,1.78254 -5.2019,4.65535 0,0.9573 0.3016,1.92361 0.9279,2.81303 l 5.7166,7.81931"
         inkscape:connector-curvature="0" />
      <path
         id="path11239"
         style="fill:none;stroke:#523400;stroke-width:1.0629921;stroke-linecap:butt;stroke-linejoin:miter;stroke-miterlimit:5.80000019;stroke-dasharray:none;stroke-opacity:1"
         d="m 3772.2349,222.71874 -6.2355,1.32555 4.2655,4.73743 m -3.9868,-4.64693 -8.1134,-2.63615 m 13.9567,12.99543 -0.6664,6.34006 5.8237,-2.59281 m -5.6514,2.35566 -5.0144,6.90162 m 16.6725,-9.25767 5.8236,2.59291 -0.6663,-6.33986 m 0.4941,6.10261 5.0143,6.90172 m -3.6525,-18.71707 4.2656,-4.73744 -6.2357,-1.32546 m 5.9568,1.41606 8.1135,-2.63605 m -18.9298,-2.31045 -3.1874,-5.5207 -3.1875,5.5207 m 3.1875,-5.22739 v -8.53096"
         inkscape:connector-curvature="0" />
      <path
         inkscape:connector-curvature="0"
         d="m 3801.412,242.25322 9.9458,-3.47107 -6.0059,-8.65423 m -5.636,-17.34641 -0.2278,-10.53157 -10.0866,3.03766 m -18.2391,-2e-4 -10.0865,-3.03766 -0.228,10.53157 m -5.6363,17.34622 -6.0059,8.65413 9.9457,3.47126 m 14.7556,10.72079 6.3746,8.38626 6.3747,-8.38626"
         style="fill:none;stroke:#523400;stroke-width:1.0629921;stroke-linecap:butt;stroke-linejoin:miter;stroke-miterlimit:5.80000019;stroke-dasharray:none;stroke-opacity:1"
         id="path11241" />
      <path
         inkscape:connector-curvature="0"
         d="m 3752.1856,234.44242 c -1.64,-4.662 -1.8185,-9.88 -0.1734,-14.94312 1.6512,-5.0821 4.8808,-9.21041 8.9695,-12.01865 m 16.0938,49.70433 c -4.9406,0.11907 -9.9584,-1.3235 -14.2654,-4.45273 -4.3231,-3.14087 -7.2513,-7.48804 -8.6586,-12.24445 m 52.245,0.0528 c -1.4136,4.73567 -4.3361,9.0621 -8.6432,12.19123 -4.3231,3.14097 -9.3624,4.58256 -14.3208,4.45117 m 16.1952,-49.67137 c 4.0672,2.80775 7.2787,6.92413 8.9238,11.98735 1.6512,5.0821 1.465,10.32015 -0.1921,14.99536 m -42.2357,-30.75187 c 3.927,-3.00048 8.8345,-4.78273 14.1582,-4.78273 5.3437,0 10.2678,1.79575 14.2021,4.81648"
         style="display:inline;opacity:1;fill:none;fill-opacity:1;fill-rule:evenodd;stroke:#523400;stroke-width:1.0629921;stroke-linecap:butt;stroke-linejoin:miter;stroke-miterlimit:5.80000019;stroke-dasharray:none;stroke-dashoffset:0;stroke-opacity:1"
         id="path11243" />
    </g>
  </g>
</svg>
