<?xml version="1.0" encoding="UTF-8" standalone="no"?>
<!-- Created with Inkscape (http://www.inkscape.org/) -->

<svg
   xmlns:dc="http://purl.org/dc/elements/1.1/"
   xmlns:cc="http://creativecommons.org/ns#"
   xmlns:rdf="http://www.w3.org/1999/02/22-rdf-syntax-ns#"
   xmlns:svg="http://www.w3.org/2000/svg"
   xmlns="http://www.w3.org/2000/svg"
   xmlns:sodipodi="http://sodipodi.sourceforge.net/DTD/sodipodi-0.dtd"
   xmlns:inkscape="http://www.inkscape.org/namespaces/inkscape"
   width="111.88305mm"
   height="44.244938mm"
   viewBox="0 0 111.88305 44.244938"
   version="1.1"
   id="svg8"
   inkscape:version="0.92.2 (5c3e80d, 2017-08-06)"
   sodipodi:docname="FDF_collar_OF5_eversti.svg">
  <defs
     id="defs2">
    <pattern
       y="0"
       x="0"
       height="6"
       width="6"
       patternUnits="userSpaceOnUse"
       id="EMFhbasepattern" />
  </defs>
  <sodipodi:namedview
     id="base"
     pagecolor="#ffffff"
     bordercolor="#666666"
     borderopacity="1.0"
     inkscape:pageopacity="0.0"
     inkscape:pageshadow="2"
     inkscape:zoom="1.4"
     inkscape:cx="277.66606"
     inkscape:cy="128.71905"
     inkscape:document-units="mm"
     inkscape:current-layer="layer1"
     showgrid="false"
     fit-margin-top="0"
     fit-margin-left="0"
     fit-margin-right="0"
     fit-margin-bottom="0"
     inkscape:window-width="3840"
     inkscape:window-height="2066"
     inkscape:window-x="-11"
     inkscape:window-y="-11"
     inkscape:window-maximized="1" />
  <metadata
     id="metadata5">
    <rdf:RDF>
      <cc:Work
         rdf:about="">
        <dc:format>image/svg+xml</dc:format>
        <dc:type
           rdf:resource="http://purl.org/dc/dcmitype/StillImage" />
        <dc:title></dc:title>
      </cc:Work>
    </rdf:RDF>
  </metadata>
  <g
     inkscape:label="Taso 1"
     inkscape:groupmode="layer"
     id="layer1"
     transform="translate(-36.053381,-111.91218)"
     style="display:inline">
    <g
       style="display:inline"
       id="g1831"
       transform="matrix(0.28222223,0,0,0.28222223,-1336.0408,548.50249)">
      <path
         sodipodi:nodetypes="cccccc"
         inkscape:connector-curvature="0"
         id="path11251"
         d="m 4927.7389,-1546.9735 -65.988,156.7734 377.547,-8.3252 c -14.04,-25.0659 -18.044,-47.6629 0.666,-71.4616 -16.233,-30.2597 4.728,-59.8365 18.223,-76.9866 z"
         style="color:#000000;font-style:normal;font-variant:normal;font-weight:normal;font-stretch:normal;font-size:medium;line-height:normal;font-family:sans-serif;font-variant-ligatures:normal;font-variant-position:normal;font-variant-caps:normal;font-variant-numeric:normal;font-variant-alternates:normal;font-feature-settings:normal;text-indent:0;text-align:start;text-decoration:none;text-decoration-line:none;text-decoration-style:solid;text-decoration-color:#000000;letter-spacing:normal;word-spacing:normal;text-transform:none;writing-mode:lr-tb;direction:ltr;text-orientation:mixed;dominant-baseline:auto;baseline-shift:baseline;text-anchor:start;white-space:normal;shape-padding:0;clip-rule:nonzero;display:inline;overflow:visible;visibility:visible;opacity:1;isolation:auto;mix-blend-mode:normal;color-interpolation:sRGB;color-interpolation-filters:linearRGB;solid-color:#000000;solid-opacity:1;vector-effect:none;fill:#005647;fill-opacity:1;fill-rule:evenodd;stroke:none;stroke-width:10.63031197;stroke-linecap:round;stroke-linejoin:miter;stroke-miterlimit:4;stroke-dasharray:none;stroke-dashoffset:0;stroke-opacity:1;color-rendering:auto;image-rendering:auto;shape-rendering:auto;text-rendering:auto;enable-background:accumulate" />
      <path
         sodipodi:nodetypes="cccccccccccc"
         inkscape:connector-curvature="0"
         id="path11253"
         d="m 4934.8029,-1536.3412 -56.692,134.6503 344.473,-7.129 c -10.688,-24.7782 -5.838,-45.5836 5.251,-61.6759 -8.989,-23.2375 -3.826,-46.4544 10.944,-65.8454 z m 7.056,10.6311 h 277.727 c -7.608,16.0435 -8.924,36.8787 -3.492,53.7731 -9.396,16.0108 -12.634,33.8771 -8.054,52.686 l -313.552,6.0537 z"
         style="color:#000000;font-style:normal;font-variant:normal;font-weight:normal;font-stretch:normal;font-size:medium;line-height:normal;font-family:sans-serif;font-variant-ligatures:normal;font-variant-position:normal;font-variant-caps:normal;font-variant-numeric:normal;font-variant-alternates:normal;font-feature-settings:normal;text-indent:0;text-align:start;text-decoration:none;text-decoration-line:none;text-decoration-style:solid;text-decoration-color:#000000;letter-spacing:normal;word-spacing:normal;text-transform:none;writing-mode:lr-tb;direction:ltr;text-orientation:mixed;dominant-baseline:auto;baseline-shift:baseline;text-anchor:start;white-space:normal;shape-padding:0;clip-rule:nonzero;display:inline;overflow:visible;visibility:visible;opacity:1;isolation:auto;mix-blend-mode:normal;color-interpolation:sRGB;color-interpolation-filters:linearRGB;solid-color:#000000;solid-opacity:1;vector-effect:none;fill:#e6e6e6;fill-opacity:1;fill-rule:evenodd;stroke:none;stroke-width:0.70866138;stroke-linecap:round;stroke-linejoin:miter;stroke-miterlimit:4;stroke-dasharray:none;stroke-dashoffset:0;stroke-opacity:1;color-rendering:auto;image-rendering:auto;shape-rendering:auto;text-rendering:auto;enable-background:accumulate" />
      <path
         sodipodi:nodetypes="cccccccccccc"
         inkscape:connector-curvature="0"
         id="path11255"
         d="m 4944.2159,-1522.1653 -44.293,105.1602 303.605,-5.7305 c -3.678,-21.5845 1.817,-37.0588 8.652,-49.7158 -4.912,-17.524 -3.497,-34.0145 1.651,-49.7139 z m 7.057,10.6289 h 248.822 c -2.207,9.9381 -2.114,26.1083 0.74,37.8365 -6.315,12.8383 -9.629,25.9164 -8.998,40.3486 l -275.561,4.9048 z"
         style="color:#000000;font-style:normal;font-variant:normal;font-weight:normal;font-stretch:normal;font-size:medium;line-height:normal;font-family:sans-serif;font-variant-ligatures:normal;font-variant-position:normal;font-variant-caps:normal;font-variant-numeric:normal;font-variant-alternates:normal;font-feature-settings:normal;text-indent:0;text-align:start;text-decoration:none;text-decoration-line:none;text-decoration-style:solid;text-decoration-color:#000000;letter-spacing:normal;word-spacing:normal;text-transform:none;writing-mode:lr-tb;direction:ltr;text-orientation:mixed;dominant-baseline:auto;baseline-shift:baseline;text-anchor:start;white-space:normal;shape-padding:0;clip-rule:nonzero;display:inline;overflow:visible;visibility:visible;opacity:1;isolation:auto;mix-blend-mode:normal;color-interpolation:sRGB;color-interpolation-filters:linearRGB;solid-color:#000000;solid-opacity:1;vector-effect:none;fill:#e6e6e6;fill-opacity:1;fill-rule:evenodd;stroke:none;stroke-width:10.62992096;stroke-linecap:round;stroke-linejoin:miter;stroke-miterlimit:4;stroke-dasharray:none;stroke-dashoffset:0;stroke-opacity:1;color-rendering:auto;image-rendering:auto;shape-rendering:auto;text-rendering:auto;enable-background:accumulate" />
      <path
         sodipodi:nodetypes="cccccccccccccccccccccccccccccccccccccccccccccccccccccccccccccccccccccccccccccc"
         inkscape:connector-curvature="0"
         id="path11257"
         d="m 4960.1564,-1482.5601 -9.768,24.3841 7.346,-4.8694 0.03,-0.08 5.022,-12.6553 0.131,-0.3278 v 0 z m 9.869,3.9519 -6.451,2.7613 -0.129,0.326 -4.677,11.7903 7.209,-4.7817 z m 7.306,3.4565 -11.825,7.8196 v -0.024 l -7.201,4.7744 -0.02,0.047 -0.03,-0.011 -8.604,5.6998 -0.293,0.1973 v -0.01 l -10.16,6.7201 -3.999,8.4907 40.432,-26.6435 0.293,-0.1919 z m -1.008,7.463 -0.3,0.1935 -40.359,26.597 9.786,-0.4241 10.341,-6.8403 v 0 l 16.746,-11.0857 0.295,-0.1954 v 0 l 10.35,-6.8457 z m -44.766,4.988 -14.013,33.0448 8.048,-5.1106 9.032,-20.602 0.135,-0.3113 z m 41.049,4.2591 -7.234,4.7887 12.716,0.2888 0.353,0.01 v 0 l 5.071,-4.8608 z m -30.623,0.5588 -6.575,2.4831 -0.138,0.315 -8.847,20.1833 41.183,-1.5562 0.354,-0.015 v 0.01 l 4.78,-5.1433 -26.014,0.9434 -12.936,0.5596 4.275,-9.0746 -0.02,0.013 z m 22.359,4.9169 -7.296,4.8299 26.244,0.5523 -4.857,-5.0651 -0.354,-0.01 -13.41,-0.304 z m 3.623,17.2036 -0.329,0.012 -41.652,1.5735 -8.008,5.0873 55.377,-1.2139 z"
         style="color:#000000;font-style:normal;font-variant:normal;font-weight:normal;font-stretch:normal;font-size:medium;line-height:normal;font-family:sans-serif;font-variant-ligatures:normal;font-variant-position:normal;font-variant-caps:normal;font-variant-numeric:normal;font-variant-alternates:normal;font-feature-settings:normal;text-indent:0;text-align:start;text-decoration:none;text-decoration-line:none;text-decoration-style:solid;text-decoration-color:#000000;letter-spacing:normal;word-spacing:normal;text-transform:none;writing-mode:lr-tb;direction:ltr;text-orientation:mixed;dominant-baseline:auto;baseline-shift:baseline;text-anchor:start;white-space:normal;shape-padding:0;clip-rule:nonzero;display:inline;overflow:visible;visibility:visible;opacity:1;isolation:auto;mix-blend-mode:normal;color-interpolation:sRGB;color-interpolation-filters:linearRGB;solid-color:#000000;solid-opacity:1;vector-effect:none;fill:#e6e6e6;fill-opacity:1;fill-rule:nonzero;stroke:none;stroke-width:10.62992096;stroke-linecap:butt;stroke-linejoin:miter;stroke-miterlimit:4;stroke-dasharray:none;stroke-dashoffset:0;stroke-opacity:1;color-rendering:auto;image-rendering:auto;shape-rendering:auto;text-rendering:auto;enable-background:accumulate" />
      <path
         id="path11259"
         d="m 4952.2229,-1510.9334 3.3,5.1252 0.123,0.1922 14.86,-0.01 h 0.326 l 4.768,-5.1745 z m -0.59,0.3937 -9.185,21.9251 6.596,-2.4335 0.132,-0.3058 5.882,-13.8684 -0.133,-0.2033 z m 19.224,5.5939 v 0.026 h -0.351 l -14.814,0.01 -5.865,13.8299 -0.138,0.3259 -0.02,-0.01 2.435,6.5937 3.536,-8.0347 0.14,-0.326 3.199,-7.4927 h 6.34 l 10.715,-0.1519 z m -11.037,5.6341 4.206,6.4417 0.186,0.2911 6.889,1.366 -5.319,-8.0988 z m -0.562,0.4377 -2.327,5.4492 5.337,8.1226 1.362,-6.8866 -0.196,-0.2966 z"
         style="color:#000000;font-style:normal;font-variant:normal;font-weight:normal;font-stretch:normal;font-size:medium;line-height:normal;font-family:sans-serif;font-variant-ligatures:normal;font-variant-position:normal;font-variant-caps:normal;font-variant-numeric:normal;font-variant-alternates:normal;font-feature-settings:normal;text-indent:0;text-align:start;text-decoration:none;text-decoration-line:none;text-decoration-style:solid;text-decoration-color:#000000;letter-spacing:normal;word-spacing:normal;text-transform:none;writing-mode:lr-tb;direction:ltr;text-orientation:mixed;dominant-baseline:auto;baseline-shift:baseline;text-anchor:start;white-space:normal;shape-padding:0;clip-rule:nonzero;display:inline;overflow:visible;visibility:visible;opacity:1;isolation:auto;mix-blend-mode:normal;color-interpolation:sRGB;color-interpolation-filters:linearRGB;solid-color:#000000;solid-opacity:1;vector-effect:none;fill:#e6e6e6;fill-opacity:1;fill-rule:nonzero;stroke:none;stroke-width:10.62992096;stroke-linecap:butt;stroke-linejoin:miter;stroke-miterlimit:4;stroke-dasharray:none;stroke-dashoffset:0;stroke-opacity:1;color-rendering:auto;image-rendering:auto;shape-rendering:auto;text-rendering:auto;enable-background:accumulate"
         inkscape:connector-curvature="0" />
      <g
         transform="translate(1328.5187,-1486.1776)"
         id="g11580">
        <path
           inkscape:connector-curvature="0"
           d="m 3706.844,38.922152 c 4.3071,-3.129133 7.2296,-7.455562 8.6432,-12.191232 l 4.9614,-1.758474 -2.9985,-4.287784 c 1.6572,-4.675209 1.8433,-9.913258 0.1921,-14.9953597 -1.6451,-5.06321939 -4.8566,-9.1795983 -8.9238,-11.9873453 l -0.1396,-5.262019 -5.0041,1.526607 c -3.9343,-3.020732 -8.8584,-4.816481 -14.202,-4.816481 -5.3238,0 -10.2312,1.782247 -14.1583,4.782728 l -5.0478,-1.493049 -0.094,5.230907 c -4.0888,2.8082362 -7.3184,6.93655089 -8.9695,12.0186523 -1.6452,5.0631217 -1.4667,10.2811147 0.1733,14.9431157 l -2.9799,4.339246 4.9458,1.706426 c 1.4074,4.756411 4.3355,9.103581 8.6586,12.244454 4.307,3.12923 9.3248,4.571797 14.2655,4.452733 l 3.206,4.174982 3.1509,-4.176939 c 4.9585,0.131392 9.9977,-1.310197 14.3208,-4.451168 z"
           style="display:inline;opacity:1;fill:#ffcb2d;fill-opacity:1;fill-rule:evenodd;stroke:none;stroke-width:1.0629921;stroke-linecap:butt;stroke-linejoin:miter;stroke-miterlimit:5.80000019;stroke-dasharray:none;stroke-dashoffset:0;stroke-opacity:1"
           id="path11177"
           sodipodi:nodetypes="ccccccccsccccccccccccc" />
        <path
           inkscape:connector-curvature="0"
           id="path11179"
           d="m 3699.3958,14.874673 a 10.023339,10.023339 0 0 1 -10.0232,10.023321 10.023339,10.023339 0 0 1 -10.0234,-10.023321 10.023339,10.023339 0 0 1 10.0234,-10.0233216 10.023339,10.023339 0 0 1 10.0232,10.0233216 z"
           style="display:inline;opacity:1;fill:none;fill-opacity:1;fill-rule:evenodd;stroke:#523400;stroke-width:1.0629921;stroke-linecap:butt;stroke-linejoin:miter;stroke-miterlimit:5.80000019;stroke-dasharray:none;stroke-dashoffset:0;stroke-opacity:1" />
        <path
           inkscape:connector-curvature="0"
           d="m 3682.6271,7.3956306 -5.67,-7.85316058 c -0.6525,-0.87043192 -1.4782,-1.45577462 -2.3887,-1.75172342 -2.7322,-0.8877486 -5.147,0.7763153 -6.0348,3.5085342 -0.8878,2.732219 -0.5689,4.3766182 -1.2282,6.4056041 -0.6592,2.0288881 -1.8836,3.1715931 -2.7715,5.9040071 -0.8876,2.732219 0.088,5.4978 2.8202,6.385744 0.9105,0.295851 1.9224,0.307591 2.962,-0.0137 l 9.203,-3.020536 m 0.656,2.018028 -9.2208,2.965652 c -1.0297,0.351616 -1.8414,0.956037 -2.4042,1.730493 -1.6886,2.324054 -0.8521,5.135128 1.4719,6.823748 2.3242,1.68862 3.9867,1.893583 5.7125,3.147428 1.7259,1.253942 2.4344,2.771548 4.7586,4.460266 2.3242,1.688621 5.2561,1.615343 6.9447,-0.708711 0.5627,-0.774555 0.8867,-1.733527 0.9028,-2.821346 l -0.029,-9.685793 m 2.1218,-4.9e-4 -0.028,9.686185 c 0.016,1.08782 0.3401,2.046498 0.9028,2.82115 1.6886,2.32425 4.6205,2.397332 6.9446,0.70881 2.3243,-1.688718 3.0328,-3.206422 4.7587,-4.460365 1.7259,-1.253844 3.3882,-1.458807 5.7124,-3.14733 2.3243,-1.688718 3.1606,-4.499693 1.4719,-6.823845 -0.5626,-0.774555 -1.3744,-1.379073 -2.4039,-1.730396 l -9.2209,-2.965749 m 0.6554,-2.018127 9.203,3.020537 c 1.0395,0.320994 2.0516,0.308961 2.9621,0.0137 2.7322,-0.887847 3.7078,-3.653525 2.8202,-6.38594 -0.8879,-2.732121 -2.1123,-3.8750212 -2.7715,-5.9039093 -0.6593,-2.028888 -0.3404,-3.6730915 -1.2281,-6.4054084 -0.888,-2.7323168 -3.3028,-4.3962828 -6.035,-3.5086321 -0.9105,0.295851 -1.7362,0.8810959 -2.3887,1.75172348 l -5.6699,7.85306282 m -1.7168,-1.2469962 5.7165,-7.81931 c 0.6265,-0.8894118 0.9281,-1.8557213 0.9281,-2.8130301 -2e-4,-2.8728069 -2.3291,-4.6553481 -5.2021,-4.6553481 -2.8727,0 -4.338,0.81134 -6.4713,0.81134 -2.1333,0 -3.5987,-0.81134 -6.4715,-0.81134 -2.8729,0 -5.2018,1.7825412 -5.2019,4.6553481 0,0.9573088 0.3016,1.9236183 0.928,2.8130301 l 5.7165,7.81931"
           style="display:inline;opacity:1;fill:none;fill-opacity:1;fill-rule:evenodd;stroke:#523400;stroke-width:1.0629921;stroke-linecap:butt;stroke-linejoin:miter;stroke-miterlimit:5.80000019;stroke-dasharray:none;stroke-dashoffset:0;stroke-opacity:1"
           id="path11181" />
        <path
           inkscape:connector-curvature="0"
           d="m 3681.3256,8.9087362 -6.2355,1.3255568 4.2655,4.737431 m -3.9867,-4.646934 -8.1134,-2.6361456 m 13.9566,12.9954306 -0.6663,6.340055 5.8237,-2.592805 m -5.6514,2.355654 -5.0144,6.901624 m 16.6724,-9.25767 5.8236,2.592903 -0.6663,-6.339859 m 0.4941,6.102611 5.0143,6.901722 m -3.6525,-18.717075 4.2656,-4.737431 -6.2356,-1.3254591 m 5.9567,1.4160541 8.1135,-2.6360481 m -18.9298,-2.3104552 -3.1874,-5.52069268 -3.1875,5.52069268 m 3.1875,-5.2273854 v -8.5309568"
           style="fill:none;stroke:#523400;stroke-width:1.0629921;stroke-linecap:butt;stroke-linejoin:miter;stroke-miterlimit:5.80000019;stroke-dasharray:none;stroke-opacity:1"
           id="path11183" />
        <path
           id="path11185"
           style="fill:none;stroke:#523400;stroke-width:1.0629921;stroke-linecap:butt;stroke-linejoin:miter;stroke-miterlimit:5.80000019;stroke-dasharray:none;stroke-opacity:1"
           d="m 3710.5027,28.443216 9.9459,-3.471063 -6.006,-8.654228 m -5.636,-17.3464161 -0.2278,-10.5315709 -10.0866,3.0376579 m -18.2391,-1.956e-4 -10.0865,-3.0376573 -0.2279,10.5315703 m -5.6364,17.3462197 -6.0059,8.654131 9.9457,3.471259 m 14.7556,10.720782 6.3746,8.38626 6.3748,-8.38626"
           inkscape:connector-curvature="0" />
        <path
           id="path11187"
           style="display:inline;opacity:1;fill:none;fill-opacity:1;fill-rule:evenodd;stroke:#523400;stroke-width:1.0629921;stroke-linecap:butt;stroke-linejoin:miter;stroke-miterlimit:5.80000019;stroke-dasharray:none;stroke-dashoffset:0;stroke-opacity:1"
           d="m 3661.2763,20.632418 c -1.64,-4.662001 -1.8185,-9.879994 -0.1733,-14.9431157 1.6511,-5.08210141 4.8807,-9.2104161 8.9694,-12.0186523 m 16.0939,49.704333 c -4.9407,0.119065 -9.9585,-1.323502 -14.2655,-4.452733 -4.3231,-3.140873 -7.2512,-7.488043 -8.6586,-12.244454 m 52.245,0.05283 c -1.4136,4.73567 -4.3361,9.062099 -8.6432,12.191232 -4.3231,3.140971 -9.3623,4.582559 -14.3208,4.451168 m 16.1952,-49.6713635 c 4.0672,2.807747 7.2787,6.92412591 8.9238,11.9873453 1.6512,5.0821012 1.4651,10.3201512 -0.1921,14.9953592 m -42.2357,-30.751869 c 3.9271,-3.000481 8.8345,-4.782729 14.1583,-4.782729 5.3436,0 10.2677,1.795749 14.202,4.816481"
           inkscape:connector-curvature="0" />
      </g>
      <g
         transform="translate(1321.4321,-1487.4913)"
         id="g11588">
        <path
           sodipodi:nodetypes="ccccccccsccccccccccccc"
           id="path11191"
           style="display:inline;opacity:1;fill:#ffcb2d;fill-opacity:1;fill-rule:evenodd;stroke:none;stroke-width:1.0629921;stroke-linecap:butt;stroke-linejoin:miter;stroke-miterlimit:5.80000019;stroke-dasharray:none;stroke-dashoffset:0;stroke-opacity:1"
           d="m 3784.7263,38.922152 c 4.3071,-3.129133 7.2296,-7.455562 8.6432,-12.191232 l 4.9614,-1.758474 -2.9984,-4.287784 c 1.6571,-4.675209 1.8433,-9.913258 0.192,-14.9953597 -1.6451,-5.06321939 -4.8566,-9.1795983 -8.9237,-11.9873453 l -0.1397,-5.262019 -5.0041,1.526607 c -3.9343,-3.020732 -8.8584,-4.816481 -14.202,-4.816481 -5.3238,0 -10.2312,1.782247 -14.1583,4.782728 l -5.0478,-1.493049 -0.094,5.230907 c -4.0888,2.8082362 -7.3184,6.93655089 -8.9695,12.0186523 -1.6452,5.0631217 -1.4667,10.2811147 0.1733,14.9431157 l -2.9799,4.339246 4.9458,1.706426 c 1.4074,4.756411 4.3356,9.103581 8.6587,12.244454 4.3069,3.12923 9.3247,4.571797 14.2654,4.452733 l 3.206,4.174982 3.151,-4.176939 c 4.9584,0.131392 9.9976,-1.310197 14.3207,-4.451168 z"
           inkscape:connector-curvature="0" />
        <path
           style="display:inline;opacity:1;fill:none;fill-opacity:1;fill-rule:evenodd;stroke:#523400;stroke-width:1.0629921;stroke-linecap:butt;stroke-linejoin:miter;stroke-miterlimit:5.80000019;stroke-dasharray:none;stroke-dashoffset:0;stroke-opacity:1"
           d="m 3777.2781,14.874673 a 10.023339,10.023339 0 0 1 -10.0232,10.023321 10.023339,10.023339 0 0 1 -10.0234,-10.023321 10.023339,10.023339 0 0 1 10.0234,-10.0233216 10.023339,10.023339 0 0 1 10.0232,10.0233216 z"
           id="path11193"
           inkscape:connector-curvature="0" />
        <path
           id="path11195"
           style="display:inline;opacity:1;fill:none;fill-opacity:1;fill-rule:evenodd;stroke:#523400;stroke-width:1.0629921;stroke-linecap:butt;stroke-linejoin:miter;stroke-miterlimit:5.80000019;stroke-dasharray:none;stroke-dashoffset:0;stroke-opacity:1"
           d="m 3760.5094,7.3956306 -5.67,-7.85316058 c -0.6525,-0.87043192 -1.4781,-1.45577462 -2.3887,-1.75172342 -2.7322,-0.8877486 -5.147,0.7763153 -6.0348,3.5085342 -0.8878,2.732219 -0.5689,4.3766182 -1.2282,6.4056041 -0.6592,2.0288881 -1.8836,3.1715931 -2.7715,5.9040071 -0.8876,2.732219 0.088,5.4978 2.8202,6.385744 0.9106,0.295851 1.9225,0.307591 2.962,-0.0137 l 9.203,-3.020536 m 0.656,2.018028 -9.2208,2.965652 c -1.0297,0.351616 -1.8414,0.956037 -2.4042,1.730493 -1.6886,2.324054 -0.8521,5.135128 1.4719,6.823748 2.3242,1.68862 3.9867,1.893583 5.7125,3.147428 1.7259,1.253942 2.4344,2.771548 4.7587,4.460266 2.3241,1.688621 5.256,1.615343 6.9446,-0.708711 0.5627,-0.774555 0.8867,-1.733527 0.9028,-2.821346 l -0.029,-9.685793 m 2.1218,-4.9e-4 -0.028,9.686185 c 0.016,1.08782 0.34,2.046498 0.9028,2.82115 1.6885,2.32425 4.6204,2.397332 6.9445,0.70881 2.3243,-1.688718 3.0328,-3.206422 4.7587,-4.460365 1.7259,-1.253844 3.3882,-1.458807 5.7124,-3.14733 2.3243,-1.688718 3.1606,-4.499693 1.472,-6.823845 -0.5627,-0.774555 -1.3745,-1.379073 -2.404,-1.730396 l -9.2209,-2.965749 m 0.6554,-2.018127 9.2031,3.020537 c 1.0395,0.320994 2.0516,0.308961 2.962,0.0137 2.7322,-0.887847 3.7078,-3.653525 2.8202,-6.38594 -0.8879,-2.732121 -2.1123,-3.8750212 -2.7715,-5.9039093 -0.6593,-2.028888 -0.3403,-3.6730915 -1.2281,-6.4054084 -0.8879,-2.7323168 -3.3028,-4.3962828 -6.035,-3.5086321 -0.9104,0.295851 -1.7362,0.8810959 -2.3887,1.75172348 l -5.6699,7.85306282 m -1.7168,-1.2469962 5.7165,-7.81931 c 0.6265,-0.8894118 0.9281,-1.8557213 0.9281,-2.8130301 -2e-4,-2.8728069 -2.329,-4.6553481 -5.202,-4.6553481 -2.8728,0 -4.3381,0.81134 -6.4714,0.81134 -2.1333,0 -3.5986,-0.81134 -6.4714,-0.81134 -2.8729,0 -5.2019,1.7825412 -5.202,4.6553481 0,0.9573088 0.3016,1.9236183 0.928,2.8130301 l 5.7165,7.81931"
           inkscape:connector-curvature="0" />
        <path
           id="path11197"
           style="fill:none;stroke:#523400;stroke-width:1.0629921;stroke-linecap:butt;stroke-linejoin:miter;stroke-miterlimit:5.80000019;stroke-dasharray:none;stroke-opacity:1"
           d="m 3759.2079,8.9087362 -6.2354,1.3255568 4.2654,4.737431 m -3.9867,-4.646934 -8.1134,-2.6361456 m 13.9566,12.9954306 -0.6663,6.340055 5.8237,-2.592805 m -5.6514,2.355654 -5.0144,6.901624 m 16.6724,-9.25767 5.8236,2.592903 -0.6663,-6.339859 m 0.4941,6.102611 5.0143,6.901722 m -3.6524,-18.717075 4.2655,-4.737431 -6.2356,-1.3254591 m 5.9567,1.4160541 8.1135,-2.6360481 m -18.9298,-2.3104552 -3.1874,-5.52069268 -3.1874,5.52069268 m 3.1874,-5.2273854 v -8.5309568"
           inkscape:connector-curvature="0" />
        <path
           inkscape:connector-curvature="0"
           d="m 3788.3851,28.443216 9.9458,-3.471063 -6.006,-8.654228 m -5.636,-17.3464161 -0.2278,-10.5315709 -10.0866,3.0376579 m -18.239,-1.956e-4 -10.0866,-3.0376573 -0.2279,10.5315703 m -5.6363,17.3462197 -6.006,8.654131 9.9457,3.471259 m 14.7556,10.720782 6.3746,8.38626 6.3748,-8.38626"
           style="fill:none;stroke:#523400;stroke-width:1.0629921;stroke-linecap:butt;stroke-linejoin:miter;stroke-miterlimit:5.80000019;stroke-dasharray:none;stroke-opacity:1"
           id="path11199" />
        <path
           inkscape:connector-curvature="0"
           d="m 3739.1586,20.632418 c -1.64,-4.662001 -1.8185,-9.879994 -0.1733,-14.9431157 1.6511,-5.08210141 4.8807,-9.2104161 8.9694,-12.0186523 m 16.0939,49.704333 c -4.9407,0.119065 -9.9585,-1.323502 -14.2654,-4.452733 -4.3231,-3.140873 -7.2513,-7.488043 -8.6587,-12.244454 m 52.245,0.05283 c -1.4136,4.73567 -4.3361,9.062099 -8.6432,12.191232 -4.3231,3.140971 -9.3623,4.582559 -14.3207,4.451168 m 16.1952,-49.6713635 c 4.0671,2.807747 7.2786,6.92412591 8.9237,11.9873453 1.6513,5.0821012 1.4651,10.3201512 -0.192,14.9953592 m -42.2358,-30.751869 c 3.9271,-3.000481 8.8345,-4.782729 14.1583,-4.782729 5.3436,0 10.2677,1.795749 14.202,4.816481"
           style="display:inline;opacity:1;fill:none;fill-opacity:1;fill-rule:evenodd;stroke:#523400;stroke-width:1.0629921;stroke-linecap:butt;stroke-linejoin:miter;stroke-miterlimit:5.80000019;stroke-dasharray:none;stroke-dashoffset:0;stroke-opacity:1"
           id="path11201" />
      </g>
      <g
         transform="translate(1314.3454,-1488.5018)"
         id="g11596">
        <path
           inkscape:connector-curvature="0"
           d="m 3862.6089,38.922152 c 4.307,-3.129133 7.2296,-7.455562 8.6432,-12.191232 l 4.9613,-1.758474 -2.9984,-4.287784 c 1.6571,-4.675209 1.8433,-9.913258 0.1921,-14.9953597 -1.6451,-5.06321939 -4.8566,-9.1795983 -8.9238,-11.9873453 l -0.1396,-5.262019 -5.0041,1.526607 c -3.9344,-3.020732 -8.8584,-4.816481 -14.2021,-4.816481 -5.3237,0 -10.2312,1.782247 -14.1583,4.782728 l -5.0477,-1.493049 -0.094,5.230907 c -4.0888,2.8082362 -7.3184,6.93655089 -8.9696,12.0186523 -1.6452,5.0631217 -1.4666,10.2811147 0.1734,14.9431157 l -2.98,4.339246 4.9459,1.706426 c 1.4073,4.756411 4.3355,9.103581 8.6586,12.244454 4.307,3.12923 9.3248,4.571797 14.2654,4.452733 l 3.206,4.174982 3.151,-4.176939 c 4.9584,0.131392 9.9977,-1.310197 14.3208,-4.451168 z"
           style="display:inline;opacity:1;fill:#ffcb2d;fill-opacity:1;fill-rule:evenodd;stroke:none;stroke-width:1.0629921;stroke-linecap:butt;stroke-linejoin:miter;stroke-miterlimit:5.80000019;stroke-dasharray:none;stroke-dashoffset:0;stroke-opacity:1"
           id="path11205"
           sodipodi:nodetypes="ccccccccsccccccccccccc" />
        <path
           inkscape:connector-curvature="0"
           id="path11207"
           d="m 3855.1607,14.874673 a 10.023339,10.023339 0 0 1 -10.0233,10.023321 10.023339,10.023339 0 0 1 -10.0234,-10.023321 10.023339,10.023339 0 0 1 10.0234,-10.0233216 10.023339,10.023339 0 0 1 10.0233,10.0233216 z"
           style="display:inline;opacity:1;fill:none;fill-opacity:1;fill-rule:evenodd;stroke:#523400;stroke-width:1.0629921;stroke-linecap:butt;stroke-linejoin:miter;stroke-miterlimit:5.80000019;stroke-dasharray:none;stroke-dashoffset:0;stroke-opacity:1" />
        <path
           inkscape:connector-curvature="0"
           d="m 3838.392,7.3956306 -5.67,-7.85316058 c -0.6526,-0.87043192 -1.4782,-1.45577462 -2.3888,-1.75172342 -2.7322,-0.8877486 -5.1469,0.7763153 -6.0348,3.5085342 -0.8877,2.732219 -0.5689,4.3766182 -1.2282,6.4056041 -0.6592,2.0288881 -1.8836,3.1715931 -2.7714,5.9040071 -0.8877,2.732219 0.088,5.4978 2.8201,6.385744 0.9106,0.295851 1.9225,0.307591 2.9621,-0.0137 l 9.203,-3.020536 m 0.6559,2.018028 -9.2207,2.965652 c -1.0298,0.351616 -1.8415,0.956037 -2.4042,1.730493 -1.6886,2.324054 -0.8522,5.135128 1.4719,6.823748 2.3241,1.68862 3.9866,1.893583 5.7124,3.147428 1.7259,1.253942 2.4344,2.771548 4.7587,4.460266 2.3241,1.688621 5.256,1.615343 6.9447,-0.708711 0.5626,-0.774555 0.8866,-1.733527 0.9028,-2.821346 l -0.029,-9.685793 m 2.1219,-4.9e-4 -0.028,9.686185 c 0.016,1.08782 0.3401,2.046498 0.9028,2.82115 1.6885,2.32425 4.6204,2.397332 6.9446,0.70881 2.3242,-1.688718 3.0327,-3.206422 4.7586,-4.460365 1.7259,-1.253844 3.3882,-1.458807 5.7125,-3.14733 2.3242,-1.688718 3.1605,-4.499693 1.4719,-6.823845 -0.5626,-0.774555 -1.3745,-1.379073 -2.404,-1.730396 l -9.2209,-2.965749 m 0.6554,-2.018127 9.2031,3.020537 c 1.0395,0.320994 2.0516,0.308961 2.962,0.0137 2.7323,-0.887847 3.7079,-3.653525 2.8202,-6.38594 -0.8878,-2.732121 -2.1122,-3.8750212 -2.7714,-5.9039093 -0.6593,-2.028888 -0.3404,-3.6730915 -1.2282,-6.4054084 -0.8879,-2.7323168 -3.3027,-4.3962828 -6.035,-3.5086321 -0.9104,0.295851 -1.7361,0.8810959 -2.3887,1.75172348 l -5.6699,7.85306282 m -1.7168,-1.2469962 5.7166,-7.81931 c 0.6264,-0.8894118 0.928,-1.8557213 0.928,-2.8130301 -2e-4,-2.8728069 -2.329,-4.6553481 -5.202,-4.6553481 -2.8727,0 -4.3381,0.81134 -6.4714,0.81134 -2.1332,0 -3.5986,-0.81134 -6.4714,-0.81134 -2.8729,0 -5.2018,1.7825412 -5.2019,4.6553481 0,0.9573088 0.3016,1.9236183 0.9279,2.8130301 l 5.7166,7.81931"
           style="display:inline;opacity:1;fill:none;fill-opacity:1;fill-rule:evenodd;stroke:#523400;stroke-width:1.0629921;stroke-linecap:butt;stroke-linejoin:miter;stroke-miterlimit:5.80000019;stroke-dasharray:none;stroke-dashoffset:0;stroke-opacity:1"
           id="path11209" />
        <path
           inkscape:connector-curvature="0"
           d="m 3837.0905,8.9087362 -6.2355,1.3255568 4.2655,4.737431 m -3.9868,-4.646934 -8.1134,-2.6361456 m 13.9567,12.9954306 -0.6664,6.340055 5.8237,-2.592805 m -5.6514,2.355654 -5.0144,6.901624 m 16.6725,-9.25767 5.8235,2.592903 -0.6662,-6.339859 m 0.4941,6.102611 5.0143,6.901722 m -3.6525,-18.717075 4.2656,-4.737431 -6.2357,-1.3254591 m 5.9568,1.4160541 8.1135,-2.6360481 m -18.9298,-2.3104552 -3.1875,-5.52069268 -3.1874,5.52069268 m 3.1874,-5.2273854 v -8.5309568"
           style="fill:none;stroke:#523400;stroke-width:1.0629921;stroke-linecap:butt;stroke-linejoin:miter;stroke-miterlimit:5.80000019;stroke-dasharray:none;stroke-opacity:1"
           id="path11211" />
        <path
           id="path11213"
           style="fill:none;stroke:#523400;stroke-width:1.0629921;stroke-linecap:butt;stroke-linejoin:miter;stroke-miterlimit:5.80000019;stroke-dasharray:none;stroke-opacity:1"
           d="m 3866.2676,28.443216 9.9458,-3.471063 -6.0059,-8.654228 m -5.6361,-17.3464161 -0.2277,-10.5315709 -10.0866,3.0376579 m -18.2391,-1.956e-4 -10.0865,-3.0376573 -0.228,10.5315703 m -5.6363,17.3462197 -6.006,8.654131 9.9458,3.471259 m 14.7556,10.720782 6.3745,8.38626 6.3748,-8.38626"
           inkscape:connector-curvature="0" />
        <path
           id="path11215"
           style="display:inline;opacity:1;fill:none;fill-opacity:1;fill-rule:evenodd;stroke:#523400;stroke-width:1.0629921;stroke-linecap:butt;stroke-linejoin:miter;stroke-miterlimit:5.80000019;stroke-dasharray:none;stroke-dashoffset:0;stroke-opacity:1"
           d="m 3817.0412,20.632418 c -1.64,-4.662001 -1.8186,-9.879994 -0.1734,-14.9431157 1.6512,-5.08210141 4.8808,-9.2104161 8.9695,-12.0186523 m 16.0938,49.704333 c -4.9406,0.119065 -9.9584,-1.323502 -14.2654,-4.452733 -4.3231,-3.140873 -7.2513,-7.488043 -8.6586,-12.244454 m 52.245,0.05283 c -1.4136,4.73567 -4.3362,9.062099 -8.6432,12.191232 -4.3231,3.140971 -9.3624,4.582559 -14.3208,4.451168 m 16.1952,-49.6713635 c 4.0672,2.807747 7.2787,6.92412591 8.9238,11.9873453 1.6512,5.0821012 1.465,10.3201512 -0.1921,14.9953592 m -42.2358,-30.751869 c 3.9271,-3.000481 8.8346,-4.782729 14.1583,-4.782729 5.3437,0 10.2677,1.795749 14.2021,4.816481"
           inkscape:connector-curvature="0" />
      </g>
    </g>
  </g>
</svg>
