<?xml version="1.0" encoding="UTF-8" standalone="no"?>
<!-- Created with Inkscape (http://www.inkscape.org/) -->

<svg
   xmlns:dc="http://purl.org/dc/elements/1.1/"
   xmlns:cc="http://creativecommons.org/ns#"
   xmlns:rdf="http://www.w3.org/1999/02/22-rdf-syntax-ns#"
   xmlns:svg="http://www.w3.org/2000/svg"
   xmlns="http://www.w3.org/2000/svg"
   xmlns:sodipodi="http://sodipodi.sourceforge.net/DTD/sodipodi-0.dtd"
   xmlns:inkscape="http://www.inkscape.org/namespaces/inkscape"
   width="101.20825mm"
   height="44.244938mm"
   viewBox="0 0 101.20825 44.244938"
   version="1.1"
   id="svg8"
   inkscape:version="0.92.2 (5c3e80d, 2017-08-06)"
   sodipodi:docname="FDF_collar_OF2_kapteeni.svg">
  <defs
     id="defs2">
    <pattern
       y="0"
       x="0"
       height="6"
       width="6"
       patternUnits="userSpaceOnUse"
       id="EMFhbasepattern" />
  </defs>
  <sodipodi:namedview
     id="base"
     pagecolor="#ffffff"
     bordercolor="#666666"
     borderopacity="1.0"
     inkscape:pageopacity="0.0"
     inkscape:pageshadow="2"
     inkscape:zoom="1.979899"
     inkscape:cx="227.25989"
     inkscape:cy="111.57791"
     inkscape:document-units="mm"
     inkscape:current-layer="layer1"
     showgrid="false"
     fit-margin-top="0"
     fit-margin-left="0"
     fit-margin-right="0"
     fit-margin-bottom="0"
     inkscape:window-width="3840"
     inkscape:window-height="2066"
     inkscape:window-x="-11"
     inkscape:window-y="-11"
     inkscape:window-maximized="1" />
  <metadata
     id="metadata5">
    <rdf:RDF>
      <cc:Work
         rdf:about="">
        <dc:format>image/svg+xml</dc:format>
        <dc:type
           rdf:resource="http://purl.org/dc/dcmitype/StillImage" />
        <dc:title></dc:title>
      </cc:Work>
    </rdf:RDF>
  </metadata>
  <g
     inkscape:label="Taso 1"
     inkscape:groupmode="layer"
     id="layer1"
     transform="translate(-43.321104,-109.09656)"
     style="display:inline">
    <g
       style="display:inline"
       id="g1769"
       transform="matrix(0.28222223,0,0,0.28222223,-973.84422,551.54053)">
      <path
         sodipodi:nodetypes="cccccc"
         inkscape:connector-curvature="0"
         id="path2198"
         d="m 3670.117,-1567.7148 -65.988,156.7734 340.2219,-12.281 c -13.67,-24.4042 -17.568,-46.3677 0.648,-69.5382 -15.804,-29.4609 4.604,-58.2569 17.742,-74.9542 z"
         style="color:#000000;font-style:normal;font-variant:normal;font-weight:normal;font-stretch:normal;font-size:medium;line-height:normal;font-family:sans-serif;font-variant-ligatures:normal;font-variant-position:normal;font-variant-caps:normal;font-variant-numeric:normal;font-variant-alternates:normal;font-feature-settings:normal;text-indent:0;text-align:start;text-decoration:none;text-decoration-line:none;text-decoration-style:solid;text-decoration-color:#000000;letter-spacing:normal;word-spacing:normal;text-transform:none;writing-mode:lr-tb;direction:ltr;text-orientation:mixed;dominant-baseline:auto;baseline-shift:baseline;text-anchor:start;white-space:normal;shape-padding:0;clip-rule:nonzero;display:inline;overflow:visible;visibility:visible;opacity:1;isolation:auto;mix-blend-mode:normal;color-interpolation:sRGB;color-interpolation-filters:linearRGB;solid-color:#000000;solid-opacity:1;vector-effect:none;fill:#005647;fill-opacity:1;fill-rule:evenodd;stroke:none;stroke-width:10.63031197;stroke-linecap:round;stroke-linejoin:miter;stroke-miterlimit:4;stroke-dasharray:none;stroke-dashoffset:0;stroke-opacity:1;color-rendering:auto;image-rendering:auto;shape-rendering:auto;text-rendering:auto;enable-background:accumulate" />
      <path
         sodipodi:nodetypes="cccccccccccc"
         inkscape:connector-curvature="0"
         id="path2200"
         d="m 3677.181,-1557.0825 -56.692,134.6502 307.3749,-10.776 c -10.405,-24.1241 -5.684,-45.2325 5.112,-60.9 -8.751,-22.624 -3.724,-43.809 10.655,-62.6881 z m 7.056,10.631 240.4429,0.5722 c -7.408,15.62 -8.688,33.9195 -3.4,50.3679 -9.148,15.5881 -12.301,33.8351 -7.841,52.1474 l -276.5729,9.4254 z"
         style="color:#000000;font-style:normal;font-variant:normal;font-weight:normal;font-stretch:normal;font-size:medium;line-height:normal;font-family:sans-serif;font-variant-ligatures:normal;font-variant-position:normal;font-variant-caps:normal;font-variant-numeric:normal;font-variant-alternates:normal;font-feature-settings:normal;text-indent:0;text-align:start;text-decoration:none;text-decoration-line:none;text-decoration-style:solid;text-decoration-color:#000000;letter-spacing:normal;word-spacing:normal;text-transform:none;writing-mode:lr-tb;direction:ltr;text-orientation:mixed;dominant-baseline:auto;baseline-shift:baseline;text-anchor:start;white-space:normal;shape-padding:0;clip-rule:nonzero;display:inline;overflow:visible;visibility:visible;opacity:1;isolation:auto;mix-blend-mode:normal;color-interpolation:sRGB;color-interpolation-filters:linearRGB;solid-color:#000000;solid-opacity:1;vector-effect:none;fill:#e6e6e6;fill-opacity:1;fill-rule:evenodd;stroke:none;stroke-width:0.70866138;stroke-linecap:round;stroke-linejoin:miter;stroke-miterlimit:4;stroke-dasharray:none;stroke-dashoffset:0;stroke-opacity:1;color-rendering:auto;image-rendering:auto;shape-rendering:auto;text-rendering:auto;enable-background:accumulate" />
      <path
         inkscape:connector-curvature="0"
         id="path2202"
         d="m 3680.0123,-1488.6433 -9.428,24.5177 7.277,-4.9712 0.03,-0.081 4.845,-12.724 0.126,-0.3296 v 0 z m 9.923,3.814 -6.411,2.8509 -0.125,0.3278 -4.513,11.8543 7.143,-4.8817 z m 7.353,3.3545 -11.715,7.9834 v -0.024 l -7.135,4.8743 -0.02,0.048 -0.03,-0.011 -8.522,5.8191 -0.291,0.2013 v -0.01 l -10.065,6.8609 -3.881,8.5456 40.057,-27.204 0.29,-0.1959 z m -0.904,7.4762 -0.298,0.1978 -39.984,27.1563 9.78,-0.5603 10.246,-6.9836 v 0 l 16.589,-11.3178 0.293,-0.1995 v 0 l 10.253,-6.9892 z m -44.334,5.8081 -13.91,33.0396 7.978,-5.2222 8.743,-20.7257 0.131,-0.3132 z m 40.747,3.49 -7.166,4.8889 12.719,0.1117 h 0.353 v 0 l 5.003,-4.931 z m -30.614,0.9851 -6.538,2.5745 -0.133,0.3168 -8.565,20.3045 41.157,-2.1295 0.353,-0.02 v 0.01 l 4.709,-5.2093 -25.999,1.3055 -12.927,0.7397 4.149,-9.1333 -0.02,0.013 z m 22.427,4.6051 -7.228,4.9311 26.249,0.1867 -4.928,-4.997 h -0.353 l -13.414,-0.1171 z m 3.863,17.1515 -0.329,0.016 -41.626,2.1533 -7.937,5.1984 55.277,-2.1607 z"
         style="color:#000000;font-style:normal;font-variant:normal;font-weight:normal;font-stretch:normal;font-size:medium;line-height:normal;font-family:sans-serif;font-variant-ligatures:normal;font-variant-position:normal;font-variant-caps:normal;font-variant-numeric:normal;font-variant-alternates:normal;font-feature-settings:normal;text-indent:0;text-align:start;text-decoration:none;text-decoration-line:none;text-decoration-style:solid;text-decoration-color:#000000;letter-spacing:normal;word-spacing:normal;text-transform:none;writing-mode:lr-tb;direction:ltr;text-orientation:mixed;dominant-baseline:auto;baseline-shift:baseline;text-anchor:start;white-space:normal;shape-padding:0;clip-rule:nonzero;display:inline;overflow:visible;visibility:visible;opacity:1;isolation:auto;mix-blend-mode:normal;color-interpolation:sRGB;color-interpolation-filters:linearRGB;solid-color:#000000;solid-opacity:1;vector-effect:none;fill:#e6e6e6;fill-opacity:1;fill-rule:nonzero;stroke:none;stroke-width:10.62992096;stroke-linecap:butt;stroke-linejoin:miter;stroke-miterlimit:4;stroke-dasharray:none;stroke-dashoffset:0;stroke-opacity:1;color-rendering:auto;image-rendering:auto;shape-rendering:auto;text-rendering:auto;enable-background:accumulate" />
      <path
         id="path2204"
         d="m 3685.104,-1545.8035 3.3,5.1252 0.123,0.1922 14.86,-0.01 h 0.326 l 4.768,-5.1745 z m -0.59,0.3937 -9.185,21.9251 6.596,-2.4335 0.132,-0.3058 5.882,-13.8684 -0.133,-0.2033 z m 19.224,5.5939 v 0.026 h -0.351 l -14.814,0.01 -5.865,13.8299 -0.138,0.3259 -0.02,-0.01 2.435,6.5937 3.536,-8.0347 0.14,-0.326 3.199,-7.4926 h 6.34 l 10.715,-0.152 z m -11.037,5.6342 4.206,6.4416 0.186,0.2911 6.889,1.366 -5.319,-8.0987 z m -0.562,0.4376 -2.327,5.4492 5.337,8.1226 1.362,-6.8866 -0.196,-0.2966 z"
         style="color:#000000;font-style:normal;font-variant:normal;font-weight:normal;font-stretch:normal;font-size:medium;line-height:normal;font-family:sans-serif;font-variant-ligatures:normal;font-variant-position:normal;font-variant-caps:normal;font-variant-numeric:normal;font-variant-alternates:normal;font-feature-settings:normal;text-indent:0;text-align:start;text-decoration:none;text-decoration-line:none;text-decoration-style:solid;text-decoration-color:#000000;letter-spacing:normal;word-spacing:normal;text-transform:none;writing-mode:lr-tb;direction:ltr;text-orientation:mixed;dominant-baseline:auto;baseline-shift:baseline;text-anchor:start;white-space:normal;shape-padding:0;clip-rule:nonzero;display:inline;overflow:visible;visibility:visible;opacity:1;isolation:auto;mix-blend-mode:normal;color-interpolation:sRGB;color-interpolation-filters:linearRGB;solid-color:#000000;solid-opacity:1;vector-effect:none;fill:#e6e6e6;fill-opacity:1;fill-rule:nonzero;stroke:none;stroke-width:10.62992096;stroke-linecap:butt;stroke-linejoin:miter;stroke-miterlimit:4;stroke-dasharray:none;stroke-dashoffset:0;stroke-opacity:1;color-rendering:auto;image-rendering:auto;shape-rendering:auto;text-rendering:auto;enable-background:accumulate"
         inkscape:connector-curvature="0" />
      <g
         style="stroke-width:1.09114683;stroke-miterlimit:5.80000019;stroke-dasharray:none"
         inkscape:transform-center-y="0.70367926"
         transform="matrix(0.97419711,0,0,0.97419711,-672.86286,-203.24463)"
         id="g2271">
        <g
           style="stroke-width:1.09114683;stroke-miterlimit:5.80000019;stroke-dasharray:none"
           inkscape:transform-center-y="0.72230003"
           transform="translate(-1.375,-0.4293)"
           id="g2269">
          <path
             inkscape:connector-curvature="0"
             d="m 4543.6836,-1301.43 c 4.0527,-2.9444 6.8263,-6.995 8.2076,-11.4371 l 2.6305,-1.0966 -1.5196,-2.3222 c 1.4845,-4.3981 1.6175,-9.2943 0.073,-14.0482 -1.548,-4.7642 -4.5433,-8.6538 -8.3411,-11.3402 l -0.1563,-2.8953 -2.7521,0.782 c -3.7242,-2.7706 -8.3397,-4.4102 -13.3382,-4.4102 -5.0095,0 -9.6343,1.6468 -13.3627,4.4285 l -2.7274,-0.8005 -0.1807,2.9125 c -3.786,2.6858 -6.7714,6.5687 -8.3162,11.3226 -1.5484,4.7642 -1.4113,9.6715 0.082,14.0771 l -1.5296,2.293 2.6406,1.1265 c 1.3844,4.4306 4.1548,8.4699 8.1986,11.408 4.0527,2.9444 8.7622,4.3306 13.4136,4.2716 l 1.7815,2.1097 1.8134,-2.1091 c 4.6415,0.053 9.3392,-1.3341 13.3831,-4.2721 z"
             style="display:inline;opacity:1;fill:#ffcb2d;fill-opacity:1;fill-rule:evenodd;stroke:none;stroke-width:1.09114683;stroke-linecap:butt;stroke-linejoin:miter;stroke-miterlimit:5.80000019;stroke-dasharray:none;stroke-dashoffset:0;stroke-opacity:1"
             id="path2257"
             sodipodi:nodetypes="ccccccccscccccccccccc" />
          <path
             style="display:inline;opacity:1;fill:none;fill-opacity:1;fill-rule:evenodd;stroke:#523400;stroke-width:1.09114683;stroke-linecap:butt;stroke-linejoin:miter;stroke-miterlimit:5.80000019;stroke-dasharray:none;stroke-dashoffset:0;stroke-opacity:1"
             d="m 4537.3725,-1322.3459 a 8.8852832,8.8852832 0 0 1 -8.8852,8.8853 8.8852832,8.8852832 0 0 1 -8.8853,-8.8853 8.8852832,8.8852832 0 0 1 8.8853,-8.8852 8.8852832,8.8852832 0 0 1 8.8852,8.8852 z"
             id="path2259"
             inkscape:connector-curvature="0" />
          <path
             id="path2261"
             style="display:inline;opacity:1;fill:none;fill-opacity:1;fill-rule:evenodd;stroke:#523400;stroke-width:1.09114683;stroke-linecap:butt;stroke-linejoin:miter;stroke-miterlimit:5.80000019;stroke-dasharray:none;stroke-dashoffset:0;stroke-opacity:1"
             d="m 4522.5077,-1328.9757 -5.0262,-6.9615 c -0.5785,-0.7717 -1.3104,-1.2905 -2.1175,-1.5529 -2.422,-0.787 -4.5626,0.6882 -5.3497,3.1102 -0.7869,2.422 -0.5042,3.8797 -1.0887,5.6783 -0.5844,1.7985 -1.6697,2.8115 -2.4568,5.2336 -0.7869,2.4221 0.078,4.8737 2.5,5.6608 0.8071,0.2622 1.7042,0.2726 2.6257,-0.012 l 8.1581,-2.6776 m 0.5815,1.7889 -8.1739,2.629 c -0.9127,0.3117 -1.6323,0.8475 -2.1312,1.534 -1.4969,2.0602 -0.7554,4.552 1.3048,6.049 2.0603,1.4968 3.534,1.6785 5.0639,2.79 1.5299,1.1116 2.158,2.4569 4.2183,3.9539 2.0603,1.4969 4.6593,1.4319 6.1562,-0.6283 0.4988,-0.6866 0.786,-1.5366 0.8003,-2.5009 l -0.026,-8.5862 m 1.8809,-3e-4 -0.025,8.5863 c 0.014,0.9643 0.3015,1.8142 0.8003,2.5009 1.4968,2.0603 4.0958,2.1251 6.1561,0.6283 2.0603,-1.497 2.6884,-2.8424 4.2183,-3.9539 1.53,-1.1115 3.0035,-1.2932 5.0639,-2.79 2.0603,-1.497 2.8017,-3.9888 1.3048,-6.0491 -0.4988,-0.6866 -1.2184,-1.2224 -2.1311,-1.5339 l -8.1739,-2.629 m 0.581,-1.789 8.1581,2.6776 c 0.9215,0.2845 1.8187,0.2739 2.6258,0.012 2.422,-0.787 3.2868,-3.2387 2.4999,-5.6608 -0.787,-2.422 -1.8724,-3.4351 -2.4568,-5.2336 -0.5844,-1.7986 -0.3017,-3.2561 -1.0886,-5.6782 -0.7871,-2.422 -2.9278,-3.8971 -5.3498,-3.1102 -0.8071,0.2622 -1.5391,0.781 -2.1175,1.5528 l -5.0262,6.9614 m -1.5218,-1.1054 5.0675,-6.9315 c 0.5553,-0.7884 0.8226,-1.645 0.8226,-2.4936 -1e-4,-2.5467 -2.0646,-4.1268 -4.6113,-4.1268 -2.5466,0 -3.8456,0.7192 -5.7366,0.7192 -1.8911,0 -3.1901,-0.7192 -5.7367,-0.7192 -2.5467,0 -4.6112,1.5801 -4.6113,4.1268 0,0.8486 0.2673,1.7052 0.8226,2.4936 l 5.0675,6.9315"
             inkscape:connector-curvature="0" />
          <path
             id="path2263"
             style="fill:none;stroke:#523400;stroke-width:1.09114683;stroke-linecap:butt;stroke-linejoin:miter;stroke-miterlimit:5.80000019;stroke-dasharray:none;stroke-opacity:1"
             d="m 4521.354,-1327.6344 -5.5275,1.175 3.7812,4.1996 m -3.5341,-4.1193 -7.1922,-2.3369 m 12.372,11.52 -0.5907,5.6201 5.1625,-2.2984 m -5.0098,2.0882 -4.445,6.118 m 14.7794,-8.2065 5.1624,2.2985 -0.5906,-5.6201 m 0.4379,5.4098 4.445,6.1181 m -3.2378,-16.592 3.7813,-4.1995 -5.5276,-1.175 m 5.2804,1.2553 7.1922,-2.3368 m -16.7804,-2.048 -2.8255,-4.8939 -2.8256,4.8939 m 2.8256,-4.6339 v -7.5624"
             inkscape:connector-curvature="0" />
          <path
             id="path2265"
             style="fill:none;stroke:#523400;stroke-width:1.09114683;stroke-linecap:butt;stroke-linejoin:miter;stroke-miterlimit:5.80000019;stroke-dasharray:none;stroke-opacity:1"
             d="m 4519.5368,-1342.293 -7.1395,-2.2768 -0.1146,7.5472 m -5.5321,17.0252 -4.2978,6.0328 7.0686,2.4949 m 14.4824,10.5224 4.4833,5.898 4.4833,-5.898 m 14.4826,-10.522 7.0687,-2.4949 -4.2979,-6.0329 m -5.5315,-17.0252 -0.1146,-7.5473 -7.1396,2.2768"
             inkscape:connector-curvature="0"
             sodipodi:nodetypes="ccccccccccccccc" />
          <path
             id="path2267"
             style="display:inline;opacity:1;fill:none;fill-opacity:1;fill-rule:evenodd;stroke:#523400;stroke-width:1.09114683;stroke-linecap:butt;stroke-linejoin:miter;stroke-miterlimit:5.80000019;stroke-dasharray:none;stroke-dashoffset:0;stroke-opacity:1"
             d="m 4503.9824,-1316.2576 c -1.4933,-4.4056 -1.6304,-9.3129 -0.082,-14.0771 1.5448,-4.7539 4.5302,-8.6368 8.3162,-11.3226 m 14.489,44.4983 c -4.6514,0.059 -9.3609,-1.3272 -13.4136,-4.2716 -4.0438,-2.9381 -6.8142,-6.9774 -8.1986,-11.408 m 46.7978,-0.029 c -1.3813,4.4421 -4.1549,8.4927 -8.2076,11.4371 -4.0439,2.938 -8.7416,4.3246 -13.3831,4.2721 m 14.4335,-44.5164 c 3.7978,2.6864 6.7931,6.576 8.3411,11.3402 1.5445,4.7539 1.4115,9.6501 -0.073,14.0482 m -37.8774,-27.4834 c 3.7284,-2.7817 8.3532,-4.4285 13.3627,-4.4285 4.9985,0 9.614,1.6396 13.3382,4.4102"
             inkscape:connector-curvature="0" />
        </g>
      </g>
      <g
         style="stroke-width:1.09114683;stroke-miterlimit:5.80000019;stroke-dasharray:none"
         id="g2287"
         transform="matrix(0.97419711,0,0,0.97419711,-604.84916,-204.84873)"
         inkscape:transform-center-y="0.70367926">
        <g
           style="stroke-width:1.09114683;stroke-miterlimit:5.80000019;stroke-dasharray:none"
           id="g2285"
           transform="translate(-1.375,-0.4293)"
           inkscape:transform-center-y="0.72230003">
          <path
             sodipodi:nodetypes="ccccccccscccccccccccc"
             id="path2273"
             style="display:inline;opacity:1;fill:#ffcb2d;fill-opacity:1;fill-rule:evenodd;stroke:none;stroke-width:1.09114683;stroke-linecap:butt;stroke-linejoin:miter;stroke-miterlimit:5.80000019;stroke-dasharray:none;stroke-dashoffset:0;stroke-opacity:1"
             d="m 4543.6836,-1301.43 c 4.0527,-2.9444 6.8263,-6.995 8.2076,-11.4371 l 2.6305,-1.0966 -1.5196,-2.3222 c 1.4845,-4.3981 1.6175,-9.2943 0.073,-14.0482 -1.548,-4.7642 -4.5433,-8.6538 -8.3411,-11.3402 l -0.1563,-2.8953 -2.7521,0.782 c -3.7242,-2.7706 -8.3397,-4.4102 -13.3382,-4.4102 -5.0095,0 -9.6343,1.6468 -13.3627,4.4285 l -2.7274,-0.8005 -0.1807,2.9125 c -3.786,2.6858 -6.7714,6.5687 -8.3162,11.3226 -1.5484,4.7642 -1.4113,9.6715 0.082,14.0771 l -1.5296,2.293 2.6406,1.1265 c 1.3844,4.4306 4.1548,8.4699 8.1986,11.408 4.0527,2.9444 8.7622,4.3306 13.4136,4.2716 l 1.7815,2.1097 1.8134,-2.1091 c 4.6415,0.053 9.3392,-1.3341 13.3831,-4.2721 z"
             inkscape:connector-curvature="0" />
          <path
             inkscape:connector-curvature="0"
             id="path2275"
             d="m 4537.3725,-1322.3459 a 8.8852832,8.8852832 0 0 1 -8.8852,8.8853 8.8852832,8.8852832 0 0 1 -8.8853,-8.8853 8.8852832,8.8852832 0 0 1 8.8853,-8.8852 8.8852832,8.8852832 0 0 1 8.8852,8.8852 z"
             style="display:inline;opacity:1;fill:none;fill-opacity:1;fill-rule:evenodd;stroke:#523400;stroke-width:1.09114683;stroke-linecap:butt;stroke-linejoin:miter;stroke-miterlimit:5.80000019;stroke-dasharray:none;stroke-dashoffset:0;stroke-opacity:1" />
          <path
             inkscape:connector-curvature="0"
             d="m 4522.5077,-1328.9757 -5.0262,-6.9615 c -0.5785,-0.7717 -1.3104,-1.2905 -2.1175,-1.5529 -2.422,-0.787 -4.5626,0.6882 -5.3497,3.1102 -0.7869,2.422 -0.5042,3.8797 -1.0887,5.6783 -0.5844,1.7985 -1.6697,2.8115 -2.4568,5.2336 -0.7869,2.4221 0.078,4.8737 2.5,5.6608 0.8071,0.2622 1.7042,0.2726 2.6257,-0.012 l 8.1581,-2.6776 m 0.5815,1.7889 -8.1739,2.629 c -0.9127,0.3117 -1.6323,0.8475 -2.1312,1.534 -1.4969,2.0602 -0.7554,4.552 1.3048,6.049 2.0603,1.4968 3.534,1.6785 5.0639,2.79 1.5299,1.1116 2.158,2.4569 4.2183,3.9539 2.0603,1.4969 4.6593,1.4319 6.1562,-0.6283 0.4988,-0.6866 0.786,-1.5366 0.8003,-2.5009 l -0.026,-8.5862 m 1.8809,-3e-4 -0.025,8.5863 c 0.014,0.9643 0.3015,1.8142 0.8003,2.5009 1.4968,2.0603 4.0958,2.1251 6.1561,0.6283 2.0603,-1.497 2.6884,-2.8424 4.2183,-3.9539 1.53,-1.1115 3.0035,-1.2932 5.0639,-2.79 2.0603,-1.497 2.8017,-3.9888 1.3048,-6.0491 -0.4988,-0.6866 -1.2184,-1.2224 -2.1311,-1.5339 l -8.1739,-2.629 m 0.581,-1.789 8.1581,2.6776 c 0.9215,0.2845 1.8187,0.2739 2.6258,0.012 2.422,-0.787 3.2868,-3.2387 2.4999,-5.6608 -0.787,-2.422 -1.8724,-3.4351 -2.4568,-5.2336 -0.5844,-1.7986 -0.3017,-3.2561 -1.0886,-5.6782 -0.7871,-2.422 -2.9278,-3.8971 -5.3498,-3.1102 -0.8071,0.2622 -1.5391,0.781 -2.1175,1.5528 l -5.0262,6.9614 m -1.5218,-1.1054 5.0675,-6.9315 c 0.5553,-0.7884 0.8226,-1.645 0.8226,-2.4936 -1e-4,-2.5467 -2.0646,-4.1268 -4.6113,-4.1268 -2.5466,0 -3.8456,0.7192 -5.7366,0.7192 -1.8911,0 -3.1901,-0.7192 -5.7367,-0.7192 -2.5467,0 -4.6112,1.5801 -4.6113,4.1268 0,0.8486 0.2673,1.7052 0.8226,2.4936 l 5.0675,6.9315"
             style="display:inline;opacity:1;fill:none;fill-opacity:1;fill-rule:evenodd;stroke:#523400;stroke-width:1.09114683;stroke-linecap:butt;stroke-linejoin:miter;stroke-miterlimit:5.80000019;stroke-dasharray:none;stroke-dashoffset:0;stroke-opacity:1"
             id="path2277" />
          <path
             inkscape:connector-curvature="0"
             d="m 4521.354,-1327.6344 -5.5275,1.175 3.7812,4.1996 m -3.5341,-4.1193 -7.1922,-2.3369 m 12.372,11.52 -0.5907,5.6201 5.1625,-2.2984 m -5.0098,2.0882 -4.445,6.118 m 14.7794,-8.2065 5.1624,2.2985 -0.5906,-5.6201 m 0.4379,5.4098 4.445,6.1181 m -3.2378,-16.592 3.7813,-4.1995 -5.5276,-1.175 m 5.2804,1.2553 7.1922,-2.3368 m -16.7804,-2.048 -2.8255,-4.8939 -2.8256,4.8939 m 2.8256,-4.6339 v -7.5624"
             style="fill:none;stroke:#523400;stroke-width:1.09114683;stroke-linecap:butt;stroke-linejoin:miter;stroke-miterlimit:5.80000019;stroke-dasharray:none;stroke-opacity:1"
             id="path2279" />
          <path
             sodipodi:nodetypes="ccccccccccccccc"
             inkscape:connector-curvature="0"
             d="m 4519.5368,-1342.293 -7.1395,-2.2768 -0.1146,7.5472 m -5.5321,17.0252 -4.2978,6.0328 7.0686,2.4949 m 14.4824,10.5224 4.4833,5.898 4.4833,-5.898 m 14.4826,-10.522 7.0687,-2.4949 -4.2979,-6.0329 m -5.5315,-17.0252 -0.1146,-7.5473 -7.1396,2.2768"
             style="fill:none;stroke:#523400;stroke-width:1.09114683;stroke-linecap:butt;stroke-linejoin:miter;stroke-miterlimit:5.80000019;stroke-dasharray:none;stroke-opacity:1"
             id="path2281" />
          <path
             inkscape:connector-curvature="0"
             d="m 4503.9824,-1316.2576 c -1.4933,-4.4056 -1.6304,-9.3129 -0.082,-14.0771 1.5448,-4.7539 4.5302,-8.6368 8.3162,-11.3226 m 14.489,44.4983 c -4.6514,0.059 -9.3609,-1.3272 -13.4136,-4.2716 -4.0438,-2.9381 -6.8142,-6.9774 -8.1986,-11.408 m 46.7978,-0.029 c -1.3813,4.4421 -4.1549,8.4927 -8.2076,11.4371 -4.0439,2.938 -8.7416,4.3246 -13.3831,4.2721 m 14.4335,-44.5164 c 3.7978,2.6864 6.7931,6.576 8.3411,11.3402 1.5445,4.7539 1.4115,9.6501 -0.073,14.0482 m -37.8774,-27.4834 c 3.7284,-2.7817 8.3532,-4.4285 13.3627,-4.4285 4.9985,0 9.614,1.6396 13.3382,4.4102"
             style="display:inline;opacity:1;fill:none;fill-opacity:1;fill-rule:evenodd;stroke:#523400;stroke-width:1.09114683;stroke-linecap:butt;stroke-linejoin:miter;stroke-miterlimit:5.80000019;stroke-dasharray:none;stroke-dashoffset:0;stroke-opacity:1"
             id="path2283" />
        </g>
      </g>
      <g
         style="stroke-width:1.09114683;stroke-miterlimit:5.80000019;stroke-dasharray:none"
         inkscape:transform-center-y="0.70367926"
         transform="matrix(0.97419711,0,0,0.97419711,-536.83536,-206.09053)"
         id="g2303">
        <g
           style="stroke-width:1.09114683;stroke-miterlimit:5.80000019;stroke-dasharray:none"
           inkscape:transform-center-y="0.72230003"
           transform="translate(-1.375,-0.4293)"
           id="g2301">
          <path
             inkscape:connector-curvature="0"
             d="m 4543.6836,-1301.43 c 4.0527,-2.9444 6.8263,-6.995 8.2076,-11.4371 l 2.6305,-1.0966 -1.5196,-2.3222 c 1.4845,-4.3981 1.6175,-9.2943 0.073,-14.0482 -1.548,-4.7642 -4.5433,-8.6538 -8.3411,-11.3402 l -0.1563,-2.8953 -2.7521,0.782 c -3.7242,-2.7706 -8.3397,-4.4102 -13.3382,-4.4102 -5.0095,0 -9.6343,1.6468 -13.3627,4.4285 l -2.7274,-0.8005 -0.1807,2.9125 c -3.786,2.6858 -6.7714,6.5687 -8.3162,11.3226 -1.5484,4.7642 -1.4113,9.6715 0.082,14.0771 l -1.5296,2.293 2.6406,1.1265 c 1.3844,4.4306 4.1548,8.4699 8.1986,11.408 4.0527,2.9444 8.7622,4.3306 13.4136,4.2716 l 1.7815,2.1097 1.8134,-2.1091 c 4.6415,0.053 9.3392,-1.3341 13.3831,-4.2721 z"
             style="display:inline;opacity:1;fill:#ffcb2d;fill-opacity:1;fill-rule:evenodd;stroke:none;stroke-width:1.09114683;stroke-linecap:butt;stroke-linejoin:miter;stroke-miterlimit:5.80000019;stroke-dasharray:none;stroke-dashoffset:0;stroke-opacity:1"
             id="path2289"
             sodipodi:nodetypes="ccccccccscccccccccccc" />
          <path
             style="display:inline;opacity:1;fill:none;fill-opacity:1;fill-rule:evenodd;stroke:#523400;stroke-width:1.09114683;stroke-linecap:butt;stroke-linejoin:miter;stroke-miterlimit:5.80000019;stroke-dasharray:none;stroke-dashoffset:0;stroke-opacity:1"
             d="m 4537.3725,-1322.3459 a 8.8852832,8.8852832 0 0 1 -8.8852,8.8853 8.8852832,8.8852832 0 0 1 -8.8853,-8.8853 8.8852832,8.8852832 0 0 1 8.8853,-8.8852 8.8852832,8.8852832 0 0 1 8.8852,8.8852 z"
             id="path2291"
             inkscape:connector-curvature="0" />
          <path
             id="path2293"
             style="display:inline;opacity:1;fill:none;fill-opacity:1;fill-rule:evenodd;stroke:#523400;stroke-width:1.09114683;stroke-linecap:butt;stroke-linejoin:miter;stroke-miterlimit:5.80000019;stroke-dasharray:none;stroke-dashoffset:0;stroke-opacity:1"
             d="m 4522.5077,-1328.9757 -5.0262,-6.9615 c -0.5785,-0.7717 -1.3104,-1.2905 -2.1175,-1.5529 -2.422,-0.787 -4.5626,0.6882 -5.3497,3.1102 -0.7869,2.422 -0.5042,3.8797 -1.0887,5.6783 -0.5844,1.7985 -1.6697,2.8115 -2.4568,5.2336 -0.7869,2.4221 0.078,4.8737 2.5,5.6608 0.8071,0.2622 1.7042,0.2726 2.6257,-0.012 l 8.1581,-2.6776 m 0.5815,1.7889 -8.1739,2.629 c -0.9127,0.3117 -1.6323,0.8475 -2.1312,1.534 -1.4969,2.0602 -0.7554,4.552 1.3048,6.049 2.0603,1.4968 3.534,1.6785 5.0639,2.79 1.5299,1.1116 2.158,2.4569 4.2183,3.9539 2.0603,1.4969 4.6593,1.4319 6.1562,-0.6283 0.4988,-0.6866 0.786,-1.5366 0.8003,-2.5009 l -0.026,-8.5862 m 1.8809,-3e-4 -0.025,8.5863 c 0.014,0.9643 0.3015,1.8142 0.8003,2.5009 1.4968,2.0603 4.0958,2.1251 6.1561,0.6283 2.0603,-1.497 2.6884,-2.8424 4.2183,-3.9539 1.53,-1.1115 3.0035,-1.2932 5.0639,-2.79 2.0603,-1.497 2.8017,-3.9888 1.3048,-6.0491 -0.4988,-0.6866 -1.2184,-1.2224 -2.1311,-1.5339 l -8.1739,-2.629 m 0.581,-1.789 8.1581,2.6776 c 0.9215,0.2845 1.8187,0.2739 2.6258,0.012 2.422,-0.787 3.2868,-3.2387 2.4999,-5.6608 -0.787,-2.422 -1.8724,-3.4351 -2.4568,-5.2336 -0.5844,-1.7986 -0.3017,-3.2561 -1.0886,-5.6782 -0.7871,-2.422 -2.9278,-3.8971 -5.3498,-3.1102 -0.8071,0.2622 -1.5391,0.781 -2.1175,1.5528 l -5.0262,6.9614 m -1.5218,-1.1054 5.0675,-6.9315 c 0.5553,-0.7884 0.8226,-1.645 0.8226,-2.4936 -1e-4,-2.5467 -2.0646,-4.1268 -4.6113,-4.1268 -2.5466,0 -3.8456,0.7192 -5.7366,0.7192 -1.8911,0 -3.1901,-0.7192 -5.7367,-0.7192 -2.5467,0 -4.6112,1.5801 -4.6113,4.1268 0,0.8486 0.2673,1.7052 0.8226,2.4936 l 5.0675,6.9315"
             inkscape:connector-curvature="0" />
          <path
             id="path2295"
             style="fill:none;stroke:#523400;stroke-width:1.09114683;stroke-linecap:butt;stroke-linejoin:miter;stroke-miterlimit:5.80000019;stroke-dasharray:none;stroke-opacity:1"
             d="m 4521.354,-1327.6344 -5.5275,1.175 3.7812,4.1996 m -3.5341,-4.1193 -7.1922,-2.3369 m 12.372,11.52 -0.5907,5.6201 5.1625,-2.2984 m -5.0098,2.0882 -4.445,6.118 m 14.7794,-8.2065 5.1624,2.2985 -0.5906,-5.6201 m 0.4379,5.4098 4.445,6.1181 m -3.2378,-16.592 3.7813,-4.1995 -5.5276,-1.175 m 5.2804,1.2553 7.1922,-2.3368 m -16.7804,-2.048 -2.8255,-4.8939 -2.8256,4.8939 m 2.8256,-4.6339 v -7.5624"
             inkscape:connector-curvature="0" />
          <path
             id="path2297"
             style="fill:none;stroke:#523400;stroke-width:1.09114683;stroke-linecap:butt;stroke-linejoin:miter;stroke-miterlimit:5.80000019;stroke-dasharray:none;stroke-opacity:1"
             d="m 4519.5368,-1342.293 -7.1395,-2.2768 -0.1146,7.5472 m -5.5321,17.0252 -4.2978,6.0328 7.0686,2.4949 m 14.4824,10.5224 4.4833,5.898 4.4833,-5.898 m 14.4826,-10.522 7.0687,-2.4949 -4.2979,-6.0329 m -5.5315,-17.0252 -0.1146,-7.5473 -7.1396,2.2768"
             inkscape:connector-curvature="0"
             sodipodi:nodetypes="ccccccccccccccc" />
          <path
             id="path2299"
             style="display:inline;opacity:1;fill:none;fill-opacity:1;fill-rule:evenodd;stroke:#523400;stroke-width:1.09114683;stroke-linecap:butt;stroke-linejoin:miter;stroke-miterlimit:5.80000019;stroke-dasharray:none;stroke-dashoffset:0;stroke-opacity:1"
             d="m 4503.9824,-1316.2576 c -1.4933,-4.4056 -1.6304,-9.3129 -0.082,-14.0771 1.5448,-4.7539 4.5302,-8.6368 8.3162,-11.3226 m 14.489,44.4983 c -4.6514,0.059 -9.3609,-1.3272 -13.4136,-4.2716 -4.0438,-2.9381 -6.8142,-6.9774 -8.1986,-11.408 m 46.7978,-0.029 c -1.3813,4.4421 -4.1549,8.4927 -8.2076,11.4371 -4.0439,2.938 -8.7416,4.3246 -13.3831,4.2721 m 14.4335,-44.5164 c 3.7978,2.6864 6.7931,6.576 8.3411,11.3402 1.5445,4.7539 1.4115,9.6501 -0.073,14.0482 m -37.8774,-27.4834 c 3.7284,-2.7817 8.3532,-4.4285 13.3627,-4.4285 4.9985,0 9.614,1.6396 13.3382,4.4102"
             inkscape:connector-curvature="0" />
        </g>
      </g>
    </g>
  </g>
</svg>
