<?xml version="1.0" encoding="UTF-8" standalone="no"?>
<!-- Created with Inkscape (http://www.inkscape.org/) -->

<svg
   xmlns:dc="http://purl.org/dc/elements/1.1/"
   xmlns:cc="http://creativecommons.org/ns#"
   xmlns:rdf="http://www.w3.org/1999/02/22-rdf-syntax-ns#"
   xmlns:svg="http://www.w3.org/2000/svg"
   xmlns="http://www.w3.org/2000/svg"
   xmlns:sodipodi="http://sodipodi.sourceforge.net/DTD/sodipodi-0.dtd"
   xmlns:inkscape="http://www.inkscape.org/namespaces/inkscape"
   width="96.88266mm"
   height="44.244968mm"
   viewBox="0 0 96.882658 44.244969"
   version="1.1"
   id="svg8"
   inkscape:version="0.92.2 (5c3e80d, 2017-08-06)"
   sodipodi:docname="FDF_collar_OF3_majuri.svg">
  <defs
     id="defs2">
    <pattern
       y="0"
       x="0"
       height="6"
       width="6"
       patternUnits="userSpaceOnUse"
       id="EMFhbasepattern" />
  </defs>
  <sodipodi:namedview
     id="base"
     pagecolor="#ffffff"
     bordercolor="#666666"
     borderopacity="1.0"
     inkscape:pageopacity="0.0"
     inkscape:pageshadow="2"
     inkscape:zoom="0.70000001"
     inkscape:cx="199.19654"
     inkscape:cy="75.621137"
     inkscape:document-units="mm"
     inkscape:current-layer="layer1"
     showgrid="false"
     fit-margin-top="0"
     fit-margin-left="0"
     fit-margin-right="0"
     fit-margin-bottom="0"
     inkscape:window-width="3840"
     inkscape:window-height="2066"
     inkscape:window-x="-11"
     inkscape:window-y="-11"
     inkscape:window-maximized="1"
     inkscape:snap-midpoints="true"
     inkscape:object-paths="true" />
  <metadata
     id="metadata5">
    <rdf:RDF>
      <cc:Work
         rdf:about="">
        <dc:format>image/svg+xml</dc:format>
        <dc:type
           rdf:resource="http://purl.org/dc/dcmitype/StillImage" />
        <dc:title />
      </cc:Work>
    </rdf:RDF>
  </metadata>
  <g
     inkscape:label="Taso 1"
     inkscape:groupmode="layer"
     id="layer1"
     transform="translate(-44.992888,-111.5747)"
     style="display:inline">
    <g
       id="g863">
      <path
         style="color:#000000;font-style:normal;font-variant:normal;font-weight:normal;font-stretch:normal;font-size:medium;line-height:normal;font-family:sans-serif;font-variant-ligatures:normal;font-variant-position:normal;font-variant-caps:normal;font-variant-numeric:normal;font-variant-alternates:normal;font-feature-settings:normal;text-indent:0;text-align:start;text-decoration:none;text-decoration-line:none;text-decoration-style:solid;text-decoration-color:#000000;letter-spacing:normal;word-spacing:normal;text-transform:none;writing-mode:lr-tb;direction:ltr;text-orientation:mixed;dominant-baseline:auto;baseline-shift:baseline;text-anchor:start;white-space:normal;shape-padding:0;clip-rule:nonzero;display:inline;overflow:visible;visibility:visible;opacity:1;isolation:auto;mix-blend-mode:normal;color-interpolation:sRGB;color-interpolation-filters:linearRGB;solid-color:#000000;solid-opacity:1;vector-effect:none;fill:#005647;fill-opacity:1;fill-rule:evenodd;stroke:none;stroke-width:3.00011039;stroke-linecap:round;stroke-linejoin:miter;stroke-miterlimit:4;stroke-dasharray:none;stroke-dashoffset:0;stroke-opacity:1;color-rendering:auto;image-rendering:auto;shape-rendering:auto;text-rendering:auto;enable-background:accumulate"
         d="m 63.616169,111.57473 -18.623281,44.24494 91.551762,-2.34959 c -3.9624,-7.07415 -5.09242,-13.45153 0.18796,-20.16805 -4.58131,-8.53996 1.33435,-16.88716 5.14294,-21.72733 z"
         id="path11120"
         inkscape:connector-curvature="0"
         sodipodi:nodetypes="cccccc" />
      <path
         style="color:#000000;font-style:normal;font-variant:normal;font-weight:normal;font-stretch:normal;font-size:medium;line-height:normal;font-family:sans-serif;font-variant-ligatures:normal;font-variant-position:normal;font-variant-caps:normal;font-variant-numeric:normal;font-variant-alternates:normal;font-feature-settings:normal;text-indent:0;text-align:start;text-decoration:none;text-decoration-line:none;text-decoration-style:solid;text-decoration-color:#000000;letter-spacing:normal;word-spacing:normal;text-transform:none;writing-mode:lr-tb;direction:ltr;text-orientation:mixed;dominant-baseline:auto;baseline-shift:baseline;text-anchor:start;white-space:normal;shape-padding:0;clip-rule:nonzero;display:inline;overflow:visible;visibility:visible;opacity:1;isolation:auto;mix-blend-mode:normal;color-interpolation:sRGB;color-interpolation-filters:linearRGB;solid-color:#000000;solid-opacity:1;vector-effect:none;fill:#e6e6e6;fill-opacity:1;fill-rule:evenodd;stroke:none;stroke-width:0.19999999;stroke-linecap:round;stroke-linejoin:miter;stroke-miterlimit:4;stroke-dasharray:none;stroke-dashoffset:0;stroke-opacity:1;color-rendering:auto;image-rendering:auto;shape-rendering:auto;text-rendering:auto;enable-background:accumulate"
         d="m 65.609787,114.5754 -15.999743,38.00128 82.217546,-2.01196 c -3.01639,-6.99296 -1.64761,-12.86471 1.48195,-17.40631 -2.5369,-6.55811 -1.07978,-13.11044 3.08864,-18.58304 z m 1.99136,3.00031 h 63.380343 c -2.14715,4.52783 -2.51855,10.40801 -0.98552,15.17599 -2.65176,4.51857 -3.5656,9.56087 -2.27302,14.86916 l -73.490952,1.70846 z"
         id="path11122"
         inkscape:connector-curvature="0"
         sodipodi:nodetypes="cccccccccccc" />
      <path
         style="color:#000000;font-style:normal;font-variant:normal;font-weight:normal;font-stretch:normal;font-size:medium;line-height:normal;font-family:sans-serif;font-variant-ligatures:normal;font-variant-position:normal;font-variant-caps:normal;font-variant-numeric:normal;font-variant-alternates:normal;font-feature-settings:normal;text-indent:0;text-align:start;text-decoration:none;text-decoration-line:none;text-decoration-style:solid;text-decoration-color:#000000;letter-spacing:normal;word-spacing:normal;text-transform:none;writing-mode:lr-tb;direction:ltr;text-orientation:mixed;dominant-baseline:auto;baseline-shift:baseline;text-anchor:start;white-space:normal;shape-padding:0;clip-rule:nonzero;display:inline;overflow:visible;visibility:visible;opacity:1;isolation:auto;mix-blend-mode:normal;color-interpolation:sRGB;color-interpolation-filters:linearRGB;solid-color:#000000;solid-opacity:1;vector-effect:none;fill:#e6e6e6;fill-opacity:1;fill-rule:evenodd;stroke:none;stroke-width:3;stroke-linecap:round;stroke-linejoin:miter;stroke-miterlimit:4;stroke-dasharray:none;stroke-dashoffset:0;stroke-opacity:1;color-rendering:auto;image-rendering:auto;shape-rendering:auto;text-rendering:auto;enable-background:accumulate"
         d="m 68.266345,118.57616 -12.50047,29.67854 70.683685,-1.6173 c -1.03801,-6.0916 0.5128,-10.45882 2.44179,-14.03088 -1.38628,-4.94569 -0.98693,-9.59967 0.46595,-14.03039 z m 1.991642,2.99971 55.222703,-3e-5 c -0.62286,2.80475 -0.59661,7.36837 0.20885,10.67833 -1.78224,3.62322 -2.71752,7.31416 -2.53944,11.38727 l -62.769044,1.38424 z"
         id="path11124"
         inkscape:connector-curvature="0"
         sodipodi:nodetypes="cccccccccccc" />
      <path
         style="color:#000000;font-style:normal;font-variant:normal;font-weight:normal;font-stretch:normal;font-size:medium;line-height:normal;font-family:sans-serif;font-variant-ligatures:normal;font-variant-position:normal;font-variant-caps:normal;font-variant-numeric:normal;font-variant-alternates:normal;font-feature-settings:normal;text-indent:0;text-align:start;text-decoration:none;text-decoration-line:none;text-decoration-style:solid;text-decoration-color:#000000;letter-spacing:normal;word-spacing:normal;text-transform:none;writing-mode:lr-tb;direction:ltr;text-orientation:mixed;dominant-baseline:auto;baseline-shift:baseline;text-anchor:start;white-space:normal;shape-padding:0;clip-rule:nonzero;display:inline;overflow:visible;visibility:visible;opacity:1;isolation:auto;mix-blend-mode:normal;color-interpolation:sRGB;color-interpolation-filters:linearRGB;solid-color:#000000;solid-opacity:1;vector-effect:none;fill:#e6e6e6;fill-opacity:1;fill-rule:nonzero;stroke:none;stroke-width:3;stroke-linecap:butt;stroke-linejoin:miter;stroke-miterlimit:4;stroke-dasharray:none;stroke-dashoffset:0;stroke-opacity:1;color-rendering:auto;image-rendering:auto;shape-rendering:auto;text-rendering:auto;enable-background:accumulate"
         d="m 72.768354,129.73381 -2.756747,6.88174 2.073204,-1.37426 0.0085,-0.0226 1.41732,-3.57161 0.03697,-0.0925 v 0 z m 2.785251,1.11529 -1.820616,0.77933 -0.03641,0.092 -1.319954,3.32749 2.03454,-1.34951 z m 2.061915,0.97553 -3.337277,2.20683 v -0.007 l -2.032283,1.34747 -0.0056,0.0133 -0.0085,-0.003 -2.42824,1.60861 -0.08269,0.0557 v 0 l -2.867378,1.89657 -1.128607,2.39626 11.41081,-7.51942 0.08269,-0.0541 z m -0.28448,2.10619 -0.08467,0.0546 -11.390207,7.50627 2.761827,-0.11969 2.91846,-1.93049 v 0 l 4.726093,-3.12863 0.08326,-0.0551 v 0 l 2.921,-1.932 z m -12.63396,1.40776 -3.95478,9.32597 2.271324,-1.44235 2.549032,-5.81431 0.0381,-0.0879 z m 11.58494,1.20201 -2.041595,1.35148 3.588738,0.0815 0.09962,0.003 v 0 l 1.431149,-1.37182 z m -8.642491,0.1577 -1.855611,0.70079 -0.03895,0.0889 -2.49682,5.69618 11.622758,-0.4392 0.09991,-0.004 v 0.003 l 1.349022,-1.45152 -7.341729,0.26625 -3.650827,0.15793 1.2065,-2.56106 -0.0056,0.004 z m 6.310207,1.38766 -2.059093,1.36311 7.40664,0.15587 -1.370754,-1.42948 -0.09991,-0.003 -3.7846,-0.0858 z m 1.022491,4.85524 -0.09285,0.003 -11.75512,0.44407 -2.260036,1.43575 15.62862,-0.34259 z"
         id="path11126"
         inkscape:connector-curvature="0"
         sodipodi:nodetypes="cccccccccccccccccccccccccccccccccccccccccccccccccccccccccccccccccccccccccccccc" />
      <path
         inkscape:connector-curvature="0"
         style="color:#000000;font-style:normal;font-variant:normal;font-weight:normal;font-stretch:normal;font-size:medium;line-height:normal;font-family:sans-serif;font-variant-ligatures:normal;font-variant-position:normal;font-variant-caps:normal;font-variant-numeric:normal;font-variant-alternates:normal;font-feature-settings:normal;text-indent:0;text-align:start;text-decoration:none;text-decoration-line:none;text-decoration-style:solid;text-decoration-color:#000000;letter-spacing:normal;word-spacing:normal;text-transform:none;writing-mode:lr-tb;direction:ltr;text-orientation:mixed;dominant-baseline:auto;baseline-shift:baseline;text-anchor:start;white-space:normal;shape-padding:0;clip-rule:nonzero;display:inline;overflow:visible;visibility:visible;opacity:1;isolation:auto;mix-blend-mode:normal;color-interpolation:sRGB;color-interpolation-filters:linearRGB;solid-color:#000000;solid-opacity:1;vector-effect:none;fill:#e6e6e6;fill-opacity:1;fill-rule:nonzero;stroke:none;stroke-width:3;stroke-linecap:butt;stroke-linejoin:miter;stroke-miterlimit:4;stroke-dasharray:none;stroke-dashoffset:0;stroke-opacity:1;color-rendering:auto;image-rendering:auto;shape-rendering:auto;text-rendering:auto;enable-background:accumulate"
         d="m 70.517688,121.74726 0.931333,1.44645 0.03471,0.0542 4.193822,-0.003 h 0.092 l 1.345636,-1.46036 z m -0.166511,0.11111 -2.592211,6.18775 1.861537,-0.68678 0.03725,-0.0863 1.660031,-3.91397 -0.03754,-0.0574 z m 5.42544,1.57873 v 0.007 h -0.09906 l -4.18084,0.003 -1.655234,3.9031 -0.03895,0.092 -0.0056,-0.003 0.687211,1.86089 0.997938,-2.26757 0.03951,-0.092 0.902829,-2.11461 h 1.789289 l 3.024011,-0.0429 z m -3.114887,1.59006 1.187027,1.81799 0.05249,0.0822 1.944229,0.38552 -1.50114,-2.28567 z m -0.158609,0.12353 -0.656731,1.53789 1.50622,2.29238 0.384387,-1.94356 -0.05532,-0.0837 z"
         id="path11128" />
      <g
         transform="translate(0.66145833,-0.01670435)"
         id="g845">
        <path
           sodipodi:nodetypes="ccccccccsccccccccccccc"
           id="path1512-6"
           style="display:inline;opacity:1;fill:#ffcb2d;fill-opacity:1;fill-rule:evenodd;stroke:none;stroke-width:0.30000001;stroke-linecap:butt;stroke-linejoin:miter;stroke-miterlimit:5.80000019;stroke-dasharray:none;stroke-dashoffset:0;stroke-opacity:1"
           d="m 102.10476,139.48191 c 1.21556,-0.8831 2.04036,-2.10414 2.4393,-3.44063 l 1.40019,-0.49629 -0.84621,-1.21011 c 0.46767,-1.31944 0.52022,-2.79775 0.0542,-4.23203 -0.46428,-1.42895 -1.37064,-2.59069 -2.51849,-3.38309 l -0.0394,-1.48505 -1.41227,0.43084 c -1.11034,-0.85254 -2.500035,-1.35932 -4.008146,-1.35932 -1.502466,0 -2.887472,0.50297 -3.995758,1.34978 l -1.424602,-0.42136 -0.02653,1.47628 c -1.15395,0.79254 -2.065415,1.95763 -2.53142,3.39192 -0.464312,1.42894 -0.413907,2.90158 0.04894,4.2173 l -0.840994,1.22462 1.395815,0.48158 c 0.397171,1.34236 1.223574,2.56924 2.443649,3.45567 1.215531,0.88313 2.631666,1.29027 4.026013,1.25665 l 0.904833,1.17828 0.889254,-1.17881 c 1.399371,0.0371 2.821576,-0.36977 4.041646,-1.25623 z"
           inkscape:connector-curvature="0" />
        <path
           style="display:inline;opacity:1;fill:none;fill-opacity:1;fill-rule:evenodd;stroke:#523400;stroke-width:0.30000001;stroke-linecap:butt;stroke-linejoin:miter;stroke-miterlimit:5.80000019;stroke-dasharray:none;stroke-dashoffset:0;stroke-opacity:1"
           d="m 100.00271,132.69517 a 2.8288091,2.8288091 0 0 1 -2.828794,2.8288 2.8288091,2.8288091 0 0 1 -2.828826,-2.8288 2.8288091,2.8288091 0 0 1 2.828826,-2.8288 2.8288091,2.8288091 0 0 1 2.828794,2.8288 z"
           id="path1514-1"
           inkscape:connector-curvature="0" />
        <path
           id="path1516-0"
           style="display:inline;opacity:1;fill:none;fill-opacity:1;fill-rule:evenodd;stroke:#523400;stroke-width:0.30000001;stroke-linecap:butt;stroke-linejoin:miter;stroke-miterlimit:5.80000019;stroke-dasharray:none;stroke-dashoffset:0;stroke-opacity:1"
           d="m 95.270214,130.58443 -1.6002,-2.21635 c -0.184178,-0.24564 -0.417181,-0.41086 -0.674144,-0.49437 -0.771116,-0.25055 -1.452598,0.21909 -1.703183,0.99018 -0.250529,0.77109 -0.160556,1.23517 -0.346625,1.8078 -0.186041,0.5726 -0.531594,0.8951 -0.782151,1.66624 -0.250529,0.77109 0.02484,1.5516 0.795923,1.80222 0.256963,0.0835 0.542544,0.0868 0.835942,-0.004 l 2.597292,-0.85248 m 0.185109,0.56955 -2.602286,0.83696 c -0.290605,0.0992 -0.519713,0.26983 -0.678519,0.48838 -0.476561,0.65592 -0.24051,1.44924 0.415403,1.92583 0.655941,0.47656 1.125107,0.53439 1.612166,0.88827 0.487087,0.35388 0.68707,0.78218 1.343011,1.25879 0.655941,0.47656 1.483388,0.45588 1.959949,-0.20004 0.158778,-0.21858 0.250246,-0.48923 0.25479,-0.79623 l -0.0082,-2.73355 m 0.598847,-1.4e-4 -0.0079,2.73366 c 0.0045,0.307 0.09598,0.57757 0.25479,0.79618 0.476532,0.65597 1.303979,0.6766 1.95992,0.20007 0.655942,-0.47662 0.855932,-0.90495 1.343012,-1.25883 0.48706,-0.35388 0.9562,-0.4117 1.61217,-0.88824 0.65594,-0.47661 0.89196,-1.26991 0.4154,-1.92585 -0.15878,-0.21858 -0.38791,-0.38921 -0.67846,-0.48836 l -2.602347,-0.83699 m 0.184969,-0.56958 2.597328,0.85248 c 0.29337,0.0906 0.579,0.0872 0.83594,0.004 0.77111,-0.25058 1.04645,-1.03109 0.79592,-1.80224 -0.25056,-0.77109 -0.59611,-1.09364 -0.78215,-1.66624 -0.18607,-0.57257 -0.0961,-1.03663 -0.3466,-1.80774 -0.25061,-0.77112 -0.93212,-1.24074 -1.70324,-0.99021 -0.25693,0.0835 -0.48996,0.24867 -0.67414,0.49437 l -1.600177,2.21632 m -0.484519,-0.35193 1.613356,-2.20678 c 0.17678,-0.25101 0.26193,-0.52372 0.26193,-0.79389 -6e-5,-0.8108 -0.657328,-1.31386 -1.468152,-1.31386 -0.81074,0 -1.224308,0.22897 -1.826345,0.22897 -0.602064,0 -1.015633,-0.22897 -1.826401,-0.22897 -0.810796,0 -1.468064,0.50306 -1.468092,1.31386 0,0.27017 0.08512,0.54288 0.261874,0.79389 l 1.613352,2.20678"
           inkscape:connector-curvature="0" />
        <path
           id="path1518-4"
           style="fill:none;stroke:#523400;stroke-width:0.30000001;stroke-linecap:butt;stroke-linejoin:miter;stroke-miterlimit:5.80000019;stroke-dasharray:none;stroke-opacity:1"
           d="m 94.902902,131.01146 -1.759797,0.37409 1.203819,1.33702 m -1.125163,-1.31148 -2.289782,-0.74397 m 3.938891,3.66759 -0.188073,1.78932 1.643578,-0.73175 m -1.594951,0.66481 -1.415175,1.94778 m 4.70535,-2.6127 1.643549,0.73177 -0.188045,-1.78926 m 0.139447,1.72229 1.41515,1.94782 m -1.03082,-5.28236 1.20385,-1.33703 -1.759856,-0.37405 m 1.681146,0.39962 2.28981,-0.74393 m -5.342415,-0.65208 -0.899555,-1.55806 -0.899584,1.55806 m 0.899584,-1.47529 v -2.40761"
           inkscape:connector-curvature="0" />
        <path
           inkscape:connector-curvature="0"
           d="m 103.13733,136.52453 2.80692,-0.97962 -1.69499,-2.44241 m -1.59061,-4.89557 -0.0643,-2.97222 -2.846662,0.85728 m -5.147479,-6e-5 -2.846635,-0.85728 -0.06435,2.97223 m -1.59069,4.89551 -1.694998,2.44238 2.806897,0.97968 m 4.164359,3.02562 1.799054,2.3668 1.799082,-2.3668"
           style="fill:none;stroke:#523400;stroke-width:0.30000001;stroke-linecap:butt;stroke-linejoin:miter;stroke-miterlimit:5.80000019;stroke-dasharray:none;stroke-opacity:1"
           id="path1520-6" />
        <path
           inkscape:connector-curvature="0"
           d="m 89.244544,134.32015 c -0.462845,-1.31572 -0.513221,-2.78836 -0.04894,-4.2173 0.466005,-1.43429 1.37747,-2.59938 2.531392,-3.39192 m 4.542028,14.02766 c -1.394347,0.0336 -2.810482,-0.37352 -4.026013,-1.25665 -1.220075,-0.88643 -2.046478,-2.11331 -2.443649,-3.45567 m 14.744698,0.0149 c -0.39894,1.33652 -1.22374,2.55753 -2.4393,3.44066 -1.22007,0.88643 -2.642279,1.29328 -4.041649,1.2562 m 4.570649,-14.01834 c 1.14785,0.79239 2.05421,1.95413 2.51849,3.38308 0.46601,1.43428 0.41346,2.91259 -0.0542,4.23203 m -11.919857,-8.67887 c 1.108286,-0.8468 2.493292,-1.34978 3.995758,-1.34978 1.508111,0 2.897809,0.50679 4.008149,1.35932"
           style="display:inline;opacity:1;fill:none;fill-opacity:1;fill-rule:evenodd;stroke:#523400;stroke-width:0.30000001;stroke-linecap:butt;stroke-linejoin:miter;stroke-miterlimit:5.80000019;stroke-dasharray:none;stroke-dashoffset:0;stroke-opacity:1"
           id="path1522-7" />
      </g>
    </g>
  </g>
</svg>
